<svg xmlns="http://www.w3.org/2000/svg" xmlns:xlink="http://www.w3.org/1999/xlink" width="200" height="40" viewBox="0 0 200 40">
  <defs>
    <clipPath id="clip-path">
      <rect id="Rect치ngulo_3821" data-name="Rect치ngulo 3821" width="159.984" height="31.003" fill="none"/>
    </clipPath>
  </defs>
  <g id="Grupo_16071" data-name="Grupo 16071" transform="translate(-1850 820)">
    <g id="amazon_prime" data-name="amazon prime" transform="translate(1870 -816)">
      <g id="amazon_prime-2" data-name="amazon prime" clip-path="url(#clip-path)">
        <path id="Trazado_7316" data-name="Trazado 7316" d="M183.173,32.721a.776.776,0,0,1-.533-.145.727.727,0,0,1-.145-.533V13.663a.727.727,0,0,1,.145-.533.776.776,0,0,1,.533-.145h1.988a.727.727,0,0,1,.776.63l.194.727a6.111,6.111,0,0,1,1.988-1.261A6.353,6.353,0,0,1,190.5,12.6a5.141,5.141,0,0,1,4.219,1.94,8.233,8.233,0,0,1,1.552,5.286,9.652,9.652,0,0,1-.776,3.977,6.255,6.255,0,0,1-2.085,2.619,5.189,5.189,0,0,1-3.055.921A6.449,6.449,0,0,1,188.217,27a5.189,5.189,0,0,1-1.746-.97v6.013a.582.582,0,0,1-.679.679Zm6.062-8.39a2.57,2.57,0,0,0,2.279-1.067,5.932,5.932,0,0,0,.727-3.3,6.193,6.193,0,0,0-.727-3.346,2.57,2.57,0,0,0-2.279-1.067,5.237,5.237,0,0,0-2.716.727v7.274a5.043,5.043,0,0,0,2.716.727" transform="translate(-93.991 -6.486)" fill="#0096d6"/>
        <path id="Trazado_7317" data-name="Trazado 7317" d="M217.268,27.306a.582.582,0,0,1-.679-.679V13.922a.727.727,0,0,1,.145-.533.776.776,0,0,1,.533-.145h1.988a.727.727,0,0,1,.776.63l.339,1.5a7.856,7.856,0,0,1,2.085-1.746,4.461,4.461,0,0,1,2.085-.533h.388a.825.825,0,0,1,.533.145.728.728,0,0,1,.145.533V16.1a.776.776,0,0,1-.145.533.727.727,0,0,1-.533.145H223.67a8.2,8.2,0,0,0-1.552.194,7.614,7.614,0,0,0-1.552.436v9.214a.776.776,0,0,1-.146.533.727.727,0,0,1-.533.145Z" transform="translate(-111.55 -6.745)" fill="#0096d6"/>
        <path id="Trazado_7318" data-name="Trazado 7318" d="M240.975,4.322a2.376,2.376,0,0,1-1.649-.582,2.037,2.037,0,0,1-.63-1.552,2.036,2.036,0,0,1,.63-1.6,2.716,2.716,0,0,1,3.346,0,2.037,2.037,0,0,1,.63,1.552,2.037,2.037,0,0,1-.63,1.552,2.376,2.376,0,0,1-1.7.582m-1.309,16.246a.582.582,0,0,1-.679-.679V7.183a.728.728,0,0,1,.146-.533.776.776,0,0,1,.533-.145h2.667a.776.776,0,0,1,.534.145.775.775,0,0,1,.145.533V19.889a.775.775,0,0,1-.145.533.728.728,0,0,1-.534.145Z" transform="translate(-122.939 -0.006)" fill="#0096d6"/>
        <path id="Trazado_7319" data-name="Trazado 7319" d="M255.268,26.99a.582.582,0,0,1-.679-.679V13.606a.727.727,0,0,1,.146-.533.776.776,0,0,1,.533-.145h1.988a.728.728,0,0,1,.776.63l.242.727a11.884,11.884,0,0,1,2.619-1.358,7.42,7.42,0,0,1,2.425-.388,3.708,3.708,0,0,1,3.492,1.746,11.3,11.3,0,0,1,2.667-1.358,8.051,8.051,0,0,1,2.57-.436,4.025,4.025,0,0,1,3.007,1.067,4.074,4.074,0,0,1,1.067,3.007v9.747a.775.775,0,0,1-.145.533.727.727,0,0,1-.533.145h-2.716a.582.582,0,0,1-.679-.679V17.437q0-1.891-1.7-1.891a6.982,6.982,0,0,0-3.007.727V26.312a.776.776,0,0,1-.146.533.727.727,0,0,1-.533.145H264a.582.582,0,0,1-.679-.679V17.437q0-1.891-1.7-1.891a6.692,6.692,0,0,0-3.055.727V26.312a.776.776,0,0,1-.146.533.727.727,0,0,1-.533.145Z" transform="translate(-131.122 -6.429)" fill="#0096d6"/>
        <path id="Trazado_7320" data-name="Trazado 7320" d="M311.08,27.436a6.979,6.979,0,0,1-5.237-1.891A7.4,7.4,0,0,1,304,20.162a7.947,7.947,0,0,1,1.891-5.625A6.733,6.733,0,0,1,311.08,12.5a5.945,5.945,0,0,1,4.025,1.261,4.122,4.122,0,0,1,1.455,3.3,3.54,3.54,0,0,1-1.552,3.152,8.154,8.154,0,0,1-4.607,1.067,10.815,10.815,0,0,1-2.716-.291,3.728,3.728,0,0,0,1.115,2.667,4.143,4.143,0,0,0,2.861.776l1.5-.1L315.2,23.9h.291q.485,0,.485.63v1.261a1.163,1.163,0,0,1-.145.63,1.018,1.018,0,0,1-.485.339,11.832,11.832,0,0,1-4.267.776m-.921-8.681a3.734,3.734,0,0,0,2.037-.436,1.455,1.455,0,0,0,.63-1.309q0-1.746-2.085-1.746t-3.007,3.2a12.513,12.513,0,0,0,2.473.242" transform="translate(-156.576 -6.438)" fill="#0096d6"/>
        <path id="Trazado_7321" data-name="Trazado 7321" d="M63.332,48.983c-4.8,3.54-11.687,5.383-17.652,5.383A31.958,31.958,0,0,1,24.1,46.122c-.436-.388-.048-.97.485-.63a43.451,43.451,0,0,0,21.58,5.722,42.966,42.966,0,0,0,16.488-3.395c.824-.339,1.5.533.679,1.115" transform="translate(-12.315 -23.378)" fill="#002552" fill-rule="evenodd"/>
        <path id="Trazado_7322" data-name="Trazado 7322" d="M102.956,45.814c-.63-.776-4.025-.388-5.577-.194-.485.049-.533-.339-.1-.63,2.716-1.94,7.226-1.358,7.759-.727s-.145,5.14-2.716,7.274c-.388.339-.776.145-.582-.291.582-1.455,1.891-4.656,1.261-5.431" transform="translate(-49.951 -22.488)" fill="#002552" fill-rule="evenodd"/>
        <path id="Trazado_7323" data-name="Trazado 7323" d="M97.48,15.928V14.085a.485.485,0,0,1,.485-.485h8.39a.485.485,0,0,1,.485.485v1.6a2.618,2.618,0,0,1-.63,1.164l-4.365,6.159a9.263,9.263,0,0,1,4.752,1.018.873.873,0,0,1,.436.727v1.988a.458.458,0,0,1-.63.436,9.651,9.651,0,0,0-8.826,0c-.291.145-.582-.145-.582-.436V24.9a2.231,2.231,0,0,1,.291-1.261l5.043-7.226H97.965a.485.485,0,0,1-.485-.485" transform="translate(-49.955 -7.005)" fill="#002552" fill-rule="evenodd"/>
        <path id="Trazado_7324" data-name="Trazado 7324" d="M126.071,15.767c-1.891,0-1.988,2.57-1.988,4.171s0,4.995,1.988,4.995,2.085-2.764,2.085-4.413a12.075,12.075,0,0,0-.388-3.443,1.6,1.6,0,0,0-1.649-1.261m0-2.667c3.783,0,5.819,3.249,5.819,7.371s-2.328,7.08-5.916,7.08-5.722-3.249-5.722-7.274,2.037-7.226,5.722-7.226" transform="translate(-61.961 -6.747)" fill="#002552" fill-rule="evenodd"/>
        <path id="Trazado_7325" data-name="Trazado 7325" d="M78.884,27.154a.533.533,0,0,1-.582.048,6.643,6.643,0,0,1-1.455-1.7,5.1,5.1,0,0,1-4.219,1.843A3.778,3.778,0,0,1,68.8,23.372,4.316,4.316,0,0,1,71.513,19.2a15.868,15.868,0,0,1,4.8-.873,4.4,4.4,0,0,0-.291-2.182,1.794,1.794,0,0,0-1.406-.679,1.94,1.94,0,0,0-2.037,1.5c-.048.291-.242.533-.485.485l-2.425-.242a.436.436,0,0,1-.388-.533c.582-3.007,3.249-3.88,5.674-3.88a5.793,5.793,0,0,1,3.831,1.261c.97.921,1.115,2.716,1.115,4.365V22.4a3.471,3.471,0,0,0,.97,2.376.485.485,0,0,1,0,.679l-1.94,1.7m-2.619-6.207a5.311,5.311,0,0,1-.485,2.716,2.085,2.085,0,0,1-1.746,1.164c-.97,0-1.552-.727-1.552-1.843,0-2.182,1.94-2.57,3.783-2.57Z" transform="translate(-35.432 -6.593)" fill="#002552" fill-rule="evenodd"/>
        <path id="Trazado_7326" data-name="Trazado 7326" d="M10.084,27.154A.533.533,0,0,1,9.5,27.2a6.644,6.644,0,0,1-1.455-1.7,5.1,5.1,0,0,1-4.219,1.843A3.778,3.778,0,0,1,0,23.372,4.316,4.316,0,0,1,2.712,19.2a15.868,15.868,0,0,1,4.8-.873,4.4,4.4,0,0,0-.291-2.182,1.794,1.794,0,0,0-1.406-.679,1.94,1.94,0,0,0-2.037,1.5c-.048.291-.242.533-.485.485L.87,17.213a.436.436,0,0,1-.388-.533c.582-3.007,3.249-3.88,5.674-3.88a5.793,5.793,0,0,1,3.831,1.261c.97.921,1.115,2.716,1.115,4.365V22.4a3.471,3.471,0,0,0,.97,2.376.485.485,0,0,1,0,.679l-1.94,1.7M7.513,20.947a5.311,5.311,0,0,1-.485,2.716,2.085,2.085,0,0,1-1.746,1.164c-.97,0-1.552-.727-1.552-1.843,0-2.182,1.94-2.57,3.783-2.57Z" transform="translate(0.003 -6.593)" fill="#002552" fill-rule="evenodd"/>
        <path id="Trazado_7327" data-name="Trazado 7327" d="M32.392,19.938c0-1.5-.048-3.589,1.746-3.589s1.6,2.134,1.6,3.589v6.935a.485.485,0,0,0,.436.485H38.7a.485.485,0,0,0,.485-.485V19.938a7.9,7.9,0,0,1,.242-2.522,1.7,1.7,0,0,1,1.5-1.067,1.309,1.309,0,0,1,1.5,1.115,16.73,16.73,0,0,1,.048,2.425v6.983a.485.485,0,0,0,.436.485h2.522a.485.485,0,0,0,.485-.485V18.628c0-1.406.145-3.007-.63-4.074a3.783,3.783,0,0,0-6.45.97c-.727-1.649-1.7-2.425-3.3-2.425A3.344,3.344,0,0,0,32.2,15.525h-.048v-1.7a.485.485,0,0,0-.485-.485H29.385a.485.485,0,0,0-.485.485V26.873a.485.485,0,0,0,.485.485h2.522a.485.485,0,0,0,.485-.485Z" transform="translate(-14.885 -6.747)" fill="#002552" fill-rule="evenodd"/>
        <path id="Trazado_7328" data-name="Trazado 7328" d="M151.54,26.87a.485.485,0,0,1-.485.485h-2.57A.485.485,0,0,1,148,26.87V13.825a.485.485,0,0,1,.485-.485h2.328a.485.485,0,0,1,.485.388v1.988h.049c.727-1.794,1.7-2.619,3.492-2.619a3.346,3.346,0,0,1,2.958,1.552c.679,1.067.679,2.813.679,4.074v8.244a.485.485,0,0,1-.485.388h-2.57a.485.485,0,0,1-.436-.388V19.014c0-2.619-1.018-2.716-1.6-2.716a1.746,1.746,0,0,0-1.455,1.018,5.916,5.916,0,0,0-.436,2.473Z" transform="translate(-76.228 -6.744)" fill="#002552" fill-rule="evenodd"/>
      </g>
    </g>
    <rect id="Rect치ngulo_9208" data-name="Rect치ngulo 9208" width="200" height="40" transform="translate(1850 -820)" fill="none"/>
  </g>
</svg>
