<svg xmlns="http://www.w3.org/2000/svg" width="131" height="28" viewBox="0 0 131 28">
  <g id="Grupo_16338" data-name="Grupo 16338" transform="translate(1487 -4059)">
    <rect id="Rectángulo_8458" data-name="Rectángulo 8458" width="131" height="28" transform="translate(-1487 4059)" fill="none"/>
    <g id="hbomax" transform="translate(-1463 4066)">
      <g id="Grupo_1287" data-name="Grupo 1287" transform="translate(0 0)">
        <g id="Grupo_1285" data-name="Grupo 1285" transform="translate(35.282 0.005)">
          <g id="Grupo_1284" data-name="Grupo 1284">
            <path id="Trazado_4459" data-name="Trazado 4459" d="M587.824,5.173c0,.009,0,8.686,0,8.686a.22.22,0,0,1-.193.235h-1.179a1.287,1.287,0,0,1-1.263-1.285v-7.6a2.461,2.461,0,0,0-2.624-2.512,2.489,2.489,0,0,0-2.617,2.554V13.87a.212.212,0,0,1-.2.224H578.57a1.312,1.312,0,0,1-1.263-1.313V5.217a2.623,2.623,0,0,0-5.242.007v8.657a.2.2,0,0,1-.2.213H570.69a1.265,1.265,0,0,1-1.26-1.263s0-7.618,0-7.625a4.94,4.94,0,0,1,5.25-5.115,5.283,5.283,0,0,1,3.943,1.56A5.282,5.282,0,0,1,582.56.08,4.939,4.939,0,0,1,587.824,5.173Z" transform="translate(-569.429 -0.08)"/>
            <path id="Trazado_4460" data-name="Trazado 4460" d="M1107.234,17.343a.1.1,0,0,1-.09.162l-2.106.006a1.5,1.5,0,0,1-1.4-.658l-2.155-3.18a.8.8,0,0,0-1.521,0l-2.155,3.18a1.5,1.5,0,0,1-1.4.658H1094.3a.108.108,0,0,1-.09-.167l4.156-6.135a1.085,1.085,0,0,0,0-1.188l-4.156-6.135a.106.106,0,0,1,.09-.164h2.106a1.491,1.491,0,0,1,1.4.654l2.155,3.18a.8.8,0,0,0,1.521,0l2.155-3.18a1.491,1.491,0,0,1,1.4-.654h2.106a.105.105,0,0,1,.09.163l-4.156,6.135a1.085,1.085,0,0,0,0,1.188Z" transform="translate(-1061.676 -3.496)"/>
            <path id="Trazado_4461" data-name="Trazado 4461" d="M888.877.306h-.83a1.275,1.275,0,0,0-1.1.635l-.307.536a6.346,6.346,0,0,0-4.019-1.4c-3.866,0-6.44,2.732-6.44,7.058,0,4.36,2.617,7.058,6.409,7.058A6.277,6.277,0,0,0,886.4,12.97a1.235,1.235,0,0,0,1.269,1.125h1.2c.117,0,.212-.051.212-.167l0-13.409A.212.212,0,0,0,888.877.306Zm-6.315,11.262c-2.2,0-3.809-1.636-3.809-4.431s1.611-4.431,3.809-4.431,3.809,1.636,3.809,4.431S884.76,11.568,882.562,11.568Z" transform="translate(-857.173 -0.08)"/>
          </g>
        </g>
        <g id="Grupo_1286" data-name="Grupo 1286">
          <path id="Trazado_4462" data-name="Trazado 4462" d="M6.292,8.851H3.861V3.721H0V17.51H3.861V12.16H6.292v5.35h3.745V3.721H6.292Z" transform="translate(0 -3.491)"/>
          <path id="Trazado_4463" data-name="Trazado 4463" d="M190.959,0a6.942,6.942,0,0,0-6.317,3.984A4,4,0,0,0,180.966.229h-6.393v13.79h5.96a4.15,4.15,0,0,0,4.116-3.868,7.014,7.014,0,0,0,13.316-3.14A6.97,6.97,0,0,0,190.959,0ZM180.034,10.808h-1.9V8.477h1.9a1.1,1.1,0,0,1,.986,1.165A1.1,1.1,0,0,1,180.034,10.808Zm.007-5.178h-1.9V3.3h1.9a1.1,1.1,0,0,1,.986,1.165A1.1,1.1,0,0,1,180.041,5.63Zm2.523,1.385a2.952,2.952,0,0,0,1.413-.869,6.384,6.384,0,0,0,.008,1.924A2.65,2.65,0,0,0,182.564,7.016Zm8.4,3.51a3.51,3.51,0,1,1,3.51-3.51A3.51,3.51,0,0,1,190.962,10.526Z" transform="translate(-163.756 0)"/>
          <path id="Trazado_4464" data-name="Trazado 4464" d="M397.3,68.7a2.759,2.759,0,1,0,2.759,2.759A2.759,2.759,0,0,0,397.3,68.7Z" transform="translate(-370.098 -64.439)"/>
        </g>
      </g>
      <g id="Grupo_1288" data-name="Grupo 1288" transform="translate(81.194 0.231)">
        <path id="Trazado_4465" data-name="Trazado 4465" d="M1310.431,3.851h.19V4.4h.154V3.851h.2V3.724h-.54Z" transform="translate(-1310.431 -3.724)"/>
        <path id="Trazado_4466" data-name="Trazado 4466" d="M1321.2,3.724l-.183.3-.183-.3h-.154V4.4h.154V4.007l.174.287h.018l.174-.287V4.4h.154V3.724Z" transform="translate(-1320.041 -3.724)"/>
      </g>
    </g>
  </g>
</svg>
