<svg xmlns="http://www.w3.org/2000/svg" width="131" height="28" viewBox="0 0 131 28">
  <g id="Grupo_16341" data-name="Grupo 16341" transform="translate(1951 -4165)">
    <rect id="Rectángulo_8459" data-name="Rectángulo 8459" width="131" height="28" transform="translate(-1951 4165)" fill="none"/>
    <g id="HotGo_Color" data-name="HotGo Color" transform="translate(-1877.183 4181.037)">
      <g id="HotGo_Color-2" data-name="HotGo Color" transform="translate(-45.817 -9.036)">
        <path id="Trazado_22219" data-name="Trazado 22219" d="M3.123,8.631v6.134H0V.6H3.123V6.065h5.8V.6h3.123V14.765H8.923V8.631Z" transform="translate(0 0.082)" fill="#a90819"/>
        <path id="Trazado_22220" data-name="Trazado 22220" d="M50.915,0c1.9,0,6.915.781,6.915,7.473s-5.019,7.473-6.915,7.473S44,14.165,44,7.473,49.019,0,50.915,0Zm0,12.492c1.673,0,3.9-1,3.9-5.019s-2.342-5.019-3.9-5.019-3.9,1-3.9,5.019S49.242,12.492,50.915,12.492Z" transform="translate(5.076 0.013)" fill="#a6a3a3"/>
        <path id="Trazado_22221" data-name="Trazado 22221" d="M44.73,6.805H38.15V9.37H41.5a3.681,3.681,0,0,1-3.681,3.123c-1.673,0-3.9-1-3.9-5.019s2.342-5.019,3.9-5.019a3.681,3.681,0,0,1,3.792,3.123H44.73A6.581,6.581,0,0,0,37.815,0C35.919,0,30.9.782,30.9,7.474s5.019,7.473,6.915,7.473,6.915-.781,6.915-7.473Z" transform="translate(3.565 0.012)" fill="#a6a3a3"/>
        <path id="Trazado_22222" data-name="Trazado 22222" d="M21.6.5V.835a5.688,5.688,0,0,1,2.231,2.231h1.562v11.6h3.123V3.065h3.792V.5Z" transform="translate(2.492 0.071)" fill="#a90819"/>
        <path id="Trazado_22223" data-name="Trazado 22223" d="M18.315,0c1.9,0,6.915.781,6.915,7.473s-5.019,7.473-6.915,7.473S11.4,14.165,11.4,7.473,16.419,0,18.315,0Zm0,12.492c1.673,0,3.9-1,3.9-5.019s-2.342-4.908-3.9-4.908-3.9,1-3.9,5.019S16.642,12.492,18.315,12.492Z" transform="translate(1.315 0.013)" fill="#a90819"/>
        <path id="Trazado_22224" data-name="Trazado 22224" d="M57.6.6a9.034,9.034,0,0,1,3.011,6.692A11.265,11.265,0,0,1,57.6,14.654L69.2,7.4Z" transform="translate(6.645 0.082)" fill="#a6a3a3"/>
      </g>
    </g>
  </g>
</svg>
