<svg xmlns="http://www.w3.org/2000/svg" xmlns:xlink="http://www.w3.org/1999/xlink" width="131" height="28" viewBox="0 0 131 28">
  <defs>
    <clipPath id="clip-path">
      <rect id="Rect치ngulo_8437" data-name="Rect치ngulo 8437" width="77.066" height="25.293" fill="none"/>
    </clipPath>
  </defs>
  <g id="Grupo_14805" data-name="Grupo 14805" transform="translate(-67 437)">
    <g id="Noggin_by_nick_jr" data-name="Noggin by nick jr" transform="translate(136.262 -422.13)">
      <g id="Noggin_by_nick_jr-2" data-name="Noggin by nick jr" transform="translate(-42.261 -13.87)" clip-path="url(#clip-path)">
        <path id="Trazado_19078" data-name="Trazado 19078" d="M20.638,12.47a1.747,1.747,0,1,0-1.747,1.753,1.747,1.747,0,0,0,1.747-1.753m4.193.048a5.94,5.94,0,1,1-5.94-5.94,5.94,5.94,0,0,1,5.94,5.94M5.967,6.573A5.972,5.972,0,0,0,0,12.54v5.743H4.923V12.161H7.011v6.121h4.917V12.54A5.972,5.972,0,0,0,5.961,6.573m27.617,5.9a1.747,1.747,0,1,0-1.747,1.753,1.747,1.747,0,0,0,1.747-1.753m4.379,7.256a6,6,0,0,1-12-.24h4.257a1.759,1.759,0,0,0,1.689,1.779,1.646,1.646,0,0,0,1.673-1.737,1.552,1.552,0,0,0-.607-1.215,5.727,5.727,0,0,1-1.263.133,5.937,5.937,0,1,1,0-11.875,6.334,6.334,0,0,1,2.381.5,1.85,1.85,0,0,1,3.559.874v4.571A4.778,4.778,0,0,1,36.37,15.9a5.094,5.094,0,0,1,1.593,3.83m8.561-7.256a1.747,1.747,0,1,0-1.747,1.753,1.747,1.747,0,0,0,1.747-1.753M50.9,19.726a6,6,0,0,1-11.992-.24h4.257a1.759,1.759,0,0,0,1.689,1.779,1.646,1.646,0,0,0,1.673-1.737,1.552,1.552,0,0,0-.607-1.215,5.727,5.727,0,0,1-1.263.133,5.937,5.937,0,1,1,0-11.875,6.334,6.334,0,0,1,2.381.5,1.85,1.85,0,0,1,3.559.874v4.571A4.778,4.778,0,0,1,49.321,15.9a5.094,5.094,0,0,1,1.593,3.83M64.307,6.567a5.972,5.972,0,0,0-5.967,5.967v5.748h4.923V12.161h2.088v6.121h4.917V12.54A5.972,5.972,0,0,0,64.3,6.573M54.484,5.459A2.68,2.68,0,1,0,51.8,2.78a2.68,2.68,0,0,0,2.68,2.68M51.953,18.288V9.034a2.461,2.461,0,1,1,4.923,0v9.254Z" transform="translate(0 -0.095)" fill="#875bd8"/>
        <path id="Trazado_19079" data-name="Trazado 19079" d="M997.8,422.8h.282c.437,0,.853.112.853.639a.5.5,0,0,1-.25.442h0a.6.6,0,0,1,.463.586c0,.463-.4.65-.81.65H997.8Zm.288,1.028h.075c.272,0,.5-.053.5-.389s-.224-.384-.5-.384h-.08Zm0,1.034h.224c.266,0,.549-.08.549-.41s-.33-.394-.591-.394h-.181Z" transform="translate(-944.643 -400.276)" fill="#473173"/>
        <path id="Trazado_19080" data-name="Trazado 19080" d="M1024.6,422.8h.336l.57.991.57-.991h.33l-.757,1.31v1.012h-.288V424.11Z" transform="translate(-970.015 -400.276)" fill="#473173"/>
        <path id="Trazado_19081" data-name="Trazado 19081" d="M1313.457,379.679a.639.639,0,1,0-.639-.639.639.639,0,0,0,.639.639m.645,2.291a1.161,1.161,0,0,1-1.305,1.3h-.037a1.731,1.731,0,0,1-.868-.218.747.747,0,0,1-.362-1.034.607.607,0,0,1,1.124.213c.043.229.165.2.165-.011v-1.577a.676.676,0,0,1,.645-.757.645.645,0,0,1,.645.645Z" transform="translate(-1241.564 -358.241)" fill="#09bcca"/>
        <path id="Trazado_19082" data-name="Trazado 19082" d="M1368.892,409.306v-1.742a.46.46,0,0,1,.224-.394c.144-.059.282.011.447.069a.7.7,0,0,0,1.018-.416.645.645,0,0,0-.517-.751,1.259,1.259,0,0,0-1.087.325h0l-.117.1a.645.645,0,0,0-1.263.2v2.616Z" transform="translate(-1294.739 -384.4)" fill="#09bcca"/>
        <path id="Trazado_19083" data-name="Trazado 19083" d="M1401.239,445.379a.639.639,0,1,0-.639-.639.639.639,0,0,0,.639.639" transform="translate(-1325.984 -420.441)" fill="#09bcca"/>
        <path id="Trazado_19084" data-name="Trazado 19084" d="M1088.1,406.205a1.7,1.7,0,0,0-1.7,1.7v1.556h1.295v-1.534a.9.9,0,0,1,.123-.469.346.346,0,0,1,.288-.192.358.358,0,0,1,.288.192.9.9,0,0,1,.123.469v1.529h1.294V407.9a1.7,1.7,0,0,0-1.7-1.7" transform="translate(-1028.523 -384.56)" fill="#ff6700"/>
        <path id="Trazado_19085" data-name="Trazado 19085" d="M1154.678,376.586a.719.719,0,1,0-1.017,0l.16.16c.267.266.282.336.032.586l-.144.144a.651.651,0,0,0-.192.464v2.328h1.305v-2.328a.649.649,0,0,0-.192-.464l-.144-.144c-.25-.25-.234-.32.032-.586Z" transform="translate(-1092.001 -355.361)" fill="#ff6700"/>
        <path id="Trazado_19086" data-name="Trazado 19086" d="M1184.537,408.642a.356.356,0,0,1-.293.224c-.117,0-.213-.085-.288-.224a1.285,1.285,0,0,1,0-1.081.356.356,0,0,1,.288-.224.37.37,0,0,1,.293.224,1.075,1.075,0,0,1,.112.384h1.294a1.7,1.7,0,1,0,0,.32h-1.294a1.075,1.075,0,0,1-.112.384" transform="translate(-1119.542 -384.749)" fill="#ff6700"/>
        <path id="Trazado_19087" data-name="Trazado 19087" d="M1252.944,408.974a.223.223,0,0,0-.032-.117l-.709-1.071.49-.89a.646.646,0,0,0-1.114-.655l-.586,1.05v-.7a.647.647,0,0,0-1.295,0V409.2h1.295V408.18l.682,1.023h1.044a.224.224,0,0,0,.224-.224" transform="translate(-1183.123 -384.297)" fill="#ff6700"/>
        <path id="Trazado_19088" data-name="Trazado 19088" d="M1430.133,410.075H1430v-.069h.341v.069h-.128v.368h-.08Zm.3-.075h.01l.213.234.208-.234h.01v.442h-.08v-.272l-.138.16h-.016l-.138-.16v.272h-.08Z" transform="translate(-1353.818 -388.158)" fill="#09bcca"/>
      </g>
    </g>
    <rect id="Rect치ngulo_8460" data-name="Rect치ngulo 8460" width="131" height="28" transform="translate(67 -437)" fill="none"/>
  </g>
</svg>
