<svg xmlns="http://www.w3.org/2000/svg" viewBox="0 0 54 40"><defs><style>.cls-1{fill:#fff;}</style></defs><g id="Capa_2" data-name="Capa 2"><g id="Layer_1" data-name="Layer 1"><rect class="cls-1" width="54" height="40"/><path d="M12,17.81l-1,0c-.06,0-.08,0-.08.08V20c0,.16,0,.31,0,.47a.76.76,0,0,1-.87.8.69.69,0,0,1-.67-.5,1.32,1.32,0,0,1-.06-.39c0-.79,0-1.58,0-2.37,0-.09,0-.1-.11-.1-.38,0-.75,0-1.13,0v2.79a1.1,1.1,0,0,1,.06.26,1.58,1.58,0,0,0,1.12,1.26,2.81,2.81,0,0,0,1.65,0,1.63,1.63,0,0,0,1.1-1.08,2.88,2.88,0,0,0,.13-.92V17.91C12.06,17.82,12,17.8,12,17.81Z"/><path d="M44,21.25c-.08,0-.1,0-.1-.1C44,20.09,44,19,44,18c0-.08,0-.1-.1-.1l-1-.05c-.08,0-.1,0-.1.09,0,1.44,0,2.87,0,4.31,0,.07,0,.1.1.1H46V21.27Z"/><path d="M26.9,9.66s0,0,0,0h-.56s0,0,0,0Z"/><path d="M27,9.66h0Z"/><path d="M26.33,9.66h0Z"/><path d="M18.46,16.4c.14-.34.29-.67.46-1a9.12,9.12,0,0,1,3.16-3.48,8.91,8.91,0,0,1,5.27-1.41,9.41,9.41,0,0,1,2.53.46,9.72,9.72,0,0,1,4.22,2.79,9.47,9.47,0,0,1,1.8,2.94c0,.07.06.1.13.1h.3c.11,0,.11,0,.07-.1a10.33,10.33,0,0,0-9.24-7H27v0a.13.13,0,0,1-.13,0h0v0a1.63,1.63,0,0,1-.54,0v0h0a.09.09,0,0,1-.12,0v0h-.12a10.31,10.31,0,0,0-9.17,6.85l1.47,0C18.44,16.47,18.45,16.43,18.46,16.4Z"/><path d="M17,17.74c0-.07,0-.09-.08-.09-.34,0-.68,0-1,0-.08,0-.1,0-.1.1V20a.22.22,0,0,1,0,.11L15.65,20l-1.6-2.15s-.05-.07-.11-.07l-1,0c-.07,0-.09,0-.09.09v4.38c0,.07,0,.09.09.08h1c.08,0,.11,0,.11-.1,0-.76,0-1.52,0-2.28,0,0,0-.07,0-.1l1.78,2.41c0,.05.07.08.14.07h.89c.08,0,.09,0,.09-.08v-4.5Z"/><path d="M32.16,20.73c0-.06,0-.08,0-.11a1.46,1.46,0,0,0,.74-.89A1.89,1.89,0,0,0,33,19a1.46,1.46,0,0,0-.82-1.26,2,2,0,0,0-.93-.21h-2c-.07,0-.09,0-.09.09v4.6c0,.07,0,.1.09.09h1c.09,0,.1,0,.1-.1,0-.43,0-.85,0-1.27,0-.08,0-.1.1-.1a2.67,2.67,0,0,0,.4,0A.16.16,0,0,1,31,21c.22.43.45.86.68,1.29,0,0,0,.06.08.06h1.36l-.06-.1C32.77,21.72,32.47,21.22,32.16,20.73Zm-.4-1.31a.49.49,0,0,1-.44.37,5.62,5.62,0,0,1-.92,0c-.06,0,0,0,0-.07v-1s0-.06.05-.06a8.07,8.07,0,0,1,.85,0A.55.55,0,0,1,31.76,19.42Z"/><path d="M34.18,26.44c-.21.25-.44.48-.67.71a9.16,9.16,0,0,1-5.66,2.55,10.2,10.2,0,0,1-2.53-.08,9.12,9.12,0,0,1-2.87-.89,9,9,0,0,1-3.89-3.81,10.6,10.6,0,0,1-.6-1.33s0-.08-.08-.08H17s0,.06,0,.09a9.63,9.63,0,0,0,2.23,3.67,10,10,0,0,0,6.35,3A10.72,10.72,0,0,0,29.24,30,9.7,9.7,0,0,0,34.33,27c.15-.18.3-.36.45-.57H34.3A.13.13,0,0,0,34.18,26.44Z"/><path d="M24.91,22.32h3.36c.06,0,.08,0,.08-.08,0-.3,0-.61,0-.92,0-.1,0-.13-.12-.13H26.17c-.07,0-.1,0-.1-.09a5.42,5.42,0,0,0,0-.57c0-.09,0-.11.11-.11H28c.08,0,.1,0,.1-.09,0-.29,0-.58,0-.86,0-.09,0-.11-.11-.1H26.16c-.07,0-.09,0-.09-.09a4.68,4.68,0,0,0,0-.53c0-.09,0-.1.1-.1h2.06c.06,0,.08,0,.08-.08v-1c0-.08,0-.09-.09-.09q-1.65,0-3.3,0c-.07,0-.09,0-.09.1v4.6C24.83,22.3,24.84,22.32,24.91,22.32Z"/><path d="M36.43,19.7a4.67,4.67,0,0,0-.86-.31,1.93,1.93,0,0,1-.62-.23.27.27,0,0,1,.09-.51.82.82,0,0,1,.38,0,2.11,2.11,0,0,1,1,.41c.06,0,.08,0,.11,0l.5-.76c0-.06,0-.09,0-.14a2.56,2.56,0,0,0-1.69-.6,2.76,2.76,0,0,0-.57.06,1.42,1.42,0,0,0-1.11,1.73,1.29,1.29,0,0,0,.7.86,3.52,3.52,0,0,0,1,.36,1.94,1.94,0,0,1,.54.2.3.3,0,0,1,.15.27.27.27,0,0,1-.19.25.69.69,0,0,1-.28,0,2.09,2.09,0,0,1-1.33-.5c-.1-.07-.1-.07-.18,0s-.33.42-.49.64-.11.14,0,.25a2.86,2.86,0,0,0,2.4.62,1.39,1.39,0,0,0,1.24-1.22A1.25,1.25,0,0,0,36.43,19.7Z"/><path d="M41.45,20.4l-1-2.6s0-.09-.09-.09l-1,0c-.07,0-.09,0-.11.08-.5,1.23-1,2.46-1.48,3.69l-.34.85h1.21c.06,0,.06,0,.08-.07.09-.23.18-.45.26-.69a.09.09,0,0,1,.1-.06h1.52a.09.09,0,0,1,.1.07c.09.22.18.45.26.68a.09.09,0,0,0,.11.07h1.21s0-.05,0-.07C42,21.63,41.7,21,41.45,20.4Zm-2.16.1c.17-.43.32-.85.49-1.29l.48,1.29Z"/><path d="M22.94,17.64c-.16.54-.32,1.07-.49,1.61s-.27.86-.4,1.29c0,0,0-.05,0-.07l-.48-1.37c-.17-.49-.34-1-.5-1.46,0,0,0-.07-.08-.07h-1.3l0,.1,1.71,4.57c0,.06.05.08.11.07h1c.07,0,.1,0,.13-.08.48-1.35,1-2.71,1.45-4.06.07-.21.15-.42.23-.63a.4.4,0,0,0-.11,0H23.06C23,17.55,23,17.58,22.94,17.64Z"/><path d="M19.05,17.61l-1.1,0c-.06,0-.07,0-.07.07v4.55c0,.06,0,.07.08.07H19c.07,0,.1,0,.1-.09,0-.75,0-1.5,0-2.25V17.69S19.12,17.61,19.05,17.61Z"/><path d="M36.47,23.34c0,.12-.09.23-.14.35L35.84,25s0,0,0-.05l-.6-1.53s0-.07-.06-.07h-.39l.81,2c.09.24.09.23.35.24a.13.13,0,0,0,.13-.09c.22-.56.45-1.11.68-1.67.07-.15.13-.3.19-.45h-.37A.05.05,0,0,0,36.47,23.34Z"/><path d="M33.77,23.66a1.61,1.61,0,0,0,.31,0c.09,0,.22.05.27,0s0-.18,0-.27,0-.08-.08-.08H32.67c-.07,0-.09,0-.08.09v.21c0,.06,0,.08.07.08h.51c.1,0,.12,0,.12.12,0,.55,0,1.1,0,1.64,0,.07,0,.09.09.09a.61.61,0,0,1,.19,0c.08,0,.11,0,.11-.11,0-.27,0-.55,0-.83v-.8C33.66,23.67,33.69,23.66,33.77,23.66Z"/></g></g></svg>