<svg xmlns="http://www.w3.org/2000/svg" width="270.726" height="56.879" viewBox="0 0 270.726 56.879">
  <g id="Grupo_20758" transform="translate(39.2 -1.6)">
    <g id="Grupo_20730" transform="translate(0 2)">
      <g id="Grupo_20759" data-name="Grupo 20759">
        <path id="Trazado_43849" data-name="Trazado 43849" d="M-39.2,12h5.8a16.413,16.413,0,0,1,2.3.2,4.552,4.552,0,0,1,1.9.8,3.838,3.838,0,0,1,1.3,1.5,5.214,5.214,0,0,1,.5,2.3,5.27,5.27,0,0,1-.4,2.3A4.428,4.428,0,0,1-29,20.6a4.941,4.941,0,0,1-1.8.8,8.578,8.578,0,0,1-2.3.2h-2.5v6.1H-39V12Zm3.5,6.6h2.3a2.769,2.769,0,0,0,.9-.1c.3-.1.5-.2.8-.3a1.7,1.7,0,0,0,.6-.6,2,2,0,0,0,.2-.9,1.689,1.689,0,0,0-.3-1,4.349,4.349,0,0,0-.7-.6c-.3-.1-.6-.2-1-.3-.4,0-.7-.1-1-.1h-1.8Z" fill="#f49131"/>
        <path id="Trazado_43850" data-name="Trazado 43850" d="M-26.1,22.3a5.555,5.555,0,0,1,.5-2.3,4.628,4.628,0,0,1,1.3-1.8,4.532,4.532,0,0,1,1.9-1.1,5.867,5.867,0,0,1,2.3-.4,5.867,5.867,0,0,1,2.3.4,5.927,5.927,0,0,1,1.9,1.1A5.936,5.936,0,0,1-14.6,20a5.932,5.932,0,0,1,.5,2.3,5.932,5.932,0,0,1-.5,2.3,4.628,4.628,0,0,1-1.3,1.8,4.532,4.532,0,0,1-1.9,1.1,5.867,5.867,0,0,1-2.3.4,5.867,5.867,0,0,1-2.3-.4,5.927,5.927,0,0,1-1.9-1.1,5.936,5.936,0,0,1-1.3-1.8A5.932,5.932,0,0,1-26.1,22.3Zm3.3,0a2.724,2.724,0,0,0,.7,2,2.489,2.489,0,0,0,1.9.7,2.352,2.352,0,0,0,1.9-.7,2.724,2.724,0,0,0,.7-2,2.724,2.724,0,0,0-.7-2,2.489,2.489,0,0,0-1.9-.7,2.352,2.352,0,0,0-1.9.7A2.724,2.724,0,0,0-22.8,22.3Z" fill="#f49131"/>
        <path id="Trazado_43851" data-name="Trazado 43851" d="M-12.3,16.9H-9v1.7h0a3.924,3.924,0,0,1,1.3-1.5,3.453,3.453,0,0,1,1.8-.5h.6a.749.749,0,0,1,.5.1v3c-.2-.1-.5-.1-.7-.2-.2,0-.5-.1-.7-.1a3.339,3.339,0,0,0-1.5.3,3.45,3.45,0,0,0-.8.9,3.582,3.582,0,0,0-.4,1.1A6.15,6.15,0,0,0-9,23.1v4.5h-3.3Z" fill="#f49131"/>
        <path id="Trazado_43852" data-name="Trazado 43852" d="M9.2,20.1a2.323,2.323,0,0,0-1.9-.9,2.353,2.353,0,0,0-.8.2.67.67,0,0,0-.4.7.548.548,0,0,0,.4.6c.3.1.6.2,1,.3a7.006,7.006,0,0,1,1.4.3,5.023,5.023,0,0,1,1.3.5,2.41,2.41,0,0,1,1,1,3.408,3.408,0,0,1,.4,1.6,2.86,2.86,0,0,1-.5,1.7,4.263,4.263,0,0,1-1.2,1.1,4.418,4.418,0,0,1-1.6.6,11.135,11.135,0,0,1-1.7.2,9.693,9.693,0,0,1-2.3-.3,3.991,3.991,0,0,1-1.9-1.1l2-2.2a2.836,2.836,0,0,0,1,.9,2.768,2.768,0,0,0,1.3.3,2.958,2.958,0,0,0,1-.2.634.634,0,0,0,.5-.6.548.548,0,0,0-.4-.6,10.375,10.375,0,0,0-1-.4c-.4-.1-.9-.2-1.3-.3A5.023,5.023,0,0,1,4.2,23a2.189,2.189,0,0,1-1-.9,2.537,2.537,0,0,1-.4-1.6,2.726,2.726,0,0,1,.4-1.6,3.566,3.566,0,0,1,1-1.1,3.506,3.506,0,0,1,1.4-.6A8.752,8.752,0,0,1,7.2,17a7.613,7.613,0,0,1,2.1.3,4.185,4.185,0,0,1,1.8,1.1Z" fill="#f49131"/>
        <path id="Trazado_43853" data-name="Trazado 43853" d="M13,22.3a5.555,5.555,0,0,1,.5-2.3,4.628,4.628,0,0,1,1.3-1.8,4.532,4.532,0,0,1,1.9-1.1,5.867,5.867,0,0,1,2.3-.4,5.867,5.867,0,0,1,2.3.4,5.927,5.927,0,0,1,1.9,1.1A5.6,5.6,0,0,1,25,22.3a5.932,5.932,0,0,1-.5,2.3,4.628,4.628,0,0,1-1.3,1.8,4.532,4.532,0,0,1-1.9,1.1,5.867,5.867,0,0,1-2.3.4,5.867,5.867,0,0,1-2.3-.4,5.927,5.927,0,0,1-1.9-1.1A5.6,5.6,0,0,1,13,22.3Zm3.3,0a2.724,2.724,0,0,0,.7,2,2.489,2.489,0,0,0,1.9.7,2.352,2.352,0,0,0,1.9-.7,2.724,2.724,0,0,0,.7-2,2.724,2.724,0,0,0-.7-2,2.489,2.489,0,0,0-1.9-.7,2.352,2.352,0,0,0-1.9.7A2.724,2.724,0,0,0,16.3,22.3Z" fill="#f49131"/>
        <path id="Trazado_43854" data-name="Trazado 43854" d="M26.8,11h3.3V27.6H26.8Z" fill="#f49131"/>
        <path id="Trazado_43855" data-name="Trazado 43855" d="M32.1,22.3a5.555,5.555,0,0,1,.5-2.3,4.628,4.628,0,0,1,1.3-1.8,4.532,4.532,0,0,1,1.9-1.1,6.813,6.813,0,0,1,4.6,0A5.289,5.289,0,0,1,43.6,20a5.54,5.54,0,0,1,0,4.6,4.628,4.628,0,0,1-1.3,1.8,4.532,4.532,0,0,1-1.9,1.1,6.813,6.813,0,0,1-4.6,0,5.289,5.289,0,0,1-3.2-2.9A5.932,5.932,0,0,1,32.1,22.3Zm3.3,0a2.724,2.724,0,0,0,.7,2A2.489,2.489,0,0,0,38,25a2.352,2.352,0,0,0,1.9-.7,2.724,2.724,0,0,0,.7-2,2.724,2.724,0,0,0-.7-2,2.489,2.489,0,0,0-1.9-.7,2.352,2.352,0,0,0-1.9.7A2.724,2.724,0,0,0,35.4,22.3Z" fill="#f49131"/>
      </g>
      <g id="Grupo_20760" data-name="Grupo 20760">
        <path id="Trazado_43856" data-name="Trazado 43856" d="M63.5,18.2a16.407,16.407,0,0,1,3.7.5,8.221,8.221,0,0,1,3.4,1.6l-3.2,3.9a4,4,0,0,0-1.8-1,15.525,15.525,0,0,0-2.1-.4V28l3.2.9a7.033,7.033,0,0,1,3.5,2.2,5.49,5.49,0,0,1,1.3,3.8,7.455,7.455,0,0,1-.6,3.1,6.2,6.2,0,0,1-1.7,2.2,10.374,10.374,0,0,1-2.5,1.5,10.758,10.758,0,0,1-3.1.7v2.3H61.4V42.4a15.4,15.4,0,0,1-4.3-.6,9.5,9.5,0,0,1-3.8-2.1l3.5-3.9a5.106,5.106,0,0,0,2.1,1.5,7.512,7.512,0,0,0,2.6.5V32.2l-2.4-.7a8.685,8.685,0,0,1-3.8-2.2A5.418,5.418,0,0,1,54,25.4a6.388,6.388,0,0,1,.6-2.8,5.845,5.845,0,0,1,1.7-2.1A14.016,14.016,0,0,1,58.7,19a9.592,9.592,0,0,1,2.8-.7V16h2.2v2.2Zm-2.2,4.7a3.9,3.9,0,0,0-1.6.7,1.651,1.651,0,0,0-.7,1.6,2.133,2.133,0,0,0,.3,1.2,2.336,2.336,0,0,0,.7.7,1.33,1.33,0,0,0,.8.3c.3.1.5.1.6.2V22.9Zm2.2,14.9c.3-.1.7-.2,1-.3a4.053,4.053,0,0,0,.9-.5,1.344,1.344,0,0,0,.6-.7,2.959,2.959,0,0,0,.2-1,2.388,2.388,0,0,0-.2-.9c-.1-.3-.3-.4-.5-.6a1.612,1.612,0,0,0-.7-.4c-.3-.1-.5-.2-.8-.3l-.6-.2v4.9Z" fill="#f49131"/>
      </g>
      <g id="Grupo_20761" data-name="Grupo 20761">
        <path id="Trazado_43857" data-name="Trazado 43857" d="M90.2,27.1c-.5.1-.9.2-1.4.3a7.569,7.569,0,0,1-1.5.1,13.348,13.348,0,0,1-5.4-1.1,12.189,12.189,0,0,1-4.1-2.9,15.681,15.681,0,0,1-2.7-4.3,15.951,15.951,0,0,1-.9-5.3A14.141,14.141,0,0,1,75.4,8a12.531,12.531,0,0,1,3.3-4.5A14.157,14.157,0,0,1,83.6.6,19.1,19.1,0,0,1,95.8.6a16.416,16.416,0,0,1,5,2.9A14.544,14.544,0,0,1,104.1,8a14.141,14.141,0,0,1,1.2,5.9,17.281,17.281,0,0,1-.4,4.1,20.362,20.362,0,0,1-1.1,3.5,31.825,31.825,0,0,1-1.6,3.2c-.6,1-1.2,2-1.9,3.1L91.2,42H80.4ZM83.1,14.2A6.109,6.109,0,0,0,85,18.9a6.791,6.791,0,0,0,4.9,1.9,6.555,6.555,0,0,0,4.9-1.9,6.484,6.484,0,0,0,1.9-4.7,6.109,6.109,0,0,0-1.9-4.7,6.791,6.791,0,0,0-4.9-1.9A6.555,6.555,0,0,0,85,9.5,6.258,6.258,0,0,0,83.1,14.2Z" fill="#f49131"/>
        <path id="Trazado_43858" data-name="Trazado 43858" d="M125.1,27.1c-.5.1-.9.2-1.4.3a7.569,7.569,0,0,1-1.5.1,13.348,13.348,0,0,1-5.4-1.1,12.189,12.189,0,0,1-4.1-2.9,15.681,15.681,0,0,1-2.7-4.3,15.951,15.951,0,0,1-.9-5.3A14.141,14.141,0,0,1,110.3,8a12.531,12.531,0,0,1,3.3-4.5A14.157,14.157,0,0,1,118.5.6a19.1,19.1,0,0,1,12.2,0,16.416,16.416,0,0,1,5,2.9A14.544,14.544,0,0,1,139,8a14.141,14.141,0,0,1,1.2,5.9,17.282,17.282,0,0,1-.4,4.1,20.362,20.362,0,0,1-1.1,3.5,31.823,31.823,0,0,1-1.6,3.2c-.6,1-1.2,2-1.9,3.1L126.1,42H115.3ZM118,14.2a6.109,6.109,0,0,0,1.9,4.7,6.791,6.791,0,0,0,4.9,1.9,6.555,6.555,0,0,0,4.9-1.9,6.258,6.258,0,0,0,1.9-4.7,6.109,6.109,0,0,0-1.9-4.7,6.962,6.962,0,0,0-4.9-1.9,6.555,6.555,0,0,0-4.9,1.9A6.258,6.258,0,0,0,118,14.2Z" fill="#f49131"/>
      </g>
      <g id="Grupo_20762" data-name="Grupo 20762">
        <path id="Trazado_43859" data-name="Trazado 43859" d="M155.9,26.2h0a3.435,3.435,0,0,1-1.6,1.3,4.477,4.477,0,0,1-2,.4,7.719,7.719,0,0,1-1.5-.2,3.293,3.293,0,0,1-1.3-.7,3.126,3.126,0,0,1-.9-1.1,3.339,3.339,0,0,1-.3-1.5,2.726,2.726,0,0,1,.4-1.6,3.46,3.46,0,0,1,1-1.1,6.109,6.109,0,0,1,1.4-.7,9.363,9.363,0,0,1,1.6-.4,9.7,9.7,0,0,1,1.7-.1H156a1.8,1.8,0,0,0-.7-1.5,2.2,2.2,0,0,0-1.6-.5,2.934,2.934,0,0,0-1.6.4,4.125,4.125,0,0,0-1.3,1L149,18a5.763,5.763,0,0,1,2.3-1.3,8.031,8.031,0,0,1,2.7-.4,6.249,6.249,0,0,1,2.5.4,3.807,3.807,0,0,1,1.6,1.1,3.7,3.7,0,0,1,.8,1.8,9.365,9.365,0,0,1,.2,2.5v5.7h-3.2V26.2Zm-.8-3.5h-1a3.6,3.6,0,0,0-1.1.2,2.622,2.622,0,0,0-.9.5,1.268,1.268,0,0,0-.4.9,1.05,1.05,0,0,0,.5.9,2.016,2.016,0,0,0,1.1.3,3.4,3.4,0,0,0,1-.1,2.01,2.01,0,0,0,.8-.4l.6-.6a1.344,1.344,0,0,0,.2-.9v-.7h-.8Z" fill="#f49131"/>
        <path id="Trazado_43860" data-name="Trazado 43860" d="M161.3,10.2h3.4V27.6h-3.4Z" fill="#f49131"/>
        <path id="Trazado_43861" data-name="Trazado 43861" d="M174.1,16.4h3.3v1.5h0a2.652,2.652,0,0,1,.5-.6,4.349,4.349,0,0,1,.7-.6,3.552,3.552,0,0,1,.9-.4,3.73,3.73,0,0,1,1.2-.2,4.648,4.648,0,0,1,2.1.5,2.94,2.94,0,0,1,1.4,1.5,4.094,4.094,0,0,1,1.4-1.5,4.648,4.648,0,0,1,2.1-.5,3.576,3.576,0,0,1,1.9.4,4,4,0,0,1,1.2,1,3.946,3.946,0,0,1,.6,1.5,11.075,11.075,0,0,1,.2,1.9v6.6h-3.5V21a2.5,2.5,0,0,0-.3-1.3,1.209,1.209,0,0,0-1.2-.6,2.959,2.959,0,0,0-1,.2,1.024,1.024,0,0,0-.6.5,1.136,1.136,0,0,0-.3.8,3.083,3.083,0,0,0-.1,1v5.9h-3.5V20.9a1.884,1.884,0,0,0-.2-.8,2.506,2.506,0,0,0-.4-.7,1.222,1.222,0,0,0-.9-.3,3.6,3.6,0,0,0-1.1.2,1.7,1.7,0,0,0-.6.6l-.3.9c0,.3-.1.7-.1,1.1v5.6H174V16.4Z" fill="#f49131"/>
        <path id="Trazado_43862" data-name="Trazado 43862" d="M204.7,25.7a5.6,5.6,0,0,1-2.1,1.6,6.159,6.159,0,0,1-2.6.6,6.051,6.051,0,0,1-2.4-.4,6.657,6.657,0,0,1-2-1.2,4.312,4.312,0,0,1-1.3-1.9,6.436,6.436,0,0,1-.5-2.4,6.042,6.042,0,0,1,.5-2.4,8.016,8.016,0,0,1,1.3-1.9,4.478,4.478,0,0,1,2-1.2,6.723,6.723,0,0,1,2.4-.4,5.381,5.381,0,0,1,2.2.4,5.229,5.229,0,0,1,1.7,1.2,3.861,3.861,0,0,1,1,1.9,9.27,9.27,0,0,1,.4,2.4v1.1h-8a2.358,2.358,0,0,0,.9,1.6,2.523,2.523,0,0,0,1.7.6,2.116,2.116,0,0,0,1.4-.4,4.741,4.741,0,0,0,1-1Zm-3-4.9a2.051,2.051,0,0,0-2.1-2.1,2.959,2.959,0,0,0-1,.2,2.616,2.616,0,0,0-1.2,1.2,2.353,2.353,0,0,0-.2.8h4.5Z" fill="#f49131"/>
        <path id="Trazado_43863" data-name="Trazado 43863" d="M213.6,19.7a2.518,2.518,0,0,0-2-.9,2.92,2.92,0,0,0-.9.2.67.67,0,0,0-.4.7.548.548,0,0,0,.4.6,8.112,8.112,0,0,0,1.1.3c.4.1.9.2,1.4.3a5.782,5.782,0,0,1,1.4.5,3.46,3.46,0,0,1,1.1,1,2.861,2.861,0,0,1,.4,1.7,3.453,3.453,0,0,1-.5,1.8,3.179,3.179,0,0,1-1.2,1.1,4.283,4.283,0,0,1-1.7.6,12.366,12.366,0,0,1-1.8.2,9.862,9.862,0,0,1-2.4-.3,3.738,3.738,0,0,1-2-1.2l2.1-2.3a3.126,3.126,0,0,0,1.1.9,2.9,2.9,0,0,0,1.4.3,3.6,3.6,0,0,0,1.1-.2.634.634,0,0,0,.5-.6.755.755,0,0,0-.4-.7,6.6,6.6,0,0,0-1.1-.4c-.4-.1-.9-.2-1.4-.3a5.782,5.782,0,0,1-1.4-.5,3.46,3.46,0,0,1-1.1-1,2.861,2.861,0,0,1-.4-1.7,3.064,3.064,0,0,1,.4-1.7,3.179,3.179,0,0,1,1.1-1.2,5.226,5.226,0,0,1,1.5-.7,4.954,4.954,0,0,1,1.7-.2,8.329,8.329,0,0,1,2.2.3,3.991,3.991,0,0,1,1.9,1.1Z" fill="#f49131"/>
      </g>
    </g>
    <g id="Grupo_20731" transform="translate(129.625 44.179)">
      <g id="Grupo_20763" data-name="Grupo 20763">
        <path id="Trazado_43864" data-name="Trazado 43864" d="M9,1.5a11.019,11.019,0,0,1,1.8.2,3.048,3.048,0,0,1,1.6.8L10.9,4.4a2.044,2.044,0,0,0-.9-.5,4.4,4.4,0,0,0-1-.2V6.2l1.5.4a4.043,4.043,0,0,1,1.7,1,2.792,2.792,0,0,1,.6,1.8,3.339,3.339,0,0,1-.3,1.5,4.44,4.44,0,0,1-.8,1.1,7.459,7.459,0,0,1-1.2.7,4.424,4.424,0,0,1-1.5.5v1.1H7.9V13.2a7.613,7.613,0,0,1-2.1-.3,4,4,0,0,1-1.8-1L5.6,10a2.286,2.286,0,0,0,1,.7,6.107,6.107,0,0,0,1.3.3V8.3L6.7,7.9A3.267,3.267,0,0,1,4.9,6.8a2.707,2.707,0,0,1-.6-1.9,3.194,3.194,0,0,1,.3-1.4,2.723,2.723,0,0,1,.8-1,4.129,4.129,0,0,1,1.1-.7,5.732,5.732,0,0,1,1.4-.4V.4H9ZM7.9,3.7a2.01,2.01,0,0,0-.8.4.779.779,0,0,0-.3.7,1.268,1.268,0,0,0,.1.6l.3.3c.1.1.3.1.4.2a.367.367,0,0,0,.3.1ZM9,11c.2,0,.3-.1.5-.1.2-.1.3-.1.4-.2l.3-.3a.749.749,0,0,0,.1-.5c0-.2,0-.3-.1-.4s-.1-.4-.2-.5-.2-.1-.3-.2a.6.6,0,0,0-.4-.1L9,8.6Z" fill="#8e7da1"/>
        <path id="Trazado_43865" data-name="Trazado 43865" d="M14,10.5l4.4-4,.7-.7a1.613,1.613,0,0,0,.3-.9A.975.975,0,0,0,19,4a1.689,1.689,0,0,0-1-.3,1.159,1.159,0,0,0-1,.4,1.777,1.777,0,0,0-.4,1L14.1,5a3.313,3.313,0,0,1,.4-1.5,3.6,3.6,0,0,1,.8-1.2,3.379,3.379,0,0,1,1.2-.6A7.719,7.719,0,0,1,18,1.5a5.9,5.9,0,0,1,1.4.2,6.721,6.721,0,0,1,1.2.6,3.126,3.126,0,0,1,.9,1.1,3.339,3.339,0,0,1,.3,1.5,3.083,3.083,0,0,1-.1,1,6.89,6.89,0,0,1-.3.8,3.039,3.039,0,0,1-.5.7l-.6.6-3.4,3h5v2H14Z" fill="#8e7da1"/>
        <path id="Trazado_43866" data-name="Trazado 43866" d="M26.1,6.1h1.5a1.421,1.421,0,0,0,.6-.2.781.781,0,0,0,.4-.4,1.421,1.421,0,0,0,.2-.6.909.909,0,0,0-.4-.8,1.689,1.689,0,0,0-1-.3,1.222,1.222,0,0,0-.9.3,2.177,2.177,0,0,0-.5.8l-2.6-.5A3.1,3.1,0,0,1,24,3.1a6.47,6.47,0,0,1,.9-.8,4.328,4.328,0,0,1,1.2-.5,5,5,0,0,1,2.8,0,4.875,4.875,0,0,1,1.1.4,2.539,2.539,0,0,1,.8,1,3.194,3.194,0,0,1,.3,1.4,2.767,2.767,0,0,1-.5,1.6,2.845,2.845,0,0,1-1.4.9h0a1.613,1.613,0,0,1,.9.3,4.349,4.349,0,0,1,.7.6,2.01,2.01,0,0,1,.4.8,2.769,2.769,0,0,1,.1.9,3.339,3.339,0,0,1-.3,1.5,3.179,3.179,0,0,1-2.2,1.7,7.772,7.772,0,0,1-1.6.2,4.406,4.406,0,0,1-2.6-.7,3.407,3.407,0,0,1-1.4-2.2l2.5-.6a3.128,3.128,0,0,0,.5,1c.2.3.6.4,1.2.4a1.594,1.594,0,0,0,1.2-.4,1.777,1.777,0,0,0,.4-1,1.165,1.165,0,0,0-.2-.7,2.181,2.181,0,0,0-.5-.4c-.2-.1-.5-.1-.7-.2s-.5,0-.8,0h-.6V6.1Z" fill="#8e7da1"/>
        <path id="Trazado_43867" data-name="Trazado 43867" d="M37,9h-.8a4.013,4.013,0,0,1-1.5-.3A3.377,3.377,0,0,1,33.6,8a3.458,3.458,0,0,1-.7-1.2,3.529,3.529,0,0,1-.3-1.4,4.146,4.146,0,0,1,.3-1.6,2.73,2.73,0,0,1,.9-1.2,5.67,5.67,0,0,1,1.3-.8,4.671,4.671,0,0,1,1.7-.3,5.079,5.079,0,0,1,1.7.3,4.11,4.11,0,0,1,1.3.8,3.449,3.449,0,0,1,.9,1.2A3.808,3.808,0,0,1,41,5.4a3.75,3.75,0,0,1-.1,1.1c-.1.3-.2.7-.3,1s-.3.6-.4.9a5.582,5.582,0,0,1-.5.8L37.3,13H34.4ZM35.1,5.5a2.106,2.106,0,0,0,.5,1.3,1.536,1.536,0,0,0,1.3.5,1.9,1.9,0,0,0,1.3-.5,1.9,1.9,0,0,0,.5-1.3,2.106,2.106,0,0,0-.5-1.3,1.536,1.536,0,0,0-1.3-.5,1.9,1.9,0,0,0-1.3.5A1.9,1.9,0,0,0,35.1,5.5Z" fill="#8e7da1"/>
        <path id="Trazado_43868" data-name="Trazado 43868" d="M46.3.8l1.8.6L43.3,13.9l-1.8-.6Z" fill="#8e7da1"/>
        <path id="Trazado_43869" data-name="Trazado 43869" d="M53.8,12h0a3.126,3.126,0,0,1-1.1.9,3.194,3.194,0,0,1-1.4.3,2.959,2.959,0,0,1-1-.2,4.053,4.053,0,0,1-.9-.5,1.555,1.555,0,0,1-.6-.8,2.959,2.959,0,0,1-.2-1,3.6,3.6,0,0,1,.2-1.1,2.7,2.7,0,0,1,.7-.8,3.128,3.128,0,0,1,1-.5,4.253,4.253,0,0,1,1.1-.2A4.869,4.869,0,0,1,52.8,8h1.1a1.231,1.231,0,0,0-.5-1,1.5,1.5,0,0,0-1.1-.4,3.6,3.6,0,0,0-1.1.2,5.5,5.5,0,0,0-.9.7L49,6.2a4.172,4.172,0,0,1,1.6-.9A6.279,6.279,0,0,1,52.5,5a3.985,3.985,0,0,1,1.7.3,2.836,2.836,0,0,1,1.1.8,2.618,2.618,0,0,1,.6,1.3A8.083,8.083,0,0,1,56,9v4H53.8Zm-.6-2.4h-.7c-.3,0-.5.1-.8.1a3.329,3.329,0,0,0-.6.3.864.864,0,0,0-.3.6.548.548,0,0,0,.4.6,1.884,1.884,0,0,0,.8.2,1.7,1.7,0,0,0,.7-.1l.6-.3c.2-.1.3-.3.4-.4a1.072,1.072,0,0,0,.2-.6V9.6Z" fill="#8e7da1"/>
        <path id="Trazado_43870" data-name="Trazado 43870" d="M57.6.9H60V13H57.6Z" fill="#8e7da1"/>
        <path id="Trazado_43871" data-name="Trazado 43871" d="M66.4,5.2h2.3V6.3h0a1.756,1.756,0,0,0,.4-.5,2.181,2.181,0,0,1,.5-.4,4.875,4.875,0,0,1,.7-.3c.2,0,.5-.1.8-.1a3.194,3.194,0,0,1,1.4.3,2.707,2.707,0,0,1,1,1.1,2.707,2.707,0,0,1,1-1.1A2.9,2.9,0,0,1,75.9,5a2.5,2.5,0,0,1,1.3.3A2.7,2.7,0,0,1,78,6a2.1,2.1,0,0,1,.4,1.1,5.7,5.7,0,0,1,.1,1.3V13H76.1V8.5a2,2,0,0,0-.2-.9.812.812,0,0,0-.8-.4,1.483,1.483,0,0,0-.7.1.781.781,0,0,0-.4.4c-.1.2-.1.3-.2.5a1.483,1.483,0,0,0-.1.7V13H71.3V8.4a1.268,1.268,0,0,0-.1-.6c-.1-.2-.2-.3-.3-.5a1.072,1.072,0,0,0-.6-.2,1.884,1.884,0,0,0-.8.2c-.2.1-.3.3-.4.4a1.421,1.421,0,0,0-.2.6V13H66.5V5.2Z" fill="#8e7da1"/>
        <path id="Trazado_43872" data-name="Trazado 43872" d="M87.7,11.7a3.269,3.269,0,0,1-1.5,1.1,3.922,3.922,0,0,1-1.8.4,4.671,4.671,0,0,1-1.7-.3,6.376,6.376,0,0,1-1.4-.8,3.805,3.805,0,0,1-.9-1.3,4.671,4.671,0,0,1-.3-1.7,4.671,4.671,0,0,1,.3-1.7,3.805,3.805,0,0,1,.9-1.3,3.224,3.224,0,0,1,1.4-.8A5.079,5.079,0,0,1,84.4,5a4.146,4.146,0,0,1,1.6.3,5.025,5.025,0,0,1,1.2.8,2.091,2.091,0,0,1,.7,1.3,4.671,4.671,0,0,1,.3,1.7v.8H82.6a1.975,1.975,0,0,0,.6,1.1,1.594,1.594,0,0,0,1.2.4,1.689,1.689,0,0,0,1-.3,2.336,2.336,0,0,0,.7-.7Zm-2-3.5a1.159,1.159,0,0,0-.4-1,1.366,1.366,0,0,0-1.1-.4,1.483,1.483,0,0,0-.7.1,2.186,2.186,0,0,0-.5.3.85.85,0,0,0-.3.5,1.268,1.268,0,0,0-.1.6h3.1Z" fill="#8e7da1"/>
        <path id="Trazado_43873" data-name="Trazado 43873" d="M94,7.5a1.91,1.91,0,0,0-1.4-.7,1.268,1.268,0,0,0-.6.1.55.55,0,0,0-.3.5c0,.2.1.3.3.4a1.549,1.549,0,0,0,.8.2c.3.1.6.1,1,.2a3,3,0,0,1,1,.4,2.7,2.7,0,0,1,.8.7,2.133,2.133,0,0,1,.3,1.2,2.133,2.133,0,0,1-.3,1.2,3.043,3.043,0,0,1-.8.8,3.374,3.374,0,0,1-1.2.4,5.7,5.7,0,0,1-1.3.1,8.752,8.752,0,0,1-1.6-.2,2.851,2.851,0,0,1-1.4-.8l1.5-1.6a1.874,1.874,0,0,0,.7.6,2.959,2.959,0,0,0,1,.2,2.2,2.2,0,0,0,.8-.1c.2-.1.3-.2.3-.4a.55.55,0,0,0-.3-.5,3.385,3.385,0,0,0-.8-.3c-.3-.1-.6-.1-1-.2a4.179,4.179,0,0,1-1-.4,2.7,2.7,0,0,1-.8-.7,2.133,2.133,0,0,1-.3-1.2,2.133,2.133,0,0,1,.3-1.2,2.7,2.7,0,0,1,.7-.8,4.671,4.671,0,0,1,1-.5c.3.2.7.1,1.1.1a9.971,9.971,0,0,1,1.6.2,2.871,2.871,0,0,1,1.3.8Z" fill="#8e7da1"/>
      </g>
      <line id="Línea_324" x2="101.9" transform="translate(0 9.4)" fill="none" stroke="#f20c23" stroke-width="2"/>
    </g>
  </g>
</svg>
