<svg xmlns="http://www.w3.org/2000/svg" width="60" height="60" viewBox="0 0 60 60">
  <g id="Grupo_14863" data-name="Grupo 14863" transform="translate(1208 -99)">
    <rect id="Rectángulo_8427" data-name="Rectángulo 8427" width="60" height="60" transform="translate(-1208 99)" fill="#fff"/>
    <g id="logo__54x40_network_a_e" data-name="logo _54x40_network_a&amp;e" transform="translate(-1205.71 107.77)">
      <path id="Trazado_20150" data-name="Trazado 20150" d="M26.53,23.56a2.09,2.09,0,0,0,2,2,2.34,2.34,0,0,0,1.76-.72l-2.56-3.21a2.2,2.2,0,0,0-1.2,1.92" fill="#231f20"/>
      <path id="Trazado_20151" data-name="Trazado 20151" d="M28.73,18.1a1.33,1.33,0,0,0,.7-1,1,1,0,0,0-2,0,2.5,2.5,0,0,0,.79,1.39c.17-.1.51-.35.51-.35" fill="#231f20"/>
      <path id="Trazado_20152" data-name="Trazado 20152" d="M40.61,27.14V27h.16s0,.06-.09.06Zm.22-.05c0-.08,0-.11-.14-.11h-.14v.37h.06v-.16h.06l.1.16h.06l-.1-.16c.05,0,.1,0,.1-.1" fill="#231f20"/>
      <path id="Trazado_20153" data-name="Trazado 20153" d="M40.68,27.44a.26.26,0,0,1-.26-.27.25.25,0,0,1,.26-.27.26.26,0,0,1,.26.27.27.27,0,0,1-.26.27m0-.6a.33.33,0,1,0,.273.325.33.33,0,0,0-.273-.325" fill="#231f20"/>
      <path id="Trazado_20154" data-name="Trazado 20154" d="M33.65,25l2,2.45H40V24.29H34.32c-.44.52-.5.56-.67.74" fill="#231f20"/>
      <path id="Trazado_20155" data-name="Trazado 20155" d="M33.12,19.38V17.23H40v-3H30.24A3,3,0,0,1,31.86,17a2.86,2.86,0,0,1-1.35,2.36s-.61.47-.94.7l2.55,3.08,1-1.08H39.6V19.38Z" fill="#231f20"/>
      <path id="Trazado_20156" data-name="Trazado 20156" d="M20.82,22l1.41-4.24L23.6,22Zm5.82-7.73H20L14.71,27.48h4.44L20,25h4.15a4.92,4.92,0,0,1-.22-1.53,4.53,4.53,0,0,1,2.36-3.64A4.42,4.42,0,0,1,25,17a3,3,0,0,1,1.65-2.77" fill="#231f20"/>
    </g>
  </g>
</svg>
