<svg xmlns="http://www.w3.org/2000/svg" width="60" height="60" viewBox="0 0 60 60">
  <g id="Grupo_15573" data-name="Grupo 15573" transform="translate(1406 -926)">
    <rect id="Rectángulo_8427" data-name="Rectángulo 8427" width="60" height="60" transform="translate(-1406 926)" fill="#fff"/>
    <g id="logo__54x40_network_arts" data-name="logo _54x40_network_arts" transform="translate(-1401.86 935.06)">
      <path id="Trazado_21559" data-name="Trazado 21559" d="M19,24.51H17.46l-.55-1.41L16.8,23H14l-.1.08-.57,1.41H11.86l2.77-6.46H16.2L19,24.51m-3.55-5-.11.07L14.3,22v.11l.09.05h2l.1-.05V22l-1-2.46-.1-.07Z" fill="#231f20"/>
      <path id="Trazado_21560" data-name="Trazado 21560" d="M26.54,24.51H25.15a2.39,2.39,0,0,1-.14-.66,5.39,5.39,0,0,0-.1-.83,1.33,1.33,0,0,0-.39-.86,1.46,1.46,0,0,0-1-.26H21.87l-.11.12v2.49H20.32V18.05h4a2.659,2.659,0,0,1,.879.15,1.83,1.83,0,0,1,.671.38,1.68,1.68,0,0,1,.42.54,1.71,1.71,0,0,1,.14.67,1.76,1.76,0,0,1-.26.95,1.67,1.67,0,0,1-.87.61l-.07.11h0l.08.12a1.14,1.14,0,0,1,.47.21l.3.33.17.43.08.49v.82l.09.44.08.19M21.87,19l-.11.12V21l.11.12H23.7a1.42,1.42,0,0,0,.92-.26A1,1,0,0,0,25,20a.92.92,0,0,0-.34-.8,1.4,1.4,0,0,0-.96-.2Z" fill="#231f20"/>
      <path id="Trazado_21561" data-name="Trazado 21561" d="M30.94,24.51H29.48V19.18l-.11-.12H27.2V18.05h6.01v1.01H31.04l-.1.12v5.33" fill="#231f20"/>
      <path id="Trazado_21562" data-name="Trazado 21562" d="M36.94,24.66a4.65,4.65,0,0,1-1.18-.14,2.79,2.79,0,0,1-1-.41,1.87,1.87,0,0,1-.68-.69,1.75,1.75,0,0,1-.25-.89h1.4a1.53,1.53,0,0,0,.15.51l.4.42a2.35,2.35,0,0,0,.58.24,3.53,3.53,0,0,0,.67.07h.49l.5-.13.4-.29a.64.64,0,0,0,.19-.49.69.69,0,0,0-.24-.55,2.26,2.26,0,0,0-.54-.3c-.23-.07-.47-.13-.74-.19s-.55-.13-.83-.18a5.914,5.914,0,0,1-.82-.24,2.77,2.77,0,0,1-.69-.34,1.53,1.53,0,0,1-.48-.5,1.34,1.34,0,0,1-.19-.71,1.5,1.5,0,0,1,.24-.84,2,2,0,0,1,.62-.59,3,3,0,0,1,.88-.36,4.34,4.34,0,0,1,1-.12,6,6,0,0,1,1.13.11,3.42,3.42,0,0,1,.94.37,1.9,1.9,0,0,1,.63.63,1.68,1.68,0,0,1,.23.81H38.33l-.14-.44L37.82,19a1.7,1.7,0,0,0-.51-.17,5,5,0,0,0-.58,0h-.42l-.39.15-.31.26-.13.43.11.4a.74.74,0,0,0,.38.26,4.7,4.7,0,0,0,.7.21c.3.05.69.15,1.15.26a4.34,4.34,0,0,1,.59.14,2.68,2.68,0,0,1,.73.3,2,2,0,0,1,.61.54,1.45,1.45,0,0,1,.25.85,1.78,1.78,0,0,1-.19.8,1.82,1.82,0,0,1-.57.64,2.88,2.88,0,0,1-1,.43,5.35,5.35,0,0,1-1.35.15" fill="#231f20"/>
    </g>
  </g>
</svg>
