<svg xmlns="http://www.w3.org/2000/svg" xmlns:xlink="http://www.w3.org/1999/xlink" width="60" height="60" viewBox="0 0 60 60">
  <defs>
    <clipPath id="clip-path">
      <rect id="Rect치ngulo_8469" data-name="Rect치ngulo 8469" width="38.35" height="18.98" transform="translate(8.65 12.42)" fill="none"/>
    </clipPath>
  </defs>
  <g id="Grupo_14853" data-name="Grupo 14853" transform="translate(1340 -99)">
    <rect id="Rect치ngulo_8427" data-name="Rect치ngulo 8427" width="60" height="60" transform="translate(-1340 99)" fill="#fff"/>
    <g id="_222_AXN_Color" data-name="222 AXN Color" transform="translate(-1337.65 107.58)">
      <g id="Grupo_14852" data-name="Grupo 14852" clip-path="url(#clip-path)">
        <path id="Trazado_20135" data-name="Trazado 20135" d="M34.95,19.3l-2.79,2.79h5.57Z" fill="#db2927"/>
        <path id="Trazado_20136" data-name="Trazado 20136" d="M37.73,22.09,34.95,19.3l.93,2.79Z" fill="#8c301f"/>
        <path id="Trazado_20137" data-name="Trazado 20137" d="M16.39,18.37l.92.93H15.46Zm13-5.57-3.71,3.72-1.86-1.86H20.1l3.71,3.71L22,20.23l-5.57-5.57L9,22.09h3.71l.93-.93h5.57l.93.93-2.79,2.78H21l4.64-4.65,1.85,1.86h3.72L35,18.36l3.72,3.72,7.42-7.43H42.37l-3.71,3.7-3.72-3.7-5.57,5.57-1.85-1.85,5.57-5.58Z" fill="#3a3a3a"/>
        <g id="Grupo_14851" data-name="Grupo 14851" clip-path="url(#clip-path)">
          <path id="Trazado_20138" data-name="Trazado 20138" d="M18.06,29.69a.23.23,0,0,0-.27-.27.71.71,0,0,0-.28.06v-.14a.81.81,0,0,1,.33-.07c.27,0,.44.13.44.4v.49a2.11,2.11,0,0,0,0,.25H18.1a.7.7,0,0,1,0-.16h0a.39.39,0,0,1-.35.19.33.33,0,0,1-.37-.34c0-.32.33-.38.71-.38Zm0,.16c-.25,0-.49,0-.49.25a.19.19,0,0,0,.21.2.33.33,0,0,0,.33-.36v-.09Z" fill="#3a3a3a"/>
          <path id="Trazado_20139" data-name="Trazado 20139" d="M20.73,29.1a1,1,0,0,0-.33-.1c-.15,0-.31.05-.31.23s.08.2.32.3.43.22.43.45a.5.5,0,0,1-.51.42,1.19,1.19,0,0,1-.44-.09l.05-.16a.86.86,0,0,0,.4.09c.18,0,.32-.08.32-.24s-.14-.24-.36-.33-.39-.23-.39-.43.26-.4.49-.4a.87.87,0,0,1,.37.07Z" fill="#3a3a3a"/>
          <path id="Trazado_20140" data-name="Trazado 20140" d="M22,30.44c-.32,0-.52-.22-.52-.59a.52.52,0,1,1,1,0c0,.37-.2.59-.52.59m0-1c-.23,0-.34.18-.34.43s.11.45.34.45.34-.19.34-.45-.11-.43-.34-.43" fill="#3a3a3a"/>
          <path id="Trazado_20141" data-name="Trazado 20141" d="M23.39,29.3v.16h0a.42.42,0,0,1,.35-.19.38.38,0,0,1,.4.41v.73H24v-.66c0-.21-.06-.33-.26-.33a.31.31,0,0,0-.31.36v.63h-.17V29.3Z" fill="#3a3a3a"/>
          <path id="Trazado_20142" data-name="Trazado 20142" d="M25.25,30.2h0l.33-.9h.19l-.61,1.52h-.18l.17-.43-.43-1.09h.2Z" fill="#3a3a3a"/>
          <path id="Trazado_20143" data-name="Trazado 20143" d="M28.29,30.22h0V28.91h.17v1.5h-.27l-.66-1.32h0v1.32h-.18v-1.5h.28Z" fill="#3a3a3a"/>
          <path id="Trazado_20144" data-name="Trazado 20144" d="M29.36,29.9a.38.38,0,0,0,.39.4.77.77,0,0,0,.3-.06v.14a.88.88,0,0,1-.33.06.54.54,0,0,1-.57-.58.52.52,0,0,1,.51-.59c.31,0,.46.22.46.55v.08Zm0-.14H30c0-.21-.11-.34-.29-.34a.33.33,0,0,0-.33.35" fill="#3a3a3a"/>
          <path id="Trazado_20145" data-name="Trazado 20145" d="M30.7,29.3h.19V29h.18v.28h.26v.14h-.26v.67c0,.15,0,.18.14.18h.12v.13h-.17c-.23,0-.27-.11-.27-.31v-.68H30.7Z" fill="#3a3a3a"/>
          <path id="Trazado_20146" data-name="Trazado 20146" d="M33.02,30.26h.01l.24-.96h.19l-.32,1.11h-.23l-.24-.96h-.01l-.24.96h-.23l-.32-1.11h.19l.25.96h0l.24-.96h.24Z" fill="#3a3a3a"/>
          <path id="Trazado_20147" data-name="Trazado 20147" d="M34.56,30.44c-.32,0-.51-.22-.51-.59s.19-.58.51-.58a.51.51,0,0,1,.52.58c0,.37-.2.59-.52.59m0-1c-.23,0-.33.18-.33.43s.1.45.33.45.34-.19.34-.45-.1-.43-.34-.43" fill="#3a3a3a"/>
          <path id="Trazado_20148" data-name="Trazado 20148" d="M36.33,29.42h-.09c-.15,0-.27.09-.27.35v.65h-.18V29.3H36v.15h0a.3.3,0,0,1,.3-.18h.08Z" fill="#3a3a3a"/>
          <path id="Trazado_20149" data-name="Trazado 20149" d="M37.81,29.3l-.49.5.51.61H37.6l-.47-.58h0v.58h-.18V28.86h.18v.92h0l.45-.48Z" fill="#3a3a3a"/>
        </g>
      </g>
    </g>
  </g>
</svg>
