<svg xmlns="http://www.w3.org/2000/svg" width="60" height="60" viewBox="0 0 60 60">
  <g id="Grupo_14928" data-name="Grupo 14928" transform="translate(1274 -373)">
    <rect id="Rectángulo_8427" data-name="Rectángulo 8427" width="60" height="60" transform="translate(-1274 373)" fill="#fff"/>
    <g id="logo__54x40_network_cartoon_network" data-name="logo _54x40_network_cartoon network" transform="translate(-1270.79 383.38)">
      <path id="Trazado_20299" data-name="Trazado 20299" d="M26.54,11.62H12.79V25.39H26.54Zm-6.49,9.1A2.22,2.22,0,0,0,22,19.6l3.42,1.95a6.14,6.14,0,1,1,0-6.1L22,17.4a2.21,2.21,0,1,0-1.92,3.32Z" fill="#000105"/>
      <path id="Trazado_20300" data-name="Trazado 20300" d="M39.33,24.4V12.61H35.4v4.91l-3.93-4.91H27.54V24.4h3.93V19.49L35.4,24.4h3.93" fill="#000105"/>
      <path id="Trazado_20301" data-name="Trazado 20301" d="M33.51,27.6l.2.46h.47l.32-1.69h-.56l-.14.74-.29-.69-.28.69-.14-.74h-.57l.33,1.69h.46l.2-.46" fill="#000105"/>
      <path id="Trazado_20302" data-name="Trazado 20302" d="M32.38,26.37H30.7v.49h.53v1.2h.63v-1.2h.52v-.49" fill="#000105"/>
      <path id="Trazado_20303" data-name="Trazado 20303" d="M35.42,26.33a.88.88,0,1,0,.88.88.88.88,0,0,0-.88-.88m0,1.2-.32-.32.32-.31.31.31-.31.32" fill="#000105"/>
      <path id="Trazado_20304" data-name="Trazado 20304" d="M28.81,28.06V26.37h-.57v.7l-.56-.7h-.56v1.69h.56v-.7l.56.7h.57" fill="#000105"/>
      <path id="Trazado_20305" data-name="Trazado 20305" d="M30.52,26.86v-.49H29.04v1.69h1.48V27.6H29.6v-.17h.78v-.42H29.6v-.15h.92" fill="#000105"/>
      <path id="Trazado_20306" data-name="Trazado 20306" d="M38.07,27a.6.6,0,0,0-.63-.59h-1V28.1H37v-.5h.17l.24.5h.63l-.32-.56a.64.64,0,0,0,.32-.54m-1-.1h.34l.14.14-.14.14H37Z" fill="#000105"/>
      <path id="Trazado_20307" data-name="Trazado 20307" d="M39.96,26.37h-.74l-.41.55v-.55h-.56v1.69h.56v-.63l.41.63h.74l-.66-.88.66-.81" fill="#000105"/>
      <path id="Trazado_20308" data-name="Trazado 20308" d="M16.21,28.06h.6l-.53-1.69h-.84l-.53,1.69h.6l.07-.28h.55l.08.28m-.5-.7.14-.52.16.52Z" fill="#000105"/>
      <path id="Trazado_20309" data-name="Trazado 20309" d="M20.42,26.37H18.74v.49h.52v1.2h.64v-1.2h.52v-.49" fill="#000105"/>
      <path id="Trazado_20310" data-name="Trazado 20310" d="M14.42,27.38l-.31.18-.34-.35.34-.35.31.18.46-.26a.87.87,0,0,0-.77-.45.88.88,0,1,0,.77,1.32l-.46-.27" fill="#000105"/>
      <path id="Trazado_20311" data-name="Trazado 20311" d="M21.36,26.34a.88.88,0,1,0,.88.87.87.87,0,0,0-.88-.87m0,1.19-.31-.32.31-.31.32.31-.32.32" fill="#000105"/>
      <path id="Trazado_20312" data-name="Trazado 20312" d="M23.27,26.34a.88.88,0,1,0,.87.87.88.88,0,0,0-.87-.87m0,1.19L23,27.21l.32-.31.31.31-.31.32" fill="#000105"/>
      <path id="Trazado_20313" data-name="Trazado 20313" d="M25.99,28.06V26.37h-.56v.7l-.57-.7H24.3v1.69h.56v-.7l.57.7h.56" fill="#000105"/>
      <path id="Trazado_20314" data-name="Trazado 20314" d="M18.59,27a.61.61,0,0,0-.64-.6H17v1.69h.57V27.6h.18l.25.49h.63l-.34-.56a.62.62,0,0,0,.34-.53m-1.06-.11h.35L18,27l-.14.14h-.35Z" fill="#000105"/>
      <path id="Trazado_20315" data-name="Trazado 20315" d="M40.5,27.6v.08h-.13v.38h-.1v-.38h-.14V27.6h.37" fill="#000105"/>
      <path id="Trazado_20316" data-name="Trazado 20316" d="M40.87,27.6H41v.46h-.08v-.39l-.09.39h-.1l-.09-.39.02.03v.36h-.1V27.6h.13l.1.35.08-.35" fill="#000105"/>
    </g>
  </g>
</svg>
