<svg xmlns="http://www.w3.org/2000/svg" width="60" height="60" viewBox="0 0 60 60">
  <g id="Grupo_14906" data-name="Grupo 14906" transform="translate(1472 -267)">
    <rect id="Rect치ngulo_8427" data-name="Rect치ngulo 8427" width="60" height="60" transform="translate(-1472 267)" fill="#fff"/>
    <g id="_378_Cinecanal_Negro" data-name="378  Cinecanal Negro" transform="translate(-1469.402 277)">
      <path id="Trazado_20237" data-name="Trazado 20237" d="M13.57,28.3a1.23,1.23,0,0,1-.61.15,1.27,1.27,0,0,1-.94-.36,1.46,1.46,0,0,1,0-1.9,1.27,1.27,0,0,1,.94-.37,1.23,1.23,0,0,1,.61.15,1,1,0,0,1,.41.41l1.07-.62a2.24,2.24,0,0,0-.87-.83A2.53,2.53,0,1,0,13,29.66a2.43,2.43,0,0,0,1.22-.31,2.2,2.2,0,0,0,.87-.84L14,27.89a1,1,0,0,1-.41.41" fill="#010101"/>
      <rect id="Rect치ngulo_8480" data-name="Rect치ngulo 8480" width="1.24" height="4.84" transform="translate(15.22 24.72)" fill="#010101"/>
      <path id="Trazado_20238" data-name="Trazado 20238" d="M19.61,24.72v2.43L17.9,24.72h-.96v4.84h1.24V27.13l1.71,2.43h.95V24.72Z" fill="#010101"/>
      <path id="Trazado_20239" data-name="Trazado 20239" d="M22.57,28.4v-.72h1.66V26.54H22.57v-.67H24.4V24.72H21.33v4.84h3.11V28.4Z" fill="#010101"/>
      <path id="Trazado_20240" data-name="Trazado 20240" d="M27.18,29.17a2.031,2.031,0,1,1,0-4.06,1.88,1.88,0,0,1,1.67,1l.43-.25a2.4,2.4,0,0,0-2.1-1.18,2.46,2.46,0,0,0-2.53,2.5,2.5,2.5,0,0,0,4.63,1.3l-.43-.24a1.87,1.87,0,0,1-1.67,1" fill="#010101"/>
      <path id="Trazado_20241" data-name="Trazado 20241" d="M31.6,24.72h-.5l-1.86,4.84h.51l.45-1.19h2.3l.5,1.19h.51Zm-1.22,3.19,1-2.59,1,2.59Z" fill="#010101"/>
      <path id="Trazado_20242" data-name="Trazado 20242" d="M36.91,24.72v3.94l-2.69-3.94H33.8v4.84h.49V25.62l2.69,3.94h.42V24.72Z" fill="#010101"/>
      <path id="Trazado_20243" data-name="Trazado 20243" d="M40.1,24.72h-.5l-1.86,4.84h.51l.45-1.19H41l.45,1.19H42Zm-1.22,3.19,1-2.59,1,2.59Z" fill="#010101"/>
      <path id="Trazado_20244" data-name="Trazado 20244" d="M42.79,29.1V24.72H42.3v4.84H45V29.1Z" fill="#010101"/>
      <path id="Trazado_20245" data-name="Trazado 20245" d="M27.37,11a5.5,5.5,0,1,0,3.9,1.607A5.5,5.5,0,0,0,27.37,11m-.77,6.45a1.27,1.27,0,0,0,.94.36,1.25,1.25,0,0,0,.61-.15,1,1,0,0,0,.41-.41l1.07.63a2.34,2.34,0,0,1-.87.84,2.53,2.53,0,0,1-1.22.3,2.52,2.52,0,1,1,0-5,2.4,2.4,0,0,1,1.21.31,2.27,2.27,0,0,1,.88.83l-1.07.62a.93.93,0,0,0-.41-.4,1.25,1.25,0,0,0-.61-.15,1.27,1.27,0,0,0-.94.36,1.46,1.46,0,0,0,0,1.9" fill="#010101"/>
    </g>
  </g>
</svg>
