<svg xmlns="http://www.w3.org/2000/svg" width="60" height="60" viewBox="0 0 60 60">
  <g id="Grupo_14866" data-name="Grupo 14866" transform="translate(1010 -99)">
    <rect id="Rectángulo_8427" data-name="Rectángulo 8427" width="60" height="60" transform="translate(-1010 99)" fill="#fff"/>
    <g id="logo__54x40_network_cinemax" data-name="logo _54x40_network_cinemax" transform="translate(-1006.23 108)">
      <path id="Trazado_20163" data-name="Trazado 20163" d="M44.98,15.46,8.37,20.16l-.65,6.71,36.3-4.4Z"/>
      <path id="Trazado_20164" data-name="Trazado 20164" d="M35.36,19.5l.28,1.19-.9.11ZM47,14l-1.34,9.51-40.43,5L6.57,19Zm-5.67,5.31,1.84-2.68-1.92.23-.85,1.33L39.68,17l-1.79.22,1.46,2.2-1.66,2.42L36.45,17.4l-1.64.2-2.64,5,.68-4.78L31,18.1,29.72,20l-.81-1.66-1.63.2-.72,5.11,1.62-.2.35-2.53.88,1.68h0l1.4-1.95-.36,2.53L32,23h.14l1.67-.21.35-.72,1.73-.21.17.66,1.32-.17.44-.05,1.47-.18,1-1.55.78,1.33,1.78-.22ZM23.9,20.86l.07-.52L26.56,20l.2-1.4-4.22.52-.72,5.11,4.18-.5.19-1.4-2.59.32.08-.55,2.42-.3.17-1.23Zm-7.54,4.06,1.64-.2.36-2.54,1.47,2.32,1.47-.18L22,19.2l-1.64.2L20,21.84l-1.41-2.22-1.55.19Zm.21-5.05-1.66.21-.72,5.11,1.66-.2Zm-7,5c-.05.45.42.83,1,.75h0l3.08-.37.22-1.43-2.1.25c-.28,0-.53,0-.48-.41l.18-1.29c.06-.41.41-.52.77-.57l1.94-.24.21-1.43L11,20.56a1.08,1.08,0,0,0-1,.81l-.49,3.51Z" fill="#fdbc1f"/>
    </g>
  </g>
</svg>
