<svg xmlns="http://www.w3.org/2000/svg" xmlns:xlink="http://www.w3.org/1999/xlink" width="60" height="60" viewBox="0 0 60 60">
  <defs>
    <clipPath id="clip-path">
      <rect id="Rectángulo_8606" data-name="Rectángulo 8606" width="30.47" height="19.29" transform="translate(11.91 9.69)" fill="none"/>
    </clipPath>
  </defs>
  <g id="Grupo_15059" data-name="Grupo 15059" transform="translate(1340 -539)">
    <rect id="Rectángulo_8427" data-name="Rectángulo 8427" width="60" height="60" transform="translate(-1340 539)" fill="#fff"/>
    <g id="_83X_Claro_Sports_HD_Color" data-name="83X Claro Sports HD Color" transform="translate(-1336.91 549.31)">
      <g id="Grupo_15058" data-name="Grupo 15058" clip-path="url(#clip-path)">
        <g id="Grupo_15057" data-name="Grupo 15057" clip-path="url(#clip-path)">
          <path id="Trazado_20438" data-name="Trazado 20438" d="M21.75,27.47a2.31,2.31,0,0,1-1.81-.61l.7-.69a1.53,1.53,0,0,0,1.13.4c.37,0,.75-.12.75-.44s-.11-.36-.45-.39l-.67-.07c-.76-.07-1.23-.41-1.23-1.19a1.512,1.512,0,0,1,1.63-1.35,2.21,2.21,0,0,1,1.62.5l-.65.66a1.46,1.46,0,0,0-1-.29c-.43,0-.61.2-.61.41s.07.33.44.36l.67.07c.84.08,1.27.53,1.27,1.25,0,.93-.8,1.38-1.81,1.38" fill="#010101"/>
          <path id="Trazado_20439" data-name="Trazado 20439" d="M27.4,27.09a1.46,1.46,0,0,1-1,.38,1.25,1.25,0,0,1-1-.42V29H24.28V23.2h1v.4a1.28,1.28,0,0,1,1.06-.45,1.51,1.51,0,0,1,1,.38,2.54,2.54,0,0,1,.43,1.79,2.56,2.56,0,0,1-.43,1.79m-1.34-3c-.64,0-.72.52-.72,1.22s.08,1.22.72,1.22.71-.53.71-1.22-.08-1.22-.71-1.22" fill="#010101"/>
          <path id="Trazado_20440" data-name="Trazado 20440" d="M31.54,27a1.92,1.92,0,0,1-2.63,0,2.17,2.17,0,0,1-.48-1.65,2.17,2.17,0,0,1,.48-1.65,1.92,1.92,0,0,1,2.63,0A2.13,2.13,0,0,1,32,25.3a2.13,2.13,0,0,1-.46,1.7m-.82-2.68a.69.69,0,0,0-.5-.19.68.68,0,0,0-.49.19,1.44,1.44,0,0,0-.24,1,1.44,1.44,0,0,0,.24,1,.68.68,0,0,0,.49.19.69.69,0,0,0,.5-.19,1.44,1.44,0,0,0,.24-1,1.44,1.44,0,0,0-.24-1" fill="#010101"/>
          <path id="Trazado_20441" data-name="Trazado 20441" d="M35,24.33a.74.74,0,0,0-.57-.25.71.71,0,0,0-.68.78v2.56H32.66V23.18h1v.4a1.48,1.48,0,0,1,1.07-.45,1.24,1.24,0,0,1,1,.4Z" fill="#010101"/>
          <path id="Trazado_20442" data-name="Trazado 20442" d="M37.81,27.42a1.15,1.15,0,0,1-1.23-1.21v-2.1h-.44V23.3h.44V22h1.06v1.3h.75v.81h-.75v2c0,.25.12.39.37.39h.38v.89Z" fill="#010101"/>
          <path id="Trazado_20443" data-name="Trazado 20443" d="M40.58,27.47a2.28,2.28,0,0,1-1.8-.61l.69-.69a1.55,1.55,0,0,0,1.13.4c.37,0,.75-.12.75-.44s-.11-.36-.45-.39l-.67-.07c-.76-.07-1.23-.41-1.23-1.19a1.512,1.512,0,0,1,1.63-1.35,2.25,2.25,0,0,1,1.63.5l-.66.66a1.46,1.46,0,0,0-1-.29c-.43,0-.61.2-.61.41s.07.33.44.36l.67.07c.84.08,1.27.53,1.27,1.25,0,.93-.8,1.38-1.81,1.38" fill="#010101"/>
          <path id="Trazado_20444" data-name="Trazado 20444" d="M35.78,18.77a1.56,1.56,0,0,1-2.23,0,1.58,1.58,0,0,1,0-2.27,1.41,1.41,0,0,1,1.11-.45,1.49,1.49,0,0,1,1.14.45,1.72,1.72,0,0,1,.46,1.14,1.66,1.66,0,0,1-.48,1.13m1-3.28a2.92,2.92,0,0,0-2.14-.89,2.83,2.83,0,0,0-2.11.89,2.93,2.93,0,0,0-.89,2.15,2.9,2.9,0,0,0,.89,2.15,2.84,2.84,0,0,0,2.11.9,3.062,3.062,0,0,0,2.13-5.2" fill="#e1251b"/>
          <path id="Trazado_20445" data-name="Trazado 20445" d="M15.64,13.11A3.44,3.44,0,0,0,13,14.21a3.59,3.59,0,0,0-1.1,2.66A3.66,3.66,0,0,0,13,19.54a3.57,3.57,0,0,0,2.63,1.08,3.63,3.63,0,0,0,2.26-.76,3.76,3.76,0,0,0,1.31-2H17.69a2.54,2.54,0,0,1-.82,1,2.35,2.35,0,0,1-1.23.36A2.26,2.26,0,0,1,14,18.51a2.35,2.35,0,0,1,0-3.29,2.26,2.26,0,0,1,1.63-.68,2.2,2.2,0,0,1,1.23.38,2.4,2.4,0,0,1,.82,1H19.2a3.65,3.65,0,0,0-1.31-2,3.47,3.47,0,0,0-2.26-.78" fill="#e1251b"/>
          <path id="Trazado_20446" data-name="Trazado 20446" d="M25.42,17.85l.28-.15v.59a1.21,1.21,0,0,1-.41,1,1.53,1.53,0,0,1-.9.29.78.78,0,0,1-.51-.17.7.7,0,0,1-.21-.57.71.71,0,0,1,.35-.65,2.14,2.14,0,0,1,.68-.2Zm-.61-3.27a2.38,2.38,0,0,0-2,.77,2.36,2.36,0,0,0-.41,1.27h1.44a1,1,0,0,1,.21-.53.85.85,0,0,1,.77-.28,1.18,1.18,0,0,1,.7.14.5.5,0,0,1,.25.48.48.48,0,0,1-.33.45l-1.11.18a3.35,3.35,0,0,0-1.25.38A1.62,1.62,0,0,0,22.24,19a1.55,1.55,0,0,0,.48,1.24,1.87,1.87,0,0,0,1.19.4,2.8,2.8,0,0,0,1.86-.6v.6h1.44V16.39A1.49,1.49,0,0,0,26.49,15a3.46,3.46,0,0,0-1.68-.38" fill="#e1251b"/>
          <rect id="Rectángulo_8601" data-name="Rectángulo 8601" width="1.45" height="7.54" transform="translate(19.94 13.11)" fill="#e1251b"/>
          <path id="Trazado_20447" data-name="Trazado 20447" d="M30.59,14.79a2.35,2.35,0,0,0-1,.82v-.73H28.21v5.79h1.43V17.88a2,2,0,0,1,.19-1,1.22,1.22,0,0,1,.5-.56,1.37,1.37,0,0,1,.79-.25h.44V14.61h-.38Z" fill="#e1251b"/>
          <rect id="Rectángulo_8602" data-name="Rectángulo 8602" width="4.94" height="1.3" transform="matrix(0.707, -0.707, 0.707, 0.707, 37.004, 13.907)" fill="#e1251b"/>
          <rect id="Rectángulo_8603" data-name="Rectángulo 8603" width="1.29" height="3.74" transform="translate(34.19 9.69)" fill="#e1251b"/>
          <rect id="Rectángulo_8604" data-name="Rectángulo 8604" width="3.82" height="1.29" transform="translate(38.56 16.27)" fill="#e1251b"/>
        </g>
      </g>
    </g>
  </g>
</svg>
