<svg xmlns="http://www.w3.org/2000/svg" xmlns:xlink="http://www.w3.org/1999/xlink" width="60" height="60" viewBox="0 0 60 60">
  <defs>
    <clipPath id="clip-path">
      <rect id="Rect치ngulo_8713" data-name="Rect치ngulo 8713" width="38.1" height="13.12" transform="translate(7.95 13.44)" fill="none"/>
    </clipPath>
  </defs>
  <g id="Grupo_15178" data-name="Grupo 15178" transform="translate(1472 -722)">
    <rect id="Rect치ngulo_8427" data-name="Rect치ngulo 8427" width="60" height="60" transform="translate(-1472 722)" fill="#fff"/>
    <g id="Grupo_15177" data-name="Grupo 15177" transform="translate(-128 73.96)">
      <g id="_252_Comedy_Central_Color_Negro" data-name="252 Comedy Central Color/Negro" transform="translate(-1340.95 657.6)">
        <g id="Grupo_15176" data-name="Grupo 15176" clip-path="url(#clip-path)">
          <g id="Grupo_15175" data-name="Grupo 15175" clip-path="url(#clip-path)">
            <path id="Trazado_20576" data-name="Trazado 20576" d="M13.69,13.45A6.55,6.55,0,0,0,8,16.79l1.37.77a5,5,0,1,1,0,4.88L8,23.22a6.55,6.55,0,1,0,5.71-9.77" fill="#fcc60d"/>
            <path id="Trazado_20577" data-name="Trazado 20577" d="M15.22,20.87a1.76,1.76,0,1,1,0-1.73l1.37-.77a3.33,3.33,0,1,0,0,3.27Z" fill="#fcc60d"/>
            <path id="Trazado_20578" data-name="Trazado 20578" d="M42.14,25.6,42,24.94H40.62l-.15.66h-1l1.46-5.08h.82l1.47,5.08Zm-1-3-.36,1.49h1l-.36-1.49a2.56,2.56,0,0,1-.07-.36.581.581,0,0,0-.05-.32,1.52,1.52,0,0,1,0,.31,3.06,3.06,0,0,1-.07.37" fill="#010101"/>
            <path id="Trazado_20579" data-name="Trazado 20579" d="M22.9,15.5a1.8,1.8,0,0,0-.26,1.17v.57a1.75,1.75,0,0,0,.26,1.16.62.62,0,0,0,.5.21.74.74,0,0,0,.72-.5l.89.39a1.61,1.61,0,0,1-1.61,1.06,1.63,1.63,0,0,1-1.08-.35,2.32,2.32,0,0,1-.69-2v-.62a2.32,2.32,0,0,1,.69-1.93,1.75,1.75,0,0,1,1.08-.36A1.61,1.61,0,0,1,25,15.44l-.89.39a.73.73,0,0,0-.72-.54.64.64,0,0,0-.5.21" fill="#010101"/>
            <path id="Trazado_20580" data-name="Trazado 20580" d="M26.15,19.21a2.32,2.32,0,0,1-.69-2v-.62a2.32,2.32,0,0,1,.69-1.93,1.82,1.82,0,0,1,2.17,0A2.35,2.35,0,0,1,29,16.63v.65a2.32,2.32,0,0,1-.69,1.93,1.86,1.86,0,0,1-2.17,0m.58-3.71a1.8,1.8,0,0,0-.26,1.17v.57a1.75,1.75,0,0,0,.26,1.16.62.62,0,0,0,.5.21.6.6,0,0,0,.5-.21A1.69,1.69,0,0,0,28,17.24v-.57a1.74,1.74,0,0,0-.26-1.17.63.63,0,0,0-.5-.21.64.64,0,0,0-.5.21" fill="#010101"/>
            <path id="Trazado_20581" data-name="Trazado 20581" d="M31.57,19.49l-.76-2.78-.32,2.78h-.94l.59-5.08h.96l.87,3.21.87-3.21h.95l.6,5.08h-.94l-.32-2.78-.76,2.78Z" fill="#010101"/>
            <path id="Trazado_20582" data-name="Trazado 20582" d="M35.18,14.41h2.7v.95H36.19v1.08h1.46v.95H36.19v1.15h1.69v.95h-2.7Z" fill="#010101"/>
            <path id="Trazado_20583" data-name="Trazado 20583" d="M38.73,14.41h1.63a1.6,1.6,0,0,1,1.28.58,2.23,2.23,0,0,1,.47,1.45v.9a2.48,2.48,0,0,1-.47,1.56,1.58,1.58,0,0,1-1.28.59H38.73Zm1.51,4.13a.74.74,0,0,0,.64-.3,1.67,1.67,0,0,0,.21-1v-.81a1.33,1.33,0,0,0-.21-.83.75.75,0,0,0-.64-.28h-.5V18.5Z" fill="#010101"/>
            <path id="Trazado_20584" data-name="Trazado 20584" d="M43.53,17.05l-1.42-2.64h1.1l.83,1.61.83-1.61h1.1l-1.42,2.64v2.44H43.53Z" fill="#010101"/>
            <path id="Trazado_20585" data-name="Trazado 20585" d="M22.9,21.6a1.8,1.8,0,0,0-.26,1.17v.57a1.76,1.76,0,0,0,.26,1.16.62.62,0,0,0,.5.21.74.74,0,0,0,.72-.5l.89.38a1.61,1.61,0,0,1-1.61,1.07,1.68,1.68,0,0,1-1.08-.35,2.33,2.33,0,0,1-.69-2v-.62a2.31,2.31,0,0,1,.69-1.93,1.69,1.69,0,0,1,1.08-.36A1.6,1.6,0,0,1,25,21.54l-.89.38a.72.72,0,0,0-.72-.53.64.64,0,0,0-.5.21" fill="#010101"/>
            <path id="Trazado_20586" data-name="Trazado 20586" d="M25.56,20.51h2.57v.95H26.58v1.07h1.33v.95H26.58v1.16h1.55v.95H25.56Z" fill="#010101"/>
            <path id="Trazado_20587" data-name="Trazado 20587" d="M28.88,20.51h.89l1.36,2.97V20.51h.93v5.08h-.89l-1.36-2.93v2.93h-.93Z" fill="#010101"/>
            <path id="Trazado_20588" data-name="Trazado 20588" d="M33.52,21.46h-.95v-.95h2.91v.95h-.95v4.13H33.52Z" fill="#010101"/>
            <path id="Trazado_20589" data-name="Trazado 20589" d="M37,25.59H36V20.51h1.62a1.59,1.59,0,0,1,1.56,1.68v.11a1.68,1.68,0,0,1-.77,1.47l.75,1.82h-1L37.49,24H37ZM37.51,23c.38,0,.66-.24.66-.79h0c0-.51-.28-.76-.66-.76H37V23Z" fill="#010101"/>
            <path id="Trazado_20590" data-name="Trazado 20590" d="M43.53,20.51h1.02v4.13h1.47v.95H43.53Z" fill="#010101"/>
          </g>
        </g>
      </g>
    </g>
  </g>
</svg>
