<svg xmlns="http://www.w3.org/2000/svg" xmlns:xlink="http://www.w3.org/1999/xlink" width="60" height="60" viewBox="0 0 60 60">
  <defs>
    <clipPath id="clip-path">
      <rect id="Rect치ngulo_8497" data-name="Rect치ngulo 8497" width="26.29" height="22.35" transform="translate(13.86 8.83)" fill="none"/>
    </clipPath>
  </defs>
  <g id="Grupo_14936" data-name="Grupo 14936" transform="translate(1472 -439)">
    <rect id="Rect치ngulo_8427" data-name="Rect치ngulo 8427" width="60" height="60" transform="translate(-1472 439)" fill="#fff"/>
    <g id="_292_Discoery_Kids_Color" data-name="292 Discoery Kids Color" transform="translate(-1468.86 449.17)">
      <g id="Grupo_14935" data-name="Grupo 14935" clip-path="url(#clip-path)">
        <g id="Grupo_14934" data-name="Grupo 14934" clip-path="url(#clip-path)">
          <path id="Trazado_20319" data-name="Trazado 20319" d="M30.53,18.38,33,16a3,3,0,0,0-4.19-4.19l-2,2v-2a3,3,0,0,0-5.92,0V23a3,3,0,0,0,5.92,0l2,2A2.959,2.959,0,1,0,33,20.82Z" fill="#054265"/>
          <path id="Trazado_20320" data-name="Trazado 20320" d="M29.56,18.38l2.92-2.92a2.273,2.273,0,1,0-3.22-3.21l-3.19,3.19V11.78a2.28,2.28,0,0,0-4.56,0V23a2.28,2.28,0,0,0,4.08,1.38c.51-.87.21-1.65-.23-2.61l-.65-1.45c-.1-.21,0-.28.17-.14L26.1,21.4l3.16,3.16a2.28,2.28,0,0,0,3.22-3.22Z" fill="#63bc63"/>
          <path id="Trazado_20321" data-name="Trazado 20321" d="M22.23,16.75a3.82,3.82,0,1,0-1.4,1.32l1.59.47h.06a.2.2,0,0,0,.14-.06.19.19,0,0,0,.05-.19Z" fill="#054265"/>
          <path id="Trazado_20322" data-name="Trazado 20322" d="M19,12.08H17.63a.74.74,0,0,0-.75.75v3.83a.73.73,0,0,0,.75.74H19a2.93,2.93,0,0,0,2-.76,2.63,2.63,0,0,0,.78-1.9h0A2.65,2.65,0,0,0,19,12.08M19,16h-.63V13.47H19a1.21,1.21,0,0,1,1.28,1.27h0A1.21,1.21,0,0,1,19,16" fill="#f8ec3a"/>
          <path id="Trazado_20323" data-name="Trazado 20323" d="M15.82,30.17c0,.17-.08.27-.25.27a.24.24,0,0,1-.25-.27v-.08h0a.58.58,0,0,1-.58.35c-.47,0-.87-.34-.87-1.06,0-.53.27-1,.85-1a.61.61,0,0,1,.55.28h0v-.75a.276.276,0,1,1,.55,0Zm-1-.17c.33,0,.45-.29.45-.6s-.11-.62-.45-.62-.44.36-.44.62.14.59.44.6" fill="#054265"/>
          <path id="Trazado_20324" data-name="Trazado 20324" d="M16.4,27.59a.28.28,0,0,1,.29.28.29.29,0,1,1-.58,0,.28.28,0,0,1,.29-.28m-.28,1a.28.28,0,1,1,.56,0v1.53a.28.28,0,0,1-.56,0Z" fill="#054265"/>
          <path id="Trazado_20325" data-name="Trazado 20325" d="M17.72,28.35c.42,0,.85.17.85.42a.23.23,0,0,1-.23.24c-.22,0-.23-.25-.58-.25-.19,0-.32,0-.32.17s.13.16.3.2l.23.05c.32.07.69.21.69.59s-.43.67-.85.67-.92-.23-.92-.5a.21.21,0,0,1,.22-.23c.24,0,.27.34.68.34.19,0,.32-.09.32-.2s-.12-.17-.32-.22l-.33-.08c-.32-.08-.57-.21-.57-.58s.45-.62.83-.62" fill="#054265"/>
          <path id="Trazado_20326" data-name="Trazado 20326" d="M19.85,28.35c.46,0,.81.26.81.52a.24.24,0,0,1-.26.24c-.26,0-.17-.33-.57-.33-.22,0-.47.15-.47.65s.16.57.47.57.3-.35.59-.35a.23.23,0,0,1,.24.21c0,.24-.28.58-.85.58a.93.93,0,0,1-1-1,1,1,0,0,1,1.05-1.08" fill="#054265"/>
          <path id="Trazado_20327" data-name="Trazado 20327" d="M21.81,28.35a1,1,0,0,1,1,1,1.03,1.03,0,1,1-2.06,0,1,1,0,0,1,1-1m0,1.68c.33,0,.47-.3.47-.64s-.15-.63-.47-.63-.47.27-.47.63.14.64.47.64" fill="#054265"/>
          <path id="Trazado_20328" data-name="Trazado 20328" d="M22.93,28.78a.44.44,0,0,1,0-.14.26.26,0,0,1,.26-.29.27.27,0,0,1,.28.23l.37,1.25h0l.38-1.25a.272.272,0,0,1,.54.06,1.21,1.21,0,0,1,0,.14l-.53,1.46c-.05.15-.08.2-.36.2s-.31-.05-.37-.2Z" fill="#054265"/>
          <path id="Trazado_20329" data-name="Trazado 20329" d="M25.36,29.5a.48.48,0,0,0,.51.5c.42,0,.42-.27.64-.27a.22.22,0,0,1,.23.22c0,.33-.54.49-.87.49a1.041,1.041,0,1,1-.02-2.08.93.93,0,0,1,1,.91c0,.19-.05.24-.24.24Zm1-.32a.47.47,0,0,0-.47-.44.49.49,0,0,0-.5.44Z" fill="#054265"/>
          <path id="Trazado_20330" data-name="Trazado 20330" d="M27.07,28.61a.25.25,0,0,1,.5,0v.21h0c.06-.23.19-.47.46-.47a.28.28,0,0,1,.3.27.26.26,0,0,1-.27.28H28c-.23,0-.35.15-.35.61v.65a.24.24,0,0,1-.27.28.25.25,0,0,1-.28-.28Z" fill="#054265"/>
          <path id="Trazado_20331" data-name="Trazado 20331" d="M29.39,29.85h0l.34-1.25a.25.25,0,0,1,.26-.25.28.28,0,0,1,.29.25.68.68,0,0,1,0,.17L29.6,30.6c-.13.38-.28.57-.63.57s-.35-.12-.35-.25a.224.224,0,0,1,.25-.22h.06c.07,0,.15,0,.19-.18l-.57-1.65a.72.72,0,0,1-.07-.26.28.28,0,0,1,.55-.05Z" fill="#054265"/>
          <path id="Trazado_20332" data-name="Trazado 20332" d="M32.8,30.53a.36.36,0,0,1-.32-.17L32,29.7l-.08.08v.38a.37.37,0,1,1-.74,0V27.88a.34.34,0,0,1,.37-.37.35.35,0,0,1,.37.37v1l.45-.51a.38.38,0,0,1,.28-.13.36.36,0,0,1,.36.34.3.3,0,0,1-.1.24l-.37.38.53.71a.41.41,0,0,1,.08.24.36.36,0,0,1-.36.36" fill="#054265"/>
          <path id="Trazado_20333" data-name="Trazado 20333" d="M33.57,30h0a.4.4,0,0,1-.34-.43.38.38,0,0,1,.43-.33.37.37,0,0,1,.33.42.38.38,0,0,1-.38.34m.15-.93H33.7a.34.34,0,0,1-.33-.41l.17-1.4a.38.38,0,0,1,.1-.24.4.4,0,0,1,.31-.09.35.35,0,0,1,.33.41l-.17,1.4a.38.38,0,0,1-.13.26.32.32,0,0,1-.22.07" fill="#054265"/>
          <path id="Trazado_20334" data-name="Trazado 20334" d="M36.09,30.53a.31.31,0,0,1-.31-.19.76.76,0,0,1-.53.19,1.014,1.014,0,0,1-1-1.15,1,1,0,0,1,.95-1.13.77.77,0,0,1,.46.15v-.52a.35.35,0,0,1,.37-.37.34.34,0,0,1,.37.37v2.29a.32.32,0,0,1-.34.36m-.71-1.65h0c-.31,0-.35.36-.35.52s.1.5.35.51.35-.36.35-.51a.59.59,0,0,0-.14-.44.24.24,0,0,0-.2-.08" fill="#054265"/>
          <path id="Trazado_20335" data-name="Trazado 20335" d="M37.6,30.6h-.14a.51.51,0,0,1-.46-.3.27.27,0,0,1,0-.23.29.29,0,0,1,.18-.19.46.46,0,0,1,.35,0,.44.44,0,0,0,.41,0,.32.32,0,0,0,.16-.14.12.12,0,0,0,0-.08c0-.05,0-.06-.25,0l-.36.05a.7.7,0,0,1-.85-.39.85.85,0,0,1,.6-1.05h0c.43-.17.94-.16,1.06.14a.39.39,0,0,1,0,.26.33.33,0,0,1-.18.17.38.38,0,0,1-.3,0,.41.41,0,0,0-.33,0c-.13.06-.2.15-.18.2s.06.05.25,0h.23c.21,0,.78-.11,1,.36a.87.87,0,0,1-.6,1.09,1.54,1.54,0,0,1-.57.12" fill="#054265"/>
          <path id="Trazado_20336" data-name="Trazado 20336" d="M39,28.49h-.1a.07.07,0,0,1,0-.14h.37a.07.07,0,0,1,0,.14h-.09v.4a.09.09,0,0,1-.18,0Zm1,.12h0l-.11.3a.088.088,0,0,1-.09.08c-.04,0-.07,0-.09-.08l-.11-.3h0v.28a.1.1,0,0,1-.09.1.09.09,0,0,1-.09-.1v-.41c0-.11.07-.14.12-.14a.16.16,0,0,1,.16.12l.1.25.1-.25a.16.16,0,0,1,.16-.12.125.125,0,0,1,.12.14v.41a.09.09,0,0,1-.09.1.1.1,0,0,1-.09-.1Z" fill="#054265"/>
        </g>
      </g>
    </g>
  </g>
</svg>
