<svg xmlns="http://www.w3.org/2000/svg" width="60" height="60" viewBox="0 0 60 60">
  <g id="Grupo_15184" data-name="Grupo 15184" transform="translate(1340 -722)">
    <rect id="Rectángulo_8427" data-name="Rectángulo 8427" width="60" height="60" transform="translate(-1340 722)" fill="#fff"/>
    <g id="logo__54x40_network_id_discovery" data-name="logo _54x40_network_id discovery" transform="translate(-1337.22 732.362)">
      <g id="ID_logo_pos_" data-name="ID logo (pos)">
        <path id="Trazado_20596" data-name="Trazado 20596" d="M20.74,14.43H15.22V23.7l5.52,1.26Z" fill="#ed2d24"/>
        <path id="Trazado_20597" data-name="Trazado 20597" d="M31.11,14.43H22.75v11l11.83,2.71A6.59,6.59,0,0,0,39,21.55c0-3.88-2.47-7.12-7.89-7.12m-.54,10.35h-2.3V18.33h2.3c1.92,0,2.61,1.6,2.64,3.22s-.72,3.23-2.64,3.23" fill="#ed2d24"/>
      </g>
      <g id="Discovery_Channel_Logo" data-name="Discovery Channel Logo">
        <path id="Discovery" d="M23.32,11.49a.84.84,0,0,1-.9.85H21.9a.75.75,0,0,0,.26-.27h.26a.58.58,0,1,0,0-1.15h-.33v.25a.55.55,0,0,0-.18-.16l-.12-.08v-.29h.63a.84.84,0,0,1,.9.85Zm.18.86h.29V11.07H23.5Zm1.38-.63-.13-.07-.14-.05h-.2a.1.1,0,0,1-.06,0,.05.05,0,0,1,0-.05h0a.11.11,0,0,1,.05-.09.18.18,0,0,1,.13,0h.18l.18.09.12-.21a.88.88,0,0,0-.22-.1.77.77,0,0,0-.25,0h-.18a.358.358,0,0,0-.24.2.27.27,0,0,0,0,.16h0a.25.25,0,0,0,0,.16.31.31,0,0,0,.09.11l.13.07h.34a.18.18,0,0,1,.07,0,.14.14,0,0,1,0,.06h0a.14.14,0,0,1,0,.1.33.33,0,0,1-.15,0,.58.58,0,0,1-.21-.05.71.71,0,0,1-.21-.11l-.13.2a.94.94,0,0,0,.26.14,1,1,0,0,0,.28.05.58.58,0,0,0,.19,0,.35.35,0,0,0,.15-.07.31.31,0,0,0,.1-.13A.34.34,0,0,0,25,12h0a.24.24,0,0,0,0-.15.28.28,0,0,0-.12-.13Zm2.84-.27a.75.75,0,0,1,.05.26h0a.71.71,0,0,1-.05.26.8.8,0,0,1-.15.21.62.62,0,0,1-.21.15.66.66,0,0,1-.28.05.59.59,0,0,1-.27-.05.74.74,0,0,1-.22-.14.77.77,0,0,1-.14-.21.75.75,0,0,1-.05-.26h0a.61.61,0,0,1,.2-.47.6.6,0,0,1,.21-.14.67.67,0,0,1,.28-.06.6.6,0,0,1,.27.06.64.64,0,0,1,.22.14.6.6,0,0,1,.14.2Zm-.24.26a.45.45,0,0,0,0-.16.57.57,0,0,0-.08-.13l-.13-.09a.44.44,0,0,0-.32,0l-.12.09a.57.57,0,0,0-.08.13.41.41,0,0,0,0,.16h0a.78.78,0,0,0,0,.16.42.42,0,0,0,.09.14l.12.09a.44.44,0,0,0,.32,0l.12-.09a.35.35,0,0,0,.08-.13.45.45,0,0,0,0-.16Zm1,.3-.34-.94h-.32l.53,1.29h.26l.53-1.29h-.31Zm1.89-.54a.75.75,0,0,1,0,.26v.09h-.94a.41.41,0,0,0,.13.24.692.692,0,0,0,.43.08.51.51,0,0,0,.16-.11l.17.15a.65.65,0,0,1-.22.18.7.7,0,0,1-.3.06.55.55,0,0,1-.26-.05.57.57,0,0,1-.21-.13.66.66,0,0,1-.19-.48h0a.64.64,0,0,1,.17-.47.66.66,0,0,1,.2-.14.59.59,0,0,1,.52,0,.54.54,0,0,1,.31.37Zm-.25.12v-.1a.41.41,0,0,0-.07-.11l-.1-.07a.28.28,0,0,0-.13,0,.3.3,0,0,0-.22.1.31.31,0,0,0-.11.21Zm-4.26.54a.416.416,0,0,1-.01-.83.46.46,0,0,1,.33.16l.18-.2a.64.64,0,0,0-.51-.22.67.67,0,0,0-.67.68.66.66,0,0,0,.67.66.65.65,0,0,0,.52-.24L26.15,12a.46.46,0,0,1-.33.13Zm5.06-.85v-.21h-.29v1.28h.29v-.48a.75.75,0,0,1,0-.23.58.58,0,0,1,.47-.32l-.1-.24a.69.69,0,0,0-.41.2Zm1.54-.21-.33.94-.31-.94h-.31L32,12.35h0a1,1,0,0,1-.18.33.68.68,0,0,1-.28,0v.24a1.16,1.16,0,0,0,.42,0,.42.42,0,0,0,.19-.22c.07-.15.64-1.61.64-1.61Z" fill="#ed2d24"/>
      </g>
      <path id="Trazado_20598" data-name="Trazado 20598" d="M22.14,11.68a.68.68,0,1,0-.68.68.68.68,0,0,0,.68-.68Z" fill="#ed2d24"/>
    </g>
  </g>
</svg>
