<svg xmlns="http://www.w3.org/2000/svg" width="60" height="60" viewBox="0 0 60 60">
  <g id="Grupo_15574" data-name="Grupo 15574" transform="translate(1340 -926)">
    <rect id="Rectángulo_8427" data-name="Rectángulo 8427" width="60" height="60" transform="translate(-1340 926)" fill="#fff"/>
    <g id="logo__54x40_network_disocvery" data-name="logo _54x40_network_disocvery" transform="translate(-1337.45 933.74)">
      <path id="Trazado_21563" data-name="Trazado 21563" d="M15.25,23.08a.76.76,0,0,0,.84.72c.42,0,.62-.22.62-.46s-.12-.35-.52-.44l-.62-.14c-1.13-.25-1.59-.89-1.59-1.64A1.9,1.9,0,0,1,16,19.34a1.9,1.9,0,0,1,2.14,1.59l-1.36.25a.7.7,0,0,0-.76-.66.53.53,0,0,0-.58.47c0,.22.18.35.42.39l.71.14c1.1.23,1.64.9,1.64,1.68A1.89,1.89,0,0,1,16.12,25a2,2,0,0,1-2.25-1.68Z" fill="#1f120e"/>
      <path id="Trazado_21564" data-name="Trazado 21564" d="M20.25,22.18A1.22,1.22,0,0,0,21.5,23.5a1.1,1.1,0,0,0,1.1-.79l1.44.44A2.52,2.52,0,0,1,21.5,25a2.79,2.79,0,0,1-2.87-2.83,2.75,2.75,0,0,1,2.81-2.84A2.5,2.5,0,0,1,24,21.2l-1.46.44a1,1,0,0,0-1.08-.79,1.21,1.21,0,0,0-1.21,1.33Z" fill="#1f120e"/>
      <path id="Trazado_21565" data-name="Trazado 21565" d="M30,22.17a2.84,2.84,0,1,1-2.84-2.83A2.77,2.77,0,0,1,30,22.17Zm-1.64,0a1.211,1.211,0,1,0-2.41,0,1.22,1.22,0,0,0,1.21,1.33,1.2,1.2,0,0,0,1.19-1.33Z" fill="#1f120e"/>
      <path id="Trazado_21566" data-name="Trazado 21566" d="M33.55,24.84H31.91L29.72,19.5h1.77l1.24,3.32,1.14-3.32h1.72Z" fill="#1f120e"/>
      <path id="Trazado_21567" data-name="Trazado 21567" d="M40.63,23.31A2.41,2.41,0,0,1,38.17,25a2.73,2.73,0,0,1-2.79-2.85,2.7,2.7,0,0,1,2.67-2.82,2.5,2.5,0,0,1,2.68,2.74,3.12,3.12,0,0,1,0,.51H37a1.16,1.16,0,0,0,1.22,1,1,1,0,0,0,1.07-.7Zm-1.48-1.78a1.086,1.086,0,0,0-2.14,0Z" fill="#1f120e"/>
      <path id="Trazado_21568" data-name="Trazado 21568" d="M44.73,21.12a1.86,1.86,0,0,0-.51-.06c-.66,0-1.25.39-1.25,1.45v2.33H41.34V19.5h1.58v.72a1.5,1.5,0,0,1,1.38-.77,1.63,1.63,0,0,1,.43.05Z" fill="#1f120e"/>
      <path id="Trazado_21569" data-name="Trazado 21569" d="M45.99,26.9l1.22-2.78L44.96,19.5h1.83l1.3,2.86,1.18-2.86H51l-3.29,7.4Z" fill="#1f120e"/>
      <path id="Trazado_21570" data-name="Trazado 21570" d="M9.45,21.06a2.27,2.27,0,0,0-2.27-2.28H4.91V17.27H7.18a3.79,3.79,0,1,1,0,7.57H4.91V23.33H7.18a2.27,2.27,0,0,0,2.27-2.27Z" fill="#1f120e"/>
      <path id="Trazado_21571" data-name="Trazado 21571" d="M4.89,20.09Z" fill="#1f120e"/>
      <path id="Trazado_21572" data-name="Trazado 21572" d="M6,19.72Z" fill="#1f120e"/>
      <path id="Trazado_21573" data-name="Trazado 21573" d="M6.15,19.54Z" fill="#1f120e"/>
      <path id="Trazado_21574" data-name="Trazado 21574" d="M5.27,22.2Z" fill="#1f120e"/>
      <path id="Trazado_21575" data-name="Trazado 21575" d="M5.83,22.69h0v0Z" fill="#1f120e"/>
      <path id="Trazado_21576" data-name="Trazado 21576" d="M5.75,19.78Z" fill="#1f120e"/>
      <path id="Trazado_21577" data-name="Trazado 21577" d="M7.6,20.94Z" fill="#1f120e"/>
      <path id="Trazado_21578" data-name="Trazado 21578" d="M5,21Z" fill="#1f120e"/>
      <path id="Trazado_21579" data-name="Trazado 21579" d="M4.95,20.36h0v.01h0Z" fill="#1f120e"/>
      <path id="Trazado_21580" data-name="Trazado 21580" d="M5.09,21Z" fill="#1f120e"/>
      <path id="Trazado_21581" data-name="Trazado 21581" d="M5.26,22.17v.01h0v-.01Z" fill="#1f120e"/>
      <path id="Trazado_21582" data-name="Trazado 21582" d="M5.14,21.55Z" fill="#1f120e"/>
      <path id="Trazado_21583" data-name="Trazado 21583" d="M5.23,22.1v.01h0Z" fill="#1f120e"/>
      <path id="Trazado_21584" data-name="Trazado 21584" d="M5.68,19.62v0Z" fill="#1f120e"/>
      <path id="Trazado_21585" data-name="Trazado 21585" d="M6.3,21Z" fill="#1f120e"/>
      <path id="Trazado_21586" data-name="Trazado 21586" d="M6,21.07Z" fill="#1f120e"/>
      <path id="Trazado_21587" data-name="Trazado 21587" d="M6.76,20.99v-.01H6.75Z" fill="#1f120e"/>
      <path id="Trazado_21588" data-name="Trazado 21588" d="M6.01,21.1l.01.01v-.02Z" fill="#1f120e"/>
      <path id="Trazado_21589" data-name="Trazado 21589" d="M6.75,21.16Z" fill="#1f120e"/>
      <path id="Trazado_21590" data-name="Trazado 21590" d="M7.63,20.34H7.62l.01.01Z" fill="#1f120e"/>
      <path id="Trazado_21591" data-name="Trazado 21591" d="M6.7,21.45h0v-.07Z" fill="#1f120e"/>
      <path id="Trazado_21592" data-name="Trazado 21592" d="M6.31,20Z" fill="#1f120e"/>
      <path id="Trazado_21593" data-name="Trazado 21593" d="M6.67,21.3Z" fill="#1f120e"/>
      <path id="Trazado_21594" data-name="Trazado 21594" d="M6.99,19.77h0l.01.01v-.01Z" fill="#1f120e"/>
      <path id="Trazado_21595" data-name="Trazado 21595" d="M6.52,19.9Z" fill="#1f120e"/>
      <path id="Trazado_21596" data-name="Trazado 21596" d="M6.48,19.77h.01v-.01Z" fill="#1f120e"/>
      <path id="Trazado_21597" data-name="Trazado 21597" d="M6.48,19.89h.01l-.01-.01Z" fill="#1f120e"/>
      <path id="Trazado_21598" data-name="Trazado 21598" d="M6.47,19.91Z" fill="#1f120e"/>
      <path id="Trazado_21599" data-name="Trazado 21599" d="M5.61,19.77Z" fill="#1f120e"/>
      <path id="Trazado_21600" data-name="Trazado 21600" d="M5.41,20.15Z" fill="#1f120e"/>
      <path id="Trazado_21601" data-name="Trazado 21601" d="M5.58,19.86Z" fill="#1f120e"/>
      <path id="Trazado_21602" data-name="Trazado 21602" d="M5.56,19.76Z" fill="#1f120e"/>
      <path id="Trazado_21603" data-name="Trazado 21603" d="M5.46,19.79Z" fill="#1f120e"/>
      <path id="Trazado_21604" data-name="Trazado 21604" d="M5.46,20.15Z" fill="#1f120e"/>
      <path id="Trazado_21605" data-name="Trazado 21605" d="M5.53,20.1v-.01h0Z" fill="#1f120e"/>
      <path id="Trazado_21606" data-name="Trazado 21606" d="M5.57,19.6v.01h0Z" fill="#1f120e"/>
      <path id="Trazado_21607" data-name="Trazado 21607" d="M5.61,19.58Z" fill="#1f120e"/>
      <path id="Trazado_21608" data-name="Trazado 21608" d="M5.4,19.89Z" fill="#1f120e"/>
      <path id="Trazado_21609" data-name="Trazado 21609" d="M5.54,19.62Z" fill="#1f120e"/>
      <path id="Trazado_21610" data-name="Trazado 21610" d="M5.42,21.9Z" fill="#1f120e"/>
      <path id="Trazado_21611" data-name="Trazado 21611" d="M5.58,20.1Z" fill="#1f120e"/>
      <path id="Trazado_21612" data-name="Trazado 21612" d="M5.21,20.27a.3.3,0,0,0,0,.08h0S5.22,20.26,5.21,20.27Z" fill="#1f120e"/>
      <path id="Trazado_21613" data-name="Trazado 21613" d="M5.28,20.32Z" fill="#1f120e"/>
      <path id="Trazado_21614" data-name="Trazado 21614" d="M5.15,19.93Z" fill="#1f120e"/>
      <path id="Trazado_21615" data-name="Trazado 21615" d="M5.27,20Z" fill="#1f120e"/>
      <path id="Trazado_21616" data-name="Trazado 21616" d="M5.25,20.19Z" fill="#1f120e"/>
      <path id="Trazado_21617" data-name="Trazado 21617" d="M5.19,20.07Z" fill="#1f120e"/>
      <path id="Trazado_21618" data-name="Trazado 21618" d="M5.21,20.24Z" fill="#1f120e"/>
      <path id="Trazado_21619" data-name="Trazado 21619" d="M5.35,19.86h0l-.01.01.01-.01Z" fill="#1f120e"/>
      <path id="Trazado_21620" data-name="Trazado 21620" d="M5.16,20.18Z" fill="#1f120e"/>
      <path id="Trazado_21621" data-name="Trazado 21621" d="M5.17,20Z" fill="#1f120e"/>
      <path id="Trazado_21622" data-name="Trazado 21622" d="M5.17,20.12Z" fill="#1f120e"/>
      <path id="Trazado_21623" data-name="Trazado 21623" d="M5.23,20.34Z" fill="#1f120e"/>
      <path id="Trazado_21624" data-name="Trazado 21624" d="M5.2,20.11h0v.05h0Z" fill="#1f120e"/>
      <path id="Trazado_21625" data-name="Trazado 21625" d="M5.18,20.21Z" fill="#1f120e"/>
      <path id="Trazado_21626" data-name="Trazado 21626" d="M5.15,20Z" fill="#1f120e"/>
      <path id="Trazado_21627" data-name="Trazado 21627" d="M7.17,20.34Z" fill="#1f120e"/>
      <path id="Trazado_21628" data-name="Trazado 21628" d="M7.16,20.26Z" fill="#1f120e"/>
      <path id="Trazado_21629" data-name="Trazado 21629" d="M7.18,19.75h0l.01.01v-.01Z" fill="#1f120e"/>
      <path id="Trazado_21630" data-name="Trazado 21630" d="M7.12,20.25Z" fill="#1f120e"/>
      <path id="Trazado_21631" data-name="Trazado 21631" d="M7,19.78Z" fill="#1f120e"/>
      <path id="Trazado_21632" data-name="Trazado 21632" d="M7.17,19.76Z" fill="#1f120e"/>
      <path id="Trazado_21633" data-name="Trazado 21633" d="M7.2,20.23h0l.01.01v-.01Z" fill="#1f120e"/>
      <path id="Trazado_21634" data-name="Trazado 21634" d="M7.38,20.11h0v.05h0V20.1Z" fill="#1f120e"/>
      <path id="Trazado_21635" data-name="Trazado 21635" d="M7.43,20.46v.01h0Z" fill="#1f120e"/>
      <path id="Trazado_21636" data-name="Trazado 21636" d="M6.28,19.24a1.81,1.81,0,1,0,1.283.534A1.82,1.82,0,0,0,6.28,19.24ZM7.93,21.24Zm-.12-.08Zm0,0h0s-.02-.04-.01-.05Zm0,.07Zm0,.07Zm0-.25h0L7.77,21ZM7.81,21.25Zm0,.11Zm0-.18h0s-.03-.06-.04-.05Zm0,.15h0s-.05-.06-.05-.05Zm-.06,0Zm0,0Zm0-.08h0v-.06h0Zm0,.08ZM7.63,21.23ZM7.63,21.23Zm0,0h0a.2.2,0,0,1,0-.06v-.05s-.06.02-.06,0Zm.06.16h0s-.07-.12-.06-.11Zm0-.08Zm0,0ZM7.69,21.37Zm0-1h0a.16.16,0,0,0,0-.06h0v.05h0Zm0,.45h0a.43.43,0,0,1-.01-.07Zm0,.22ZM7.69,21.04Zm0,.07Zm0,0ZM7.69,21.43Zm0-.36Zm0,0Zm0,0Zm0-.41h0v-.07h0a.08.08,0,0,0,.04-.08Zm0-.12h0a.772.772,0,0,0,.02-.15ZM7.69,20.42ZM7.46,20ZM7.4,20h0l.01-.19Zm.06.06Zm-.21-.09Zm-.13-.1Zm-.08,0Zm-.25-.07h0a1.77,1.77,0,0,1,.01-.23Zm0,0ZM6.79,19.8Zm0,.15h0a.07.07,0,0,1,.06,0h0a2.531,2.531,0,0,1-.12-.23Zm0,.05Zm-.06-.21Zm-.34,0H6.4s-.1-.28-.07-.28Zm0,0h.09s-.21-.27-.2-.26Zm-.39.3ZM6,19.98Zm0,.16Zm.09-.27Zm-.25-.39Zm-.43.15H5.5a.39.39,0,0,1,.15,0H5.6a.653.653,0,0,1-.14,0Zm0,0Zm0,0ZM5.41,19.63Zm0,0h0s.01.03.02.03Zm0,0h0a.433.433,0,0,0,.01.05Zm0,0Zm0,0Zm0,0Zm0,0h0s-.05.07-.04.08Zm0,0Zm0,0Zm0-.07Zm0,0ZM5.41,19.56Zm0,0Zm0,0h0s-.17.2-.17.19Zm0,0Zm-.07.07ZM4.79,20.63Zm.24.44Zm.43,1h0V22h0a.21.21,0,0,0,0-.08h0a.69.69,0,0,0,0-.13.1.1,0,0,0-.05-.08s0,0,0-.06h0v-.07h0a.06.06,0,0,1,0-.07h0v-.06H5v-.1H5v-.07H5a.17.17,0,0,0,0-.08v-.06a.11.11,0,0,1,0-.05H5v.1H5V20.6a.11.11,0,0,1,0-.05V20.5H5l.05-.1v-.05H5V20.3h.43a.12.12,0,0,1,0,.05h0v.09H5.5v.05H5.18a.31.31,0,0,1,0,.07H5a.08.08,0,0,0,0,.06s0,.05,0,0H5a.13.13,0,0,1,0,.05S5,21,5,21H5a.22.22,0,0,1,0,.08v.13H4.93v.1h.36ZM5.05,20h0a1.923,1.923,0,0,0-.17.13Zm0,0Zm.62-.33ZM5.67,19.67Zm0,0Zm0,.11Zm0,0h0s-.22.14-.23.14Zm0,0Zm0,0Zm0,.12Zm-.05.06Zm.25.12Zm0,0h0s-.26.11-.27.12Zm-.1,0Zm0,.07h0s-.29.11-.3.11ZM5.23,21Zm0-.17Zm-.13-.06H5.06Zm0,0Zm0-.13Zm0,.13ZM5.56,22.39Zm0,.07h0s0,.07-.01.06Zm0,0Zm0,0Zm0,0h0s-.01.02,0,.01ZM5.5,22.51Zm-.07-.31h0s.01.01,0,.01ZM5.43,22.2ZM5.43,22.48ZM5.33,22Zm0,.42Zm.28.17h0s.02.03.01.04Zm0-.06H5.48l-.21-.11h.17ZM5.61,22.42Zm0,.2Zm.05-2.77h0V19.8h.2s-.13.12-.13.09Zm.11,2.82h.01s.07.03.06.04ZM5.77,22.22Zm.43.5a1.56,1.56,0,0,1-.31,0H6.1a.09.09,0,0,1,.07,0H6.4a.06.06,0,0,0,.06,0h.65a1.73,1.73,0,0,1-.83.04ZM6,22.67Zm.16,0Zm.65-1a.06.06,0,0,1,0-.06h0a.08.08,0,0,1,0,.05h0a.39.39,0,0,1,0,.13h0a.1.1,0,0,0,.03-.19ZM6.97,22.24Zm0-.54H7ZM7,21ZM7.16,22.36Zm.23-1.24h0v-.06h0a.13.13,0,0,1,.02.02Zm.11-.22h0v.06h0a.17.17,0,0,1,0,.1h0a.08.08,0,0,1,0-.05h0V20.9h0a.21.21,0,0,1-.11,0H7a.09.09,0,0,1-.08-.05h0v.06H6.86a.45.45,0,0,1,0-.08h0a.07.07,0,0,0,0-.06h0a.08.08,0,0,1,0,.05h0a.31.31,0,0,1,.06.06h.06L7,21H7a.11.11,0,0,1,0,.05.13.13,0,0,1-.06.1h0v.05h0v.12h0a.17.17,0,0,1-.12.06h-.4V21.3a.08.08,0,0,1,0-.06s0,0,0-.05a.41.41,0,0,1-.05-.09.26.26,0,0,1,0-.08h0a.24.24,0,0,0-.06-.11s0-.06,0-.07v-.07H5.85s-.06-.05-.06-.08h0v-.17h0l.06-.07a.07.07,0,0,0,0-.05.13.13,0,0,1,0-.07h0a.15.15,0,0,1,.11,0h.32v-.08h.33v-.11h0a.09.09,0,0,0,0,.05H6a.07.07,0,0,0,0-.05h.1v-.05h0v-.05h.14a.05.05,0,0,0,0,.05h1.1l.11.16h0V20.2h0a.13.13,0,0,1,0,.07v.05h0v.07h0a.11.11,0,0,1,0,.05h0v.05h0v.14h0v.1h0v-.07h0v-.11h0ZM6.11,20.41Zm.1,0h0s.01-.07.02-.07Zm0,0h0s.01-.1.02-.1Zm.06.1h0s.01-.1.02-.1Zm.21.06Zm.12,0ZM6.27,20Zm0,0Zm.09,0Zm.06,0Zm1.25.17Zm-.09,0ZM7.67,21.7Zm0,.08h0s.05-.02.03,0Zm.09,0Zm0-.07h0s.07-.04.06-.04Zm0-.33h0v.09h0v.15a.3.3,0,0,0,0,.08h0v.05h0a.2.2,0,0,1,0-.06h0v-.06h0s.07-.29.08-.29Zm0,0Zm0-.11Zm.06,0Zm0,.18Zm0-.23Zm0,0Zm0,0ZM7.82,21.22Zm0,0ZM7.82,21.33Zm0,0h0Z" fill="#1f120e"/>
      <path id="Trazado_21637" data-name="Trazado 21637" d="M7.34,20.19Z" fill="#1f120e"/>
      <path id="Trazado_21638" data-name="Trazado 21638" d="M7.38,19.85H7.37v-.01h0Z" fill="#1f120e"/>
      <path id="Trazado_21639" data-name="Trazado 21639" d="M7.27,20.19h0l.01.01h0Z" fill="#1f120e"/>
      <path id="Trazado_21640" data-name="Trazado 21640" d="M6.66,21.2Z" fill="#1f120e"/>
      <path id="Trazado_21641" data-name="Trazado 21641" d="M6.77,20.4Z" fill="#1f120e"/>
      <path id="Trazado_21642" data-name="Trazado 21642" d="M6.85,19.98H6.84l.01.01Z" fill="#1f120e"/>
      <path id="Trazado_21643" data-name="Trazado 21643" d="M6.62,20.39l.01.01v-.01Z" fill="#1f120e"/>
      <path id="Trazado_21644" data-name="Trazado 21644" d="M6.91,20.39h0v.05h0v.05a.07.07,0,0,0,.07,0h0Z" fill="#1f120e"/>
      <path id="Trazado_21645" data-name="Trazado 21645" d="M6.8,20.41Z" fill="#1f120e"/>
      <path id="Trazado_21646" data-name="Trazado 21646" d="M6.54,20.34Z" fill="#1f120e"/>
      <path id="Trazado_21647" data-name="Trazado 21647" d="M6.78,20.06Z" fill="#1f120e"/>
      <path id="Trazado_21648" data-name="Trazado 21648" d="M6.61,21.35Z" fill="#1f120e"/>
      <path id="Trazado_21649" data-name="Trazado 21649" d="M6.55,19.94Z" fill="#1f120e"/>
      <path id="Trazado_21650" data-name="Trazado 21650" d="M7,20.27Z" fill="#1f120e"/>
      <path id="Trazado_21651" data-name="Trazado 21651" d="M6.6,19.93Z" fill="#1f120e"/>
      <path id="Trazado_21652" data-name="Trazado 21652" d="M6.64,20Z" fill="#1f120e"/>
      <path id="Trazado_21653" data-name="Trazado 21653" d="M6.68,20.27h0v.06H6.8a.08.08,0,0,0,.08,0A1.078,1.078,0,0,1,6.68,20.27Z" fill="#1f120e"/>
      <path id="Trazado_21654" data-name="Trazado 21654" d="M11.76,24.84V19.5h1.63v5.34Z" fill="#1f120e"/>
      <path id="Trazado_21655" data-name="Trazado 21655" d="M12.57,17.26a.77.77,0,1,1-.77.77.77.77,0,0,1,.77-.77Z" fill="#1f120e"/>
    </g>
  </g>
</svg>
