<svg xmlns="http://www.w3.org/2000/svg" width="60" height="60" viewBox="0 0 60 60">
  <g id="Grupo_14925" data-name="Grupo 14925" transform="translate(1472 -373)">
    <rect id="Rectángulo_8427" data-name="Rectángulo 8427" width="60" height="60" transform="translate(-1472 373)" fill="#fff"/>
    <g id="logo__54x40_network_disney_channel" data-name="logo _54x40_network_disney channel" transform="translate(-1469.421 383.183)">
      <path id="Trazado_20279" data-name="Trazado 20279" d="M25.36,15.64c-.7.12-1.14.53-1,.85a4.33,4.33,0,0,1,1-.85Z" fill="#009ade"/>
      <path id="Trazado_20280" data-name="Trazado 20280" d="M13.3,20.17c0,.3,1.12,1.22,2.75,1.8V19.45C14.74,19.52,13.3,19.7,13.3,20.17Z" fill="#009ade"/>
      <path id="Trazado_20281" data-name="Trazado 20281" d="M24.84,16.91a1.55,1.55,0,0,0,.47.07c.44,0,1.47-.41,1.47-.91a.29.29,0,0,0-.32-.3C26,15.77,25.19,16.52,24.84,16.91Z" fill="#009ade"/>
      <path id="Trazado_20282" data-name="Trazado 20282" d="M43.48,19.44a2.6,2.6,0,0,0-1.87-1.88,2.7,2.7,0,0,0-1.73.13,3.28,3.28,0,0,0-.82.5,2,2,0,0,0-1.3-.51,13,13,0,0,0-3.08.54c-.29-.51-.74-1.08-1.29-1.12a.76.76,0,0,0-.67.29,1.51,1.51,0,0,0-.13,1.13c-.78-.79-2.54-.84-3.66-.85a8.23,8.23,0,0,0-2.85.49,5.1,5.1,0,0,0,1.45-1.22,1.4,1.4,0,0,0,1.38-2.07,1.53,1.53,0,0,0-1-.79,1.46,1.46,0,0,0-1.31.25h0a1.35,1.35,0,0,0-.86-1.09,1.51,1.51,0,0,0-1.49.2,1.38,1.38,0,0,0-.47.69,1.29,1.29,0,0,0,.12,1h0a2,2,0,0,0-.76,1.51,13.09,13.09,0,0,0-3.24-2.33,13.11,13.11,0,0,0-5.37-1.49,12.44,12.44,0,0,0-2.7.24c-1.38.42-1.51,1.42-1.36,1.85s.73.68,1.46.55a.78.78,0,0,0,.62-.62,10.74,10.74,0,0,1,3.46.34,11,11,0,0,0-.54,2.74,8.51,8.51,0,0,0-1.85.6,2.25,2.25,0,0,0-1.22,1.13,1.67,1.67,0,0,0,.49,1.57,8.15,8.15,0,0,0,2.56,1.93,1.34,1.34,0,0,0,.85,1.17,1.2,1.2,0,0,0,1.37-.44,9.84,9.84,0,0,0,1.66.16v.65a1.48,1.48,0,0,0,1.48,1.48H37.43a1.85,1.85,0,0,0,1.12,1c.87.18,1-.63,1-.89a6.5,6.5,0,0,1,.17-.79l.64-2.14A4,4,0,0,0,42,22.68a4.1,4.1,0,0,0,1.11-1.2A2.77,2.77,0,0,0,43.48,19.44Zm-11.81-.79c.55,0,1.87,2.45,2,2.41s.11-.26.11-.38c0-.61-.64-2.2-.64-2.66,0-.15,0-.3.16-.3.54,0,1.47,1.71,1.48,3.12,0,.61-.38,1.55-1,1.55s-1.66-2.2-1.86-2.2.08,2.41-.58,2.41c-.44,0-.54-.4-.54-1s.31-2.99.87-2.95ZM28.9,18.3c.63,0,1.75,0,1.75.43,0,.73-3.59.33-3.59.87,0,.16.77.19,1.5.25,1,.09,2.07.22,2.08,1.39,0,.48-.42,1.41-2.06,1.42s-2.26-.85-2.26-1.22c0-.69.66-.89,1.13-.89s1.88.17,1.88.53c0,.19-.36.38-.79.38s-1.06-.38-1.37-.38a.4.4,0,0,0-.44.32c0,.12,0,.36.83.36.4,0,2.32-.22,2.31-.75,0-.24-.88-.47-1.6-.54-.89-.09-2.23.13-2.23-.78C26,18.36,28.43,18.3,28.9,18.3Zm-4.06-3.09a.86.86,0,0,1-.49-.48.72.72,0,0,1,.11-.72,1,1,0,0,1,1.27-.2.8.8,0,0,1,.37.62.77.77,0,0,1-.21.56,1.25,1.25,0,0,1,.79.36h0a.68.68,0,0,1,.09-.35.89.89,0,0,1,.65-.43,1,1,0,0,1,.84.34.9.9,0,0,1,.25.58.86.86,0,0,1-.27.69,1,1,0,0,1-1.05.09,2.56,2.56,0,0,1-2,1.3c-1.15,0-1.44-.68-1.44-1.07a1.77,1.77,0,0,1,1.09-1.29Zm-7.62,3.12c3.05,0,4,.84,4,1.56a1.07,1.07,0,0,1-.67.88c-.31,0-.66,0-.66-.14s.38-.36.38-.58-1.44-.64-2.53-.64h-.47c0,.86.06,2.24.08,2.89a7.46,7.46,0,0,0,1.52.15c1.47,0,4.15-.47,4.14-2.52,0-2.65-5.19-5.77-9.7-5.75-.52,0-1.57,0-1.57.24s.27.13.27.3-.18.14-.39.14-.54,0-.53-.31a1.12,1.12,0,0,1,.66-.83h0a8,8,0,0,1,2.33-.31c4.76-.13,10.23,3.77,10.24,6.48,0,2-2.21,3.5-5,3.51a8,8,0,0,1-2-.25.542.542,0,0,1-.56.59c-.55,0-.66-.41-.7-1C14.16,21.9,13,20.54,13,20s1.47-1.33,3.11-1.57c0-.78.14-2.18.53-2.19s.56,1.28.58,2.09ZM21,25.61a.87.87,0,0,1-.81-.47c-.09-.27,0-.54.38-.83a2.7,2.7,0,0,1,1.52-.78.48.48,0,0,1,.55.34.21.21,0,0,1-.17.26.22.22,0,0,1-.26-.14h-.08a2.29,2.29,0,0,0-1.28.67c-.22.19-.25.31-.24.35a.567.567,0,0,0,.36.17A11,11,0,0,0,22.79,25a.221.221,0,1,1,.14.42A10.68,10.68,0,0,1,21,25.61Zm4-1,.05.94a.22.22,0,0,1-.22.23h0a.23.23,0,0,1-.22-.21v-.84l-.65.19v.54a.22.22,0,0,1-.44,0v-.41h-.13a.21.21,0,0,1-.21-.16.22.22,0,0,1,.14-.28h.2v-.82a.22.22,0,1,1,.44,0v.68l.62-.18v-.7a.23.23,0,0,1,.45,0v.6h0a.21.21,0,0,1,.25.18c-.01.12-.09.21-.28.25Zm-.29-3.77c0-.68,0-2.56.49-2.56s.54.48.59,3c0,1.31-.09,1.36-.47,1.36s-.66-.22-.62-1.79Zm1,5a.22.22,0,0,1-.19-.27.482.482,0,0,1,.08-.33.23.23,0,0,1-.19-.14.22.22,0,0,1,.12-.29l.2-.07c.36-1.38.49-1.38.64-1.39s.23,0,.74.93a.21.21,0,0,1,.2.16.2.2,0,0,1,0,.17c.12.22.25.49.41.8a.23.23,0,0,1-.1.3.22.22,0,0,1-.3-.1c-.13-.27-.28-.55-.42-.82l-.78.28-.15.6a.22.22,0,0,1-.27.17Zm2.46.07a.23.23,0,0,1-.24-.15,4.48,4.48,0,0,1,0-1c0-1,0-1.05.18-1.11s.28.06.45.28.24.31.38.5.3.4.44.57c0-.36.05-1.46.07-1.56a.22.22,0,0,1,.24-.2.24.24,0,0,1,.2.25c0,.08-.06.95-.07,1.33s0,.69-.18.8a.31.31,0,0,1-.28,0c-.11-.06-.24-.21-.77-.93l-.22-.29v1.21a.23.23,0,0,1-.21.3Zm3.9-.27c-.22.09-.44-.1-.81-.45h0l-.4-.42-.19-.2a5.053,5.053,0,0,0,.07,1,.23.23,0,0,1-.21.24h0a.23.23,0,0,1-.22-.21,6.658,6.658,0,0,0-.05-.76c0-.79-.05-.94.15-1s.23,0,.79.62c.15.15.3.31.39.39h0l.19.17c0-.39-.1-1-.14-1.37a.221.221,0,1,1,.44-.05c0,.06.16,1.46.17,1.72a.3.3,0,0,1-.19.32Zm2.31-.16a3.56,3.56,0,0,1-1.18.14.59.59,0,0,1-.48-.1,2.15,2.15,0,0,1-.15-.69.13.13,0,0,1,0-.06h0a5.96,5.96,0,0,0-.07-.82.29.29,0,0,1,.08-.21c.11-.11.27-.11.54-.1s.9,0,1,0a.217.217,0,0,1,.11.42c-.08,0-.92.06-1.1.06h-.16v.35a7.455,7.455,0,0,0,1-.08.21.21,0,0,1,.22.2.23.23,0,0,1-.19.22,7.91,7.91,0,0,1-1,.09.805.805,0,0,0,.05.35,4.71,4.71,0,0,0,1.09-.13c.12,0,.23,0,.29.08a.26.26,0,0,1-.06.28Zm.66-2a.22.22,0,0,1,.22.22v1.61h0a7,7,0,0,1,1.6-.08.24.24,0,0,1,.2.25.22.22,0,0,1-.24.2,5.54,5.54,0,0,0-1.48.07c-.28.05-.55-.07-.55-.41V23.72a.21.21,0,0,1,.21-.25Zm.93-.55c-.75,0-1-.79-1-1.16a6.41,6.41,0,0,1,.3-1.09c0-.09-.1-.21-.1-.28,0-.33.51-.37.55-.49a2,2,0,0,0,.13-.55c0-.09-.69-.23-.69-.57s1.43-.35,2.53-.47c.65-.07,1.17.53,1.12.68a.44.44,0,0,1-.33.28,15.74,15.74,0,0,0-1.69.15c-.1,0-.17.46-.12.54a6,6,0,0,0,1.1.1.34.34,0,0,1-.08.67,11.739,11.739,0,0,0-1.33.05c-.16.05-.32.79-.23.87a14,14,0,0,0,1.59-.21c.23,0,.55.25.53.47a3.35,3.35,0,0,1-2.25,1Zm4-.15c-.13.55-.51,1.86-.75,2.58-.17.5-.2,1.23-.33,1.26-.34.07-.91-.48-.92-1a15,15,0,0,1,.83-3.67,2.17,2.17,0,0,1-.22-.92A4.45,4.45,0,0,1,40,18.22c.18-.14.34.26.2.56a8.47,8.47,0,0,0-.87,1.85.68.68,0,0,0,.07.27c.73-.92,2-2.29,2.61-2.33.23,0,1,.29,1,1.53a3.09,3.09,0,0,1-3.09,2.67Z" fill="#009ade"/>
      <path id="Trazado_20283" data-name="Trazado 20283" d="M26.23,24.54l.42-.14c-.09-.17-.17-.32-.24-.43Z" fill="#009ade"/>
      <path id="Trazado_20284" data-name="Trazado 20284" d="M42.05,19.46c-.29,0-1.08,1.24-1.62,2.18A2,2,0,0,0,42.33,20C42.33,19.66,42.25,19.46,42.05,19.46Z" fill="#009ade"/>
    </g>
  </g>
</svg>
