<svg xmlns="http://www.w3.org/2000/svg" width="60" height="60" viewBox="0 0 60 60">
  <g id="Grupo_15060" data-name="Grupo 15060" transform="translate(1274 -539)">
    <rect id="Rectángulo_8427" data-name="Rectángulo 8427" width="60" height="60" transform="translate(-1274 539)" fill="#fff"/>
    <g id="logo__54x40_network_espn" data-name="logo _54x40_network_espn" transform="translate(-1271.17 548.934)">
      <path id="Trazado_20448" data-name="Trazado 20448" d="M12.13,16.08h6.74l-.27,2.21H11.86Z" fill="#ee4034"/>
      <path id="Trazado_20449" data-name="Trazado 20449" d="M42.77,18.29H35.16l.27-2.21h5.71a1.51,1.51,0,0,1,1.67,1.86Z" fill="#ee4034"/>
      <path id="Trazado_20450" data-name="Trazado 20450" d="M35.05,19.14h2.59l-.58,4.78H34.48Z" fill="#ee4034"/>
      <path id="Trazado_20451" data-name="Trazado 20451" d="M40.08,19.14h2.59l-.58,4.78H39.5Z" fill="#ee4034"/>
      <path id="Trazado_20452" data-name="Trazado 20452" d="M11.76,19.14H18.5l-.22,1.79H14.12l-.12.92h4.17l-.25,2.07H11.17Z" fill="#ee4034"/>
      <path id="Trazado_20453" data-name="Trazado 20453" d="M27.22,19.14l-.58,4.78h2.58l.37-3h3a1.83,1.83,0,0,0,1.9-1.79Z" fill="#ee4034"/>
      <path id="Trazado_20454" data-name="Trazado 20454" d="M33.09,16.08H21.22a2.08,2.08,0,0,0-2,1.79l-.05.43H34.6l.06-.43a1.55,1.55,0,0,0-1.57-1.79Z" fill="#ee4034"/>
      <path id="Trazado_20455" data-name="Trazado 20455" d="M24.23,23.92H18.48l.25-2.07H23.8l.11-.92h-3.4A1.55,1.55,0,0,1,19,19.43v-.29h5.79a1.48,1.48,0,0,1,1.61,1.72l-.16,1.32a1.92,1.92,0,0,1-2.01,1.74Z" fill="#ee4034"/>
    </g>
  </g>
</svg>
