<svg xmlns="http://www.w3.org/2000/svg" width="60" height="60" viewBox="0 0 60 60">
  <g id="Grupo_15061" data-name="Grupo 15061" transform="translate(1208 -539)">
    <rect id="Rectángulo_8427" data-name="Rectángulo 8427" width="60" height="60" transform="translate(-1208 539)" fill="#fff"/>
    <g id="logo__54x40_network_espn2" data-name="logo _54x40_network_espn2" transform="translate(-1204.8 548.589)">
      <path id="Trazado_20456" data-name="Trazado 20456" d="M38.84,16.42h5.29s1.15-.06,1.07.88L44.93,20a.93.93,0,0,1-.89.82H40.89l-.09.87h4l-.2,1.88H38l.41-3.4s0-1,.93-1h3.13l.07-.86H38.61Z" fill="#ee4034"/>
      <path id="Trazado_20457" data-name="Trazado 20457" d="M9.69,16.43h6.13l-.22,2.01H9.44Z" fill="#ee4034"/>
      <path id="Trazado_20458" data-name="Trazado 20458" d="M18,16.46H29a1.29,1.29,0,0,1,1.26,1.28,3.84,3.84,0,0,1-.06.71H16.09s.05-.34.1-.65A1.85,1.85,0,0,1,18,16.46Z" fill="#ee4034"/>
      <path id="Trazado_20459" data-name="Trazado 20459" d="M30.91,16.42h5.21a1.4,1.4,0,0,1,1.52,1.71v.32H30.67Z" fill="#ee4034"/>
      <path id="Trazado_20460" data-name="Trazado 20460" d="M15.56,23.58l.23-1.89h4.53l.09-.84H17.1c-.65,0-1.28-.49-1.1-1.63h5.27a1.37,1.37,0,0,1,1.46,1.6,5.61,5.61,0,0,1-.37,1.88,1.66,1.66,0,0,1-1.65.9C20.57,23.59,15.56,23.58,15.56,23.58Z" fill="#ee4034"/>
      <path id="Trazado_20461" data-name="Trazado 20461" d="M30.05,19.24s-.06.37-.11.62a1.09,1.09,0,0,1-1.13,1H25.59l-.38,2.74H22.88l.55-4.34Z" fill="#ee4034"/>
      <path id="Trazado_20462" data-name="Trazado 20462" d="M30.56,19.24h2.4l-.62,4.33H29.97Z" fill="#ee4034"/>
      <path id="Trazado_20463" data-name="Trazado 20463" d="M35.16,19.24h2.33l-.55,4.34H34.61Z" fill="#ee4034"/>
      <path id="Trazado_20464" data-name="Trazado 20464" d="M9.33,19.21H15.5l-.22,1.66-3.82.01-.1.81h3.82l-.23,1.9H8.8Z" fill="#ee4034"/>
    </g>
  </g>
</svg>
