<svg xmlns="http://www.w3.org/2000/svg" width="60" height="60" viewBox="0 0 60 60">
  <g id="Grupo_15190" data-name="Grupo 15190" transform="translate(1340 -826)">
    <rect id="Rectángulo_8427" data-name="Rectángulo 8427" width="60" height="60" transform="translate(-1340 826)" fill="#fff"/>
    <g id="logo__54x40_network_hola_tv" data-name="logo _54x40_network_hola tv" transform="translate(-1337.56 834.96)">
      <g id="Shape_6" data-name="Shape 6">
        <rect id="Rectángulo_8722" data-name="Rectángulo 8722" width="26.82" height="9.9" transform="translate(7.56 16.04)" fill="#d73427"/>
      </g>
      <g id="Shape_6_copy" data-name="Shape 6 copy">
        <rect id="Rectángulo_8723" data-name="Rectángulo 8723" width="12.62" height="9.9" transform="translate(34.38 16.04)" fill="#ece9e7"/>
      </g>
      <g id="Shape_1" data-name="Shape 1">
        <path id="Trazado_20602" data-name="Trazado 20602" d="M9.1,24.76h1.76V19.48H9.1ZM10,17.1a1.08,1.08,0,1,0,1.08,1.08A1.08,1.08,0,0,0,10,17.1Zm22.76.31H31v5.28h1.76Zm-.92,5.5a1.1,1.1,0,1,0,.02,0Zm-5.51-5.48-1.28,7.29H26.9l.2-1.14h1.17l.16,1.14H30.3l-1-7.29Zm1,4.59.39-2.18.3,2.18Zm-3.87-4.59h-1.8v7.29h3V22.8H23.52ZM14.13,20h-.72V17.43H11.54v7.29h1.87V22h.72v2.77H16V17.43H14.13Z" fill="#fff" fill-rule="evenodd"/>
      </g>
      <path id="Trazado_20603" data-name="Trazado 20603" d="M18.84,17.25a2.09,2.09,0,0,0-2.22,2v3.51a2.09,2.09,0,0,0,2.22,2,2.09,2.09,0,0,0,2.22-2V19.28a2.09,2.09,0,0,0-2.22-2.03Zm.3,5.52a.34.34,0,1,1-.65,0v-3.4a.34.34,0,1,1,.65,0Z" fill="#fff" fill-rule="evenodd"/>
      <g id="Shape_5" data-name="Shape 5">
        <path id="Trazado_20604" data-name="Trazado 20604" d="M43.9,17.52l-.78,3.58-.86-3.58H40.32l2,7h1.57l2-7ZM36,19h1.1v5.52h1.81V19H40V17.52H36Z" fill="#676768" fill-rule="evenodd"/>
      </g>
    </g>
  </g>
</svg>
