<svg xmlns="http://www.w3.org/2000/svg" width="60" height="60" viewBox="0 0 60 60">
  <g id="Grupo_15185" data-name="Grupo 15185" transform="translate(1472 -826)">
    <rect id="Rectángulo_8427" data-name="Rectángulo 8427" width="60" height="60" transform="translate(-1472 826)" fill="#fff"/>
    <g id="logo__54x40_network_home_and_health" data-name="logo _54x40_network_home and health" transform="translate(-1469.39 835.75)">
      <path id="Trazado_20599" data-name="Trazado 20599" d="M41.19,22c-.53,0-.56-.46-.56-.68v-3c0-1.83-.67-3.57-3.07-3.58A3.33,3.33,0,0,0,34.78,16V11.27H32.67V21.89a2.55,2.55,0,0,1-2.15-.6,6.05,6.05,0,0,0,1.21-3.52H29.88a3.54,3.54,0,0,1-.6,2.15c-.79-1-.92-1.16-1.71-2.23,1.49-.7,2.18-1.6,2.1-2.79a2.54,2.54,0,0,0-2.79-2.37,2.71,2.71,0,0,0-2.56,2.88,3.75,3.75,0,0,0,.56,1.72,3.86,3.86,0,0,0-1.73,1.41,3.39,3.39,0,0,0-.56,2.09,3.86,3.86,0,0,0,.17.86v-.06a1,1,0,0,1-.79.59c-.53,0-.56-.45-.56-.67v-3c0-1.83-.67-3.57-3.09-3.59A3.31,3.31,0,0,0,15.51,16V11.25H13.39V23.66h2.19V19.11a3.18,3.18,0,0,1,.53-2,1.78,1.78,0,0,1,1.49-.65h0a1.32,1.32,0,0,1,1.24.66,3.71,3.71,0,0,1,.32,1.77v3a2,2,0,0,0,2.2,2,2.86,2.86,0,0,0,2.19-1.07h0a3.9,3.9,0,0,0,3.07,1.05,3.72,3.72,0,0,0,2.57-1.09,3.84,3.84,0,0,0,2.49.89h3.17V19.13a3.31,3.31,0,0,1,.52-2,1.8,1.8,0,0,1,1.49-.63h0a1.31,1.31,0,0,1,1.24.66,3.78,3.78,0,0,1,.31,1.76v3a1.94,1.94,0,0,0,2.19,2,3.18,3.18,0,0,0,1.37-.3V21.79a1.49,1.49,0,0,1-.81.24M27,14.15a.85.85,0,0,1,.9.81c0,.7-.47,1-1.27,1.41a3.28,3.28,0,0,1-.45-1.24.87.87,0,0,1,.82-.98Zm-.42,7.93a1.83,1.83,0,0,1-2-1.64c0-.65.31-1.2,1.32-1.81.95,1.29,1.18,1.59,2.21,2.84A2.68,2.68,0,0,1,26.58,22.08Z" fill="#f4901f"/>
      <path id="Trazado_20600" data-name="Trazado 20600" d="M21.92,27.67a1.44,1.44,0,0,1-1.52,1.44h-.85l.42-.47h.43a1,1,0,1,0,0-1.93h-.56v.42l-.28-.27-.21-.12v-.48h1a1.42,1.42,0,0,1,1.52,1.41m.28,1.45h.49V27H22.2Zm2.32-1.06-.21-.12-.24-.09-.17-.07-.16-.06-.11-.07v-.1h0l.08-.15.23-.07.28.06.31.14.2-.35L24.31,27l-.41-.07-.3.05-.24.13-.16.21-.06.27h0l.06.26.15.17.22.12.24.08.18.05.15.07.11.07v.11h0l-.08.17-.25.06-.34-.06-.36-.2-.22.33.44.24.48.08h.3l.26-.13.16-.21.07-.3h0l-.07-.24Zm4.75-.45.09.42h0l-.09.44-.24.35-.36.25-.46.09-.45-.09-.37-.24-.24-.35-.09-.43h0l.09-.43.25-.35.36-.24.45-.09.47.08.35.24Zm-.4.43-.05-.26-.14-.21-.21-.15-.26-.06-.27.06-.2.15-.14.2v.26h0v.27l.15.23.2.15h.54l.2-.15.13-.22.05-.26Zm1.61.51L29.9,27h-.52l.88,2.17h.44L31.59,27h-.52Zm3.16-.91.07.44v.14H32.12l.21.41.41.13.31-.06.27-.19.29.25-.37.3-.51.11-.43-.08-.3-.24-.24-.34-.08-.46h0l.08-.43.22-.36.33-.24.42-.08.45.09.32.25Zm-.42.19v-.16l-.12-.17-.16-.13h-.22l-.37.15-.18.35Zm-7.12.91a.66.66,0,0,1-.65-.7.64.64,0,0,1,.62-.68.72.72,0,0,1,.56.27l.3-.33a1.07,1.07,0,0,0-.86-.37A1.12,1.12,0,1,0,27,28.76l-.31-.29a.75.75,0,0,1-.59.27Zm8.47-1.42V27h-.49v2.15h.49v-1.2a1,1,0,0,1,.77-.53L35.23,27a1.17,1.17,0,0,0-.66.32ZM37.14,27l-.55,1.57L36.08,27h-.53l.8,2.14h0l-.31.54h-.47v.4l.72-.06a.76.76,0,0,0,.31-.38c.12-.25,1.06-2.69,1.06-2.69Z" fill="#f4901f"/>
      <path id="Trazado_20601" data-name="Trazado 20601" d="M19.93,28a1.14,1.14,0,1,0-1.14,1.13A1.14,1.14,0,0,0,19.93,28" fill="#f4901f"/>
    </g>
  </g>
</svg>
