<svg xmlns="http://www.w3.org/2000/svg" width="60" height="60" viewBox="0 0 60 60">
  <g id="Grupo_16056" data-name="Grupo 16056" transform="translate(1142 -1136)">
    <rect id="Rectángulo_8427" data-name="Rectángulo 8427" width="60" height="60" transform="translate(-1142 1136)" fill="#fff"/>
    <path id="logo__54x40_network_justicia_tv" data-name="logo _54x40_network_justicia tv" d="M6.14,21.82H8a1.72,1.72,0,0,0,1.64-1.38,3.06,3.06,0,0,0,.11-.8v-4.1l.31-.31v4.5A2.19,2.19,0,0,1,8,22.13H5.83Zm5.14-5.21v3.54a1.77,1.77,0,0,0,1.84,1.78A1.78,1.78,0,0,0,15,20.15V16.92l.3-.31v3.54a2.07,2.07,0,0,1-2.15,2.09A2.08,2.08,0,0,1,11,20.15V16.92Zm4.93,3.06V18.21c0-.89.83-1.6,2.24-1.6h1.9l-.31.31H18.45c-1.23,0-1.93.57-1.93,1.29V19.3h3.84v1.24c0,.88-.91,1.59-2.32,1.59H16.21l.31-.31H18c1.23,0,2-.56,2-1.28v-.87Zm5.08-3.06V15.54l.3-.31v1.38h1.94l-.31.31H21.59V20.2a1.48,1.48,0,0,0,1.58,1.63h.36l-.31.31h0a1.76,1.76,0,0,1-1.88-1.94V16.61Zm3.48,0v5.21l-.31.31V16.92Zm-.31-.08.31-.31V15.8l-.31.31Zm5,5.68c-2.32,0-3.49-1.42-3.49-2.84s1.17-2.84,3.49-2.84h.3l-.3.31c-2.12,0-3.18,1.28-3.18,2.53s1.06,2.53,3.18,2.53h.31Zm1.24-5.29v5.21l.31-.31V16.61Zm0-.39.31-.31V15.8l-.31.31Zm5.7,5.55V16.91h-1c-2.13,0-3.19,1.24-3.19,2.47s1.06,2.45,3.19,2.45h.32l.31.3H35.4c-2.33,0-3.5-1.37-3.5-2.75s1.17-2.77,3.5-2.77h1.26v5.78Zm2-1.88V15.8H40l.58-.57H37.31l-.58.57h1.12v4.4a1.9,1.9,0,0,0,2,2.08H40l.58-.58H39.9a1.35,1.35,0,0,1-1.47-1.5Zm8.92-5L41.62,21V15.23l-.57.57v6.55l7.12-7.12ZM11.4,24.77h-.09a.44.44,0,0,1-.23-.05.41.41,0,0,1-.09-.2,2.31,2.31,0,0,1,0-.42,2.37,2.37,0,0,1,0-.42.29.29,0,0,1,.1-.19.32.32,0,0,1,.22-.06h.17v.19h-.24a.17.17,0,0,0,0,.12,5.12,5.12,0,0,0,0,.64.17.17,0,0,0,0,.12.16.16,0,0,0,.11,0h.13v.19Zm.8,0v-.29h-.23v.29h-.23l.22-1.32h.34l.21,1.32Zm-.15-1.08h0l-.09.59h.18Zm1.07,1.08L12.88,24h0v.74h-.22v-1.3h.22l.23.69h0v-.69h.22v1.32Zm1,0-.12-.3h-.22l-.05.29H13.5l.22-1.32h.34l.22,1.32Zm-.15-1.08h0l-.08.59H14Zm.6,1.08V23.44h.23v1.11H15v.21Zm1.12-1.32H16a.38.38,0,0,1,.24.06.26.26,0,0,1,.09.18,4.42,4.42,0,0,1,0,.84.26.26,0,0,1-.09.18.38.38,0,0,1-.24.06h-.3Zm.3,1.11a.13.13,0,0,0,.08,0,.14.14,0,0,0,0-.11,5.13,5.13,0,0,0,0-.64.14.14,0,0,0,0-.11.13.13,0,0,0-.08,0h-.08v.9Zm.61.21V23.44h.52v.21H16.8V24h.26v.21H16.8v.35h.29v.21Zm.78,0V23.44h.23v1.11h.26v.21Zm1.12-1.32h.35a.37.37,0,0,1,.2,0,.25.25,0,0,1,.08.14.94.94,0,0,1,0,.25.86.86,0,0,1,0,.25.22.22,0,0,1-.08.14.3.3,0,0,1-.2.06H18.7v.43h-.23Zm.31.68a.15.15,0,0,0,.08,0,.08.08,0,0,0,0-.06.62.62,0,0,0,0-.16.58.58,0,0,0,0-.15.08.08,0,0,0,0-.06.15.15,0,0,0-.08,0H18.7v.47Zm.66.6a.26.26,0,0,1-.09-.19,4.63,4.63,0,0,1,0-.86.26.26,0,0,1,.09-.19.48.48,0,0,1,.24-.05.41.41,0,0,1,.23.05.26.26,0,0,1,.09.19,4.63,4.63,0,0,1,0,.86.26.26,0,0,1-.09.19.34.34,0,0,1-.23.05.39.39,0,0,1-.27-.06Zm.31-.18v-.11a5.45,5.45,0,0,0,0-.66c0-.06,0-.1,0-.11s0,0-.07,0h-.08a.3.3,0,0,0,0,.11v.66a.3.3,0,0,0,0,.11h.08a.08.08,0,0,0,.04-.01Zm.53-1.1h.31a.38.38,0,0,1,.24.06.26.26,0,0,1,.09.18,4.42,4.42,0,0,1,0,.84.26.26,0,0,1-.09.18.38.38,0,0,1-.24.06h-.31Zm.31,1.11h.08a.14.14,0,0,0,0-.11,5.12,5.12,0,0,0,0-.64.14.14,0,0,0,0-.11.13.13,0,0,0-.08,0h-.08v.9Zm.61.21V23.44h.52v.21h-.29V24h.26v.21h-.26v.35h.29v.21Zm1.23,0-.11-.47h-.11v.47H22V23.44h.36a.33.33,0,0,1,.19,0,.28.28,0,0,1,.09.14,1.25,1.25,0,0,1,0,.24,1.4,1.4,0,0,1,0,.23.28.28,0,0,1-.09.14l.14.52Zm-.06-.69a.06.06,0,0,0,0-.06v-.28a.06.06,0,0,0,0-.06h-.16v.44h.09Zm1,.48a.09.09,0,0,0,0-.06s0-.1,0-.18v-.87h.22v.75a2,2,0,0,1,0,.4.16.16,0,0,1-.09.14.82.82,0,0,1-.27,0v-.2Zm1.21-1.11v.74a3.18,3.18,0,0,1,0,.38.24.24,0,0,1-.08.16.37.37,0,0,1-.23.05.34.34,0,0,1-.23-.05.22.22,0,0,1-.09-.16,3.18,3.18,0,0,1,0-.38v-.74h.23v.83a.93.93,0,0,0,0,.2.13.13,0,0,0,0,.08h.15a.13.13,0,0,0,0-.08.93.93,0,0,0,0-.2v-.83Zm.27,0h.31a.38.38,0,0,1,.24.06.26.26,0,0,1,.09.18,4.42,4.42,0,0,1,0,.84.26.26,0,0,1-.09.18.38.38,0,0,1-.24.06h-.31Zm.31,1.11a.13.13,0,0,0,.08,0,.14.14,0,0,0,0-.11,5.12,5.12,0,0,0,0-.64.14.14,0,0,0,0-.11.13.13,0,0,0-.08,0h-.08v.9Zm.61.21V23.44H26v1.32Zm.93,0h-.09a.4.4,0,0,1-.22-.05.34.34,0,0,1-.1-.2,3.87,3.87,0,0,1,0-.42,4,4,0,0,1,0-.42.29.29,0,0,1,.1-.19.32.32,0,0,1,.22-.06h.17v.19h-.23a.17.17,0,0,0,0,.12,5.13,5.13,0,0,0,0,.64.17.17,0,0,0,0,.12h.24v.19Zm.33,0V23.44h.23v1.32Zm1,0v-.29h-.23v.29H27.6l.22-1.32H28l.22,1.32Zm-.15-1.08h0l-.08.59h.18Zm.6,1.08V23.44h.23v1.11h.27v.21Zm1.12-1.32h.31a.38.38,0,0,1,.24.06.31.31,0,0,1,.09.18,4.42,4.42,0,0,1,0,.84.31.31,0,0,1-.09.18.38.38,0,0,1-.24.06h-.31Zm.31,1.11a.13.13,0,0,0,.08,0V23.7a.13.13,0,0,0-.08,0h-.08v.9Zm.61.21V23.44H31v.21h-.29V24H31v.21h-.26v.35H31v.21Zm1.18,0V23.44h.23v1.11h.27v.21Zm1.19,0v-.29h-.23v.29h-.23l.22-1.32h.34l.22,1.32Zm-.15-1.08h0l-.08.59h.18Zm1,1.08V23.44h.5v.21H34V24h.24v.21H34v.53Zm.73,0V23.44H35v.21h-.3V24h.26v.21H34.7v.35H35v.21Zm.78-1.32h.31a.38.38,0,0,1,.24.06.3.3,0,0,1,.08.18,4.42,4.42,0,0,1,0,.84.3.3,0,0,1-.08.18.38.38,0,0,1-.24.06h-.31Zm.31,1.11a.15.15,0,0,0,.08,0,.39.39,0,0,0,0-.11v-.64a.39.39,0,0,0,0-.11.15.15,0,0,0-.08,0h-.08v.9Zm.6.21V23.44h.53v.21h-.29V24h.25v.21h-.25v.35h.29v.21Zm1.24,0-.12-.47H37.2v.47h-.23V23.44h.37a.36.36,0,0,1,.19,0,.22.22,0,0,1,.08.14.76.76,0,0,1,0,.24.79.79,0,0,1,0,.23.19.19,0,0,1-.09.14l.14.52Zm-.06-.69v-.4H37.2v.44h.1Zm1,.69v-.29H38v.29h-.23L38,23.44h.34l.21,1.32Zm-.15-1.08h0l-.09.59h.18Zm1,1.09h-.09a.4.4,0,0,1-.22-.05.34.34,0,0,1-.1-.2,3.869,3.869,0,0,1,0-.42,4,4,0,0,1,0-.42.29.29,0,0,1,.1-.19.32.32,0,0,1,.22-.06h.17v.19h-.23a.17.17,0,0,0,0,.12,5.131,5.131,0,0,0,0,.64.17.17,0,0,0,0,.12.13.13,0,0,0,.1,0h.14v.19Zm.33,0V23.44h.23v1.32Zm.6,0a.37.37,0,0,1-.09-.19v-.86a.37.37,0,0,1,.09-.19.6.6,0,0,1,.48,0,.37.37,0,0,1,.09.19v.86a.37.37,0,0,1-.09.19A.6.6,0,0,1,40.15,24.78Zm.32-.18a.3.3,0,0,0,0-.11v-.66a.3.3,0,0,0,0-.11h-.16a.3.3,0,0,0,0,.11v.66a.3.3,0,0,0,0,.11h.08a.1.1,0,0,0,.03-.06Zm-.18-1.22h0l.07-.26h.21l-.1.26Zm1.18,1.44-.3-.82h0v.74H41v-1.3h.21l.23.69h0v-.69h.22v1.32Z" transform="translate(-1138.83 1145.8)" fill="#31006f"/>
  </g>
</svg>
