<svg xmlns="http://www.w3.org/2000/svg" xmlns:xlink="http://www.w3.org/1999/xlink" width="60" height="60" viewBox="0 0 60 60">
  <defs>
    <linearGradient id="linear-gradient" x1="0.203" y1="0.57" x2="0.735" y2="0.143" gradientUnits="objectBoundingBox">
      <stop offset="0" stop-color="#324822"/>
      <stop offset="0.47" stop-color="#327743"/>
      <stop offset="1" stop-color="#7fa941"/>
    </linearGradient>
    <linearGradient id="linear-gradient-2" x1="0.141" y1="0.64" x2="0.899" y2="0.081" xlink:href="#linear-gradient"/>
    <linearGradient id="linear-gradient-3" x1="0.148" y1="0.646" x2="0.901" y2="0.074" gradientUnits="objectBoundingBox">
      <stop offset="0" stop-color="#324822"/>
      <stop offset="0.35" stop-color="#327743"/>
      <stop offset="1" stop-color="#7fa941"/>
    </linearGradient>
  </defs>
  <g id="Grupo_16042" data-name="Grupo 16042" transform="translate(1472 -1031)">
    <rect id="Rectángulo_8427" data-name="Rectángulo 8427" width="60" height="60" transform="translate(-1472 1031)" fill="#fff"/>
    <g id="logo__54x40_network_la_mejor_tv" data-name="logo _54x40_network_la mejor tv" transform="translate(-1469.02 1039.86)">
      <path id="Trazado_21901" data-name="Trazado 21901" d="M41.13,22.35l-.12.13-2.2.42-1.18.27h-.07l.47-.72-1.09.62-.41.38L34.32,24l.21-.73-.51.52-.43.37c-1,.25-1.89.45-2,.46a.67.67,0,0,1-.59-.37,8,8,0,0,1-.25.83h0l-2.11,2.09-.57.52L21.83,30.4l1-3.05.66-.51,1.77-5.54.71-.59h-.11l-.49.05.23-2v-.22l.23-.73.24-.05,1-3.25-.28-.4.52-.52,1.68.41-.2,2.69.89-.87,2.57.05-.48,3-.66.67h2.48L36,18.66l.17-.19,3.88.38-.22.85a1.21,1.21,0,0,1-.29.41l-.08.06-.63.09s-.06.12-.13.3a3.08,3.08,0,0,1-.5.08c-.79,0-.76,1-.76,1s.77.1.79,0,.29-.72.47-1.12a2.16,2.16,0,0,0,.76-.39l1-.14Z" fill="#03539f"/>
      <path id="Trazado_21902" data-name="Trazado 21902" d="M25.77,20.7h.11l-.71.59L23.4,26.86l-.66.51-.53.11.11-.1.74-.67-.84-3.61-1.16.26-.93,2.58v.49l-1.51,1.79-.33-.58.55-.66s.29-1.88.37-1.95a26.61,26.61,0,0,0-1.71-2.35l-1.09,3.81.5.89-.36,1.36-1.82.7,1-1,1.48-6.8-2.48-1.08-.61.51-.95-1,5.52-.93,1,2.73,2.66-3.42,3.44-.63-.23.73v.22l-.23,2Z" fill="#2567b1"/>
      <path id="Trazado_21903" data-name="Trazado 21903" d="M27.61,20.23l-.33-.46-.87.72Z" fill="#1e64af"/>
      <path id="Trazado_21904" data-name="Trazado 21904" d="M11.55,30.66l-.53-1.08,3.03-8.57.76.78Z" fill="#1f2f5e"/>
      <path id="Trazado_21905" data-name="Trazado 21905" d="M17.21,21.64l-1.48,6.81-1,.99h-.01l-3.17,1.22,3.26-8.87-.69-.71.61-.51Z" fill="#034d94"/>
      <path id="Trazado_21906" data-name="Trazado 21906" d="M19.21,25c-.08.07-.37,1.95-.37,1.95l-.55.66-1-1.7-.4,1.44-.5-.89,1.09-3.81A26.609,26.609,0,0,1,19.21,25Z" fill="#03539f"/>
      <path id="Trazado_21907" data-name="Trazado 21907" d="M23.06,26.71l-.74.67-.11.1L20,27.94l.46-1.9-.33.39v-.49l.93-2.58,1.15-.26Z" fill="#03539f"/>
      <path id="Trazado_21908" data-name="Trazado 21908" d="M21.78,30.42l-.94-.96.47-1.79,1.43-.3Z" fill="#1f2f5e"/>
      <path id="Trazado_21909" data-name="Trazado 21909" d="M43,19.33l-.12.59-1.19,1.8-.56.63-.82-2.25-1,.14.08-.06a1.21,1.21,0,0,0,.29-.41l.22-.85-3.88-.38-.17.19-2.41.88H31l.66-.67.48-3-2.57-.05-.89.87.2-2.69-1.68-.41-.52.52-.74-1.06,4.34-.6-.52,1.81-.24.8a2.78,2.78,0,0,1,1.22-.36l2.85-.44-.71,2.35.71-.09-.72,2,7.31-1.46.88,1.18-.2.4-.36.64v.55Z" fill="#1062aa"/>
      <path id="Trazado_21910" data-name="Trazado 21910" d="M33.18,17.71l5.64-.99,1.36.39-7.31,1.46Z" fill="#03539f"/>
      <path id="Trazado_21911" data-name="Trazado 21911" d="M28.59,27.19,30.7,25.1c-.07.24-.18.52-.31.85A2.2,2.2,0,0,1,29,27.29l-1,.42Z" fill="#142f54"/>
      <path id="Trazado_21912" data-name="Trazado 21912" d="M34,23.81l.51-.52-.21.73-.73.16Z" fill="#1062aa"/>
      <path id="Trazado_21913" data-name="Trazado 21913" d="M36.94,23.1,38,22.48l-.47.72-.2.08-.83.2Z" fill="#1062aa"/>
      <path id="Trazado_21914" data-name="Trazado 21914" d="M38.09,20.71a3.08,3.08,0,0,0,.5-.08c-.18.4-.47,1.05-.47,1.12s-.79,0-.79,0S37.3,20.75,38.09,20.71Z" fill="#1062aa"/>
      <path id="Trazado_21915" data-name="Trazado 21915" d="M38.72,20.33l.63-.09a2.16,2.16,0,0,1-.76.39C38.66,20.45,38.72,20.33,38.72,20.33Z" fill="#142f54"/>
      <path id="Trazado_21916" data-name="Trazado 21916" d="M14.87,20.73l.96.98-2.94,8.13,3.26-1.24,1.16-4.31,1.71,3.01,3.11-3.8-.99,3.88,2.26-.52L26,18.7l-3.04.56-3.33,4.28-1.17-3.42Z" fill="#f6d00d"/>
      <path id="Trazado_21917" data-name="Trazado 21917" d="M28.68,18.34l-.08.35h0c-.42,1.22-2.18,1.17-2.18,1.17L28,14.45l-.56-.77,2.31-.3-1.62,5a1.43,1.43,0,0,1,.39-.15.14.14,0,0,1,.16.11Z" fill="#f6d00d"/>
      <path id="Trazado_21918" data-name="Trazado 21918" d="M33.09,15.18s-1.76.36-2.35.41-1,.4-1.27,1.29c-.11.32-.22.68-.32,1h0a5,5,0,0,0-.26,1l.43.43,2.61-.43s.83,0,1.11-1.2c0,0,.12-.22-.17-.18l-.52.08.75-2.26S33.17,15.16,33.09,15.18ZM31,18.25l-.69.13.66-2,.72-.11Z" fill="#f6d00d"/>
      <path id="Trazado_21919" data-name="Trazado 21919" d="M29.28,22.84l.65-1.91-.68-.83-2.56.53s-.86,0-1.18,1.16-1.06,3.4-1.06,3.4l.62.63,2.72-.63s1-.14,1.36-1.85l-1.58.31-.18.62-1,.13.3-1Zm-1.19-.72-1,.17.24-.78,1-.22Z" fill="#f6d00d"/>
      <path id="Trazado_21920" data-name="Trazado 21920" d="M29.57,19.89l.83.89-1.52,4.76-4.94,1.17-.88,2.87,6.33-2.74s.55-.16.88-1.12,2.12-6.21,2.12-6.21Z" fill="#f6d00d"/>
      <path id="Trazado_21921" data-name="Trazado 21921" d="M36,18.78s-.68.1-1.91.35a1.88,1.88,0,0,0-1.5,1.05L31.43,23.6l.58.6s1-.18,2.07-.41a2.14,2.14,0,0,0,1.48-1.17l1-3.11Zm-1.88,3.95-.89.17.93-2.8.92-.18Z" fill="#f6d00d"/>
      <path id="Trazado_21922" data-name="Trazado 21922" d="M40.86,18.69l-.34.91-1.39.28.28-.68c.09-.2-.15-.12-.15-.12l-.27.05-.42.1L38,21.11l-.11.33a2.07,2.07,0,0,0,.46-.12h.09c.1,0,.08.08.08.08l-.12.39a1.63,1.63,0,0,1-1.25,1.31l-1.37.29,1.35-3.9-.65-.77s1.94-.36,2.67-.51a3.34,3.34,0,0,0,1-.33h.1a1.5,1.5,0,0,1,.43.38C41,18.61,40.86,18.69,40.86,18.69Z" fill="#f6d00d"/>
      <path id="Trazado_21923" data-name="Trazado 21923" d="M41,20.42l-.06.23a.83.83,0,0,1,0,.13v.08c-.07.32-.23.41-.35.42a.35.35,0,0,1-.14,0l.12-.34h-.28l-.36,1.31H40l-.15.43-.88.17s0-.34.11-.41a.75.75,0,0,1,.22-.08c.06-.09.39-1.3.39-1.3l-.29.07-.11.38h-.41l.32-.8,1.43-.31Z" fill="#f6d00d"/>
      <path id="Trazado_21924" data-name="Trazado 21924" d="M42.78,20c0,.09-.87,1.94-.87,1.94a.75.75,0,0,1-.5.42l-.4.1.12-1.68H41v-.41h.37l.28-.07-.19,1.48s.06.08.11-.06.42-1.06.42-1.06h-.15s.1-.39.12-.41h0c.14,0,.62-.19.7-.19Z" fill="#f6d00d"/>
      <path id="Trazado_21925" data-name="Trazado 21925" d="M13.18,20.09l-.74-.76,5.5-.81.76.64Z" fill="#03539f"/>
      <path id="Trazado_21926" data-name="Trazado 21926" d="M25.94,13.08l-1.14-.35,4.19-.59,1.28.34Z" fill="#03539f"/>
      <path id="Trazado_21927" data-name="Trazado 21927" d="M33.59,14.29l-2.85.44a2.78,2.78,0,0,0-1.22.36l.24-.8,2.63-.37Z" fill="#03539f"/>
      <path id="Trazado_21928" data-name="Trazado 21928" d="M33.59,16.55l-.61-.24-.1.33Z" fill="#03539f"/>
      <path id="Trazado_21929" data-name="Trazado 21929" d="M43,19.33l-1.61-.49-.68.11-.19.65v.29Z" fill="#03539f"/>
      <path id="Trazado_21930" data-name="Trazado 21930" d="M20.46,26.04,20,27.94l-.61-.64Z" fill="#18224c"/>
      <path id="Trazado_21931" data-name="Trazado 21931" d="M18.62,28.22l-1.4-1.95.08-.33Z" fill="#18224b"/>
      <path id="Trazado_21932" data-name="Trazado 21932" d="M12.89,29.84l-.15-.37,2.88-7.97.21.21Z" fill="#355630"/>
      <path id="Trazado_21933" data-name="Trazado 21933" d="M19.63,23.54l3.33-4.28-.22-.17-3.23,4.09Z" fill="#205833"/>
      <path id="Trazado_21934" data-name="Trazado 21934" d="M18.46,20.12l-.32-.23-3.41.68.14.16Z" fill="#58944c"/>
      <path id="Trazado_21935" data-name="Trazado 21935" d="M22.96,19.26l-.22-.17,2.95-.51.31.12Z" fill="#688b3f"/>
      <path id="Trazado_21936" data-name="Trazado 21936" d="M26.41,19.89l-.32-.25,1.64-5.24.29.05Z" fill="#355630"/>
      <path id="Trazado_21937" data-name="Trazado 21937" d="M28.02,14.45l-.56-.77-.27-.06.54.78Z" fill="#587534"/>
      <path id="Trazado_21938" data-name="Trazado 21938" d="M27.46,13.68l-.27-.06,2.23-.32.35.08Z" fill="#688a3c"/>
      <path id="Trazado_21939" data-name="Trazado 21939" d="M33.09,15.18s-1.76.36-2.35.41-1,.4-1.27,1.29c-.11.32-.22.68-.32,1h0a5,5,0,0,0-.26,1l.43.43-.72-.62h0a2.61,2.61,0,0,0,.08-.35,19.55,19.55,0,0,1,.59-2,1.44,1.44,0,0,1,1-.84s1.52-.22,2.16-.29S33.09,15.18,33.09,15.18Z" fill="url(#linear-gradient)"/>
      <path id="Trazado_21940" data-name="Trazado 21940" d="M31.31,16.31l-.59,1.81-.37.03-.08.23.7-.13.69-1.98Z" fill="#3c5225"/>
      <path id="Trazado_21941" data-name="Trazado 21941" d="M22.32,18.47l-1-.62-2.11,2.76.45,1.28Z" fill="#1f2f5e"/>
      <path id="Trazado_21942" data-name="Trazado 21942" d="M21.32,17.85l3.61-.59,1.07.53-3.68.68Z" fill="#00539e"/>
      <path id="Trazado_21943" data-name="Trazado 21943" d="M26,17.79l.96-3.25-1.15-.4-.88,3.12Z" fill="#213569"/>
      <path id="Trazado_21944" data-name="Trazado 21944" d="M26.96,14.54l-1.02-1.46-1.14-.35,1.01,1.41Z" fill="#213265"/>
      <path id="Trazado_21945" data-name="Trazado 21945" d="M21.14,27.38l-.25-.25.82-3.12.42-.51Z" fill="#3c5225"/>
      <path id="Trazado_21946" data-name="Trazado 21946" d="M23.07,29.58l-.28-.29.9-2.81.25.23Z" fill="#3c5125"/>
      <path id="Trazado_21947" data-name="Trazado 21947" d="M23.94,26.71l-.25-.23,4.86-1.16.33.22Z" fill="#688a3c"/>
      <path id="Trazado_21948" data-name="Trazado 21948" d="M28.88,25.54l1.52-4.76-.83-.89-.23-.08.77.93-1.56,4.58Z" fill="#3c5225"/>
      <path id="Trazado_21949" data-name="Trazado 21949" d="M32.39,19.51,32,19.33l-2.66.48.23.08Z" fill="#688a3c"/>
      <path id="Trazado_21950" data-name="Trazado 21950" d="M29.25,20.1l-2.56.53s-.86,0-1.18,1.16-1.06,3.4-1.06,3.4l.62.63-.87-.88s.83-2.83,1.12-3.65a1.58,1.58,0,0,1,1.24-.92L29,19.93Z" fill="url(#linear-gradient-2)"/>
      <path id="Trazado_21951" data-name="Trazado 21951" d="M27.96,21.37l-.23.55-.61.13-.07.24,1.04-.18.21-.81Z" fill="#3c5225"/>
      <path id="Trazado_21952" data-name="Trazado 21952" d="M29.15,23.34l-.38-.23-1.55.34-.14.52-.56.07-.11.35.98-.12.18-.62Z" fill="#3c5225"/>
      <path id="Trazado_21953" data-name="Trazado 21953" d="M36,18.78s-.68.1-1.91.35a1.88,1.88,0,0,0-1.5,1.05L31.43,23.6l.58.6-.88-.84s.8-2.33,1.1-3.26a1.45,1.45,0,0,1,1.12-1l2.25-.46Z" fill="url(#linear-gradient-3)"/>
      <path id="Trazado_21954" data-name="Trazado 21954" d="M34.64,20l-.86,2.55-.48.13-.08.22.89-.17.96-2.81Z" fill="#3c5125"/>
      <path id="Trazado_21955" data-name="Trazado 21955" d="M40.18,17.85h-.11a3.34,3.34,0,0,1-1,.33c-.73.15-2.67.51-2.67.51l-.38-.15,3.74-.69S40.12,17.8,40.18,17.85Z" fill="#789a3e"/>
      <path id="Trazado_21956" data-name="Trazado 21956" d="M38.4,21.29h-.09a2.07,2.07,0,0,1-.46.12l.11-.33Z" fill="#3c5225"/>
      <path id="Trazado_21957" data-name="Trazado 21957" d="M39.72,21.08s-.33,1.21-.39,1.3a.75.75,0,0,0-.22.08c-.09.07-.11.41-.11.41a5.1,5.1,0,0,1-.5-.19s0-.42.35-.47l.19-.63h.28l.11-.38Z" fill="#3c5225"/>
      <path id="Trazado_21958" data-name="Trazado 21958" d="M38.91,21.6l-.41-.25.31-.77.42.22Z" fill="#2b6f3f"/>
      <path id="Trazado_21959" data-name="Trazado 21959" d="M40.98,20.43l-.32.07-1.43.3-.42-.22,1.65-.34.15.05Z" fill="#66994b"/>
      <path id="Trazado_21960" data-name="Trazado 21960" d="M42.77,20c-.08,0-.56.15-.7.19h0L41.5,20l.84-.16Z" fill="#66994b"/>
      <path id="Trazado_21961" data-name="Trazado 21961" d="M41.73,20.25l-.28.07-.15.04-.21.04-.5-.17.64-.15.23.08Z" fill="#66994b"/>
      <path id="Trazado_21962" data-name="Trazado 21962" d="M41.08,20.4v.41h-.11a.83.83,0,0,0,0-.13l.06-.23-.37-.13v-.06Z" fill="#3d4a20"/>
      <path id="Trazado_21963" data-name="Trazado 21963" d="M41.13,20.8,41,22.48l-.49-.2v-1c.12,0,.28-.1.35-.42v-.08h.11Z" fill="#3c5225"/>
      <path id="Trazado_21964" data-name="Trazado 21964" d="M42.07,20.61s-.36.92-.42,1.06-.11.06-.11.06l.19-1.48-.27-.09v-.12l.54.19-.12.41Z" fill="#3c5225"/>
      <path id="Trazado_21965" data-name="Trazado 21965" d="M35.74,23.36l-.37-.25.48-1.36.82-2.42.42.13Z" fill="#3c5225"/>
      <path id="Trazado_21966" data-name="Trazado 21966" d="M36.67,19.33l-.62-.79.39.15.65.77Z" fill="#3d4a20"/>
      <path id="Trazado_21967" data-name="Trazado 21967" d="M39.41,19.2l-.28.68-.41-.12.27-.63.27-.05S39.5,19,39.41,19.2Z" fill="#3d4a20"/>
      <path id="Trazado_21968" data-name="Trazado 21968" d="M39.35,20.24a2.16,2.16,0,0,1-.76.39c.07-.18.13-.3.13-.3Z" fill="#024486"/>
      <path id="Trazado_21969" data-name="Trazado 21969" d="M41.01,22.48l-3.45.72.07-.03,1.17-.27Z" fill="#1f2f5e"/>
      <path id="Trazado_21970" data-name="Trazado 21970" d="M22.74,19.09l-1.33,1.15L19.39,22.9l.12.28Z" fill="#03539f"/>
    </g>
  </g>
</svg>
