<svg xmlns="http://www.w3.org/2000/svg" width="27.816" height="18.366" viewBox="0 0 27.816 18.366">
  <g id="logo__54x40_network_cnn" data-name="logo _54x40_network_cnn" transform="translate(-14.184 -10.78)">
    <path id="Trazado_22131" data-name="Trazado 22131" d="M41.12,28.17v.11h-.21v.57h-.14v-.57h-.22v-.11Zm.74.68v-.59h0a2.089,2.089,0,0,1,0,.21l-.13.37H41.5l-.12-.38a1.459,1.459,0,0,0-.05-.2h0v.59H41.2l.05-.68h.2l.12.33v.18h0a.85.85,0,0,1,0-.17l.12-.34H42v.68Z" fill="#ec1c2e"/>
    <path id="Trazado_22132" data-name="Trazado 22132" d="M16.1,22.87A4.08,4.08,0,0,0,20.45,27h3.6a.44.44,0,0,0,.43-.44V19.13a.71.71,0,0,1,1.31-.46h0c1,1.64,5,8,5.1,8.19s.22.19.33.15a.389.389,0,0,0,.2-.39v-7.5a.76.76,0,0,1,.49-.76.72.72,0,0,1,.81.3h0c1,1.64,5,8,5.09,8.19a.3.3,0,0,0,.34.15c.13,0,.21-.18.21-.39V16.75H36.83v5.78S35.9,21,34.32,18.25s-4.45-1.55-4.45.73v3.54S29,21,27.39,18.25s-4.46-1.56-4.46.73v6.1a.4.4,0,0,1-.4.41H20.62a2.65,2.65,0,1,1-.24-5.28h2.1V18.68H20.3a4.07,4.07,0,0,0-4.2,4.19Z" fill="#ec1c2e"/>
    <path id="Trazado_22133" data-name="Trazado 22133" d="M38.76,16.75v9.89a.74.74,0,0,1-.48.76.64.64,0,0,1-.2,0,.71.71,0,0,1-.58-.33h0c0-.07-4.08-6.53-5.11-8.21a.33.33,0,0,0-.36-.14c-.14,0-.22.19-.22.39v7.5a.73.73,0,0,1-.47.76.67.67,0,0,1-.77-.3h0c0-.06-4.08-6.52-5.1-8.2a.33.33,0,0,0-.37-.14c-.14,0-.21.19-.21.38v7.46a.83.83,0,0,1-.83.82h-3.6a4.44,4.44,0,0,1-4.74-4.54,4.45,4.45,0,0,1,4.58-4.58h2.19V16.75H20.57C12,16.75,12.07,29,20.69,29h3.36a2.21,2.21,0,0,0,2.38-2.44v-3.1l2.63,4.36c1.26,2.08,4.31,1.67,4.31-.93V23.44L36,27.8c1.27,2.08,4.31,1.67,4.3-.93V16.75Z" fill="#ec1c2e"/>
    <path id="Trazado_22134" data-name="Trazado 22134" d="M35.72,14a9.26,9.26,0,0,1-3.91-1h-.14a9,9,0,0,0-3.78-1,3.74,3.74,0,0,0-3.67,2.63h.6a3.74,3.74,0,0,1,.75-1.1,2.87,2.87,0,0,1,2-.64,4.27,4.27,0,0,1,1,.12,6.58,6.58,0,0,1,.94.28l1.14.45c.41.16.71.3,1,.41l.14.06a12.37,12.37,0,0,0,1.67.49,7.21,7.21,0,0,0,1.6.19A5.73,5.73,0,0,0,38.2,14a5.14,5.14,0,0,0,2.09-3h-.57v.06a4.09,4.09,0,0,1-4,2.94Z" fill="#ec1c2e"/>
    <path id="Trazado_22135" data-name="Trazado 22135" d="M23.9,14.6a4.1,4.1,0,0,1,4-2.9,9.15,9.15,0,0,1,3.9,1l.16.06a8.78,8.78,0,0,0,3.77.93A3.74,3.74,0,0,0,39.39,11h-.6a4.17,4.17,0,0,1-.75,1.1,2.9,2.9,0,0,1-2,.65,3.86,3.86,0,0,1-1-.13,7.52,7.52,0,0,1-.93-.27L33,11.88h-.13l-1-.38a13,13,0,0,0-1.74-.54,7.18,7.18,0,0,0-1.59-.18,5.83,5.83,0,0,0-3.19.94,5.29,5.29,0,0,0-2.1,3h.59Z" fill="#ec1c2e"/>
  </g>
</svg>
