<svg xmlns="http://www.w3.org/2000/svg" xmlns:xlink="http://www.w3.org/1999/xlink" width="60" height="60" viewBox="0 0 60 60">
  <defs>
    <clipPath id="clip-path">
      <rect id="Rect치ngulo_8483" data-name="Rect치ngulo 8483" width="26.11" height="10.05" transform="translate(13.95 15.92)" fill="none"/>
    </clipPath>
  </defs>
  <g id="Grupo_14910" data-name="Grupo 14910" transform="translate(1340 -267)">
    <rect id="Rect치ngulo_8427" data-name="Rect치ngulo 8427" width="60" height="60" transform="translate(-1340 267)" fill="#fff"/>
    <g id="_372_MC_Color_Negro" data-name="372 MC Color/Negro" transform="translate(-1336.95 276.08)">
      <g id="Grupo_14909" data-name="Grupo 14909" clip-path="url(#clip-path)">
        <g id="Grupo_14908" data-name="Grupo 14908" clip-path="url(#clip-path)">
          <path id="Trazado_20255" data-name="Trazado 20255" d="M31.22,18.39a2.48,2.48,0,0,1,.37-.29,3.13,3.13,0,0,1,.62-.34c2.44-1,4,.14,4.31,1.36h3.52c0-1.76-1.93-3.22-1.93-3.22H30a6,6,0,0,0-1,.69l.17-.69h-4.6l-3.28,7.4-.22-7.4H16.44L14,26h3l1.54-6.2.59,6.2h3.43l3.36-6.17L24.33,26h2.84l.2-.83A6.33,6.33,0,0,0,28,26h8.72a5.1,5.1,0,0,0,3.11-3.42H36.19c-.57,1.69-3,2.36-4.59,1.69a2.41,2.41,0,0,1-.89-.56l-.11-.11a3,3,0,0,1-.39-.49c-.87-1.28-.35-3.47,1-4.68"/>
        </g>
      </g>
    </g>
  </g>
</svg>
