<svg xmlns="http://www.w3.org/2000/svg" width="60" height="60" viewBox="0 0 60 60">
  <g id="Grupo_14911" data-name="Grupo 14911" transform="translate(1274 -267)">
    <rect id="Rectángulo_8427" data-name="Rectángulo 8427" width="60" height="60" transform="translate(-1274 267)" fill="#fff"/>
    <g id="logo__54x40_network_mp_multipremier" data-name="logo _54x40_network_mp multipremier" transform="translate(-1270.85 276.55)">
      <path id="Trazado_20256" data-name="Trazado 20256" d="M34.51,14.71H30.76l.67,1.81,3.14.46-2.12,2.29,1.16,3.15L31.2,20.61l-3.35,3.62-.16.91h2.72l.4-2.27h2.27a5.06,5.06,0,0,0,4.79-4.08,3.33,3.33,0,0,0-3.36-4.08Z" fill="#231f20"/>
      <path id="Trazado_20257" data-name="Trazado 20257" d="M28.09,22.87l.72-4.06-4.43-3.33,4.89.72.66-3.75H25.85L23,18.34l-1.68-5.89H17.69L15.85,22.87h3.17l.88-4.98,1.39,4.98H23.1l3.15-4.98-.88,4.98Z" fill="#231f20"/>
      <path id="Trazado_20258" data-name="Trazado 20258" d="M17.9,26.51c.08,0,.11,0,.11.11v2.09c0,.08,0,.11-.11.11h-.16c-.09,0-.11,0-.11-.11v-1a3.21,3.21,0,0,1,.07-.65h0a3.1,3.1,0,0,1-.27.6l-.32.56a.14.14,0,0,1-.12.08h-.11a.11.11,0,0,1-.12-.08l-.33-.56a2.78,2.78,0,0,1-.25-.6h0a3.69,3.69,0,0,1,.07.65v1c0,.08,0,.11-.11.11h-.16c-.08,0-.11,0-.11-.11V26.62c0-.08,0-.11.11-.11h.14a.15.15,0,0,1,.16.09l.68,1.21.67-1.21a.13.13,0,0,1,.15-.09Z" fill="#231f20"/>
      <path id="Trazado_20259" data-name="Trazado 20259" d="M18.86,28c0,.3.17.46.5.46s.5-.16.5-.46V26.62c0-.08,0-.11.11-.11h.19c.08,0,.11,0,.11.11V28a.8.8,0,0,1-.91.84.8.8,0,0,1-.91-.84V26.62c0-.08,0-.11.11-.11h.19c.08,0,.11,0,.11.11Z" fill="#231f20"/>
      <path id="Trazado_20260" data-name="Trazado 20260" d="M21,26.51c.09,0,.11,0,.11.11v1.82h.94c.08,0,.11,0,.11.11v.16c0,.08,0,.11-.11.11H20.82c-.08,0-.12,0-.12-.11V26.62c0-.08,0-.11.12-.11Z" fill="#231f20"/>
      <path id="Trazado_20261" data-name="Trazado 20261" d="M23.52,26.51c.08,0,.11,0,.11.11v.16c0,.08,0,.11-.11.11H23v1.82c0,.08,0,.11-.11.11H22.7c-.08,0-.11,0-.11-.11V26.89H22c-.08,0-.11,0-.11-.11v-.16c0-.08,0-.11.11-.11Z" fill="#231f20"/>
      <path id="Trazado_20262" data-name="Trazado 20262" d="M23.9,26.62c0-.08,0-.11.11-.11h.19c.08,0,.11,0,.11.11v2.09c0,.08,0,.11-.11.11H24c-.08,0-.11,0-.11-.11Z" fill="#231f20"/>
      <path id="Trazado_20263" data-name="Trazado 20263" d="M25.74,26.51a.756.756,0,1,1,0,1.51h-.57v.69c0,.08,0,.11-.11.11h-.19c-.08,0-.11,0-.11-.11V26.62c0-.08,0-.11.11-.11Zm0,1.13a.38.38,0,0,0,0-.75h-.53v.75Z" fill="#231f20"/>
      <path id="Trazado_20264" data-name="Trazado 20264" d="M27.83,26.51a.67.67,0,0,1,.73.72.64.64,0,0,1-.43.66.33.33,0,0,1,.11.14l.35.68c0,.08,0,.11-.05.11h-.19c-.14,0-.18,0-.22-.09l-.28-.56c-.08-.18-.16-.22-.38-.22h-.24v.76c0,.08,0,.11-.11.11h-.19c-.08,0-.11,0-.11-.11V26.62c0-.08,0-.11.11-.11Zm.3.72A.33.33,0,0,0,28,27a.32.32,0,0,0-.25-.09h-.56v.67h.56a.356.356,0,0,0,.38-.35Z" fill="#231f20"/>
      <path id="Trazado_20265" data-name="Trazado 20265" d="M30.34,26.51c.08,0,.12,0,.12.11v.16c0,.08,0,.11-.12.11h-1v.57h.84c.08,0,.11,0,.11.11v.16c0,.09,0,.11-.11.11h-.84v.6h1c.08,0,.11,0,.11.11v.16c0,.08,0,.11-.11.11H29.05c-.08,0-.11,0-.11-.11V26.62c0-.08,0-.11.11-.11Z" fill="#231f20"/>
      <path id="Trazado_20266" data-name="Trazado 20266" d="M32.9,26.51c.08,0,.11,0,.11.11v2.09c0,.08,0,.11-.11.11h-.17c-.08,0-.11,0-.11-.11v-1a3.28,3.28,0,0,1,.08-.65h0a5.1,5.1,0,0,1-.27.6l-.32.56a.16.16,0,0,1-.13.08h-.1c-.07,0-.09,0-.13-.08l-.32-.56a2.35,2.35,0,0,1-.25-.6h0a2.94,2.94,0,0,1,.07.65v1c0,.08,0,.11-.11.11h-.16c-.08,0-.11,0-.11-.11V26.62c0-.08,0-.11.11-.11h.15c.09,0,.12,0,.15.09l.68,1.21.68-1.21a.13.13,0,0,1,.15-.09Z" fill="#231f20"/>
      <path id="Trazado_20267" data-name="Trazado 20267" d="M33.46,26.62c0-.08,0-.11.11-.11h.19c.08,0,.11,0,.11.11v2.09c0,.08,0,.11-.11.11h-.19c-.08,0-.11,0-.11-.11Z" fill="#231f20"/>
      <path id="Trazado_20268" data-name="Trazado 20268" d="M35.72,26.51c.09,0,.12,0,.12.11v.16c0,.08,0,.11-.12.11h-1v.57h.84c.08,0,.11,0,.11.11v.16c0,.09,0,.11-.11.11h-.84v.6h1c.08,0,.11,0,.11.11v.16c0,.08,0,.11-.11.11H34.43c-.08,0-.11,0-.11-.11V26.62c0-.08,0-.11.11-.11Z" fill="#231f20"/>
      <path id="Trazado_20269" data-name="Trazado 20269" d="M37.22,26.51a.67.67,0,0,1,.73.72.64.64,0,0,1-.43.66.32.32,0,0,1,.1.14l.36.68v.11h-.19c-.15,0-.19,0-.23-.09l-.27-.56c-.09-.18-.16-.22-.39-.22h-.24v.76c0,.08,0,.11-.11.11h-.18c-.08,0-.12,0-.12-.11V26.62c0-.08,0-.11.12-.11Zm.3.72a.31.31,0,0,0-.34-.34h-.57v.67h.57a.34.34,0,0,0,.25-.08.33.33,0,0,0,.09-.25Z" fill="#231f20"/>
    </g>
  </g>
</svg>
