<svg xmlns="http://www.w3.org/2000/svg" xmlns:xlink="http://www.w3.org/1999/xlink" width="60" height="60" viewBox="0 0 60 60">
  <defs>
    <clipPath id="clip-path">
      <rect id="Rect치ngulo_9202" data-name="Rect치ngulo 9202" width="25.77" height="13.9" transform="translate(14.12 13.05)" fill="none"/>
    </clipPath>
  </defs>
  <g id="Grupo_16048" data-name="Grupo 16048" transform="translate(1208 -1031)">
    <rect id="Rect치ngulo_8427" data-name="Rect치ngulo 8427" width="60" height="60" transform="translate(-1208 1031)" fill="#fff"/>
    <g id="_260_MTV_Color_Negro" data-name="260 MTV Color/Negro" transform="translate(-1205.12 1040.95)">
      <g id="Grupo_16047" data-name="Grupo 16047" clip-path="url(#clip-path)">
        <g id="Grupo_16046" data-name="Grupo 16046" clip-path="url(#clip-path)">
          <path id="Trazado_22128" data-name="Trazado 22128" d="M23.25,27h1.14V25.08l-1.14-.88V27m2.92-1.81h.95l.25-.2v-.73Zm-.1-10.82-.76.73-2-2,2.6,1.06Zm11.07,3.89V13.05l1.37.76v2.83a14.53,14.53,0,0,0-1.37,1.57m1.37,1V27H37.14V21.3a15.47,15.47,0,0,1,1.37-2.07M31.33,27a11.87,11.87,0,0,1-.09-1.29c0-.27,0-1.37,0-2.25s-.17-2.08-.17-2.8a9.46,9.46,0,0,0,0-1.24c.38-.21.7-.36,1.73-.93.35-.2,1-.5,1-.89,0-.17,0-.27-.31-.47a.92.92,0,0,0-.59-.18c-.53,0-.76.49-1.22.74-.67.38-1,.57-1.16.64a1.55,1.55,0,0,0-.65-.15c-.39,0-.84.15-.84.61,0,.22.07.45-.24.6s-1,.54-1.9,1a10.29,10.29,0,0,1-1.41.57.59.59,0,0,0-.37.54l.14.39a.82.82,0,0,0,.7.37c.54,0,1-.43,1.82-1a3.84,3.84,0,0,1,1.27-.7c.26,0,.43.17.43.89,0,2.38-.16,2.76-.16,4.42v1.07H28v-3.9L25.31,25.1l-2.64-2.05V27H14.12V13.05h8.33l2.86,2.78,2.87-2.78h8.38V19a17.71,17.71,0,0,0-1.63,3c-.18.43-.26.73-.49.73s-.28-.23-.3-.44a12.735,12.735,0,0,0-.22-1.62c-.1-.61-.23-1.25-1-1.25a1,1,0,0,0-1.11,1,7,7,0,0,0,.63,2.15l1.12,2.7a1,1,0,0,0,1,.69c.62,0,.83-.22,1.09-1a26.21,26.21,0,0,1,.88-2.47V27Z"/>
          <path id="Trazado_22129" data-name="Trazado 22129" d="M38.93,26.52h-.16v-.09h.46v.09h-.18v.43h-.12Z"/>
          <path id="Trazado_22130" data-name="Trazado 22130" d="M39.28,26.43h.17l.13.36h.01l.12-.36h.17v.52h-.11v-.37l-.14.37h-.09l-.15-.37v.37h-.11Z"/>
        </g>
      </g>
    </g>
  </g>
</svg>
