<svg xmlns="http://www.w3.org/2000/svg" xmlns:xlink="http://www.w3.org/1999/xlink" width="60" height="60" viewBox="0 0 60 60">
  <defs>
    <clipPath id="clip-path">
      <rect id="Rect치ngulo_8717" data-name="Rect치ngulo 8717" width="37.31" height="9.07" transform="translate(8.69 17.41)" fill="none"/>
    </clipPath>
  </defs>
  <g id="Grupo_15183" data-name="Grupo 15183" transform="translate(1406 -722)">
    <rect id="Rect치ngulo_8427" data-name="Rect치ngulo 8427" width="60" height="60" transform="translate(-1406 722)" fill="#fff"/>
    <g id="mvs_tv_color" data-name="mvs tv color" transform="translate(-1403.69 729.59)">
      <g id="Grupo_15182" data-name="Grupo 15182" clip-path="url(#clip-path)">
        <g id="Grupo_15181" data-name="Grupo 15181" clip-path="url(#clip-path)">
          <path id="Trazado_20594" data-name="Trazado 20594" d="M33.3,21.86a3,3,0,0,0-.74-.53,5.67,5.67,0,0,0-1-.41,3.86,3.86,0,0,1-.67-.28.41.41,0,0,1-.23-.38.48.48,0,0,1,.27-.45,1.37,1.37,0,0,1,.61-.14h0a2.8,2.8,0,0,1,1.12.26,2.86,2.86,0,0,1,.82.58l1.14-2a2.39,2.39,0,0,0-.57-.44,4.59,4.59,0,0,0-.74-.33,6.58,6.58,0,0,0-.85-.22,5.38,5.38,0,0,0-.9-.08,4.74,4.74,0,0,0-1.54.24,4.28,4.28,0,0,0-.75.34l.19-.33H26.22l-2.6,5.42h-.05l-.39-5.42h-6.3L14.63,22.4h-.06l-.75-4.74H10.21L8.69,26.31h2.63l.75-5h.06l.77,5h2l2.55-5h.08l-1,5H19.3l1.15-6.5.93,6.5h3.15L27.8,20.6a2.23,2.23,0,0,0,.17.86,1.88,1.88,0,0,0,.46.65,2.83,2.83,0,0,0,.71.47,8.56,8.56,0,0,0,.86.34,2.57,2.57,0,0,1,.8.35.48.48,0,0,1,.21.38.45.45,0,0,1-.26.41,1.44,1.44,0,0,1-.68.14,1.64,1.64,0,0,1-.42-.06l-.27-.07h0a3.26,3.26,0,0,1-.69-.36,2.67,2.67,0,0,1-.82-.9l-1.28,2.31a4.52,4.52,0,0,0,3.24,1.35h.27a5.54,5.54,0,0,0,1.31-.17,4,4,0,0,0,1.24-.54,2.85,2.85,0,0,0,.92-.94,2.56,2.56,0,0,0,.37-1.41,2.21,2.21,0,0,0-.17-.87,2,2,0,0,0-.46-.69" fill="#003a70"/>
          <path id="Trazado_20595" data-name="Trazado 20595" d="M43.1,19.68l-1.56,3.66h0l-.24-3.66H38l.2-1.2H35.94l-1.67,2.95h.92l-.46,2.71v.64a1.65,1.65,0,0,0,.19.85,1.36,1.36,0,0,0,.47.51,1.82,1.82,0,0,0,.67.27,3.84,3.84,0,0,0,.76.07,4.93,4.93,0,0,0,.75-.06,1.59,1.59,0,0,0,.53-.16l.32-2-.23.06h-.28a.64.64,0,0,1-.38-.09.47.47,0,0,1-.14-.39,1,1,0,0,1,0-.16V23.5l.36-2.14h1.07l.76,4.88H42.4L46,19.68Z" fill="#19d3c5"/>
        </g>
      </g>
    </g>
  </g>
</svg>
