<svg xmlns="http://www.w3.org/2000/svg" width="60" height="60" viewBox="0 0 60 60">
  <g id="Grupo_15575" data-name="Grupo 15575" transform="translate(1274 -926)">
    <rect id="Rectángulo_8427" data-name="Rectángulo 8427" width="60" height="60" transform="translate(-1274 926)" fill="#fff"/>
    <g id="logo__54x40_network_natinal_geographic" data-name="logo _54x40_network_natinal geographic" transform="translate(-1270.69 936.19)">
      <path id="Trazado_21656" data-name="Trazado 21656" d="M5,14.26h6.62V25.75H5ZM3.69,27.19H13V12.81H3.69Z" fill="#fdd600"/>
      <path id="Trazado_21657" data-name="Trazado 21657" d="M19.27,19.11h-.6c-.79-1.2-1.57-2.38-2.35-3.73h0v3.73h-.66v-5.2h.6c.78,1.19,1.56,2.37,2.33,3.71h0V13.91h.67Z" fill="#231f20"/>
      <path id="Trazado_21658" data-name="Trazado 21658" d="M20.83,17.05c.2-.68.39-1.31.56-2.11h0c.19.8.36,1.43.54,2.11Zm.32-3.14-1.66,5.2h.71l.42-1.42h1.45l.38,1.42h.92l-1.53-5.2Z" fill="#231f20"/>
      <path id="Trazado_21659" data-name="Trazado 21659" d="M24.15,19.11v-4.5H22.89v-.7h3.36v.7H24.98v4.5Z" fill="#231f20"/>
      <rect id="Rectángulo_8929" data-name="Rectángulo 8929" width="0.82" height="5.2" transform="translate(26.51 13.91)" fill="#231f20"/>
      <path id="Trazado_21660" data-name="Trazado 21660" d="M29.88,18.46c-.86,0-1.16-1-1.16-2s.34-1.87,1.16-1.87S31,15.48,31,16.44s-.3,2-1.16,2m0,.74c1.26,0,2-1.21,2-2.76s-.86-2.62-2-2.62-2,1.16-2,2.62.78,2.76,2,2.76" fill="#231f20"/>
      <path id="Trazado_21661" data-name="Trazado 21661" d="M36,19.11h-.59c-.79-1.2-1.57-2.38-2.35-3.73h0v3.73H32.4v-5.2H33c.78,1.19,1.56,2.37,2.33,3.71h0V13.91H36Z" fill="#231f20"/>
      <path id="Trazado_21662" data-name="Trazado 21662" d="M37.6,17.05c.2-.68.39-1.31.56-2.11h0c.19.8.36,1.43.54,2.11Zm.32-3.14-1.67,5.2H37l.42-1.42h1.45l.38,1.42h.92l-1.53-5.2Z" fill="#231f20"/>
      <path id="Trazado_21663" data-name="Trazado 21663" d="M40.38,13.91h.82v4.5h1.64v.7H40.38Z" fill="#231f20"/>
      <path id="Trazado_21664" data-name="Trazado 21664" d="M18.76,23.45V25.6a3.52,3.52,0,0,1-1.37.32,2.44,2.44,0,0,1-2.32-2.72,2.44,2.44,0,0,1,2.34-2.65,1.89,1.89,0,0,1,1.17.4l-.26.61a1.7,1.7,0,0,0-.89-.27c-.88,0-1.48.75-1.48,1.93s.69,2,1.4,2a1.1,1.1,0,0,0,.58-.13v-1.6Z" fill="#231f20"/>
      <path id="Trazado_21665" data-name="Trazado 21665" d="M21.71,21.33H20.33v1.43h1.35v.69H20.33v1.68h1.63v.7H19.51V20.64h2.2Z" fill="#231f20"/>
      <path id="Trazado_21666" data-name="Trazado 21666" d="M24.26,25.18c-.86,0-1.17-1-1.17-2s.35-1.87,1.17-1.87,1.16.91,1.16,1.87-.3,2-1.16,2m0,.74c1.26,0,2-1.21,2-2.76s-.87-2.61-2-2.61a2.371,2.371,0,0,0-2.05,2.61c0,1.46.79,2.76,2.05,2.76" fill="#231f20"/>
      <path id="Trazado_21667" data-name="Trazado 21667" d="M30.27,23.45V25.6a3.52,3.52,0,0,1-1.37.32,2.44,2.44,0,0,1-2.32-2.72,2.44,2.44,0,0,1,2.34-2.65,1.89,1.89,0,0,1,1.17.4l-.26.61a1.7,1.7,0,0,0-.89-.27c-.88,0-1.48.75-1.48,1.93s.69,2,1.4,2a1.1,1.1,0,0,0,.58-.13v-1.6Z" fill="#231f20"/>
      <path id="Trazado_21668" data-name="Trazado 21668" d="M31.85,21.33h.36a.74.74,0,0,1,.77.84c0,.7-.39,1-.79,1h-.34Zm2.09,4.5-1-2.15a1.78,1.78,0,0,0,.83-1.55,1.35,1.35,0,0,0-1.49-1.5H31v5.2h.83v-2h.37l.78,2Z" fill="#231f20"/>
      <path id="Trazado_21669" data-name="Trazado 21669" d="M35.31,23.77c.19-.68.38-1.31.55-2.11h0c.19.8.36,1.43.54,2.11Zm.31-3.14L34,25.83h.71l.42-1.42h1.46l.37,1.42h.93l-1.54-5.2Z" fill="#231f20"/>
      <path id="Trazado_21670" data-name="Trazado 21670" d="M38.93,25.83h-.82v-5.2h1.28a1.35,1.35,0,0,1,1.5,1.5,1.64,1.64,0,0,1-1.58,1.74h-.39v-.64h.36c.39,0,.78-.33.78-1,0-.53-.27-.84-.75-.84h-.38Z" fill="#231f20"/>
      <path id="Trazado_21671" data-name="Trazado 21671" d="M44.72,25.83h-.83v-2.5H42.18v2.5h-.82v-5.2h.82v2h1.71V20.65h.83Z" fill="#231f20"/>
      <rect id="Rectángulo_8930" data-name="Rectángulo 8930" width="0.82" height="5.2" transform="translate(45.51 20.63)" fill="#231f20"/>
      <path id="Trazado_21672" data-name="Trazado 21672" d="M50,21.58a1.59,1.59,0,0,0-.84-.29c-.84,0-1.45.75-1.45,1.93s.67,2,1.47,2a1.45,1.45,0,0,0,.82-.26l.23.64a2,2,0,0,1-1.09.36,2.44,2.44,0,0,1-2.31-2.72,2.44,2.44,0,0,1,2.33-2.65,2,2,0,0,1,1.11.4Z" fill="#231f20"/>
    </g>
  </g>
</svg>
