<svg xmlns="http://www.w3.org/2000/svg" width="60" height="60" viewBox="0 0 60 60">
  <g id="Grupo_14927" data-name="Grupo 14927" transform="translate(1340 -373)">
    <rect id="Rectángulo_8427" data-name="Rectángulo 8427" width="60" height="60" transform="translate(-1340 373)" fill="#fff"/>
    <g id="logo__54x40_network_nick" data-name="logo _54x40_network_nick" transform="translate(-1338.6 383.16)">
      <path id="Trazado_20294" data-name="Trazado 20294" d="M15.16,17.24a4.56,4.56,0,0,0-4.56,4.57V26h3.46V21.9a2.46,2.46,0,0,1,.31-1.25,1,1,0,0,1,.79-.52.9.9,0,0,1,.77.52,2.27,2.27,0,0,1,.32,1.25V26h3.48V21.81a4.56,4.56,0,0,0-4.57-4.57" fill="#f58a1f"/>
      <path id="Trazado_20295" data-name="Trazado 20295" d="M23.45,16.12a1.92,1.92,0,0,0-1.36-3.28,1.89,1.89,0,0,0-1.37.56,2,2,0,0,0,0,2.72l.44.43c.7.7.75.9.08,1.57l-.38.39a1.74,1.74,0,0,0-.52,1.24V26h3.5V19.75a1.73,1.73,0,0,0-.51-1.24l-.39-.39c-.67-.67-.61-.87.09-1.57l.42-.43" fill="#f58a1f"/>
      <path id="Trazado_20296" data-name="Trazado 20296" d="M29.67,23.27a.81.81,0,0,1-1.56,0,3.18,3.18,0,0,1-.32-1.46,3.14,3.14,0,0,1,.32-1.45c.21-.38.47-.6.78-.6s.57.22.78.6a3.15,3.15,0,0,1,.29,1h3.48a4.55,4.55,0,1,0,0,.86H30a3.29,3.29,0,0,1-.29,1" fill="#f58a1f"/>
      <path id="Trazado_20297" data-name="Trazado 20297" d="M42.6,25.38l-.09-.32L40.62,22.2l1.31-2.4a1.739,1.739,0,1,0-3-1.76l-1.57,2.8V19a1.73,1.73,0,0,0-3.46,0v7h3.46V23.24L39.22,26H42a.6.6,0,0,0,.6-.6" fill="#f58a1f"/>
      <path id="Trazado_20298" data-name="Trazado 20298" d="M44,25h-.35v-.18h.91V25H44.2v1H44V25m.81-.2h0l.57.63.57-.63h0V26h-.21v-.73l-.37.44h0L45,25.29V26h-.2Z" fill="#f58a1f"/>
    </g>
  </g>
</svg>
