<svg xmlns="http://www.w3.org/2000/svg" width="60" height="60" viewBox="0 0 60 60">
  <g id="Grupo_14933" data-name="Grupo 14933" transform="translate(1142 -373)">
    <rect id="Rectángulo_8427" data-name="Rectángulo 8427" width="60" height="60" transform="translate(-1142 373)" fill="#fff"/>
    <g id="logo__54x40_network_nickmusic" data-name="logo _54x40_network_nickmusic" transform="translate(-1141 383.33)">
      <path id="C" d="M16.65,21.5a.52.52,0,0,1-.43.33c-.18,0-.32-.12-.44-.33a1.94,1.94,0,0,1,0-1.63c.12-.21.26-.33.44-.33a.52.52,0,0,1,.43.33,1.88,1.88,0,0,1,.17.58h1.93A2.51,2.51,0,0,0,18,18.88a2.553,2.553,0,0,0-3.61,3.61h0a2.55,2.55,0,0,0,3.61,0h0a2.51,2.51,0,0,0,.73-1.56H16.82a1.82,1.82,0,0,1-.17.57" fill="#f2702a"/>
      <path id="I" d="M13.18,17.51a1.074,1.074,0,1,0-1.52,0l.24.24c.4.4.42.5,0,.88l-.22.21a1,1,0,0,0-.29.7V23h2V19.54a1,1,0,0,0-.29-.7l-.21-.21c-.38-.38-.35-.48,0-.88l.23-.24Z" fill="#f2702a"/>
      <path id="K" d="M23.5,19.57a1,1,0,0,0-1.67-1L21,20.15v-1a1,1,0,1,0-1.93,0V23H21V21.49l1,1.57h1.6c.28,0,.41-.28.18-.63l-1-1.53.74-1.33Z" fill="#f2702a"/>
      <path id="N" d="M8.55,18.14A2.54,2.54,0,0,0,6,20.69V23H7.94V20.7a1.25,1.25,0,0,1,.18-.7.54.54,0,0,1,.43-.3A.54.54,0,0,1,9,20a1.25,1.25,0,0,1,.18.7V23H11.1V20.69a2.54,2.54,0,0,0-2.55-2.55" fill="#f2702a"/>
      <path id="C-2" data-name="C" d="M47.74,21.5a.45.45,0,0,1-.86,0,1.91,1.91,0,0,1,0-1.62.44.44,0,0,1,.86,0,1.37,1.37,0,0,1,.17.57h1.94a2.544,2.544,0,1,0,0,.48H47.91a1.41,1.41,0,0,1-.17.57" fill="#684299"/>
      <path id="I-2" data-name="I" d="M44.27,17.51a1.074,1.074,0,1,0-1.52,0l.24.23c.4.4.42.51,0,.88l-.22.22a1,1,0,0,0-.29.69V23h2V19.5a1,1,0,0,0-.29-.69L44,18.62c-.38-.37-.35-.48,0-.88l.23-.23Z" fill="#684299"/>
      <path id="S" d="M40.78,20.27c-.73-.32-1.12-.44-1.13-.71s.24-.27.33-.27c.52,0,.56.52.56.64h1.57a2,2,0,0,0-2.18-1.81,1.82,1.82,0,0,0-2,1.56c0,.29.13.87,1.4,1.44.73.32,1.12.44,1.13.71a.293.293,0,0,1-.33.3c-.52,0-.55-.55-.55-.67H38a2,2,0,0,0,2.18,1.78,1.81,1.81,0,0,0,2-1.53c0-.29-.13-.87-1.41-1.44" fill="#684299"/>
      <path id="U" d="M35.1,23.24a2.47,2.47,0,0,0,1.8-.65,2.37,2.37,0,0,0,.7-1.74V18.32H35.71v2.31a1.71,1.71,0,0,1-.18.79.54.54,0,0,1-.43.3.55.55,0,0,1-.44-.3,1.71,1.71,0,0,1-.18-.79V18.32H32.59v2.53a2.37,2.37,0,0,0,.7,1.74,2.49,2.49,0,0,0,1.81.65" fill="#684299"/>
      <path id="Trazado_20317" data-name="Trazado 20317" d="M31.47,18.88a2.54,2.54,0,0,0-1.79-.77,2.18,2.18,0,0,0-1.45.57,2.14,2.14,0,0,0-1.44-.56,2.63,2.63,0,0,0-1.84.75,2.57,2.57,0,0,0-.75,1.81v2.37h1.9V20.72a1.34,1.34,0,0,1,.17-.7.7.7,0,0,1,.53-.3.61.61,0,0,1,.48.3,1.26,1.26,0,0,1,.13.7v2.33h1.53V20.72a1.37,1.37,0,0,1,.2-.7.7.7,0,0,1,.54-.29.65.65,0,0,1,.5.29,1.37,1.37,0,0,1,.15.7v2.33h1.82V20.68a2.49,2.49,0,0,0-.68-1.8Z" fill="#684299"/>
      <path id="Trazado_20318" data-name="Trazado 20318" d="M50.24,22.65H50v-.1h.51v.1h-.2v.54H50.2Zm.45-.11h0l.31.35.32-.35h0v.65H51.2v-.4L51,23h0l-.2-.24v.4h-.12Z" fill="#684299"/>
    </g>
  </g>
</svg>
