<svg xmlns="http://www.w3.org/2000/svg" xmlns:xlink="http://www.w3.org/1999/xlink" width="60" height="60" viewBox="0 0 60 60">
  <defs>
    <clipPath id="clip-path">
      <rect id="Rect치ngulo_8470" data-name="Rect치ngulo 8470" width="22.13" height="22.01" transform="translate(15.87 9.31)" fill="none"/>
    </clipPath>
  </defs>
  <g id="Grupo_14867" data-name="Grupo 14867" transform="translate(944 -99)">
    <rect id="Rect치ngulo_8427" data-name="Rect치ngulo 8427" width="60" height="60" transform="translate(-944 99)" fill="#fff"/>
    <g id="logo__54x40_network_paramount" data-name="logo _54x40_network_paramount" transform="translate(-940.87 108.69)" clip-path="url(#clip-path)">
      <path id="Trazado_20165" data-name="Trazado 20165" d="M27.96,9.31l-.22.55-.59-.07.44.39-.23.54.5-.3.44.39-.13-.58.51-.29-.59-.05Z" fill="#0d0e0e"/>
      <path id="Trazado_20166" data-name="Trazado 20166" d="M30.01,10.28l-.02-.59-.33.5-.56-.17.37.46-.34.49.55-.21.37.47-.03-.59.56-.2Z" fill="#0d0e0e"/>
      <path id="Trazado_20167" data-name="Trazado 20167" d="M31.41,11.44l.27.52.08-.58.59-.09-.54-.26.1-.59-.41.43-.53-.28.28.53-.42.41Z" fill="#0d0e0e"/>
      <path id="Trazado_20168" data-name="Trazado 20168" d="M33.17,11.88l-.46-.37.17.57-.49.33.59.01.17.57.19-.56.59.02-.48-.35.21-.56Z" fill="#0d0e0e"/>
      <path id="Trazado_20169" data-name="Trazado 20169" d="M34.34,13.68l.06.58.29-.51.58.13-.4-.44.3-.51-.54.25-.39-.45.07.59-.54.23Z" fill="#0d0e0e"/>
      <path id="Trazado_20170" data-name="Trazado 20170" d="M35.48,14.81l-.58.13.55.23-.05.59.37-.45.55.23-.31-.5.39-.45-.58.14-.3-.51Z" fill="#0d0e0e"/>
      <path id="Trazado_20171" data-name="Trazado 20171" d="M36.55,17.03l.49.33-.21-.55.47-.36-.6.03-.19-.56-.16.57-.59.02.49.33-.16.56Z" fill="#0d0e0e"/>
      <path id="Trazado_20172" data-name="Trazado 20172" d="M37.24,18.36l-.09-.58-.26.53-.58-.09.42.41-.26.53.52-.28.42.41-.11-.58.53-.27Z" fill="#0d0e0e"/>
      <path id="Trazado_20173" data-name="Trazado 20173" d="M37.1,20.19l-.55-.2.34.48-.36.47.56-.18.34.49v-.59l.57-.17-.56-.19.01-.59Z" fill="#0d0e0e"/>
      <path id="Trazado_20174" data-name="Trazado 20174" d="M37.26,22.25l.12-.57-.43.4-.51-.3.25.54-.44.39.58-.07.25.54.11-.58.59-.06Z" fill="#0d0e0e"/>
      <path id="Trazado_20175" data-name="Trazado 20175" d="M36.45,23.9l-.44-.38.14.57-.5.31.58.04.14.57.22-.55.59.05-.46-.38.23-.54Z" fill="#0d0e0e"/>
      <path id="Trazado_20176" data-name="Trazado 20176" d="M25.9,9.31l-.12.58-.59.05.51.29-.13.58.44-.39.5.3-.24-.54.45-.39-.59.07Z" fill="#0d0e0e"/>
      <path id="Trazado_20177" data-name="Trazado 20177" d="M23.85,10.64l-.03.59.36-.47.56.21-.34-.49.37-.46-.57.17-.32-.5-.02.59-.57.16Z" fill="#0d0e0e"/>
      <path id="Trazado_20178" data-name="Trazado 20178" d="M22.11,11.38l.08.58.27-.52.58.09-.42-.41.28-.53-.53.28-.41-.43.09.59-.53.26Z" fill="#0d0e0e"/>
      <path id="Trazado_20179" data-name="Trazado 20179" d="M20.53,12.43l.19.56.17-.57.59-.01-.49-.33.17-.56-.46.36-.49-.34.2.56-.47.35Z" fill="#0d0e0e"/>
      <path id="Trazado_20180" data-name="Trazado 20180" d="M19.18,13.75l.29.51.06-.58.57-.13-.54-.23.07-.59-.39.45-.54-.25.3.51-.4.44Z" fill="#0d0e0e"/>
      <path id="Trazado_20181" data-name="Trazado 20181" d="M18.35,14.22l-.3.51-.58-.14.39.45-.31.5.55-.23.37.45-.05-.59.55-.23-.58-.13Z" fill="#0d0e0e"/>
      <path id="Trazado_20182" data-name="Trazado 20182" d="M17.32,17.03l.46.37-.16-.56.49-.33-.59-.02-.16-.57-.19.56-.6-.03.47.36-.21.55Z" fill="#0d0e0e"/>
      <path id="Trazado_20183" data-name="Trazado 20183" d="M16.63,18.36l-.59.08.53.27-.11.58.42-.41.52.28-.26-.53.42-.41-.58.09-.26-.53Z" fill="#0d0e0e"/>
      <path id="Trazado_20184" data-name="Trazado 20184" d="M16.43,20.3l-.56.19.57.17v.59l.34-.49.56.18-.36-.47.34-.48-.55.2-.35-.48Z" fill="#0d0e0e"/>
      <path id="Trazado_20185" data-name="Trazado 20185" d="M16.61,22.25l-.52.29.59.06.11.58.25-.54.58.07-.44-.39.25-.54-.51.3-.43-.4Z" fill="#0d0e0e"/>
      <path id="Trazado_20186" data-name="Trazado 20186" d="M17.28,24.46l.22.55.14-.57.58-.04-.5-.31.14-.57-.44.38-.5-.31.23.54-.46.38Z" fill="#0d0e0e"/>
      <path id="Trazado_20187" data-name="Trazado 20187" d="M29.9,28.68c-.11.16-.2.2-.28.2s-.15-.09-.14-.23a3.28,3.28,0,0,1,.51-1.2c.13-.18.21-.25.31-.25s.13.08.12.18a3.17,3.17,0,0,1-.52,1.3m-4.9.06c-.07,0-.12,0-.12-.11a2.09,2.09,0,0,1,.46-1,.86.86,0,0,1,.65-.42l-.31.7h0c-.24.54-.49.85-.68.85m-3.08,0c-.07,0-.12,0-.12-.11a2.3,2.3,0,0,1,.46-1,.89.89,0,0,1,.65-.42l-.31.7c-.23.53-.49.85-.68.85m13.43-1,.24-.54h.32l.07-.14h-.33l.31-.7h-.49l-.12.26-.19.44h-.23l-.07.14h.24l-.29.64c-.2.45-.53.89-.71.89s-.07,0-.07-.06a.71.71,0,0,1,.06-.19c.06-.14.16-.33.23-.48a2.28,2.28,0,0,0,.26-.69.27.27,0,0,0-.3-.29.91.91,0,0,0-.62.33l.12-.29h-.47l-.38.86c-.15.3-.46.81-.65.81a.05.05,0,0,1-.06-.06.3.3,0,0,1,0-.11l.25-.56.41-1h-.5L32,28c-.13.28-.44.76-.64.76a.06.06,0,0,1-.07-.07.74.74,0,0,1,.07-.21l.21-.45h0l.43-1h-.5l-.1.22h0a.48.48,0,0,1-.39.31.16.16,0,0,1-.16-.08.49.49,0,0,0-.53-.48,1.07,1.07,0,0,0-.9.54,2.57,2.57,0,0,0-.29.65c-.18.29-.36.52-.51.52s-.06,0-.06-.07a.68.68,0,0,1,.07-.2l.32-.69a1.42,1.42,0,0,0,.15-.5.25.25,0,0,0-.3-.25,1,1,0,0,0-.69.36.37.37,0,0,0,0-.11.22.22,0,0,0-.25-.25.89.89,0,0,0-.64.36l.13-.32H26.9l-.38.86c-.19.4-.48.81-.64.81s-.06,0-.06-.07a1.21,1.21,0,0,1,.12-.35l.5-1.15c0-.08-.2-.14-.51-.14a1.44,1.44,0,0,0-.88.36.82.82,0,0,1-.36.21h0c0-.07.16-.27.16-.42s0-.11-.13-.11a.89.89,0,0,0-.55.35l.13-.31h-.44l-.38.86c-.18.4-.48.83-.65.83s-.06,0-.06-.07a1.27,1.27,0,0,1,.13-.37l.51-1.15c0-.08-.21-.14-.52-.14a1.55,1.55,0,0,0-1.14.63,1.89,1.89,0,0,0-.44,1,.34.34,0,0,0,.37.39.86.86,0,0,0,.63-.39v.1c0,.02.07.29.27.29a.89.89,0,0,0,.6-.39L23,29h.48l.47-1.07c.16-.35.34-.53.39-.53h0a.606.606,0,0,0-.07.22c0,.09.05.16.18.16a.68.68,0,0,0,.32-.11,1.8,1.8,0,0,0-.41,1,.34.34,0,0,0,.37.39,1,1,0,0,0,.63-.41.37.37,0,0,0,0,.11.27.27,0,0,0,.28.3c.2,0,.37-.13.57-.38l-.15.34h.5L27,28c.19-.44.46-.68.59-.68a.06.06,0,0,1,.07.07.33.33,0,0,1,0,.14L27,29h.5l.47-1c.19-.45.41-.67.58-.67s.07,0,.07.08a.38.38,0,0,1,0,.16l-.44.95a.68.68,0,0,0-.07.28.26.26,0,0,0,.29.28c.29,0,.51-.22.76-.55v.07a.49.49,0,0,0,.55.49,1.2,1.2,0,0,0,1-.82,2,2,0,0,0,.16-.55.35.35,0,0,0,.16,0,.43.43,0,0,0,.21,0l-.08.17c-.09.19-.19.4-.26.58a.86.86,0,0,0-.09.33.27.27,0,0,0,.3.3,1,1,0,0,0,.67-.45h0a1.111,1.111,0,0,0,0,.17c0,.14,0,.28.25.28a.82.82,0,0,0,.6-.39l-.15.35h.5l.4-.9c.22-.51.45-.82.66-.82a.07.07,0,0,1,.07.07,2.3,2.3,0,0,1-.24.56c-.1.21-.18.38-.23.51a1,1,0,0,0-.09.34.26.26,0,0,0,.28.28,1.09,1.09,0,0,0,.74-.5.91.91,0,0,0-.06.32.38.38,0,0,0,.41.43.78.78,0,0,0,.45-.15,2.07,2.07,0,0,0,.47-.51l-.08-.08a2,2,0,0,1-.39.43.44.44,0,0,1-.25.1c-.11,0-.17-.06-.17-.19a1.83,1.83,0,0,1,.15-.55s.14-.31.27-.6" fill="#0d0e0e"/>
      <path id="Trazado_20188" data-name="Trazado 20188" d="M17.79,29.9H18a2.81,2.81,0,0,0,2.63-2.35,3.13,3.13,0,0,0,.55-.11c.65-.18,1.38-.62,1.38-1.39s-.94-1.32-2.06-1.32a3,3,0,0,0-2.7,1.35,1.58,1.58,0,0,0-.17.71,1.06,1.06,0,0,0,.17.6,1,1,0,0,0,.94.42c.55,0,1-.3,1-.83a.14.14,0,0,0-.16-.15c-.14,0-.18.09-.18.15a.65.65,0,0,1-.66.74c-.5,0-.7-.42-.7-.87a2,2,0,0,1,1.41-1.79,2.9,2.9,0,0,1,1.05-.18c.82,0,1.48.32,1.48,1.15a1.39,1.39,0,0,1-1.29,1.35v-.09a5,5,0,0,1,.6-1.5l.08-.11v-.05l-.18.13c-1.35,1.05-1.39,4-3.19,4h-.18a.62.62,0,0,1-.57-.66c0-.07,0-.17,0-.22a.18.18,0,0,0-.19-.19c-.16,0-.23.13-.23.31,0,.53.37.84,1,.89" fill="#0d0e0e"/>
      <path id="Trazado_20189" data-name="Trazado 20189" d="M21.09,30.08v.75l-.53-.75h-.22V31.3h.25v-.76l.54.76h.21V30.08Z" fill="#0d0e0e"/>
      <path id="Trazado_20190" data-name="Trazado 20190" d="M22.36,30.08V31.3h.78v-.23h-.53v-.29h.46v-.22h-.46V30.3h.53v-.22Z" fill="#0d0e0e"/>
      <path id="Trazado_20191" data-name="Trazado 20191" d="M24.06,30.08v.22h.41v1h.25v-1h.41v-.22Z" fill="#0d0e0e"/>
      <path id="Trazado_20192" data-name="Trazado 20192" d="M27.43,30.08l-.26.79-.26-.79H26.7l-.25.79-.26-.79h-.28l.43,1.22h.21l.26-.78.26.78h.21l.42-1.22Z" fill="#0d0e0e"/>
      <path id="Trazado_20193" data-name="Trazado 20193" d="M28.78,30.39a.39.39,0,0,1,.54,0,.4.4,0,0,1,.1.3.372.372,0,0,1-.64.29.4.4,0,0,1-.11-.29.41.41,0,0,1,.11-.3m.27.92a.6.6,0,0,0,.63-.62.62.62,0,0,0-.18-.46.64.64,0,0,0-.45-.17.59.59,0,0,0-.63.63.63.63,0,0,0,.17.45.61.61,0,0,0,.46.17" fill="#0d0e0e"/>
      <path id="Trazado_20194" data-name="Trazado 20194" d="M30.85,30.3h.24a.16.16,0,0,1,.16.17.15.15,0,0,1-.16.16h-.24Zm0,.56h.2l.24.43h.28l-.26-.47a.35.35,0,0,0,.2-.35.4.4,0,0,0-.11-.29.37.37,0,0,0-.28-.1H30.6v1.21h.25Z" fill="#0d0e0e"/>
      <path id="Trazado_20195" data-name="Trazado 20195" d="M33.17,30.08l-.41.5v-.5H32.5V31.3h.26v-.34l.15-.18.33.52h.3l-.47-.73.42-.49Z" fill="#0d0e0e"/>
      <path id="Trazado_20196" data-name="Trazado 20196" d="M18.23,20.27A8.69,8.69,0,0,0,19.06,24l3.29-3.8.33-.15,1.25-1.75.61-.56.84-1.31.4-.33.85-1.22.56-.41.93.68.46.88s.4,1.14.65,1.9l.67,1.15,1.45.64,1.34,2.73L33,23.5l.5.42.63,1.18a8.7,8.7,0,1,0-15.94-4.83" fill="#0d0e0e"/>
      <path id="Trazado_20197" data-name="Trazado 20197" d="M21.93,21.34l-1.37,2.21.11-.02,1.03-1.49.28-.18.7-1.29h-.09Z" fill="#0d0e0e"/>
      <path id="Trazado_20198" data-name="Trazado 20198" d="M22.48,23.59l.59-.71.54-.9.27-.14.61-1.17.08-.72.34-.81h-.08l-.42.57-.23.17-.88,1.37.09.16-.98,2.18Z" fill="#0d0e0e"/>
      <path id="Trazado_20199" data-name="Trazado 20199" d="M23.72,24.16l-.13.46.13.06.57-.65.2-.93.26-.68-.1-.1-.85,1.54Z" fill="#0d0e0e"/>
      <path id="Trazado_20200" data-name="Trazado 20200" d="M26.7,25.52h1.22L27.75,25l1.95.72h2.1l-.52-1-.28-1,1.15,1.46h1.4l-.42-.87-.61-.59L31,20.26,30.23,20l-.19.23h-.13l-.26-.75L28.72,18,28,15.91l-.72-.72v2.1c0,.1-.55,1.64-.55,1.64l.74.49-1.29,3.47.25.17-.67,1.53Z" fill="#0d0e0e"/>
    </g>
  </g>
</svg>
