<svg xmlns="http://www.w3.org/2000/svg" width="60" height="60" viewBox="0 0 60 60">
  <g id="Grupo_16049" data-name="Grupo 16049" transform="translate(1406 -1136)">
    <rect id="Rectángulo_8427" data-name="Rectángulo 8427" width="60" height="60" transform="translate(-1406 1136)" fill="#fff"/>
    <g id="logo__54x40_network_rt_en_español" data-name="logo _54x40_network_rt en español" transform="translate(-1401.63 1145.53)">
      <rect id="Rectángulo_9203" data-name="Rectángulo 9203" width="16.37" height="16.37" transform="translate(17.63 10.47)" fill="#7ac143"/>
      <path id="Trazado_22136" data-name="Trazado 22136" d="M23.55,18.44a.78.78,0,0,0,.52-.23.84.84,0,0,0,.23-.57h0a.79.79,0,0,0-.75-.8h-1v1.6Zm2-2.19h.13a1.36,1.36,0,0,1,.93.41,1.39,1.39,0,0,1,.41,1h0a1.37,1.37,0,0,1-.41,1,1.3,1.3,0,0,1-.56.35l1.58,2.09H24.77l-1.4-2h-.8v2H19.82V16.25h5.76Z" fill-rule="evenodd"/>
      <path id="Trazado_22137" data-name="Trazado 22137" d="M29.07,16.84h-2.3v-.59H34v.59H31.82v4.23H29.07V16.84Z" fill-rule="evenodd"/>
      <path id="Trazado_22138" data-name="Trazado 22138" d="M23.4,30.25H22.08v-2H23.4v.35h-.93v.46h.79v.35h-.79v.49h.93Z" fill="#221f1f"/>
      <path id="Trazado_22139" data-name="Trazado 22139" d="M18.94,30.25H17.63v-2h1.31v.35H18v.46h.79v.35H18v.49h.92Z" fill="#221f1f"/>
      <path id="Trazado_22140" data-name="Trazado 22140" d="M25.06,29.67a.54.54,0,0,1-.21.44.84.84,0,0,1-.53.16,1,1,0,0,1-.73-.26l.25-.26a.65.65,0,0,0,.49.17c.23,0,.35-.08.35-.24a.22.22,0,0,0-.06-.17.3.3,0,0,0-.18-.07H24.2a.52.52,0,0,1-.53-.55.53.53,0,0,1,.19-.44.72.72,0,0,1,.5-.17.92.92,0,0,1,.65.23l-.25.25a.56.56,0,0,0-.41-.14.33.33,0,0,0-.23.07.25.25,0,0,0-.08.18.21.21,0,0,0,.07.15.3.3,0,0,0,.18.07h.23a.7.7,0,0,1,.39.15A.58.58,0,0,1,25.06,29.67Z" fill="#221f1f"/>
      <path id="Trazado_22141" data-name="Trazado 22141" d="M26.84,28.88a.58.58,0,0,1-.17.44.67.67,0,0,1-.49.18H25.8v.75h-.39v-2h.77a.67.67,0,0,1,.49.18.58.58,0,0,1,.17.45Zm-.39,0a.27.27,0,0,0-.07-.2.32.32,0,0,0-.22-.07H25.8v.54h.36a.32.32,0,0,0,.22-.07.27.27,0,0,0,.07-.2Z" fill="#221f1f"/>
      <path id="Trazado_22142" data-name="Trazado 22142" d="M28.7,30.25h-.41l-.11-.35h-.71l-.12.35h-.41l.73-2H28Zm-.63-.68-.24-.72-.25.72Z" fill="#221f1f"/>
      <path id="Trazado_22143" data-name="Trazado 22143" d="M30.46,30.25h-.35L29.32,29v1.22h-.39v-2h.35l.79,1.22V28.26h.39Zm-9.67,0h-.34L19.65,29v1.22h-.39v-2h.35l.79,1.22V28.26h.39Zm9.41-2.38a.45.45,0,0,1-.31.16.46.46,0,0,1-.22-.06.27.27,0,0,0-.16,0,.24.24,0,0,0-.16.08l-.16-.16a.49.49,0,0,1,.31-.17.44.44,0,0,1,.22.07.37.37,0,0,0,.15.05.25.25,0,0,0,.17-.08Z" fill="#221f1f"/>
      <path id="Trazado_22144" data-name="Trazado 22144" d="M32.32,29.26a4.24,4.24,0,0,1,0,.45.66.66,0,0,1-.18.34.7.7,0,0,1-.54.22.73.73,0,0,1-.54-.22.58.58,0,0,1-.17-.34,2.57,2.57,0,0,1,0-.45,2.64,2.64,0,0,1,0-.46.58.58,0,0,1,.17-.34.73.73,0,0,1,.54-.22.71.71,0,0,1,.72.56A4.32,4.32,0,0,1,32.32,29.26Zm-.39,0a2,2,0,0,0,0-.3.48.48,0,0,0-.09-.27.3.3,0,0,0-.25-.1.32.32,0,0,0-.25.1.48.48,0,0,0-.09.27s0,.13,0,.3v.29a.48.48,0,0,0,.09.27.32.32,0,0,0,.25.1.3.3,0,0,0,.27-.13A1,1,0,0,0,31.93,29.26Z" fill="#221f1f"/>
      <path id="Trazado_22145" data-name="Trazado 22145" d="M34,30.25H32.7v-2h.39V29.9H34Z" fill="#221f1f"/>
    </g>
  </g>
</svg>
