<svg xmlns="http://www.w3.org/2000/svg" width="60" height="60" viewBox="0 0 60 60">
  <g id="Grupo_14890" data-name="Grupo 14890" transform="translate(1472 -165)">
    <rect id="Rectángulo_8427" data-name="Rectángulo 8427" width="60" height="60" transform="translate(-1472 165)" fill="#fff"/>
    <g id="_266_space_color" data-name="266 space color" transform="translate(-1470.65 173.94)">
      <path id="Trazado_20227" data-name="Trazado 20227" d="M16.42,19.51a1.565,1.565,0,1,0,.03,0m0-5.45a6.8,6.8,0,1,0,6.8,6.8,6.8,6.8,0,0,0-6.8-6.8m0,10.5a3.5,3.5,0,0,1-1.49-6.68v-.75a1.5,1.5,0,0,1,3,0v.74a3.5,3.5,0,0,1-1.47,6.69"/>
      <path id="Trazado_20228" data-name="Trazado 20228" d="M32.72,20.11a1.78,1.78,0,0,0-1.89-1.76H29.24v5.08h1.11V21.86h.48a1.78,1.78,0,0,0,1.89-1.75m-2,.75h-.35V19.35h.35c.91,0,.91.57.91.76s0,.75-.91.75m-3.28-.42-.68-.22c-.6-.2-.6-.39-.6-.49s.07-.48.71-.48a2.25,2.25,0,0,1,1.5.57,5.45,5.45,0,0,1,.48-.83,2.6,2.6,0,0,0-2-.77c-1.1,0-1.9.64-1.9,1.53,0,.7.44,1.19,1.36,1.5l.69.23c.43.15.65.32.65.5s-.32.47-.75.47c-.68,0-.81-.31-.85-.62H24.86v.05a1.79,1.79,0,0,0,2,1.6c1.16,0,2-.64,2-1.54,0-.7-.48-1.2-1.43-1.5M47,22.73l-.15.28-.15-.28h-.15v.65h.16v-.31l.09.16h.1l.09-.16v.31h.16v-.65H47m-5.2.7h3.41v-1H43v-1h2.26v-1H43v-1h2.26v-1H41.83v5.08m-7.68-5.08-1.63,3.79L32,23.34v.09h1.21l.44-1.07h1.93c.1.22.44,1.07.44,1.07h1.21L35,18.35h-.86m-.13,3c.14-.35.35-.85.56-1.36.2.51.41,1,.55,1.36H34m12,1.51h.15v.51h.16v-.51h.16v-.14H46v.14m-8-2.15a1.56,1.56,0,0,1,.46-.93h.05a1.76,1.76,0,0,1,.81-.37h.48a1.81,1.81,0,0,1,.92.4l.17.15.76-.78-.2-.17a2.89,2.89,0,0,0-1.83-.65,2.7,2.7,0,0,0-2.82,2.62h0a2.69,2.69,0,0,0,2.82,2.61,2.89,2.89,0,0,0,1.83-.65l.2-.17-.76-.78-.17.15a1.66,1.66,0,0,1-.92.4h-.46a1.89,1.89,0,0,1-.81-.38h-.05a1.56,1.56,0,0,1-.46-.93.76.76,0,0,1,0-.15h0a.76.76,0,0,1,0-.15"/>
    </g>
  </g>
</svg>
