<svg xmlns="http://www.w3.org/2000/svg" width="60" height="60" viewBox="0 0 60 60">
  <g id="Grupo_14891" data-name="Grupo 14891" transform="translate(1406 -165)">
    <rect id="Rectángulo_8427" data-name="Rectángulo 8427" width="60" height="60" transform="translate(-1406 165)" fill="#fff"/>
    <g id="logo__54x40_network_star_life" data-name="logo _54x40_network_star life" transform="translate(-1402.23 174.63)">
      <path id="Trazado_20229" data-name="Trazado 20229" d="M35.36,15.93h-4.7c-.07,0-.1,0-.11-.1l-1.48-4.46-1.45,4.46c0,.07,0,.1-.1.1H22.81l3.8,2.77a.12.12,0,0,0,.14,0,12.05,12.05,0,0,1,3.94-1.6,28.83,28.83,0,0,0-5,4.77.34.34,0,0,0-.09.17l-.42,1.27L29,20.56h.16L33,23.31l-1.5-4.49a.1.1,0,0,1,.05-.12Z" fill="#020202"/>
      <path id="Trazado_20230" data-name="Trazado 20230" d="M38,14.73h1.28c.77,0,1.26.4,1.26,1.09a1.18,1.18,0,0,1-1.26,1.25H38Zm2.2,3.86a2.79,2.79,0,0,0,2.42-2.76c0-1.87-1.28-2.9-3.34-2.9H35.9v9.44H38V18.59l2.54,3.78h2.37Z" fill="#020202"/>
      <path id="Trazado_20231" data-name="Trazado 20231" d="M17.38,12.93v1.86h2.07v7.59h2.08V14.79h2.08V12.93Z" fill="#020202"/>
      <path id="Trazado_20232" data-name="Trazado 20232" d="M13.53,16.4c-.62-.27-.85-.58-.85-1a.88.88,0,0,1,1-.83,1.36,1.36,0,0,1,1.25,1l1.77-.79a3,3,0,0,0-3.11-2,2.74,2.74,0,0,0-3,2.63,2.63,2.63,0,0,0,1.71,2.45l1.32.66c.74.37,1.09.65,1.09,1.19a1,1,0,0,1-1.09,1,1.59,1.59,0,0,1-1.54-1.2l-1.85.54a3.32,3.32,0,0,0,3.38,2.46,2.93,2.93,0,0,0,3.18-2.82,2.88,2.88,0,0,0-2-2.72Z" fill="#020202"/>
      <path id="Trazado_20233" data-name="Trazado 20233" d="M21.42,26.32h.83v3h1.54v.77H21.42Z" fill="#020202"/>
      <path id="Trazado_20234" data-name="Trazado 20234" d="M24.56,26.32h.84V30.1h-.84Z" fill="#020202"/>
      <path id="Trazado_20235" data-name="Trazado 20235" d="M26.51,26.32H29v.77H27.3v.77h1.57v.77H27.34V30.1h-.83Z" fill="#020202"/>
      <path id="Trazado_20236" data-name="Trazado 20236" d="M30,26.32h2.57v.77H30.82v.71h1.64v.77H30.82v.76h1.83v.77H30Z" fill="#020202"/>
    </g>
  </g>
</svg>
