<svg xmlns="http://www.w3.org/2000/svg" width="60" height="60" viewBox="0 0 60 60">
  <g id="Grupo_14907" data-name="Grupo 14907" transform="translate(1406 -267)">
    <rect id="Rect치ngulo_8427" data-name="Rect치ngulo 8427" width="60" height="60" transform="translate(-1406 267)" fill="#fff"/>
    <g id="logo__54x40_network_studio_universal" data-name="logo _54x40_network_studio universal" transform="translate(-1403.31 275.57)">
      <path id="Trazado_20246" data-name="Trazado 20246" d="M13,26.73c-.35,0-.53-.2-.53-.41V24.93h.39v1.31c0,.1.09.14.17.14h.21a.14.14,0,0,0,.16-.14V24.93h.4v1.39a.46.46,0,0,1-.51.41Z" fill="#221f1f"/>
      <path id="Trazado_20247" data-name="Trazado 20247" d="M17.29,26.73l-.58-.99v.99h-.39v-1.8h.39l.57,1.03V24.93h.39v1.8Z" fill="#221f1f"/>
      <rect id="Rect치ngulo_8481" data-name="Rect치ngulo 8481" width="0.44" height="1.79" transform="translate(20.13 24.93)" fill="#221f1f"/>
      <path id="Trazado_20248" data-name="Trazado 20248" d="M23.52,26.73l-.59-1.8h.39l.39,1.26.39-1.26h.4l-.59,1.8Z" fill="#221f1f"/>
      <path id="Trazado_20249" data-name="Trazado 20249" d="M26.9,26.73v-1.8h1.11v.36h-.72v.35h.63v.35h-.63v.38h.75v.36Z" fill="#221f1f"/>
      <path id="Trazado_20250" data-name="Trazado 20250" d="M31.27,25.77c.07,0,.16,0,.16-.13v-.21c0-.09-.06-.14-.16-.14h-.34v.49h.34Zm.18,1-.26-.61h-.27v.61h-.39v-1.8h.78c.34,0,.52.21.52.41v.38a.41.41,0,0,1-.27.36l.32.64h-.43Z" fill="#221f1f"/>
      <path id="Trazado_20251" data-name="Trazado 20251" d="M34.79,26.73c-.36,0-.54-.2-.54-.41v-.15h.39v.07c0,.1.08.14.17.14H35s.17,0,.17-.14h0c0-.07-.14-.11-.3-.18s-.62-.22-.62-.54v-.16a.43.43,0,0,1,.48-.4H35c.34,0,.52.2.52.41v.22h-.4V25.4a.14.14,0,0,0-.16-.14H34.8c-.1,0-.16,0-.16.14h0c0,.07.15.14.32.2s.6.22.6.49v.19a.46.46,0,0,1-.51.41Z" fill="#221f1f"/>
      <path id="Trazado_20252" data-name="Trazado 20252" d="M38.89,26l-.19-.57h0l-.19.57Zm.23.71L39,26.37h-.64l-.12.36H37.9l.6-1.8h.39l.59,1.8Z" fill="#221f1f"/>
      <path id="Trazado_20253" data-name="Trazado 20253" d="M41.88,26.73v-1.8h.39v1.42h.69v.38Z" fill="#221f1f"/>
      <path id="Trazado_20254" data-name="Trazado 20254" d="M18.14,22.51V17.68H16.65V16.49H21v1.19H19.49v4.83Zm13.23-1.19h1c.36,0,.57-.18.57-.49V18.16c0-.3-.21-.48-.57-.48h-1ZM30,22.51v-6h2.52c1.14,0,1.74.68,1.74,1.35v3.32c0,.67-.6,1.36-1.74,1.36H30Zm6.87-6h1.35v6H36.9ZM25,22.56c-1.2,0-1.83-.68-1.83-1.35V16.48h1.35v4.41c0,.3.21.48.57.48h.39c.35,0,.57-.18.57-.48V16.48H27.4v4.73c0,.67-.61,1.35-1.75,1.35Zm17.67-4.93c-.36,0-.57.18-.57.49v2.77c0,.3.21.48.57.48h.39c.36,0,.58-.18.58-.48V18.12c0-.31-.22-.49-.58-.49Zm-.08,4.93c-1.21,0-1.83-.68-1.83-1.35V17.79c0-.67.62-1.36,1.83-1.36h.65c1.15,0,1.75.69,1.75,1.36v3.42c0,.67-.59,1.35-1.75,1.35Zm-30.45,0c-1.2,0-1.83-.69-1.83-1.35v-.48h1.35v.16c0,.3.21.48.57.48h.34c.15,0,.57,0,.57-.48v-.06c0-.29-.32-.43-.64-.55l-.16-.07h-.09c-.82-.36-1.94-.85-1.94-1.83v-.56A1.47,1.47,0,0,1,12,16.46h.78c1.15,0,1.75.68,1.75,1.35v.63H13.16v-.31c0-.3-.21-.48-.57-.48h-.34c-.36,0-.57.18-.57.48v.08c0,.3.38.47.83.67h.11l.21.1c.72.32,1.72.76,1.72,1.55v.66c0,.67-.6,1.35-1.75,1.35h-.65Z" fill="#221f1f"/>
    </g>
  </g>
</svg>
