<svg xmlns="http://www.w3.org/2000/svg" width="60" height="60" viewBox="0 0 60 60">
  <g id="Grupo_14864" data-name="Grupo 14864" transform="translate(1142 -99)">
    <rect id="Rectángulo_8427" data-name="Rectángulo 8427" width="60" height="60" transform="translate(-1142 99)" fill="#fff"/>
    <g id="logo__54x40_network_tbs" data-name="logo _54x40_network_tbs" transform="translate(-1139.4 108.27)">
      <path id="Trazado_20157" data-name="Trazado 20157" d="M35.26,13.73H12.4V24.05L16.32,28H38.85V17.32Zm-15.64,7.4h-2v4.78l-2.8-2.8V15.77h2.8v2.56h2Zm5.48,5a4.1,4.1,0,0,1-2.41-.78v.53H20.32V15.77H23v2.74a4.11,4.11,0,1,1,2.09,7.65m11.69-2.89c0,1.64-1.35,2.64-3.44,2.64h-2l-2-2.06h3.8c.47,0,.67-.12.67-.34h0c0-.22-.25-.34-1.08-.51-1.75-.36-3.29-.86-3.29-2.51h0c0-1.48,1.16-2.63,3.31-2.63h1.48l2,2.06H33c-.39,0-.57.14-.57.33h0c0,.21.21.34,1,.5,2,.37,3.33.95,3.33,2.52Z" fill="#2fa9e0"/>
      <path id="Trazado_20158" data-name="Trazado 20158" d="M25.1,20.62a1.43,1.43,0,1,0,1.43,1.43,1.43,1.43,0,0,0-1.43-1.43" fill="#2fa9e0"/>
      <path id="Trazado_20159" data-name="Trazado 20159" d="M40.28,27.11h-.32v-.16h.83v.16h-.32v.87h-.19Z" fill="#2fa9e0"/>
      <path id="Trazado_20160" data-name="Trazado 20160" d="M40.99,26.95h.19l.31.48.32-.48H42v1.03h-.18v-.74l-.33.48h0l-.33-.48v.74h-.17Z" fill="#2fa9e0"/>
    </g>
  </g>
</svg>
