<svg xmlns="http://www.w3.org/2000/svg" xmlns:xlink="http://www.w3.org/1999/xlink" width="60" height="60" viewBox="0 0 60 60">
  <defs>
    <clipPath id="clip-path">
      <rect id="Rectángulo_8737" data-name="Rectángulo 8737" width="28.1" height="19.1" transform="translate(12.87 11.97)" fill="none"/>
    </clipPath>
    <clipPath id="clip-path-3">
      <rect id="Rectángulo_8727" data-name="Rectángulo 8727" width="8.81" height="13.47" rx="0.93" transform="translate(12.87 11.97)" fill="none"/>
    </clipPath>
    <clipPath id="clip-path-5">
      <rect id="Rectángulo_8731" data-name="Rectángulo 8731" width="8.81" height="13.47" rx="0.93" transform="translate(22.52 11.97)" fill="none"/>
    </clipPath>
    <clipPath id="clip-path-7">
      <rect id="Rectángulo_8735" data-name="Rectángulo 8735" width="8.81" height="13.47" rx="0.93" transform="translate(32.17 11.97)" fill="none"/>
    </clipPath>
  </defs>
  <g id="Grupo_15199" data-name="Grupo 15199" transform="translate(1274 -826)">
    <rect id="Rectángulo_8427" data-name="Rectángulo 8427" width="60" height="60" transform="translate(-1274 826)" fill="#fff"/>
    <g id="_240_Discovery_TLC_Color" data-name="240 Discovery TLC Color" transform="translate(-1270.87 834.03)">
      <g id="Grupo_15198" data-name="Grupo 15198" clip-path="url(#clip-path)">
        <g id="Grupo_15191" data-name="Grupo 15191" clip-path="url(#clip-path)">
          <rect id="Rectángulo_8724" data-name="Rectángulo 8724" width="8.81" height="13.47" rx="0.93" transform="translate(12.87 11.97)" fill="#ed3226"/>
        </g>
        <g id="Grupo_15192" data-name="Grupo 15192" clip-path="url(#clip-path-3)">
          <rect id="Rectángulo_8726" data-name="Rectángulo 8726" width="8.81" height="13.47" transform="translate(12.87 11.97)" fill="#d62027"/>
        </g>
        <g id="Grupo_15193" data-name="Grupo 15193" clip-path="url(#clip-path)">
          <rect id="Rectángulo_8728" data-name="Rectángulo 8728" width="8.81" height="13.47" rx="0.93" transform="translate(22.52 11.97)" fill="#ed3226"/>
        </g>
        <g id="Grupo_15194" data-name="Grupo 15194" clip-path="url(#clip-path-5)">
          <rect id="Rectángulo_8730" data-name="Rectángulo 8730" width="8.81" height="13.47" transform="translate(22.52 11.97)" fill="#d62027"/>
        </g>
        <g id="Grupo_15195" data-name="Grupo 15195" clip-path="url(#clip-path)">
          <rect id="Rectángulo_8732" data-name="Rectángulo 8732" width="8.81" height="13.47" rx="0.93" transform="translate(32.17 11.97)" fill="#ed3226"/>
        </g>
        <g id="Grupo_15196" data-name="Grupo 15196" clip-path="url(#clip-path-7)">
          <rect id="Rectángulo_8734" data-name="Rectángulo 8734" width="8.81" height="13.47" transform="translate(32.17 11.97)" fill="#d62027"/>
        </g>
        <g id="Grupo_15197" data-name="Grupo 15197" clip-path="url(#clip-path)">
          <path id="Trazado_20605" data-name="Trazado 20605" d="M19.72,15.69H14.59a.11.11,0,0,0-.11.11v1a.11.11,0,0,0,.11.11h1.52a.47.47,0,0,1,.46.46V22a.11.11,0,0,0,.11.11h1A.11.11,0,0,0,17.8,22V17.38a.47.47,0,0,1,.46-.46h1.46a.11.11,0,0,0,.11-.11v-1a.11.11,0,0,0-.11-.11" fill="#fff"/>
          <path id="Trazado_20606" data-name="Trazado 20606" d="M28.78,20.84H26.91a.58.58,0,0,1-.59-.59V15.79a.11.11,0,0,0-.11-.1h-1a.11.11,0,0,0-.11.1v4.86a1.29,1.29,0,0,0,1.4,1.43h2.3a.11.11,0,0,0,.11-.11V21a.11.11,0,0,0-.11-.11" fill="#fff"/>
          <path id="Trazado_20607" data-name="Trazado 20607" d="M39,21.08l-.72-.72a.12.12,0,0,0-.16,0h0a2.008,2.008,0,1,1,0-2.96h0a.12.12,0,0,0,.16,0l.72-.72a.11.11,0,0,0,0-.14,3.22,3.22,0,1,0-2.2,5.56,3.16,3.16,0,0,0,2.2-.88.11.11,0,0,0,0-.14" fill="#fff"/>
          <path id="Trazado_20608" data-name="Trazado 20608" d="M21.08,28.6a1.45,1.45,0,0,1-1.54,1.45h-.88a1.27,1.27,0,0,0,.43-.46h.45a1,1,0,0,0,0-2H19v.43a1.9,1.9,0,0,0-.29-.28l-.22-.12v-.49h1.08a1.44,1.44,0,0,1,1.54,1.44m.29,1.47h.5V27.89h-.5ZM23.73,29a.94.94,0,0,0-.22-.12,1.17,1.17,0,0,0-.24-.09l-.18-.06a.59.59,0,0,1-.16-.07.31.31,0,0,1-.11-.08.12.12,0,0,1,0-.1h0a.17.17,0,0,1,.08-.16.36.36,0,0,1,.22-.06.82.82,0,0,1,.3.05,2.3,2.3,0,0,1,.32.15l.2-.35a1.57,1.57,0,0,0-.39-.19,1.51,1.51,0,0,0-.41-.06,1.06,1.06,0,0,0-.31,0,.77.77,0,0,0-.25.14.49.49,0,0,0-.16.21.6.6,0,0,0-.06.27h0a.54.54,0,0,0,.06.27.55.55,0,0,0,.16.18.78.78,0,0,0,.22.12l.24.07.18.06.16.06.11.08a.15.15,0,0,1,0,.11h0a.2.2,0,0,1-.09.17.44.44,0,0,1-.25.07,1.15,1.15,0,0,1-.35-.07,1.9,1.9,0,0,1-.37-.2l-.22.34a1.63,1.63,0,0,0,.45.24,1.61,1.61,0,0,0,.48.08,1.12,1.12,0,0,0,.32,0,.79.79,0,0,0,.26-.13.87.87,0,0,0,.17-.21.73.73,0,0,0,.06-.3h0a.53.53,0,0,0-.06-.26,1.29,1.29,0,0,0-.16-.17m4.83-.46a1.12,1.12,0,0,1,.09.44h0a1.08,1.08,0,0,1-.09.44,1.13,1.13,0,0,1-.24.36,1.09,1.09,0,0,1-.38.25A1.22,1.22,0,0,1,27,30a1.08,1.08,0,0,1-.37-.24.88.88,0,0,1-.24-.36,1.08,1.08,0,0,1-.09-.44h0a1.149,1.149,0,0,1,.33-.8,1.05,1.05,0,0,1,.37-.25,1.229,1.229,0,0,1,1.3.24,1.41,1.41,0,0,1,.24.36m-.41.45a.81.81,0,0,0,0-.27.55.55,0,0,0-.14-.22.65.65,0,0,0-.21-.16.75.75,0,0,0-.54,0,.66.66,0,0,0-.21.15.74.74,0,0,0-.14.22.84.84,0,0,0,0,.27h0a.76.76,0,0,0,.05.27.68.68,0,0,0,.14.23.8.8,0,0,0,.21.15.64.64,0,0,0,.54,0,.8.8,0,0,0,.21-.15.61.61,0,0,0,.13-.22.86.86,0,0,0,0-.27Zm1.65.51-.59-1.6h-.54l.9,2.2H30l.89-2.2h-.52Zm3.22-.9a1.33,1.33,0,0,1,.07.45v.06a.22.22,0,0,0,0,.08H31.46a.61.61,0,0,0,.63.55.84.84,0,0,0,.33-.06,1,1,0,0,0,.26-.2l.3.26a1.23,1.23,0,0,1-.38.3,1.14,1.14,0,0,1-.52.11,1.32,1.32,0,0,1-.44-.08,1.18,1.18,0,0,1-.35-.23A1.15,1.15,0,0,1,31,29h0a1.23,1.23,0,0,1,.08-.44,1.25,1.25,0,0,1,.22-.37,1.16,1.16,0,0,1,.34-.24,1.09,1.09,0,0,1,.89.01.8.8,0,0,1,.32.25,1,1,0,0,1,.2.38m-.43.2a.48.48,0,0,0,0-.17.78.78,0,0,0-.11-.18.52.52,0,0,0-.17-.13.54.54,0,0,0-.22,0,.5.5,0,0,0-.39.16.57.57,0,0,0-.18.36Zm-7.25.91a.7.7,0,0,1,0-1.4.73.73,0,0,1,.57.27l.31-.34a1.09,1.09,0,0,0-.87-.37A1.13,1.13,0,0,0,24.17,29a1.15,1.15,0,0,0,2,.72l-.3-.3a.77.77,0,0,1-.57.27M34,28.25v-.36h-.5v2.18H34v-.83a1,1,0,0,1,.06-.38.94.94,0,0,1,.79-.54l-.18-.42a1.1,1.1,0,0,0-.67.35m2.62-.36L36,29.49l-.52-1.6H35l.81,2.17h0a1.68,1.68,0,0,1-.31.55,1.36,1.36,0,0,1-.48.05v.41a1.88,1.88,0,0,0,.72-.08c.17-.1.2-.15.32-.38s1.08-2.73,1.08-2.73Z" fill="#969797"/>
          <path id="Trazado_20609" data-name="Trazado 20609" d="M19.05,28.92a1.16,1.16,0,1,0-1.16,1.15,1.16,1.16,0,0,0,1.16-1.15" fill="#969797"/>
        </g>
      </g>
    </g>
  </g>
</svg>
