<svg xmlns="http://www.w3.org/2000/svg" width="60" height="60" viewBox="0 0 60 60">
  <g id="Grupo_16045" data-name="Grupo 16045" transform="translate(1274 -1031)">
    <rect id="Rectángulo_8427" data-name="Rectángulo 8427" width="60" height="60" transform="translate(-1274 1031)" fill="#fff"/>
    <g id="logo__54x40_network_tlr_teleritmo" data-name="logo _54x40_network_tlr teleritmo" transform="translate(-1272 1040.5)">
      <path id="Trazado_21987" data-name="Trazado 21987" d="M35.49,29.2h0l.08-.09.05-.05.15-.17c.07-.1.15-.19.24-.3l.09-.11.2-.26.16-.21c.13-.17.25-.35.38-.54a12.38,12.38,0,0,0,.78-1.26l.15-.29H18.2a.56.56,0,0,0,.05.08A11.68,11.68,0,0,0,19,27.22c.12.2.25.38.37.55l.35.47c.17.22.33.41.47.58l.09.1.06.07.37.4.06.05.11.12H35.12c.06-.08.16-.18.27-.3Z" fill="#5e1450"/>
      <path id="Trazado_21988" data-name="Trazado 21988" d="M42,20.74v0Z" fill="#5e1450"/>
      <path id="Trazado_21989" data-name="Trazado 21989" d="M41.06,16.64,41,16.5a10.79,10.79,0,0,0-.73-1.25A10.79,10.79,0,0,1,41,16.5Z" fill="#5e1450"/>
      <path id="Trazado_21990" data-name="Trazado 21990" d="M36,12.46l.06.06.18.21L36,12.52Z" fill="#5e1450"/>
      <path id="Trazado_21991" data-name="Trazado 21991" d="M36.76,13.41l.28.38.17.24L37,13.79Z" fill="#5e1450"/>
      <path id="Trazado_21992" data-name="Trazado 21992" d="M39.2,23.23a11.5,11.5,0,0,1-.4,1.3c-.06.13-.11.27-.17.4.06-.13.11-.27.17-.4A11.5,11.5,0,0,0,39.2,23.23Z" fill="#5e1450"/>
      <path id="Trazado_21993" data-name="Trazado 21993" d="M39,17.69A11.391,11.391,0,0,1,39.34,19a1.85,1.85,0,0,1,0,.23,1.851,1.851,0,0,0,0-.23A11.39,11.39,0,0,0,39,17.69Z" fill="#5e1450"/>
      <path id="Trazado_21994" data-name="Trazado 21994" d="M39.49,20.67v0Z" fill="#5e1450"/>
      <path id="Trazado_21995" data-name="Trazado 21995" d="M39.47,20.14a2.831,2.831,0,0,1,0,.29,1.93,1.93,0,0,0,0,.24,1.93,1.93,0,0,1,0-.24A2.831,2.831,0,0,0,39.47,20.14Z" fill="#5e1450"/>
      <path id="Trazado_21996" data-name="Trazado 21996" d="M41.86,19.17v-.29h0Z" fill="#5e1450"/>
      <path id="Trazado_21997" data-name="Trazado 21997" d="M36.57,12.05h0L36.42,12l.12.06Z" fill="#5e1450"/>
      <path id="Trazado_21998" data-name="Trazado 21998" d="M39.33,14.08c-.2-.21-.41-.41-.61-.59l-.3-.27.3.27C38.92,13.67,39.13,13.87,39.33,14.08Z" fill="#5e1450"/>
      <path id="Trazado_21999" data-name="Trazado 21999" d="M41.22,17l.11.25.09.26a.759.759,0,0,1,0,.11.759.759,0,0,0,0-.11l-.09-.26L41.22,17v0Z" fill="#5e1450"/>
      <path id="Trazado_22000" data-name="Trazado 22000" d="M35.59,11.7h0l-.17.18h0Z" fill="#5e1450"/>
      <path id="Trazado_22001" data-name="Trazado 22001" d="M36.25,11.91h-.1Z" fill="#5e1450"/>
      <path id="Trazado_22002" data-name="Trazado 22002" d="M41.74,18.6h0a2.118,2.118,0,0,0-.14-.55v0C41.65,18.23,41.7,18.41,41.74,18.6Z" fill="#5e1450"/>
      <path id="Trazado_22003" data-name="Trazado 22003" d="M35.68,11.72Z" fill="#5e1450"/>
      <path id="Trazado_22004" data-name="Trazado 22004" d="M36.54,13.13a1.945,1.945,0,0,1,.13.16l.09.12-.09-.12C36.63,13.23,36.58,13.18,36.54,13.13Z" fill="#5e1450"/>
      <path id="Trazado_22005" data-name="Trazado 22005" d="M36,29.87l-.15.06Z" fill="#5e1450"/>
      <path id="Trazado_22006" data-name="Trazado 22006" d="M35.43,30.06l-.18-.18.18.18.25-.08h0Z" fill="#5e1450"/>
      <path id="Trazado_22007" data-name="Trazado 22007" d="M35.25,29.88Z" fill="#5e1450"/>
      <path id="Trazado_22008" data-name="Trazado 22008" d="M36.09,29.82h.07Z" fill="#5e1450"/>
      <path id="Trazado_22009" data-name="Trazado 22009" d="M39.35,22.54a10.831,10.831,0,0,0,.14-1.29,10.831,10.831,0,0,1-.14,1.29Z" fill="#5e1450"/>
      <path id="Trazado_22010" data-name="Trazado 22010" d="M40.35,26.24h0a9.741,9.741,0,0,0,.54-.9,10.09,10.09,0,0,0,.47-1.05,10.09,10.09,0,0,1-.47,1.05A9.741,9.741,0,0,1,40.35,26.24Z" fill="#5e1450"/>
      <path id="Trazado_22011" data-name="Trazado 22011" d="M42,20.81v.12a8.91,8.91,0,0,1-.07,1,8.91,8.91,0,0,0,.07-1Z" fill="#5e1450"/>
      <path id="Trazado_22012" data-name="Trazado 22012" d="M36.4,28.57l.1-.12.2-.27-.2.27Z" fill="#5e1450"/>
      <path id="Trazado_22013" data-name="Trazado 22013" d="M35.42,29.7l.28-.31Z" fill="#5e1450"/>
      <path id="Trazado_22014" data-name="Trazado 22014" d="M37.27,27.4l-.4.56.4-.56a13.58,13.58,0,0,0,.81-1.32l.16-.3-.16.3a13.58,13.58,0,0,1-.81,1.32Z" fill="#5e1450"/>
      <path id="Trazado_22015" data-name="Trazado 22015" d="M39.77,27a9.85,9.85,0,0,1-1.23,1.26,2.42,2.42,0,0,1-.31.25l-.3.23-.22.16.22-.16.3-.23a2.42,2.42,0,0,0,.31-.25A9.85,9.85,0,0,0,39.77,27a9.46,9.46,0,0,0,.58-.79h0a9.46,9.46,0,0,1-.58.79Z" fill="#5e1450"/>
      <path id="Trazado_22016" data-name="Trazado 22016" d="M41.14,16.8v-.05Z" fill="#5e1450"/>
      <path id="Trazado_22017" data-name="Trazado 22017" d="M36.54,13.13l-.33-.4Z" fill="#5e1450"/>
      <path id="Trazado_22018" data-name="Trazado 22018" d="M41.89,19.38v.37A.772.772,0,0,0,41.89,19.38Z" fill="#5e1450"/>
      <path id="Trazado_22019" data-name="Trazado 22019" d="M41.75,18.64a1.55,1.55,0,0,1,0,.23A1.55,1.55,0,0,0,41.75,18.64Z" fill="#5e1450"/>
      <path id="Trazado_22020" data-name="Trazado 22020" d="M36.57,12.05l.42.21Z" fill="#5e1450"/>
      <path id="Trazado_22021" data-name="Trazado 22021" d="M38.27,25.71q.19-.37.36-.78A6.957,6.957,0,0,1,38.27,25.71Z" fill="#5e1450"/>
      <path id="Trazado_22022" data-name="Trazado 22022" d="M35.29,29.84l.12-.13Z" fill="#5e1450"/>
      <path id="Trazado_22023" data-name="Trazado 22023" d="M42,20.38h0a2.316,2.316,0,0,0-.05-.59A2.4,2.4,0,0,0,42,20.38Z" fill="#5e1450"/>
      <path id="Trazado_22024" data-name="Trazado 22024" d="M39.41,19.43a1.907,1.907,0,0,0,.05.53,1.09,1.09,0,0,1,0,.18,1.091,1.091,0,0,0,0-.18C39.45,19.78,39.43,19.61,39.41,19.43Z" fill="#5e1450"/>
      <path id="Trazado_22025" data-name="Trazado 22025" d="M38.64,16.65l.24.62a1.385,1.385,0,0,0,.14.42c-.05-.14-.09-.28-.14-.42Z" fill="#5e1450"/>
      <path id="Trazado_22026" data-name="Trazado 22026" d="M41.36,24.29a8.83,8.83,0,0,0,.33-1l.12-.52-.12.52A8.831,8.831,0,0,1,41.36,24.29Z" fill="#5e1450"/>
      <path id="Trazado_22027" data-name="Trazado 22027" d="M39.49,20.75Z" fill="#5e1450"/>
      <path id="Trazado_22028" data-name="Trazado 22028" d="M39.35,22.54a.372.372,0,0,1-.05.23,2.724,2.724,0,0,0-.1.46,2.72,2.72,0,0,1,.1-.46C39.33,22.61,39.33,22.62,39.35,22.54Z" fill="#5e1450"/>
      <path id="Trazado_22029" data-name="Trazado 22029" d="M40.27,15.25c-.11-.16-.23-.32-.34-.46s-.3-.37-.45-.54q.23.25.45.54A5.367,5.367,0,0,0,40.27,15.25Z" fill="#5e1450"/>
      <path id="Trazado_22030" data-name="Trazado 22030" d="M36.21,29.77l.15-.07h0Z" fill="#5e1450"/>
      <path id="Trazado_22031" data-name="Trazado 22031" d="M36,29.87Z" fill="#5e1450"/>
      <path id="Trazado_22032" data-name="Trazado 22032" d="M37.43,14.36,37.21,14l.22.33a12.61,12.61,0,0,1,.77,1.33c.12.23.23.47.34.71-.11-.24-.22-.48-.34-.71a12.609,12.609,0,0,0-.77-1.3Z" fill="#5e1450"/>
      <path id="Trazado_22033" data-name="Trazado 22033" d="M36,11.8h-.1Z" fill="#5e1450"/>
      <path id="Trazado_22034" data-name="Trazado 22034" d="M37.41,12.5l.13.09a6.07,6.07,0,0,1,.58.4,6.07,6.07,0,0,0-.58-.4l-.13-.09-.14-.08-.22-.13.22.13Z" fill="#5e1450"/>
      <path id="Trazado_22035" data-name="Trazado 22035" d="M36.42,12h-.09a.2.2,0,0,0-.08,0,.2.2,0,0,1,.08,0Z" fill="#5e1450"/>
      <path id="Trazado_22036" data-name="Trazado 22036" d="M35.51,12l.07.07.39.42L35.58,12Z" fill="#5e1450"/>
      <path id="Trazado_22037" data-name="Trazado 22037" d="M36.36,29.7h0l.49-.24Z" fill="#5e1450"/>
      <path id="Trazado_22038" data-name="Trazado 22038" d="M36,29.06v0c0-.06.11-.12.16-.19l.25-.3-.25.3C36.1,28.94,36,29,36,29.06Z" fill="#5e1450"/>
      <path id="Trazado_22039" data-name="Trazado 22039" d="M35.81,29.26Z" fill="#5e1450"/>
      <path id="Trazado_22040" data-name="Trazado 22040" d="M36.87,28l-.17.22Z" fill="#5e1450"/>
      <path id="Trazado_22041" data-name="Trazado 22041" d="M37.36,29.16l-.28.16.28-.16.28-.18.07-.05-.07.05Z" fill="#5e1450"/>
      <path id="Trazado_22042" data-name="Trazado 22042" d="M35.42,29.7h0l-.12.13h0l.18.18.25-.08h.14l.15-.06h.21l.15-.07Z" fill="#5e1450"/>
      <path id="Trazado_22043" data-name="Trazado 22043" d="M36.09,29.82H36Z" fill="#5e1450"/>
      <path id="Trazado_22044" data-name="Trazado 22044" d="M39.49,20.67Z" fill="#5e1450"/>
      <path id="Trazado_22045" data-name="Trazado 22045" d="M37.05,12.29Z" fill="#5e1450"/>
      <path id="Trazado_22046" data-name="Trazado 22046" d="M41.91,22.11a2.889,2.889,0,0,1,0,.29,2.89,2.89,0,0,0,0-.29Z" fill="#5e1450"/>
      <path id="Trazado_22047" data-name="Trazado 22047" d="M41.57,18l-.06-.18a1.419,1.419,0,0,0,0-.16,1.419,1.419,0,0,1,0,.16Z" fill="#5e1450"/>
      <path id="Trazado_22048" data-name="Trazado 22048" d="M35.68,11.72Z" fill="#5e1450"/>
      <path id="Trazado_22049" data-name="Trazado 22049" d="M42,20.81v-.43h0a2.316,2.316,0,0,0-.05-.59.9.9,0,0,1,0-.37v-.5h0a1.55,1.55,0,0,0,0-.23h0a2.118,2.118,0,0,0-.14-.55v-.09l-.06-.18a1.419,1.419,0,0,0,0-.16.759.759,0,0,0,0-.11l-.09-.26L41.22,17v-.36L41,16.5a10.79,10.79,0,0,0-.73-1.25c-.11-.16-.23-.32-.34-.46s-.3-.37-.45-.54l-.15-.17c-.2-.21-.41-.41-.61-.59l-.3-.27-.3-.23a6.071,6.071,0,0,0-.58-.4l-.13-.09-.14-.08-.22-.13h0l-.42-.21h0L36.42,12h-.09a.2.2,0,0,0-.08,0h-.62l-.17.18h0l.07.07.39.42.06.06.18.21.33.4a1.945,1.945,0,0,1,.13.16l.09.12.28.38.17.24.22.33a12.611,12.611,0,0,1,.77,1.33c.12.23.23.47.34.71l.1.25.24.62a1.385,1.385,0,0,0,.14.42,11.39,11.39,0,0,1,.37,1.1,1.851,1.851,0,0,1,0,.23v.17a1.907,1.907,0,0,0,.05.53,1.09,1.09,0,0,1,0,.18,2.831,2.831,0,0,1,0,.29,1.93,1.93,0,0,0,0,.24h0v.58a10.831,10.831,0,0,1-.14,1.29.372.372,0,0,1-.05.23,2.724,2.724,0,0,0-.1.46,11.5,11.5,0,0,1-.4,1.3c-.06.13-.11.27-.17.4s-.23.53-.36.78v.07l-.16.3a13.58,13.58,0,0,1-.81,1.32l-.4.56-.17.22-.2.27-.1.12-.25.3c0,.07-.11.13-.16.19v.05l-.08.09h0l-.11.13-.28.31h.94l.49-.24.23-.14.28-.16.28-.18.07-.05.22-.16.3-.23a2.42,2.42,0,0,0,.31-.25,9.85,9.85,0,0,0,1.2-1.2,9.461,9.461,0,0,0,.58-.79,9.74,9.74,0,0,0,.54-.9,10.089,10.089,0,0,0,.47-1.05,8.829,8.829,0,0,0,.33-1l.12-.52V22.4a2.889,2.889,0,0,0,0-.29.77.77,0,0,0,0-.15,8.91,8.91,0,0,0,.07-1Z" fill="#5e1450"/>
      <path id="Trazado_22050" data-name="Trazado 22050" d="M35.81,29.26l-.11.13Z" fill="#5e1450"/>
      <path id="Trazado_22051" data-name="Trazado 22051" d="M16.78,23l.06.27Z" fill="#5e1450"/>
      <path id="Trazado_22052" data-name="Trazado 22052" d="M16.52,14.22a3.88,3.88,0,0,0-.26.31c-.2.25-.4.51-.59.79.19-.28.39-.54.59-.79a3.88,3.88,0,0,1,.26-.31Z" fill="#5e1450"/>
      <path id="Trazado_22053" data-name="Trazado 22053" d="M20.77,11.69l-.13.13Z" fill="#5e1450"/>
      <path id="Trazado_22054" data-name="Trazado 22054" d="M20.5,11.53Z" fill="#5e1450"/>
      <path id="Trazado_22055" data-name="Trazado 22055" d="M19,12.19l-.35.21h0Z" fill="#5e1450"/>
      <path id="Trazado_22056" data-name="Trazado 22056" d="M19.93,11.74h-.06Z" fill="#5e1450"/>
      <path id="Trazado_22057" data-name="Trazado 22057" d="M20.6,11.5h0Z" fill="#5e1450"/>
      <path id="Trazado_22058" data-name="Trazado 22058" d="M20.31,11.6h0Z" fill="#5e1450"/>
      <path id="Trazado_22059" data-name="Trazado 22059" d="M18.1,12.79l.29-.21.09-.06-.09.06-.29.21-.3.22-.08.06L17.8,13Z" fill="#5e1450"/>
      <path id="Trazado_22060" data-name="Trazado 22060" d="M14.67,24.21v-.07Z" fill="#5e1450"/>
      <path id="Trazado_22061" data-name="Trazado 22061" d="M20.38,29.85Z" fill="#5e1450"/>
      <path id="Trazado_22062" data-name="Trazado 22062" d="M14.43,23.51a2.963,2.963,0,0,0-.14-.55c-.04-.19,0-.19-.06-.28v0a.492.492,0,0,0,.06.28,3.619,3.619,0,0,1,.14.55l.09.27a.88.88,0,0,0,.05.15.88.88,0,0,1-.05-.15Z" fill="#5e1450"/>
      <path id="Trazado_22063" data-name="Trazado 22063" d="M15.67,15.32a9.69,9.69,0,0,0-.53.9l-.12.24.12-.24a9.691,9.691,0,0,1,.53-.9Z" fill="#5e1450"/>
      <path id="Trazado_22064" data-name="Trazado 22064" d="M14.42,18a1.29,1.29,0,0,1-.08.28,9.87,9.87,0,0,0-.26,1.44,9.87,9.87,0,0,1,.26-1.44C14.36,18.21,14.39,18.12,14.42,18Z" fill="#5e1450"/>
      <path id="Trazado_22065" data-name="Trazado 22065" d="M14,20.93h0a2.71,2.71,0,0,1,0,.29v0A2.71,2.71,0,0,0,14,20.93Z" fill="#5e1450"/>
      <path id="Trazado_22066" data-name="Trazado 22066" d="M14.08,21.66v0Z" fill="#5e1450"/>
      <path id="Trazado_22067" data-name="Trazado 22067" d="M20.46,29.84l.13-.14h0Z" fill="#5e1450"/>
      <path id="Trazado_22068" data-name="Trazado 22068" d="M16.6,22v-.35a1.09,1.09,0,0,1,0-.18,1.09,1.09,0,0,0,0,.18Z" fill="#5e1450"/>
      <path id="Trazado_22069" data-name="Trazado 22069" d="M16.54,20.93Z" fill="#5e1450"/>
      <path id="Trazado_22070" data-name="Trazado 22070" d="M17,17.89c.08-.29.18-.58.28-.86a10.241,10.241,0,0,1,.44-1c-.16.32-.3.66-.44,1A2.327,2.327,0,0,0,17,17.89Z" fill="#5e1450"/>
      <path id="Trazado_22071" data-name="Trazado 22071" d="M17.79,25.78c-.11-.21-.21-.43-.31-.65C17.58,25.35,17.68,25.57,17.79,25.78Z" fill="#5e1450"/>
      <path id="Trazado_22072" data-name="Trazado 22072" d="M18.76,14.16A12.471,12.471,0,0,0,18,15.48l-.19.36.19-.36a12.47,12.47,0,0,1,.81-1.32c.27-.39.53-.74.77-1.05l.08-.1-.08.1A6.689,6.689,0,0,0,18.76,14.16Z" fill="#5e1450"/>
      <path id="Trazado_22073" data-name="Trazado 22073" d="M20.59,11.88l-.27.3Z" fill="#5e1450"/>
      <path id="Trazado_22074" data-name="Trazado 22074" d="M19.78,12.81l.1-.13.11-.12-.11.12Z" fill="#5e1450"/>
      <path id="Trazado_22075" data-name="Trazado 22075" d="M20.39,29.46,20,29h0Z" fill="#5e1450"/>
      <path id="Trazado_22076" data-name="Trazado 22076" d="M19.65,29.59h.05Z" fill="#5e1450"/>
      <path id="Trazado_22077" data-name="Trazado 22077" d="M19,29.29Z" fill="#5e1450"/>
      <path id="Trazado_22078" data-name="Trazado 22078" d="M19.38,29.47l.11.05h0Z" fill="#5e1450"/>
      <path id="Trazado_22079" data-name="Trazado 22079" d="M18.89,29.22Z" fill="#5e1450"/>
      <path id="Trazado_22080" data-name="Trazado 22080" d="M17.83,25.87a14.639,14.639,0,0,0,.77,1.33q.2.3.39.57l.37.5c.18.22.34.42.49.59-.15-.17-.31-.37-.49-.59l-.37-.5q-.19-.27-.39-.57a14.639,14.639,0,0,1-.77-1.33.36.36,0,0,1,0-.09h0a.36.36,0,0,0,0,.09Z" fill="#5e1450"/>
      <path id="Trazado_22081" data-name="Trazado 22081" d="M20.58,29.65Z" fill="#5e1450"/>
      <path id="Trazado_22082" data-name="Trazado 22082" d="M16.4,27.14a10.091,10.091,0,0,0,.91.93,10.45,10.45,0,0,0,1,.79,10.45,10.45,0,0,1-1-.79,10.09,10.09,0,0,1-.91-.93Z" fill="#5e1450"/>
      <path id="Trazado_22083" data-name="Trazado 22083" d="M14.08,21.66a2.19,2.19,0,0,1,0-.36A2.19,2.19,0,0,0,14.08,21.66Z" fill="#5e1450"/>
      <path id="Trazado_22084" data-name="Trazado 22084" d="M18.48,12.52l.11-.07Z" fill="#5e1450"/>
      <path id="Trazado_22085" data-name="Trazado 22085" d="M19,12.19l.18-.1Z" fill="#5e1450"/>
      <path id="Trazado_22086" data-name="Trazado 22086" d="M20.5,11.53Z" fill="#5e1450"/>
      <path id="Trazado_22087" data-name="Trazado 22087" d="M19.78,12.81l-.17.2Z" fill="#5e1450"/>
      <path id="Trazado_22088" data-name="Trazado 22088" d="M14.42,18a8.84,8.84,0,0,1,.6-1.56,8.84,8.84,0,0,0-.6,1.56Z" fill="#5e1450"/>
      <path id="Trazado_22089" data-name="Trazado 22089" d="M14.12,22a.9.9,0,0,0,.05.36v0A2.394,2.394,0,0,1,14.12,22Z" fill="#5e1450"/>
      <path id="Trazado_22090" data-name="Trazado 22090" d="M20.17,11.65h-.12l-.12.05.13-.05Z" fill="#5e1450"/>
      <path id="Trazado_22091" data-name="Trazado 22091" d="M17.49,13.27l.23-.2-.23.2a9.56,9.56,0,0,0-1,1,9.56,9.56,0,0,1,1-1Z" fill="#5e1450"/>
      <path id="Trazado_22092" data-name="Trazado 22092" d="M19.8,11.8l-.13.06-.47.23.47-.23Z" fill="#5e1450"/>
      <path id="Trazado_22093" data-name="Trazado 22093" d="M20.77,11.69h0l-.18-.18h0Z" fill="#5e1450"/>
      <path id="Trazado_22094" data-name="Trazado 22094" d="M20.5,11.53l-.15.05h0Z" fill="#5e1450"/>
      <path id="Trazado_22095" data-name="Trazado 22095" d="M19.92,29.7h0l.26.09.18.05-.18-.05Z" fill="#5e1450"/>
      <path id="Trazado_22096" data-name="Trazado 22096" d="M14.08,19.74a8.849,8.849,0,0,0-.05.89h0a8.849,8.849,0,0,1,.05-.89Z" fill="#5e1450"/>
      <path id="Trazado_22097" data-name="Trazado 22097" d="M20.59,11.88Z" fill="#5e1450"/>
      <path id="Trazado_22098" data-name="Trazado 22098" d="M20.43,29.86Z" fill="#5e1450"/>
      <path id="Trazado_22099" data-name="Trazado 22099" d="M15,25.05l-.11-.24-.06-.12v-.13l-.1-.25v0l.1.25v.13l.06.12.11.24a11.13,11.13,0,0,0,.65,1.13h0A11.13,11.13,0,0,1,15,25.05Z" fill="#5e1450"/>
      <path id="Trazado_22100" data-name="Trazado 22100" d="M14.57,23.93a.56.56,0,0,0,0,.12v0a.56.56,0,0,1,0-.12Z" fill="#5e1450"/>
      <path id="Trazado_22101" data-name="Trazado 22101" d="M16.73,22.76v-.23c0-.07-.06-.39-.09-.58a1.307,1.307,0,0,0,.09.58C16.82,22.72,16.72,22.68,16.73,22.76Z" fill="#5e1450"/>
      <path id="Trazado_22102" data-name="Trazado 22102" d="M20,12.5l-.05.06L20,12.5l.14-.17.14-.15-.14.15Z" fill="#5e1450"/>
      <path id="Trazado_22103" data-name="Trazado 22103" d="M17.48,25.13l-.33-.84c-.11-.33-.22-.68-.31-1a9.163,9.163,0,0,0,.31,1Z" fill="#5e1450"/>
      <path id="Trazado_22104" data-name="Trazado 22104" d="M16.56,21.42a2.83,2.83,0,0,1,0-.29h0a2.83,2.83,0,0,0,0,.29Z" fill="#5e1450"/>
      <path id="Trazado_22105" data-name="Trazado 22105" d="M16.54,20.65h0a9.54,9.54,0,0,1,.19-1.86,3.18,3.18,0,0,1,.15-.68c-.05.22-.11.45-.15.68a9.54,9.54,0,0,0-.19,1.86Z" fill="#5e1450"/>
      <path id="Trazado_22106" data-name="Trazado 22106" d="M16.4,27.14l-.3-.37-.42-.59h0l.42.59Z" fill="#5e1450"/>
      <path id="Trazado_22107" data-name="Trazado 22107" d="M19.38,29.47l-.28-.14Z" fill="#5e1450"/>
      <path id="Trazado_22108" data-name="Trazado 22108" d="M19.65,29.59l-.11-.05Z" fill="#5e1450"/>
      <path id="Trazado_22109" data-name="Trazado 22109" d="M19,29.29l-.13-.07Z" fill="#5e1450"/>
      <path id="Trazado_22110" data-name="Trazado 22110" d="M19.88,29.69l-.11-.05.11.05Z" fill="#5e1450"/>
      <path id="Trazado_22111" data-name="Trazado 22111" d="M20.57,29.63h0a.66.66,0,0,1-.12-.12l-.06-.05.06.05A.66.66,0,0,0,20.57,29.63Z" fill="#5e1450"/>
      <path id="Trazado_22112" data-name="Trazado 22112" d="M19.85,28.86l.09.11Z" fill="#5e1450"/>
      <path id="Trazado_22113" data-name="Trazado 22113" d="M18.63,29.06,18.49,29l-.17-.11.17.11.14.09.13.08.13.08-.13-.08Z" fill="#5e1450"/>
      <path id="Trazado_22114" data-name="Trazado 22114" d="M19.92,29.7l.26.09.18.05h.09l.13-.14Z" fill="#5e1450"/>
      <path id="Trazado_22115" data-name="Trazado 22115" d="M20.6,11.5h-.07l-.15.05h-.21l-.13.05h-.13l-.13.06-.47.23-.18.1-.35.21H18.7l-.11.07-.09.06-.29.21-.3.22-.08.06-.23.2a9.56,9.56,0,0,0-1,1,3.88,3.88,0,0,0-.26.31c-.2.25-.4.51-.59.79a9.69,9.69,0,0,0-.53.9l-.12.24a8.84,8.84,0,0,0-.6,1.56,1.29,1.29,0,0,1-.08.28,9.87,9.87,0,0,0-.26,1.44,8.85,8.85,0,0,0-.05.89v.3a2.71,2.71,0,0,1,0,.29s0,.05,0,.08a2.19,2.19,0,0,0,0,.36q0,.075,0,.15v.22a.9.9,0,0,0,.05.36v.29a.492.492,0,0,0,.06.28,3.619,3.619,0,0,1,.14.55l.09.27a.88.88,0,0,0,.05.15.56.56,0,0,0,0,.12v.26l.1.25v.13l.06.12.11.24a11.13,11.13,0,0,0,.65,1.13l.42.59.3.37a10.09,10.09,0,0,0,.91.93,10.45,10.45,0,0,0,1,.79l.17.11.14.09.13.08.13.08h0l.13.07h.08l.28.14.11.05h.05l.11.05h.12l.11.05h.71a.66.66,0,0,1-.12-.12l-.06-.05L20,29h-.06l-.09-.11c-.15-.17-.31-.37-.49-.59l-.37-.5q-.19-.27-.39-.57a14.639,14.639,0,0,1-.77-1.33.36.36,0,0,1,0-.09c-.11-.21-.21-.43-.31-.65l-.33-.84c-.11-.33-.22-.68-.31-1l-.1-.32a.357.357,0,0,0-.05-.22c-.05-.07,0-.16,0-.23s-.06-.39-.09-.58v-.35a1.09,1.09,0,0,1,0-.18,2.831,2.831,0,0,1,0-.29h0v-.47a9.54,9.54,0,0,1,.19-1.86,3.18,3.18,0,0,1,.15-.68,1.42,1.42,0,0,1,.07-.22c.08-.29.18-.58.28-.86a10.241,10.241,0,0,1,.44-1l.09-.19.19-.36a12.47,12.47,0,0,1,.81-1.32c.27-.39.53-.74.77-1.05l.08-.1.17-.2.1-.13.11-.12L20,12.5l.14-.17.14-.15.27-.3h0l.13-.13h0Z" fill="#5e1450"/>
      <path id="Trazado_22116" data-name="Trazado 22116" d="M22.94,27.23h-.46v1.35H22.1V27.23h-.47v-.31h1.31Z" fill="#fff"/>
      <path id="Trazado_22117" data-name="Trazado 22117" d="M23.52,27.22v.38H24v.29h-.52v.39h.68v.3H23.14V26.92H24.2v.3Z" fill="#fff"/>
      <path id="Trazado_22118" data-name="Trazado 22118" d="M25.43,28.27v.31h-1V26.92h.38v1.35Z" fill="#fff"/>
      <path id="Trazado_22119" data-name="Trazado 22119" d="M26,27.22v.38h.52v.29H26v.39h.68v.3H25.63V26.92h1.06v.3Z" fill="#fff"/>
      <path id="Trazado_22120" data-name="Trazado 22120" d="M28.28,28.58h-.35a.16.16,0,0,1-.14-.08l-.27-.5h-.17v.62h-.38v-1.7h.54a1.28,1.28,0,0,1,.3,0,.59.59,0,0,1,.21.1.42.42,0,0,1,.11.16.41.41,0,0,1,0,.19.47.47,0,0,1-.09.29.5.5,0,0,1-.1.11.61.61,0,0,1-.14.07l.07.05.06.07Zm-.81-.88h.13a.18.18,0,0,0,.09-.06.22.22,0,0,0,0-.08.3.3,0,0,0,0-.1.21.21,0,0,0-.08-.17.31.31,0,0,0-.21-.06h-.16v.49Z" fill="#fff"/>
      <path id="Trazado_22121" data-name="Trazado 22121" d="M28.8,28.58h-.38V26.92h.38Z" fill="#fff"/>
      <path id="Trazado_22122" data-name="Trazado 22122" d="M30.31,27.23h-.46v1.35h-.39V27.23H29v-.31h1.31Z" fill="#fff"/>
      <path id="Trazado_22123" data-name="Trazado 22123" d="M32.36,26.92v1.66H32v-1.1l-.44.84a.1.1,0,0,1-.05.06.11.11,0,0,1-.08,0h-.05a.11.11,0,0,1-.08,0,.17.17,0,0,1-.06-.06l-.43-.85v1.11h-.33V26.92h.37l.42.84a.36.36,0,0,1,0,.09.36.36,0,0,1,0,.09.36.36,0,0,0,0-.09l.05-.09.42-.84h.62Z" fill="#fff"/>
      <path id="Trazado_22124" data-name="Trazado 22124" d="M34.3,27.75a.88.88,0,0,1-.06.33,1,1,0,0,1-.17.27.8.8,0,0,1-.27.18,1.051,1.051,0,0,1-.7,0,.75.75,0,0,1-.28-.18,1,1,0,0,1-.17-.27.88.88,0,0,1-.06-.33,1,1,0,0,1,.06-.34.78.78,0,0,1,.17-.26A.75.75,0,0,1,33.1,27a.91.91,0,0,1,.7,0,.8.8,0,0,1,.27.18.73.73,0,0,1,.17.27.88.88,0,0,1,.06.3Zm-.39,0a.73.73,0,0,0,0-.22.46.46,0,0,0-.09-.17.4.4,0,0,0-.15-.1.38.38,0,0,0-.19,0,.42.42,0,0,0-.2,0,.4.4,0,0,0-.15.1.46.46,0,0,0-.09.17.73.73,0,0,0,0,.22A.78.78,0,0,0,33,28a.46.46,0,0,0,.09.17.4.4,0,0,0,.15.1.59.59,0,0,0,.2,0,.53.53,0,0,0,.19,0,.4.4,0,0,0,.15-.1.46.46,0,0,0,.09-.17.78.78,0,0,0,.04-.25Z" fill="#fff"/>
      <path id="Trazado_22125" data-name="Trazado 22125" d="M25.55,18.9H23.76v5.2H22.28V18.9H20.49V17.73h5.06Z" fill="#5e1450"/>
      <path id="Trazado_22126" data-name="Trazado 22126" d="M30.14,22.92V24.1H26.3V17.73h1.48v5.19Z" fill="#5e1450"/>
      <path id="Trazado_22127" data-name="Trazado 22127" d="M36.11,24.1H34.77a.57.57,0,0,1-.54-.28l-1-1.85A.46.46,0,0,0,33,21.8a.48.48,0,0,0-.26-.06h-.38V24.1H30.89V17.73H33a4.36,4.36,0,0,1,1.17.14,2.15,2.15,0,0,1,.8.4,1.44,1.44,0,0,1,.45.59,2.14,2.14,0,0,1,.14.76,2.2,2.2,0,0,1-.08.58,1.73,1.73,0,0,1-.25.51,1.77,1.77,0,0,1-.4.42,2.22,2.22,0,0,1-.55.3,1,1,0,0,1,.27.19,1.16,1.16,0,0,1,.23.26ZM33,20.72a1.53,1.53,0,0,0,.51-.07.84.84,0,0,0,.35-.22.77.77,0,0,0,.19-.31,1.23,1.23,0,0,0,.07-.39.84.84,0,0,0-.28-.66,1.24,1.24,0,0,0-.84-.24h-.6v1.89Z" fill="#5e1450"/>
    </g>
  </g>
</svg>
