<svg xmlns="http://www.w3.org/2000/svg" width="60" height="60" viewBox="0 0 60 60">
  <g id="Grupo_14865" data-name="Grupo 14865" transform="translate(1076 -99)">
    <rect id="Rectángulo_8427" data-name="Rectángulo 8427" width="60" height="60" transform="translate(-1076 99)" fill="#fff"/>
    <g id="logo__54x40_network_tnt" data-name="logo _54x40_network_tnt" transform="translate(-1072.7 108.249)">
      <path id="Trazado_20161" data-name="Trazado 20161" d="M23,17.52h1.9a.94.94,0,0,1,.95.53l1.95,3h.07V17.52h7.74a9.65,9.65,0,0,0-18.42,0Z"/>
      <path id="Trazado_20162" data-name="Trazado 20162" d="M33.77,18.92v5.7H31.85v-5.7h-2.2v5.7H28.36a1,1,0,0,1-.95-.52l-2.48-3.73h0v4.25H23v-5.7H20.83v5.7h-2v-5.7H16.81a10.31,10.31,0,0,0-.11,1.48,9.65,9.65,0,1,0,19.3,0,10.309,10.309,0,0,0-.11-1.48Z"/>
    </g>
  </g>
</svg>
