<svg xmlns="http://www.w3.org/2000/svg" width="60" height="60" viewBox="0 0 60 60">
  <g id="Grupo_16054" data-name="Grupo 16054" transform="translate(1274 -1136)">
    <rect id="Rectángulo_8427" data-name="Rectángulo 8427" width="60" height="60" transform="translate(-1274 1136)" fill="#fff"/>
    <g id="logo__54x40_network_tvc" data-name="logo _54x40_network_tvc" transform="translate(-1270.3 1145.725)">
      <path id="Trazado_22146" data-name="Trazado 22146" d="M30.14,25.21A6.91,6.91,0,0,0,42,20.67a5.48,5.48,0,0,0,0-.81H37.4a2.61,2.61,0,0,1,0,.74,2.34,2.34,0,0,1-4.61.15Z" fill="#f48020"/>
      <path id="Trazado_22147" data-name="Trazado 22147" d="M28.92,26.21l4-7a2.37,2.37,0,0,1,4.23,0l2.44-4.09a6.7,6.7,0,0,0-4.55-1.77A6.32,6.32,0,0,0,29.73,16l-3,5c-.23.49-.5,0-.5,0l-3.15-5.27A6,6,0,0,0,18,13.28H11.3v4.58h6.43a2.68,2.68,0,0,1,2.36,1.53L24,26.25a2.28,2.28,0,0,0,2,.94h1.36a1.84,1.84,0,0,0,1.56-.98Z" fill="#f48020"/>
      <path id="Trazado_22148" data-name="Trazado 22148" d="M15,27.19V18.48h3s1.67-.19,1.66,2.39v6.32Z" fill="#f48020"/>
    </g>
  </g>
</svg>
