<svg xmlns="http://www.w3.org/2000/svg" width="74" height="55" viewBox="0 0 74 55">
  <g id="Capa_2" data-name="Capa 2" transform="translate(0 0.185)">
    <g id="Layer_1" data-name="Layer 1">
      <rect id="Rectángulo_9281" data-name="Rectángulo 9281" width="74" height="55" transform="translate(0 -0.185)" fill="#fff"/>
      <path id="Trazado_22164" data-name="Trazado 22164" d="M13.452,17.811h-1.37c-.082,0-.11,0-.11.11v3.536a1.041,1.041,0,0,1-1.192,1.1.946.946,0,0,1-.918-.685,1.809,1.809,0,0,1-.082-.534V18.085c0-.123,0-.137-.151-.137H8.08v3.823a1.507,1.507,0,0,1,.082.356A2.165,2.165,0,0,0,9.7,23.854a3.851,3.851,0,0,0,2.261,0,2.234,2.234,0,0,0,1.507-1.48,3.947,3.947,0,0,0,.178-1.261V17.948C13.534,17.825,13.452,17.8,13.452,17.811Z" transform="translate(2.993 6.595)"/>
      <path id="Trazado_22165" data-name="Trazado 22165" d="M44.444,22.509c-.11,0-.137,0-.137-.137.137-1.453.137-2.946.137-4.317,0-.11,0-.137-.137-.137l-1.37-.069c-.11,0-.137,0-.137.123V23.88c0,.1,0,.137.137.137h4.248v-1.48Z" transform="translate(15.852 6.611)"/>
      <path id="Trazado_22166" data-name="Trazado 22166" d="M27.107,9.66Z" transform="translate(9.756 3.578)"/>
      <path id="Trazado_22167" data-name="Trazado 22167" d="M27,9.66Z" transform="translate(10 3.578)"/>
      <path id="Trazado_22168" data-name="Trazado 22168" d="M26.33,9.66Z" transform="translate(9.752 3.578)"/>
      <path id="Trazado_22169" data-name="Trazado 22169" d="M19.03,18.881c.192-.466.4-.918.63-1.37a12.5,12.5,0,0,1,4.33-4.769,12.21,12.21,0,0,1,7.222-1.932,12.9,12.9,0,0,1,3.467.63,13.32,13.32,0,0,1,5.783,3.823,12.977,12.977,0,0,1,2.467,4.029c0,.1.082.137.178.137h.411c.151,0,.151,0,.1-.137A14.156,14.156,0,0,0,30.953,9.7h-.219a.178.178,0,0,1-.178,0h0a2.234,2.234,0,0,1-.74,0h0a.123.123,0,0,1-.164,0h-.164A14.129,14.129,0,0,0,16.92,19.087h2.014A.767.767,0,0,0,19.03,18.881Z" transform="translate(6.267 3.593)"/>
      <path id="Trazado_22170" data-name="Trazado 22170" d="M18.537,17.773c0-.1,0-.123-.11-.123h-1.37c-.11,0-.137,0-.137.137V20.87a.3.3,0,0,1,0,.151l-.233-.151-2.193-2.946s-.069-.1-.151-.1h-1.37c-.1,0-.123,0-.123.123v6c0,.1,0,.123.123.11h1.37c.11,0,.151,0,.151-.137V20.665l2.439,3.3c0,.069.1.11.192.1h1.22c.11,0,.123,0,.123-.11V17.787Z" transform="translate(4.759 6.537)"/>
      <path id="Trazado_22171" data-name="Trazado 22171" d="M33.271,21.915v-.151a2,2,0,0,0,1.014-1.22,2.59,2.59,0,0,0,.137-1A2,2,0,0,0,33.3,17.818a2.741,2.741,0,0,0-1.274-.288H29.283c-.1,0-.123,0-.123.123v6.3c0,.1,0,.137.123.123h1.37c.123,0,.137,0,.137-.137V22.2c0-.11,0-.137.137-.137a3.659,3.659,0,0,0,.548,0,.219.219,0,0,1,.206.219c.3.589.617,1.179.932,1.768,0,0,0,.082.11.082h1.864L34.5,24C34.107,23.272,33.7,22.587,33.271,21.915Zm-.548-1.8a.671.671,0,0,1-.6.507,7.7,7.7,0,0,1-1.261,0c-.082,0,0,0,0-.1v-1.37s0-.082.069-.082a11.059,11.059,0,0,1,1.165,0,.754.754,0,0,1,.63,1.041Z" transform="translate(10.8 6.492)"/>
      <path id="Trazado_22172" data-name="Trazado 22172" d="M40.543,27.525c-.288.343-.6.658-.918.973a12.553,12.553,0,0,1-7.756,3.494,13.978,13.978,0,0,1-3.467-.11,12.5,12.5,0,0,1-3.933-1.22,12.333,12.333,0,0,1-5.331-5.221,14.526,14.526,0,0,1-.822-1.823.107.107,0,0,0-.11-.11H17v.123a13.2,13.2,0,0,0,3.056,5.029,13.7,13.7,0,0,0,8.7,4.111,14.69,14.69,0,0,0,5.016-.37,13.293,13.293,0,0,0,6.975-4.111c.206-.247.411-.493.617-.781h-.658a.178.178,0,0,0-.164.014Z" transform="translate(6.296 8.707)"/>
      <path id="Trazado_22173" data-name="Trazado 22173" d="M24.94,24.113h4.6c.082,0,.11,0,.11-.11V22.742c0-.137,0-.178-.164-.178H26.666c-.1,0-.137,0-.137-.123a7.429,7.429,0,0,0,0-.781c0-.123,0-.151.151-.151h2.494c.11,0,.137,0,.137-.123V20.207c0-.123,0-.151-.151-.137H26.653c-.1,0-.123,0-.123-.123a6.412,6.412,0,0,0,0-.726c0-.123,0-.137.137-.137h2.823c.082,0,.11,0,.11-.11V17.6c0-.11,0-.123-.123-.123H24.953c-.1,0-.123,0-.123.137v6.3C24.83,24.085,24.844,24.113,24.94,24.113Z" transform="translate(9.196 6.474)"/>
      <path id="Trazado_22174" data-name="Trazado 22174" d="M37.523,20.493a6.4,6.4,0,0,0-1.179-.425,2.645,2.645,0,0,1-.85-.315.37.37,0,0,1,.123-.7,1.124,1.124,0,0,1,.521,0,2.892,2.892,0,0,1,1.37.562h.151l.685-1.041v-.192a3.508,3.508,0,0,0-2.316-.822,3.782,3.782,0,0,0-.781.082,1.946,1.946,0,0,0-1.521,2.371,1.768,1.768,0,0,0,.959,1.179,4.824,4.824,0,0,0,1.37.493,2.659,2.659,0,0,1,.74.274.411.411,0,0,1,.206.37.37.37,0,0,1-.26.343.946.946,0,0,1-.384,0,2.864,2.864,0,0,1-1.823-.685c-.137-.1-.137-.1-.247,0a10.473,10.473,0,0,0-.671.877c-.219.3-.151.192,0,.343a3.919,3.919,0,0,0,3.289.85,1.9,1.9,0,0,0,1.7-1.672,1.713,1.713,0,0,0-1.083-1.891Z" transform="translate(12.399 6.504)"/>
      <path id="Trazado_22175" data-name="Trazado 22175" d="M42.939,21.4l-1.37-3.563a.121.121,0,0,0-.123-.123h-1.37c-.1,0-.123,0-.151.11-.685,1.686-1.37,3.371-2.028,5.057l-.466,1.165h1.658c.082,0,.082,0,.11-.1.123-.315.247-.617.356-.946a.123.123,0,0,1,.137-.082h2.083a.123.123,0,0,1,.137.1c.123.3.247.617.356.932a.123.123,0,0,0,.151.1h1.658v-.1C43.693,23.082,43.281,22.219,42.939,21.4Zm-2.96.137c.233-.589.439-1.165.671-1.768l.658,1.768Z" transform="translate(13.863 6.559)"/>
      <path id="Trazado_22176" data-name="Trazado 22176" d="M24.144,17.678c-.219.74-.439,1.466-.671,2.206s-.37,1.179-.548,1.768v-.1l-.658-1.877c-.233-.671-.466-1.37-.685-2a.1.1,0,0,0-.11-.1H19.69v.137l2.343,6.263c0,.082.069.11.151.1h1.37c.1,0,.137,0,.178-.11.658-1.85,1.37-3.714,1.987-5.564.1-.288.206-.576.315-.863a.548.548,0,0,0-.151,0H24.308C24.226,17.555,24.226,17.6,24.144,17.678Z" transform="translate(7.293 6.495)"/>
      <path id="Trazado_22177" data-name="Trazado 22177" d="M19.483,17.61H17.976c-.082,0-.1,0-.1.1v6.235c0,.082,0,.1.11.1h1.425c.1,0,.137,0,.137-.123V17.72S19.579,17.61,19.483,17.61Z" transform="translate(6.622 6.522)"/>
      <path id="Trazado_22178" data-name="Trazado 22178" d="M37.092,23.354a1.408,1.408,0,0,1-.192.48l-.671,1.8v-.069l-.822-2.1s0-.1-.082-.1H34.79l1.11,2.741c.123.329.123.315.48.329a.178.178,0,0,0,.178-.123c.3-.767.617-1.521.932-2.289.1-.206.178-.411.26-.617h-.507a.08.08,0,1,0-.151-.055Z" transform="translate(12.885 8.63)"/>
      <path id="Trazado_22179" data-name="Trazado 22179" d="M34.208,23.79a2.206,2.206,0,0,0,.425,0c.123,0,.3.069.37,0s0-.247,0-.37,0-.11-.11-.11H32.7c-.1,0-.123,0-.11.123v.288c0,.082,0,.11.1.11h.7c.137,0,.164,0,.164.164v2.247c0,.1,0,.123.123.123a.836.836,0,0,1,.26,0c.11,0,.151,0,.151-.151V23.982C34.057,23.8,34.1,23.79,34.208,23.79Z" transform="translate(12.069 8.633)"/>
    </g>
  </g>
</svg>
