<svg xmlns="http://www.w3.org/2000/svg" width="74" height="55" viewBox="0 0 74 55">
  <g id="Grupo_16195" data-name="Grupo 16195" transform="translate(1406 -99)">
    <rect id="Rectángulo_8427" data-name="Rectángulo 8427" width="74" height="55" transform="translate(-1406 99)" fill="#fff"/>
    <g id="logo__54x40_network_warnertv" data-name="logo _54x40_network_warnertv" transform="translate(-1385.375 111.375)">
      <path id="Trazado_20129" data-name="Trazado 20129" d="M30.932,38.006S14.666,31.2,17.182,14.755l2.6-.536.976-1.141,2.475-.66.674-1.76L31.18,9.75l7.246,1.21.44,1.458,2.75.646.481,1.375,2.832.3A23.059,23.059,0,0,1,31.18,38.116" transform="translate(-16.353 -9.118)" fill="#231f20"/>
      <path id="Trazado_20130" data-name="Trazado 20130" d="M31.949,30.06v.179H31.7v.88h-.234v-.88H31.22V30.06Z" transform="translate(-10.989 -1.501)" fill="#63c2a4"/>
      <path id="Trazado_20131" data-name="Trazado 20131" d="M32.174,30.06l.165.715h0l.179-.715h.344v1.059h-.206v-.825h0l-.192.825h-.22l-.192-.825h0v.825h-.22V30.06Z" transform="translate(-10.761 -1.501)" fill="#63c2a4"/>
      <path id="Trazado_20132" data-name="Trazado 20132" d="M21.736,19.758a13.75,13.75,0,0,0,1.086,3.8l.55-1s-.289-2.75-.358-3.987,0-5.17,0-5.17.715-.4,1.127-.577.825-.344,1.031-.193a.4.4,0,0,1,.192.371V19.07a16.088,16.088,0,0,0,1.526,7.219V12.126a4.991,4.991,0,0,1,1.141-.385,2.53,2.53,0,0,1,1.251,0c.193.1.193.413.193.413v22.5a14.685,14.685,0,0,1-3.616-4.469c-.674-1.375-1.815-4.5-1.815-4.5l-1.375,2.063a17.751,17.751,0,0,1-2.681-5.005A19.91,19.91,0,0,1,19.178,19a25.37,25.37,0,0,1-.137-3.094s.715-.66,1.017-.894.853-.646,1.1-.564.248.742.248.742a30.374,30.374,0,0,0,.33,4.565Z" transform="translate(-15.558 -8.4)" fill="#e6e7e8"/>
      <path id="Trazado_20133" data-name="Trazado 20133" d="M39.185,31.235a35.75,35.75,0,0,1-8.112,6.105h0c-.5-.261-6.435-3.52-9.267-7.535A23.581,23.581,0,0,1,18,15.766l2.544-.509.316-1.2,2.984-.77.357-1.485,6.875-1.017h0l6.875,1.017.357,1.485,2.984.77.33,1.2,2.544.509a23.842,23.842,0,0,1-.66,6.875h0a5.294,5.294,0,0,1,1.636.261,26.593,26.593,0,0,0,.426-8.511l-3.19-.66L42.141,12.6l-2.956-.633-.44-1.513L31.072,9.29,23.3,10.459l-.4,1.485-2.75.674-.33,1.2-3.162.619a24.585,24.585,0,0,0,3.85,16.211c3.341,4.716,10.01,7.989,10.574,8.25h0a40.741,40.741,0,0,0,9.254-6.586,5.83,5.83,0,0,1-1.155-1.072Z" transform="translate(-16.507 -9.29)" fill="#63c2a4"/>
      <circle id="Elipse_295" data-name="Elipse 295" cx="4.524" cy="4.524" r="4.524" transform="translate(22.458 14.424)" fill="#231f20"/>
      <path id="Trazado_20134" data-name="Trazado 20134" d="M39.3,21.741a5.417,5.417,0,0,0-3.451,1.251,4.276,4.276,0,0,0-1.375-1.842s3.052-1.65,3.08-3.575c0-2.75-6.325-5.321-7.439-5.6a5.032,5.032,0,0,0-2.42-.234.3.3,0,0,0-.165.261V34.625a17.779,17.779,0,0,0,4.881-3.85c.358-.4,1.045-1.114,1.732-2.021A5.39,5.39,0,1,0,39.3,21.741Zm-9.171-7.274s4.427,1.251,4.469,2.956-4.469,3.506-4.469,3.506Zm0,15.125V23.4a5.335,5.335,0,0,1,1.8-.646c.192,0,1.375-.165,1.375,1.554s-3.149,5.335-3.149,5.335ZM41.4,29.427H40.029L38.777,26.1H37.8v3.328H36.7V26.155H35.656c.083-.234.165-.5.234-.77v-.192h3.768l1.059,3.094,1.059-3.094h1.251Z" transform="translate(-12.373 -8.39)" fill="#e6e7e8"/>
    </g>
  </g>
</svg>
