<svg xmlns="http://www.w3.org/2000/svg" width="60" height="60" viewBox="0 0 60 60">
  <g id="Grupo_15572" data-name="Grupo 15572" transform="translate(1472 -926)">
    <rect id="Rect치ngulo_8427" data-name="Rect치ngulo 8427" width="60" height="60" transform="translate(-1472 926)" fill="#fff"/>
    <g id="_814_National_Geographic_Wild_HD_Color" data-name="814 National Geographic Wild HD Color" transform="translate(-1470.07 936)">
      <path id="Trazado_21537" data-name="Trazado 21537" d="M10.85,10.8h3.9v6.25h-3.9Zm-.78,7h5.46V10H10.07Z" fill="#fcd800"/>
      <path id="Trazado_21538" data-name="Trazado 21538" d="M19.44,13.55H19.1c-.44-.63-.88-1.25-1.33-2h0v2H17.4V10.82h.34c.44.63.88,1.25,1.32,1.95h0V10.82h.38Z"/>
      <path id="Trazado_21539" data-name="Trazado 21539" d="M20.51,10.82l-1,2.73H20l.24-.74H21l.21.74h.52l-.87-2.73Zm-.18,1.65c.1-.36.21-.69.31-1.11h0c.11.42.21.75.31,1.11Z"/>
      <path id="Trazado_21540" data-name="Trazado 21540" d="M22.2,13.55V11.19h-.71v-.37h1.9v.37h-.72v2.36Z"/>
      <path id="Trazado_21541" data-name="Trazado 21541" d="M23.54,10.82v2.73H24V10.82Z"/>
      <path id="Trazado_21542" data-name="Trazado 21542" d="M25.45,13.6c.71,0,1.15-.64,1.15-1.45a1.17,1.17,0,1,0-2.31,0c0,.81.44,1.45,1.16,1.45m0-.39c-.49,0-.66-.54-.66-1.06s.19-1,.66-1,.65.47.65,1-.17,1.06-.65,1.06"/>
      <path id="Trazado_21543" data-name="Trazado 21543" d="M28.93,13.55h-.34c-.45-.63-.89-1.25-1.33-2h0v2h-.37V10.82h.34c.44.63.88,1.25,1.32,1.95h0V10.82h.38Z"/>
      <path id="Trazado_21544" data-name="Trazado 21544" d="M30,10.82l-.95,2.73h.41l.24-.74h.82l.21.74h.52l-.87-2.73Zm-.18,1.65c.11-.36.21-.69.31-1.11h0c.11.42.21.75.31,1.11Z"/>
      <path id="Trazado_21545" data-name="Trazado 21545" d="M31.39,10.82h.46v2.36h.93v.37H31.39Z"/>
      <path id="Trazado_21546" data-name="Trazado 21546" d="M19.15,15.83V17a2.31,2.31,0,0,1-.78.16,1.3,1.3,0,0,1-1.3-1.42,1.32,1.32,0,0,1,1.32-1.4,1.2,1.2,0,0,1,.66.21l-.15.33a1,1,0,0,0-.5-.15c-.5,0-.84.4-.84,1a.908.908,0,0,0,.8,1,.66.66,0,0,0,.32-.06v-.84Z"/>
      <path id="Trazado_21547" data-name="Trazado 21547" d="M20.82,14.72h-.78v.74h.77v.37h-.77v.88h.92v.37H19.57V14.35h1.25Z"/>
      <path id="Trazado_21548" data-name="Trazado 21548" d="M22.26,17.12c.72,0,1.16-.63,1.16-1.45a1.17,1.17,0,1,0-2.31,0c0,.82.44,1.45,1.15,1.45m0-.39c-.48,0-.66-.53-.66-1.06s.2-1,.66-1,.66.48.66,1-.17,1.06-.66,1.06"/>
      <path id="Trazado_21549" data-name="Trazado 21549" d="M25.66,15.83V17a2.3,2.3,0,0,1-.77.16,1.31,1.31,0,0,1-1.31-1.42,1.32,1.32,0,0,1,1.32-1.4,1.24,1.24,0,0,1,.67.21l-.16.33a1,1,0,0,0-.49-.15c-.5,0-.84.4-.84,1a.908.908,0,0,0,.79,1,.72.72,0,0,0,.33-.06v-.84Z"/>
      <path id="Trazado_21550" data-name="Trazado 21550" d="M27.74,17.08,27.2,16a.94.94,0,0,0,.47-.81.74.74,0,0,0-.85-.79h-.73v2.73h.47v-1h.21l.44,1Zm-1.18-2.36h.21a.4.4,0,0,1,.43.44.48.48,0,0,1-.45.54h-.19Z"/>
      <path id="Trazado_21551" data-name="Trazado 21551" d="M28.69,14.35l-.94,2.73h.41l.23-.75h.83l.21.75H30l-.87-2.73ZM28.52,16c.1-.36.21-.69.31-1.11h0c.11.42.21.75.31,1.11Z"/>
      <path id="Trazado_21552" data-name="Trazado 21552" d="M30.76,15.7h-.19v-1h.21a.4.4,0,0,1,.43.44.48.48,0,0,1-.45.54m.07-1.35H30.1v2.73h.47v-1h.21a.88.88,0,0,0,.89-.91.74.74,0,0,0-.84-.79"/>
      <path id="Trazado_21553" data-name="Trazado 21553" d="M33.84,17.08h-.47V15.76H32.4v1.32h-.46V14.35h.46V15.4h.97V14.36h.47Z"/>
      <path id="Trazado_21554" data-name="Trazado 21554" d="M34.29,14.35v2.73h.46V14.35Z"/>
      <path id="Trazado_21555" data-name="Trazado 21555" d="M36.86,14.84a1,1,0,0,0-.48-.15.885.885,0,0,0-.83,1,.91.91,0,0,0,.84,1,.87.87,0,0,0,.47-.13l.13.34a1.33,1.33,0,0,1-.62.18,1.31,1.31,0,0,1-1.31-1.42,1.32,1.32,0,0,1,1.32-1.4,1.12,1.12,0,0,1,.62.21Z"/>
      <path id="Trazado_21556" data-name="Trazado 21556" d="M14.7,30.15,10.4,20.14h2.31l2.24,5.41,2.48-5.67,2.49,5.67,2.24-5.41h2.19L20.07,30.15l-2.69-5.98Z"/>
      <rect id="Rect치ngulo_8928" data-name="Rect치ngulo 8928" width="2.12" height="9.61" transform="translate(25.97 20.14)"/>
      <path id="Trazado_21557" data-name="Trazado 21557" d="M30.96,20.14h2.12v7.88h4.11l-.67,1.73H30.96Z"/>
      <path id="Trazado_21558" data-name="Trazado 21558" d="M40.93,21.88V28h.9a3.07,3.07,0,1,0,0-6.14ZM42,20.14a4.81,4.81,0,1,1,0,9.61H38.81V20.14Z"/>
    </g>
  </g>
</svg>
