<svg xmlns="http://www.w3.org/2000/svg" width="60" height="60" viewBox="0 0 60 60">
  <g id="Grupo_14926" data-name="Grupo 14926" transform="translate(1406 -373)">
    <rect id="Rectángulo_8427" data-name="Rectángulo 8427" width="60" height="60" transform="translate(-1406 373)" fill="#fff"/>
    <g id="logo__54x40_network_xd" data-name="logo _54x40_network_xd" transform="translate(-1403.05 384.493)">
      <path id="Trazado_20285" data-name="Trazado 20285" d="M14.93,10.51a1.58,1.58,0,0,0-.74.13c-.06.07-.14.12-.14.21s.1.09.16.09h.11a.082.082,0,0,1-.08-.09c0-.09.31-.07.47-.07,1.32,0,2.85.91,2.85,1.69,0,.6-.79.74-1.22.74a3.42,3.42,0,0,1-.45,0c0-.2,0-.6,0-.85H16c.32,0,.74.12.74.19s-.11.11-.11.17.1,0,.19,0a.32.32,0,0,0,.2-.27c0-.21-.26-.46-1.13-.45h0c0-.24,0-.62-.18-.62s-.15.42-.16.64c-.48.08-.91.27-.91.47s.35.56.9.8c0,.18.05.3.21.3s.15-.08.17-.17a2.63,2.63,0,0,0,.58.07c.81,0,1.47-.44,1.46-1,0-.8-1.61-1.95-3-1.91m-.22,2c0-.14.42-.19.82-.21v.74c-.48-.17-.81-.44-.81-.53" fill="#5fba4f"/>
      <path id="Trazado_20286" data-name="Trazado 20286" d="M18.23,12c-.13,0-.14.56-.14.76,0,.46.06.52.18.52s.15,0,.14-.4c0-.73-.07-.88-.18-.88" fill="#5fba4f"/>
      <path id="Trazado_20287" data-name="Trazado 20287" d="M18.31,11.79c.3,0,.78-.35.78-.63s-.06-.2-.23-.22a.44.44,0,0,0-.32-.14.78.78,0,0,0-.79.58.38.38,0,0,0,.1.25c0,.16,0,.2.09.2a.13.13,0,0,0,.12-.07.9.9,0,0,0,.25,0m0-.23a.48.48,0,0,1-.18,0c.13-.15.46-.43.62-.43a.11.11,0,0,1,.12.11c0,.19-.39.35-.56.35m0-.51a1.55,1.55,0,0,0-.39.32h0c0-.09.13-.24.4-.28" fill="#5fba4f"/>
      <path id="Trazado_20288" data-name="Trazado 20288" d="M19.88,12.07c0-.12-.33-.12-.51-.12s-.85,0-.85.41.4.2.66.23.47.09.47.16S19.09,13,19,13s-.24-.06-.24-.1,0-.09.13-.09.27.11.4.11.23-.06.23-.11a1.286,1.286,0,0,0-.55-.16c-.13,0-.33.06-.33.26s.17.36.66.36.61-.28.61-.42c0-.34-.33-.38-.61-.4s-.45,0-.45-.08,1.06,0,1.06-.26" fill="#5fba4f"/>
      <path id="Trazado_20289" data-name="Trazado 20289" d="M20.68,11.78v.09a6.386,6.386,0,0,1,.19.78v.12c0,.01-.43-.7-.59-.71s-.26.69-.26.87,0,.29.16.29.1-.71.17-.71.37.65.55.65.3-.28.3-.46c0-.41-.28-.92-.44-.92" fill="#5fba4f"/>
      <path id="Trazado_20290" data-name="Trazado 20290" d="M22,12.88c-.07,0-.44.08-.47.06s0-.24.07-.25a2.55,2.55,0,0,1,.39,0,.1.1,0,1,0,0-.2,1.12,1.12,0,0,1-.33,0,.24.24,0,0,1,0-.16h.49a.12.12,0,0,0,.1-.08.328.328,0,0,0-.33-.2c-.19.02-.74,0-.74.14s.19.14.2.16a1.36,1.36,0,0,1,0,.17.157.157,0,0,0-.16.14c-.01.14,0,.06,0,.08a2.66,2.66,0,0,0-.09.32c0,.11.08.35.3.34a1,1,0,0,0,.67-.29.17.17,0,0,0-.16-.14" fill="#5fba4f"/>
      <path id="Trazado_20291" data-name="Trazado 20291" d="M23.34,12.05c-.19,0-.56.42-.77.69a.31.31,0,0,1,0-.08,2.45,2.45,0,0,1,.26-.54c0-.09,0-.21-.06-.17a1.31,1.31,0,0,0-.43.81.57.57,0,0,0,.07.27,4.29,4.29,0,0,0-.24,1.08c0,.17.17.33.27.31s0-.23.09-.37a3.9,3.9,0,0,0,.22-.76h.06a.9.9,0,0,0,.83-.79c0-.36-.21-.45-.28-.45m-.46.91c.16-.28.39-.65.48-.65s.08.06.08.15a.59.59,0,0,1-.56.5" fill="#5fba4f"/>
      <path id="Trazado_20292" data-name="Trazado 20292" d="M27.87,26.89V23.3a.31.31,0,0,0,0-.13.57.57,0,0,0-.08-.13L25.5,20.78a.19.19,0,0,1,0-.28l2.26-2.27a.36.36,0,0,0,.08-.12.32.32,0,0,0,0-.14V14.39a.21.21,0,0,0-.2-.2H24.22a.31.31,0,0,0-.13,0,.57.57,0,0,0-.13.08l-2.4,2.4a.19.19,0,0,1-.28,0l-2.41-2.4a.36.36,0,0,0-.12-.08.32.32,0,0,0-.14,0H15.17a.21.21,0,0,0-.2.2V18a.32.32,0,0,0,0,.14.36.36,0,0,0,.08.12l2.26,2.27a.19.19,0,0,1,0,.28L15.08,23a.57.57,0,0,0-.08.13.31.31,0,0,0,0,.13v3.59a.21.21,0,0,0,.2.2h3.58a.32.32,0,0,0,.14,0A.57.57,0,0,0,19,27l2.26-2.26a.2.2,0,0,1,.28,0L23.82,27a.57.57,0,0,0,.13.08.31.31,0,0,0,.13,0h3.59a.21.21,0,0,0,.2-.2" fill="#5fba4f"/>
      <path id="Trazado_20293" data-name="Trazado 20293" d="M37.16,27.09a.35.35,0,0,0,.14,0,.36.36,0,0,0,.12-.08l2.47-2.47a.42.42,0,0,0,.08-.12.4.4,0,0,0,0-.15V17a.35.35,0,0,0,0-.14.25.25,0,0,0-.08-.12L37.42,14.3a.36.36,0,0,0-.12-.08.35.35,0,0,0-.14,0H28.5a.21.21,0,0,0-.2.2v12.5a.21.21,0,0,0,.2.2Z" fill="#5fba4f"/>
    </g>
  </g>
</svg>
