<svg xmlns="http://www.w3.org/2000/svg" xmlns:xlink="http://www.w3.org/1999/xlink" width="77.895" height="15.095" viewBox="0 0 77.895 15.095"><defs><style>.a{fill:none;}.b{clip-path:url(#a);}.c,.d{fill:#fff;}.d{fill-rule:evenodd;}</style><clipPath id="a"><rect class="a" width="77.895" height="15.095"/></clipPath></defs><g class="b" transform="translate(0 0)"><path class="c" d="M182.822,22.393a.378.378,0,0,1-.26-.071.354.354,0,0,1-.071-.26V13.114a.354.354,0,0,1,.071-.26.378.378,0,0,1,.26-.071h.968a.354.354,0,0,1,.378.307l.094.354a2.975,2.975,0,0,1,.968-.614,3.093,3.093,0,0,1,1.157-.236,2.5,2.5,0,0,1,2.054.944,4.009,4.009,0,0,1,.756,2.574,4.7,4.7,0,0,1-.378,1.936,3.046,3.046,0,0,1-1.015,1.275,2.527,2.527,0,0,1-1.488.449,3.14,3.14,0,0,1-1.039-.165,2.527,2.527,0,0,1-.85-.472v2.928a.283.283,0,0,1-.331.331Zm2.952-4.085a1.251,1.251,0,0,0,1.11-.519,2.888,2.888,0,0,0,.354-1.606,3.015,3.015,0,0,0-.354-1.629,1.251,1.251,0,0,0-1.11-.519,2.55,2.55,0,0,0-1.322.354v3.542a2.456,2.456,0,0,0,1.322.354" transform="translate(-139.4 -9.619)"/><path class="c" d="M216.915,20.015a.283.283,0,0,1-.331-.331V13.5a.354.354,0,0,1,.071-.26.378.378,0,0,1,.26-.071h.968a.354.354,0,0,1,.378.307l.165.732a3.825,3.825,0,0,1,1.015-.85,2.172,2.172,0,0,1,1.015-.26h.189a.4.4,0,0,1,.26.071.354.354,0,0,1,.071.26V14.56a.378.378,0,0,1-.071.26.354.354,0,0,1-.26.071h-.614a3.99,3.99,0,0,0-.756.094,3.708,3.708,0,0,0-.756.213v4.486a.378.378,0,0,1-.071.26.354.354,0,0,1-.26.071Z" transform="translate(-165.441 -10.003)"/><path class="c" d="M239.8,2.11a1.157,1.157,0,0,1-.8-.283.991.991,0,0,1-.307-.756A.992.992,0,0,1,239,.292a1.322,1.322,0,0,1,1.629,0,.992.992,0,0,1,.307.756.992.992,0,0,1-.307.756,1.157,1.157,0,0,1-.826.283M239.166,10a.283.283,0,0,1-.331-.331V3.5a.354.354,0,0,1,.071-.26.378.378,0,0,1,.26-.071h1.3a.378.378,0,0,1,.26.071.378.378,0,0,1,.071.26V9.689a.378.378,0,0,1-.071.26.354.354,0,0,1-.26.071Z" transform="translate(-182.333 -0.008)"/><path class="c" d="M254.915,19.546a.283.283,0,0,1-.331-.331V13.029a.354.354,0,0,1,.071-.26.378.378,0,0,1,.26-.071h.968a.354.354,0,0,1,.378.307l.118.354a5.784,5.784,0,0,1,1.275-.661,3.613,3.613,0,0,1,1.181-.189,1.805,1.805,0,0,1,1.7.85,5.5,5.5,0,0,1,1.3-.661,3.919,3.919,0,0,1,1.251-.213,1.96,1.96,0,0,1,1.464.519,1.983,1.983,0,0,1,.519,1.464v4.746a.378.378,0,0,1-.071.26.354.354,0,0,1-.26.071h-1.322a.283.283,0,0,1-.331-.331V14.894q0-.921-.826-.921a3.4,3.4,0,0,0-1.464.354v4.888a.378.378,0,0,1-.071.26.354.354,0,0,1-.26.071h-1.3a.283.283,0,0,1-.331-.331V14.894q0-.921-.826-.921a3.258,3.258,0,0,0-1.488.354v4.888a.378.378,0,0,1-.071.26.354.354,0,0,1-.26.071Z" transform="translate(-194.469 -9.534)"/><path class="c" d="M307.447,19.772a3.4,3.4,0,0,1-2.55-.921,3.6,3.6,0,0,1-.9-2.621,3.87,3.87,0,0,1,.921-2.739,3.279,3.279,0,0,1,2.526-.992,2.9,2.9,0,0,1,1.96.614,2.007,2.007,0,0,1,.708,1.606,1.724,1.724,0,0,1-.756,1.535,3.97,3.97,0,0,1-2.243.519,5.265,5.265,0,0,1-1.322-.142,1.815,1.815,0,0,0,.543,1.3,2.017,2.017,0,0,0,1.393.378l.732-.047.992-.213h.142q.236,0,.236.307v.614a.567.567,0,0,1-.071.307.5.5,0,0,1-.236.165,5.761,5.761,0,0,1-2.078.378M307,15.593a1.818,1.818,0,0,0,.992-.213.708.708,0,0,0,.307-.638q0-.85-1.015-.85t-1.464,1.558a6.092,6.092,0,0,0,1.2.118" transform="translate(-232.22 -9.549)"/><path class="d" d="M43.1,47.139A15.176,15.176,0,0,1,34.51,49.76,15.56,15.56,0,0,1,24,45.746c-.213-.189-.024-.472.236-.307a21.156,21.156,0,0,0,10.507,2.786,20.92,20.92,0,0,0,8.028-1.653c.4-.165.732.26.331.543" transform="translate(-18.265 -34.672)"/><path class="d" d="M99.891,44.709c-.307-.378-1.96-.189-2.715-.094-.236.024-.26-.165-.047-.307a4.2,4.2,0,0,1,3.778-.354c.26.307-.071,2.5-1.322,3.542-.189.165-.378.071-.283-.142.283-.708.921-2.267.614-2.645" transform="translate(-74.084 -33.352)"/><path class="d" d="M97.228,14.733v-.9a.236.236,0,0,1,.236-.236h4.085a.236.236,0,0,1,.236.236v.779a1.275,1.275,0,0,1-.307.567l-2.125,3a4.51,4.51,0,0,1,2.314.5.425.425,0,0,1,.213.354V20a.223.223,0,0,1-.307.213,4.7,4.7,0,0,0-4.3,0c-.142.071-.283-.071-.283-.213v-.9a1.086,1.086,0,0,1,.142-.614l2.456-3.518H97.464a.236.236,0,0,1-.236-.236" transform="translate(-74.089 -10.389)"/><path class="d" d="M123.11,14.4c-.921,0-.968,1.251-.968,2.031s0,2.432.968,2.432,1.015-1.346,1.015-2.149a5.879,5.879,0,0,0-.189-1.676.779.779,0,0,0-.8-.614m0-1.3c1.842,0,2.833,1.582,2.833,3.589s-1.133,3.447-2.881,3.447-2.786-1.582-2.786-3.542.992-3.518,2.786-3.518" transform="translate(-91.895 -10.007)"/><path class="d" d="M73.706,19.789a.26.26,0,0,1-.283.024,3.234,3.234,0,0,1-.708-.826,2.483,2.483,0,0,1-2.054.9A1.839,1.839,0,0,1,68.8,17.947a2.1,2.1,0,0,1,1.322-2.031,7.726,7.726,0,0,1,2.338-.425,2.144,2.144,0,0,0-.142-1.063.874.874,0,0,0-.685-.331.944.944,0,0,0-.992.732c-.024.142-.118.26-.236.236l-1.181-.118a.213.213,0,0,1-.189-.26A2.5,2.5,0,0,1,71.794,12.8a2.821,2.821,0,0,1,1.865.614,3.027,3.027,0,0,1,.543,2.125v1.936a1.69,1.69,0,0,0,.472,1.157.236.236,0,0,1,0,.331l-.944.826m-1.275-3.022a2.586,2.586,0,0,1-.236,1.322,1.015,1.015,0,0,1-.85.567c-.472,0-.756-.354-.756-.9,0-1.063.944-1.251,1.842-1.251Z" transform="translate(-52.55 -9.778)"/><path class="d" d="M4.906,19.789a.26.26,0,0,1-.283.024,3.235,3.235,0,0,1-.708-.826,2.483,2.483,0,0,1-2.054.9A1.839,1.839,0,0,1,0,17.947a2.1,2.1,0,0,1,1.322-2.031,7.726,7.726,0,0,1,2.338-.425,2.144,2.144,0,0,0-.142-1.063.874.874,0,0,0-.685-.331.944.944,0,0,0-.992.732c-.024.142-.118.26-.236.236L.42,14.949a.213.213,0,0,1-.189-.26A2.5,2.5,0,0,1,2.994,12.8a2.821,2.821,0,0,1,1.865.614A3.027,3.027,0,0,1,5.4,15.539v1.936a1.69,1.69,0,0,0,.472,1.157.236.236,0,0,1,0,.331l-.944.826M3.655,16.767a2.586,2.586,0,0,1-.236,1.322,1.015,1.015,0,0,1-.85.567c-.472,0-.756-.354-.756-.9,0-1.063.944-1.251,1.842-1.251Z" transform="translate(0.005 -9.778)"/><path class="d" d="M30.6,16.429c0-.732-.024-1.747.85-1.747s.779,1.039.779,1.747v3.376a.236.236,0,0,0,.213.236H33.67a.236.236,0,0,0,.236-.236V16.429a3.849,3.849,0,0,1,.118-1.228.826.826,0,0,1,.732-.519.638.638,0,0,1,.732.543,8.147,8.147,0,0,1,.024,1.181v3.4a.236.236,0,0,0,.212.236h1.228a.236.236,0,0,0,.236-.236V15.792a3.438,3.438,0,0,0-.307-1.983,1.842,1.842,0,0,0-3.14.472,1.7,1.7,0,0,0-3.235,0h-.024v-.826a.236.236,0,0,0-.236-.236h-1.11a.236.236,0,0,0-.236.236v6.352a.236.236,0,0,0,.236.236h1.228a.236.236,0,0,0,.236-.236Z" transform="translate(-22.076 -10.007)"/><path class="d" d="M149.724,19.8a.236.236,0,0,1-.236.236h-1.251A.236.236,0,0,1,148,19.8V13.45a.236.236,0,0,1,.236-.236h1.133a.236.236,0,0,1,.236.189v.968h.024a1.677,1.677,0,0,1,1.7-1.275,1.629,1.629,0,0,1,1.44.756,4.009,4.009,0,0,1,.331,1.983v4.014a.236.236,0,0,1-.236.189h-1.251a.236.236,0,0,1-.212-.189V15.977c0-1.275-.5-1.322-.779-1.322a.85.85,0,0,0-.708.5,2.88,2.88,0,0,0-.212,1.2Z" transform="translate(-113.055 -10.003)"/></g></svg>