<svg xmlns="http://www.w3.org/2000/svg" xmlns:xlink="http://www.w3.org/1999/xlink" width="42.657" height="14" viewBox="0 0 42.657 14"><defs><style>.a{fill:none;}.b{clip-path:url(#a);}.c{fill:#fff;}</style><clipPath id="a"><rect class="a" width="42.657" height="14"/></clipPath></defs><g class="b" transform="translate(0 0)"><path class="c" d="M11.424,6.947a.967.967,0,1,0-.967.97.967.967,0,0,0,.967-.97m2.321.027a3.288,3.288,0,1,1-3.288-3.288,3.288,3.288,0,0,1,3.288,3.288M3.3,3.683A3.306,3.306,0,0,0,0,6.985v3.179H2.725V6.776H3.881v3.388H6.6V6.985a3.306,3.306,0,0,0-3.3-3.3M18.586,6.947a.967.967,0,1,0-.967.97.967.967,0,0,0,.967-.97m2.424,4.016a3.323,3.323,0,0,1-6.641-.133h2.356a.974.974,0,0,0,.935.985.911.911,0,0,0,.926-.961.859.859,0,0,0-.336-.672,3.17,3.17,0,0,1-.7.074,3.286,3.286,0,0,1,0-6.573,3.506,3.506,0,0,1,1.318.274,1.024,1.024,0,0,1,1.97.484v2.53a2.645,2.645,0,0,1-.708,1.872,2.82,2.82,0,0,1,.882,2.12m4.739-4.016a.967.967,0,1,0-.967.97.967.967,0,0,0,.967-.97m2.424,4.016a3.322,3.322,0,0,1-6.638-.133h2.356a.974.974,0,0,0,.935.985.911.911,0,0,0,.926-.961.859.859,0,0,0-.336-.672,3.17,3.17,0,0,1-.7.074,3.286,3.286,0,1,1,0-6.573,3.506,3.506,0,0,1,1.318.274,1.024,1.024,0,0,1,1.97.484v2.53A2.645,2.645,0,0,1,27.3,8.843a2.82,2.82,0,0,1,.882,2.12M35.595,3.68a3.306,3.306,0,0,0-3.3,3.3v3.182h2.725V6.776h1.156v3.388h2.722V6.985a3.306,3.306,0,0,0-3.3-3.3m-5.435-.616a1.483,1.483,0,1,0-1.483-1.483,1.483,1.483,0,0,0,1.483,1.483m-1.4,7.1V5.045a1.362,1.362,0,1,1,2.725,0v5.122Z" transform="translate(0 -0.097)"/><path class="c" d="M997.8,422.8h.156c.242,0,.472.062.472.354a.275.275,0,0,1-.139.245h0a.331.331,0,0,1,.257.324c0,.257-.221.36-.448.36h-.3Zm.159.569H998c.151,0,.277-.029.277-.215s-.124-.212-.274-.212h-.044Zm0,.572h.124c.147,0,.3-.044.3-.227s-.183-.218-.327-.218h-.1Z" transform="translate(-968.377 -410.332)"/><path class="c" d="M1024.6,422.8h.186l.316.548.316-.548h.183l-.419.725v.56h-.159v-.56Z" transform="translate(-994.387 -410.332)"/><path class="c" d="M1312.552,379.108a.354.354,0,1,0-.354-.354.354.354,0,0,0,.354.354m.357,1.268a.643.643,0,0,1-.722.72h-.021a.958.958,0,0,1-.481-.121.413.413,0,0,1-.2-.572.336.336,0,0,1,.622.118c.024.127.091.112.091-.006v-.873a.375.375,0,0,1,.357-.419.357.357,0,0,1,.357.357Z" transform="translate(-1272.758 -367.242)"/><path class="c" d="M1368.314,407.844v-.964a.255.255,0,0,1,.124-.218c.08-.032.156.006.248.038a.389.389,0,0,0,.563-.23.357.357,0,0,0-.286-.416.7.7,0,0,0-.6.18h0l-.065.053a.357.357,0,0,0-.7.109v1.448Z" transform="translate(-1327.269 -394.058)"/><path class="c" d="M1400.954,444.808a.354.354,0,1,0-.354-.354.354.354,0,0,0,.354.354" transform="translate(-1359.299 -431.004)"/><path class="c" d="M1087.344,406.2a.944.944,0,0,0-.944.944v.861h.716v-.849a.5.5,0,0,1,.068-.26.192.192,0,0,1,.159-.106.2.2,0,0,1,.159.106.5.5,0,0,1,.068.26V408h.716v-.861a.944.944,0,0,0-.944-.944" transform="translate(-1054.364 -394.222)"/><path class="c" d="M1154.13,376.038a.4.4,0,1,0-.563,0l.089.089c.147.147.156.186.018.324l-.08.08a.359.359,0,0,0-.106.257v1.289h.723v-1.289a.359.359,0,0,0-.106-.257l-.079-.08c-.139-.139-.13-.177.018-.324Z" transform="translate(-1119.437 -364.29)"/><path class="c" d="M1183.646,407.641a.2.2,0,0,1-.162.124c-.065,0-.118-.047-.159-.124a.711.711,0,0,1,0-.6.2.2,0,0,1,.159-.124.2.2,0,0,1,.162.124.6.6,0,0,1,.062.212h.716a.944.944,0,1,0,0,.177h-.716a.6.6,0,0,1-.062.212" transform="translate(-1147.67 -394.416)"/><path class="c" d="M1251.5,407.612a.123.123,0,0,0-.018-.065l-.392-.593.271-.492a.358.358,0,1,0-.616-.363l-.324.581v-.389a.358.358,0,0,0-.717,0v1.448h.717v-.566l.377.566h.578a.124.124,0,0,0,.124-.124" transform="translate(-1212.849 -393.953)"/><path class="c" d="M1430.074,410.041H1430V410h.189v.038h-.071v.2h-.044Zm.168-.041h.006l.118.13.115-.13h.006v.245h-.044v-.15l-.077.088h-.009l-.077-.088v.15h-.044Z" transform="translate(-1387.832 -397.91)"/></g></svg>