<svg xmlns="http://www.w3.org/2000/svg" xmlns:xlink="http://www.w3.org/1999/xlink" width="55.825" height="12.313" viewBox="0 0 55.825 12.313"><defs><style>.a{fill:none;}.b{clip-path:url(#a);}.c{fill:#fff;}</style><clipPath id="a"><rect class="a" width="55.825" height="12.313"/></clipPath></defs><g class="b" transform="translate(0 0)"><path class="c" d="M189.534,67.3c-.264.371-.491.484-.692.484s-.352-.226-.321-.56a7.352,7.352,0,0,1,1.208-2.856c.3-.422.516-.6.742-.6s.3.2.3.434a7.709,7.709,0,0,1-1.233,3.1m-11.778.145c-.17,0-.283-.057-.289-.277a5.244,5.244,0,0,1,1.088-2.429,2.1,2.1,0,0,1,1.554-.988l-.749,1.667h0c-.56,1.277-1.145,2.026-1.611,2.026m-7.323,0c-.17,0-.283-.057-.289-.277a5.244,5.244,0,0,1,1.088-2.429,2.1,2.1,0,0,1,1.554-.988l-.749,1.667c-.554,1.258-1.164,2.026-1.611,2.026m33.433-5.65h-1.17l-.271.617-.459,1.032H201.4l-.164.352h.566l-.679,1.516c-.484,1.07-1.258,2.12-1.7,2.12-.094,0-.151-.044-.151-.138a1.213,1.213,0,0,1,.138-.459c.113-.271.365-.793.535-1.132a5.523,5.523,0,0,0,.635-1.661.66.66,0,0,0-.73-.686,2.282,2.282,0,0,0-1.479.8l.289-.711h-1.107L196.65,65.5c-.359.73-1.1,1.938-1.554,1.938-.094,0-.132-.057-.132-.151a.78.78,0,0,1,.063-.252l.579-1.346.975-2.246h-1.189l-.95,2.183c-.3.673-1.038,1.818-1.516,1.818a.151.151,0,0,1-.164-.17,1.627,1.627,0,0,1,.157-.491l.5-1.095h0l1.032-2.246h-1.183l-.233.51h0a1.144,1.144,0,0,1-.937.742.407.407,0,0,1-.384-.176,1.168,1.168,0,0,0-1.252-1.158,2.552,2.552,0,0,0-2.139,1.283,6.02,6.02,0,0,0-.7,1.567c-.422.692-.868,1.233-1.208,1.233-.088,0-.145-.05-.145-.17a1.709,1.709,0,0,1,.157-.478l.761-1.648a3.288,3.288,0,0,0,.365-1.177.605.605,0,0,0-.648-.61,2.318,2.318,0,0,0-1.642.856,1.277,1.277,0,0,0,.025-.258.529.529,0,0,0-.6-.6,2.1,2.1,0,0,0-1.516.856l.315-.768h-1.088l-.912,2.051c-.434.969-1.126,1.938-1.523,1.938-.094,0-.145-.05-.145-.164a4.813,4.813,0,0,1,.283-.83l1.2-2.737c.088-.2-.491-.333-1.221-.333a3.509,3.509,0,0,0-2.1.849,1.873,1.873,0,0,1-.849.5c-.157,0-.107-.038-.107-.088,0-.17.4-.642.4-.994,0-.164-.088-.271-.315-.271a2.14,2.14,0,0,0-1.315.843l.321-.755H175.07l-.906,2.051c-.434.969-1.145,1.976-1.541,1.976-.094,0-.145-.05-.145-.164a4.693,4.693,0,0,1,.3-.875l1.2-2.737c.088-.2-.491-.333-1.227-.333a3.69,3.69,0,0,0-2.712,1.485A4.629,4.629,0,0,0,169,67.242a.806.806,0,0,0,.875.919,2.237,2.237,0,0,0,1.5-.912,2.193,2.193,0,0,0-.038.233c0,.4.157.679.635.679a2.036,2.036,0,0,0,1.434-.919l-.365.837h1.151l1.126-2.554c.365-.83.793-1.265.906-1.265s.05.019.05.05a1.8,1.8,0,0,0-.17.541c0,.22.12.377.428.377a1.382,1.382,0,0,0,.768-.271,4.362,4.362,0,0,0-.975,2.29.806.806,0,0,0,.875.919,2.343,2.343,0,0,0,1.51-.975,1.984,1.984,0,0,0-.025.271.639.639,0,0,0,.661.7,1.936,1.936,0,0,0,1.372-.9l-.359.818h1.176l1.076-2.441c.472-1.063,1.107-1.623,1.422-1.623a.145.145,0,0,1,.157.157,1.013,1.013,0,0,1-.094.346l-1.573,3.561h1.2l1.1-2.485c.472-1.063.994-1.592,1.384-1.592.12,0,.17.063.17.189a.851.851,0,0,1-.113.39l-1.057,2.252a1.868,1.868,0,0,0-.17.686.62.62,0,0,0,.711.648c.686,0,1.208-.516,1.793-1.3v.157a1.159,1.159,0,0,0,1.3,1.151,2.82,2.82,0,0,0,2.479-1.932,4.238,4.238,0,0,0,.384-1.328.849.849,0,0,0,.384.082,1.1,1.1,0,0,0,.51-.126l-.189.409c-.214.453-.459.956-.635,1.372a2.239,2.239,0,0,0-.208.793.658.658,0,0,0,.711.724,2.412,2.412,0,0,0,1.6-1.088h.013a2.406,2.406,0,0,0-.05.4c0,.346.107.686.6.686a2.193,2.193,0,0,0,1.441-.925l-.365.83h1.189l.95-2.152c.535-1.214,1.076-1.944,1.579-1.944a.156.156,0,0,1,.164.176,6.124,6.124,0,0,1-.56,1.327c-.271.566-.428.9-.56,1.208a2.229,2.229,0,0,0-.208.812.61.61,0,0,0,.667.661A2.591,2.591,0,0,0,200.494,67a2.4,2.4,0,0,0-.138.749.933.933,0,0,0,.994,1.032,1.843,1.843,0,0,0,1.07-.359,4.925,4.925,0,0,0,1.12-1.221l-.2-.2a4.616,4.616,0,0,1-.919,1.026,1.026,1.026,0,0,1-.61.239.393.393,0,0,1-.4-.447,3.979,3.979,0,0,1,.371-1.3l.635-1.441.56-1.271h.774l.157-.352h-.774Z" transform="translate(-158.366 -57.912)"/><path class="c" d="M9.056,6.719a7.424,7.424,0,0,0,1.309-.271c1.548-.434,3.3-1.466,3.3-3.309C13.661,1.019,11.421,0,8.747,0,5.9,0,3.28,1.265,2.311,3.228a3.769,3.769,0,0,0-.4,1.686,2.555,2.555,0,0,0,.4,1.434,2.514,2.514,0,0,0,2.227.994c1.321,0,2.372-.73,2.372-1.988A.344.344,0,0,0,6.52,5c-.409,0-.422.226-.415.346A1.555,1.555,0,0,1,4.519,7.128c-1.17,0-1.667-1-1.667-2.07A4.672,4.672,0,0,1,6.212.8a6.719,6.719,0,0,1,2.5-.434c1.938,0,3.523.749,3.523,2.743A3.308,3.308,0,0,1,9.163,6.317l.069-.233a12.384,12.384,0,0,1,1.447-3.561c.038-.063.113-.157.189-.258l-.094-.12a5.153,5.153,0,0,0-.428.3C7.13,4.964,7.03,12.017,2.751,12.017a2.725,2.725,0,0,1-.434-.031A1.493,1.493,0,0,1,.958,10.406c0-.164.057-.39.057-.522a.483.483,0,0,0-.466-.44c-.321,0-.547.3-.554.73-.019,1.258.9,1.982,2.315,2.114q.233.019.484.019c3.341,0,5.4-2.529,6.26-5.593" transform="translate(0.004 0)"/><path class="c" d="M734.9,54.042l.969-2.082h3.265l1.523-3.259h2.089l-1.523,3.259h3.265l-.969,2.082h-3.265l-1.529,3.278h-2.089l1.529-3.278Z" transform="translate(-688.664 -45.636)"/></g></svg>