<svg xmlns="http://www.w3.org/2000/svg" xmlns:xlink="http://www.w3.org/1999/xlink" width="268.657" height="14" viewBox="0 0 268.657 14">
  <defs>
    <clipPath id="clip-path">
      <rect id="Rectángulo_3442" data-name="Rectángulo 3442" width="55.825" height="12.313" fill="none"/>
    </clipPath>
    <clipPath id="clip-path-2">
      <rect id="Rectángulo_3441" data-name="Rectángulo 3441" width="42.657" height="14" fill="none"/>
    </clipPath>
    <clipPath id="clip-path-3">
      <rect id="Rectángulo_3439" data-name="Rectángulo 3439" width="67.142" height="13.011" fill="none"/>
    </clipPath>
  </defs>
  <g id="Grupo_16321" data-name="Grupo 16321" transform="translate(-294 -584)">
    <g id="Grupo_16322" data-name="Grupo 16322">
      <g id="Paramount_Negro" data-name="Paramount + Negro" transform="translate(377 585)">
        <g id="Grupo_5274" data-name="Grupo 5274" transform="translate(0 0)" clip-path="url(#clip-path)">
          <path id="Trazado_6809" data-name="Trazado 6809" d="M189.534,67.3c-.264.371-.491.484-.692.484s-.352-.226-.321-.56a7.352,7.352,0,0,1,1.208-2.856c.3-.422.516-.6.742-.6s.3.2.3.434a7.709,7.709,0,0,1-1.233,3.1m-11.778.145c-.17,0-.283-.057-.289-.277a5.244,5.244,0,0,1,1.088-2.429,2.1,2.1,0,0,1,1.554-.988l-.749,1.667h0c-.56,1.277-1.145,2.026-1.611,2.026m-7.323,0c-.17,0-.283-.057-.289-.277a5.244,5.244,0,0,1,1.088-2.429,2.1,2.1,0,0,1,1.554-.988l-.749,1.667c-.554,1.258-1.164,2.026-1.611,2.026m33.433-5.65h-1.17l-.271.617-.459,1.032H201.4l-.164.352h.566l-.679,1.516c-.484,1.07-1.258,2.12-1.7,2.12-.094,0-.151-.044-.151-.138a1.213,1.213,0,0,1,.138-.459c.113-.271.365-.793.535-1.132a5.523,5.523,0,0,0,.635-1.661.66.66,0,0,0-.73-.686,2.282,2.282,0,0,0-1.479.8l.289-.711h-1.107L196.65,65.5c-.359.73-1.1,1.938-1.554,1.938-.094,0-.132-.057-.132-.151a.78.78,0,0,1,.063-.252l.579-1.346.975-2.246h-1.189l-.95,2.183c-.3.673-1.038,1.818-1.516,1.818a.151.151,0,0,1-.164-.17,1.627,1.627,0,0,1,.157-.491l.5-1.095h0l1.032-2.246h-1.183l-.233.51h0a1.144,1.144,0,0,1-.937.742.407.407,0,0,1-.384-.176,1.168,1.168,0,0,0-1.252-1.158,2.552,2.552,0,0,0-2.139,1.283,6.02,6.02,0,0,0-.7,1.567c-.422.692-.868,1.233-1.208,1.233-.088,0-.145-.05-.145-.17a1.709,1.709,0,0,1,.157-.478l.761-1.648a3.288,3.288,0,0,0,.365-1.177.605.605,0,0,0-.648-.61,2.318,2.318,0,0,0-1.642.856,1.277,1.277,0,0,0,.025-.258.529.529,0,0,0-.6-.6,2.1,2.1,0,0,0-1.516.856l.315-.768h-1.088l-.912,2.051c-.434.969-1.126,1.938-1.523,1.938-.094,0-.145-.05-.145-.164a4.813,4.813,0,0,1,.283-.83l1.2-2.737c.088-.2-.491-.333-1.221-.333a3.509,3.509,0,0,0-2.1.849,1.873,1.873,0,0,1-.849.5c-.157,0-.107-.038-.107-.088,0-.17.4-.642.4-.994,0-.164-.088-.271-.315-.271a2.14,2.14,0,0,0-1.315.843l.321-.755H175.07l-.906,2.051c-.434.969-1.145,1.976-1.541,1.976-.094,0-.145-.05-.145-.164a4.693,4.693,0,0,1,.3-.875l1.2-2.737c.088-.2-.491-.333-1.227-.333a3.69,3.69,0,0,0-2.712,1.485A4.629,4.629,0,0,0,169,67.242a.806.806,0,0,0,.875.919,2.237,2.237,0,0,0,1.5-.912,2.193,2.193,0,0,0-.038.233c0,.4.157.679.635.679a2.036,2.036,0,0,0,1.434-.919l-.365.837h1.151l1.126-2.554c.365-.83.793-1.265.906-1.265s.05.019.05.05a1.8,1.8,0,0,0-.17.541c0,.22.12.377.428.377a1.382,1.382,0,0,0,.768-.271,4.362,4.362,0,0,0-.975,2.29.806.806,0,0,0,.875.919,2.343,2.343,0,0,0,1.51-.975,1.984,1.984,0,0,0-.025.271.639.639,0,0,0,.661.7,1.936,1.936,0,0,0,1.372-.9l-.359.818h1.176l1.076-2.441c.472-1.063,1.107-1.623,1.422-1.623a.145.145,0,0,1,.157.157,1.013,1.013,0,0,1-.094.346l-1.573,3.561h1.2l1.1-2.485c.472-1.063.994-1.592,1.384-1.592.12,0,.17.063.17.189a.851.851,0,0,1-.113.39l-1.057,2.252a1.868,1.868,0,0,0-.17.686.62.62,0,0,0,.711.648c.686,0,1.208-.516,1.793-1.3v.157a1.159,1.159,0,0,0,1.3,1.151,2.82,2.82,0,0,0,2.479-1.932,4.238,4.238,0,0,0,.384-1.328.849.849,0,0,0,.384.082,1.1,1.1,0,0,0,.51-.126l-.189.409c-.214.453-.459.956-.635,1.372a2.239,2.239,0,0,0-.208.793.658.658,0,0,0,.711.724,2.412,2.412,0,0,0,1.6-1.088h.013a2.406,2.406,0,0,0-.05.4c0,.346.107.686.6.686a2.193,2.193,0,0,0,1.441-.925l-.365.83h1.189l.95-2.152c.535-1.214,1.076-1.944,1.579-1.944a.156.156,0,0,1,.164.176,6.124,6.124,0,0,1-.56,1.327c-.271.566-.428.9-.56,1.208a2.229,2.229,0,0,0-.208.812.61.61,0,0,0,.667.661A2.591,2.591,0,0,0,200.494,67a2.4,2.4,0,0,0-.138.749.933.933,0,0,0,.994,1.032,1.843,1.843,0,0,0,1.07-.359,4.925,4.925,0,0,0,1.12-1.221l-.2-.2a4.616,4.616,0,0,1-.919,1.026,1.026,1.026,0,0,1-.61.239.393.393,0,0,1-.4-.447,3.979,3.979,0,0,1,.371-1.3l.635-1.441.56-1.271h.774l.157-.352h-.774Z" transform="translate(-158.366 -57.912)" fill="#fff"/>
          <path id="Trazado_6810" data-name="Trazado 6810" d="M9.056,6.719a7.424,7.424,0,0,0,1.309-.271c1.548-.434,3.3-1.466,3.3-3.309C13.661,1.019,11.421,0,8.747,0,5.9,0,3.28,1.265,2.311,3.228a3.769,3.769,0,0,0-.4,1.686,2.555,2.555,0,0,0,.4,1.434,2.514,2.514,0,0,0,2.227.994c1.321,0,2.372-.73,2.372-1.988A.344.344,0,0,0,6.52,5c-.409,0-.422.226-.415.346A1.555,1.555,0,0,1,4.519,7.128c-1.17,0-1.667-1-1.667-2.07A4.672,4.672,0,0,1,6.212.8a6.719,6.719,0,0,1,2.5-.434c1.938,0,3.523.749,3.523,2.743A3.308,3.308,0,0,1,9.163,6.317l.069-.233a12.384,12.384,0,0,1,1.447-3.561c.038-.063.113-.157.189-.258l-.094-.12a5.153,5.153,0,0,0-.428.3C7.13,4.964,7.03,12.017,2.751,12.017a2.725,2.725,0,0,1-.434-.031A1.493,1.493,0,0,1,.958,10.406c0-.164.057-.39.057-.522a.483.483,0,0,0-.466-.44c-.321,0-.547.3-.554.73-.019,1.258.9,1.982,2.315,2.114q.233.019.484.019c3.341,0,5.4-2.529,6.26-5.593" transform="translate(0.004 0)" fill="#fff"/>
          <path id="Trazado_6811" data-name="Trazado 6811" d="M734.9,54.042l.969-2.082h3.265l1.523-3.259h2.089l-1.523,3.259h3.265l-.969,2.082h-3.265l-1.529,3.278h-2.089l1.529-3.278Z" transform="translate(-688.664 -45.636)" fill="#fff"/>
        </g>
      </g>
      <g id="Noggin_by_nick_jr" data-name="Noggin by nick jr" transform="translate(520 584)">
        <g id="Grupo_5273" data-name="Grupo 5273" transform="translate(0 0)" clip-path="url(#clip-path-2)">
          <path id="Trazado_6798" data-name="Trazado 6798" d="M11.424,6.947a.967.967,0,1,0-.967.97.967.967,0,0,0,.967-.97m2.321.027a3.288,3.288,0,1,1-3.288-3.288,3.288,3.288,0,0,1,3.288,3.288M3.3,3.683A3.306,3.306,0,0,0,0,6.985v3.179H2.725V6.776H3.881v3.388H6.6V6.985a3.306,3.306,0,0,0-3.3-3.3M18.586,6.947a.967.967,0,1,0-.967.97.967.967,0,0,0,.967-.97m2.424,4.016a3.323,3.323,0,0,1-6.641-.133h2.356a.974.974,0,0,0,.935.985.911.911,0,0,0,.926-.961.859.859,0,0,0-.336-.672,3.17,3.17,0,0,1-.7.074,3.286,3.286,0,0,1,0-6.573,3.506,3.506,0,0,1,1.318.274,1.024,1.024,0,0,1,1.97.484v2.53a2.645,2.645,0,0,1-.708,1.872,2.82,2.82,0,0,1,.882,2.12m4.739-4.016a.967.967,0,1,0-.967.97.967.967,0,0,0,.967-.97m2.424,4.016a3.322,3.322,0,0,1-6.638-.133h2.356a.974.974,0,0,0,.935.985.911.911,0,0,0,.926-.961.859.859,0,0,0-.336-.672,3.17,3.17,0,0,1-.7.074,3.286,3.286,0,1,1,0-6.573,3.506,3.506,0,0,1,1.318.274,1.024,1.024,0,0,1,1.97.484v2.53A2.645,2.645,0,0,1,27.3,8.843a2.82,2.82,0,0,1,.882,2.12M35.595,3.68a3.306,3.306,0,0,0-3.3,3.3v3.182h2.725V6.776h1.156v3.388h2.722V6.985a3.306,3.306,0,0,0-3.3-3.3m-5.435-.616a1.483,1.483,0,1,0-1.483-1.483,1.483,1.483,0,0,0,1.483,1.483m-1.4,7.1V5.045a1.362,1.362,0,1,1,2.725,0v5.122Z" transform="translate(0 -0.097)" fill="#fff"/>
          <path id="Trazado_6799" data-name="Trazado 6799" d="M997.8,422.8h.156c.242,0,.472.062.472.354a.275.275,0,0,1-.139.245h0a.331.331,0,0,1,.257.324c0,.257-.221.36-.448.36h-.3Zm.159.569H998c.151,0,.277-.029.277-.215s-.124-.212-.274-.212h-.044Zm0,.572h.124c.147,0,.3-.044.3-.227s-.183-.218-.327-.218h-.1Z" transform="translate(-968.377 -410.332)" fill="#fff"/>
          <path id="Trazado_6800" data-name="Trazado 6800" d="M1024.6,422.8h.186l.316.548.316-.548h.183l-.419.725v.56h-.159v-.56Z" transform="translate(-994.387 -410.332)" fill="#fff"/>
          <path id="Trazado_6801" data-name="Trazado 6801" d="M1312.552,379.108a.354.354,0,1,0-.354-.354.354.354,0,0,0,.354.354m.357,1.268a.643.643,0,0,1-.722.72h-.021a.958.958,0,0,1-.481-.121.413.413,0,0,1-.2-.572.336.336,0,0,1,.622.118c.024.127.091.112.091-.006v-.873a.375.375,0,0,1,.357-.419.357.357,0,0,1,.357.357Z" transform="translate(-1272.758 -367.242)" fill="#fff"/>
          <path id="Trazado_6802" data-name="Trazado 6802" d="M1368.314,407.844v-.964a.255.255,0,0,1,.124-.218c.08-.032.156.006.248.038a.389.389,0,0,0,.563-.23.357.357,0,0,0-.286-.416.7.7,0,0,0-.6.18h0l-.065.053a.357.357,0,0,0-.7.109v1.448Z" transform="translate(-1327.269 -394.058)" fill="#fff"/>
          <path id="Trazado_6803" data-name="Trazado 6803" d="M1400.954,444.808a.354.354,0,1,0-.354-.354.354.354,0,0,0,.354.354" transform="translate(-1359.299 -431.004)" fill="#fff"/>
          <path id="Trazado_6804" data-name="Trazado 6804" d="M1087.344,406.2a.944.944,0,0,0-.944.944v.861h.716v-.849a.5.5,0,0,1,.068-.26.192.192,0,0,1,.159-.106.2.2,0,0,1,.159.106.5.5,0,0,1,.068.26V408h.716v-.861a.944.944,0,0,0-.944-.944" transform="translate(-1054.364 -394.222)" fill="#fff"/>
          <path id="Trazado_6805" data-name="Trazado 6805" d="M1154.13,376.038a.4.4,0,1,0-.563,0l.089.089c.147.147.156.186.018.324l-.08.08a.359.359,0,0,0-.106.257v1.289h.723v-1.289a.359.359,0,0,0-.106-.257l-.079-.08c-.139-.139-.13-.177.018-.324Z" transform="translate(-1119.437 -364.29)" fill="#fff"/>
          <path id="Trazado_6806" data-name="Trazado 6806" d="M1183.646,407.641a.2.2,0,0,1-.162.124c-.065,0-.118-.047-.159-.124a.711.711,0,0,1,0-.6.2.2,0,0,1,.159-.124.2.2,0,0,1,.162.124.6.6,0,0,1,.062.212h.716a.944.944,0,1,0,0,.177h-.716a.6.6,0,0,1-.062.212" transform="translate(-1147.67 -394.416)" fill="#fff"/>
          <path id="Trazado_6807" data-name="Trazado 6807" d="M1251.5,407.612a.123.123,0,0,0-.018-.065l-.392-.593.271-.492a.358.358,0,1,0-.616-.363l-.324.581v-.389a.358.358,0,0,0-.717,0v1.448h.717v-.566l.377.566h.578a.124.124,0,0,0,.124-.124" transform="translate(-1212.849 -393.953)" fill="#fff"/>
          <path id="Trazado_6808" data-name="Trazado 6808" d="M1430.074,410.041H1430V410h.189v.038h-.071v.2h-.044Zm.168-.041h.006l.118.13.115-.13h.006v.245h-.044v-.15l-.077.088h-.009l-.077-.088v.15h-.044Z" transform="translate(-1387.832 -397.91)" fill="#fff"/>
        </g>
      </g>
      <circle id="Elipse_298" data-name="Elipse 298" cx="2" cy="2" r="2" transform="translate(510 589)" fill="#fff"/>
      <g id="amazon_prime" data-name="amazon prime" transform="translate(294 584)">
        <g id="amazon_prime-2" data-name="amazon prime" transform="translate(0 0)" clip-path="url(#clip-path-3)">
          <path id="Trazado_6772" data-name="Trazado 6772" d="M182.776,21.04a.326.326,0,0,1-.224-.061.305.305,0,0,1-.061-.224V13.042a.305.305,0,0,1,.061-.224.326.326,0,0,1,.224-.061h.834a.305.305,0,0,1,.326.265l.081.305a2.564,2.564,0,0,1,.834-.529,2.666,2.666,0,0,1,1-.2,2.157,2.157,0,0,1,1.771.814,3.455,3.455,0,0,1,.651,2.218,4.05,4.05,0,0,1-.326,1.669,2.626,2.626,0,0,1-.875,1.1,2.178,2.178,0,0,1-1.282.387,2.707,2.707,0,0,1-.9-.142,2.178,2.178,0,0,1-.733-.407v2.524a.244.244,0,0,1-.285.285Zm2.544-3.521a1.079,1.079,0,0,0,.957-.448,2.49,2.49,0,0,0,.305-1.384,2.6,2.6,0,0,0-.305-1.4,1.079,1.079,0,0,0-.957-.448,2.2,2.2,0,0,0-1.14.305v3.053a2.117,2.117,0,0,0,1.14.305" transform="translate(-145.348 -10.03)" fill="#fff"/>
          <path id="Trazado_6773" data-name="Trazado 6773" d="M216.869,19.059a.244.244,0,0,1-.285-.285V13.442a.305.305,0,0,1,.061-.224.326.326,0,0,1,.224-.061h.834a.305.305,0,0,1,.326.265l.142.631a3.3,3.3,0,0,1,.875-.733,1.872,1.872,0,0,1,.875-.224h.163a.346.346,0,0,1,.224.061.305.305,0,0,1,.061.224v.977a.326.326,0,0,1-.061.224.305.305,0,0,1-.224.061h-.529a3.44,3.44,0,0,0-.651.081,3.2,3.2,0,0,0-.651.183v3.867a.326.326,0,0,1-.061.224.305.305,0,0,1-.224.061Z" transform="translate(-172.501 -10.43)" fill="#fff"/>
          <path id="Trazado_6774" data-name="Trazado 6774" d="M239.65,1.82a1,1,0,0,1-.692-.244.855.855,0,0,1-.265-.651.855.855,0,0,1,.265-.672,1.14,1.14,0,0,1,1.4,0,.855.855,0,0,1,.265.651.855.855,0,0,1-.265.651,1,1,0,0,1-.712.244m-.55,6.818a.244.244,0,0,1-.285-.285V3.021a.305.305,0,0,1,.061-.224.326.326,0,0,1,.224-.061h1.119a.326.326,0,0,1,.224.061.326.326,0,0,1,.061.224V8.353a.326.326,0,0,1-.061.224.305.305,0,0,1-.224.061Z" transform="translate(-190.113 -0.009)" fill="#fff"/>
          <path id="Trazado_6775" data-name="Trazado 6775" d="M254.869,18.571a.244.244,0,0,1-.285-.285V12.953a.305.305,0,0,1,.061-.224.326.326,0,0,1,.224-.061h.834a.305.305,0,0,1,.326.265l.1.305a4.985,4.985,0,0,1,1.1-.57,3.114,3.114,0,0,1,1.018-.163,1.556,1.556,0,0,1,1.465.733,4.743,4.743,0,0,1,1.119-.57,3.378,3.378,0,0,1,1.079-.183,1.689,1.689,0,0,1,1.262.448,1.709,1.709,0,0,1,.448,1.262v4.091a.326.326,0,0,1-.061.224.305.305,0,0,1-.224.061H262.2a.244.244,0,0,1-.285-.285V14.561q0-.794-.712-.794a2.931,2.931,0,0,0-1.262.305v4.213a.325.325,0,0,1-.061.224.305.305,0,0,1-.224.061h-1.119a.244.244,0,0,1-.285-.285V14.561q0-.794-.712-.794a2.808,2.808,0,0,0-1.282.305v4.213a.326.326,0,0,1-.061.224.305.305,0,0,1-.224.061Z" transform="translate(-202.767 -9.941)" fill="#fff"/>
          <path id="Trazado_6776" data-name="Trazado 6776" d="M306.971,18.768a2.929,2.929,0,0,1-2.2-.794A3.1,3.1,0,0,1,304,15.716a3.335,3.335,0,0,1,.794-2.361,2.826,2.826,0,0,1,2.178-.855,2.5,2.5,0,0,1,1.689.529,1.73,1.73,0,0,1,.611,1.384,1.486,1.486,0,0,1-.651,1.323,3.422,3.422,0,0,1-1.934.448,4.538,4.538,0,0,1-1.14-.122,1.565,1.565,0,0,0,.468,1.119,1.739,1.739,0,0,0,1.2.326l.631-.041.855-.183h.122q.2,0,.2.265v.529a.489.489,0,0,1-.061.265.427.427,0,0,1-.2.142,4.966,4.966,0,0,1-1.791.326m-.387-3.643a1.567,1.567,0,0,0,.855-.183.61.61,0,0,0,.265-.55q0-.733-.875-.733t-1.262,1.343a5.251,5.251,0,0,0,1.038.1" transform="translate(-242.129 -9.956)" fill="#fff"/>
          <path id="Trazado_6777" data-name="Trazado 6777" d="M40.455,46.9a13.081,13.081,0,0,1-7.408,2.259A13.412,13.412,0,0,1,23.99,45.7c-.183-.163-.02-.407.2-.265a18.235,18.235,0,0,0,9.057,2.4,18.032,18.032,0,0,0,6.92-1.425c.346-.142.631.224.285.468" transform="translate(-19.045 -36.151)" fill="#fff" fill-rule="evenodd"/>
          <path id="Trazado_6778" data-name="Trazado 6778" d="M99.49,44.564c-.265-.326-1.689-.163-2.34-.081-.2.02-.224-.142-.041-.265a3.618,3.618,0,0,1,3.256-.305,3.545,3.545,0,0,1-1.14,3.053c-.163.142-.326.061-.244-.122.244-.611.794-1.954.529-2.279" transform="translate(-77.245 -34.775)" fill="#fff" fill-rule="evenodd"/>
          <path id="Trazado_6779" data-name="Trazado 6779" d="M97.2,14.577V13.8a.2.2,0,0,1,.2-.2h3.521a.2.2,0,0,1,.2.2v.672a1.1,1.1,0,0,1-.265.488l-1.832,2.585a3.887,3.887,0,0,1,1.995.427.366.366,0,0,1,.183.305v.834a.192.192,0,0,1-.265.183,4.05,4.05,0,0,0-3.7,0c-.122.061-.244-.061-.244-.183v-.773a.936.936,0,0,1,.122-.529L99.23,14.78H97.4a.2.2,0,0,1-.2-.2" transform="translate(-77.25 -10.832)" fill="#fff" fill-rule="evenodd"/>
          <path id="Trazado_6780" data-name="Trazado 6780" d="M122.722,14.219c-.794,0-.834,1.079-.834,1.75s0,2.1.834,2.1.875-1.16.875-1.852a5.068,5.068,0,0,0-.163-1.445.672.672,0,0,0-.692-.529m0-1.119c1.587,0,2.442,1.364,2.442,3.094s-.977,2.971-2.483,2.971-2.4-1.364-2.4-3.053.855-3.032,2.4-3.032" transform="translate(-95.816 -10.434)" fill="#fff" fill-rule="evenodd"/>
          <path id="Trazado_6781" data-name="Trazado 6781" d="M73.028,18.824a.224.224,0,0,1-.244.02,2.788,2.788,0,0,1-.611-.712,2.14,2.14,0,0,1-1.771.773A1.585,1.585,0,0,1,68.8,17.237a1.811,1.811,0,0,1,1.14-1.75,6.659,6.659,0,0,1,2.015-.366,1.848,1.848,0,0,0-.122-.916.753.753,0,0,0-.59-.285.814.814,0,0,0-.855.631c-.02.122-.1.224-.2.2l-1.018-.1A.183.183,0,0,1,69,14.428,2.153,2.153,0,0,1,71.38,12.8a2.431,2.431,0,0,1,1.608.529,2.609,2.609,0,0,1,.468,1.832V16.83a1.457,1.457,0,0,0,.407,1,.2.2,0,0,1,0,.285l-.814.712m-1.1-2.605a2.229,2.229,0,0,1-.2,1.14.875.875,0,0,1-.733.488c-.407,0-.651-.305-.651-.773,0-.916.814-1.079,1.587-1.079Z" transform="translate(-54.793 -10.195)" fill="#fff" fill-rule="evenodd"/>
          <path id="Trazado_6782" data-name="Trazado 6782" d="M4.228,18.824a.224.224,0,0,1-.244.02,2.788,2.788,0,0,1-.611-.712,2.14,2.14,0,0,1-1.771.773A1.585,1.585,0,0,1,0,17.237a1.811,1.811,0,0,1,1.14-1.75A6.659,6.659,0,0,1,3.15,15.12a1.848,1.848,0,0,0-.122-.916.753.753,0,0,0-.59-.285.814.814,0,0,0-.855.631c-.02.122-.1.224-.2.2l-1.018-.1A.183.183,0,0,1,.2,14.428,2.153,2.153,0,0,1,2.58,12.8a2.431,2.431,0,0,1,1.608.529,2.609,2.609,0,0,1,.468,1.832V16.83a1.457,1.457,0,0,0,.407,1,.2.2,0,0,1,0,.285l-.814.712m-1.1-2.605a2.229,2.229,0,0,1-.2,1.14.875.875,0,0,1-.733.488c-.407,0-.651-.305-.651-.773,0-.916.814-1.079,1.587-1.079Z" transform="translate(0.005 -10.195)" fill="#fff" fill-rule="evenodd"/>
          <path id="Trazado_6783" data-name="Trazado 6783" d="M30.365,15.97c0-.631-.02-1.506.733-1.506s.672.9.672,1.506v2.91a.2.2,0,0,0,.183.2h1.058a.2.2,0,0,0,.2-.2V15.97a3.317,3.317,0,0,1,.1-1.058.712.712,0,0,1,.631-.448.55.55,0,0,1,.631.468,7.022,7.022,0,0,1,.02,1.018V18.88a.2.2,0,0,0,.183.2H35.84a.2.2,0,0,0,.2-.2V15.42a2.963,2.963,0,0,0-.265-1.71,1.587,1.587,0,0,0-2.707.407,1.464,1.464,0,0,0-2.788,0h-.02v-.712a.2.2,0,0,0-.2-.2H29.1a.2.2,0,0,0-.2.2V18.88a.2.2,0,0,0,.2.2h1.058a.2.2,0,0,0,.2-.2Z" transform="translate(-23.018 -10.434)" fill="#fff" fill-rule="evenodd"/>
          <path id="Trazado_6784" data-name="Trazado 6784" d="M149.486,18.876a.2.2,0,0,1-.2.2H148.2a.2.2,0,0,1-.2-.2V13.4a.2.2,0,0,1,.2-.2h.977a.2.2,0,0,1,.2.163v.834h.02a1.446,1.446,0,0,1,1.465-1.1,1.4,1.4,0,0,1,1.242.651,3.455,3.455,0,0,1,.285,1.71v3.46a.2.2,0,0,1-.2.163h-1.079a.2.2,0,0,1-.183-.163V15.579c0-1.1-.427-1.14-.672-1.14a.733.733,0,0,0-.611.427,2.482,2.482,0,0,0-.183,1.038Z" transform="translate(-117.879 -10.43)" fill="#fff" fill-rule="evenodd"/>
        </g>
      </g>
      <circle id="Elipse_299" data-name="Elipse 299" cx="2" cy="2" r="2" transform="translate(367 589)" fill="#fff"/>
      <g id="starzplay_icon" transform="translate(448 587)">
        <g id="starzplay" transform="translate(0 0)">
          <g id="Grupo_7007" data-name="Grupo 7007">
            <path id="Trazado_7402" data-name="Trazado 7402" d="M45.953,8.333l.61-1.246H50l.61,1.246h1.678L48.267.4,44.3,8.333Zm1.348-2.7.966-1.932.966,1.932Z" transform="translate(-33.036 -0.298)" fill="#fff"/>
            <path id="Trazado_7403" data-name="Trazado 7403" d="M31.381.5H25.1V1.949h2.339V8.408h1.6V1.949h2.339Z" transform="translate(-18.718 -0.372)" fill="#fff"/>
            <path id="Trazado_7404" data-name="Trazado 7404" d="M82.921,2.906a2.263,2.263,0,0,0-.737-1.729A2.95,2.95,0,0,0,80.15.49H77.2V8.4h1.6V5.525h1.144L81.6,8.4H83.43L81.573,5.144a2.339,2.339,0,0,0,1.348-2.238Zm-2.95,1.068H78.8V1.94h1.17c.865,0,1.348.356,1.348,1.017S80.811,3.974,79.972,3.974Z" transform="translate(-57.57 -0.363)" fill="#fff"/>
            <path id="Trazado_7405" data-name="Trazado 7405" d="M110.14.5h-6.535V1.949h3.738L103.3,8.408h6.764V6.959H106.1Z" transform="translate(-77.034 -0.372)" fill="#fff"/>
            <path id="Trazado_7406" data-name="Trazado 7406" d="M3.534,3.355C2.238,3.05,1.78,2.847,1.78,2.237s.458-.814,1.144-.814a5.214,5.214,0,0,1,2.238.941l.687-1.348A4.475,4.475,0,0,0,2.95,0,2.455,2.455,0,0,0,.2,2.364c0,1.4.966,2.034,2.67,2.441s1.653.61,1.653,1.068-.483.89-1.246.89a4.1,4.1,0,0,1-2.619-1.2L0,6.966a4.907,4.907,0,0,0,3.229,1.2C4.984,8.161,6.1,7.22,6.1,5.72S5.365,3.813,3.534,3.355Z" transform="translate(0 0.001)" fill="#fff"/>
          </g>
          <g id="Grupo_7008" data-name="Grupo 7008" transform="translate(34.302 0.128)">
            <path id="Trazado_7407" data-name="Trazado 7407" d="M134.9.5h2.594a2.242,2.242,0,0,1,2.416,2.314,2.249,2.249,0,0,1-2.416,2.339h-2.11V8.408H134.9Zm2.568,4.2A1.776,1.776,0,0,0,139.4,2.814,1.745,1.745,0,0,0,137.468.958h-2.085V4.7Z" transform="translate(-134.9 -0.5)" fill="#fff"/>
            <path id="Trazado_7408" data-name="Trazado 7408" d="M157.7.5h.483V7.976h3.789v.458H157.7Z" transform="translate(-151.903 -0.5)" fill="#fff"/>
            <path id="Trazado_7409" data-name="Trazado 7409" d="M182.082,5.687h-3.356l-1.017,2.746H177.2L180.15.5h.509l2.975,7.908h-.509ZM180.4,1.059s-.178.61-.305.941l-1.221,3.2H181.9l-1.17-3.178c-.127-.331-.305-.941-.305-.941Z" transform="translate(-166.444 -0.5)" fill="#fff"/>
            <path id="Trazado_7410" data-name="Trazado 7410" d="M202.1,4.975,199.4.5h.559l1.882,3.128c.229.381.483.89.483.89h.025s.254-.509.483-.89L204.714.5h.559l-2.7,4.475V8.408H202.1Z" transform="translate(-182.999 -0.5)" fill="#fff"/>
          </g>
        </g>
      </g>
      <circle id="Elipse_300" data-name="Elipse 300" cx="2" cy="2" r="2" transform="translate(438 589)" fill="#fff"/>
    </g>
  </g>
</svg>
