<svg xmlns="http://www.w3.org/2000/svg" xmlns:xlink="http://www.w3.org/1999/xlink" width="228.914" height="14.702" viewBox="0 0 228.914 14.702">
  <defs>
    <clipPath id="clip-path">
      <rect id="Rect치ngulo_3442" data-name="Rect치ngulo 3442" width="55.825" height="12.313" fill="none"/>
    </clipPath>
    <clipPath id="clip-path-2">
      <rect id="Rect치ngulo_3441" data-name="Rect치ngulo 3441" width="42.657" height="14" fill="none"/>
    </clipPath>
  </defs>
  <g id="Grupo_16320" data-name="Grupo 16320" transform="translate(-190 -398)">
    <circle id="Elipse_25" data-name="Elipse 25" cx="2" cy="2" r="2" transform="translate(312 403)" fill="#fff"/>
    <circle id="Elipse_26" data-name="Elipse 26" cx="2" cy="2" r="2" transform="translate(359 403)" fill="#fff"/>
    <g id="Paramount_Negro" data-name="Paramount + Negro" transform="translate(190 399)">
      <g id="Grupo_5274" data-name="Grupo 5274" transform="translate(0 0)" clip-path="url(#clip-path)">
        <path id="Trazado_6809" data-name="Trazado 6809" d="M189.534,67.3c-.264.371-.491.484-.692.484s-.352-.226-.321-.56a7.352,7.352,0,0,1,1.208-2.856c.3-.422.516-.6.742-.6s.3.2.3.434a7.709,7.709,0,0,1-1.233,3.1m-11.778.145c-.17,0-.283-.057-.289-.277a5.244,5.244,0,0,1,1.088-2.429,2.1,2.1,0,0,1,1.554-.988l-.749,1.667h0c-.56,1.277-1.145,2.026-1.611,2.026m-7.323,0c-.17,0-.283-.057-.289-.277a5.244,5.244,0,0,1,1.088-2.429,2.1,2.1,0,0,1,1.554-.988l-.749,1.667c-.554,1.258-1.164,2.026-1.611,2.026m33.433-5.65h-1.17l-.271.617-.459,1.032H201.4l-.164.352h.566l-.679,1.516c-.484,1.07-1.258,2.12-1.7,2.12-.094,0-.151-.044-.151-.138a1.213,1.213,0,0,1,.138-.459c.113-.271.365-.793.535-1.132a5.523,5.523,0,0,0,.635-1.661.66.66,0,0,0-.73-.686,2.282,2.282,0,0,0-1.479.8l.289-.711h-1.107L196.65,65.5c-.359.73-1.1,1.938-1.554,1.938-.094,0-.132-.057-.132-.151a.78.78,0,0,1,.063-.252l.579-1.346.975-2.246h-1.189l-.95,2.183c-.3.673-1.038,1.818-1.516,1.818a.151.151,0,0,1-.164-.17,1.627,1.627,0,0,1,.157-.491l.5-1.095h0l1.032-2.246h-1.183l-.233.51h0a1.144,1.144,0,0,1-.937.742.407.407,0,0,1-.384-.176,1.168,1.168,0,0,0-1.252-1.158,2.552,2.552,0,0,0-2.139,1.283,6.02,6.02,0,0,0-.7,1.567c-.422.692-.868,1.233-1.208,1.233-.088,0-.145-.05-.145-.17a1.709,1.709,0,0,1,.157-.478l.761-1.648a3.288,3.288,0,0,0,.365-1.177.605.605,0,0,0-.648-.61,2.318,2.318,0,0,0-1.642.856,1.277,1.277,0,0,0,.025-.258.529.529,0,0,0-.6-.6,2.1,2.1,0,0,0-1.516.856l.315-.768h-1.088l-.912,2.051c-.434.969-1.126,1.938-1.523,1.938-.094,0-.145-.05-.145-.164a4.813,4.813,0,0,1,.283-.83l1.2-2.737c.088-.2-.491-.333-1.221-.333a3.509,3.509,0,0,0-2.1.849,1.873,1.873,0,0,1-.849.5c-.157,0-.107-.038-.107-.088,0-.17.4-.642.4-.994,0-.164-.088-.271-.315-.271a2.14,2.14,0,0,0-1.315.843l.321-.755H175.07l-.906,2.051c-.434.969-1.145,1.976-1.541,1.976-.094,0-.145-.05-.145-.164a4.693,4.693,0,0,1,.3-.875l1.2-2.737c.088-.2-.491-.333-1.227-.333a3.69,3.69,0,0,0-2.712,1.485A4.629,4.629,0,0,0,169,67.242a.806.806,0,0,0,.875.919,2.237,2.237,0,0,0,1.5-.912,2.193,2.193,0,0,0-.038.233c0,.4.157.679.635.679a2.036,2.036,0,0,0,1.434-.919l-.365.837h1.151l1.126-2.554c.365-.83.793-1.265.906-1.265s.05.019.05.05a1.8,1.8,0,0,0-.17.541c0,.22.12.377.428.377a1.382,1.382,0,0,0,.768-.271,4.362,4.362,0,0,0-.975,2.29.806.806,0,0,0,.875.919,2.343,2.343,0,0,0,1.51-.975,1.984,1.984,0,0,0-.025.271.639.639,0,0,0,.661.7,1.936,1.936,0,0,0,1.372-.9l-.359.818h1.176l1.076-2.441c.472-1.063,1.107-1.623,1.422-1.623a.145.145,0,0,1,.157.157,1.013,1.013,0,0,1-.094.346l-1.573,3.561h1.2l1.1-2.485c.472-1.063.994-1.592,1.384-1.592.12,0,.17.063.17.189a.851.851,0,0,1-.113.39l-1.057,2.252a1.868,1.868,0,0,0-.17.686.62.62,0,0,0,.711.648c.686,0,1.208-.516,1.793-1.3v.157a1.159,1.159,0,0,0,1.3,1.151,2.82,2.82,0,0,0,2.479-1.932,4.238,4.238,0,0,0,.384-1.328.849.849,0,0,0,.384.082,1.1,1.1,0,0,0,.51-.126l-.189.409c-.214.453-.459.956-.635,1.372a2.239,2.239,0,0,0-.208.793.658.658,0,0,0,.711.724,2.412,2.412,0,0,0,1.6-1.088h.013a2.406,2.406,0,0,0-.05.4c0,.346.107.686.6.686a2.193,2.193,0,0,0,1.441-.925l-.365.83h1.189l.95-2.152c.535-1.214,1.076-1.944,1.579-1.944a.156.156,0,0,1,.164.176,6.124,6.124,0,0,1-.56,1.327c-.271.566-.428.9-.56,1.208a2.229,2.229,0,0,0-.208.812.61.61,0,0,0,.667.661A2.591,2.591,0,0,0,200.494,67a2.4,2.4,0,0,0-.138.749.933.933,0,0,0,.994,1.032,1.843,1.843,0,0,0,1.07-.359,4.925,4.925,0,0,0,1.12-1.221l-.2-.2a4.616,4.616,0,0,1-.919,1.026,1.026,1.026,0,0,1-.61.239.393.393,0,0,1-.4-.447,3.979,3.979,0,0,1,.371-1.3l.635-1.441.56-1.271h.774l.157-.352h-.774Z" transform="translate(-158.366 -57.912)" fill="#fff"/>
        <path id="Trazado_6810" data-name="Trazado 6810" d="M9.056,6.719a7.424,7.424,0,0,0,1.309-.271c1.548-.434,3.3-1.466,3.3-3.309C13.661,1.019,11.421,0,8.747,0,5.9,0,3.28,1.265,2.311,3.228a3.769,3.769,0,0,0-.4,1.686,2.555,2.555,0,0,0,.4,1.434,2.514,2.514,0,0,0,2.227.994c1.321,0,2.372-.73,2.372-1.988A.344.344,0,0,0,6.52,5c-.409,0-.422.226-.415.346A1.555,1.555,0,0,1,4.519,7.128c-1.17,0-1.667-1-1.667-2.07A4.672,4.672,0,0,1,6.212.8a6.719,6.719,0,0,1,2.5-.434c1.938,0,3.523.749,3.523,2.743A3.308,3.308,0,0,1,9.163,6.317l.069-.233a12.384,12.384,0,0,1,1.447-3.561c.038-.063.113-.157.189-.258l-.094-.12a5.153,5.153,0,0,0-.428.3C7.13,4.964,7.03,12.017,2.751,12.017a2.725,2.725,0,0,1-.434-.031A1.493,1.493,0,0,1,.958,10.406c0-.164.057-.39.057-.522a.483.483,0,0,0-.466-.44c-.321,0-.547.3-.554.73-.019,1.258.9,1.982,2.315,2.114q.233.019.484.019c3.341,0,5.4-2.529,6.26-5.593" transform="translate(0.004 0)" fill="#fff"/>
        <path id="Trazado_6811" data-name="Trazado 6811" d="M734.9,54.042l.969-2.082h3.265l1.523-3.259h2.089l-1.523,3.259h3.265l-.969,2.082h-3.265l-1.529,3.278h-2.089l1.529-3.278Z" transform="translate(-688.664 -45.636)" fill="#fff"/>
      </g>
    </g>
    <g id="Noggin_by_nick_jr" data-name="Noggin by nick jr" transform="translate(263 398)">
      <g id="Grupo_5273" data-name="Grupo 5273" transform="translate(0 0)" clip-path="url(#clip-path-2)">
        <path id="Trazado_6798" data-name="Trazado 6798" d="M11.424,6.947a.967.967,0,1,0-.967.97.967.967,0,0,0,.967-.97m2.321.027a3.288,3.288,0,1,1-3.288-3.288,3.288,3.288,0,0,1,3.288,3.288M3.3,3.683A3.306,3.306,0,0,0,0,6.985v3.179H2.725V6.776H3.881v3.388H6.6V6.985a3.306,3.306,0,0,0-3.3-3.3M18.586,6.947a.967.967,0,1,0-.967.97.967.967,0,0,0,.967-.97m2.424,4.016a3.323,3.323,0,0,1-6.641-.133h2.356a.974.974,0,0,0,.935.985.911.911,0,0,0,.926-.961.859.859,0,0,0-.336-.672,3.17,3.17,0,0,1-.7.074,3.286,3.286,0,0,1,0-6.573,3.506,3.506,0,0,1,1.318.274,1.024,1.024,0,0,1,1.97.484v2.53a2.645,2.645,0,0,1-.708,1.872,2.82,2.82,0,0,1,.882,2.12m4.739-4.016a.967.967,0,1,0-.967.97.967.967,0,0,0,.967-.97m2.424,4.016a3.322,3.322,0,0,1-6.638-.133h2.356a.974.974,0,0,0,.935.985.911.911,0,0,0,.926-.961.859.859,0,0,0-.336-.672,3.17,3.17,0,0,1-.7.074,3.286,3.286,0,1,1,0-6.573,3.506,3.506,0,0,1,1.318.274,1.024,1.024,0,0,1,1.97.484v2.53A2.645,2.645,0,0,1,27.3,8.843a2.82,2.82,0,0,1,.882,2.12M35.595,3.68a3.306,3.306,0,0,0-3.3,3.3v3.182h2.725V6.776h1.156v3.388h2.722V6.985a3.306,3.306,0,0,0-3.3-3.3m-5.435-.616a1.483,1.483,0,1,0-1.483-1.483,1.483,1.483,0,0,0,1.483,1.483m-1.4,7.1V5.045a1.362,1.362,0,1,1,2.725,0v5.122Z" transform="translate(0 -0.097)" fill="#fff"/>
        <path id="Trazado_6799" data-name="Trazado 6799" d="M997.8,422.8h.156c.242,0,.472.062.472.354a.275.275,0,0,1-.139.245h0a.331.331,0,0,1,.257.324c0,.257-.221.36-.448.36h-.3Zm.159.569H998c.151,0,.277-.029.277-.215s-.124-.212-.274-.212h-.044Zm0,.572h.124c.147,0,.3-.044.3-.227s-.183-.218-.327-.218h-.1Z" transform="translate(-968.377 -410.332)" fill="#fff"/>
        <path id="Trazado_6800" data-name="Trazado 6800" d="M1024.6,422.8h.186l.316.548.316-.548h.183l-.419.725v.56h-.159v-.56Z" transform="translate(-994.387 -410.332)" fill="#fff"/>
        <path id="Trazado_6801" data-name="Trazado 6801" d="M1312.552,379.108a.354.354,0,1,0-.354-.354.354.354,0,0,0,.354.354m.357,1.268a.643.643,0,0,1-.722.72h-.021a.958.958,0,0,1-.481-.121.413.413,0,0,1-.2-.572.336.336,0,0,1,.622.118c.024.127.091.112.091-.006v-.873a.375.375,0,0,1,.357-.419.357.357,0,0,1,.357.357Z" transform="translate(-1272.758 -367.242)" fill="#fff"/>
        <path id="Trazado_6802" data-name="Trazado 6802" d="M1368.314,407.844v-.964a.255.255,0,0,1,.124-.218c.08-.032.156.006.248.038a.389.389,0,0,0,.563-.23.357.357,0,0,0-.286-.416.7.7,0,0,0-.6.18h0l-.065.053a.357.357,0,0,0-.7.109v1.448Z" transform="translate(-1327.269 -394.058)" fill="#fff"/>
        <path id="Trazado_6803" data-name="Trazado 6803" d="M1400.954,444.808a.354.354,0,1,0-.354-.354.354.354,0,0,0,.354.354" transform="translate(-1359.299 -431.004)" fill="#fff"/>
        <path id="Trazado_6804" data-name="Trazado 6804" d="M1087.344,406.2a.944.944,0,0,0-.944.944v.861h.716v-.849a.5.5,0,0,1,.068-.26.192.192,0,0,1,.159-.106.2.2,0,0,1,.159.106.5.5,0,0,1,.068.26V408h.716v-.861a.944.944,0,0,0-.944-.944" transform="translate(-1054.364 -394.222)" fill="#fff"/>
        <path id="Trazado_6805" data-name="Trazado 6805" d="M1154.13,376.038a.4.4,0,1,0-.563,0l.089.089c.147.147.156.186.018.324l-.08.08a.359.359,0,0,0-.106.257v1.289h.723v-1.289a.359.359,0,0,0-.106-.257l-.079-.08c-.139-.139-.13-.177.018-.324Z" transform="translate(-1119.437 -364.29)" fill="#fff"/>
        <path id="Trazado_6806" data-name="Trazado 6806" d="M1183.646,407.641a.2.2,0,0,1-.162.124c-.065,0-.118-.047-.159-.124a.711.711,0,0,1,0-.6.2.2,0,0,1,.159-.124.2.2,0,0,1,.162.124.6.6,0,0,1,.062.212h.716a.944.944,0,1,0,0,.177h-.716a.6.6,0,0,1-.062.212" transform="translate(-1147.67 -394.416)" fill="#fff"/>
        <path id="Trazado_6807" data-name="Trazado 6807" d="M1251.5,407.612a.123.123,0,0,0-.018-.065l-.392-.593.271-.492a.358.358,0,1,0-.616-.363l-.324.581v-.389a.358.358,0,0,0-.717,0v1.448h.717v-.566l.377.566h.578a.124.124,0,0,0,.124-.124" transform="translate(-1212.849 -393.953)" fill="#fff"/>
        <path id="Trazado_6808" data-name="Trazado 6808" d="M1430.074,410.041H1430V410h.189v.038h-.071v.2h-.044Zm.168-.041h.006l.118.13.115-.13h.006v.245h-.044v-.15l-.077.088h-.009l-.077-.088v.15h-.044Z" transform="translate(-1387.832 -397.91)" fill="#fff"/>
      </g>
    </g>
    <circle id="Elipse_298" data-name="Elipse 298" cx="2" cy="2" r="2" transform="translate(252 403)" fill="#fff"/>
    <g id="Grupo_16318" data-name="Grupo 16318" transform="translate(-114 1)">
      <path id="Trazado_22258" data-name="Trazado 22258" d="M92.772,66.378a.728.728,0,0,0-.763.784.834.834,0,0,0,.832.879.821.821,0,0,0,.872-.838A.865.865,0,0,0,92.772,66.378Z" transform="translate(353.715 337.639)" fill="#fff"/>
      <path id="Trazado_22259" data-name="Trazado 22259" d="M39.347,54.4c-.15-.645-.5-.917-1-.805-.576.13-.8.528-.675,1.232Z" transform="translate(402.34 349.095)" fill="#fff"/>
      <path id="Trazado_22260" data-name="Trazado 22260" d="M248.617,58.761c-.581-.106-.942.184-1.1.878l1.712.25C249.341,59.237,249.12,58.85,248.617,58.761Z" transform="translate(214.637 344.47)" fill="#fff"/>
      <path id="Trazado_22261" data-name="Trazado 22261" d="M30.192,6.591a3.922,3.922,0,0,0-.974-1.781,4.267,4.267,0,0,0-3.99-1.119,4.039,4.039,0,0,0-.517.137l-1.466-.356-.516-.106c-.73-.143-1.421-.277-2.123-.4a1.374,1.374,0,0,0-1.191.385,1.479,1.479,0,0,0-1.263-.356c-.56.1-1.114.186-1.691.281q.023-.7.044-1.4c0-.133.005-.259.006-.392V1.3l.013-1.12s-3.053-.213-3.694-.19a1.813,1.813,0,0,0-1.374.483,1.848,1.848,0,0,0-.446,1.374c-.01.376-.015.747-.019,1.122a3.931,3.931,0,0,0-1.183.124,4.121,4.121,0,0,0-2.3,1.57c-.023.031-.044.062-.067.094A3.9,3.9,0,0,0,5.991,3.633,4.275,4.275,0,0,0,1.869,4.1,4.016,4.016,0,0,0,.486,5.637,4.43,4.43,0,0,0,.007,7.472,5.267,5.267,0,0,0,.4,9.714a4.464,4.464,0,0,0,1.3,1.8,3.85,3.85,0,0,0,1.761.776,4.941,4.941,0,0,0,.863.075,5.7,5.7,0,0,0,.936-.08,5.3,5.3,0,0,0,2.9-1.439l.037.032a3.8,3.8,0,0,0,2.464.9c.08,0,.161,0,.241-.007a4.839,4.839,0,0,0,.9-.149,2.133,2.133,0,0,0,1.136.288h1.7a1.605,1.605,0,0,0,.969-.294c-.046.106-.093.211-.141.317l-.459,1.022.958.578a9.262,9.262,0,0,0,2.508,1.057,2.627,2.627,0,0,0,.666.106,1.429,1.429,0,0,0,.6-.13,1.685,1.685,0,0,0,.845-.992q.246-.558.49-1.117c.341-.778.687-1.567,1.035-2.361a3.879,3.879,0,0,0,1.151,1.479,4.992,4.992,0,0,0,3.093,1.057q.222,0,.444-.019a4.306,4.306,0,0,0,2.027-.584,2.5,2.5,0,0,0,.914-1.438A3.05,3.05,0,0,0,29.846,9.4a1.8,1.8,0,0,0,.336-.694A4.477,4.477,0,0,0,30.192,6.591ZM28.958,8.444c-.061.249-.5.384-1.041.393a2.968,2.968,0,0,1-1.956-.594,1.4,1.4,0,0,0-.18-.152c-.049-.031-.089-.029-.106.058a.876.876,0,0,0,.634,1.036,3.552,3.552,0,0,0,1.658.218,3.867,3.867,0,0,0,.4-.056c.47-.1.183,1.366-.246,1.649a3.222,3.222,0,0,1-1.435.365,3.776,3.776,0,0,1-2.642-.8A3.03,3.03,0,0,1,23.073,7.6a3.632,3.632,0,0,1,.917-1.875c.04-.041.082-.08.125-.119a2.817,2.817,0,0,1,1.38-.688A2.8,2.8,0,0,1,28.958,8.444Zm-6.806-1.6q-.192.446-.386.89Q20.6,10.4,19.434,13.062c-.184.423-.188.423-.649.3a8.05,8.05,0,0,1-2.173-.919c.3-.672.59-1.327.9-1.972a.937.937,0,0,0,.005-.806q-.254-.691-.5-1.388c-.224-.634-.443-1.274-.662-1.914q-.188-.553-.379-1.107c-.031-.092-.062-.185-.094-.277a1.057,1.057,0,0,1-.1-.312c.191-.031.437-.077.626-.106.66-.106,1.3-.211,1.947-.317.2-.033.252.077.288.231l.224.932.317,1.3v.017c.023.1.046.191.092.385l.2-.618L19.6,6.14c.061-.182.122-.365.182-.546.13-.394.261-.788.4-1.179.029-.083.145-.211.2-.2.854.15,1.7.317,2.619.5-.056.142-.106.281-.164.417-.022.056-.043.106-.064.166-.119.308-.236.606-.352.9C22.335,6.407,22.246,6.626,22.152,6.842Zm-7.169,3.413c-.008.277-.075.4-.37.389-.552-.015-1.1,0-1.655,0-.354,0-.686-.06-.592-.484a9.3,9.3,0,0,1-1.533.347A2.682,2.682,0,0,1,8.054,8.255c-.007-.032-.015-.064-.02-.1a4.849,4.849,0,0,1-.088-.827A3.1,3.1,0,0,1,8.527,5.4a2.738,2.738,0,0,1,3.566-.814,1.016,1.016,0,0,0,.141.05c.011-.944.014-1.849.035-2.754.015-.6.025-.61.611-.634.607-.023,1.214-.029,1.822-.029a4.525,4.525,0,0,1,.548.068c0,.2,0,.377-.007.553L15.13,5.4Q15.06,7.569,15,9.743c-.005.175-.011.341-.015.513Zm-7.673-.5a3.2,3.2,0,0,1-1.185.888,3.772,3.772,0,0,1-2.748.283c-1.79-.513-2.539-2.807-1.9-4.448A2.822,2.822,0,0,1,2.56,5.156a2.8,2.8,0,0,1,4.551,1.92.317.317,0,0,1-.042.2,2.954,2.954,0,0,1-2.8.771,1.262,1.262,0,0,0-.225-.072c-.056-.01-.092.007-.079.1a.87.87,0,0,0,.981.713A3.7,3.7,0,0,0,6.9,8.141c.239-.162.441.3.5.785A1.363,1.363,0,0,1,7.31,9.758Z" transform="translate(435.998 397.017)" fill="#fff"/>
    </g>
    <g id="EkzKVN" transform="translate(-660.666 -641.706)">
      <g id="Grupo_16319" data-name="Grupo 16319" transform="translate(1029.666 1041.706)">
        <path id="Trazado_22262" data-name="Trazado 22262" d="M1154.047,1047.13c0-.614-.008-1.228,0-1.841a2.51,2.51,0,0,1,.09-.715.857.857,0,0,1,.975-.653.841.841,0,0,1,.821.834c.032.463.02.93.016,1.394,0,.286.083.341.369.25a2.879,2.879,0,0,1,3.478.961,3.34,3.34,0,0,1-.057,3.959,3.179,3.179,0,0,1-3.679.955,3.233,3.233,0,0,1-2.011-3.192c-.021-.65,0-1.3,0-1.953Zm1.9,2.208a1.279,1.279,0,0,0,1.332,1.381,1.389,1.389,0,0,0-.01-2.771A1.278,1.278,0,0,0,1155.947,1049.338Z" transform="translate(-1140.159 -1043.668)" fill="#fff"/>
        <path id="Trazado_22263" data-name="Trazado 22263" d="M1029.677,1047.2c0-.8-.008-1.6,0-2.4a.89.89,0,0,1,.852-.977.907.907,0,0,1,1.007.827,7.51,7.51,0,0,1,.052,1.221c0,.378.1.477.494.362a2.91,2.91,0,0,1,3.813,2.161,3.183,3.183,0,1,1-6.165,1.584,8.757,8.757,0,0,1-.056-1.667C1029.67,1047.94,1029.677,1047.568,1029.677,1047.2Zm3.146.674a1.306,1.306,0,0,0-1.3,1.376,1.309,1.309,0,1,0,1.3-1.376Z" transform="translate(-1029.666 -1043.584)" fill="#fff"/>
        <path id="Trazado_22264" data-name="Trazado 22264" d="M1098.369,1068.224a10.376,10.376,0,0,1-.009,1.224.923.923,0,0,1-1.471.726.673.673,0,0,0-.667-.044,2.934,2.934,0,0,1-4.044-1.888,3.182,3.182,0,0,1,2.176-4.084,3.143,3.143,0,0,1,3.959,2.512A7.794,7.794,0,0,1,1098.369,1068.224Zm-4.448-1.021a1.287,1.287,0,1,0,1.28-1.365A1.237,1.237,0,0,0,1093.921,1067.2Z" transform="translate(-1085.068 -1061.557)" fill="#fff"/>
        <path id="Trazado_22265" data-name="Trazado 22265" d="M1215.828,1067.13c.43-.947.794-1.8,1.2-2.626a.9.9,0,0,1,1.52-.277.966.966,0,0,1,.087,1.189c-.52,1.171-1.047,2.34-1.569,3.51q-.647,1.45-1.292,2.9c-.165.369-.366.694-.835.714a.908.908,0,0,1-.93-1.269,11.439,11.439,0,0,1,.633-1.425,1.086,1.086,0,0,0-.014-1.149c-.529-.938-1.021-1.9-1.527-2.849-.1-.18-.2-.359-.276-.547a.91.91,0,0,1,.4-1.281.885.885,0,0,1,1.211.469c.385.7.739,1.416,1.107,2.125C1215.612,1066.746,1215.685,1066.872,1215.828,1067.13Z" transform="translate(-1192.282 -1061.441)" fill="#fff"/>
        <path id="Trazado_22266" data-name="Trazado 22266" d="M1392.459,1070.262a3.029,3.029,0,0,1-1.87-.693.907.907,0,0,1-.221-1.285.863.863,0,0,1,1.24-.156,1.677,1.677,0,0,0,1.207.314c.113-.018.238-.041.268-.163.041-.17-.1-.228-.226-.261-.323-.084-.652-.148-.976-.231a1.931,1.931,0,0,1-1.62-1.923,2,2,0,0,1,1.671-1.9,3.051,3.051,0,0,1,2.5.492.9.9,0,0,1,.327,1.219.845.845,0,0,1-1.205.3,1.88,1.88,0,0,0-1.057-.293c-.127.015-.291.008-.315.168s.135.2.26.235c.36.092.727.159,1.083.265a1.825,1.825,0,0,1,1.477,1.788,1.98,1.98,0,0,1-1.463,1.947A3.393,3.393,0,0,1,1392.459,1070.262Z" transform="translate(-1349.945 -1061.404)" fill="#fff"/>
        <path id="Trazado_22267" data-name="Trazado 22267" d="M1273.64,1047.938c0-.371-.016-.743,0-1.114.025-.478,0-.852-.535-1.127a.773.773,0,0,1,.091-1.367,1.086,1.086,0,0,0,.566-.756,2.5,2.5,0,0,1,2.586-1.862.877.877,0,0,1,.186,1.737c-.261.079-.571.041-.763.288a.484.484,0,0,0-.119.3c.012.132.156.13.267.14a2.479,2.479,0,0,1,.386.042.823.823,0,0,1,.693.882.749.749,0,0,1-.785.778c-.571-.011-.678.246-.662.744.03.909.016,1.819.005,2.729-.008.735-.385,1.179-.977,1.183-.567,0-.939-.466-.945-1.2C1273.637,1048.867,1273.64,1048.4,1273.64,1047.938Z" transform="translate(-1245.603 -1041.706)" fill="#fff"/>
        <path id="Trazado_22268" data-name="Trazado 22268" d="M1441.258,1055.163a2.234,2.234,0,0,1-2.206-1.908,13.206,13.206,0,0,1-.082-2.168.631.631,0,0,0-.374-.659.825.825,0,0,1,0-1.533.654.654,0,0,0,.374-.669,2.291,2.291,0,0,1,.058-.552.926.926,0,0,1,1.005-.77.888.888,0,0,1,.84.884,2.069,2.069,0,0,1,.007.39c-.037.4.079.608.534.644a.841.841,0,0,1-.054,1.678c-.36.011-.493.157-.482.51.017.538.008,1.077,0,1.616a.543.543,0,0,0,.531.637c.681.092,1.02.458.983.981A1.06,1.06,0,0,1,1441.258,1055.163Z" transform="translate(-1392.487 -1046.319)" fill="#fff"/>
        <path id="Trazado_22269" data-name="Trazado 22269" d="M1344.83,1067.091c0-.687-.009-1.375,0-2.062.013-.8.554-1.216,1.294-.949a1.315,1.315,0,0,0,.958-.022,2.279,2.279,0,0,1,1.84.094.806.806,0,0,1,.485.96.749.749,0,0,1-.864.613c-.3-.011-.595-.026-.891-.014-.7.027-.973.3-.99,1-.02.817,0,1.635-.01,2.452-.008.716-.33,1.092-.911,1.085s-.9-.394-.911-1.1S1344.83,1067.778,1344.83,1067.091Z" transform="translate(-1309.646 -1061.431)" fill="#fff"/>
        <path id="Trazado_22270" data-name="Trazado 22270" d="M1319.566,1067.245c0,.723.012,1.447,0,2.17a.914.914,0,1,1-1.823,0q-.019-2.2,0-4.4a.877.877,0,0,1,.875-.946.887.887,0,0,1,.944.944C1319.58,1065.76,1319.565,1066.5,1319.566,1067.245Z" transform="translate(-1285.575 -1061.578)" fill="#fff"/>
        <path id="Trazado_22271" data-name="Trazado 22271" d="M1319.658,1042.74a.906.906,0,0,1-1.81.061.876.876,0,0,1,.868-.946A.9.9,0,0,1,1319.658,1042.74Z" transform="translate(-1285.678 -1041.838)" fill="#fff"/>
      </g>
    </g>
  </g>
</svg>
