<svg xmlns="http://www.w3.org/2000/svg" width="88.245" height="40.656" viewBox="0 0 88.245 40.656"><defs><style>.a{fill:#fff;}</style></defs><g transform="translate(-1611 -1090.173)"><path class="a" d="M1694.229,1098.725c-5.117-7.177-19.759-5.516-34.4,3.379a4.64,4.64,0,0,0-.293-.734c18.047-11.412,35.826-14.613,41.1-7.215,3.256,4.57,1.042,12.3-5.065,20.676a8.725,8.725,0,0,0-.946-3.571c1.861-4.913,1.87-9.353-.4-12.535" transform="translate(-16.55 0)"/><path class="a" d="M1664.259,1125.2c0,3.436,2.52,5.142,5.324,6.727l2.5,1.423a3.141,3.141,0,0,1,1.972,2.811c0,1.558-1.15,2.527-3,2.527-3.412,0-4.439-2.836-4.995-5.61l-.086-.433H1664.3v7.81h1.3l.16-.18c.3-.338.3-.338.59-.338a8.1,8.1,0,0,1,1.893.311,13.725,13.725,0,0,0,3.111.465c2.823,0,6.8-1.893,6.8-6.1,0-2.937-1.759-4.251-3.883-5.553l-4.666-2.765a2.886,2.886,0,0,1-1.592-2.6,2.435,2.435,0,0,1,2.741-2.264c1.494,0,3.331.554,4.263,4.881l.091.426h1.637l-.2-6.99h-1.309l-.157.27a.366.366,0,0,1-.309.2c-.067,0-.435-.122-.656-.193a11.228,11.228,0,0,0-3.356-.67c-3.764,0-6.5,2.459-6.5,5.847" transform="translate(-18.16 -9.949)"/><path class="a" d="M1615.788,1124.127c0-5.525,2.593-7.488,4.815-7.488a3.938,3.938,0,0,1,3.905,4.036v9.585a3.247,3.247,0,0,1-3.3,2.135c-2.5,0-5.419-2.169-5.419-8.269m12.626-19.417-.14.049h0c-.775.277-3.827,1.277-6.291,1.884l-.409.1v1.71l.592-.062c1.383-.142,1.905.038,2.1.215.227.2.239.62.239,1.277v5.756a6.535,6.535,0,0,0-4.035-1.289,8.869,8.869,0,0,0-6.694,3.381,12.29,12.29,0,0,0-2.78,7.774c0,9.918,7.535,10.2,8.394,10.2a7.02,7.02,0,0,0,5.114-1.926v1.53l.62.462,6.973-2.467v-1.652l-.58.045c-1.356.1-1.875-.092-2.073-.273s-.237-.513-.237-1.091v-25.352l-.745-.3Z" transform="translate(0 -4.95)"/><path class="a" d="M1705.459,1133.554c-1.9-.336-2.146-.38-2.146-3.14v-8.673c0-4.91-1.968-7.4-5.844-7.4a7.789,7.789,0,0,0-5.806,2.684v-11.946l-.71-.425-.068.029-.183.074c-.911.373-4.446,1.428-6.068,1.88l-.393.109v1.7l.6-.066a8.321,8.321,0,0,1,1.02-.041,1.172,1.172,0,0,1,.847.249,1.854,1.854,0,0,1,.255,1.26l0,.2v20.285c0,2.757-.171,3-2.278,3.22l-.484.053v1.669H1694.2v-1.712l-.088-.01c-1.932-.206-2.453-.262-2.453-3.177v-10.226c.242-.3,2.021-2.4,4.207-2.4,1.9,0,2.743,1.284,2.743,4.165v8.5c0,2.678-.462,2.985-2.438,3.133l-.04,0v1.72h9.769v-1.638l-.445-.078" transform="translate(-24.959 -4.937)"/><path class="a" d="M1650.355,1148.242c3.3,0,4.968-1.908,6.141-4.169.078-.15.017-.252-.133-.184a13.013,13.013,0,0,1-12.019,0c-.149-.069-.21.034-.133.184,1.174,2.261,2.842,4.169,6.143,4.169" transform="translate(-11.313 -18.308)"/><path class="a" d="M1646.216,1135.787c.909,1.764,2.217,3.3,4.825,3.3s3.913-1.539,4.823-3.3c.061-.118.012-.208-.115-.152a10.839,10.839,0,0,1-9.417,0c-.126-.056-.177.034-.115.152" transform="translate(-11.999 -15.496)"/><path class="a" d="M1648.054,1128.189a3.86,3.86,0,0,0,7.231,0c.046-.09.007-.167-.1-.121a9.029,9.029,0,0,1-7.031,0c-.106-.045-.147.031-.1.121" transform="translate(-12.628 -12.917)"/><path class="a" d="M1652.26,1122.817a2.679,2.679,0,0,0,2.479-1.761c.033-.066,0-.128-.085-.1a7.849,7.849,0,0,1-4.79,0c-.088-.032-.119.03-.086.1a2.683,2.683,0,0,0,2.482,1.761" transform="translate(-13.218 -10.494)"/><path class="a" d="M1647.509,1108.394a3.759,3.759,0,1,1,3.76,3.759,3.759,3.759,0,0,1-3.76-3.759" transform="translate(-12.449 -4.931)"/><path class="a" d="M1721.9,1150.04a1.165,1.165,0,1,1,1.164-1.164,1.166,1.166,0,0,1-1.164,1.164m0-2.233a1.068,1.068,0,1,0,1.068,1.068,1.069,1.069,0,0,0-1.068-1.068" transform="translate(-37.416 -19.619)"/><path class="a" d="M1721.923,1148.507h.457q.406,0,.407.347a.334.334,0,0,1-.084.245.39.39,0,0,1-.216.107l.345.536h-.2l-.341-.535h-.185v.536h-.179Zm.179.536h.214a.506.506,0,0,0,.221-.036.157.157,0,0,0,.07-.154.15.15,0,0,0-.073-.139.4.4,0,0,0-.2-.043h-.23Z" transform="translate(-37.822 -19.891)"/><g transform="translate(1680.419 1109.403)"><path class="a" d="M1729.267,1120.315a.964.964,0,0,0-.964-.963h-3.013a.963.963,0,0,0-.963.963v6.064a.963.963,0,0,1-.964.964H1717.3a.963.963,0,0,0-.963.963v3.014a.965.965,0,0,0,.033.248,38.922,38.922,0,0,1,12.9-5.386Z" transform="translate(-1716.336 -1119.352)"/><path class="a" d="M1716.685,1136.43a.96.96,0,0,0,.733.339h6.064a.963.963,0,0,1,.964.963v6.065a.963.963,0,0,0,.963.964h3.013a.964.964,0,0,0,.964-.964v-6.065a.963.963,0,0,1,.963-.963h4.933a4.9,4.9,0,0,0-.8-1.887C1731.818,1131.151,1724.293,1131.938,1716.685,1136.43Z" transform="translate(-1716.455 -1123.839)"/></g></g></svg>