<svg xmlns="http://www.w3.org/2000/svg" width="82.812" height="19" viewBox="0 0 82.812 19">
  <g id="Grupo_3" data-name="Grupo 3" transform="translate(-98 -144)">
    <g id="Grupo_1" data-name="Grupo 1" transform="translate(98 144)">
      <path id="Trazado_198" data-name="Trazado 198" d="M15.6,44.4h6.972a9.825,9.825,0,0,1,6.759,2.182c1.6,1.437,2.448,3.725,2.448,6.812s-.8,5.375-2.448,6.812a9.919,9.919,0,0,1-6.759,2.182H15.6Zm4.471,14.21h2.608a4,4,0,0,0,3.459-1.437,6.019,6.019,0,0,0,1.118-3.779,6.412,6.412,0,0,0-1.064-3.832,4.173,4.173,0,0,0-3.513-1.437H20.071Z" transform="translate(-15.6 -43.868)" fill="#2699fb"/>
      <path id="Trazado_199" data-name="Trazado 199" d="M51,44.4h4.524V62.442H51Z" transform="translate(-32.16 -43.868)" fill="#2699fb"/>
      <path id="Trazado_200" data-name="Trazado 200" d="M66.359,56.546a12.8,12.8,0,0,0,2.448,1.7,6.6,6.6,0,0,0,2.768.585,4.978,4.978,0,0,0,2.289-.532,1.573,1.573,0,0,0,1.064-1.543c0-.852-.692-1.384-2.022-1.6l-3.725-.585a7.113,7.113,0,0,1-3.832-1.7,4.333,4.333,0,0,1-1.331-3.3,5.357,5.357,0,0,1,2.076-4.63A8.709,8.709,0,0,1,71.362,43.4a11.243,11.243,0,0,1,4.364.9,9.551,9.551,0,0,1,3.566,2.555l-3.406,2.448a6.388,6.388,0,0,0-2.129-1.65,5.871,5.871,0,0,0-2.661-.585,3.639,3.639,0,0,0-1.756.479,1.522,1.522,0,0,0-.8,1.331A1.318,1.318,0,0,0,69.127,50a4.272,4.272,0,0,0,1.916.585l1.7.266a12.238,12.238,0,0,1,4.843,1.65,3.937,3.937,0,0,1,1.7,3.513c0,2.395-.852,4.1-2.5,5A11.217,11.217,0,0,1,71.043,62.4a10.646,10.646,0,0,1-4.364-.852A11.3,11.3,0,0,1,62.9,58.728Z" transform="translate(-37.726 -43.4)" fill="#2699fb"/>
      <path id="Trazado_201" data-name="Trazado 201" d="M98.7,44.4h4.524v6.493h6.706V44.4h4.524V62.442H109.93V54.831h-6.706v7.611H98.7V44.4Z" transform="translate(-54.473 -43.868)" fill="#2699fb"/>
    </g>
    <g id="Grupo_2" data-name="Grupo 2" transform="translate(162.77 144.532)">
      <path id="Trazado_202" data-name="Trazado 202" d="M51,44.4h4.524V62.442H51Z" transform="translate(-44.241 -44.4)" fill="#2699fb"/>
      <path id="Trazado_203" data-name="Trazado 203" d="M0,0H4.524V18.042H0Z" transform="translate(18.042 6.759) rotate(90)" fill="#2699fb"/>
    </g>
  </g>
</svg>
