<svg xmlns="http://www.w3.org/2000/svg" xmlns:xlink="http://www.w3.org/1999/xlink" width="131" height="28" viewBox="0 0 131 28">
  <defs>
    <clipPath id="clip-path">
      <rect id="Rect치ngulo_3821" data-name="Rect치ngulo 3821" width="120.556" height="23.362" fill="none"/>
    </clipPath>
  </defs>
  <g id="Grupo_14807" data-name="Grupo 14807" transform="translate(105 490)">
    <g id="amazon_prime" data-name="amazon prime" transform="translate(-100 -488)">
      <g id="amazon_prime-2" data-name="amazon prime" clip-path="url(#clip-path)">
        <path id="Trazado_7316" data-name="Trazado 7316" d="M183,27.761a.585.585,0,0,1-.4-.11.548.548,0,0,1-.11-.4V13.4a.548.548,0,0,1,.11-.4.585.585,0,0,1,.4-.11h1.5a.548.548,0,0,1,.585.475l.146.548a4.6,4.6,0,0,1,1.5-.95,4.788,4.788,0,0,1,1.791-.365,3.874,3.874,0,0,1,3.179,1.462,6.2,6.2,0,0,1,1.169,3.983,7.273,7.273,0,0,1-.585,3,4.714,4.714,0,0,1-1.571,1.973,3.91,3.91,0,0,1-2.3.694,4.86,4.86,0,0,1-1.608-.256,3.91,3.91,0,0,1-1.316-.731v4.531a.439.439,0,0,1-.512.512Zm4.568-6.322a1.937,1.937,0,0,0,1.717-.8,4.47,4.47,0,0,0,.548-2.485,4.667,4.667,0,0,0-.548-2.521,1.937,1.937,0,0,0-1.717-.8,3.947,3.947,0,0,0-2.046.548v5.481a3.8,3.8,0,0,0,2.046.548" transform="translate(-115.801 -7.991)" fill="#0096d6"/>
        <path id="Trazado_7317" data-name="Trazado 7317" d="M217.1,23.8a.438.438,0,0,1-.512-.512V13.718a.548.548,0,0,1,.11-.4.585.585,0,0,1,.4-.11h1.5a.548.548,0,0,1,.585.475l.256,1.133a5.921,5.921,0,0,1,1.571-1.316,3.362,3.362,0,0,1,1.571-.4h.292a.621.621,0,0,1,.4.11.548.548,0,0,1,.11.4v1.754a.585.585,0,0,1-.11.4.548.548,0,0,1-.4.11h-.95a6.177,6.177,0,0,0-1.169.146,5.738,5.738,0,0,0-1.169.329v6.943a.585.585,0,0,1-.11.4.548.548,0,0,1-.4.11Z" transform="translate(-137.434 -8.31)" fill="#0096d6"/>
        <path id="Trazado_7318" data-name="Trazado 7318" d="M240.413,3.259a1.79,1.79,0,0,1-1.242-.439,1.535,1.535,0,0,1-.475-1.169A1.534,1.534,0,0,1,239.17.446a2.046,2.046,0,0,1,2.522,0,1.535,1.535,0,0,1,.475,1.169,1.535,1.535,0,0,1-.475,1.169,1.791,1.791,0,0,1-1.279.439m-.987,12.242a.439.439,0,0,1-.512-.512V5.415a.548.548,0,0,1,.11-.4.585.585,0,0,1,.4-.11h2.01a.585.585,0,0,1,.4.11.584.584,0,0,1,.11.4V14.99a.584.584,0,0,1-.11.4.548.548,0,0,1-.4.11Z" transform="translate(-151.466 -0.007)" fill="#0096d6"/>
        <path id="Trazado_7319" data-name="Trazado 7319" d="M255.1,23.415a.439.439,0,0,1-.512-.512V13.329a.548.548,0,0,1,.11-.4.585.585,0,0,1,.4-.11h1.5a.548.548,0,0,1,.585.475l.183.548a8.955,8.955,0,0,1,1.973-1.023,5.591,5.591,0,0,1,1.827-.292A2.794,2.794,0,0,1,263.8,13.84a8.515,8.515,0,0,1,2.01-1.023,6.067,6.067,0,0,1,1.937-.329,3.033,3.033,0,0,1,2.266.8,3.07,3.07,0,0,1,.8,2.266V22.9a.584.584,0,0,1-.11.4.548.548,0,0,1-.4.11h-2.046a.439.439,0,0,1-.512-.512V16.216q0-1.425-1.279-1.425a5.262,5.262,0,0,0-2.266.548V22.9a.585.585,0,0,1-.11.4.548.548,0,0,1-.4.11h-2.01a.438.438,0,0,1-.512-.512V16.216q0-1.425-1.279-1.425a5.043,5.043,0,0,0-2.3.548V22.9a.585.585,0,0,1-.11.4.548.548,0,0,1-.4.11Z" transform="translate(-161.548 -7.92)" fill="#0096d6"/>
        <path id="Trazado_7320" data-name="Trazado 7320" d="M309.335,23.755a5.259,5.259,0,0,1-3.947-1.425A5.573,5.573,0,0,1,304,18.274a5.989,5.989,0,0,1,1.425-4.239,5.074,5.074,0,0,1,3.91-1.535,4.48,4.48,0,0,1,3.033.95,3.106,3.106,0,0,1,1.1,2.485A2.668,2.668,0,0,1,312.3,18.31a6.144,6.144,0,0,1-3.472.8,8.149,8.149,0,0,1-2.047-.219,2.809,2.809,0,0,0,.841,2.01,3.122,3.122,0,0,0,2.156.585l1.133-.073,1.535-.329h.219q.365,0,.365.475v.95a.876.876,0,0,1-.11.475.767.767,0,0,1-.365.256,8.916,8.916,0,0,1-3.216.585m-.694-6.541a2.814,2.814,0,0,0,1.535-.329,1.1,1.1,0,0,0,.475-.987q0-1.316-1.571-1.316t-2.266,2.412a9.429,9.429,0,0,0,1.864.183" transform="translate(-192.908 -7.932)" fill="#0096d6"/>
        <path id="Trazado_7321" data-name="Trazado 7321" d="M53.617,48.1a23.488,23.488,0,0,1-13.3,4.056,24.082,24.082,0,0,1-16.262-6.212c-.329-.292-.037-.731.365-.475A32.743,32.743,0,0,0,40.68,49.778,32.377,32.377,0,0,0,53.105,47.22c.621-.256,1.133.4.512.84" transform="translate(-15.173 -28.802)" fill="#002552" fill-rule="evenodd"/>
        <path id="Trazado_7322" data-name="Trazado 7322" d="M101.484,45.283c-.475-.585-3.033-.292-4.2-.146-.365.037-.4-.256-.073-.475,2.046-1.462,5.445-1.023,5.847-.548s-.11,3.874-2.046,5.482c-.292.256-.585.11-.439-.219.439-1.1,1.425-3.508.95-4.093" transform="translate(-61.542 -27.706)" fill="#002552" fill-rule="evenodd"/>
        <path id="Trazado_7323" data-name="Trazado 7323" d="M97.359,15.354V13.965a.365.365,0,0,1,.365-.365h6.322a.365.365,0,0,1,.365.365v1.206a1.973,1.973,0,0,1-.475.877l-3.289,4.641a6.98,6.98,0,0,1,3.581.767.658.658,0,0,1,.329.548v1.5a.345.345,0,0,1-.475.329,7.272,7.272,0,0,0-6.651,0c-.219.11-.439-.11-.439-.329V22.115a1.681,1.681,0,0,1,.219-.95l3.8-5.445H97.724a.365.365,0,0,1-.365-.365" transform="translate(-61.546 -8.63)" fill="#002552" fill-rule="evenodd"/>
        <path id="Trazado_7324" data-name="Trazado 7324" d="M124.649,15.11c-1.425,0-1.5,1.937-1.5,3.143s0,3.764,1.5,3.764,1.571-2.083,1.571-3.325a9.1,9.1,0,0,0-.292-2.595,1.206,1.206,0,0,0-1.242-.95m0-2.01c2.85,0,4.385,2.448,4.385,5.555s-1.754,5.335-4.458,5.335-4.312-2.448-4.312-5.482,1.535-5.445,4.312-5.445" transform="translate(-76.338 -8.313)" fill="#002552" fill-rule="evenodd"/>
        <path id="Trazado_7325" data-name="Trazado 7325" d="M76.4,23.617a.4.4,0,0,1-.439.037,5.006,5.006,0,0,1-1.1-1.279,3.843,3.843,0,0,1-3.179,1.389,2.847,2.847,0,0,1-2.887-3,3.252,3.252,0,0,1,2.046-3.143,11.957,11.957,0,0,1,3.618-.658,3.318,3.318,0,0,0-.219-1.644,1.352,1.352,0,0,0-1.06-.512,1.462,1.462,0,0,0-1.535,1.133c-.037.219-.183.4-.365.365l-1.827-.183a.329.329,0,0,1-.292-.4C69.6,13.458,71.61,12.8,73.437,12.8a4.365,4.365,0,0,1,2.887.95c.731.694.84,2.046.84,3.289v3a2.616,2.616,0,0,0,.731,1.791.365.365,0,0,1,0,.512l-1.462,1.279M74.46,18.939a4,4,0,0,1-.365,2.046,1.571,1.571,0,0,1-1.316.877c-.731,0-1.169-.548-1.169-1.389,0-1.644,1.462-1.937,2.85-1.937Z" transform="translate(-43.654 -8.122)" fill="#002552" fill-rule="evenodd"/>
        <path id="Trazado_7326" data-name="Trazado 7326" d="M7.6,23.617a.4.4,0,0,1-.439.037,5.006,5.006,0,0,1-1.1-1.279,3.843,3.843,0,0,1-3.179,1.389,2.847,2.847,0,0,1-2.887-3,3.252,3.252,0,0,1,2.046-3.143,11.957,11.957,0,0,1,3.618-.658,3.318,3.318,0,0,0-.219-1.644,1.352,1.352,0,0,0-1.06-.512,1.462,1.462,0,0,0-1.535,1.133c-.037.219-.183.4-.365.365L.654,16.125a.329.329,0,0,1-.292-.4C.8,13.458,2.81,12.8,4.637,12.8a4.366,4.366,0,0,1,2.887.95c.731.694.84,2.046.84,3.289v3A2.616,2.616,0,0,0,9.1,21.826a.365.365,0,0,1,0,.512L7.634,23.617M5.66,18.939a4,4,0,0,1-.365,2.046,1.571,1.571,0,0,1-1.316.877c-.731,0-1.169-.548-1.169-1.389,0-1.644,1.462-1.937,2.85-1.937Z" transform="translate(0.004 -8.122)" fill="#002552" fill-rule="evenodd"/>
        <path id="Trazado_7327" data-name="Trazado 7327" d="M31.531,18.253c0-1.133-.037-2.7,1.316-2.7s1.206,1.608,1.206,2.7v5.226a.365.365,0,0,0,.329.365h1.9a.365.365,0,0,0,.365-.365V18.253a5.957,5.957,0,0,1,.183-1.9,1.279,1.279,0,0,1,1.133-.8.987.987,0,0,1,1.133.84,12.607,12.607,0,0,1,.037,1.827v5.262a.365.365,0,0,0,.329.365h1.9a.365.365,0,0,0,.365-.365V17.266c0-1.06.11-2.266-.475-3.07a2.85,2.85,0,0,0-4.86.731,2.628,2.628,0,0,0-5.006,0h-.037V13.648a.365.365,0,0,0-.365-.365H29.265a.365.365,0,0,0-.365.365v9.83a.365.365,0,0,0,.365.365h1.9a.365.365,0,0,0,.365-.365Z" transform="translate(-18.339 -8.313)" fill="#002552" fill-rule="evenodd"/>
        <path id="Trazado_7328" data-name="Trazado 7328" d="M150.668,23.475a.365.365,0,0,1-.365.365h-1.937a.365.365,0,0,1-.365-.365v-9.83a.365.365,0,0,1,.365-.365h1.754a.365.365,0,0,1,.365.292v1.5h.037a2.6,2.6,0,0,1,2.631-1.973,2.521,2.521,0,0,1,2.229,1.169,6.2,6.2,0,0,1,.512,3.07v6.212a.365.365,0,0,1-.365.292h-1.937a.366.366,0,0,1-.329-.292V17.555c0-1.973-.767-2.046-1.206-2.046a1.316,1.316,0,0,0-1.1.767,4.458,4.458,0,0,0-.329,1.864Z" transform="translate(-93.916 -8.309)" fill="#002552" fill-rule="evenodd"/>
      </g>
    </g>
    <rect id="Rect치ngulo_8455" data-name="Rect치ngulo 8455" width="131" height="28" transform="translate(-105 -490)" fill="none"/>
  </g>
</svg>
