<svg xmlns="http://www.w3.org/2000/svg" width="105" height="23" viewBox="0 0 105 23">
  <g id="Grupo_16206" data-name="Grupo 16206" transform="translate(-653 -1320)">
    <g id="hbomax" transform="translate(663 1324)">
      <g id="Grupo_1287" data-name="Grupo 1287" transform="translate(0 0)">
        <g id="Grupo_1285" data-name="Grupo 1285" transform="translate(36.357 0.005)">
          <g id="Grupo_1284" data-name="Grupo 1284">
            <path id="Trazado_4459" data-name="Trazado 4459" d="M588.384,5.329c0,.01,0,8.95,0,8.95a.227.227,0,0,1-.2.242H586.97a1.326,1.326,0,0,1-1.3-1.325V5.362a2.536,2.536,0,0,0-2.7-2.589,2.565,2.565,0,0,0-2.7,2.632v8.886a.219.219,0,0,1-.2.231h-1.215a1.352,1.352,0,0,1-1.3-1.353v-7.8a2.7,2.7,0,0,0-5.4.008V14.3a.208.208,0,0,1-.2.219h-1.215a1.3,1.3,0,0,1-1.3-1.3s0-7.85,0-7.858a5.09,5.09,0,0,1,5.41-5.271A5.443,5.443,0,0,1,578.9,1.7,5.443,5.443,0,0,1,582.96.08,5.09,5.09,0,0,1,588.384,5.329Z" transform="translate(-569.429 -0.08)"/>
            <path id="Trazado_4460" data-name="Trazado 4460" d="M1107.632,17.758a.107.107,0,0,1-.093.167l-2.17.006a1.54,1.54,0,0,1-1.445-.678l-2.221-3.276a.829.829,0,0,0-1.568,0l-2.221,3.276a1.54,1.54,0,0,1-1.445.678h-2.17a.112.112,0,0,1-.093-.172l4.282-6.322a1.118,1.118,0,0,0,0-1.225l-4.282-6.322a.109.109,0,0,1,.093-.169h2.17a1.536,1.536,0,0,1,1.445.674l2.221,3.276a.829.829,0,0,0,1.568,0l2.221-3.276a1.536,1.536,0,0,1,1.445-.674h2.17a.109.109,0,0,1,.093.168l-4.282,6.322a1.117,1.117,0,0,0,0,1.225Z" transform="translate(-1060.685 -3.489)"/>
            <path id="Trazado_4461" data-name="Trazado 4461" d="M889.263.313h-.855a1.314,1.314,0,0,0-1.136.654l-.316.552A6.539,6.539,0,0,0,882.815.08c-3.984,0-6.636,2.815-6.636,7.273,0,4.493,2.7,7.273,6.6,7.273a6.468,6.468,0,0,0,3.928-1.263,1.272,1.272,0,0,0,1.308,1.159h1.24c.121,0,.219-.052.219-.173l0-13.818A.218.218,0,0,0,889.263.313Zm-6.507,11.606c-2.266,0-3.925-1.686-3.925-4.566s1.66-4.566,3.925-4.566,3.925,1.686,3.925,4.566S885.022,11.918,882.757,11.918Z" transform="translate(-856.594 -0.08)"/>
          </g>
        </g>
        <g id="Grupo_1286" data-name="Grupo 1286">
          <path id="Trazado_4462" data-name="Trazado 4462" d="M6.484,9.007H3.978V3.721H0V17.93H3.978V12.417H6.484V17.93h3.86V3.721H6.484Z" transform="translate(0 -3.484)"/>
          <path id="Trazado_4463" data-name="Trazado 4463" d="M191.459,0a7.154,7.154,0,0,0-6.51,4.106A4.12,4.12,0,0,0,181.161.236h-6.588v14.21h6.142a4.277,4.277,0,0,0,4.241-3.986,7.228,7.228,0,0,0,13.722-3.235A7.182,7.182,0,0,0,191.459,0ZM180.2,11.137h-1.954v-2.4H180.2a1.13,1.13,0,0,1,1.016,1.2A1.13,1.13,0,0,1,180.2,11.137Zm.007-5.335h-1.954V3.4h1.954a1.13,1.13,0,0,1,1.016,1.2A1.13,1.13,0,0,1,180.207,5.8Zm2.6,1.428a3.042,3.042,0,0,0,1.456-.9,6.579,6.579,0,0,0,.009,1.982A2.731,2.731,0,0,0,182.808,7.229Zm8.653,3.617a3.617,3.617,0,1,1,3.617-3.617A3.617,3.617,0,0,1,191.461,10.846Z" transform="translate(-163.427 0)"/>
          <path id="Trazado_4464" data-name="Trazado 4464" d="M397.387,68.7a2.843,2.843,0,1,0,2.843,2.843A2.843,2.843,0,0,0,397.387,68.7Z" transform="translate(-369.353 -64.309)"/>
        </g>
      </g>
      <g id="Grupo_1288" data-name="Grupo 1288" transform="translate(83.668 0.238)">
        <path id="Trazado_4465" data-name="Trazado 4465" d="M1310.431,3.855h.2V4.42h.159V3.855h.2V3.724h-.557Z" transform="translate(-1310.431 -3.724)"/>
        <path id="Trazado_4466" data-name="Trazado 4466" d="M1321.212,3.724l-.189.309-.188-.309h-.159v.7h.159v-.4l.179.3h.018l.18-.3v.4h.159v-.7Z" transform="translate(-1320.022 -3.724)"/>
      </g>
    </g>
    <rect id="Rectángulo_9283" data-name="Rectángulo 9283" width="105" height="23" transform="translate(653 1320)" fill="none"/>
  </g>
</svg>
