<svg xmlns="http://www.w3.org/2000/svg" width="96" height="27" viewBox="0 0 96 27">
  <g id="Grupo_16316" data-name="Grupo 16316" transform="translate(-106 -1573)">
    <g id="HotGo_Color" data-name="HotGo Color" transform="translate(159.817 1588.036)">
      <g id="HotGo_Color-2" data-name="HotGo Color" transform="translate(-45.817 -9.036)">
        <path id="Trazado_22219" data-name="Trazado 22219" d="M3.3,9.1v6.49H0V.6H3.3V6.382H9.44V.6h3.3V15.587H9.44V9.1Z" transform="translate(0 0.122)" fill="#a90819"/>
        <path id="Trazado_22220" data-name="Trazado 22220" d="M51.316,0c2.006,0,7.316.826,7.316,7.906s-5.31,7.906-7.316,7.906S44,14.987,44,7.906,49.31,0,51.316,0Zm0,13.216c1.77,0,4.13-1.062,4.13-5.31S52.968,2.6,51.316,2.6s-4.13,1.062-4.13,5.31S49.546,13.216,51.316,13.216Z" transform="translate(7.922 0.014)" fill="#a6a3a3"/>
        <path id="Trazado_22221" data-name="Trazado 22221" d="M45.533,7.2H38.57V9.914h3.54a3.894,3.894,0,0,1-3.894,3.3c-1.77,0-4.13-1.062-4.13-5.31s2.478-5.31,4.13-5.31a3.894,3.894,0,0,1,4.012,3.3h3.3A6.962,6.962,0,0,0,38.216,0C36.21,0,30.9.828,30.9,7.908s5.31,7.906,7.316,7.906,7.316-.826,7.316-7.906Z" transform="translate(5.563 0.012)" fill="#a6a3a3"/>
        <path id="Trazado_22222" data-name="Trazado 22222" d="M21.6.5V.854a6.018,6.018,0,0,1,2.36,2.36h1.652V15.487h3.3V3.214h4.012V.5Z" transform="translate(3.889 0.104)" fill="#a90819"/>
        <path id="Trazado_22223" data-name="Trazado 22223" d="M18.716,0c2.006,0,7.316.826,7.316,7.906s-5.31,7.906-7.316,7.906S11.4,14.987,11.4,7.906,16.71,0,18.716,0Zm0,13.216c1.77,0,4.13-1.062,4.13-5.31s-2.478-5.192-4.13-5.192-4.13,1.062-4.13,5.31S16.946,13.216,18.716,13.216Z" transform="translate(2.052 0.014)" fill="#a90819"/>
        <path id="Trazado_22224" data-name="Trazado 22224" d="M57.6.6a9.558,9.558,0,0,1,3.186,7.08A11.918,11.918,0,0,1,57.6,15.469L69.872,7.8Z" transform="translate(10.37 0.122)" fill="#a6a3a3"/>
      </g>
    </g>
    <rect id="Rectángulo_9313" data-name="Rectángulo 9313" width="96" height="27" transform="translate(106 1573)" fill="none"/>
  </g>
</svg>
