<svg xmlns="http://www.w3.org/2000/svg" xmlns:xlink="http://www.w3.org/1999/xlink" width="86.94" height="28.534" viewBox="0 0 86.94 28.534">
  <defs>
    <clipPath id="clip-path">
      <rect id="Rectángulo_8437" data-name="Rectángulo 8437" width="86.94" height="28.534" fill="none"/>
    </clipPath>
  </defs>
  <g id="Noggin_by_nick_jr" data-name="Noggin by nick jr" transform="translate(42.262 13.87)">
    <g id="Noggin_by_nick_jr-2" data-name="Noggin by nick jr" transform="translate(-42.261 -13.87)" clip-path="url(#clip-path)">
      <path id="Trazado_19078" data-name="Trazado 19078" d="M23.283,14.055a1.971,1.971,0,1,0-1.971,1.977,1.971,1.971,0,0,0,1.971-1.977m4.73.054a6.7,6.7,0,1,1-6.7-6.7,6.7,6.7,0,0,1,6.7,6.7M6.731,7.4A6.737,6.737,0,0,0,0,14.133v6.479H5.553V13.707H7.909v6.905h5.547V14.133A6.737,6.737,0,0,0,6.725,7.4m31.156,6.653a1.971,1.971,0,1,0-1.971,1.977,1.971,1.971,0,0,0,1.971-1.977m4.94,8.186a6.773,6.773,0,0,1-13.534-.27h4.8a1.984,1.984,0,0,0,1.905,2.007,1.857,1.857,0,0,0,1.887-1.959,1.751,1.751,0,0,0-.685-1.37,6.461,6.461,0,0,1-1.424.15,6.7,6.7,0,1,1,0-13.4,7.146,7.146,0,0,1,2.686.559,2.088,2.088,0,0,1,4.015.986V14.1A5.39,5.39,0,0,1,41.03,17.92a5.747,5.747,0,0,1,1.8,4.321m9.658-8.186a1.971,1.971,0,1,0-1.971,1.977,1.971,1.971,0,0,0,1.971-1.977m4.94,8.186A6.77,6.77,0,0,1,43.9,21.97h4.8A1.984,1.984,0,0,0,50.6,23.978a1.857,1.857,0,0,0,1.887-1.959,1.751,1.751,0,0,0-.685-1.37,6.461,6.461,0,0,1-1.424.15,6.7,6.7,0,1,1,0-13.4,7.146,7.146,0,0,1,2.686.559,2.088,2.088,0,0,1,4.015.986V14.1A5.39,5.39,0,0,1,55.64,17.92a5.747,5.747,0,0,1,1.8,4.321M72.547,7.4a6.737,6.737,0,0,0-6.731,6.731v6.485h5.553V13.707h2.356v6.905h5.547V14.133A6.737,6.737,0,0,0,72.541,7.4M61.464,6.146a3.023,3.023,0,1,0-3.023-3.023,3.023,3.023,0,0,0,3.023,3.023M58.609,20.618V10.179a2.777,2.777,0,1,1,5.553,0V20.618Z" transform="translate(0 -0.094)" fill="#875bd8"/>
      <path id="Trazado_19079" data-name="Trazado 19079" d="M997.8,422.8h.318c.493,0,.962.126.962.721a.561.561,0,0,1-.282.5h0a.676.676,0,0,1,.523.661c0,.523-.451.733-.913.733H997.8Zm.324,1.16h.084c.307,0,.565-.06.565-.439s-.253-.433-.559-.433h-.09Zm0,1.166h.253c.3,0,.619-.09.619-.463s-.372-.445-.667-.445h-.2Z" transform="translate(-937.832 -397.39)" fill="#473173"/>
      <path id="Trazado_19080" data-name="Trazado 19080" d="M1024.6,422.8h.379l.643,1.118.643-1.118h.373l-.853,1.478v1.142h-.325v-1.142Z" transform="translate(-963.022 -397.39)" fill="#473173"/>
      <path id="Trazado_19081" data-name="Trazado 19081" d="M1313.717,379.842a.721.721,0,1,0-.721-.721.721.721,0,0,0,.721.721m.727,2.584a1.31,1.31,0,0,1-1.473,1.466h-.042a1.952,1.952,0,0,1-.98-.246.843.843,0,0,1-.409-1.166.685.685,0,0,1,1.268.24c.048.258.186.228.186-.012V380.93a.763.763,0,0,1,.727-.853.727.727,0,0,1,.727.727Z" transform="translate(-1232.612 -355.658)" fill="#09bcca"/>
      <path id="Trazado_19082" data-name="Trazado 19082" d="M1369.058,409.725V407.76a.518.518,0,0,1,.252-.445c.162-.066.318.012.5.078a.793.793,0,0,0,1.148-.469.727.727,0,0,0-.583-.847,1.421,1.421,0,0,0-1.226.367h0l-.132.108a.727.727,0,0,0-1.424.222v2.951Z" transform="translate(-1285.405 -381.629)" fill="#09bcca"/>
      <path id="Trazado_19083" data-name="Trazado 19083" d="M1401.321,445.542a.721.721,0,1,0-.721-.721.721.721,0,0,0,.721.721" transform="translate(-1316.424 -417.41)" fill="#09bcca"/>
      <path id="Trazado_19084" data-name="Trazado 19084" d="M1088.323,406.206a1.923,1.923,0,0,0-1.923,1.923v1.755h1.46v-1.731a1.014,1.014,0,0,1,.138-.529.39.39,0,0,1,.325-.216.4.4,0,0,1,.324.216,1.018,1.018,0,0,1,.138.529v1.725h1.46v-1.755a1.923,1.923,0,0,0-1.923-1.923" transform="translate(-1021.107 -381.787)" fill="#ff6700"/>
      <path id="Trazado_19085" data-name="Trazado 19085" d="M1154.835,376.743a.811.811,0,1,0-1.148,0l.18.18c.3.3.319.379.036.661l-.162.162a.734.734,0,0,0-.216.523V380.9H1155v-2.626a.732.732,0,0,0-.216-.523l-.162-.162c-.283-.283-.265-.361.036-.661Z" transform="translate(-1084.128 -352.799)" fill="#ff6700"/>
      <path id="Trazado_19086" data-name="Trazado 19086" d="M1184.792,408.93a.4.4,0,0,1-.331.252c-.132,0-.24-.1-.324-.252a1.448,1.448,0,0,1,0-1.22.4.4,0,0,1,.325-.252.417.417,0,0,1,.331.252,1.213,1.213,0,0,1,.126.433h1.46a1.923,1.923,0,1,0,0,.361h-1.46a1.213,1.213,0,0,1-.126.433" transform="translate(-1111.471 -381.975)" fill="#ff6700"/>
      <path id="Trazado_19087" data-name="Trazado 19087" d="M1253.36,409.365a.252.252,0,0,0-.036-.132l-.8-1.208.553-1a.729.729,0,0,0-1.256-.739l-.661,1.184v-.793a.73.73,0,0,0-1.461,0v2.951h1.461V408.47l.769,1.154h1.178a.252.252,0,0,0,.252-.252" transform="translate(-1174.593 -381.527)" fill="#ff6700"/>
      <path id="Trazado_19088" data-name="Trazado 19088" d="M1430.15,410.084H1430v-.078h.385v.078h-.144v.415h-.09Zm.343-.084h.012l.24.264.234-.264h.012v.5h-.09v-.306l-.156.18h-.018l-.156-.18v.306h-.09Z" transform="translate(-1344.057 -385.359)" fill="#09bcca"/>
    </g>
  </g>
</svg>
