<svg xmlns="http://www.w3.org/2000/svg" xmlns:xlink="http://www.w3.org/1999/xlink" width="131" height="28" viewBox="0 0 131 28">
  <defs>
    <clipPath id="clip-path">
      <rect id="Rect치ngulo_3442" data-name="Rect치ngulo 3442" width="109.174" height="24.079" fill="none"/>
    </clipPath>
  </defs>
  <g id="Grupo_14806" data-name="Grupo 14806" transform="translate(105 437)">
    <g id="Paramount_Negro" data-name="Paramount + Negro" transform="translate(-94 -435)">
      <g id="Grupo_5274" data-name="Grupo 5274" transform="translate(0 0)" clip-path="url(#clip-path)">
        <path id="Trazado_6809" data-name="Trazado 6809" d="M209.159,72.554c-.517.726-.96.947-1.353.947s-.689-.443-.628-1.1a14.378,14.378,0,0,1,2.362-5.586c.591-.824,1.009-1.169,1.452-1.169s.591.381.578.849a15.076,15.076,0,0,1-2.412,6.066m-23.033.283c-.332,0-.554-.111-.566-.541a10.256,10.256,0,0,1,2.129-4.749,4.1,4.1,0,0,1,3.039-1.932l-1.464,3.261h0c-1.1,2.5-2.239,3.962-3.15,3.962m-14.322,0c-.332,0-.554-.111-.566-.541a10.256,10.256,0,0,1,2.129-4.749,4.1,4.1,0,0,1,3.039-1.932l-1.464,3.261c-1.083,2.461-2.276,3.962-3.15,3.962M237.163,61.8h-2.289l-.529,1.206-.9,2.018h-1.083l-.32.689h1.107l-1.329,2.965c-.948,2.092-2.461,4.146-3.322,4.146-.185,0-.3-.086-.3-.271a2.372,2.372,0,0,1,.271-.9c.222-.529.714-1.55,1.046-2.215a10.8,10.8,0,0,0,1.243-3.248,1.291,1.291,0,0,0-1.427-1.341,4.462,4.462,0,0,0-2.891,1.563l.566-1.39h-2.166l-1.772,4.011c-.7,1.427-2.153,3.79-3.039,3.79-.185,0-.258-.111-.258-.3a1.526,1.526,0,0,1,.123-.492l1.132-2.633,1.907-4.393h-2.325l-1.858,4.27c-.578,1.317-2.03,3.556-2.965,3.556a.3.3,0,0,1-.32-.332,3.184,3.184,0,0,1,.308-.96l.972-2.141h0l2.018-4.393h-2.313l-.455,1h0a2.236,2.236,0,0,1-1.833,1.452.8.8,0,0,1-.751-.345,2.284,2.284,0,0,0-2.449-2.264,4.992,4.992,0,0,0-4.183,2.51,11.773,11.773,0,0,0-1.366,3.064c-.824,1.353-1.7,2.412-2.362,2.412-.172,0-.283-.1-.283-.332a3.342,3.342,0,0,1,.308-.935l1.489-3.224a6.431,6.431,0,0,0,.714-2.3,1.184,1.184,0,0,0-1.267-1.193,4.533,4.533,0,0,0-3.211,1.673,2.494,2.494,0,0,0,.049-.5,1.035,1.035,0,0,0-1.181-1.169,4.113,4.113,0,0,0-2.965,1.673l.615-1.5h-2.129l-1.784,4.011c-.849,1.895-2.2,3.79-2.978,3.79-.185,0-.283-.1-.283-.32a9.413,9.413,0,0,1,.554-1.624l2.35-5.352c.172-.394-.96-.652-2.387-.652a6.862,6.862,0,0,0-4.1,1.661,3.662,3.662,0,0,1-1.661.972c-.308,0-.209-.074-.209-.172,0-.332.787-1.255.787-1.944,0-.32-.172-.529-.615-.529a4.185,4.185,0,0,0-2.572,1.649l.628-1.477h-2.055L179.1,69.047c-.849,1.895-2.239,3.863-3.015,3.863-.185,0-.283-.1-.283-.32a9.178,9.178,0,0,1,.591-1.71l2.35-5.352c.172-.394-.96-.652-2.4-.652a7.217,7.217,0,0,0-5.3,2.9A9.052,9.052,0,0,0,169,72.443a1.576,1.576,0,0,0,1.71,1.8,4.375,4.375,0,0,0,2.928-1.784,4.278,4.278,0,0,0-.074.455c0,.775.308,1.329,1.243,1.329a3.982,3.982,0,0,0,2.805-1.8l-.714,1.636h2.252l2.2-5c.714-1.624,1.55-2.473,1.772-2.473s.1.037.1.1a3.521,3.521,0,0,0-.332,1.058c0,.431.234.738.837.738a2.7,2.7,0,0,0,1.5-.529,8.531,8.531,0,0,0-1.907,4.479,1.576,1.576,0,0,0,1.71,1.8c1.157,0,2.338-1.144,2.953-1.907a3.884,3.884,0,0,0-.049.529,1.249,1.249,0,0,0,1.292,1.378c.874,0,1.735-.6,2.682-1.76l-.7,1.6h2.3l2.1-4.774c.923-2.079,2.166-3.174,2.781-3.174a.283.283,0,0,1,.308.308,1.981,1.981,0,0,1-.185.677l-3.076,6.964h2.35l2.153-4.86c.923-2.079,1.944-3.113,2.707-3.113.234,0,.332.123.332.369a1.663,1.663,0,0,1-.222.763l-2.067,4.4A3.653,3.653,0,0,0,200.362,73a1.212,1.212,0,0,0,1.39,1.267c1.341,0,2.362-1.009,3.507-2.535v.308a2.266,2.266,0,0,0,2.547,2.252c2.1,0,3.814-1.464,4.848-3.777a8.289,8.289,0,0,0,.75-2.6,1.661,1.661,0,0,0,.751.16,2.141,2.141,0,0,0,1-.246l-.369.8c-.418.886-.9,1.87-1.243,2.682a4.378,4.378,0,0,0-.406,1.55,1.287,1.287,0,0,0,1.39,1.415,4.718,4.718,0,0,0,3.138-2.129h.025a4.7,4.7,0,0,0-.1.787c0,.677.209,1.341,1.169,1.341a4.289,4.289,0,0,0,2.818-1.809l-.714,1.624h2.326l1.858-4.208c1.046-2.375,2.1-3.8,3.088-3.8a.3.3,0,0,1,.32.345,11.976,11.976,0,0,1-1.1,2.6c-.529,1.107-.837,1.759-1.1,2.362a4.358,4.358,0,0,0-.406,1.587,1.192,1.192,0,0,0,1.3,1.292c1.341,0,2.707-1.292,3.433-2.289a4.69,4.69,0,0,0-.271,1.464,1.824,1.824,0,0,0,1.944,2.018,3.6,3.6,0,0,0,2.092-.7,9.631,9.631,0,0,0,2.19-2.387l-.394-.381a9.027,9.027,0,0,1-1.8,2.006,2.006,2.006,0,0,1-1.194.468.768.768,0,0,1-.787-.874,7.783,7.783,0,0,1,.726-2.547l1.243-2.818,1.1-2.485h1.513l.308-.689h-1.513Z" transform="translate(-148.205 -54.196)" fill="#1a1c2a"/>
        <path id="Trazado_6810" data-name="Trazado 6810" d="M17.714,13.141a14.52,14.52,0,0,0,2.559-.529c3.027-.849,6.447-2.867,6.447-6.472,0-4.146-4.38-6.14-9.61-6.14C11.537,0,6.419,2.473,4.524,6.312a7.37,7.37,0,0,0-.775,3.3,5,5,0,0,0,.775,2.805A4.916,4.916,0,0,0,8.88,14.359c2.584,0,4.639-1.427,4.639-3.888a.672.672,0,0,0-.763-.689c-.8,0-.824.443-.812.677a3.042,3.042,0,0,1-3.1,3.482c-2.289,0-3.261-1.956-3.261-4.048,0-4.282,3.224-7.112,6.57-8.33a13.141,13.141,0,0,1,4.9-.849c3.79,0,6.89,1.464,6.89,5.365a6.469,6.469,0,0,1-6.017,6.275l.135-.455a24.218,24.218,0,0,1,2.83-6.964c.074-.123.221-.308.369-.5L21.073,4.2a10.078,10.078,0,0,0-.837.591C13.949,9.708,13.752,23.5,5.385,23.5a5.328,5.328,0,0,1-.849-.062,2.92,2.92,0,0,1-2.658-3.088c0-.32.111-.763.111-1.021a.944.944,0,0,0-.911-.861c-.628,0-1.07.578-1.083,1.427-.037,2.461,1.759,3.876,4.528,4.134q.455.037.947.037c6.533,0,10.557-4.946,12.243-10.938" transform="translate(0.004 0)" fill="#1a1c2a"/>
        <path id="Trazado_6811" data-name="Trazado 6811" d="M734.9,59.146l1.9-4.073h6.386l2.978-6.374h4.085l-2.978,6.374h6.386l-1.9,4.073h-6.385l-2.99,6.41H738.3l2.99-6.41Z" transform="translate(-644.477 -42.708)" fill="#1a1c2a"/>
      </g>
    </g>
    <rect id="Rect치ngulo_8459" data-name="Rect치ngulo 8459" width="131" height="28" transform="translate(-105 -437)" fill="none"/>
  </g>
</svg>
