<svg xmlns="http://www.w3.org/2000/svg" width="90" height="60" viewBox="0 0 90 60">
  <g id="Grupo_14843" data-name="Grupo 14843" transform="translate(312 378)">
    <rect id="Rectángulo_8462" data-name="Rectángulo 8462" width="90" height="60" transform="translate(-312 -378)" fill="#fff"/>
    <g id="Grupo_14842" data-name="Grupo 14842" transform="translate(2 10)">
      <path id="Trazado_20074" data-name="Trazado 20074" d="M50.93,28.48a.33.33,0,0,1-.24-.07.32.32,0,0,1-.08-.25V19.63a.31.31,0,0,1,.08-.24.33.33,0,0,1,.24-.08h.92a.33.33,0,0,1,.36.29l.09.33a2.74,2.74,0,0,1,.93-.59,3,3,0,0,1,1.1-.22,2.38,2.38,0,0,1,2,.91A3.8,3.8,0,0,1,57,22.49a4.46,4.46,0,0,1-.36,1.85,2.85,2.85,0,0,1-1,1.22,2.38,2.38,0,0,1-1.41.43,2.8,2.8,0,0,1-1-.17,2.33,2.33,0,0,1-.8-.46v2.8a.37.37,0,0,1-.07.25.34.34,0,0,1-.25.07Zm2.8-3.9a1.21,1.21,0,0,0,1.06-.48,2.82,2.82,0,0,0,.33-1.54A2.8,2.8,0,0,0,54.79,21a1.17,1.17,0,0,0-1.06-.49,2.34,2.34,0,0,0-1.25.35v3.36a2.32,2.32,0,0,0,1.25.36Z" transform="translate(-315.544 -381.308)" fill="#0096d6"/>
      <path id="Trazado_20075" data-name="Trazado 20075" d="M58.59,25.85a.33.33,0,0,1-.24-.08.29.29,0,0,1-.08-.24v-5.9a.28.28,0,0,1,.08-.24.33.33,0,0,1,.24-.08h.92a.33.33,0,0,1,.36.29l.16.69a3.64,3.64,0,0,1,1-.8,2,2,0,0,1,1-.24h.17a.37.37,0,0,1,.26.07.34.34,0,0,1,.08.25v1.07a.39.39,0,0,1-.07.25.34.34,0,0,1-.25.07h-.59a4.26,4.26,0,0,0-.72.08,4.07,4.07,0,0,0-.71.21v4.3a.38.38,0,0,1-.07.24.34.34,0,0,1-.25.08Z" transform="translate(-315.544 -381.308)" fill="#0096d6"/>
      <path id="Trazado_20076" data-name="Trazado 20076" d="M64.31,18.3a1.17,1.17,0,0,1-.78-.26,1.064,1.064,0,0,1,0-1.46,1.12,1.12,0,0,1,.78-.27,1.09,1.09,0,0,1,.78.27.93.93,0,0,1,.3.73.94.94,0,0,1-.3.73A1.13,1.13,0,0,1,64.31,18.3Zm-.61,7.55a.28.28,0,0,1-.32-.32v-5.9a.31.31,0,0,1,.08-.24.33.33,0,0,1,.24-.08h1.23a.34.34,0,0,1,.25.08.36.36,0,0,1,.07.24v5.9a.38.38,0,0,1-.07.24.34.34,0,0,1-.25.08Z" transform="translate(-315.544 -381.308)" fill="#0096d6"/>
      <path id="Trazado_20077" data-name="Trazado 20077" d="M67.15,25.85a.28.28,0,0,1-.32-.32v-5.9a.31.31,0,0,1,.08-.24.33.33,0,0,1,.24-.08h.92a.33.33,0,0,1,.36.29l.1.34a5.28,5.28,0,0,1,1.22-.63,3.3,3.3,0,0,1,1.12-.19,1.74,1.74,0,0,1,1.63.82,5.27,5.27,0,0,1,1.22-.63,4,4,0,0,1,1.19-.19,1.88,1.88,0,0,1,1.39.5,1.9,1.9,0,0,1,.49,1.4v4.51a.33.33,0,0,1-.07.24.32.32,0,0,1-.25.08H75.25a.34.34,0,0,1-.25-.08.33.33,0,0,1-.07-.24V21.42c0-.57-.26-.86-.78-.86a3.26,3.26,0,0,0-1.4.33v4.64a.33.33,0,0,1-.07.24.34.34,0,0,1-.25.08H71.2a.28.28,0,0,1-.32-.32V21.42c0-.57-.26-.86-.78-.86a3.1,3.1,0,0,0-1.4.34v4.63a.38.38,0,0,1-.07.24.34.34,0,0,1-.25.08Z" transform="translate(-315.544 -381.308)" fill="#0096d6"/>
      <path id="Trazado_20078" data-name="Trazado 20078" d="M81.23,26a3.26,3.26,0,0,1-2.44-.87,3.45,3.45,0,0,1-.85-2.49,3.71,3.71,0,0,1,.87-2.61,3.13,3.13,0,0,1,2.42-.95,2.74,2.74,0,0,1,1.86.58,1.9,1.9,0,0,1,.67,1.53A1.63,1.63,0,0,1,83,22.68a3.76,3.76,0,0,1-2.13.5A5.24,5.24,0,0,1,79.64,23a1.76,1.76,0,0,0,.52,1.22,2,2,0,0,0,1.34.37,5.37,5.37,0,0,0,.7,0,5.158,5.158,0,0,0,.94-.2h.14c.14,0,.21.09.21.29v.59a.65.65,0,0,1,0,.29.53.53,0,0,1-.23.14,5.44,5.44,0,0,1-2.03.3Zm-.42-4a1.73,1.73,0,0,0,.94-.2.68.68,0,0,0,.3-.61q0-.81-1-.81c-.82,0-1.29.51-1.42,1.51a5.65,5.65,0,0,0,1.18.11Z" transform="translate(-315.544 -381.308)" fill="#0096d6"/>
      <path id="Trazado_20079" data-name="Trazado 20079" d="M33.22,28.18A14.5,14.5,0,0,1,25,30.69a14.8,14.8,0,0,1-10-3.82c-.21-.19,0-.44.23-.3a19.89,19.89,0,0,0,17.66,1.1c.37-.16.69.24.32.51Z" transform="translate(-315.544 -381.308)" fill="#002552" fill-rule="evenodd"/>
      <path id="Trazado_20080" data-name="Trazado 20080" d="M34.14,27.13c-.28-.36-1.87-.17-2.59-.08-.21,0-.25-.17-.05-.31a4,4,0,0,1,3.59-.33,3.94,3.94,0,0,1-1.25,3.38c-.19.15-.36.07-.28-.13.27-.67.87-2.17.58-2.53Z" transform="translate(-315.544 -381.308)" fill="#002552" fill-rule="evenodd"/>
      <path id="Trazado_20081" data-name="Trazado 20081" d="M31.61,20.45v-.87a.21.21,0,0,1,.21-.22h3.89a.22.22,0,0,1,.22.22v.74c0,.13-.11.29-.29.55l-2,2.87a4.2,4.2,0,0,1,2.21.48.39.39,0,0,1,.21.33v.93a.21.21,0,0,1-.29.2,4.46,4.46,0,0,0-4.1,0c-.13.08-.28-.07-.28-.2V24.6a1,1,0,0,1,.15-.59l2.33-3.34h-2a.22.22,0,0,1-.22-.22Z" transform="translate(-315.544 -381.308)" fill="#002552" fill-rule="evenodd"/>
      <path id="Trazado_20082" data-name="Trazado 20082" d="M39.28,20.49c-.87,0-.92,1.18-.92,1.92s0,2.33.91,2.33,1-1.28,1-2.06a5.35,5.35,0,0,0-.18-1.6.73.73,0,0,0-.77-.59Zm0-1.24c1.75,0,2.7,1.51,2.7,3.42s-1,3.32-2.7,3.32-2.65-1.51-2.65-3.38S37.57,19.25,39.28,19.25Z" transform="translate(-315.544 -381.308)" fill="#002552" fill-rule="evenodd"/>
      <path id="Trazado_20083" data-name="Trazado 20083" d="M29.7,25.84a.25.25,0,0,1-.28,0,3,3,0,0,1-.67-.79,2.35,2.35,0,0,1-1.95.86A1.68,1.68,0,0,1,25,24.1a2,2,0,0,1,1.26-1.93,8.37,8.37,0,0,1,2.22-.41,2.08,2.08,0,0,0-.14-1,.82.82,0,0,0-.66-.3.89.89,0,0,0-.95.69.231.231,0,0,1-.22.23l-1.13-.12a.21.21,0,0,1-.18-.25,2.4,2.4,0,0,1,2.64-1.81,2.69,2.69,0,0,1,1.78.59,2.51,2.51,0,0,1,.52,2v1.84a1.64,1.64,0,0,0,.44,1.1.21.21,0,0,1,0,.31l-.91.78ZM28.51,23a2.36,2.36,0,0,1-.22,1.26,1,1,0,0,1-.82.53c-.45,0-.71-.34-.71-.85,0-1,.9-1.19,1.75-1.19V23Z" transform="translate(-315.544 -381.308)" fill="#002552" fill-rule="evenodd"/>
      <path id="Trazado_20084" data-name="Trazado 20084" d="M14.22,25.84a.25.25,0,0,1-.28,0,3,3,0,0,1-.67-.79,2.35,2.35,0,0,1-1.95.86A1.67,1.67,0,0,1,9.55,24.1a2,2,0,0,1,1.26-1.93A8.37,8.37,0,0,1,13,21.76a2.08,2.08,0,0,0-.14-1,.83.83,0,0,0-.67-.3.88.88,0,0,0-.94.69.231.231,0,0,1-.22.23L9.9,21.26A.21.21,0,0,1,9.75,21a2.4,2.4,0,0,1,2.64-1.81,2.71,2.71,0,0,1,1.78.59,2.51,2.51,0,0,1,.52,2v1.84a1.64,1.64,0,0,0,.44,1.1.21.21,0,0,1,0,.31l-.91.78ZM13,23a2.36,2.36,0,0,1-.22,1.26,1,1,0,0,1-.82.53c-.45,0-.72-.34-.72-.85,0-1,.91-1.19,1.76-1.19Z" transform="translate(-315.544 -381.308)" fill="#002552" fill-rule="evenodd"/>
      <path id="Trazado_20085" data-name="Trazado 20085" d="M17.67,22.43c0-.7,0-1.67.82-1.67s.73,1,.73,1.67v3.21a.22.22,0,0,0,.21.22h1.18a.22.22,0,0,0,.23-.22V22.43A3.67,3.67,0,0,1,21,21.27a.78.78,0,0,1,.7-.5.61.61,0,0,1,.7.52,8.589,8.589,0,0,1,0,1.14v3.21a.23.23,0,0,0,.21.22h1.18a.22.22,0,0,0,.23-.22V21.82a3.2,3.2,0,0,0-.3-1.91,1.69,1.69,0,0,0-1.36-.66,1.67,1.67,0,0,0-1.63,1.12,1.63,1.63,0,0,0-3.09,0h0V19.6a.22.22,0,0,0-.22-.22h-1.1a.22.22,0,0,0-.23.22v6a.22.22,0,0,0,.23.22h1.17a.22.22,0,0,0,.22-.22V22.43Z" transform="translate(-315.544 -381.308)" fill="#002552" fill-rule="evenodd"/>
      <path id="Trazado_20086" data-name="Trazado 20086" d="M44.48,25.64a.22.22,0,0,1-.22.22H43.08a.22.22,0,0,1-.22-.22v-6a.22.22,0,0,1,.22-.22h1.09a.22.22,0,0,1,.22.17v.93h0A1.61,1.61,0,0,1,46,19.25a1.54,1.54,0,0,1,1.4.75,3.82,3.82,0,0,1,.31,1.88V25.7a.24.24,0,0,1-.23.19H46.3a.22.22,0,0,1-.21-.19V22c0-1.22-.47-1.26-.74-1.26a.8.8,0,0,0-.68.48,2.68,2.68,0,0,0-.19,1.16Z" transform="translate(-315.544 -381.308)" fill="#002552" fill-rule="evenodd"/>
    </g>
  </g>
</svg>
