<svg xmlns="http://www.w3.org/2000/svg" width="90" height="60" viewBox="0 0 90 60">
  <g id="Grupo_16334" data-name="Grupo 16334" transform="translate(2455 -2782)">
    <rect id="Rectángulo_8463" data-name="Rectángulo 8463" width="90" height="60" transform="translate(-2455 2782)" fill="#fff"/>
    <g id="hbomax" transform="translate(-2443 2806)">
      <g id="Grupo_1287" data-name="Grupo 1287" transform="translate(0 0)">
        <g id="Grupo_1285" data-name="Grupo 1285" transform="translate(28.65 0.004)">
          <g id="Grupo_1284" data-name="Grupo 1284">
            <path id="Trazado_4459" data-name="Trazado 4459" d="M584.366,4.216c0,.008,0,7.053,0,7.053a.179.179,0,0,1-.157.191h-.958a1.045,1.045,0,0,1-1.026-1.044V4.242a2,2,0,0,0-2.131-2.04,2.021,2.021,0,0,0-2.125,2.074v7a.172.172,0,0,1-.16.182h-.958a1.065,1.065,0,0,1-1.026-1.066V4.251a2.13,2.13,0,0,0-4.256.006v7.03a.164.164,0,0,1-.16.173h-.958a1.027,1.027,0,0,1-1.023-1.026s0-6.186,0-6.192A4.011,4.011,0,0,1,573.692.089a4.29,4.29,0,0,1,3.2,1.266,4.289,4.289,0,0,1,3.2-1.275A4.011,4.011,0,0,1,584.366,4.216Z" transform="translate(-569.429 -0.08)"/>
            <path id="Trazado_4460" data-name="Trazado 4460" d="M1104.782,14.783a.085.085,0,0,1-.073.131l-1.71,0a1.214,1.214,0,0,1-1.139-.534l-1.75-2.582a.653.653,0,0,0-1.235,0l-1.75,2.582a1.214,1.214,0,0,1-1.139.534h-1.71a.088.088,0,0,1-.073-.136l3.375-4.982a.881.881,0,0,0,0-.965L1094.2,3.855a.086.086,0,0,1,.073-.133h1.71a1.211,1.211,0,0,1,1.139.531l1.75,2.582a.653.653,0,0,0,1.235,0l1.75-2.582A1.211,1.211,0,0,1,1103,3.722h1.71a.086.086,0,0,1,.073.133l-3.375,4.982a.881.881,0,0,0,0,.965Z" transform="translate(-1067.787 -3.539)"/>
            <path id="Trazado_4461" data-name="Trazado 4461" d="M886.49.263h-.674a1.035,1.035,0,0,0-.9.516l-.249.435A5.153,5.153,0,0,0,881.408.08c-3.139,0-5.229,2.218-5.229,5.731,0,3.541,2.125,5.731,5.2,5.731a5.1,5.1,0,0,0,3.1-1,1,1,0,0,0,1.031.913h.977c.1,0,.172-.041.172-.136l0-10.889A.172.172,0,0,0,886.49.263Zm-5.128,9.146c-1.785,0-3.093-1.329-3.093-3.6s1.308-3.6,3.093-3.6,3.093,1.329,3.093,3.6S883.148,9.409,881.362,9.409Z" transform="translate(-860.745 -0.08)"/>
          </g>
        </g>
        <g id="Grupo_1286" data-name="Grupo 1286">
          <path id="Trazado_4462" data-name="Trazado 4462" d="M5.109,7.886H3.135V3.721H0v11.2H3.135V10.574H5.109v4.344H8.151V3.721H5.109Z" transform="translate(0 -3.534)"/>
          <path id="Trazado_4463" data-name="Trazado 4463" d="M187.879,0a5.637,5.637,0,0,0-5.13,3.235A3.247,3.247,0,0,0,179.764.186h-5.191v11.2h4.84a3.37,3.37,0,0,0,3.342-3.141,5.7,5.7,0,0,0,10.813-2.55A5.66,5.66,0,0,0,187.879,0Zm-8.872,8.776h-1.539V6.884h1.539a.891.891,0,0,1,.8.946A.891.891,0,0,1,179.007,8.776Zm.006-4.2h-1.54V2.679h1.54a.89.89,0,0,1,.8.946A.891.891,0,0,1,179.013,4.572ZM181.062,5.7a2.4,2.4,0,0,0,1.148-.705,5.185,5.185,0,0,0,.007,1.562A2.152,2.152,0,0,0,181.062,5.7Zm6.819,2.85a2.85,2.85,0,1,1,2.85-2.85A2.85,2.85,0,0,1,187.881,8.547Z" transform="translate(-165.79 0)"/>
          <path id="Trazado_4464" data-name="Trazado 4464" d="M396.785,68.7a2.241,2.241,0,1,0,2.241,2.241A2.241,2.241,0,0,0,396.785,68.7Z" transform="translate(-374.693 -65.239)"/>
        </g>
      </g>
      <g id="Grupo_1288" data-name="Grupo 1288" transform="translate(65.932 0.187)">
        <path id="Trazado_4465" data-name="Trazado 4465" d="M1310.431,3.827h.154v.445h.125V3.827h.159v-.1h-.438Z" transform="translate(-1310.431 -3.724)"/>
        <path id="Trazado_4466" data-name="Trazado 4466" d="M1321.1,3.724l-.149.244-.148-.244h-.125v.548h.125V3.953l.141.233h.014l.141-.233v.319h.125V3.724Z" transform="translate(-1320.161 -3.724)"/>
      </g>
    </g>
  </g>
</svg>
