<svg xmlns="http://www.w3.org/2000/svg" xmlns:xlink="http://www.w3.org/1999/xlink" width="90" height="60" viewBox="0 0 90 60">
  <defs>
    <clipPath id="clip-path">
      <rect id="Rect치ngulo_8437" data-name="Rect치ngulo 8437" width="66.237" height="21.739" fill="none"/>
    </clipPath>
  </defs>
  <g id="Grupo_16337" data-name="Grupo 16337" transform="translate(2350 -2920)">
    <rect id="Rect치ngulo_8465" data-name="Rect치ngulo 8465" width="90" height="60" transform="translate(-2350 2920)" fill="#fff"/>
    <g id="Noggin_by_nick_jr" data-name="Noggin by nick jr" transform="translate(-2295.739 2952.87)">
      <g id="Noggin_by_nick_jr-2" data-name="Noggin by nick jr" transform="translate(-42.261 -13.87)" clip-path="url(#clip-path)">
        <path id="Trazado_19078" data-name="Trazado 19078" d="M17.738,10.732a1.5,1.5,0,1,0-1.5,1.506,1.5,1.5,0,0,0,1.5-1.506m3.6.041a5.105,5.105,0,1,1-5.105-5.105,5.105,5.105,0,0,1,5.105,5.105M5.128,5.663A5.133,5.133,0,0,0,0,10.791v4.936H4.231V10.466H6.026v5.261h4.226V10.791A5.133,5.133,0,0,0,5.124,5.663M28.86,10.732a1.5,1.5,0,1,0-1.5,1.506,1.5,1.5,0,0,0,1.5-1.506m3.764,6.236a5.16,5.16,0,0,1-10.311-.206h3.658a1.512,1.512,0,0,0,1.451,1.529A1.415,1.415,0,0,0,28.86,16.8a1.334,1.334,0,0,0-.522-1.044,4.922,4.922,0,0,1-1.085.114,5.1,5.1,0,1,1,0-10.206,5.444,5.444,0,0,1,2.047.426,1.59,1.59,0,0,1,3.059.751v3.929a4.106,4.106,0,0,1-1.1,2.908,4.379,4.379,0,0,1,1.369,3.292m7.358-6.236a1.5,1.5,0,1,0-1.5,1.506,1.5,1.5,0,0,0,1.5-1.506m3.764,6.236a5.158,5.158,0,0,1-10.307-.206H37.1a1.512,1.512,0,0,0,1.451,1.529A1.415,1.415,0,0,0,39.991,16.8a1.334,1.334,0,0,0-.522-1.044,4.922,4.922,0,0,1-1.085.114,5.1,5.1,0,1,1,0-10.206,5.444,5.444,0,0,1,2.047.426,1.59,1.59,0,0,1,3.059.751v3.929a4.106,4.106,0,0,1-1.1,2.908,4.379,4.379,0,0,1,1.369,3.292M55.271,5.659a5.133,5.133,0,0,0-5.128,5.128v4.941h4.231V10.466h1.795v5.261h4.226V10.791a5.133,5.133,0,0,0-5.128-5.128m-8.439-.957a2.3,2.3,0,1,0-2.3-2.3,2.3,2.3,0,0,0,2.3,2.3M44.652,15.732V7.779a2.115,2.115,0,1,1,4.231,0v7.953Z" transform="translate(0 -0.095)" fill="#875bd8"/>
        <path id="Trazado_19079" data-name="Trazado 19079" d="M997.8,422.8h.243c.375,0,.733.1.733.549a.427.427,0,0,1-.215.38h0a.515.515,0,0,1,.4.5c0,.4-.343.559-.7.559H997.8Zm.247.884h.064c.234,0,.43-.046.43-.334s-.192-.33-.426-.33h-.069Zm0,.888h.192c.229,0,.472-.069.472-.353s-.284-.339-.508-.339h-.156Z" transform="translate(-952.113 -403.441)" fill="#473173"/>
        <path id="Trazado_19080" data-name="Trazado 19080" d="M1024.6,422.8h.289l.49.852.49-.852h.284l-.65,1.126v.87h-.247v-.87Z" transform="translate(-977.686 -403.441)" fill="#473173"/>
        <path id="Trazado_19081" data-name="Trazado 19081" d="M1313.172,379.5a.549.549,0,1,0-.55-.549.549.549,0,0,0,.55.549m.554,1.969a1,1,0,0,1-1.122,1.117h-.032a1.488,1.488,0,0,1-.746-.188.642.642,0,0,1-.311-.888.522.522,0,0,1,.966.183c.037.2.142.174.142-.009v-1.355a.581.581,0,0,1,.554-.65.554.554,0,0,1,.554.554Z" transform="translate(-1251.381 -361.074)" fill="#09bcca"/>
        <path id="Trazado_19082" data-name="Trazado 19082" d="M1368.71,408.846v-1.5a.4.4,0,0,1,.192-.339c.123-.05.243.009.385.06a.6.6,0,0,0,.875-.357.554.554,0,0,0-.444-.646,1.082,1.082,0,0,0-.934.279h0l-.1.082a.554.554,0,0,0-1.085.169v2.248Z" transform="translate(-1304.978 -387.44)" fill="#09bcca"/>
        <path id="Trazado_19083" data-name="Trazado 19083" d="M1401.149,445.2a.549.549,0,1,0-.55-.549.549.549,0,0,0,.55.549" transform="translate(-1336.469 -423.766)" fill="#09bcca"/>
        <path id="Trazado_19084" data-name="Trazado 19084" d="M1087.865,406.2a1.465,1.465,0,0,0-1.465,1.465v1.337h1.113v-1.319a.773.773,0,0,1,.105-.4.3.3,0,0,1,.247-.165.308.308,0,0,1,.247.165.775.775,0,0,1,.105.4V409h1.113v-1.337a1.465,1.465,0,0,0-1.465-1.465" transform="translate(-1036.656 -387.601)" fill="#ff6700"/>
        <path id="Trazado_19085" data-name="Trazado 19085" d="M1154.505,376.413a.618.618,0,1,0-.874,0l.137.137c.229.229.243.288.027.5l-.124.124a.559.559,0,0,0-.165.4v2h1.122v-2a.558.558,0,0,0-.165-.4l-.123-.124c-.215-.215-.2-.275.027-.5Z" transform="translate(-1100.636 -358.171)" fill="#ff6700"/>
        <path id="Trazado_19086" data-name="Trazado 19086" d="M1184.256,408.327a.306.306,0,0,1-.252.192c-.1,0-.183-.073-.247-.192a1.1,1.1,0,0,1,0-.93.306.306,0,0,1,.247-.192.318.318,0,0,1,.252.192.923.923,0,0,1,.1.33h1.113a1.465,1.465,0,1,0,0,.275h-1.113a.923.923,0,0,1-.1.33" transform="translate(-1128.395 -387.791)" fill="#ff6700"/>
        <path id="Trazado_19087" data-name="Trazado 19087" d="M1252.488,408.545a.192.192,0,0,0-.027-.1l-.609-.92.421-.765a.555.555,0,0,0-.957-.563l-.5.9v-.6a.556.556,0,0,0-1.113,0v2.248h1.113v-.879l.586.879h.9a.192.192,0,0,0,.192-.192" transform="translate(-1192.479 -387.336)" fill="#ff6700"/>
        <path id="Trazado_19088" data-name="Trazado 19088" d="M1430.115,410.064H1430V410h.293v.06h-.11v.316h-.069Zm.261-.064h.009l.183.2.178-.2h.009v.38h-.069v-.234l-.119.137h-.014l-.119-.137v.234h-.069Z" transform="translate(-1364.523 -391.227)" fill="#09bcca"/>
      </g>
    </g>
  </g>
</svg>
