<svg xmlns="http://www.w3.org/2000/svg" width="90" height="60" viewBox="0 0 90 60">
  <g id="Grupo_14837" data-name="Grupo 14837" transform="translate(123 274)">
    <rect id="Rectángulo_8467" data-name="Rectángulo 8467" width="90" height="60" transform="translate(-123 -274)" fill="#fff"/>
    <g id="starzplay" transform="translate(-124.27 -267.85)">
      <path id="Trazado_20104" data-name="Trazado 20104" d="M29.1,28l.71-1.41h3.91L34.43,28h1.92l-4.58-9.08L27.21,28Zm1.55-3,1.12-2.21L32.89,25Z" fill="#1a1818"/>
      <path id="Trazado_20105" data-name="Trazado 20105" d="M28.83,18.98H21.64v1.66h2.68v7.38h1.83V20.64h2.68Z" fill="#1a1818"/>
      <path id="Trazado_20106" data-name="Trazado 20106" d="M43.32,21.75a2.62,2.62,0,0,0-.83-2A3.41,3.41,0,0,0,40.17,19h-3.4v9h1.84V24.7h1.31L41.81,28h2.11l-2.15-3.74a2.66,2.66,0,0,0,1.55-2.51ZM39.94,23H38.61V20.64h1.33c1,0,1.53.4,1.53,1.15S40.9,23,39.94,23Z" fill="#1a1818"/>
      <path id="Trazado_20107" data-name="Trazado 20107" d="M52.17,18.98H44.71v1.66h4.27l-4.64,7.38h7.74V26.36H47.54Z" fill="#1a1818"/>
      <path id="Trazado_20108" data-name="Trazado 20108" d="M18.41,22.67c-1.48-.35-2-.59-2-1.28s.53-.93,1.31-.93a4.41,4.41,0,0,1,2.55,1.07L21,20a5.12,5.12,0,0,0-3.3-1.15c-1.85,0-3.14,1.11-3.14,2.69,0,1.73,1.11,2.32,3,2.79,1.61.37,1.89.69,1.89,1.22s-.56,1-1.43,1a4.13,4.13,0,0,1-3-1.36l-.75,1.62a5.56,5.56,0,0,0,3.68,1.37c2,0,3.28-1.07,3.28-2.79C21.33,24,20.48,23.17,18.41,22.67Z" fill="#1a1818"/>
      <path id="Trazado_20109" data-name="Trazado 20109" d="M53.52,19h3a2.65,2.65,0,1,1,0,5.29H54.08V28h-.56Zm2.95,4.77a2,2,0,0,0,2.19-2.14,2,2,0,0,0-2.19-2.12H54.08v4.26Z" fill="#1a1818"/>
      <path id="Trazado_20110" data-name="Trazado 20110" d="M60.13,19h.56v8.5H65V28H60.13Z" fill="#1a1818"/>
      <path id="Trazado_20111" data-name="Trazado 20111" d="M71.39,24.89H67.56L66.4,28h-.6l3.39-9h.59l3.38,9h-.59Zm-1.92-5.27s-.19.7-.34,1.09l-1.38,3.66H71.2l-1.37-3.66c-.14-.39-.33-1.09-.33-1.09Z" fill="#1a1818"/>
      <path id="Trazado_20112" data-name="Trazado 20112" d="M75.33,24.09,72.26,19h.63L75,22.54c.25.44.55,1,.55,1h0a11.351,11.351,0,0,1,.55-1L78.32,19H79l-3.06,5.11V28h-.56Z" fill="#1a1818"/>
    </g>
  </g>
</svg>
