<svg xmlns="http://www.w3.org/2000/svg" width="90" height="60" viewBox="0 0 90 60">
  <g id="Grupo_14840" data-name="Grupo 14840" transform="translate(219 274)">
    <rect id="Rectángulo_8466" data-name="Rectángulo 8466" width="90" height="60" transform="translate(-219 -274)" fill="#fff"/>
    <g id="starpremium" transform="translate(-221.15 -267.8)">
      <path id="Trazado_20093" data-name="Trazado 20093" d="M56.65,18H51.3c-.07,0-.1,0-.12-.1l-1.67-5.1-1.65,5.07a.11.11,0,0,1-.12.1H42.39l4.32,3.15a.15.15,0,0,0,.16,0,13.73,13.73,0,0,1,4.47-1.82,32.57,32.57,0,0,0-5.66,5.42.56.56,0,0,0-.11.19l-.47,1.45,4.32-3.13a.12.12,0,0,1,.17,0l4.32,3.13-1.64-5.1a.11.11,0,0,1,0-.14Z"/>
      <path id="Trazado_20094" data-name="Trazado 20094" d="M59.59,16.61H61c.87,0,1.43.45,1.43,1.24A1.33,1.33,0,0,1,61,19.26H59.59ZM62.09,21a3.15,3.15,0,0,0,2.74-3.12c0-2.14-1.45-3.31-3.79-3.31H57.26V25.29h2.33V21l2.88,4.3h2.69Z"/>
      <path id="Trazado_20095" data-name="Trazado 20095" d="M36.23,14.56v2.12h2.35v8.61h2.36V16.68H43.3V14.56Z"/>
      <path id="Trazado_20096" data-name="Trazado 20096" d="M31.86,18.51c-.7-.31-1-.66-1-1.12A1,1,0,0,1,32,16.45a1.57,1.57,0,0,1,1.42,1.14l2-.89a3.45,3.45,0,0,0-3.53-2.28,3.12,3.12,0,0,0-3.38,3,3,3,0,0,0,1.94,2.78l1.51.75c.84.42,1.24.74,1.24,1.35A1.16,1.16,0,0,1,32,23.42a1.8,1.8,0,0,1-1.75-1.36l-2.1.61A3.75,3.75,0,0,0,32,25.47a3.33,3.33,0,0,0,3.62-3.2,3.27,3.27,0,0,0-2.29-3.09Z"/>
      <path id="Trazado_20097" data-name="Trazado 20097" d="M31.82,29.78h1.6c.89,0,1.63.28,1.63,1.3s-.69,1.31-1.59,1.31h-.69v1.68h-1Zm1,1.81h.63c.33,0,.66-.11.66-.51s-.44-.5-.81-.5h-.48Z"/>
      <path id="Trazado_20098" data-name="Trazado 20098" d="M36,29.78h1.66c.88,0,1.62.3,1.62,1.3a1.09,1.09,0,0,1-.93,1.17l1.1,1.82H38.31l-.89-1.72H37v1.72H36Zm1,1.77h.56c.34,0,.79,0,.79-.48s-.39-.49-.73-.49H37Z"/>
      <path id="Trazado_20099" data-name="Trazado 20099" d="M40.33,29.78h2.91v.87h-2v.8H43.1v.87H41.28v.87h2.07v.88h-3Z"/>
      <path id="Trazado_20100" data-name="Trazado 20100" d="M44.47,29.78H45.9l1,2.8h0l1-2.8h1.42v4.29h-.94V30.78h0l-1.13,3.29h-.72l-1.09-3.29h0v3.29h-1Z"/>
      <path id="Trazado_20101" data-name="Trazado 20101" d="M50.55,29.78h.94v4.29h-.94Z"/>
      <path id="Trazado_20102" data-name="Trazado 20102" d="M56.33,32.41a1.81,1.81,0,0,1-3.61,0V29.78h.94v2.6a.87.87,0,1,0,1.73,0v-2.6h.94Z"/>
      <path id="Trazado_20103" data-name="Trazado 20103" d="M57.57,29.78H59l1,2.8h0l1-2.8h1.43v4.29h-1V30.78h0L60.3,34.07h-.72L58.5,30.78h0v3.29h-.94Z"/>
    </g>
  </g>
</svg>
