<svg id="Grupo_17729" data-name="Grupo 17729" xmlns="http://www.w3.org/2000/svg" width="27.272" height="27.417" viewBox="0 0 27.272 27.417">
  <path id="Trazado_25294" data-name="Trazado 25294" d="M35.612,23.417A13.622,13.622,0,0,0,22.339,12.909a19.235,19.235,0,0,0-2.606.267A13.585,13.585,0,0,0,10.421,33a.886.886,0,0,1,.117.673C9.908,35.762,9.321,37.9,8.755,40c-.085.363-.085.363.256.278,2.211-.609,4.389-1.175,6.6-1.719a.575.575,0,0,1,.481.032A13.614,13.614,0,0,0,35.612,23.417ZM24.25,37.673a6.654,6.654,0,0,1-1.57.128,11.826,11.826,0,0,1-6.14-1.57.7.7,0,0,0-.694-.107c-1.228.288-2.424.63-3.642.94-.256.075-.278.021-.224-.224.32-1.121.63-2.264.982-3.439a.85.85,0,0,0-.139-.8,11.25,11.25,0,0,1,.4-12.687,10.768,10.768,0,0,1,11.512-4.432,10.657,10.657,0,0,1,8.639,8.586A11.222,11.222,0,0,1,24.25,37.673Z" transform="translate(-8.708 -12.909)" fill="#1c1c1c" fill-rule="evenodd"/>
  <path id="Trazado_25295" data-name="Trazado 25295" d="M19.774,26.4a3.542,3.542,0,0,1-1.41-.182,13.8,13.8,0,0,1-7.358-5.4A7.7,7.7,0,0,1,9.427,17.6a3.69,3.69,0,0,1,1.217-3.631,2.049,2.049,0,0,1,1.815-.267,1.388,1.388,0,0,1,.31.352c.384.972.79,1.869,1.185,2.787a.774.774,0,0,1-.053.577,5.781,5.781,0,0,1-.844,1.132.5.5,0,0,0-.075.737,9.048,9.048,0,0,0,4.645,3.994.529.529,0,0,0,.694-.16c.352-.406.694-.854,1.014-1.281a.574.574,0,0,1,.758-.171c.673.288,1.324.6,1.965.9.171.1.3.15.459.224.673.331.673.374.587,1.1-.085,1.42-1.175,2.136-2.424,2.488A2.18,2.18,0,0,1,19.774,26.4Z" transform="translate(-2.587 -6.312)" fill="#1c1c1c" fill-rule="evenodd"/>
</svg>
