<svg xmlns="http://www.w3.org/2000/svg" xmlns:xlink="http://www.w3.org/1999/xlink" width="496" height="66" viewBox="0 0 496 66"><defs><style>.a{fill:none;}.b{fill:url(#a);}.c{fill:#fff;}.d{clip-path:url(#b);}.e{clip-path:url(#c);}</style><linearGradient id="a" x1="0.005" y1="-0.38" x2="1.082" y2="1" gradientUnits="objectBoundingBox"><stop offset="0" stop-color="#db0317"/><stop offset="1" stop-color="#981960"/></linearGradient><clipPath id="b"><rect class="a" width="69.27" height="15.278"/></clipPath><clipPath id="c"><rect class="a" width="52.931" height="17.372"/></clipPath></defs><g transform="translate(-693 -539)"><path class="b" d="M0,0H496a0,0,0,0,1,0,0V56a10,10,0,0,1-10,10H10A10,10,0,0,1,0,56V0A0,0,0,0,1,0,0Z" transform="translate(693 539)"/><g transform="translate(609 165)"><circle class="c" cx="2.5" cy="2.5" r="2.5" transform="translate(341 404.541)"/><circle class="c" cx="2.5" cy="2.5" r="2.5" transform="translate(400 404.541)"/><g transform="translate(190 399.241)"><g class="d" transform="translate(0 0)"><path class="c" d="M194.48,68.623c-.328.461-.609.6-.859.6s-.437-.281-.4-.695a9.123,9.123,0,0,1,1.5-3.544c.375-.523.64-.742.921-.742s.375.242.367.539a9.566,9.566,0,0,1-1.53,3.849m-14.614.18c-.211,0-.351-.07-.359-.343a6.507,6.507,0,0,1,1.351-3.013,2.6,2.6,0,0,1,1.928-1.226l-.929,2.069h0c-.695,1.585-1.421,2.514-2,2.514m-9.087,0c-.211,0-.351-.07-.359-.343a6.507,6.507,0,0,1,1.351-3.013,2.6,2.6,0,0,1,1.928-1.226l-.929,2.069c-.687,1.561-1.444,2.514-2,2.514M212.248,61.8H210.8l-.336.765-.57,1.28H209.2l-.2.437h.7l-.843,1.881c-.6,1.327-1.561,2.631-2.108,2.631-.117,0-.187-.055-.187-.172a1.505,1.505,0,0,1,.172-.57c.141-.336.453-.984.664-1.405a6.853,6.853,0,0,0,.789-2.061.819.819,0,0,0-.906-.851,2.831,2.831,0,0,0-1.835.991l.359-.882h-1.374L203.31,66.39c-.445.906-1.366,2.4-1.928,2.4-.117,0-.164-.07-.164-.187a.968.968,0,0,1,.078-.312l.718-1.671,1.21-2.787h-1.475l-1.179,2.709c-.367.835-1.288,2.256-1.881,2.256a.187.187,0,0,1-.2-.211,2.019,2.019,0,0,1,.2-.609l.617-1.358h0l1.28-2.787H199.11l-.289.632h0a1.419,1.419,0,0,1-1.163.921.506.506,0,0,1-.476-.219,1.449,1.449,0,0,0-1.554-1.436,3.167,3.167,0,0,0-2.654,1.593,7.47,7.47,0,0,0-.867,1.944c-.523.859-1.077,1.53-1.5,1.53-.109,0-.18-.062-.18-.211a2.121,2.121,0,0,1,.2-.593l.945-2.045a4.08,4.08,0,0,0,.453-1.46.751.751,0,0,0-.8-.757,2.876,2.876,0,0,0-2.038,1.062,1.583,1.583,0,0,0,.031-.32.657.657,0,0,0-.749-.742A2.61,2.61,0,0,0,186.58,64.8l.39-.952h-1.351l-1.132,2.545c-.539,1.2-1.4,2.4-1.889,2.4-.117,0-.18-.062-.18-.2a5.971,5.971,0,0,1,.351-1.031l1.491-3.4c.109-.25-.609-.414-1.515-.414a4.354,4.354,0,0,0-2.6,1.054,2.324,2.324,0,0,1-1.054.617c-.2,0-.133-.047-.133-.109,0-.211.5-.8.5-1.233,0-.2-.109-.336-.39-.336a2.655,2.655,0,0,0-1.632,1.046l.4-.937h-1.3L175.408,66.4c-.539,1.2-1.421,2.451-1.913,2.451-.117,0-.18-.062-.18-.2a5.823,5.823,0,0,1,.375-1.085l1.491-3.4c.109-.25-.609-.414-1.522-.414a4.579,4.579,0,0,0-3.365,1.842,5.743,5.743,0,0,0-1.3,2.959,1,1,0,0,0,1.085,1.14,2.776,2.776,0,0,0,1.858-1.132,2.72,2.72,0,0,0-.047.289c0,.492.2.843.788.843a2.526,2.526,0,0,0,1.78-1.14l-.453,1.038h1.429l1.4-3.17c.453-1.031.984-1.569,1.124-1.569s.062.023.062.062a2.234,2.234,0,0,0-.211.671c0,.273.148.468.531.468a1.715,1.715,0,0,0,.952-.336,5.413,5.413,0,0,0-1.21,2.842,1,1,0,0,0,1.085,1.14,2.908,2.908,0,0,0,1.874-1.21,2.465,2.465,0,0,0-.031.336.793.793,0,0,0,.82.874,2.4,2.4,0,0,0,1.7-1.116L183.09,69.6h1.46l1.335-3.029c.586-1.319,1.374-2.014,1.764-2.014a.18.18,0,0,1,.2.2,1.257,1.257,0,0,1-.117.429L185.775,69.6h1.491l1.366-3.084c.586-1.319,1.233-1.975,1.717-1.975.148,0,.211.078.211.234a1.055,1.055,0,0,1-.141.484l-1.312,2.795a2.319,2.319,0,0,0-.211.851.769.769,0,0,0,.882.8c.851,0,1.5-.64,2.225-1.608v.2a1.438,1.438,0,0,0,1.616,1.429,3.5,3.5,0,0,0,3.076-2.4,5.259,5.259,0,0,0,.476-1.647,1.054,1.054,0,0,0,.476.1,1.358,1.358,0,0,0,.632-.156l-.234.507c-.265.562-.57,1.187-.789,1.7a2.778,2.778,0,0,0-.258.984.816.816,0,0,0,.882.9,2.993,2.993,0,0,0,1.991-1.351h.016a2.987,2.987,0,0,0-.062.5c0,.429.133.851.742.851a2.721,2.721,0,0,0,1.788-1.148L201.9,69.6h1.475l1.179-2.67c.664-1.507,1.335-2.412,1.96-2.412a.193.193,0,0,1,.2.219,7.6,7.6,0,0,1-.695,1.647c-.336.7-.531,1.116-.695,1.5a2.765,2.765,0,0,0-.258,1.007.756.756,0,0,0,.827.82,3.215,3.215,0,0,0,2.178-1.452,2.975,2.975,0,0,0-.172.929,1.157,1.157,0,0,0,1.234,1.28,2.287,2.287,0,0,0,1.327-.445,6.111,6.111,0,0,0,1.39-1.515l-.25-.242a5.728,5.728,0,0,1-1.14,1.273,1.273,1.273,0,0,1-.757.3.487.487,0,0,1-.5-.554,4.938,4.938,0,0,1,.461-1.616l.789-1.788.695-1.577h.96l.2-.437h-.96Z" transform="translate(-155.805 -56.975)"/><path class="c" d="M11.238,8.338A9.213,9.213,0,0,0,12.862,8c1.92-.539,4.091-1.819,4.091-4.106,0-2.631-2.779-3.9-6.1-3.9C7.319,0,4.071,1.569,2.869,4A4.676,4.676,0,0,0,2.377,6.1a3.171,3.171,0,0,0,.492,1.78A3.119,3.119,0,0,0,5.632,9.111c1.639,0,2.943-.906,2.943-2.467a.427.427,0,0,0-.484-.437c-.507,0-.523.281-.515.429A1.93,1.93,0,0,1,5.609,8.845C4.157,8.845,3.54,7.6,3.54,6.277A5.8,5.8,0,0,1,7.709.991,8.338,8.338,0,0,1,10.816.453c2.4,0,4.372.929,4.372,3.4A4.1,4.1,0,0,1,11.37,7.838l.086-.289a15.366,15.366,0,0,1,1.8-4.419c.047-.078.141-.2.234-.32l-.117-.148a6.394,6.394,0,0,0-.531.375C8.849,6.16,8.724,14.911,3.415,14.911a3.381,3.381,0,0,1-.539-.039,1.853,1.853,0,0,1-1.686-1.96c0-.2.07-.484.07-.648a.6.6,0,0,0-.578-.546c-.4,0-.679.367-.687.906-.023,1.561,1.116,2.459,2.873,2.623q.289.023.6.023c4.145,0,6.7-3.138,7.768-6.94" transform="translate(0.004 0)"/><path class="c" d="M734.9,55.328l1.2-2.584h4.052l1.889-4.044h2.592l-1.889,4.044H746.8l-1.2,2.584h-4.052l-1.9,4.067h-2.592l1.9-4.067Z" transform="translate(-677.527 -44.898)"/></g></g><g transform="translate(280.582 398)"><g class="e" transform="translate(0 0)"><path class="c" d="M14.175,8.6a1.2,1.2,0,1,0-1.2,1.2,1.2,1.2,0,0,0,1.2-1.2m2.88.033a4.08,4.08,0,1,1-4.08-4.08,4.08,4.08,0,0,1,4.08,4.08M4.1,4.546A4.1,4.1,0,0,0,0,8.644v3.944H3.381v-4.2H4.815v4.2H8.193V8.644a4.1,4.1,0,0,0-4.1-4.1M23.063,8.6a1.2,1.2,0,1,0-1.2,1.2,1.2,1.2,0,0,0,1.2-1.2m3.008,4.984a4.124,4.124,0,0,1-8.24-.165h2.924a1.208,1.208,0,0,0,1.16,1.222,1.131,1.131,0,0,0,1.149-1.193,1.066,1.066,0,0,0-.417-.834,3.933,3.933,0,0,1-.867.091,4.078,4.078,0,0,1,0-8.156,4.351,4.351,0,0,1,1.636.34,1.271,1.271,0,0,1,2.444.6V8.626a3.282,3.282,0,0,1-.878,2.323,3.5,3.5,0,0,1,1.094,2.631M31.954,8.6a1.2,1.2,0,1,0-1.2,1.2,1.2,1.2,0,0,0,1.2-1.2m3.008,4.984a4.122,4.122,0,0,1-8.236-.165h2.924a1.208,1.208,0,0,0,1.16,1.222,1.131,1.131,0,0,0,1.149-1.193,1.066,1.066,0,0,0-.417-.834,3.933,3.933,0,0,1-.867.091,4.078,4.078,0,1,1,0-8.156,4.351,4.351,0,0,1,1.636.34,1.271,1.271,0,0,1,2.444.6V8.626a3.282,3.282,0,0,1-.878,2.323,3.5,3.5,0,0,1,1.094,2.631m9.2-9.038a4.1,4.1,0,0,0-4.1,4.1v3.948h3.381v-4.2h1.434v4.2h3.377V8.644a4.1,4.1,0,0,0-4.1-4.1m-6.744-.765a1.84,1.84,0,1,0-1.84-1.84,1.84,1.84,0,0,0,1.84,1.84m-1.738,8.811V6.236a1.69,1.69,0,1,1,3.381,0v6.356Z" transform="translate(0 -0.096)"/><path class="c" d="M997.8,422.8h.194c.3,0,.585.077.585.439a.341.341,0,0,1-.172.3h0a.411.411,0,0,1,.318.4c0,.318-.274.446-.556.446H997.8Zm.2.706h.051c.187,0,.344-.037.344-.267s-.154-.263-.34-.263H998Zm0,.71h.154c.183,0,.377-.055.377-.282s-.227-.271-.406-.271H998Z" transform="translate(-961.29 -407.33)"/><path class="c" d="M1024.6,422.8h.23l.392.681.392-.681h.227l-.52.9v.7h-.2v-.7Z" transform="translate(-987.11 -407.33)"/><path class="c" d="M1312.822,379.278a.439.439,0,1,0-.439-.439.439.439,0,0,0,.439.439m.443,1.573a.8.8,0,0,1-.9.893h-.026a1.189,1.189,0,0,1-.6-.15.513.513,0,0,1-.249-.71.417.417,0,0,1,.772.146c.029.157.113.139.113-.007V379.94a.465.465,0,0,1,.443-.52.443.443,0,0,1,.443.443Z" transform="translate(-1263.444 -364.554)"/><path class="c" d="M1368.486,408.28v-1.2a.317.317,0,0,1,.154-.271c.1-.04.194.007.308.048a.483.483,0,0,0,.7-.285.443.443,0,0,0-.355-.516.864.864,0,0,0-.746.223h0l-.081.066a.443.443,0,0,0-.867.135v1.8Z" transform="translate(-1317.556 -391.174)"/><path class="c" d="M1401.039,444.978a.439.439,0,1,0-.439-.439.439.439,0,0,0,.439.439" transform="translate(-1349.352 -427.85)"/><path class="c" d="M1087.571,406.2a1.171,1.171,0,0,0-1.171,1.171v1.068h.889v-1.054a.623.623,0,0,1,.084-.322.239.239,0,0,1,.2-.132.246.246,0,0,1,.2.132.619.619,0,0,1,.084.322v1.05h.889v-1.068a1.171,1.171,0,0,0-1.171-1.171" transform="translate(-1046.649 -391.337)"/><path class="c" d="M1154.294,376.2a.494.494,0,1,0-.7,0l.11.11c.183.183.194.23.022.4l-.1.1a.446.446,0,0,0-.132.318v1.6h.9v-1.6a.446.446,0,0,0-.132-.318l-.1-.1c-.172-.172-.161-.219.022-.4Z" transform="translate(-1111.245 -361.624)"/><path class="c" d="M1183.912,407.94a.244.244,0,0,1-.2.154c-.081,0-.146-.059-.2-.154a.882.882,0,0,1,0-.743.244.244,0,0,1,.2-.154.254.254,0,0,1,.2.154.737.737,0,0,1,.077.263h.889a1.171,1.171,0,1,0,0,.22h-.889a.738.738,0,0,1-.077.263" transform="translate(-1139.272 -391.529)"/><path class="c" d="M1251.928,408.018a.151.151,0,0,0-.022-.08l-.487-.736.337-.611a.444.444,0,1,0-.765-.45l-.4.721v-.483a.445.445,0,0,0-.889,0v1.8h.889v-.7l.468.7h.717a.154.154,0,0,0,.154-.154" transform="translate(-1203.973 -391.07)"/><path class="c" d="M1430.091,410.051H1430V410h.234v.047h-.088v.253h-.055Zm.209-.051h.008l.146.161.143-.161h.007v.3h-.054v-.187l-.1.11h-.011l-.095-.11v.187h-.055Z" transform="translate(-1377.676 -394.998)"/></g></g><circle class="c" cx="2.5" cy="2.5" r="2.5" transform="translate(267 404.541)"/><g transform="translate(353.792 398)"><path class="c" d="M92.957,66.378a.9.9,0,0,0-.947.973,1.035,1.035,0,0,0,1.032,1.091,1.019,1.019,0,0,0,1.082-1.04A1.073,1.073,0,0,0,92.957,66.378Z" transform="translate(-79.944 -57.672)"/><path class="c" d="M39.759,54.6c-.186-.8-.625-1.138-1.243-1-.715.161-.991.656-.838,1.529Z" transform="translate(-32.702 -46.541)"/><path class="c" d="M248.881,58.766c-.721-.131-1.168.228-1.361,1.09l2.124.311C249.779,59.357,249.505,58.876,248.881,58.766Z" transform="translate(-215.063 -51.035)"/><path class="c" d="M37.463,8.182a4.866,4.866,0,0,0-1.209-2.21A5.294,5.294,0,0,0,31.3,4.584a5.012,5.012,0,0,0-.641.17l-1.819-.442-.64-.131c-.906-.177-1.764-.344-2.634-.5a1.7,1.7,0,0,0-1.478.477,1.836,1.836,0,0,0-1.567-.442c-.695.118-1.382.231-2.1.349q.029-.869.055-1.74c0-.165.007-.321.008-.486V1.611L20.5.221S16.716-.043,15.92-.015a2.25,2.25,0,0,0-1.7.6,2.293,2.293,0,0,0-.553,1.7c-.012.467-.018.927-.024,1.393a4.878,4.878,0,0,0-1.467.153A5.114,5.114,0,0,0,9.312,5.784c-.029.038-.055.077-.083.117a4.844,4.844,0,0,0-1.8-1.389,5.3,5.3,0,0,0-5.114.582A4.983,4.983,0,0,0,.6,7,5.5,5.5,0,0,0,.009,9.276,6.535,6.535,0,0,0,.5,12.057a5.539,5.539,0,0,0,1.617,2.229,4.777,4.777,0,0,0,2.185.962,6.132,6.132,0,0,0,1.071.093,7.071,7.071,0,0,0,1.162-.1,6.576,6.576,0,0,0,3.6-1.786l.046.039a4.721,4.721,0,0,0,3.058,1.111c.1,0,.2,0,.3-.009a6,6,0,0,0,1.111-.185,2.646,2.646,0,0,0,1.41.358h2.107a1.992,1.992,0,0,0,1.2-.365c-.058.131-.115.262-.174.393l-.569,1.268,1.189.717A11.492,11.492,0,0,0,22.923,18.1a3.26,3.26,0,0,0,.826.131,1.773,1.773,0,0,0,.746-.161,2.091,2.091,0,0,0,1.049-1.231q.306-.692.608-1.386c.424-.965.852-1.945,1.284-2.929a4.814,4.814,0,0,0,1.428,1.836A6.2,6.2,0,0,0,32.7,15.666q.275,0,.551-.024a5.343,5.343,0,0,0,2.515-.725A3.1,3.1,0,0,0,36.9,13.132a3.784,3.784,0,0,0,.131-1.467,2.229,2.229,0,0,0,.417-.862A5.555,5.555,0,0,0,37.463,8.182Zm-1.532,2.3c-.076.309-.623.476-1.292.488a3.683,3.683,0,0,1-2.427-.737,1.738,1.738,0,0,0-.223-.189c-.06-.038-.11-.035-.131.072a1.087,1.087,0,0,0,.787,1.285,4.407,4.407,0,0,0,2.057.27,4.8,4.8,0,0,0,.49-.069c.584-.119.227,1.7-.306,2.046a4,4,0,0,1-1.781.452,4.685,4.685,0,0,1-3.278-.989,3.759,3.759,0,0,1-1.2-3.672,4.507,4.507,0,0,1,1.138-2.326c.05-.051.1-.1.155-.148a3.5,3.5,0,0,1,1.713-.854C34.62,5.552,36.587,7.78,35.931,10.482ZM27.487,8.494q-.239.553-.479,1.1-1.442,3.311-2.894,6.614c-.228.525-.233.525-.805.372a9.989,9.989,0,0,1-2.7-1.141c.378-.834.732-1.647,1.113-2.447a1.162,1.162,0,0,0,.007-1q-.315-.858-.616-1.722c-.278-.787-.549-1.581-.821-2.375q-.233-.686-.471-1.374c-.038-.114-.077-.229-.117-.344A1.311,1.311,0,0,1,19.59,5.8c.237-.038.543-.1.776-.131.82-.131,1.618-.262,2.415-.393.243-.041.312.1.358.287l.278,1.157.393,1.618v.021c.029.119.058.237.114.477l.252-.767.146-.442c.076-.226.151-.452.226-.678.161-.489.324-.978.5-1.463.035-.1.18-.262.248-.247,1.06.186,2.115.393,3.249.618-.069.176-.131.349-.2.518-.028.069-.054.131-.08.206-.148.382-.292.751-.437,1.112C27.714,7.954,27.6,8.226,27.487,8.494Zm-8.9,4.235c-.01.344-.093.493-.459.483-.684-.018-1.369,0-2.053,0-.439,0-.851-.075-.734-.6a11.537,11.537,0,0,1-1.9.43,3.327,3.327,0,0,1-3.449-2.794c-.009-.039-.018-.08-.025-.121A6.017,6.017,0,0,1,9.859,9.1a3.851,3.851,0,0,1,.721-2.4A3.4,3.4,0,0,1,15,5.695a1.26,1.26,0,0,0,.174.062c.013-1.171.017-2.295.043-3.417.018-.744.031-.757.758-.787.753-.029,1.507-.035,2.261-.035a5.615,5.615,0,0,1,.681.084c0,.252,0,.468-.009.686L18.773,6.7q-.087,2.7-.164,5.393c-.007.218-.013.424-.018.636ZM9.07,12.112a3.974,3.974,0,0,1-1.47,1.1,4.68,4.68,0,0,1-3.409.351c-2.221-.636-3.151-3.483-2.352-5.519A3.5,3.5,0,0,1,3.175,6.4c2.541-1.663,5.219-.366,5.648,2.383a.393.393,0,0,1-.052.245A3.666,3.666,0,0,1,5.3,9.987,1.566,1.566,0,0,0,5.016,9.9c-.069-.012-.114.009-.1.119a1.08,1.08,0,0,0,1.217.885,4.59,4.59,0,0,0,2.43-.8c.3-.2.547.371.623.974A1.691,1.691,0,0,1,9.07,12.112Z" transform="translate(-0.002 0.017)"/></g><g transform="translate(412.112 400.482)"><g transform="translate(0)"><path class="c" d="M1154.049,1047.9c0-.762-.01-1.524,0-2.285a3.12,3.12,0,0,1,.112-.887,1.064,1.064,0,0,1,1.21-.81,1.044,1.044,0,0,1,1.018,1.036c.04.574.025,1.153.019,1.73,0,.355.1.423.458.31a3.573,3.573,0,0,1,4.316,1.192,4.145,4.145,0,0,1-.071,4.913,3.945,3.945,0,0,1-4.565,1.185,4.011,4.011,0,0,1-2.5-3.961c-.026-.807,0-1.615,0-2.423Zm2.357,2.74a1.587,1.587,0,0,0,1.653,1.714,1.724,1.724,0,0,0-.013-3.439A1.586,1.586,0,0,0,1156.406,1050.645Z" transform="translate(-1136.815 -1043.608)"/><path class="c" d="M1029.68,1048.01c0-.991-.01-1.982,0-2.973a1.1,1.1,0,0,1,1.057-1.213,1.126,1.126,0,0,1,1.25,1.026,9.312,9.312,0,0,1,.065,1.515c-.006.469.12.592.613.449a3.611,3.611,0,0,1,4.731,2.681,3.95,3.95,0,1,1-7.65,1.965,10.857,10.857,0,0,1-.069-2.068C1029.671,1048.932,1029.679,1048.471,1029.68,1048.01Zm3.9.837a1.621,1.621,0,0,0-1.616,1.707,1.625,1.625,0,1,0,1.616-1.707Z" transform="translate(-1029.666 -1043.527)"/><path class="c" d="M1099.9,1069.229a12.848,12.848,0,0,1-.011,1.518,1.146,1.146,0,0,1-1.825.9.835.835,0,0,0-.828-.055,3.64,3.64,0,0,1-5.019-2.342,3.948,3.948,0,0,1,2.7-5.068,3.9,3.9,0,0,1,4.912,3.117A9.7,9.7,0,0,1,1099.9,1069.229Zm-5.519-1.267a1.6,1.6,0,1,0,1.588-1.694A1.535,1.535,0,0,0,1094.376,1067.962Z" transform="translate(-1083.392 -1060.956)"/><path class="c" d="M1216.577,1067.9c.534-1.176.985-2.23,1.489-3.259a1.118,1.118,0,0,1,1.886-.344,1.2,1.2,0,0,1,.108,1.476c-.646,1.453-1.3,2.9-1.947,4.356q-.8,1.8-1.6,3.6c-.2.458-.454.861-1.036.886a1.127,1.127,0,0,1-1.154-1.575,14.217,14.217,0,0,1,.786-1.768,1.347,1.347,0,0,0-.017-1.426c-.656-1.165-1.267-2.354-1.895-3.535-.119-.224-.245-.446-.343-.679a1.129,1.129,0,0,1,.5-1.59,1.1,1.1,0,0,1,1.5.581c.477.868.917,1.757,1.374,2.637C1216.309,1067.426,1216.4,1067.583,1216.577,1067.9Z" transform="translate(-1187.361 -1060.843)"/><path class="c" d="M1393.006,1071.8a3.759,3.759,0,0,1-2.321-.86,1.126,1.126,0,0,1-.274-1.594,1.071,1.071,0,0,1,1.538-.193,2.081,2.081,0,0,0,1.5.39c.14-.022.3-.051.332-.2.05-.211-.125-.283-.281-.324-.4-.1-.809-.183-1.211-.287a2.4,2.4,0,0,1-2.01-2.386,2.487,2.487,0,0,1,2.073-2.354,3.786,3.786,0,0,1,3.1.61,1.115,1.115,0,0,1,.406,1.513,1.049,1.049,0,0,1-1.5.371,2.332,2.332,0,0,0-1.312-.363c-.158.018-.362.01-.391.208s.168.252.322.291c.447.114.9.2,1.344.328a2.264,2.264,0,0,1,1.833,2.218,2.457,2.457,0,0,1-1.815,2.416A4.212,4.212,0,0,1,1393.006,1071.8Z" transform="translate(-1340.252 -1060.807)"/><path class="c" d="M1273.857,1049.439c0-.461-.02-.922,0-1.382.031-.593,0-1.058-.663-1.4a.959.959,0,0,1,.113-1.7,1.348,1.348,0,0,0,.7-.938,3.105,3.105,0,0,1,3.209-2.311,1.088,1.088,0,0,1,.231,2.156c-.324.1-.709.051-.946.358a.6.6,0,0,0-.147.368c.015.164.194.161.331.174a3.067,3.067,0,0,1,.479.052,1.021,1.021,0,0,1,.86,1.095.929.929,0,0,1-.974.966c-.709-.014-.842.305-.821.923.038,1.128.019,2.258.007,3.386-.01.912-.477,1.463-1.212,1.468-.7.005-1.165-.578-1.172-1.49C1273.854,1050.591,1273.857,1050.015,1273.857,1049.439Z" transform="translate(-1239.068 -1041.706)"/><path class="c" d="M1442.024,1057.154a2.771,2.771,0,0,1-2.738-2.367,16.384,16.384,0,0,1-.1-2.691.783.783,0,0,0-.464-.817,1.024,1.024,0,0,1,0-1.9.811.811,0,0,0,.464-.83,2.842,2.842,0,0,1,.072-.684,1.149,1.149,0,0,1,1.247-.955,1.1,1.1,0,0,1,1.043,1.1,2.571,2.571,0,0,1,.009.483c-.046.494.1.754.663.8a1.043,1.043,0,0,1-.067,2.082c-.447.014-.612.194-.6.633.022.668.01,1.337.006,2.005a.673.673,0,0,0,.659.791c.845.114,1.265.568,1.22,1.217A1.315,1.315,0,0,1,1442.024,1057.154Z" transform="translate(-1381.507 -1046.18)"/><path class="c" d="M1344.831,1067.857c0-.853-.011-1.706,0-2.558.016-.991.687-1.509,1.605-1.177a1.633,1.633,0,0,0,1.188-.027,2.827,2.827,0,0,1,2.283.116,1,1,0,0,1,.6,1.191.929.929,0,0,1-1.072.761c-.368-.014-.738-.032-1.106-.018-.863.033-1.208.369-1.229,1.243-.024,1.014,0,2.029-.013,3.042-.009.889-.41,1.355-1.131,1.346s-1.12-.489-1.13-1.36C1344.824,1069.563,1344.831,1068.71,1344.831,1067.857Z" transform="translate(-1301.173 -1060.834)"/><path class="c" d="M1320.008,1068.008c0,.9.015,1.8,0,2.692a1.134,1.134,0,1,1-2.261,0q-.024-2.726,0-5.454a1.088,1.088,0,0,1,1.086-1.174,1.1,1.1,0,0,1,1.172,1.171C1320.025,1066.166,1320.007,1067.087,1320.008,1068.008Z" transform="translate(-1277.83 -1060.977)"/><path class="c" d="M1320.095,1042.954a1.124,1.124,0,0,1-2.246.075,1.086,1.086,0,0,1,1.077-1.174A1.118,1.118,0,0,1,1320.095,1042.954Z" transform="translate(-1277.93 -1041.834)"/></g></g></g></g></svg>