<svg xmlns="http://www.w3.org/2000/svg" xmlns:xlink="http://www.w3.org/1999/xlink" width="496" height="66" viewBox="0 0 496 66">
  <defs>
    <linearGradient id="linear-gradient" x1="0.767" y1="0.348" x2="0.767" y2="1.328" gradientUnits="objectBoundingBox">
      <stop offset="0" stop-color="#d60017"/>
      <stop offset="1" stop-color="#8e1855"/>
    </linearGradient>
    <clipPath id="clip-path">
      <rect id="Rectángulo_3442" data-name="Rectángulo 3442" width="75.165" height="16.578" fill="none"/>
    </clipPath>
    <clipPath id="clip-path-2">
      <rect id="Rectángulo_3441" data-name="Rectángulo 3441" width="57.436" height="18.85" fill="none"/>
    </clipPath>
  </defs>
  <g id="Grupo_17564" data-name="Grupo 17564" transform="translate(-191 -405)">
    <path id="Rectángulo_9342" data-name="Rectángulo 9342" d="M0,0H496a0,0,0,0,1,0,0V56a10,10,0,0,1-10,10H10A10,10,0,0,1,0,56V0A0,0,0,0,1,0,0Z" transform="translate(191 405)" fill="url(#linear-gradient)"/>
    <g id="Grupo_17547" data-name="Grupo 17547">
      <g id="Grupo_17546" data-name="Grupo 17546">
        <g id="Paramount_plus_Negro" transform="translate(402 413)">
          <g id="Grupo_5274" data-name="Grupo 5274" transform="translate(0 0)" clip-path="url(#clip-path)">
            <path id="Trazado_6809" data-name="Trazado 6809" d="M196.649,69.2c-.356.5-.661.652-.932.652s-.474-.3-.432-.754a9.9,9.9,0,0,1,1.626-3.846c.407-.568.695-.8,1-.8s.407.263.4.585a10.38,10.38,0,0,1-1.66,4.176m-15.858.195c-.229,0-.381-.076-.39-.373a7.061,7.061,0,0,1,1.465-3.27,2.822,2.822,0,0,1,2.092-1.33l-1.008,2.245h0c-.754,1.72-1.542,2.728-2.169,2.728m-9.861,0c-.229,0-.381-.076-.39-.373A7.061,7.061,0,0,1,172,65.765a2.822,2.822,0,0,1,2.092-1.33l-1.008,2.245c-.745,1.694-1.567,2.728-2.169,2.728M215.929,61.8h-1.576l-.364.83-.618,1.389h-.745l-.22.474h.762l-.915,2.042c-.652,1.44-1.694,2.855-2.287,2.855-.127,0-.2-.059-.2-.186a1.633,1.633,0,0,1,.186-.618c.153-.364.491-1.067.72-1.525a7.436,7.436,0,0,0,.856-2.236.889.889,0,0,0-.983-.923,3.072,3.072,0,0,0-1.991,1.076l.39-.957h-1.491l-1.22,2.762c-.483.983-1.482,2.609-2.092,2.609-.127,0-.178-.076-.178-.2a1.05,1.05,0,0,1,.085-.339l.779-1.813,1.313-3.024h-1.6l-1.279,2.94c-.4.906-1.4,2.448-2.042,2.448a.2.2,0,0,1-.22-.229,2.191,2.191,0,0,1,.212-.661l.669-1.474h0l1.389-3.024h-1.593l-.313.686h0a1.54,1.54,0,0,1-1.262,1,.549.549,0,0,1-.517-.237,1.572,1.572,0,0,0-1.686-1.559,3.437,3.437,0,0,0-2.88,1.728,8.106,8.106,0,0,0-.94,2.109c-.568.932-1.169,1.66-1.626,1.66-.119,0-.195-.068-.195-.229a2.3,2.3,0,0,1,.212-.644l1.025-2.219a4.428,4.428,0,0,0,.491-1.584.815.815,0,0,0-.873-.822,3.121,3.121,0,0,0-2.211,1.152,1.719,1.719,0,0,0,.034-.347.713.713,0,0,0-.813-.8,2.832,2.832,0,0,0-2.042,1.152l.424-1.033h-1.466l-1.228,2.762c-.584,1.3-1.516,2.609-2.05,2.609-.127,0-.195-.068-.195-.22a6.48,6.48,0,0,1,.381-1.118l1.618-3.685c.119-.271-.661-.449-1.643-.449a4.725,4.725,0,0,0-2.821,1.144,2.521,2.521,0,0,1-1.144.669c-.212,0-.144-.051-.144-.119,0-.229.542-.864.542-1.338,0-.22-.119-.364-.424-.364a2.881,2.881,0,0,0-1.771,1.135l.432-1.017h-1.415l-1.22,2.762c-.585,1.3-1.542,2.66-2.075,2.66-.127,0-.195-.068-.195-.22a6.317,6.317,0,0,1,.407-1.178l1.618-3.685c.119-.271-.661-.449-1.652-.449a4.969,4.969,0,0,0-3.651,2A6.232,6.232,0,0,0,169,69.128a1.085,1.085,0,0,0,1.177,1.237,3.012,3.012,0,0,0,2.016-1.228,2.954,2.954,0,0,0-.051.313c0,.534.212.915.856.915a2.741,2.741,0,0,0,1.931-1.237l-.491,1.127h1.55l1.516-3.439c.491-1.118,1.067-1.7,1.22-1.7s.068.025.068.068a2.424,2.424,0,0,0-.229.729c0,.3.161.508.576.508a1.861,1.861,0,0,0,1.033-.364,5.874,5.874,0,0,0-1.313,3.084,1.085,1.085,0,0,0,1.178,1.237,3.155,3.155,0,0,0,2.033-1.313,2.676,2.676,0,0,0-.034.364.86.86,0,0,0,.889.949,2.607,2.607,0,0,0,1.847-1.211l-.483,1.1h1.584l1.449-3.287c.635-1.432,1.491-2.186,1.915-2.186a.195.195,0,0,1,.212.212,1.363,1.363,0,0,1-.127.466L187.2,70.263h1.618l1.482-3.346c.635-1.432,1.338-2.143,1.864-2.143.161,0,.229.085.229.254a1.145,1.145,0,0,1-.153.525l-1.423,3.033a2.515,2.515,0,0,0-.229.923.835.835,0,0,0,.957.873c.923,0,1.626-.695,2.414-1.745v.212a1.56,1.56,0,0,0,1.754,1.55,3.8,3.8,0,0,0,3.338-2.6,5.706,5.706,0,0,0,.517-1.787,1.144,1.144,0,0,0,.517.11,1.474,1.474,0,0,0,.686-.169l-.254.551c-.288.61-.618,1.288-.856,1.847a3.014,3.014,0,0,0-.28,1.067.886.886,0,0,0,.957.974,3.248,3.248,0,0,0,2.16-1.466h.017a3.24,3.24,0,0,0-.068.542c0,.466.144.923.8.923a2.953,2.953,0,0,0,1.94-1.245l-.491,1.118h1.6l1.279-2.9c.72-1.635,1.449-2.618,2.126-2.618a.21.21,0,0,1,.22.237,8.245,8.245,0,0,1-.754,1.787c-.364.762-.576,1.211-.754,1.626a3,3,0,0,0-.28,1.093.821.821,0,0,0,.9.889,3.488,3.488,0,0,0,2.363-1.576,3.229,3.229,0,0,0-.186,1.008,1.256,1.256,0,0,0,1.338,1.389A2.482,2.482,0,0,0,214,70.72a6.631,6.631,0,0,0,1.508-1.643l-.271-.263A6.215,6.215,0,0,1,214,70.195a1.381,1.381,0,0,1-.822.322.529.529,0,0,1-.542-.6,5.358,5.358,0,0,1,.5-1.754l.856-1.94.754-1.711h1.042l.212-.474h-1.042Z" transform="translate(-154.682 -56.565)" fill="#fff"/>
            <path id="Trazado_6810" data-name="Trazado 6810" d="M12.194,9.047a10,10,0,0,0,1.762-.364C16.04,8.1,18.4,6.709,18.4,4.227,18.4,1.372,15.38,0,11.779,0,7.942,0,4.418,1.7,3.113,4.346a5.074,5.074,0,0,0-.534,2.27,3.44,3.44,0,0,0,.534,1.931,3.385,3.385,0,0,0,3,1.338c1.779,0,3.194-.983,3.194-2.677a.463.463,0,0,0-.525-.474c-.551,0-.568.3-.559.466A2.094,2.094,0,0,1,6.087,9.6c-1.576,0-2.245-1.347-2.245-2.787,0-2.948,2.219-4.9,4.524-5.735A9.047,9.047,0,0,1,11.737.491c2.609,0,4.744,1.008,4.744,3.693a4.454,4.454,0,0,1-4.142,4.32l.093-.313A16.674,16.674,0,0,1,14.38,3.4c.051-.085.152-.212.254-.347l-.127-.161a6.939,6.939,0,0,0-.576.407C9.6,6.684,9.467,16.18,3.706,16.18a3.669,3.669,0,0,1-.585-.042,2.011,2.011,0,0,1-1.83-2.126c0-.22.076-.525.076-.7a.65.65,0,0,0-.627-.593c-.432,0-.737.4-.745.983-.025,1.694,1.211,2.668,3.117,2.846q.313.025.652.025c4.5,0,7.268-3.405,8.429-7.531" transform="translate(0.004 0)" fill="#fff"/>
            <path id="Trazado_6811" data-name="Trazado 6811" d="M734.9,55.892l1.3-2.8h4.4l2.05-4.388h2.812l-2.05,4.388h4.4l-1.3,2.8h-4.4l-2.059,4.414h-2.812l2.058-4.414Z" transform="translate(-672.645 -44.575)" fill="#fff"/>
          </g>
        </g>
        <circle id="Elipse_306" data-name="Elipse 306" cx="2.5" cy="2.5" r="2.5" transform="translate(389 419)" fill="#fff"/>
        <circle id="Elipse_307" data-name="Elipse 307" cx="2.5" cy="2.5" r="2.5" transform="translate(486 419)" fill="#fff"/>
      </g>
      <g id="Grupo_17545" data-name="Grupo 17545">
        <g id="Noggin_by_nick" transform="translate(335 443)">
          <g id="Grupo_5273" data-name="Grupo 5273" transform="translate(0 0)" clip-path="url(#clip-path-2)">
            <path id="Trazado_6798" data-name="Trazado 6798" d="M15.381,9.319a1.3,1.3,0,1,0-1.3,1.306,1.3,1.3,0,0,0,1.3-1.306m3.125.036a4.427,4.427,0,1,1-4.427-4.427,4.427,4.427,0,0,1,4.427,4.427M4.447,4.924A4.451,4.451,0,0,0,0,9.371v4.28H3.669V9.089H5.225v4.562H8.89V9.371A4.451,4.451,0,0,0,4.443,4.924m20.583,4.4a1.3,1.3,0,1,0-1.3,1.306,1.3,1.3,0,0,0,1.3-1.306m3.264,5.408a4.475,4.475,0,0,1-8.941-.179H22.52a1.311,1.311,0,0,0,1.259,1.326,1.227,1.227,0,0,0,1.247-1.294,1.157,1.157,0,0,0-.453-.905,4.268,4.268,0,0,1-.941.1,4.425,4.425,0,0,1,0-8.85,4.721,4.721,0,0,1,1.775.369,1.379,1.379,0,0,1,2.652.651V9.351a3.561,3.561,0,0,1-.953,2.521,3.8,3.8,0,0,1,1.187,2.855m6.38-5.408a1.3,1.3,0,1,0-1.3,1.306,1.3,1.3,0,0,0,1.3-1.306m3.264,5.408A4.473,4.473,0,0,1,29,14.548h3.172a1.311,1.311,0,0,0,1.259,1.326,1.227,1.227,0,0,0,1.247-1.294,1.157,1.157,0,0,0-.453-.905,4.268,4.268,0,0,1-.941.1,4.425,4.425,0,1,1,0-8.85,4.721,4.721,0,0,1,1.775.369,1.379,1.379,0,0,1,2.652.651V9.351a3.561,3.561,0,0,1-.953,2.521,3.8,3.8,0,0,1,1.187,2.855M47.927,4.92A4.451,4.451,0,0,0,43.48,9.367v4.284h3.669V9.089H48.7v4.562H52.37V9.371a4.451,4.451,0,0,0-4.447-4.447m-7.317-.83a2,2,0,1,0-2-2,2,2,0,0,0,2,2m-1.886,9.561v-6.9a1.834,1.834,0,1,1,3.669,0v6.9Z" transform="translate(0 -0.096)" fill="#fff"/>
            <path id="Trazado_6799" data-name="Trazado 6799" d="M997.8,422.8h.21c.326,0,.635.083.635.477a.37.37,0,0,1-.187.33h0a.446.446,0,0,1,.345.437c0,.345-.3.484-.6.484h-.4Zm.214.766h.055c.2,0,.373-.04.373-.29s-.167-.286-.369-.286h-.059Zm0,.77h.167c.2,0,.409-.06.409-.306s-.246-.294-.441-.294h-.135Z" transform="translate(-958.183 -406.013)" fill="#fff"/>
            <path id="Trazado_6800" data-name="Trazado 6800" d="M1024.6,422.8h.25l.425.739.425-.739h.246l-.564.977v.754h-.214v-.754Z" transform="translate(-983.919 -406.013)" fill="#fff"/>
            <path id="Trazado_6801" data-name="Trazado 6801" d="M1312.941,379.353a.476.476,0,1,0-.477-.476.476.476,0,0,0,.477.476m.48,1.707a.866.866,0,0,1-.973.969h-.028a1.29,1.29,0,0,1-.647-.163.557.557,0,0,1-.27-.77.452.452,0,0,1,.837.159c.032.171.123.151.123-.008v-1.175a.5.5,0,0,1,.481-.564.48.48,0,0,1,.48.48Z" transform="translate(-1259.36 -363.376)" fill="#fff"/>
            <path id="Trazado_6802" data-name="Trazado 6802" d="M1368.562,408.472v-1.3a.343.343,0,0,1,.167-.294c.107-.044.21.008.334.052a.524.524,0,0,0,.758-.31.481.481,0,0,0-.386-.56.937.937,0,0,0-.809.242h0l-.088.071a.481.481,0,0,0-.941.147v1.949Z" transform="translate(-1313.298 -389.91)" fill="#fff"/>
            <path id="Trazado_6803" data-name="Trazado 6803" d="M1401.076,445.053a.476.476,0,1,0-.476-.476.477.477,0,0,0,.476.476" transform="translate(-1344.99 -426.467)" fill="#fff"/>
            <path id="Trazado_6804" data-name="Trazado 6804" d="M1087.671,406.2a1.27,1.27,0,0,0-1.27,1.271v1.159h.964V407.49a.676.676,0,0,1,.091-.349.259.259,0,0,1,.215-.143.267.267,0,0,1,.214.143.674.674,0,0,1,.091.349v1.14h.965v-1.159a1.271,1.271,0,0,0-1.271-1.271" transform="translate(-1043.266 -390.072)" fill="#fff"/>
            <path id="Trazado_6805" data-name="Trazado 6805" d="M1154.365,376.273a.536.536,0,1,0-.759,0l.119.119c.2.2.21.25.024.437l-.107.107a.484.484,0,0,0-.143.345v1.735h.973v-1.735a.485.485,0,0,0-.143-.345l-.107-.107c-.187-.187-.175-.238.024-.437Z" transform="translate(-1107.654 -360.455)" fill="#fff"/>
            <path id="Trazado_6806" data-name="Trazado 6806" d="M1184.028,408.071a.265.265,0,0,1-.218.167c-.088,0-.159-.064-.214-.167a.957.957,0,0,1,0-.806.265.265,0,0,1,.214-.167.276.276,0,0,1,.218.167.8.8,0,0,1,.083.286h.965a1.271,1.271,0,1,0,0,.238h-.965a.8.8,0,0,1-.083.286" transform="translate(-1135.589 -390.264)" fill="#fff"/>
            <path id="Trazado_6807" data-name="Trazado 6807" d="M1252.118,408.2a.163.163,0,0,0-.024-.087l-.528-.8.365-.663a.481.481,0,1,0-.83-.488l-.436.782v-.524a.482.482,0,0,0-.965,0v1.949h.965v-.762l.508.762h.778a.167.167,0,0,0,.167-.167" transform="translate(-1200.082 -389.806)" fill="#fff"/>
            <path id="Trazado_6808" data-name="Trazado 6808" d="M1430.1,410.056h-.1V410h.254v.052h-.1v.274h-.06Zm.227-.056h.008l.159.175.155-.175h.007v.33h-.059v-.2l-.1.119h-.012l-.1-.119v.2h-.06Z" transform="translate(-1373.223 -393.721)" fill="#fff"/>
          </g>
        </g>
        <g id="Grupo_16326" data-name="Grupo 16326" transform="translate(414 443)">
          <path id="Trazado_22258" data-name="Trazado 22258" d="M93.037,66.378a.98.98,0,0,0-1.027,1.056,1.123,1.123,0,0,0,1.12,1.184A1.106,1.106,0,0,0,94.3,67.489,1.164,1.164,0,0,0,93.037,66.378Z" transform="translate(-78.917 -56.931)" fill="#fff"/>
          <path id="Trazado_22259" data-name="Trazado 22259" d="M39.94,54.685c-.2-.868-.679-1.235-1.349-1.084-.775.175-1.076.711-.909,1.659Z" transform="translate(-32.282 -45.944)" fill="#fff"/>
          <path id="Trazado_22260" data-name="Trazado 22260" d="M249,58.768c-.783-.142-1.268.248-1.477,1.182l2.305.337C249.972,59.41,249.674,58.888,249,58.768Z" transform="translate(-212.301 -50.379)" fill="#fff"/>
          <path id="Trazado_22261" data-name="Trazado 22261" d="M40.651,8.88a5.28,5.28,0,0,0-1.312-2.4,5.745,5.745,0,0,0-5.373-1.507,5.438,5.438,0,0,0-.7.185L31.3,4.681,30.6,4.539c-.983-.192-1.914-.373-2.859-.541a1.85,1.85,0,0,0-1.6.518,1.992,1.992,0,0,0-1.7-.48c-.754.128-1.5.25-2.277.378q.031-.943.06-1.888c0-.179.007-.349.009-.528V1.75L22.249.242s-4.111-.287-4.974-.256a2.441,2.441,0,0,0-1.85.65,2.488,2.488,0,0,0-.6,1.85C14.811,2.992,14.8,3.492,14.8,4a5.293,5.293,0,0,0-1.592.166,5.549,5.549,0,0,0-3.1,2.114c-.031.041-.06.084-.09.127A5.256,5.256,0,0,0,8.066,4.9a5.756,5.756,0,0,0-5.549.632A5.407,5.407,0,0,0,.654,7.6a5.965,5.965,0,0,0-.645,2.472A7.092,7.092,0,0,0,.54,13.085,6.01,6.01,0,0,0,2.294,15.5a5.184,5.184,0,0,0,2.371,1.044,6.654,6.654,0,0,0,1.162.1,7.672,7.672,0,0,0,1.261-.108A7.135,7.135,0,0,0,11,14.6l.05.043a5.122,5.122,0,0,0,3.318,1.205c.108,0,.216,0,.324-.01a6.515,6.515,0,0,0,1.205-.2,2.872,2.872,0,0,0,1.53.388h2.287a2.161,2.161,0,0,0,1.3-.4c-.063.142-.125.285-.189.427l-.618,1.376,1.291.778a12.47,12.47,0,0,0,3.376,1.423,3.537,3.537,0,0,0,.9.142,1.924,1.924,0,0,0,.81-.175,2.268,2.268,0,0,0,1.138-1.336q.332-.751.66-1.5c.46-1.047.925-2.11,1.393-3.179a5.223,5.223,0,0,0,1.55,1.992A6.722,6.722,0,0,0,35.486,17q.3,0,.6-.026a5.8,5.8,0,0,0,2.729-.787,3.369,3.369,0,0,0,1.231-1.937,4.106,4.106,0,0,0,.142-1.592,2.419,2.419,0,0,0,.452-.935A6.027,6.027,0,0,0,40.651,8.88Zm-1.662,2.5c-.083.336-.676.517-1.4.529a4,4,0,0,1-2.634-.8,1.885,1.885,0,0,0-.242-.2c-.065-.041-.12-.038-.142.078a1.179,1.179,0,0,0,.854,1.394,4.782,4.782,0,0,0,2.232.293,5.207,5.207,0,0,0,.532-.075c.633-.129.246,1.84-.332,2.22a4.338,4.338,0,0,1-1.932.491,5.084,5.084,0,0,1-3.557-1.073,4.079,4.079,0,0,1-1.3-3.984A4.89,4.89,0,0,1,32.3,7.72c.054-.055.111-.108.168-.161a3.793,3.793,0,0,1,1.858-.926C37.566,6.026,39.7,8.443,38.989,11.376ZM29.826,9.219q-.259.6-.519,1.2-1.565,3.593-3.14,7.177c-.248.569-.253.569-.874.4a10.839,10.839,0,0,1-2.925-1.238c.41-.9.794-1.787,1.208-2.655a1.261,1.261,0,0,0,.007-1.086q-.341-.931-.669-1.868c-.3-.854-.6-1.716-.891-2.577q-.253-.744-.511-1.491c-.041-.124-.084-.249-.127-.373a1.423,1.423,0,0,1-.128-.42c.258-.041.589-.1.842-.142.889-.142,1.756-.285,2.621-.427.263-.044.339.1.388.312l.3,1.255.427,1.756v.023c.031.129.063.258.124.518l.273-.832.158-.48c.083-.245.164-.491.245-.736.175-.531.351-1.061.539-1.588.038-.112.195-.285.269-.268,1.15.2,2.3.427,3.526.67-.075.191-.142.378-.221.562-.03.075-.058.142-.087.223-.161.414-.317.815-.474,1.207C30.072,8.632,29.952,8.927,29.826,9.219Zm-9.653,4.6c-.011.373-.1.535-.5.524-.743-.02-1.485,0-2.228,0-.477,0-.923-.081-.8-.652a12.519,12.519,0,0,1-2.065.467,3.611,3.611,0,0,1-3.742-3.032c-.01-.043-.02-.087-.027-.131A6.529,6.529,0,0,1,10.7,9.876a4.179,4.179,0,0,1,.783-2.6,3.686,3.686,0,0,1,4.8-1.1,1.367,1.367,0,0,0,.189.067c.014-1.271.018-2.49.047-3.708.02-.807.034-.821.822-.854.817-.031,1.635-.038,2.453-.038a6.093,6.093,0,0,1,.738.091c0,.273,0,.508-.01.744l-.151,4.789q-.094,2.925-.178,5.852c-.007.236-.014.46-.02.69Zm-10.332-.67a4.312,4.312,0,0,1-1.6,1.2,5.078,5.078,0,0,1-3.7.381c-2.41-.69-3.419-3.779-2.553-5.989A3.8,3.8,0,0,1,3.445,6.948c2.758-1.8,5.663-.4,6.128,2.585a.427.427,0,0,1-.057.266c-.387.724-2.584,1.505-3.771,1.039a1.7,1.7,0,0,0-.3-.1c-.075-.013-.124.01-.107.129a1.172,1.172,0,0,0,1.32.96,4.98,4.98,0,0,0,2.637-.864c.322-.218.593.4.676,1.057A1.835,1.835,0,0,1,9.841,13.144Z" transform="translate(-0.002 0.017)" fill="#fff"/>
        </g>
        <g id="EkzKVN" transform="translate(477 445)">
          <g id="Grupo_16319" data-name="Grupo 16319" transform="translate(0 0)">
            <path id="Trazado_22262" data-name="Trazado 22262" d="M1154.049,1048.245c0-.826-.011-1.653.005-2.479a3.38,3.38,0,0,1,.122-.963,1.154,1.154,0,0,1,1.313-.879,1.132,1.132,0,0,1,1.1,1.123c.044.623.027,1.252.021,1.877,0,.385.112.459.5.337a3.876,3.876,0,0,1,4.683,1.294,4.5,4.5,0,0,1-.077,5.331,4.28,4.28,0,0,1-4.954,1.286,4.352,4.352,0,0,1-2.707-4.3c-.028-.875,0-1.753,0-2.629Zm2.558,2.973a1.722,1.722,0,0,0,1.794,1.859,1.87,1.87,0,0,0-.014-3.731A1.721,1.721,0,0,0,1156.607,1051.217Z" transform="translate(-1135.349 -1043.582)" fill="#fff"/>
            <path id="Trazado_22263" data-name="Trazado 22263" d="M1029.681,1048.367c0-1.075-.011-2.151.005-3.226a1.2,1.2,0,0,1,1.147-1.316,1.222,1.222,0,0,1,1.356,1.114,10.121,10.121,0,0,1,.07,1.644c-.006.51.13.642.665.487a3.918,3.918,0,0,1,5.133,2.909,4.286,4.286,0,1,1-8.3,2.132,11.8,11.8,0,0,1-.075-2.244C1029.671,1049.367,1029.68,1048.867,1029.681,1048.367Zm4.236.908a1.759,1.759,0,0,0-1.754,1.852,1.763,1.763,0,1,0,1.754-1.852Z" transform="translate(-1029.666 -1043.502)" fill="#fff"/>
            <path id="Trazado_22264" data-name="Trazado 22264" d="M1100.564,1069.669a13.985,13.985,0,0,1-.011,1.647,1.243,1.243,0,0,1-1.98.978.907.907,0,0,0-.9-.059,3.95,3.95,0,0,1-5.446-2.542,4.284,4.284,0,0,1,2.929-5.5,4.233,4.233,0,0,1,5.33,3.382A10.488,10.488,0,0,1,1100.564,1069.669Zm-5.989-1.374a1.733,1.733,0,1,0,1.723-1.838A1.666,1.666,0,0,0,1094.576,1068.295Z" transform="translate(-1082.657 -1060.692)" fill="#fff"/>
            <path id="Trazado_22265" data-name="Trazado 22265" d="M1216.906,1068.242c.58-1.276,1.069-2.42,1.615-3.536a1.213,1.213,0,0,1,2.047-.373,1.3,1.3,0,0,1,.117,1.6c-.7,1.577-1.409,3.151-2.113,4.727q-.871,1.953-1.739,3.907c-.222.5-.493.935-1.124.961a1.223,1.223,0,0,1-1.252-1.709,15.386,15.386,0,0,1,.853-1.919,1.462,1.462,0,0,0-.019-1.547c-.712-1.264-1.375-2.555-2.056-3.836-.129-.243-.266-.484-.372-.737a1.225,1.225,0,0,1,.539-1.725,1.192,1.192,0,0,1,1.631.631c.518.942.994,1.907,1.49,2.861C1216.615,1067.724,1216.714,1067.895,1216.906,1068.242Z" transform="translate(-1185.203 -1060.581)" fill="#fff"/>
            <path id="Trazado_22266" data-name="Trazado 22266" d="M1393.246,1072.474a4.078,4.078,0,0,1-2.518-.933,1.222,1.222,0,0,1-.3-1.73,1.162,1.162,0,0,1,1.669-.21,2.259,2.259,0,0,0,1.626.423c.151-.024.321-.055.36-.22.055-.228-.136-.307-.3-.352-.435-.113-.878-.2-1.314-.311a2.6,2.6,0,0,1-2.181-2.589,2.7,2.7,0,0,1,2.249-2.554,4.108,4.108,0,0,1,3.36.662,1.209,1.209,0,0,1,.441,1.641,1.138,1.138,0,0,1-1.623.4,2.532,2.532,0,0,0-1.423-.394c-.171.02-.392.011-.424.226s.182.274.35.316c.485.123.979.214,1.458.356a2.457,2.457,0,0,1,1.989,2.407,2.666,2.666,0,0,1-1.969,2.621A4.566,4.566,0,0,1,1393.246,1072.474Z" transform="translate(-1336.002 -1060.546)" fill="#fff"/>
            <path id="Trazado_22267" data-name="Trazado 22267" d="M1273.953,1050.1c0-.5-.021-1,.005-1.5.034-.644,0-1.147-.72-1.518a1.04,1.04,0,0,1,.123-1.841,1.463,1.463,0,0,0,.763-1.018,3.37,3.37,0,0,1,3.482-2.508,1.18,1.18,0,0,1,.25,2.339c-.351.107-.769.055-1.027.388a.653.653,0,0,0-.16.4c.016.178.211.175.36.189a3.359,3.359,0,0,1,.52.056,1.108,1.108,0,0,1,.933,1.188,1.008,1.008,0,0,1-1.057,1.048c-.769-.015-.913.331-.891,1,.041,1.224.021,2.45.007,3.675-.011.99-.518,1.587-1.315,1.593-.763.005-1.264-.627-1.272-1.617C1273.949,1051.347,1273.953,1050.722,1273.953,1050.1Z" transform="translate(-1236.202 -1041.706)" fill="#fff"/>
            <path id="Trazado_22268" data-name="Trazado 22268" d="M1442.359,1058.027a3.008,3.008,0,0,1-2.971-2.569,17.778,17.778,0,0,1-.11-2.92.85.85,0,0,0-.5-.887,1.111,1.111,0,0,1,0-2.064.88.88,0,0,0,.5-.9,3.083,3.083,0,0,1,.077-.743,1.247,1.247,0,0,1,1.354-1.036,1.2,1.2,0,0,1,1.132,1.19,2.8,2.8,0,0,1,.009.525c-.05.535.106.818.72.866a1.132,1.132,0,0,1-.073,2.259c-.485.015-.664.211-.649.686.024.725.011,1.45.006,2.176a.731.731,0,0,0,.715.858c.917.124,1.373.616,1.324,1.321A1.427,1.427,0,0,1,1442.359,1058.027Z" transform="translate(-1376.693 -1046.119)" fill="#fff"/>
            <path id="Trazado_22269" data-name="Trazado 22269" d="M1344.832,1068.193c0-.925-.012-1.851,0-2.776.018-1.075.745-1.637,1.742-1.278a1.771,1.771,0,0,0,1.29-.029,3.068,3.068,0,0,1,2.478.126,1.086,1.086,0,0,1,.653,1.292,1.009,1.009,0,0,1-1.164.826c-.4-.015-.8-.035-1.2-.019-.936.036-1.31.4-1.333,1.349-.026,1.1,0,2.2-.013,3.3-.01.964-.445,1.471-1.227,1.46s-1.216-.531-1.226-1.476C1344.823,1070.044,1344.832,1069.119,1344.832,1068.193Z" transform="translate(-1297.458 -1060.572)" fill="#fff"/>
            <path id="Trazado_22270" data-name="Trazado 22270" d="M1320.2,1068.343c0,.974.016,1.948,0,2.921a1.23,1.23,0,1,1-2.454,0q-.026-2.959,0-5.918a1.181,1.181,0,0,1,1.179-1.274,1.2,1.2,0,0,1,1.272,1.271C1320.22,1066.344,1320.2,1067.344,1320.2,1068.343Z" transform="translate(-1274.434 -1060.713)" fill="#fff"/>
            <path id="Trazado_22271" data-name="Trazado 22271" d="M1320.286,1043.047a1.219,1.219,0,0,1-2.437.082,1.178,1.178,0,0,1,1.169-1.274A1.213,1.213,0,0,1,1320.286,1043.047Z" transform="translate(-1274.534 -1041.832)" fill="#fff"/>
          </g>
        </g>
        <circle id="Elipse_308" data-name="Elipse 308" cx="2.5" cy="2.5" r="2.5" transform="translate(321 450)" fill="#fff"/>
        <circle id="Elipse_309" data-name="Elipse 309" cx="2.5" cy="2.5" r="2.5" transform="translate(401 450)" fill="#fff"/>
        <circle id="Elipse_310" data-name="Elipse 310" cx="2.5" cy="2.5" r="2.5" transform="translate(464 450)" fill="#fff"/>
        <circle id="Elipse_311" data-name="Elipse 311" cx="2.5" cy="2.5" r="2.5" transform="translate(553 450)" fill="#fff"/>
      </g>
    </g>
  </g>
</svg>
