<svg xmlns="http://www.w3.org/2000/svg" xmlns:xlink="http://www.w3.org/1999/xlink" width="496" height="66" viewBox="0 0 496 66">
  <defs>
    <linearGradient id="linear-gradient" x1="0.767" y1="0.348" x2="0.767" y2="1.328" gradientUnits="objectBoundingBox">
      <stop offset="0" stop-color="#b31240"/>
      <stop offset="1" stop-color="#612283"/>
    </linearGradient>
    <clipPath id="clip-path">
      <rect id="Rectángulo_3442" data-name="Rectángulo 3442" width="68.264" height="15.056" fill="none"/>
    </clipPath>
    <clipPath id="clip-path-2">
      <rect id="Rectángulo_3439" data-name="Rectángulo 3439" width="95.253" height="18.459" fill="none"/>
    </clipPath>
    <clipPath id="clip-path-3">
      <rect id="Rectángulo_3441" data-name="Rectángulo 3441" width="52.163" height="17.12" fill="none"/>
    </clipPath>
  </defs>
  <g id="Grupo_17565" data-name="Grupo 17565" transform="translate(-693 -405)">
    <path id="Rectángulo_9820" data-name="Rectángulo 9820" d="M0,0H496a0,0,0,0,1,0,0V56a10,10,0,0,1-10,10H10A10,10,0,0,1,0,56V0A0,0,0,0,1,0,0Z" transform="translate(693 405)" fill="url(#linear-gradient)"/>
    <g id="Grupo_17552" data-name="Grupo 17552" transform="translate(-52 -11)">
      <g id="Grupo_17553" data-name="Grupo 17553" transform="translate(9926 -3421)">
        <g id="Paramount_plus_Negro" transform="translate(-8867 3849)">
          <g id="Grupo_5274" data-name="Grupo 5274" transform="translate(0 0)" clip-path="url(#clip-path)">
            <path id="Trazado_6809" data-name="Trazado 6809" d="M194.11,68.524c-.323.454-.6.592-.846.592s-.431-.277-.392-.685a8.99,8.99,0,0,1,1.477-3.493c.369-.515.631-.731.908-.731s.369.239.362.531a9.427,9.427,0,0,1-1.508,3.793m-14.4.177c-.208,0-.346-.069-.354-.338a6.413,6.413,0,0,1,1.331-2.97,2.563,2.563,0,0,1,1.9-1.208l-.916,2.039h0c-.685,1.562-1.4,2.477-1.969,2.477m-8.955,0c-.208,0-.346-.069-.354-.338a6.413,6.413,0,0,1,1.331-2.97,2.563,2.563,0,0,1,1.9-1.208l-.915,2.039c-.677,1.539-1.423,2.477-1.97,2.477M211.62,61.8h-1.431l-.331.754-.562,1.262h-.677l-.2.431h.692l-.831,1.854c-.592,1.308-1.539,2.593-2.077,2.593-.115,0-.185-.054-.185-.169a1.483,1.483,0,0,1,.169-.562c.139-.331.446-.969.654-1.385a6.753,6.753,0,0,0,.777-2.031.807.807,0,0,0-.892-.839,2.79,2.79,0,0,0-1.808.977l.354-.869h-1.354l-1.108,2.508c-.439.892-1.346,2.37-1.9,2.37-.115,0-.162-.069-.162-.185a.954.954,0,0,1,.077-.308l.708-1.646,1.192-2.747h-1.454l-1.162,2.67c-.362.823-1.269,2.223-1.854,2.223a.184.184,0,0,1-.2-.208,1.99,1.99,0,0,1,.192-.6l.608-1.339h0l1.262-2.747h-1.446l-.285.623h0a1.4,1.4,0,0,1-1.146.908.5.5,0,0,1-.469-.215,1.428,1.428,0,0,0-1.531-1.416,3.121,3.121,0,0,0-2.616,1.569,7.362,7.362,0,0,0-.854,1.916c-.515.846-1.062,1.508-1.477,1.508-.108,0-.177-.062-.177-.208a2.09,2.09,0,0,1,.192-.585l.931-2.016a4.021,4.021,0,0,0,.446-1.439.74.74,0,0,0-.792-.746,2.834,2.834,0,0,0-2.008,1.046,1.562,1.562,0,0,0,.031-.315.647.647,0,0,0-.739-.731,2.572,2.572,0,0,0-1.854,1.046l.385-.939h-1.331l-1.116,2.508c-.531,1.185-1.377,2.37-1.862,2.37-.115,0-.177-.062-.177-.2a5.886,5.886,0,0,1,.346-1.016l1.469-3.347c.108-.246-.6-.408-1.493-.408a4.291,4.291,0,0,0-2.562,1.039,2.29,2.29,0,0,1-1.039.608c-.192,0-.131-.046-.131-.108,0-.208.492-.785.492-1.216,0-.2-.108-.331-.385-.331a2.617,2.617,0,0,0-1.608,1.031l.392-.923h-1.285l-1.108,2.508c-.531,1.185-1.4,2.416-1.885,2.416-.115,0-.177-.062-.177-.2a5.737,5.737,0,0,1,.369-1.069l1.469-3.347c.108-.246-.6-.408-1.5-.408a4.513,4.513,0,0,0-3.316,1.816A5.66,5.66,0,0,0,169,68.455a.985.985,0,0,0,1.069,1.123,2.735,2.735,0,0,0,1.831-1.116,2.677,2.677,0,0,0-.046.285c0,.485.192.831.777.831a2.49,2.49,0,0,0,1.754-1.123l-.446,1.023h1.408l1.377-3.124c.446-1.016.969-1.546,1.108-1.546s.062.023.062.062a2.2,2.2,0,0,0-.208.662c0,.269.146.462.523.462a1.69,1.69,0,0,0,.939-.331,5.334,5.334,0,0,0-1.192,2.8.985.985,0,0,0,1.069,1.123,2.865,2.865,0,0,0,1.846-1.192,2.428,2.428,0,0,0-.031.331.781.781,0,0,0,.808.862,2.368,2.368,0,0,0,1.677-1.1l-.439,1h1.439l1.316-2.985c.577-1.3,1.354-1.985,1.739-1.985a.177.177,0,0,1,.192.192,1.238,1.238,0,0,1-.115.423l-1.923,4.355H187l1.346-3.039c.577-1.3,1.216-1.946,1.693-1.946.146,0,.208.077.208.231a1.04,1.04,0,0,1-.139.477l-1.292,2.754a2.285,2.285,0,0,0-.208.839.758.758,0,0,0,.869.792c.839,0,1.477-.631,2.193-1.585V68.2a1.417,1.417,0,0,0,1.593,1.408,3.449,3.449,0,0,0,3.031-2.362,5.182,5.182,0,0,0,.469-1.623,1.039,1.039,0,0,0,.469.1,1.339,1.339,0,0,0,.623-.154l-.231.5c-.262.554-.562,1.169-.777,1.677a2.737,2.737,0,0,0-.254.969.8.8,0,0,0,.869.885,2.95,2.95,0,0,0,1.962-1.331h.015a2.943,2.943,0,0,0-.062.492c0,.423.131.839.731.839a2.682,2.682,0,0,0,1.762-1.131l-.446,1.016h1.454l1.162-2.631c.654-1.485,1.316-2.377,1.931-2.377a.19.19,0,0,1,.2.215,7.489,7.489,0,0,1-.685,1.623c-.331.692-.523,1.1-.685,1.477a2.725,2.725,0,0,0-.254.992.745.745,0,0,0,.815.808,3.168,3.168,0,0,0,2.146-1.431,2.933,2.933,0,0,0-.169.916,1.141,1.141,0,0,0,1.216,1.262,2.254,2.254,0,0,0,1.308-.439,6.022,6.022,0,0,0,1.369-1.493l-.246-.238a5.645,5.645,0,0,1-1.123,1.254,1.255,1.255,0,0,1-.746.292.48.48,0,0,1-.492-.546,4.866,4.866,0,0,1,.454-1.593l.777-1.762.685-1.554h.946l.192-.431h-.946Z" transform="translate(-155.997 -57.045)" fill="#fff"/>
            <path id="Trazado_6810" data-name="Trazado 6810" d="M11.074,8.217a9.079,9.079,0,0,0,1.6-.331c1.893-.531,4.031-1.793,4.031-4.047C16.706,1.246,13.967,0,10.7,0,7.212,0,4.012,1.546,2.827,3.947a4.608,4.608,0,0,0-.485,2.062,3.125,3.125,0,0,0,.485,1.754A3.074,3.074,0,0,0,5.55,8.978c1.616,0,2.9-.892,2.9-2.431a.42.42,0,0,0-.477-.431c-.5,0-.515.277-.508.423A1.9,1.9,0,0,1,5.527,8.717c-1.431,0-2.039-1.223-2.039-2.531A5.713,5.713,0,0,1,7.6.977,8.217,8.217,0,0,1,10.659.446c2.37,0,4.308.916,4.308,3.354a4.045,4.045,0,0,1-3.762,3.924l.085-.285a15.143,15.143,0,0,1,1.769-4.354c.046-.077.138-.192.231-.315l-.115-.146a6.3,6.3,0,0,0-.523.369C8.72,6.07,8.6,14.695,3.366,14.695a3.332,3.332,0,0,1-.531-.038,1.826,1.826,0,0,1-1.662-1.931c0-.2.069-.477.069-.639a.59.59,0,0,0-.569-.539c-.392,0-.669.362-.677.892-.023,1.539,1.1,2.423,2.831,2.585q.285.023.592.023c4.085,0,6.6-3.093,7.655-6.839" transform="translate(0.004 0)" fill="#fff"/>
            <path id="Trazado_6811" data-name="Trazado 6811" d="M734.9,55.232l1.185-2.547h3.993L741.94,48.7h2.554l-1.862,3.985h3.993l-1.185,2.547h-3.993l-1.87,4.008h-2.554l1.869-4.008Z" transform="translate(-678.361 -44.953)" fill="#fff"/>
          </g>
        </g>
        <g id="amazon_prime_icon" transform="translate(-9067 3847)">
          <g id="amazon_prime" data-name="amazon prime" transform="translate(0 0)" clip-path="url(#clip-path-2)">
            <path id="Trazado_6772" data-name="Trazado 6772" d="M182.9,24.577a.462.462,0,0,1-.318-.087.433.433,0,0,1-.087-.318V13.23a.433.433,0,0,1,.087-.318.462.462,0,0,1,.318-.087h1.184a.433.433,0,0,1,.462.375l.116.433a3.638,3.638,0,0,1,1.184-.751,3.783,3.783,0,0,1,1.415-.289,3.061,3.061,0,0,1,2.512,1.155,4.9,4.9,0,0,1,.924,3.147,5.746,5.746,0,0,1-.462,2.368,3.725,3.725,0,0,1-1.242,1.559,3.089,3.089,0,0,1-1.819.549,3.84,3.84,0,0,1-1.27-.2,3.09,3.09,0,0,1-1.039-.577v3.58a.346.346,0,0,1-.4.4Zm3.609-5a1.53,1.53,0,0,0,1.357-.635,3.532,3.532,0,0,0,.433-1.963,3.687,3.687,0,0,0-.433-1.992,1.53,1.53,0,0,0-1.357-.635,3.118,3.118,0,0,0-1.617.433V19.12a3,3,0,0,0,1.617.433" transform="translate(-129.798 -8.957)" fill="#fff"/>
            <path id="Trazado_6773" data-name="Trazado 6773" d="M216.99,21.556a.346.346,0,0,1-.4-.4V13.587a.433.433,0,0,1,.087-.318.462.462,0,0,1,.318-.087h1.184a.433.433,0,0,1,.462.375l.2.9a4.677,4.677,0,0,1,1.242-1.039,2.656,2.656,0,0,1,1.242-.318h.231a.491.491,0,0,1,.318.087.433.433,0,0,1,.087.318v1.386a.462.462,0,0,1-.087.318.433.433,0,0,1-.318.087H220.8a4.88,4.88,0,0,0-.924.115,4.534,4.534,0,0,0-.924.26v5.486a.462.462,0,0,1-.087.318.433.433,0,0,1-.318.087Z" transform="translate(-154.046 -9.314)" fill="#fff"/>
            <path id="Trazado_6774" data-name="Trazado 6774" d="M240.052,2.578a1.415,1.415,0,0,1-.982-.346,1.213,1.213,0,0,1-.375-.924,1.213,1.213,0,0,1,.375-.953,1.617,1.617,0,0,1,1.992,0,1.212,1.212,0,0,1,.375.924,1.212,1.212,0,0,1-.375.924,1.415,1.415,0,0,1-1.011.346m-.78,9.673a.346.346,0,0,1-.4-.4V4.281a.433.433,0,0,1,.087-.318.462.462,0,0,1,.318-.087h1.588a.462.462,0,0,1,.318.087.462.462,0,0,1,.087.318v7.565a.462.462,0,0,1-.087.318.433.433,0,0,1-.318.087Z" transform="translate(-169.774 -0.008)" fill="#fff"/>
            <path id="Trazado_6775" data-name="Trazado 6775" d="M254.99,21.12a.346.346,0,0,1-.4-.4V13.151a.433.433,0,0,1,.087-.318.462.462,0,0,1,.318-.087h1.184a.433.433,0,0,1,.462.375l.144.433a7.073,7.073,0,0,1,1.559-.808,4.418,4.418,0,0,1,1.444-.231,2.208,2.208,0,0,1,2.079,1.039,6.73,6.73,0,0,1,1.588-.808,4.793,4.793,0,0,1,1.53-.26,2.4,2.4,0,0,1,1.79.635,2.425,2.425,0,0,1,.635,1.79v5.8a.462.462,0,0,1-.087.318.433.433,0,0,1-.318.087h-1.617a.346.346,0,0,1-.4-.4V15.432q0-1.126-1.011-1.126a4.158,4.158,0,0,0-1.79.433v5.977a.462.462,0,0,1-.087.318.433.433,0,0,1-.318.087h-1.588a.346.346,0,0,1-.4-.4V15.432q0-1.126-1.011-1.126a3.984,3.984,0,0,0-1.819.433v5.977a.462.462,0,0,1-.087.318.433.433,0,0,1-.318.087Z" transform="translate(-181.074 -8.878)" fill="#fff"/>
            <path id="Trazado_6776" data-name="Trazado 6776" d="M308.215,21.393a4.155,4.155,0,0,1-3.118-1.126,4.4,4.4,0,0,1-1.1-3.2,4.732,4.732,0,0,1,1.126-3.349,4.009,4.009,0,0,1,3.089-1.213,3.54,3.54,0,0,1,2.4.751,2.455,2.455,0,0,1,.866,1.963,2.108,2.108,0,0,1-.924,1.877,4.855,4.855,0,0,1-2.743.635,6.439,6.439,0,0,1-1.617-.173,2.22,2.22,0,0,0,.664,1.588,2.467,2.467,0,0,0,1.7.462l.9-.058,1.213-.26h.173q.289,0,.289.375v.751a.693.693,0,0,1-.087.375.606.606,0,0,1-.289.2,7.045,7.045,0,0,1-2.541.462m-.549-5.168a2.223,2.223,0,0,0,1.213-.26.866.866,0,0,0,.375-.78q0-1.039-1.242-1.039t-1.79,1.906a7.449,7.449,0,0,0,1.473.144" transform="translate(-216.226 -8.891)" fill="#fff"/>
            <path id="Trazado_6777" data-name="Trazado 6777" d="M47.382,47.529a18.558,18.558,0,0,1-10.51,3.2,19.028,19.028,0,0,1-12.849-4.908c-.26-.231-.029-.577.289-.375a25.87,25.87,0,0,0,12.849,3.407,25.581,25.581,0,0,0,9.817-2.021c.491-.2.9.318.4.664" transform="translate(-17.007 -32.284)" fill="#fff" fill-rule="evenodd"/>
            <path id="Trazado_6778" data-name="Trazado 6778" d="M100.539,44.943c-.375-.462-2.4-.231-3.32-.115-.289.029-.318-.2-.058-.375,1.617-1.155,4.3-.808,4.62-.433s-.087,3.061-1.617,4.331c-.231.2-.462.087-.346-.173.346-.866,1.126-2.772.751-3.234" transform="translate(-68.981 -31.055)" fill="#fff" fill-rule="evenodd"/>
            <path id="Trazado_6779" data-name="Trazado 6779" d="M97.281,14.986v-1.1a.289.289,0,0,1,.289-.289h5a.289.289,0,0,1,.289.289v.953a1.559,1.559,0,0,1-.375.693L99.88,19.2a5.515,5.515,0,0,1,2.83.606.52.52,0,0,1,.26.433v1.184a.273.273,0,0,1-.375.26,5.746,5.746,0,0,0-5.255,0c-.173.087-.346-.087-.346-.26v-1.1a1.328,1.328,0,0,1,.173-.751l3-4.3h-2.6a.289.289,0,0,1-.289-.289" transform="translate(-68.986 -9.673)" fill="#fff" fill-rule="evenodd"/>
            <path id="Trazado_6780" data-name="Trazado 6780" d="M123.736,14.688c-1.126,0-1.184,1.53-1.184,2.483s0,2.974,1.184,2.974,1.242-1.646,1.242-2.627a7.189,7.189,0,0,0-.231-2.05.953.953,0,0,0-.982-.751m0-1.588c2.252,0,3.465,1.935,3.465,4.389s-1.386,4.215-3.523,4.215S120.3,19.8,120.3,17.4s1.213-4.3,3.407-4.3" transform="translate(-85.566 -9.318)" fill="#fff" fill-rule="evenodd"/>
            <path id="Trazado_6781" data-name="Trazado 6781" d="M74.8,21.346a.318.318,0,0,1-.347.029,3.955,3.955,0,0,1-.866-1.011,3.036,3.036,0,0,1-2.512,1.1A2.249,2.249,0,0,1,68.8,19.094a2.57,2.57,0,0,1,1.617-2.483,9.447,9.447,0,0,1,2.858-.52,2.622,2.622,0,0,0-.173-1.3,1.068,1.068,0,0,0-.837-.4,1.155,1.155,0,0,0-1.213.9c-.029.173-.144.318-.289.289l-1.444-.144a.26.26,0,0,1-.231-.318c.346-1.79,1.935-2.31,3.378-2.31a3.449,3.449,0,0,1,2.281.751,3.7,3.7,0,0,1,.664,2.6v2.368a2.067,2.067,0,0,0,.577,1.415.289.289,0,0,1,0,.4L74.83,21.346m-1.559-3.7a3.162,3.162,0,0,1-.289,1.617,1.242,1.242,0,0,1-1.039.693c-.577,0-.924-.433-.924-1.1,0-1.3,1.155-1.53,2.252-1.53Z" transform="translate(-48.931 -9.104)" fill="#fff" fill-rule="evenodd"/>
            <path id="Trazado_6782" data-name="Trazado 6782" d="M6,21.346a.318.318,0,0,1-.346.029,3.956,3.956,0,0,1-.866-1.011,3.036,3.036,0,0,1-2.512,1.1A2.249,2.249,0,0,1,0,19.094a2.57,2.57,0,0,1,1.617-2.483,9.448,9.448,0,0,1,2.858-.52,2.621,2.621,0,0,0-.173-1.3,1.068,1.068,0,0,0-.837-.4,1.155,1.155,0,0,0-1.213.9c-.029.173-.144.318-.289.289L.515,15.427a.26.26,0,0,1-.231-.318c.346-1.79,1.935-2.31,3.378-2.31a3.449,3.449,0,0,1,2.281.751,3.7,3.7,0,0,1,.664,2.6v2.368a2.067,2.067,0,0,0,.577,1.415.289.289,0,0,1,0,.4L6.03,21.346m-1.559-3.7a3.162,3.162,0,0,1-.289,1.617,1.242,1.242,0,0,1-1.039.693c-.577,0-.924-.433-.924-1.1,0-1.3,1.155-1.53,2.252-1.53Z" transform="translate(0.004 -9.104)" fill="#fff" fill-rule="evenodd"/>
            <path id="Trazado_6783" data-name="Trazado 6783" d="M30.979,17.171c0-.9-.029-2.137,1.039-2.137s.953,1.27.953,2.137V21.3a.289.289,0,0,0,.26.289h1.5a.289.289,0,0,0,.289-.289V17.171a4.706,4.706,0,0,1,.144-1.5,1.011,1.011,0,0,1,.9-.635.78.78,0,0,1,.9.664,9.963,9.963,0,0,1,.029,1.444V21.3a.289.289,0,0,0,.26.289h1.5a.289.289,0,0,0,.289-.289V16.392a4.2,4.2,0,0,0-.375-2.425,2.252,2.252,0,0,0-3.84.577,2.077,2.077,0,0,0-3.956,0h-.029V13.533a.289.289,0,0,0-.289-.289H29.189a.289.289,0,0,0-.289.289V21.3a.289.289,0,0,0,.289.289h1.5a.289.289,0,0,0,.289-.289Z" transform="translate(-20.556 -9.318)" fill="#fff" fill-rule="evenodd"/>
            <path id="Trazado_6784" data-name="Trazado 6784" d="M150.108,21.3a.289.289,0,0,1-.289.289h-1.53A.289.289,0,0,1,148,21.3V13.529a.289.289,0,0,1,.289-.289h1.386a.289.289,0,0,1,.289.231v1.184h.029a2.051,2.051,0,0,1,2.079-1.559,1.992,1.992,0,0,1,1.761.924,4.9,4.9,0,0,1,.4,2.425v4.908a.289.289,0,0,1-.289.231h-1.53a.289.289,0,0,1-.26-.231V16.619c0-1.559-.606-1.617-.953-1.617a1.039,1.039,0,0,0-.866.606,3.522,3.522,0,0,0-.26,1.473Z" transform="translate(-105.268 -9.314)" fill="#fff" fill-rule="evenodd"/>
          </g>
        </g>
        <circle id="Elipse_25" data-name="Elipse 25" cx="2.5" cy="2.5" r="2.5" transform="translate(-8877 3854)" fill="#fff"/>
        <circle id="Elipse_26" data-name="Elipse 26" cx="2.5" cy="2.5" r="2.5" transform="translate(-8794 3854)" fill="#fff"/>
        <circle id="Elipse_29" data-name="Elipse 29" cx="2.5" cy="2.5" r="2.5" transform="translate(-8967 3854)" fill="#fff"/>
        <g id="starzplay_icon" transform="translate(-8957 3851)">
          <g id="starzplay" transform="translate(0 0)">
            <g id="Grupo_7007" data-name="Grupo 7007">
              <path id="Trazado_7402" data-name="Trazado 7402" d="M46.509,11l.816-1.665h4.588L52.728,11h2.243L49.6.4,44.3,11Zm1.8-3.6L49.6,4.818,50.893,7.4Z" transform="translate(-29.246 -0.264)" fill="#fff"/>
              <path id="Trazado_7403" data-name="Trazado 7403" d="M33.494.5H25.1V2.437h3.126v8.632h2.141V2.437h3.126Z" transform="translate(-16.57 -0.33)" fill="#fff"/>
              <path id="Trazado_7404" data-name="Trazado 7404" d="M84.846,3.72a3.024,3.024,0,0,0-.985-2.311A3.942,3.942,0,0,0,81.142.492H77.2V11.06h2.141V7.22H80.87l2.209,3.84h2.447L83.045,6.71a3.126,3.126,0,0,0,1.8-2.99ZM80.9,5.147H79.341V2.429H80.9c1.155,0,1.8.476,1.8,1.359S82.026,5.147,80.9,5.147Z" transform="translate(-50.965 -0.321)" fill="#fff"/>
              <path id="Trazado_7405" data-name="Trazado 7405" d="M112.441.5h-8.734V2.437h5l-5.4,8.632h9.039V9.132h-5.3Z" transform="translate(-68.196 -0.33)" fill="#fff"/>
              <path id="Trazado_7406" data-name="Trazado 7406" d="M4.724,4.485c-1.733-.408-2.345-.68-2.345-1.5S2.99,1.9,3.908,1.9A6.968,6.968,0,0,1,6.9,3.159l.918-1.8A5.981,5.981,0,0,0,3.942,0C1.767,0,.272,1.29.272,3.159S1.563,5.878,3.84,6.422s2.209.816,2.209,1.427S5.4,9.038,4.384,9.038a5.472,5.472,0,0,1-3.5-1.6L0,9.31a6.559,6.559,0,0,0,4.316,1.6c2.345,0,3.84-1.257,3.84-3.262S7.17,5.1,4.724,4.485Z" transform="translate(0 0.001)" fill="#fff"/>
            </g>
            <g id="Grupo_7008" data-name="Grupo 7008" transform="translate(45.842 0.17)">
              <path id="Trazado_7407" data-name="Trazado 7407" d="M134.9.5h3.466a3,3,0,0,1,3.228,3.092,3.006,3.006,0,0,1-3.228,3.126h-2.821v4.35H134.9Zm3.432,5.607a2.373,2.373,0,0,0,2.583-2.515,2.332,2.332,0,0,0-2.583-2.481h-2.787v5Z" transform="translate(-134.9 -0.5)" fill="#fff"/>
              <path id="Trazado_7408" data-name="Trazado 7408" d="M157.7.5h.646v9.991h5.063V11.1H157.7Z" transform="translate(-149.952 -0.5)" fill="#fff"/>
              <path id="Trazado_7409" data-name="Trazado 7409" d="M183.725,7.432h-4.486L177.88,11.1h-.68L181.142.5h.68L185.8,11.069h-.68Zm-2.243-6.185s-.238.816-.408,1.257l-1.631,4.282h4.044l-1.563-4.248c-.17-.442-.408-1.257-.408-1.257Z" transform="translate(-162.825 -0.5)" fill="#fff"/>
              <path id="Trazado_7410" data-name="Trazado 7410" d="M203,6.481,199.4.5h.748l2.515,4.18c.306.51.646,1.189.646,1.189h.034s.34-.68.646-1.189L206.5.5h.748l-3.6,5.981v4.588H203Z" transform="translate(-177.481 -0.5)" fill="#fff"/>
            </g>
          </g>
        </g>
        <circle id="Elipse_312" data-name="Elipse 312" cx="2.5" cy="2.5" r="2.5" transform="translate(-9077 3854)" fill="#fff"/>
      </g>
      <g id="Grupo_17554" data-name="Grupo 17554" transform="translate(9919 -3421)">
        <g id="Noggin_by_nick" transform="translate(-8952 3875)">
          <g id="Grupo_5273" data-name="Grupo 5273" transform="translate(0 0)" clip-path="url(#clip-path-3)">
            <path id="Trazado_6798" data-name="Trazado 6798" d="M13.969,8.473a1.183,1.183,0,1,0-1.183,1.186,1.183,1.183,0,0,0,1.183-1.186m2.838.032a4.021,4.021,0,1,1-4.021-4.021,4.021,4.021,0,0,1,4.021,4.021M4.039,4.481A4.042,4.042,0,0,0,0,8.52v3.887H3.332V8.264H4.745v4.143H8.074V8.52A4.042,4.042,0,0,0,4.035,4.481M22.728,8.473a1.183,1.183,0,1,0-1.183,1.186,1.183,1.183,0,0,0,1.183-1.186m2.964,4.911a4.064,4.064,0,0,1-8.12-.162h2.881a1.191,1.191,0,0,0,1.143,1.2,1.114,1.114,0,0,0,1.132-1.176,1.051,1.051,0,0,0-.411-.822,3.876,3.876,0,0,1-.855.09,4.019,4.019,0,0,1,0-8.037,4.287,4.287,0,0,1,1.612.335,1.252,1.252,0,0,1,2.409.591V8.5a3.234,3.234,0,0,1-.865,2.29A3.448,3.448,0,0,1,25.7,13.384M31.49,8.473a1.183,1.183,0,1,0-1.183,1.186A1.183,1.183,0,0,0,31.49,8.473m2.964,4.911a4.062,4.062,0,0,1-8.117-.162h2.881a1.191,1.191,0,0,0,1.143,1.2,1.114,1.114,0,0,0,1.132-1.176,1.051,1.051,0,0,0-.411-.822,3.876,3.876,0,0,1-.855.09,4.019,4.019,0,1,1,0-8.037,4.287,4.287,0,0,1,1.612.335,1.252,1.252,0,0,1,2.409.591V8.5a3.234,3.234,0,0,1-.865,2.29,3.448,3.448,0,0,1,1.078,2.593m9.065-8.907a4.042,4.042,0,0,0-4.039,4.039v3.891H42.82V8.264h1.413v4.143h3.328V8.52a4.042,4.042,0,0,0-4.039-4.039m-6.646-.754a1.814,1.814,0,1,0-1.814-1.814,1.814,1.814,0,0,0,1.814,1.814M35.164,12.41V6.147a1.666,1.666,0,1,1,3.332,0V12.41Z" transform="translate(0 -0.096)" fill="#fff"/>
            <path id="Trazado_6799" data-name="Trazado 6799" d="M997.8,422.8h.191c.3,0,.577.076.577.433a.336.336,0,0,1-.17.3h0a.405.405,0,0,1,.314.4c0,.314-.27.44-.548.44H997.8Zm.195.7h.05c.184,0,.339-.036.339-.263s-.151-.26-.335-.26h-.054Zm0,.7h.151c.18,0,.372-.054.372-.278s-.224-.267-.4-.267h-.123Z" transform="translate(-961.821 -407.554)" fill="#fff"/>
            <path id="Trazado_6800" data-name="Trazado 6800" d="M1024.6,422.8h.227l.386.671.386-.671h.224l-.512.887v.685h-.195v-.685Z" transform="translate(-987.654 -407.554)" fill="#fff"/>
            <path id="Trazado_6801" data-name="Trazado 6801" d="M1312.8,379.265a.433.433,0,1,0-.433-.433.432.432,0,0,0,.433.433m.436,1.551a.786.786,0,0,1-.883.88h-.026a1.171,1.171,0,0,1-.588-.148.505.505,0,0,1-.245-.7.411.411,0,0,1,.76.144c.029.155.112.137.112-.007v-1.067a.458.458,0,0,1,.437-.512.436.436,0,0,1,.436.436Z" transform="translate(-1264.141 -364.755)" fill="#fff"/>
            <path id="Trazado_6802" data-name="Trazado 6802" d="M1368.473,408.248v-1.179a.312.312,0,0,1,.151-.267c.1-.04.191.007.3.047a.476.476,0,0,0,.689-.281.437.437,0,0,0-.35-.508.851.851,0,0,0-.735.22h0l-.08.065a.436.436,0,0,0-.855.133v1.77Z" transform="translate(-1318.283 -391.39)" fill="#fff"/>
            <path id="Trazado_6803" data-name="Trazado 6803" d="M1401.032,444.965a.433.433,0,1,0-.433-.433.433.433,0,0,0,.433.433" transform="translate(-1350.096 -428.086)" fill="#fff"/>
            <path id="Trazado_6804" data-name="Trazado 6804" d="M1087.554,406.2a1.154,1.154,0,0,0-1.154,1.154v1.053h.876v-1.039a.613.613,0,0,1,.083-.317.235.235,0,0,1,.195-.13.242.242,0,0,1,.195.13.612.612,0,0,1,.083.317v1.035h.876v-1.053a1.154,1.154,0,0,0-1.154-1.154" transform="translate(-1047.226 -391.553)" fill="#fff"/>
            <path id="Trazado_6805" data-name="Trazado 6805" d="M1154.281,376.189a.487.487,0,1,0-.689,0l.108.108c.18.18.191.227.021.4l-.1.1a.44.44,0,0,0-.13.314v1.576h.884V377.1a.44.44,0,0,0-.13-.314l-.1-.1c-.17-.169-.159-.216.022-.4Z" transform="translate(-1111.858 -361.823)" fill="#fff"/>
            <path id="Trazado_6806" data-name="Trazado 6806" d="M1183.892,407.918a.241.241,0,0,1-.2.151c-.08,0-.144-.058-.195-.151a.869.869,0,0,1,0-.732.241.241,0,0,1,.195-.151.25.25,0,0,1,.2.151.727.727,0,0,1,.076.26h.876a1.154,1.154,0,1,0,0,.216h-.876a.727.727,0,0,1-.076.26" transform="translate(-1139.9 -391.745)" fill="#fff"/>
            <path id="Trazado_6807" data-name="Trazado 6807" d="M1251.9,407.988a.149.149,0,0,0-.022-.079l-.48-.725.332-.6a.437.437,0,1,0-.754-.443l-.4.71v-.476a.438.438,0,0,0-.876,0v1.77h.876v-.692l.461.692h.707a.152.152,0,0,0,.152-.151" transform="translate(-1204.637 -391.286)" fill="#fff"/>
            <path id="Trazado_6808" data-name="Trazado 6808" d="M1430.09,410.05H1430V410h.231v.047h-.087v.249h-.054Zm.206-.05h.007l.144.159.141-.159h.007v.3h-.054v-.184l-.094.108h-.011l-.094-.108v.184h-.054Z" transform="translate(-1378.436 -395.216)" fill="#fff"/>
          </g>
        </g>
        <circle id="Elipse_313" data-name="Elipse 313" cx="2.5" cy="2.5" r="2.5" transform="translate(-8962 3881)" fill="#fff"/>
        <circle id="Elipse_314" data-name="Elipse 314" cx="2.5" cy="2.5" r="2.5" transform="translate(-8894 3881)" fill="#fff"/>
      </g>
    </g>
  </g>
</svg>
