<svg id="anime" xmlns="http://www.w3.org/2000/svg" width="70.071" height="41.944" viewBox="0 0 70.071 41.944">
  <rect id="Rectángulo_19781" data-name="Rectángulo 19781" width="70.071" height="41.944" rx="6" transform="translate(0 0)"/>
  <g id="Grupo_26273" data-name="Grupo 26273" transform="translate(14.254 8.601)">
    <g id="Grupo_26271" data-name="Grupo 26271" transform="translate(1.082 0)">
      <path id="Trazado_67261" data-name="Trazado 67261" d="M5.177,18.208h2.64v7.128H5.177V24.7a2.32,2.32,0,0,1-1.911.841A2.948,2.948,0,0,1,.913,24.472,4.016,4.016,0,0,1,0,21.773a4.005,4.005,0,0,1,.913-2.7A2.947,2.947,0,0,1,3.267,18a2.325,2.325,0,0,1,1.911.841ZM2.988,22.729a1.186,1.186,0,0,0,.92.385,1.187,1.187,0,0,0,.92-.385,1.483,1.483,0,0,0,0-1.912,1.187,1.187,0,0,0-.92-.385,1.186,1.186,0,0,0-.92.385,1.483,1.483,0,0,0,0,1.912" transform="translate(0 -14.756)" fill="#fff"/>
      <path id="Trazado_67262" data-name="Trazado 67262" d="M54.229,18.007a2.38,2.38,0,0,1,1.876.8,3.534,3.534,0,0,1,.707,2.4v4.134h-2.64V21.507q0-.956-.884-.956a.884.884,0,0,0-.72.3,1.252,1.252,0,0,0-.247.827v3.663H49.678V18.212h2.643v.7a2.206,2.206,0,0,1,1.908-.9" transform="translate(-40.72 -14.76)" fill="#fff"/>
      <path id="Trazado_67263" data-name="Trazado 67263" d="M95.85,2.91a1.416,1.416,0,0,1-1.035-.435,1.415,1.415,0,0,1-.04-2l.04-.04A1.411,1.411,0,0,1,95.85,0a1.4,1.4,0,0,1,1.02.435,1.415,1.415,0,0,1,.04,2l-.04.04a1.4,1.4,0,0,1-1.02.435m-1.327.543h2.639v7.128H94.523Z" transform="translate(-77.363 0)" fill="#fff"/>
      <path id="Trazado_67264" data-name="Trazado 67264" d="M124.551,18.007a2.472,2.472,0,0,1,1.94.777,3.242,3.242,0,0,1,.7,2.223v4.333h-2.644V21.364q0-.813-.728-.813-.84,0-.841,1.056v3.733h-2.639V21.364q0-.813-.728-.813-.843,0-.842,1.056v3.733h-2.639V18.212h2.639v.667a2.35,2.35,0,0,1,1.94-.872,1.932,1.932,0,0,1,1.784.884,2.588,2.588,0,0,1,2.053-.884" transform="translate(-95.194 -14.76)" fill="#fff"/>
      <path id="Trazado_67265" data-name="Trazado 67265" d="M184.293,22.674a1.448,1.448,0,0,0,1.455.713,1.867,1.867,0,0,0,1.212-.447l1.727,1.455a3.905,3.905,0,0,1-3.024,1.155,4.048,4.048,0,0,1-2.933-1.067,3.55,3.55,0,0,1-1.105-2.675,3.707,3.707,0,0,1,3.8-3.8,3.589,3.589,0,0,1,2.675,1.067,3.659,3.659,0,0,1,1.047,2.676,3.806,3.806,0,0,1-.113.933Zm-.043-1.7h2.4a1.088,1.088,0,0,0-1.156-.856,1.231,1.231,0,0,0-1.244.859Z" transform="translate(-148.874 -14.76)" fill="#fff"/>
    </g>
    <g id="Grupo_26272" data-name="Grupo 26272" transform="translate(0 12.381)">
      <g id="Polígono_26" data-name="Polígono 26" transform="matrix(0.719, -0.695, 0.695, 0.719, 0, 4.238)" fill="none">
        <path d="M1.156,0,2.313,1.542H0Z" stroke="none"/>
        <path d="M 1.156269311904907 -3.576278686523438e-06 L 2.312539339065552 1.541696310043335 L -7.152557373046875e-07 1.541696310043335 L 1.156269311904907 -3.576278686523438e-06 Z" stroke="none" fill="#fff"/>
      </g>
      <g id="Polígono_27" data-name="Polígono 27" transform="translate(6.586 2.611) rotate(49)" fill="none">
        <path d="M1.156,0,2.313,1.542H0Z" stroke="none"/>
        <path d="M 1.156269311904907 -3.576278686523438e-06 L 2.312539339065552 1.541696310043335 L -7.152557373046875e-07 1.541696310043335 L 1.156269311904907 -3.576278686523438e-06 Z" stroke="none" fill="#fff"/>
      </g>
      <path id="Trazado_67266" data-name="Trazado 67266" d="M284.221,18.11a2.4,2.4,0,0,0-2.187,1.148v-.971h-1.173v6.743h1.173V21.457a2.3,2.3,0,0,1,.54-1.68,1.906,1.906,0,0,1,1.418-.55,1.645,1.645,0,0,1,1.227.453,1.735,1.735,0,0,1,.445,1.275v4.074h1.174V20.89a2.818,2.818,0,0,0-.715-2.031,2.506,2.506,0,0,0-1.9-.749" transform="translate(-271.744 -15.479)" fill="#1fa3a5"/>
      <path id="Trazado_67267" data-name="Trazado 67267" d="M324.823,18.11a3.408,3.408,0,0,0-2.552,1.009,3.48,3.48,0,0,0-.984,2.536A3.443,3.443,0,0,0,322.3,24.2a3.546,3.546,0,0,0,2.611,1.009,3.3,3.3,0,0,0,2.968-1.525l-1-.568a2.111,2.111,0,0,1-1.944.986,2.581,2.581,0,0,1-1.612-.5,2.22,2.22,0,0,1-.834-1.4h5.653a3.44,3.44,0,0,0,.04-.526,3.64,3.64,0,0,0-.937-2.522,3.118,3.118,0,0,0-2.422-1.041m-2.335,3.064a2.24,2.24,0,0,1,2.335-1.956,2.164,2.164,0,0,1,1.416.5A2.274,2.274,0,0,1,327,21.179Z" transform="translate(-305.275 -15.479)" fill="#1fa3a5"/>
      <path id="Trazado_67268" data-name="Trazado 67268" d="M371.4,19.444a2.863,2.863,0,0,0-2.538-1.337,3.291,3.291,0,0,0-2.442,1.019,3.616,3.616,0,0,0,0,4.991,3.279,3.279,0,0,0,2.442,1.025,2.875,2.875,0,0,0,2.538-1.35v.959a1.96,1.96,0,0,1-.6,1.514,2.331,2.331,0,0,1-1.652.554,2.2,2.2,0,0,1-2.2-1.135l-1.025.58a2.825,2.825,0,0,0,1.245,1.215,4.2,4.2,0,0,0,1.956.425,3.706,3.706,0,0,0,2.429-.83,2.843,2.843,0,0,0,1.009-2.327V18.284H371.4Zm-.689,3.886a2.42,2.42,0,1,1,.689-1.709,2.328,2.328,0,0,1-.689,1.709" transform="translate(-341.882 -15.476)" fill="#1fa3a5"/>
      <path id="Trazado_67269" data-name="Trazado 67269" d="M419.49,19.446a2.863,2.863,0,0,0-2.55-1.337,3.237,3.237,0,0,0-2.415,1.033,3.688,3.688,0,0,0,0,5.045,3.237,3.237,0,0,0,2.415,1.033,2.86,2.86,0,0,0,2.55-1.336v1.144h1.174V18.286H419.49Zm-.687,3.933a2.444,2.444,0,0,1-3.414,0,2.49,2.49,0,0,1,0-3.441,2.445,2.445,0,0,1,3.414,0,2.494,2.494,0,0,1,0,3.441" transform="translate(-381.781 -15.478)" fill="#1fa3a5"/>
      <rect id="Rectángulo_19782" data-name="Rectángulo 19782" width="1.174" height="6.747" transform="translate(40.327 2.808)" fill="#1fa3a5"/>
      <path id="Trazado_67270" data-name="Trazado 67270" d="M463.472,4.263a.78.78,0,0,0,.778-.781.779.779,0,0,0-.23-.56.745.745,0,0,0-.549-.238.757.757,0,0,0-.568.236.779.779,0,0,0-.23.56.757.757,0,0,0,.226.556.772.772,0,0,0,.571.227" transform="translate(-422.547 -2.684)" fill="#1fa3a5"/>
      <path id="Trazado_67271" data-name="Trazado 67271" d="M238.272,19.582l-2.374.362a3.605,3.605,0,0,0-2.558,0l-2.423-.359.436,2.62a3.578,3.578,0,0,0-.1.868,3.327,3.327,0,0,0,3.294,3.36h.066A3.28,3.28,0,0,0,237,25.461a3.226,3.226,0,0,0,.984-2.389,3.58,3.58,0,0,0-.1-.867Zm-6.491,1.6-.178-.924.937.132Zm4.44,3.513a2.255,2.255,0,0,1-3.858-1.622,2.2,2.2,0,0,1,.652-1.623,2.3,2.3,0,0,1,3.206,0,2.345,2.345,0,0,1,0,3.245m1.186-3.49-.769-.782.93-.15Z" transform="translate(-230.318 -16.7)" fill="#1fa3a5"/>
    </g>
  </g>
</svg>
