<svg id="babyfirts" xmlns="http://www.w3.org/2000/svg" width="70.071" height="41.451" viewBox="0 0 70.071 41.451">
  <rect id="Rectángulo_19777" data-name="Rectángulo 19777" width="70.071" height="41.451" rx="6" transform="translate(0 0)" fill="#fff"/>
  <g id="Grupo_26263" data-name="Grupo 26263" transform="translate(4.421 14.056)">
    <g id="Grupo_26261" data-name="Grupo 26261" transform="translate(15.177 1.856)">
      <path id="Trazado_67185" data-name="Trazado 67185" d="M-584.621-355.066a2.962,2.962,0,0,1,1.623-.307,2.729,2.729,0,0,1,2.2,3.459,2.739,2.739,0,0,1-3.115,2.038,2.724,2.724,0,0,1-2.319-2.672c-.006-1.311,0-2.622,0-3.932,0-.58.277-.883.795-.886a.767.767,0,0,1,.82.868C-584.616-356.036-584.621-355.573-584.621-355.066Zm2.31,2.486a1.182,1.182,0,0,0-1.145-1.3,1.2,1.2,0,0,0-1.218,1.243,1.226,1.226,0,0,0,1.141,1.284A1.181,1.181,0,0,0-582.311-352.581Z" transform="translate(586.239 357.59)" fill="#1660aa"/>
      <path id="Trazado_67186" data-name="Trazado 67186" d="M-429.867-354.458c0-.688-.005-1.376,0-2.064.005-.522.265-.818.717-.841a.747.747,0,0,1,.886.757c.037.425.019.856.017,1.284,0,.2.046.257.248.162a2.54,2.54,0,0,1,3.525,1.671,2.777,2.777,0,0,1-1.992,3.572,2.727,2.727,0,0,1-3.4-2.556c-.023-.661,0-1.324,0-1.986Zm3.927,1.824a1.173,1.173,0,0,0-1.205-1.239,1.174,1.174,0,0,0-1.148,1.256,1.194,1.194,0,0,0,1.186,1.266A1.2,1.2,0,0,0-425.941-352.633Z" transform="translate(442.106 357.587)" fill="#f79c36"/>
      <path id="Trazado_67187" data-name="Trazado 67187" d="M-502.592-328.71c0,.454,0,.8,0,1.155a.755.755,0,0,1-.47.776.752.752,0,0,1-.9-.162c-.109-.112-.178-.139-.321-.06a2.587,2.587,0,0,1-3.827-2.45,2.718,2.718,0,0,1,2.521-2.769,2.737,2.737,0,0,1,2.95,2.217A8.627,8.627,0,0,1-502.592-328.71Zm-3.916-.748a1.174,1.174,0,0,0,1.17,1.273,1.206,1.206,0,0,0,1.183-1.236,1.2,1.2,0,0,0-1.166-1.286A1.16,1.16,0,0,0-506.508-329.458Z" transform="translate(514.218 334.422)" fill="#66b464"/>
      <path id="Trazado_67188" data-name="Trazado 67188" d="M-354.215-329.276c.368-.829.71-1.61,1.061-2.387a.735.735,0,0,1,.931-.492c.558.156.742.578.486,1.157-.644,1.458-1.3,2.912-1.944,4.369-.221.5-.435,1-.664,1.491a.726.726,0,0,1-1.05.416.721.721,0,0,1-.373-1.034c.184-.442.365-.888.587-1.312a.845.845,0,0,0-.019-.9c-.543-.973-1.05-1.967-1.568-2.953-.274-.52-.182-.956.242-1.175.445-.23.864-.057,1.134.477C-355.005-330.857-354.624-330.092-354.215-329.276Z" transform="translate(374.866 334.387)" fill="#ed4936"/>
      <path id="Trazado_67189" data-name="Trazado 67189" d="M-132.249-326.635a2.568,2.568,0,0,1-1.893-.619.77.77,0,0,1-.143-1.079.745.745,0,0,1,1.077-.09,1.327,1.327,0,0,0,1.132.269c.119-.028.278-.08.275-.231,0-.126-.145-.176-.257-.2-.339-.085-.684-.148-1.022-.239a1.591,1.591,0,0,1-1.286-1.508,1.632,1.632,0,0,1,1.207-1.7,2.631,2.631,0,0,1,2.376.341.8.8,0,0,1,.3,1.08.753.753,0,0,1-1.087.2,1.317,1.317,0,0,0-1.066-.238c-.1.03-.217.05-.224.18s.115.171.209.2c.413.111.834.193,1.242.318a1.5,1.5,0,0,1,1.139,1.378,1.629,1.629,0,0,1-.824,1.6A2.134,2.134,0,0,1-132.249-326.635Z" transform="translate(169.795 334.369)" fill="#ed4936"/>
      <path id="Trazado_67190" data-name="Trazado 67190" d="M-280.448-354.741c0-.506,0-1.012,0-1.519,0-.173-.019-.264-.233-.308a.66.66,0,0,1-.559-.7.662.662,0,0,1,.542-.709c.207-.049.244-.15.275-.338a2.2,2.2,0,0,1,2.3-1.895.768.768,0,0,1,.792.7.749.749,0,0,1-.691.8c-.3.043-.6.068-.748.394-.086.191-.084.329.19.3a1.654,1.654,0,0,1,.351,0,.727.727,0,0,1,.668.772.724.724,0,0,1-.709.691c-.593.048-.593.048-.593.631,0,.844,0,1.687,0,2.531,0,.577-.284.888-.8.892s-.789-.312-.791-.889C-280.449-353.833-280.448-354.287-280.448-354.741Z" transform="translate(305.101 360.207)" fill="#145fa9"/>
      <path id="Trazado_67191" data-name="Trazado 67191" d="M-73.435-349.3c0-.195-.007-.39,0-.584.015-.324.056-.613-.413-.7-.294-.056-.415-.373-.389-.689a.637.637,0,0,1,.5-.623.331.331,0,0,0,.305-.426,2.968,2.968,0,0,1,0-.545.77.77,0,0,1,.815-.764.772.772,0,0,1,.775.8,2.228,2.228,0,0,1,0,.311c-.039.373-.014.628.5.59a.668.668,0,0,1,.647.736.678.678,0,0,1-.728.7c-.391-.023-.441.137-.426.462.023.505.006,1.012.008,1.519,0,.345.149.521.523.517a.729.729,0,0,1,.813.743.811.811,0,0,1-.809.824,1.925,1.925,0,0,1-2.121-1.974C-73.445-348.7-73.435-349-73.435-349.3Z" transform="translate(114.299 354.143)" fill="#1761aa"/>
      <path id="Trazado_67192" data-name="Trazado 67192" d="M-191.317-329.405c0-.636-.007-1.272,0-1.908a.787.787,0,0,1,1.257-.687.408.408,0,0,0,.453.021,2.3,2.3,0,0,1,1.559-.147,1.107,1.107,0,0,1,.569.319.677.677,0,0,1,.127.759.622.622,0,0,1-.639.418,6.048,6.048,0,0,0-1.011-.031.73.73,0,0,0-.731.824c0,.766,0,1.531,0,2.3-.005.581-.288.875-.811.867-.505-.008-.767-.3-.771-.864C-191.321-328.16-191.317-328.782-191.317-329.405Z" transform="translate(222.219 334.391)" fill="#f79b35"/>
      <path id="Trazado_67193" data-name="Trazado 67193" d="M-224.143-329.393c0,.635.005,1.269,0,1.9a.767.767,0,0,1-.783.862.787.787,0,0,1-.836-.863q-.015-1.884,0-3.769a.806.806,0,0,1,.816-.891c.495,0,.8.328.8.891C-224.138-330.636-224.143-330.014-224.143-329.393Z" transform="translate(253.976 334.344)" fill="#68b565"/>
      <path id="Trazado_67194" data-name="Trazado 67194" d="M-224.457-358.623a.739.739,0,0,1-.772-.784.755.755,0,0,1,.775-.787.769.769,0,0,1,.8.808A.766.766,0,0,1-224.457-358.623Z" transform="translate(253.474 360.196)" fill="#68b565"/>
      <path id="Trazado_67195" data-name="Trazado 67195" d="M-21.781-353.381c.087-.151.173-.308.266-.461a.147.147,0,0,1,.161-.083.142.142,0,0,1,.1.148c.005.168.01.337,0,.5,0,.107.048.266-.114.287s-.089-.185-.2-.276c-.144.223-.316.364-.462.007-.171.03-.048.341-.256.265-.163-.06-.074-.251-.094-.385s.06-.283-.065-.356a.324.324,0,0,0-.288.057c-.106.089-.031.243-.054.366s.075.313-.11.315-.109-.2-.12-.314c-.017-.181.068-.407-.233-.44a.086.086,0,0,1-.068-.118c.034-.078.114-.1.195-.1.269-.017.535.042.8.045C-21.953-353.915-22.038-353.531-21.781-353.381Z" transform="translate(67.37 354.455)" fill="#f8a84e"/>
    </g>
    <g id="Grupo_26262" data-name="Grupo 26262" transform="translate(0 0)">
      <path id="Trazado_67196" data-name="Trazado 67196" d="M-740.546-298.674a5.279,5.279,0,0,1-.166.686c-.549,1.433-2.028,1.678-3.267.547a2.053,2.053,0,0,1-.5-2.411c.065-.156.125-.315.187-.473a6.863,6.863,0,0,0,1.268-.941,3.674,3.674,0,0,0,2.272.87A4.348,4.348,0,0,1-740.546-298.674Z" transform="translate(747.11 308.687)" fill="#f28eb0"/>
      <path id="Trazado_67197" data-name="Trazado 67197" d="M-695.139-302.369a4.346,4.346,0,0,0-.2-1.722A3.21,3.21,0,0,0-693-305.28a5.223,5.223,0,0,1,1.232.565,7.254,7.254,0,0,1,.639.694,1.724,1.724,0,0,1-.4,2.391,2.233,2.233,0,0,1-3.473-.548C-695.047-302.243-695.094-302.306-695.139-302.369Z" transform="translate(701.703 312.382)" fill="#145fa9"/>
      <path id="Trazado_67198" data-name="Trazado 67198" d="M-703.038-392.822a4.206,4.206,0,0,1,.314-.97,1.721,1.721,0,0,1,2.223-.79,2.208,2.208,0,0,1,1.339,3.153,1.536,1.536,0,0,0-.069.262l0-.008-.084.085a6.12,6.12,0,0,0-1.129.862c-.326-.123-.468-.5-.818-.589a.554.554,0,0,0-.219-.677c-.085.214.138.38-.015.585a.689.689,0,0,0-.475-.217,1.6,1.6,0,0,0-.921-.3A5.626,5.626,0,0,1-703.038-392.822Z" transform="translate(708.793 394.725)" fill="#fce283"/>
      <path id="Trazado_67199" data-name="Trazado 67199" d="M-771.382-337.177a6.852,6.852,0,0,1-1.267.941,3.166,3.166,0,0,1-1.114.221,1.781,1.781,0,0,1-1.7-2.081,2.14,2.14,0,0,1,2.41-2.179c.374.087.657.4,1.056.424A2.638,2.638,0,0,0-771.382-337.177Z" transform="translate(775.473 344.598)" fill="#ed4735"/>
      <path id="Trazado_67200" data-name="Trazado 67200" d="M-670.323-350.908a6.124,6.124,0,0,1,1.129-.862c.044-.013.1-.016.085-.085l0,.008a2.2,2.2,0,0,0,.65-.129,1.732,1.732,0,0,1,2.121,1.654,2.2,2.2,0,0,1-2.4,2.586,5.232,5.232,0,0,0-1.232-.565,1.637,1.637,0,0,0,.231-1.672A10.372,10.372,0,0,0-670.323-350.908Z" transform="translate(678.672 355.404)" fill="#66b464"/>
      <path id="Trazado_67201" data-name="Trazado 67201" d="M-755.188-382.861c-.4-.025-.682-.336-1.056-.424-.162-.171-.329-.338-.486-.513a1.736,1.736,0,0,1,.293-2.649,2.212,2.212,0,0,1,3.362.525c.054.073.111.145.167.217a5.6,5.6,0,0,0,.148,1.4,7.131,7.131,0,0,0-.816.061A2.709,2.709,0,0,0-755.188-382.861Z" transform="translate(758.663 387.609)" fill="#f79b35"/>
      <path id="Trazado_67202" data-name="Trazado 67202" d="M-733.213-351.726a2.709,2.709,0,0,1,1.61-1.387,7.111,7.111,0,0,1,.816-.06,1.594,1.594,0,0,1,.921.3c-.234.272-.214.4.081.511.067.025.19-.01.179.1-.013.126-.13.143-.243.145-.08,0-.219-.07-.215.076s.149.137.249.127a.425.425,0,0,0,.421-.3.841.841,0,0,1,.238-.349c.35.09.492.467.818.589a10.453,10.453,0,0,1,.581.935,1.638,1.638,0,0,1-.231,1.672,3.21,3.21,0,0,1-2.336,1.189,3.675,3.675,0,0,1-2.272-.87A2.638,2.638,0,0,1-733.213-351.726Zm2.454.562c0-.173-.045-.316-.251-.322s-.477.33-.477.591c0,.161.06.284.235.3C-731.034-350.573-730.768-350.887-730.759-351.164Zm1.054.464c-.008-.157-.025-.338-.242-.323-.322.022-.427.28-.481.545-.034.168.023.343.234.327C-729.878-350.175-729.768-350.419-729.7-350.7Zm-.664.874a1.315,1.315,0,0,1-1.166-.506C-731.4-349.6-731-349.436-730.369-349.827Z" transform="translate(736.688 356.473)" fill="#faddbe"/>
      <path id="Trazado_67203" data-name="Trazado 67203" d="M-691.141-353.38a.842.842,0,0,0-.238.349.425.425,0,0,1-.421.3c-.1.01-.246,0-.249-.127s.135-.075.215-.076c.113,0,.23-.019.243-.145.011-.109-.112-.075-.179-.1-.295-.11-.315-.239-.081-.511a.688.688,0,0,1,.475.217c.153-.2-.07-.371.015-.585A.554.554,0,0,1-691.141-353.38Z" transform="translate(698.673 357.286)" fill="#632f19"/>
      <path id="Trazado_67204" data-name="Trazado 67204" d="M-656.016-350.039c.013.069-.04.072-.084.085Z" transform="translate(665.579 353.587)" fill="#fefefe"/>
      <path id="Trazado_67205" data-name="Trazado 67205" d="M-709.238-331.6c-.009.278-.275.592-.492.57-.175-.018-.236-.14-.235-.3,0-.261.267-.6.477-.591S-709.237-331.778-709.238-331.6Z" transform="translate(715.167 336.914)" fill="#632f19"/>
      <path id="Trazado_67206" data-name="Trazado 67206" d="M-696.017-325.778c-.063.281-.173.525-.489.549-.211.016-.268-.159-.234-.327.054-.265.159-.523.481-.545C-696.042-326.115-696.024-325.935-696.017-325.778Z" transform="translate(703 331.551)" fill="#632f19"/>
      <path id="Trazado_67207" data-name="Trazado 67207" d="M-709.405-316.889c-.632.39-1.03.23-1.166-.506A1.315,1.315,0,0,0-709.405-316.889Z" transform="translate(715.724 323.536)" fill="#f79b35"/>
    </g>
  </g>
</svg>
