<svg id="bomax" xmlns="http://www.w3.org/2000/svg" xmlns:xlink="http://www.w3.org/1999/xlink" width="71.552" height="42.438" viewBox="0 0 71.552 42.438">
  <defs>
    <linearGradient id="linear-gradient" y1="1" x2="1" y2="1" gradientUnits="objectBoundingBox">
      <stop offset="0" stop-color="#7d3299"/>
      <stop offset="1" stop-color="#421194"/>
    </linearGradient>
  </defs>
  <rect id="Rectángulo_19770" data-name="Rectángulo 19770" width="71.552" height="42.438" rx="6" fill="url(#linear-gradient)"/>
  <g id="Grupo_26252" data-name="Grupo 26252" transform="translate(9.504 16.366)">
    <path id="Trazado_67178" data-name="Trazado 67178" d="M2130.6-89.117v5.552c0,.06-.06.179-.119.179h-.776a.8.8,0,0,1-.776-.836v-4.836a1.579,1.579,0,0,0-1.671-1.612,1.616,1.616,0,0,0-1.672,1.612v5.492a.129.129,0,0,1-.12.119h-.776a.845.845,0,0,1-.776-.836v-4.836a1.58,1.58,0,0,0-1.671-1.612,1.58,1.58,0,0,0-1.672,1.612v5.492a.128.128,0,0,1-.119.119h-.776a.79.79,0,0,1-.776-.776v-4.836a3.177,3.177,0,0,1,3.343-3.283,3.326,3.326,0,0,1,2.507,1.015,3.325,3.325,0,0,1,2.507-1.015A3.177,3.177,0,0,1,2130.6-89.117Z" transform="translate(-2096.395 92.4)" fill="#fff"/>
    <path id="Trazado_67179" data-name="Trazado 67179" d="M2161.922-83.4c.06.06,0,.119-.06.119h-1.313a1.052,1.052,0,0,1-.9-.418l-1.373-2.03c-.119-.179-.239-.358-.478-.358s-.358.179-.478.358l-1.373,2.03a1.052,1.052,0,0,1-.9.418h-1.313c-.06,0-.06-.06-.06-.119l2.627-3.88a.85.85,0,0,0,.119-.358.85.85,0,0,0-.119-.358l-2.627-3.88c-.06-.06,0-.119.06-.119h1.313a1.052,1.052,0,0,1,.9.418l1.373,2.03c.119.179.239.358.478.358s.358-.179.478-.358l1.373-2.03a1.052,1.052,0,0,1,.9-.418h1.313c.06,0,.06.06.06.119L2159.295-88a.85.85,0,0,0-.119.358.85.85,0,0,0,.119.358Z" transform="translate(-2110.403 92.238)" fill="#fff"/>
    <path id="Trazado_67180" data-name="Trazado 67180" d="M2147.219-92.181h-.538a.911.911,0,0,0-.716.418l-.179.358a3.966,3.966,0,0,0-2.567-.9c-2.447,0-4.119,1.731-4.119,4.477,0,2.806,1.672,4.477,4.06,4.477a4.126,4.126,0,0,0,2.448-.776.8.8,0,0,0,.836.716h.776a.128.128,0,0,0,.119-.119v-8.537A.128.128,0,0,0,2147.219-92.181Zm-4,7.164a2.492,2.492,0,0,1-2.447-2.806c0-1.791,1.015-2.806,2.447-2.806s2.448,1.015,2.448,2.806A2.493,2.493,0,0,1,2143.219-85.017Z" transform="translate(-2104.535 92.359)" fill="#fff"/>
    <path id="Trazado_67181" data-name="Trazado 67181" d="M2085.2-88.817h-1.552V-92.1H2081.2v8.776h2.448v-3.4h1.552v3.4h2.388V-92.1H2085.2Z" transform="translate(-2081.2 92.279)" fill="#fff"/>
    <path id="Trazado_67182" data-name="Trazado 67182" d="M2103.287-92.4a4.323,4.323,0,0,0-4,2.567,2.558,2.558,0,0,0-2.328-2.388H2092.9v8.776h3.821a2.62,2.62,0,0,0,2.626-2.448,4.47,4.47,0,0,0,4,2.507,4.51,4.51,0,0,0,4.477-4.477A4.654,4.654,0,0,0,2103.287-92.4Zm-6.985,6.925h-1.194v-1.492h1.194a.717.717,0,0,1,.657.716C2096.9-85.833,2096.661-85.475,2096.3-85.475Zm0-3.283h-1.194v-1.492h1.194a.717.717,0,0,1,.657.716A.734.734,0,0,1,2096.3-88.758Zm1.612.836a2.248,2.248,0,0,0,.9-.537,4.414,4.414,0,0,0,0,1.254A1.726,1.726,0,0,0,2097.915-87.923Zm5.373,2.269a2.2,2.2,0,0,1-2.209-2.209,2.2,2.2,0,0,1,2.209-2.209,2.243,2.243,0,0,1,2.209,2.209A2.243,2.243,0,0,1,2103.287-85.654Z" transform="translate(-2085.916 92.4)" fill="#fff"/>
    <path id="Trazado_67183" data-name="Trazado 67183" d="M2109.132-87.8a1.733,1.733,0,0,0-1.732,1.731,1.733,1.733,0,0,0,1.732,1.731,1.732,1.732,0,0,0,1.731-1.731A1.732,1.732,0,0,0,2109.132-87.8Z" transform="translate(-2091.759 90.546)" fill="#fff"/>
  </g>
</svg>
