<svg id="cindie" xmlns="http://www.w3.org/2000/svg" width="71.907" height="41.247" viewBox="0 0 71.907 41.247">
  <rect id="Rect치ngulo_19779" data-name="Rect치ngulo 19779" width="71.907" height="41.247" rx="6" transform="translate(0 0)" fill="#f2f0df"/>
  <g id="Grupo_26269" data-name="Grupo 26269" transform="translate(9.001 12.855)">
    <path id="Trazado_67217" data-name="Trazado 67217" d="M2468.3-15.142a4.651,4.651,0,0,1,4.822-4.758,4.487,4.487,0,0,1,4.5,3.045l-2.094.508a2.434,2.434,0,0,0-2.347-1.586,2.567,2.567,0,0,0-2.6,2.728,2.6,2.6,0,0,0,2.6,2.728A2.33,2.33,0,0,0,2475.533-14l2.094.508a4.4,4.4,0,0,1-4.44,3.045A4.582,4.582,0,0,1,2468.3-15.142Z" transform="translate(-2468.301 20.538)" fill="#c9132f"/>
    <path id="Trazado_67218" data-name="Trazado 67218" d="M2487.8-15.7h2.094v6.662H2487.8Z" transform="translate(-2475.429 19.004)" fill="#1e1e1f"/>
    <path id="Trazado_67219" data-name="Trazado 67219" d="M2504.657-19.6v9.136h-1.776l-4.124-5.266v5.266H2496.6V-19.6h1.777l4.124,5.266V-19.6Z" transform="translate(-2478.646 20.429)" fill="#1e1e1f"/>
    <path id="Trazado_67220" data-name="Trazado 67220" d="M2523.465-15.032a4.234,4.234,0,0,1-4.314,4.568h-4.25V-19.6h4.25A4.234,4.234,0,0,1,2523.465-15.032Zm-2.221-.063a2.312,2.312,0,0,0-2.157-2.6h-2.03v5.266h2.03C2520.292-12.431,2521.244-13.446,2521.244-15.1Z" transform="translate(-2485.335 20.429)" fill="#1e1e1f"/>
    <path id="Trazado_67221" data-name="Trazado 67221" d="M2543.793-17.633v1.586h4.124v1.9h-4.124v1.713h4.758v1.967H2541.7V-19.6h6.916v1.967Z" transform="translate(-2495.132 20.429)" fill="#1e1e1f"/>
    <path id="Trazado_67222" data-name="Trazado 67222" d="M2489.991-19.507a1.408,1.408,0,0,1-1.4,1.4,1.408,1.408,0,0,1-1.4-1.4,1.408,1.408,0,0,1,1.4-1.4A1.331,1.331,0,0,1,2489.991-19.507Z" transform="translate(-2475.209 20.907)" fill="#c9132f"/>
    <rect id="Rect치ngulo_19780" data-name="Rect치ngulo 19780" width="2.094" height="6.662" transform="translate(41.175 0.576)" fill="#1e1e1f"/>
    <path id="Trazado_67223" data-name="Trazado 67223" d="M2534-8.7a1.409,1.409,0,0,0-1.4,1.4,1.409,1.409,0,0,0,1.4,1.4,1.408,1.408,0,0,0,1.4-1.4A1.368,1.368,0,0,0,2534-8.7Z" transform="translate(-2491.806 16.445)" fill="#c9132f"/>
    <path id="Trazado_67224" data-name="Trazado 67224" d="M2471.105-1.2V.005h-.317V-.121a.384.384,0,0,1-.381.19c-.317,0-.508-.19-.508-.571v-.7h.317v.634c0,.19.063.317.254.317s.317-.127.317-.381V-1.2Z" transform="translate(-2468.885 13.703)" fill="#1e1e1f"/>
    <path id="Trazado_67225" data-name="Trazado 67225" d="M2473.406-.729v.7h-.318V-.666c0-.19-.063-.317-.253-.317s-.317.127-.317.381v.571h-.317V-1.237h.317v.127a.384.384,0,0,1,.381-.19C2473.279-1.3,2473.406-1.046,2473.406-.729Z" transform="translate(-2469.726 13.739)" fill="#1e1e1f"/>
    <path id="Trazado_67226" data-name="Trazado 67226" d="M2477.467-.729v.7h-.317V-.666c0-.19-.064-.317-.254-.317s-.253.127-.253.317v.634h-.317V-.666c0-.19-.064-.317-.254-.317s-.254.127-.254.317v.634h-.317V-1.237h.317v.127a.385.385,0,0,1,.381-.19.384.384,0,0,1,.381.19.384.384,0,0,1,.38-.19C2477.277-1.3,2477.467-1.11,2477.467-.729Z" transform="translate(-2470.932 13.739)" fill="#1e1e1f"/>
    <path id="Trazado_67227" data-name="Trazado 67227" d="M2480.205-1.2V.005h-.317V-.121a.383.383,0,0,1-.38.19c-.317,0-.508-.19-.508-.571v-.7h.318v.634c0,.19.063.317.253.317s.317-.127.317-.381V-1.2Z" transform="translate(-2472.211 13.703)" fill="#1e1e1f"/>
    <path id="Trazado_67228" data-name="Trazado 67228" d="M2482.606-.729v.7h-.317V-.666c0-.19-.064-.317-.254-.317s-.317.127-.317.381v.571h-.317V-1.237h.317v.127a.383.383,0,0,1,.381-.19A.518.518,0,0,1,2482.606-.729Z" transform="translate(-2473.089 13.739)" fill="#1e1e1f"/>
    <path id="Trazado_67229" data-name="Trazado 67229" d="M2484.969-2.1V-.324h-.317V-.45a.383.383,0,0,1-.381.19.586.586,0,0,1-.571-.634.586.586,0,0,1,.571-.634.383.383,0,0,1,.381.19v-.7h.317Zm-.317,1.205a.355.355,0,0,0-.317-.381c-.19,0-.317.127-.317.381a.355.355,0,0,0,.317.381A.4.4,0,0,0,2484.652-.895Z" transform="translate(-2473.93 14.032)" fill="#1e1e1f"/>
    <path id="Trazado_67230" data-name="Trazado 67230" d="M2486.1-.566a.6.6,0,0,1,.634-.634.6.6,0,0,1,.635.634.6.6,0,0,1-.635.634A.636.636,0,0,1,2486.1-.566Zm.952,0a.355.355,0,0,0-.317-.381c-.19,0-.317.127-.317.381a.355.355,0,0,0,.317.381A.4.4,0,0,0,2487.052-.566Z" transform="translate(-2474.807 13.703)" fill="#1e1e1f"/>
    <path id="Trazado_67231" data-name="Trazado 67231" d="M2490.668-2.1V-.324h-.317V-.45a.384.384,0,0,1-.381.19.586.586,0,0,1-.571-.634.586.586,0,0,1,.571-.634.384.384,0,0,1,.381.19v-.7h.317Zm-.317,1.205a.355.355,0,0,0-.317-.381c-.19,0-.318.127-.318.381a.356.356,0,0,0,.318.381A.4.4,0,0,0,2490.352-.895Z" transform="translate(-2476.014 14.032)" fill="#1e1e1f"/>
    <path id="Trazado_67232" data-name="Trazado 67232" d="M2491.8-.566a.6.6,0,0,1,.635-.634.6.6,0,0,1,.634.634v.127h-.952c0,.127.127.254.381.254a.348.348,0,0,0,.316-.19l.318.063c-.063.19-.254.317-.571.317C2492.054.069,2491.8-.185,2491.8-.566Zm.951-.127a.29.29,0,0,0-.317-.254.29.29,0,0,0-.317.254Z" transform="translate(-2476.891 13.703)" fill="#1e1e1f"/>
    <path id="Trazado_67233" data-name="Trazado 67233" d="M2495-.566a.6.6,0,0,1,.634-.634.6.6,0,0,1,.635.634v.127h-.952c0,.127.127.254.38.254a.349.349,0,0,0,.318-.19l.318.063c-.064.19-.254.317-.572.317C2495.254.069,2495-.185,2495-.566Zm.952-.127a.29.29,0,0,0-.318-.254.29.29,0,0,0-.317.254Z" transform="translate(-2478.061 13.703)" fill="#1e1e1f"/>
    <path id="Trazado_67234" data-name="Trazado 67234" d="M2498.506-.729v.7h-.317V-.666c0-.19-.064-.317-.254-.317s-.318.127-.318.381v.571h-.317V-1.237h.317v.127A.385.385,0,0,1,2498-1.3C2498.379-1.3,2498.506-1.046,2498.506-.729Z" transform="translate(-2478.902 13.739)" fill="#1e1e1f"/>
    <path id="Trazado_67235" data-name="Trazado 67235" d="M2500.424-.177a.478.478,0,0,1-.253.063c-.253,0-.381-.19-.381-.444v-.508h-.19v-.254h.19V-1.7h.318v.381h.38v.254h-.38v.508c0,.127.063.127.126.127s.127,0,.127-.063Z" transform="translate(-2479.742 13.886)" fill="#1e1e1f"/>
    <path id="Trazado_67236" data-name="Trazado 67236" d="M2502-1.21v.317q-.38-.1-.38.381V0h-.318V-1.21h.318v.19A.307.307,0,0,1,2502-1.21Z" transform="translate(-2480.363 13.712)" fill="#1e1e1f"/>
    <path id="Trazado_67237" data-name="Trazado 67237" d="M2502.5-.566a.6.6,0,0,1,.634-.634.6.6,0,0,1,.635.634v.127h-.951c0,.127.127.254.381.254a.349.349,0,0,0,.317-.19l.317.063c-.064.19-.254.317-.571.317C2502.754.069,2502.5-.185,2502.5-.566Zm.951-.127a.29.29,0,0,0-.317-.254.29.29,0,0,0-.317.254Z" transform="translate(-2480.802 13.703)" fill="#1e1e1f"/>
    <path id="Trazado_67238" data-name="Trazado 67238" d="M2505.525-.177a.48.48,0,0,1-.254.063c-.254,0-.381-.19-.381-.444v-.508h-.19v-.254h.19V-1.7h.317v.381h.381v.254h-.381v.508c0,.127.063.127.127.127s.126,0,.126-.063Z" transform="translate(-2481.607 13.886)" fill="#1e1e1f"/>
    <path id="Trazado_67239" data-name="Trazado 67239" d="M2506.1-.566a.6.6,0,0,1,.634-.634.6.6,0,0,1,.635.634v.127h-.952c0,.127.127.254.381.254a.35.35,0,0,0,.317-.19l.317.063c-.064.19-.254.317-.571.317A.6.6,0,0,1,2506.1-.566Zm1.015-.127a.29.29,0,0,0-.318-.254.29.29,0,0,0-.317.254Z" transform="translate(-2482.118 13.703)" fill="#1e1e1f"/>
    <path id="Trazado_67240" data-name="Trazado 67240" d="M2509.705-.729v.7h-.317V-.666c0-.19-.064-.317-.254-.317s-.318.127-.318.381v.571h-.317V-1.237h.317v.127a.385.385,0,0,1,.381-.19A.518.518,0,0,1,2509.705-.729Z" transform="translate(-2482.996 13.739)" fill="#1e1e1f"/>
    <path id="Trazado_67241" data-name="Trazado 67241" d="M2510.8-1.91a.168.168,0,0,1,.19-.19.168.168,0,0,1,.191.19.168.168,0,0,1-.191.19A.2.2,0,0,1,2510.8-1.91Zm.063.381h.317V-.324h-.317Z" transform="translate(-2483.837 14.032)" fill="#1e1e1f"/>
    <path id="Trazado_67242" data-name="Trazado 67242" d="M2513.767-.729v.7h-.317V-.666c0-.19-.064-.317-.254-.317s-.254.127-.254.317v.634h-.317V-.666c0-.19-.063-.317-.253-.317s-.254.127-.254.317v.634h-.317V-1.237h.317v.127a.384.384,0,0,1,.381-.19.384.384,0,0,1,.381.19.383.383,0,0,1,.381-.19C2513.577-1.3,2513.767-1.11,2513.767-.729Z" transform="translate(-2484.202 13.739)" fill="#1e1e1f"/>
    <path id="Trazado_67243" data-name="Trazado 67243" d="M2515.4-1.91a.168.168,0,0,1,.19-.19.169.169,0,0,1,.191.19.169.169,0,0,1-.191.19A.168.168,0,0,1,2515.4-1.91Zm0,.381h.317V-.324h-.317Z" transform="translate(-2485.518 14.032)" fill="#1e1e1f"/>
    <path id="Trazado_67244" data-name="Trazado 67244" d="M2516.3-.566a.6.6,0,0,1,.634-.634.6.6,0,0,1,.635.634v.127h-.952c0,.127.127.254.381.254a.348.348,0,0,0,.317-.19l.318.063c-.063.19-.254.317-.571.317C2516.554.069,2516.3-.185,2516.3-.566Zm.951-.127a.29.29,0,0,0-.317-.254.29.29,0,0,0-.317.254Z" transform="translate(-2485.848 13.703)" fill="#1e1e1f"/>
    <path id="Trazado_67245" data-name="Trazado 67245" d="M2519.806-.729v.7h-.318V-.666c0-.19-.063-.317-.253-.317s-.318.127-.318.381v.571h-.317V-1.237h.317v.127a.385.385,0,0,1,.381-.19C2519.679-1.3,2519.806-1.046,2519.806-.729Z" transform="translate(-2486.688 13.739)" fill="#1e1e1f"/>
    <path id="Trazado_67246" data-name="Trazado 67246" d="M2521.725-.177a.479.479,0,0,1-.253.063c-.254,0-.38-.19-.38-.444v-.508h-.191v-.254h.191V-1.7h.317v.381h.381v.254h-.381v.508c0,.127.063.127.126.127s.127,0,.127-.063Z" transform="translate(-2487.529 13.886)" fill="#1e1e1f"/>
    <path id="Trazado_67247" data-name="Trazado 67247" d="M2522.4-.566a.6.6,0,0,1,.634-.634.6.6,0,0,1,.635.634.6.6,0,0,1-.635.634A.635.635,0,0,1,2522.4-.566Zm.952,0a.355.355,0,0,0-.317-.381c-.19,0-.317.127-.317.381a.355.355,0,0,0,.317.381A.4.4,0,0,0,2523.352-.566Z" transform="translate(-2488.077 13.703)" fill="#1e1e1f"/>
    <path id="Trazado_67248" data-name="Trazado 67248" d="M2525.7-1.91a.168.168,0,0,1,.19-.19.168.168,0,0,1,.19.19.168.168,0,0,1-.19.19A.168.168,0,0,1,2525.7-1.91Zm0,.381h.317V-.324h-.317Z" transform="translate(-2489.284 14.032)" fill="#1e1e1f"/>
    <path id="Trazado_67249" data-name="Trazado 67249" d="M2527.906-.729v.7h-.317V-.666c0-.19-.064-.317-.253-.317s-.317.127-.317.381v.571h-.317V-1.237h.317v.127a.384.384,0,0,1,.381-.19A.518.518,0,0,1,2527.906-.729Z" transform="translate(-2489.65 13.739)" fill="#1e1e1f"/>
    <path id="Trazado_67250" data-name="Trazado 67250" d="M2530.269-2.1V-.324h-.317V-.45a.384.384,0,0,1-.381.19A.586.586,0,0,1,2529-.895a.586.586,0,0,1,.571-.634.384.384,0,0,1,.381.19v-.7h.317Zm-.317,1.205a.355.355,0,0,0-.317-.381c-.191,0-.317.127-.317.381a.355.355,0,0,0,.317.381A.4.4,0,0,0,2529.952-.895Z" transform="translate(-2490.49 14.032)" fill="#1e1e1f"/>
    <path id="Trazado_67251" data-name="Trazado 67251" d="M2531.4-.566a.6.6,0,0,1,.635-.634.6.6,0,0,1,.635.634v.127h-.952c0,.127.127.254.381.254a.349.349,0,0,0,.317-.19l.317.063c-.063.19-.253.317-.571.317C2531.654.069,2531.4-.185,2531.4-.566Zm.951-.127a.29.29,0,0,0-.317-.254.29.29,0,0,0-.317.254Z" transform="translate(-2491.367 13.703)" fill="#1e1e1f"/>
    <path id="Trazado_67252" data-name="Trazado 67252" d="M2535.069-.6a.586.586,0,0,1-.57.634.384.384,0,0,1-.381-.19V.476h-.318V-1.237h.318v.127a.384.384,0,0,1,.381-.19A.646.646,0,0,1,2535.069-.6Zm-.317,0a.355.355,0,0,0-.317-.381c-.19,0-.317.127-.317.381a.356.356,0,0,0,.317.381A.4.4,0,0,0,2534.752-.6Z" transform="translate(-2492.245 13.739)" fill="#1e1e1f"/>
    <path id="Trazado_67253" data-name="Trazado 67253" d="M2536.1-.566a.6.6,0,0,1,.634-.634.6.6,0,0,1,.635.634v.127h-.952c0,.127.127.254.381.254a.35.35,0,0,0,.318-.19l.317.063c-.063.19-.254.317-.571.317C2536.354.069,2536.1-.185,2536.1-.566Zm.952-.127a.291.291,0,0,0-.318-.254.29.29,0,0,0-.317.254Z" transform="translate(-2493.086 13.703)" fill="#1e1e1f"/>
    <path id="Trazado_67254" data-name="Trazado 67254" d="M2539.607-.729v.7h-.318V-.666c0-.19-.063-.317-.254-.317s-.318.127-.318.381v.571h-.317V-1.237h.317v.127a.385.385,0,0,1,.381-.19C2539.479-1.3,2539.607-1.046,2539.607-.729Z" transform="translate(-2493.926 13.739)" fill="#1e1e1f"/>
    <path id="Trazado_67255" data-name="Trazado 67255" d="M2542.069-2.1V-.324h-.317V-.45a.384.384,0,0,1-.381.19.586.586,0,0,1-.571-.634.586.586,0,0,1,.571-.634.384.384,0,0,1,.381.19v-.7h.317Zm-.317,1.205a.355.355,0,0,0-.317-.381c-.191,0-.317.127-.317.381a.355.355,0,0,0,.317.381C2541.562-.577,2541.752-.7,2541.752-.895Z" transform="translate(-2494.803 14.032)" fill="#1e1e1f"/>
    <path id="Trazado_67256" data-name="Trazado 67256" d="M2543.2-1.91a.168.168,0,0,1,.191-.19.169.169,0,0,1,.191.19.169.169,0,0,1-.191.19A.2.2,0,0,1,2543.2-1.91Zm.064.381h.318V-.324h-.318Z" transform="translate(-2495.681 14.032)" fill="#1e1e1f"/>
    <path id="Trazado_67257" data-name="Trazado 67257" d="M2544.1-.566a.6.6,0,0,1,.634-.634.6.6,0,0,1,.634.634v.127h-.952c0,.127.127.254.381.254a.348.348,0,0,0,.317-.19l.318.063c-.064.19-.254.317-.571.317A.6.6,0,0,1,2544.1-.566Zm1.014-.127a.29.29,0,0,0-.317-.254.29.29,0,0,0-.317.254Z" transform="translate(-2496.01 13.703)" fill="#1e1e1f"/>
    <path id="Trazado_67258" data-name="Trazado 67258" d="M2547.706-.729v.7h-.318V-.666c0-.19-.063-.317-.253-.317s-.317.127-.317.381v.571h-.317V-1.237h.317v.127a.384.384,0,0,1,.381-.19A.518.518,0,0,1,2547.706-.729Z" transform="translate(-2496.888 13.739)" fill="#1e1e1f"/>
    <path id="Trazado_67259" data-name="Trazado 67259" d="M2549.625-.177a.478.478,0,0,1-.254.063c-.253,0-.381-.19-.381-.444v-.508h-.19v-.254h.19V-1.7h.317v.381h.381v.254h-.381v.508c0,.127.063.127.127.127s.127,0,.127-.063Z" transform="translate(-2497.728 13.886)" fill="#1e1e1f"/>
    <path id="Trazado_67260" data-name="Trazado 67260" d="M2550.2-.566a.6.6,0,0,1,.635-.634.6.6,0,0,1,.635.634v.127h-.952c0,.127.127.254.381.254a.348.348,0,0,0,.317-.19l.317.063c-.063.19-.253.317-.571.317A.6.6,0,0,1,2550.2-.566Zm.952-.127a.291.291,0,0,0-.318-.254.29.29,0,0,0-.317.254Z" transform="translate(-2498.24 13.703)" fill="#1e1e1f"/>
  </g>
</svg>
