<svg id="Edye" xmlns="http://www.w3.org/2000/svg" width="71.759" height="42.449" viewBox="0 0 71.759 42.449">
  <rect id="Rectángulo_19778" data-name="Rectángulo 19778" width="71.759" height="42.449" rx="6" transform="translate(0 0)" fill="#e8f7fc"/>
  <g id="Grupo_26267" data-name="Grupo 26267" transform="translate(11.994 5.282)">
    <g id="edye_principal" data-name="edye principal" transform="translate(23.424 15.642)">
      <g id="Grupo_26266" data-name="Grupo 26266" transform="translate(-23.424 -15.642)">
        <g id="Grupo_26265" data-name="Grupo 26265">
          <path id="Trazado_67208" data-name="Trazado 67208" d="M47.231,59.521a1.123,1.123,0,0,0-1.176,1.209,1.288,1.288,0,0,0,1.29,1.356,1.266,1.266,0,0,0,1.339-1.29A1.324,1.324,0,0,0,47.231,59.521Z" transform="translate(-31.037 -40.112)" fill="#214894"/>
          <path id="Trazado_67209" data-name="Trazado 67209" d="M21.446,54.369c-.229-1-.784-1.421-1.552-1.241-.882.2-1.241.817-1.045,1.911C19.731,54.81,20.581,54.6,21.446,54.369Z" transform="translate(-12.668 -35.777)" fill="#214894"/>
          <path id="Trazado_67210" data-name="Trazado 67210" d="M125.645,55.7c-.9-.163-1.454.278-1.7,1.356l2.646.392C126.772,56.448,126.429,55.844,125.645,55.7Z" transform="translate(-83.529 -37.513)" fill="#214894"/>
          <path id="Trazado_67211" data-name="Trazado 67211" d="M46.656,36.46a6.116,6.116,0,0,0-1.5-2.744,6.613,6.613,0,0,0-6.174-1.731,6.336,6.336,0,0,0-.8.212l-2.271-.555-.8-.147c-1.127-.229-2.188-.425-3.283-.621a2.136,2.136,0,0,0-1.846.588,2.334,2.334,0,0,0-1.96-.555c-.866.147-1.715.294-2.614.441.016-.719.049-1.437.065-2.172,0-.212,0-.408.016-.6v-.294l.017-1.731s-4.721-.343-5.7-.294A2.8,2.8,0,0,0,17.68,27a2.882,2.882,0,0,0-.686,2.123c-.017.588-.017,1.16-.033,1.731a5.836,5.836,0,0,0-1.829.2,6.383,6.383,0,0,0-3.561,2.418l-.1.147a6.092,6.092,0,0,0-2.238-1.731,6.632,6.632,0,0,0-6.37.719A6.334,6.334,0,0,0,.742,34.99a6.911,6.911,0,0,0-.735,2.842,8.17,8.17,0,0,0,.6,3.463A6.827,6.827,0,0,0,2.62,44.072a6,6,0,0,0,2.728,1.192,7.155,7.155,0,0,0,1.339.114,8.923,8.923,0,0,0,1.454-.131,8.2,8.2,0,0,0,4.491-2.221.227.227,0,0,0,.066.049A5.87,5.87,0,0,0,16.5,44.464a2.839,2.839,0,0,0,.376-.017,9.138,9.138,0,0,0,1.388-.228,3.259,3.259,0,0,0,1.747.441h2.63a2.418,2.418,0,0,0,1.5-.457c-.065.163-.147.327-.212.49l-.719,1.584,1.486.9a14.068,14.068,0,0,0,3.871,1.633,4,4,0,0,0,1.029.163,2.227,2.227,0,0,0,.931-.2,2.663,2.663,0,0,0,1.306-1.536c.245-.572.506-1.143.751-1.731.523-1.209,1.062-2.418,1.6-3.643a5.959,5.959,0,0,0,1.781,2.287,7.745,7.745,0,0,0,4.786,1.633c.229,0,.457-.016.686-.033a6.794,6.794,0,0,0,3.136-.9,3.786,3.786,0,0,0,1.4-2.221,5.039,5.039,0,0,0,.163-1.83,2.771,2.771,0,0,0,.523-1.078A7.345,7.345,0,0,0,46.656,36.46Zm-1.927,2.858c-.1.392-.784.588-1.617.6a4.6,4.6,0,0,1-3.022-.915,1.713,1.713,0,0,0-.278-.229c-.082-.049-.131-.049-.163.1a1.351,1.351,0,0,0,.98,1.6,5.425,5.425,0,0,0,2.564.343c.213-.017.409-.049.6-.082.718-.147.277,2.107-.376,2.548a4.969,4.969,0,0,1-2.221.555,5.812,5.812,0,0,1-4.084-1.225,4.659,4.659,0,0,1-1.486-4.573,5.637,5.637,0,0,1,1.437-2.907,1.963,1.963,0,0,1,.2-.18A4.421,4.421,0,0,1,39.4,33.9C43.111,33.194,45.561,35.954,44.728,39.319Zm-10.5-2.466c-.2.457-.392.915-.6,1.372q-1.789,4.116-3.61,8.232c-.277.653-.294.653-1,.457a12.615,12.615,0,0,1-3.365-1.421c.474-1.045.915-2.058,1.388-3.054a1.436,1.436,0,0,0,.016-1.241c-.261-.719-.523-1.421-.768-2.14-.343-.98-.686-1.976-1.029-2.957l-.588-1.715c-.049-.147-.1-.278-.147-.425a1.829,1.829,0,0,1-.147-.474l.964-.163c1.012-.163,2.009-.327,3.005-.49.294-.049.392.114.441.359.115.474.229.964.343,1.437q.245,1,.49,2.009v.033c.033.147.065.294.147.588.114-.359.212-.67.31-.947.065-.2.114-.376.18-.555.1-.278.18-.556.278-.849.2-.6.408-1.225.621-1.829.049-.131.229-.327.31-.31,1.323.229,2.63.49,4.051.768-.082.212-.163.441-.261.637-.033.082-.066.163-.1.261-.18.474-.359.931-.539,1.388A10.965,10.965,0,0,1,34.226,36.853ZM23.152,42.128c-.017.425-.114.621-.572.6-.849-.016-1.7,0-2.564,0-.555-.016-1.062-.1-.915-.751a14.092,14.092,0,0,1-2.368.539,4.138,4.138,0,0,1-4.3-3.479c-.016-.049-.016-.1-.033-.147a6.757,6.757,0,0,1-.131-1.274,4.836,4.836,0,0,1,.9-2.989,4.236,4.236,0,0,1,5.5-1.258c.033.016.1.033.212.082.016-1.454.016-2.858.049-4.263.016-.931.033-.947.947-.98.931-.033,1.879-.049,2.81-.049.261,0,.539.065.849.1,0,.31,0,.588-.016.849-.066,1.829-.114,3.659-.18,5.5-.066,2.238-.147,4.475-.2,6.713C23.168,41.589,23.152,41.867,23.152,42.128Zm-11.858-.768a4.877,4.877,0,0,1-1.829,1.372,5.809,5.809,0,0,1-4.247.441C2.441,42.39,1.3,38.845,2.294,36.3A4.344,4.344,0,0,1,3.96,34.255c3.153-2.074,6.5-.457,7.023,2.973a.562.562,0,0,1-.065.31c-.441.833-2.973,1.731-4.328,1.192a2.82,2.82,0,0,0-.343-.114c-.082-.016-.147.016-.114.147.016.147.2,1.094,1.519,1.094a5.6,5.6,0,0,0,3.021-1c.376-.245.686.457.768,1.208A2.365,2.365,0,0,1,11.294,41.361Z" transform="translate(0 -17.689)" fill="#214894"/>
          <path id="Trazado_67212" data-name="Trazado 67212" d="M14.631,53.509a5.744,5.744,0,0,1-3.021,1,1.352,1.352,0,0,1-1.519-1.094c-.016-.131.033-.163.114-.147a1.419,1.419,0,0,1,.343.114c1.356.539,3.887-.359,4.328-1.192a.536.536,0,0,0,.065-.31c-.539-3.43-3.871-5.047-7.023-2.973a4.344,4.344,0,0,0-1.666,2.042c-1,2.548.147,6.076,2.924,6.876a5.809,5.809,0,0,0,4.247-.441,4.877,4.877,0,0,0,1.829-1.372,2.1,2.1,0,0,0,.147-1.291C15.317,53.966,15.007,53.263,14.631,53.509ZM10.172,51.6c-.2-1.078.147-1.7,1.045-1.911.768-.18,1.323.245,1.552,1.241C11.887,51.157,11.038,51.369,10.172,51.6Z" transform="translate(-3.974 -32.336)" fill="#fff"/>
          <path id="Trazado_67213" data-name="Trazado 67213" d="M45.25,32.121c-.9.033-.915.049-.947.98-.033,1.4-.033,2.793-.049,4.263-.131-.049-.18-.049-.212-.082a4.232,4.232,0,0,0-5.5,1.258,4.836,4.836,0,0,0-.9,2.989,6.759,6.759,0,0,0,.131,1.274c.016.049.016.1.033.147a4.138,4.138,0,0,0,4.3,3.479,13.738,13.738,0,0,0,2.368-.539c-.147.653.359.735.915.751.849.016,1.7-.016,2.564,0,.457.016.555-.18.572-.6,0-.262.016-.523.016-.8q.1-3.356.2-6.713c.065-1.829.114-3.659.18-5.5.016-.278,0-.539.016-.849-.31-.033-.588-.1-.849-.1C47.128,32.088,46.2,32.088,45.25,32.121Zm-4.867,10.11a1.123,1.123,0,0,1,1.176-1.209A1.343,1.343,0,0,1,43.012,42.3a1.257,1.257,0,0,1-1.339,1.29A1.3,1.3,0,0,1,40.383,42.232Z" transform="translate(-25.365 -21.614)" fill="#fff"/>
          <path id="Trazado_67214" data-name="Trazado 67214" d="M81.946,46.3c-.082-.016-.262.18-.31.31-.212.6-.425,1.209-.621,1.829-.1.278-.18.555-.278.849-.065.18-.114.359-.18.555-.1.294-.2.6-.31.947-.065-.294-.114-.441-.147-.588v-.033l-.49-2.009c-.114-.473-.228-.964-.343-1.437-.049-.245-.147-.408-.441-.359-1,.163-1.993.327-3.005.49l-.964.163a1.158,1.158,0,0,0,.147.474c.049.147.1.277.147.425l.588,1.715c.343.98.67,1.976,1.029,2.956.245.719.506,1.437.768,2.14a1.436,1.436,0,0,1-.016,1.241c-.473,1-.915,2.009-1.388,3.054A12.425,12.425,0,0,0,79.5,60.441c.719.18.719.18,1-.457q1.813-4.116,3.61-8.232c.2-.457.392-.915.6-1.372.147-.327.278-.67.425-1.013.18-.457.359-.915.539-1.388.033-.082.065-.163.1-.261.082-.212.163-.425.261-.637C84.576,46.786,83.269,46.525,81.946,46.3Z" transform="translate(-50.447 -31.199)" fill="#fff"/>
          <path id="Trazado_67215" data-name="Trazado 67215" d="M112.809,49.436a4.424,4.424,0,0,0-2.14,1.062c-.065.065-.13.114-.2.18a5.574,5.574,0,0,0-1.438,2.907,4.731,4.731,0,0,0,1.487,4.573,5.861,5.861,0,0,0,4.083,1.225,5.024,5.024,0,0,0,2.222-.555c.669-.441,1.11-2.7.376-2.548-.2.033-.408.065-.6.082a5.419,5.419,0,0,1-2.564-.343,1.35,1.35,0,0,1-.98-1.6c.033-.131.1-.131.163-.1a3.488,3.488,0,0,1,.278.229,4.6,4.6,0,0,0,3.021.915c.833-.017,1.519-.229,1.617-.6C118.984,51.511,116.534,48.75,112.809,49.436Zm3.675,3.74-2.646-.392c.245-1.078.8-1.519,1.7-1.356C116.321,51.576,116.664,52.18,116.485,53.177Z" transform="translate(-73.422 -33.245)" fill="#fff"/>
          <path id="Trazado_67216" data-name="Trazado 67216" d="M31.287,1.38A1.38,1.38,0,1,1,29.906,0,1.38,1.38,0,0,1,31.287,1.38Zm-1.38,9.141a1.38,1.38,0,1,0-1.381-1.38A1.38,1.38,0,0,0,29.906,10.521Zm-1.79,2.8a.888.888,0,1,0-.888-.888A.888.888,0,0,0,28.116,13.322Zm-1.092-5.9a2.158,2.158,0,1,0-2.158-2.158A2.158,2.158,0,0,0,27.024,7.418Z" transform="translate(-16.757 0)" fill="#204496" fill-rule="evenodd"/>
        </g>
      </g>
    </g>
  </g>
</svg>
