<svg xmlns="http://www.w3.org/2000/svg" width="212" height="60" viewBox="0 0 212 60">
  <g id="Grupo_14846" data-name="Grupo 14846" transform="translate(-81 342)">
    <rect id="Rectángulo_8467" data-name="Rectángulo 8467" width="212" height="60" transform="translate(81 -342)" fill="none"/>
    <g id="Grupo_14845" data-name="Grupo 14845" transform="translate(-198 -3218)">
      <g id="FreedomPop_Azul" data-name="FreedomPop Azul" transform="translate(290 2885)">
        <g id="Grupo_7198" data-name="Grupo 7198">
          <path id="Trazado_7760" data-name="Trazado 7760" d="M6.694,3.6,3.7,21.61H8l1.15-6.8H15.7l.6-3.581H9.749l.594-3.771h7.481L18.472,3.6Z" transform="translate(-3.7 -3.6)" fill="#00a1ed"/>
          <g id="Grupo_7197" data-name="Grupo 7197" transform="translate(13.172)">
            <path id="Trazado_7761" data-name="Trazado 7761" d="M182.2,64.472a4.251,4.251,0,0,1,3.131-2.072,3.063,3.063,0,0,1,1.326.3l-.952,3.8a3.08,3.08,0,0,0-3.527.975l-1.425,8.449H176.6L178.825,62.7h3.23Z" transform="translate(-176.6 -57.92)" fill="#00a1ed"/>
            <path id="Trazado_7762" data-name="Trazado 7762" d="M311.6,74.574a10.807,10.807,0,0,1-5.7,1.676c-3.55,0-5.5-2.049-5.5-5.478,0-4.952,3.223-8.373,7.877-8.373,3.322,0,4.9,1.95,4.9,4.251,0,2.971-1.851,4.1-8.38,4.472,0,.975.754,1.775,2.2,1.775a9.927,9.927,0,0,0,3.977-.975Zm-2.316-7.847c0-.678-.526-1.181-1.5-1.181a3.113,3.113,0,0,0-2.925,2.849c2.278-.175,4.426-.175,4.426-1.676" transform="translate(-290.968 -57.92)" fill="#00a1ed"/>
            <path id="Trazado_7763" data-name="Trazado 7763" d="M487.8,74.574a10.807,10.807,0,0,1-5.7,1.676c-3.55,0-5.5-2.049-5.5-5.478,0-4.952,3.23-8.373,7.877-8.373,3.322,0,4.9,1.95,4.9,4.251,0,2.971-1.844,4.1-8.373,4.472,0,.975.754,1.775,2.2,1.775a9.927,9.927,0,0,0,3.977-.975Zm-2.324-7.847c0-.678-.526-1.181-1.5-1.181a3.113,3.113,0,0,0-2.926,2.849c2.278-.175,4.426-.175,4.426-1.676" transform="translate(-453.745 -57.92)" fill="#00a1ed"/>
            <path id="Trazado_7764" data-name="Trazado 7764" d="M662.478,20a5.517,5.517,0,0,1-4.205,1.927c-2.948,0-4.373-1.927-4.373-5.15,0-5.752,3.375-8.7,6.872-8.7a4.009,4.009,0,0,1,3.2,1.448l.983-5.927h4.122l-3,18.01h-3.626Zm.952-7.4a2.59,2.59,0,0,0-2.08-1.021c-1.874,0-2.971,1.6-2.971,4.426,0,1.425.5,2.453,1.874,2.453a3.579,3.579,0,0,0,2.4-1.128Z" transform="translate(-617.537 -3.6)" fill="#00a1ed"/>
            <path id="Trazado_7765" data-name="Trazado 7765" d="M852.308,62.4c3.474,0,5.775,2.026,5.775,5.63a8.909,8.909,0,0,1-.1,1.356c-.724,5.12-4.076,6.872-7.832,6.872s-5.752-2-5.752-5.523a12.114,12.114,0,0,1,.076-1.318c.625-5.028,4.175-7.009,7.824-7.009m-3.619,8.121c0,1.63.823,2.3,2.072,2.3,1.371,0,2.522-.9,2.925-3.451a7.662,7.662,0,0,0,.1-1.249c0-1.653-.808-2.3-1.981-2.3-1.478,0-2.621.975-2.994,3.375a9.079,9.079,0,0,0-.122,1.326" transform="translate(-793.524 -57.92)" fill="#00a1ed"/>
            <path id="Trazado_7766" data-name="Trazado 7766" d="M1037.63,62.6l.1,1.547a5.945,5.945,0,0,1,4.152-1.851,2.7,2.7,0,0,1,2.857,1.775,6.459,6.459,0,0,1,4.373-1.775c2.377,0,3.428,1.478,2.948,4.327l-1.547,9.2h-4.152l1.394-8.327c.175-1.074.031-1.653-.945-1.653a3.327,3.327,0,0,0-1.95.876l-1.524,9.1h-4.16l1.379-8.175c.175-1.12.175-1.8-.8-1.8a2.993,2.993,0,0,0-2.072.929l-1.531,9.051H1032l2.225-13.226Z" transform="translate(-966.832 -57.828)" fill="#00a1ed"/>
            <path id="Trazado_7767" data-name="Trazado 7767" d="M1313.394,3.6h6.9c3.55,0,5.531,1.851,5.531,4.975,0,4.3-2.605,7.329-7.8,7.329h-2.377l-.945,5.7h-4.3Zm3.68,3.756-.823,5.005h2.118a2.785,2.785,0,0,0,3.078-3c0-1.2-.678-2-2.156-2Z" transform="translate(-1224.022 -3.6)" fill="#00a1ed"/>
            <path id="Trazado_7768" data-name="Trazado 7768" d="M1519.7,62.4c3.482,0,5.782,2.026,5.782,5.63a8.66,8.66,0,0,1-.107,1.348c-.724,5.12-4.076,6.872-7.824,6.872s-5.752-2-5.752-5.523a11.163,11.163,0,0,1,.076-1.318c.625-5.028,4.175-7.009,7.824-7.009m-3.619,8.129c0,1.63.823,2.3,2.072,2.3,1.379,0,2.529-.9,2.926-3.451a7.662,7.662,0,0,0,.1-1.249c0-1.653-.8-2.3-1.981-2.3-1.47,0-2.621.975-2.994,3.375a9.368,9.368,0,0,0-.122,1.326" transform="translate(-1410.079 -57.92)" fill="#00a1ed"/>
            <path id="Trazado_7769" data-name="Trazado 7769" d="M1679.1,80.92l3.047-18.223h3.375l.206,1.524a6.313,6.313,0,0,1,4.4-1.821c2.453,0,4.175,1.646,4.175,5.173,0,5.051-2.377,8.655-6.75,8.655a4.235,4.235,0,0,1-3.3-1.4l-1.006,6.095Zm5.676-9.2a3.018,3.018,0,0,0,2.156,1.051c1.745,0,2.9-1.425,2.9-4.548,0-1.554-.526-2.377-1.7-2.377a4.341,4.341,0,0,0-2.575,1.249Z" transform="translate(-1564.633 -57.92)" fill="#00a1ed"/>
          </g>
        </g>
      </g>
      <text id="Telefonía_Celular_FreedomPop" data-name="Telefonía Celular FreedomPop" transform="translate(291 2924)" fill="#d0d0d0" font-size="14" font-family="Roboto-Medium, Roboto" font-weight="500"><tspan x="0" y="0">Telefonía Celular FreedomPop</tspan></text>
    </g>
  </g>
</svg>
