<svg xmlns="http://www.w3.org/2000/svg" width="44.325" height="44.324" viewBox="0 0 44.325 44.324"><defs><style>.a{fill:#cecccc;}</style></defs><g transform="translate(-81.816 -197)"><g transform="translate(94.455 229.031)"><path class="a" d="M102.159,246.361a.866.866,0,1,0,.866.866A.866.866,0,0,0,102.159,246.361Z" transform="translate(-101.293 -246.361)"/></g><g transform="translate(81.816 197)"><path class="a" d="M120.786,213.448l5.1-5.1a.865.865,0,0,0-.357-1.439l-12.423-3.834a8.658,8.658,0,0,0-16.294-.652l-14.389,4.487a.866.866,0,0,0-.354,1.439l5.236,5.236-3.3,5.5a.866.866,0,0,0,.469,1.267l4.79,1.6v13.315a.865.865,0,0,0,.562.811c2.928,1.1,13.809,5.179,13.867,5.2a.863.863,0,0,0,.554.008l.008,0,15.583-5.194a.867.867,0,0,0,.592-.822V221.593l5.108-1.6a.865.865,0,0,0,.352-1.438Zm-7.285-7.791c0-.22-.009-.439-.026-.658l10.172,3.139-4.32,4.319-7.058-2.352A8.68,8.68,0,0,0,113.5,205.657ZM98.293,203.4a6.926,6.926,0,0,1,13.477,2.254,6.924,6.924,0,0,1-6.926,6.925,6.932,6.932,0,0,1-6.551-9.179Zm-13.987,4.731L96.279,204.4a8.7,8.7,0,0,0-.092,1.256,8.6,8.6,0,0,0,.959,3.962l-8.517,2.839Zm1.737,10.917,2.737-4.562,13.9,4.633-2.738,4.563Zm17.069,20.158-12.12-4.545V222.527c9.536,3.162,9.07,3.066,9.336,3.066a.866.866,0,0,0,.742-.421l2.042-3.4Zm.866-21.479-12.845-4.282,6.994-2.332a8.654,8.654,0,0,0,13.044.448l5.652,1.884Zm14.718,16.91-13.852,4.617V221.111l3.069,3.836a.866.866,0,0,0,.936.285l9.847-3.094Zm-9.8-11.239-3.465-4.33,13.9-4.633,4.326,4.326Z" transform="translate(-81.816 -197)"/></g><g transform="translate(97.724 230.176)"><g transform="translate(0)"><path class="a" d="M109.426,248.9l-1.925-.722a.866.866,0,1,0-.608,1.621l1.925.722a.866.866,0,0,0,.608-1.622Z" transform="translate(-106.331 -248.124)"/></g></g><g transform="translate(94.455 232.648)"><g transform="translate(0)"><path class="a" d="M107.657,253.937l-5.194-1.947a.866.866,0,1,0-.608,1.621l5.194,1.948a.866.866,0,0,0,.608-1.622Z" transform="translate(-101.293 -251.935)"/></g></g><g transform="translate(101.381 202.194)"><g transform="translate(0)"><path class="a" d="M120.37,205.258a.866.866,0,0,0-1.225,0l-4.582,4.582-1.119-1.119a.865.865,0,0,0-1.224,1.224l1.731,1.731a.866.866,0,0,0,1.225,0l5.194-5.194A.866.866,0,0,0,120.37,205.258Z" transform="translate(-111.966 -205.004)"/></g></g></g></svg>