<svg xmlns="http://www.w3.org/2000/svg" width="42.722" height="42.723" viewBox="0 0 42.722 42.723"><defs><style>.a{fill:#cecccc;}</style></defs><g transform="translate(-1120.081 -267.172)"><path class="a" d="M1155.462,314.123a11.571,11.571,0,1,1,11.57-11.57A11.584,11.584,0,0,1,1155.462,314.123Zm0-21.361a9.79,9.79,0,1,0,9.79,9.791A9.8,9.8,0,0,0,1155.462,292.763Z" transform="translate(-4.229 -4.229)"/><path class="a" d="M1154.835,308.541a.9.9,0,0,1-.63-.26l-3.56-3.56a.89.89,0,0,1,1.258-1.258l2.887,2.887,5.6-6.4a.89.89,0,0,1,1.341,1.172l-6.23,7.12a.9.9,0,0,1-.641.3Z" transform="translate(-5.382 -5.767)"/><path class="a" d="M1136.992,305.707h-12.46a4.455,4.455,0,0,1-4.451-4.45V278.116a4.455,4.455,0,0,1,4.451-4.45h3.56a.89.89,0,0,1,0,1.781h-3.56a2.673,2.673,0,0,0-2.67,2.669v23.141a2.674,2.674,0,0,0,2.67,2.67h12.46a.89.89,0,1,1,0,1.78Z" transform="translate(0 -1.153)"/><path class="a" d="M1154.066,284.346a.89.89,0,0,1-.89-.89v-5.341a2.673,2.673,0,0,0-2.67-2.669h-3.56a.89.89,0,0,1,0-1.781h3.56a4.455,4.455,0,0,1,4.45,4.45v5.341A.89.89,0,0,1,1154.066,284.346Z" transform="translate(-4.613 -1.153)"/><path class="a" d="M1142.09,277.853h-10.68a2.673,2.673,0,0,1-2.669-2.67v-3.56a.889.889,0,0,1,.89-.89h2.759a4.451,4.451,0,0,1,8.722,0h2.759a.89.89,0,0,1,.89.89v3.56A2.673,2.673,0,0,1,1142.09,277.853Zm-11.57-5.341v2.67a.892.892,0,0,0,.89.89h10.68a.892.892,0,0,0,.891-.89v-2.67h-2.67a.89.89,0,0,1-.89-.89,2.67,2.67,0,1,0-5.341,0,.89.89,0,0,1-.89.89Z" transform="translate(-1.538)"/><path class="a" d="M1145.266,286.269h-17.8a.89.89,0,1,1,0-1.78h17.8a.89.89,0,0,1,0,1.78Z" transform="translate(-1.153 -3.076)"/><path class="a" d="M1139.926,292.763h-12.461a.89.89,0,0,1,0-1.78h12.461a.89.89,0,0,1,0,1.78Z" transform="translate(-1.153 -4.229)"/><path class="a" d="M1136.366,299.256h-8.9a.89.89,0,1,1,0-1.78h8.9a.89.89,0,0,1,0,1.78Z" transform="translate(-1.153 -5.382)"/></g></svg>