<svg id="editar_2_" data-name="editar (2)" xmlns="http://www.w3.org/2000/svg" width="11.449" height="11.449" viewBox="0 0 11.449 11.449">
  <path id="Trazado_1525" data-name="Trazado 1525" d="M292.926,61l.591-.591,2.957,2.957-.591.591Zm0,0" transform="translate(-286.375 -59.059)" fill="#25273b"/>
  <path id="Trazado_1526" data-name="Trazado 1526" d="M52.332,112.968l4.906-4.906,1.241,1.241-4.905,4.906Zm0,0" transform="translate(-51.162 -105.646)" fill="#25273b"/>
  <path id="Trazado_1527" data-name="Trazado 1527" d="M129.063,189.7l4.905-4.906,1.241,1.241-4.905,4.906Zm0,0" transform="translate(-126.176 -180.664)" fill="#25273b"/>
  <path id="Trazado_1528" data-name="Trazado 1528" d="M.748,351,0,354.6l3.6-.748Zm0,0" transform="translate(0 -343.151)" fill="#25273b"/>
  <path id="Trazado_1529" data-name="Trazado 1529" d="M343.962,1.2l-.746-.746a1.565,1.565,0,0,0-2.211,0l-.419.419,2.957,2.957.419-.419A1.565,1.565,0,0,0,343.962,1.2Zm0,0" transform="translate(-332.97 0.001)" fill="#25273b"/>
</svg>
