<svg xmlns="http://www.w3.org/2000/svg" width="98.813" height="48" viewBox="0 0 98.813 48">
  <g id="Grupo_6766" data-name="Grupo 6766" transform="translate(-1078 -1097)">
    <text id="_Dish_Plus_2021" data-name="© Dish Plus 2021" transform="translate(1170 1143)" fill="#fff" font-size="11" font-family="ArialMT, Arial"><tspan x="-85.148" y="0">© Dish Plus 2021</tspan></text>
    <g id="Grupo_8" data-name="Grupo 8" transform="translate(1078 1097)">
      <g id="Grupo_1" data-name="Grupo 1">
        <path id="Trazado_198" data-name="Trazado 198" d="M15.6,44.4h8.319c3.429,0,6.16.889,8.065,2.6s2.921,4.445,2.921,8.129-.953,6.414-2.921,8.129a11.835,11.835,0,0,1-8.065,2.6H15.6Zm5.334,16.956h3.112a4.771,4.771,0,0,0,4.128-1.715,7.181,7.181,0,0,0,1.334-4.509,7.651,7.651,0,0,0-1.27-4.572,4.979,4.979,0,0,0-4.191-1.715H20.934Z" transform="translate(-15.6 -43.765)" fill="#fff"/>
        <path id="Trazado_199" data-name="Trazado 199" d="M51,44.4h5.4V65.928H51Z" transform="translate(-28.519 -43.765)" fill="#fff"/>
        <path id="Trazado_200" data-name="Trazado 200" d="M67.028,59.086a15.268,15.268,0,0,0,2.921,2.032,7.872,7.872,0,0,0,3.3.7,5.94,5.94,0,0,0,2.731-.635,1.877,1.877,0,0,0,1.27-1.842c0-1.016-.826-1.651-2.413-1.905l-4.445-.7A8.487,8.487,0,0,1,65.821,54.7a5.17,5.17,0,0,1-1.588-3.937,6.392,6.392,0,0,1,2.477-5.525A10.392,10.392,0,0,1,73,43.4,13.415,13.415,0,0,1,78.2,44.48a11.4,11.4,0,0,1,4.255,3.048L78.4,50.449a7.622,7.622,0,0,0-2.54-1.969,7.006,7.006,0,0,0-3.175-.7,4.342,4.342,0,0,0-2.1.572,1.816,1.816,0,0,0-.953,1.588,1.572,1.572,0,0,0,.7,1.334,5.1,5.1,0,0,0,2.286.7l2.032.318a14.6,14.6,0,0,1,5.779,1.969,4.7,4.7,0,0,1,2.032,4.191c0,2.858-1.016,4.89-2.985,5.969a13.384,13.384,0,0,1-6.858,1.651,12.7,12.7,0,0,1-5.207-1.016A13.489,13.489,0,0,1,62.9,61.689Z" transform="translate(-32.862 -43.4)" fill="#fff"/>
        <path id="Trazado_201" data-name="Trazado 201" d="M98.7,44.4h5.4v7.748h8V44.4h5.4V65.928h-5.4V56.847h-8v9.081H98.7V44.4Z" transform="translate(-45.928 -43.765)" fill="#fff"/>
      </g>
      <g id="Grupo_2" data-name="Grupo 2" transform="translate(77.285 0.635)">
        <path id="Trazado_202" data-name="Trazado 202" d="M51,44.4h5.4V65.928H51Z" transform="translate(-42.935 -44.4)" fill="#fff"/>
        <path id="Trazado_203" data-name="Trazado 203" d="M0,0H5.4V21.528H0Z" transform="translate(21.528 8.065) rotate(90)" fill="#fff"/>
      </g>
    </g>
  </g>
</svg>
