<svg xmlns="http://www.w3.org/2000/svg" xmlns:xlink="http://www.w3.org/1999/xlink" width="157.5" height="51.453" viewBox="0 0 157.5 51.453">
  <defs>
    <linearGradient id="linear-gradient" x1="0.5" y1="0.146" x2="0.5" y2="0.716" gradientUnits="objectBoundingBox">
      <stop offset="0" stop-color="#f16522"/>
      <stop offset="0.993" stop-color="#f6921e"/>
    </linearGradient>
    <linearGradient id="linear-gradient-2" x1="0.5" y1="-0.159" x2="0.5" y2="0.615" xlink:href="#linear-gradient"/>
    <linearGradient id="linear-gradient-4" x1="0.5" y1="0.365" x2="0.5" y2="1.196" gradientUnits="objectBoundingBox">
      <stop offset="0" stop-color="#f0f1f1"/>
      <stop offset="1" stop-color="#a6a8ab"/>
    </linearGradient>
    <linearGradient id="linear-gradient-5" x1="0.5" y1="0.367" x2="0.5" y2="1.183" xlink:href="#linear-gradient-4"/>
    <linearGradient id="linear-gradient-6" x1="0.5" y1="0.369" x2="0.5" y2="1.19" xlink:href="#linear-gradient-4"/>
  </defs>
  <g id="Grupo_17510" data-name="Grupo 17510" transform="translate(-594.715 -145.287)">
    <g id="Grupo_17512" data-name="Grupo 17512" transform="translate(611.076 186.072)">
      <g id="Grupo_17511" data-name="Grupo 17511" transform="translate(0 0)">
        <path id="Trazado_25156" data-name="Trazado 25156" d="M668.466,345.418v-6.189h1.208l.183.9a2.63,2.63,0,0,1,2-.9,1.625,1.625,0,0,1,1.6.849,2.954,2.954,0,0,1,1.986-.849q2.134,0,2.134,2.352v3.837H676.01v-3.9q0-1.032-.931-1.032a1.916,1.916,0,0,0-1.338.625v4.3h-1.562V341.54q0-1.049-.861-1.049a1.792,1.792,0,0,0-1.291.625v4.3Z" transform="translate(-668.466 -336.99)" fill="#f6921e"/>
        <path id="Trazado_25157" data-name="Trazado 25157" d="M712.65,342.263q0-3.112,3.065-3.112t3.065,3.112q0,3.106-3.065,3.106T712.65,342.263Zm3.065,1.916q1.5,0,1.5-1.939,0-1.892-1.5-1.892t-1.5,1.892Q714.212,344.178,715.715,344.178Z" transform="translate(-702.848 -336.929)" fill="#f6921e"/>
        <path id="Trazado_25158" data-name="Trazado 25158" d="M740.1,339.229h1.65l1.5,4.326,1.562-4.326h1.65l-2.517,6.189h-1.485Z" transform="translate(-724.206 -336.99)" fill="#f6921e"/>
        <path id="Trazado_25159" data-name="Trazado 25159" d="M771.5,329.135v1.238h-1.562v-1.238Zm0,2.239v6.189h-1.562v-6.189Z" transform="translate(-747.424 -329.135)" fill="#f6921e"/>
        <path id="Trazado_25160" data-name="Trazado 25160" d="M783.017,339.229q2.817,0,2.817,2.876a5.563,5.563,0,0,1-.053.766h-4.108q0,1.308,1.921,1.308a10.1,10.1,0,0,0,1.874-.177v1.238a9.609,9.609,0,0,1-1.992.177q-3.365,0-3.365-3.165Q780.111,339.229,783.017,339.229Zm-1.344,2.558h2.64v-.047a1.141,1.141,0,0,0-1.3-1.284Q781.779,340.455,781.673,341.787Z" transform="translate(-755.343 -336.99)" fill="#f6921e"/>
        <path id="Trazado_25161" data-name="Trazado 25161" d="M807.985,344.918v-1.3a6.376,6.376,0,0,0,2.381.413q1.008,0,1.008-.648,0-.619-.678-.619h-1.12a1.654,1.654,0,0,1-1.886-1.857q0-1.945,2.752-1.945a6.731,6.731,0,0,1,2.2.354v1.3a5.975,5.975,0,0,0-2.24-.413q-1.267,0-1.267.648,0,.619.737.619h1q2.063,0,2.063,1.856,0,1.945-2.629,1.945A7.137,7.137,0,0,1,807.985,344.918Z" transform="translate(-776.804 -336.784)" fill="#f6921e"/>
        <path id="Trazado_25162" data-name="Trazado 25162" d="M855.737,339.229h1.65l1.5,4.326,1.562-4.326h1.65l-2.517,6.189H858.1Z" transform="translate(-814.192 -336.99)" fill="#f6921e"/>
        <path id="Trazado_25163" data-name="Trazado 25163" d="M887.137,329.135v1.238h-1.562v-1.238Zm0,2.239v6.189h-1.562v-6.189Z" transform="translate(-837.411 -329.135)" fill="#f6921e"/>
        <path id="Trazado_25164" data-name="Trazado 25164" d="M901.528,337.192a10.941,10.941,0,0,1-2.776.371q-3,0-3-3.218,0-2.97,2.935-2.971a3.1,3.1,0,0,1,1.279.3v-2.534h1.562Zm-1.562-4.2a2.165,2.165,0,0,0-1.214-.318q-1.456,0-1.456,1.633,0,1.939,1.515,1.939a3.819,3.819,0,0,0,1.155-.171Z" transform="translate(-845.33 -329.135)" fill="#f6921e"/>
        <path id="Trazado_25165" data-name="Trazado 25165" d="M927.832,339.229q2.817,0,2.817,2.876a5.592,5.592,0,0,1-.053.766h-4.108q0,1.308,1.921,1.308a10.1,10.1,0,0,0,1.874-.177v1.238a9.6,9.6,0,0,1-1.992.177q-3.366,0-3.365-3.165Q924.926,339.229,927.832,339.229Zm-1.344,2.558h2.64v-.047a1.141,1.141,0,0,0-1.3-1.284Q926.594,340.455,926.488,341.787Z" transform="translate(-868.032 -336.99)" fill="#f6921e"/>
        <path id="Trazado_25166" data-name="Trazado 25166" d="M952.505,342.263q0-3.112,3.064-3.112t3.065,3.112q0,3.106-3.065,3.106T952.505,342.263Zm3.064,1.916q1.5,0,1.5-1.939,0-1.892-1.5-1.892t-1.5,1.892Q954.067,344.178,955.569,344.178Z" transform="translate(-889.493 -336.929)" fill="#f6921e"/>
        <path id="Trazado_25167" data-name="Trazado 25167" d="M1006.15,344.918v-1.3a6.377,6.377,0,0,0,2.381.413q1.008,0,1.008-.648,0-.619-.678-.619h-1.12a1.654,1.654,0,0,1-1.886-1.857q0-1.945,2.752-1.945a6.733,6.733,0,0,1,2.2.354v1.3a5.978,5.978,0,0,0-2.24-.413q-1.267,0-1.267.648,0,.619.736.619h1q2.063,0,2.063,1.856,0,1.945-2.628,1.945A7.139,7.139,0,0,1,1006.15,344.918Z" transform="translate(-931.008 -336.784)" fill="#f6921e"/>
        <path id="Trazado_25168" data-name="Trazado 25168" d="M1031.839,334.714h1.155l.236,1h1.556v1.238H1033.4V339.8q0,.866.749.866h.636V341.9H1033.4q-1.556,0-1.556-1.668Z" transform="translate(-951.227 -333.476)" fill="#f6921e"/>
        <path id="Trazado_25169" data-name="Trazado 25169" d="M1047.729,345.418v-6.189h1.208l.195.79a2.452,2.452,0,0,1,1.721-.79v1.261a2.108,2.108,0,0,0-1.562.725v4.2Z" transform="translate(-963.592 -336.99)" fill="#f6921e"/>
        <path id="Trazado_25170" data-name="Trazado 25170" d="M1065.2,339.229q2.817,0,2.818,2.876a5.573,5.573,0,0,1-.053.766h-4.108q0,1.308,1.921,1.308a10.1,10.1,0,0,0,1.874-.177v1.238a9.61,9.61,0,0,1-1.992.177q-3.366,0-3.365-3.165Q1062.292,339.229,1065.2,339.229Zm-1.344,2.558h2.641v-.047a1.141,1.141,0,0,0-1.3-1.284Q1063.96,340.455,1063.854,341.787Z" transform="translate(-974.924 -336.99)" fill="#f6921e"/>
        <path id="Trazado_25171" data-name="Trazado 25171" d="M1089.871,343.491q0-1.845,2.688-1.845a6.862,6.862,0,0,1,1.262.118V341.3q0-.831-1.2-.831a9.792,9.792,0,0,0-2.251.295v-1.238a9.8,9.8,0,0,1,2.251-.3q2.759,0,2.758,2.039v4.149h-.907l-.554-.554a3.079,3.079,0,0,1-1.78.554Q1089.871,345.418,1089.871,343.491Zm2.688-.784q-1.126,0-1.126.766,0,.826.943.825a2.409,2.409,0,0,0,1.444-.483v-.99A6.438,6.438,0,0,0,1092.559,342.707Z" transform="translate(-996.385 -336.99)" fill="#f6921e"/>
        <path id="Trazado_25172" data-name="Trazado 25172" d="M1119.176,345.418v-6.189h1.208l.182.9a2.63,2.63,0,0,1,2-.9,1.624,1.624,0,0,1,1.6.849,2.955,2.955,0,0,1,1.986-.849q2.134,0,2.133,2.352v3.837h-1.562v-3.9q0-1.032-.931-1.032a1.915,1.915,0,0,0-1.338.625v4.3h-1.562V341.54q0-1.049-.861-1.049a1.792,1.792,0,0,0-1.291.625v4.3Z" transform="translate(-1019.189 -336.99)" fill="#f6921e"/>
        <path id="Trazado_25173" data-name="Trazado 25173" d="M1166.25,329.135v1.238h-1.562v-1.238Zm0,2.239v6.189h-1.562v-6.189Z" transform="translate(-1054.605 -329.135)" fill="#f6921e"/>
        <path id="Trazado_25174" data-name="Trazado 25174" d="M1176.194,345.418v-6.189h1.208l.195.908a2.77,2.77,0,0,1,2.028-.908q2.2,0,2.2,2.287v3.9h-1.562v-3.9a.9.9,0,0,0-1.019-1.026,2.3,2.3,0,0,0-1.486.607v4.32Z" transform="translate(-1063.558 -336.99)" fill="#f6921e"/>
        <path id="Trazado_25175" data-name="Trazado 25175" d="M1210.522,344.946q0,2.711-3.259,2.711a6.4,6.4,0,0,1-2.027-.3v-1.238a6.546,6.546,0,0,0,2.039.295q1.686,0,1.686-1.414a3.8,3.8,0,0,1-1.5.295q-2.758,0-2.758-3.012,0-3.058,3.212-3.059a16.308,16.308,0,0,1,2.6.254Zm-1.562-4.314a3.277,3.277,0,0,0-1.091-.142q-1.621,0-1.621,1.786,0,1.727,1.4,1.727a2.936,2.936,0,0,0,1.315-.318Z" transform="translate(-1085.744 -336.99)" fill="#f6921e"/>
      </g>
      <rect id="Rect치ngulo_9815" data-name="Rect치ngulo 9815" width="0.481" height="7.579" transform="translate(38.621 0.992)" fill="#fff"/>
      <rect id="Rect치ngulo_9816" data-name="Rect치ngulo 9816" width="0.481" height="7.579" transform="translate(71.707 0.992)" fill="#fff"/>
    </g>
    <g id="Grupo_17514" data-name="Grupo 17514" transform="translate(594.715 145.287)">
      <g id="Grupo_17513" data-name="Grupo 17513" transform="translate(85.624 0)">
        <path id="Trazado_25176" data-name="Trazado 25176" d="M980.683,178.1V145.287h6.081v11.795a9.471,9.471,0,0,1,7.274-3.075q8.559,0,8.559,8.9V178.1h-6.081V162.91q0-3.993-3.97-3.993a8.962,8.962,0,0,0-5.783,2.364V178.1Z" transform="translate(-980.683 -145.287)" fill="url(#linear-gradient)"/>
        <path id="Trazado_25177" data-name="Trazado 25177" d="M1114.3,184.24v24.173h-4.75l-.734-3.075a14.56,14.56,0,0,1-8.812,3.075q-7.389,0-7.389-8.743V184.24h6.081v15.269q0,3.993,3.488,3.993a9.948,9.948,0,0,0,6.035-2.363v-16.9Z" transform="translate(-1067.784 -175.599)" fill="url(#linear-gradient-2)"/>
        <path id="Trazado_25178" data-name="Trazado 25178" d="M1203.514,145.287h6.081v10.555a10.66,10.66,0,0,1,6.081-1.836q10.28,0,10.28,11.565,0,12.529-11.772,12.529a62.908,62.908,0,0,1-10.671-.987Zm6.081,27.238a15.963,15.963,0,0,0,4.842.665q5.507,0,5.507-7.779,0-6.356-4.75-6.356a12.53,12.53,0,0,0-5.6,1.239Z" transform="translate(-1154.081 -145.287)" fill="url(#linear-gradient)"/>
      </g>
      <path id="Trazado_25179" data-name="Trazado 25179" d="M773.887,201.084l-5.852-16.843H761.61l9.2,24.094h5.783l9.8-24.094h-6.425Z" transform="translate(-724.586 -175.599)" fill="url(#linear-gradient-4)"/>
      <path id="Trazado_25180" data-name="Trazado 25180" d="M888.087,192.958h-3.9a3.75,3.75,0,0,1-1.838-.386,2.121,2.121,0,0,1-1.031-2.023,2.1,2.1,0,0,1,1.479-2.007,9.161,9.161,0,0,1,3.455-.517,23.366,23.366,0,0,1,8.451,1.5l.269.106v-5.048a26.209,26.209,0,0,0-8.559-1.377,19.241,19.241,0,0,0-5.371.653,8.835,8.835,0,0,0-2.784,1.325,5.972,5.972,0,0,0-1.921,2.345,6.77,6.77,0,0,0-.48,1.512,8.987,8.987,0,0,0-.16,1.738,11.219,11.219,0,0,0,.188,2.126,6.515,6.515,0,0,0,1.122,2.691,5.427,5.427,0,0,0,2.4,1.809,8.141,8.141,0,0,0,1.821.477,12.259,12.259,0,0,0,1.808.125h4.36a3.555,3.555,0,0,1,1.449.26,1.847,1.847,0,0,1,.892.8,2.75,2.75,0,0,1,.3,1.346,2.172,2.172,0,0,1-.532,1.517,3,3,0,0,1-1.6.832,8.078,8.078,0,0,1-1.8.176q-1.462,0-2.828-.124a25.4,25.4,0,0,1-3.257-.5,20.812,20.812,0,0,1-3.186-.979v5.048a27.778,27.778,0,0,0,9.041,1.377q10.234,0,10.234-7.573a10.8,10.8,0,0,0-.127-1.7,7.255,7.255,0,0,0-.6-1.99,5.5,5.5,0,0,0-2.46-2.546A10.341,10.341,0,0,0,888.087,192.958Z" transform="translate(-813.362 -174.794)" fill="url(#linear-gradient-5)"/>
      <path id="Trazado_25181" data-name="Trazado 25181" d="M613.129,186.965l.08-.09a11.559,11.559,0,0,1,3.462-2.7,9.49,9.49,0,0,1,4.135-.971,10.2,10.2,0,0,1,7.548,3.453,10.963,10.963,0,0,1,3.125,7.729v13.22h-6.01v-13.22c0-2.86-2.163-5.4-4.663-5.4-2.6,0-4.712,2.482-4.712,5.4v13.22H610.1v-13.22c0-2.914-2.115-5.4-4.712-5.4-2.5,0-4.663,2.536-4.663,5.4v13.22h-6.01v-13.22a10.962,10.962,0,0,1,3.125-7.729,10.2,10.2,0,0,1,7.548-3.453,9.491,9.491,0,0,1,4.135.971,11.564,11.564,0,0,1,3.462,2.7l.08.09.031.034Z" transform="translate(-594.715 -174.794)" fill="url(#linear-gradient-6)"/>
    </g>
  </g>
</svg>
