<svg id="netflix" xmlns="http://www.w3.org/2000/svg" width="70.071" height="41.451" viewBox="0 0 70.071 41.451">
  <rect id="Rectángulo_19767" data-name="Rectángulo 19767" width="70.071" height="41.451" rx="6" fill="#fff"/>
  <path id="Trazado_67163" data-name="Trazado 67163" d="M2248.1-86.233c.69.058,1.438.115,2.128.173V-98.542H2248.1Zm-34.226-4.659-2.761-7.708H2209.1v13.575c.69-.115,1.438-.173,2.128-.288v-7.363L2213.7-85.6c.748-.115,1.553-.173,2.3-.23V-98.542h-2.128Zm4.2,4.832c1.955-.173,3.911-.345,5.925-.46v-2.071c-1.266.058-2.531.173-3.8.23v-3.164c.805,0,1.9-.058,2.876,0V-93.6H2220.2v-2.876h3.8V-98.6h-5.925Zm7.248-10.411h2.243v9.779c.69,0,1.438-.058,2.128-.058v-9.721h2.243V-98.6h-6.557v2.128Zm7.938,9.721h2.128v-4.832h2.876v-2.071h-2.876v-2.761h3.8v-2.128h-5.925ZM2259.6-98.542h-2.359l-1.553,3.566-1.38-3.566h-2.3l2.474,6.385-2.7,6.27c.748.058,1.5.173,2.243.23l1.553-3.624,1.553,4.027,2.415.345h0l-2.76-7.133Zm-16.911,0h-2.129v11.907c1.957.058,3.854.173,5.753.288v-2.128c-1.208-.058-2.416-.173-3.624-.23Z" transform="translate(-2199.61 113.891)" fill="#e62c2a"/>
</svg>
