<svg xmlns="http://www.w3.org/2000/svg" width="51.602" height="42" viewBox="0 0 51.602 42">
  <g id="Grupo_14753" data-name="Grupo 14753" transform="translate(-173.494 -146.087)">
    <g id="Grupo_14753-2" data-name="Grupo 14753" transform="translate(173.494 146.087)">
      <path id="Trazado_19102" data-name="Trazado 19102" d="M202.034,179.273H177.509a4.02,4.02,0,0,1-4.015-4.015V150.1a4.02,4.02,0,0,1,4.015-4.015H211.83a4.02,4.02,0,0,1,4.015,4.015v14.77l-1.131-.255a10.949,10.949,0,0,0-12.989,13.49Zm-24.525-31.33a2.162,2.162,0,0,0-2.16,2.16v25.155a2.162,2.162,0,0,0,2.16,2.16h22.17a12.8,12.8,0,0,1,14.31-14.812V150.1a2.162,2.162,0,0,0-2.16-2.16Z" transform="translate(-173.494 -146.087)" fill="#cecccc"/>
      <path id="Trazado_19103" data-name="Trazado 19103" d="M413.857,315.56a12.806,12.806,0,0,1-12.368-9.5l1.793-.476a10.942,10.942,0,1,0,12.989-13.49l.407-1.81a12.8,12.8,0,0,1-2.822,25.28Z" transform="translate(-375.052 -273.56)" fill="#cecccc"/>
    </g>
    <path id="Trazado_19104" data-name="Trazado 19104" d="M462.111,373.308a1.272,1.272,0,0,1-.9-.374l-3.753-3.753a1.275,1.275,0,1,1,1.8-1.8l2.874,2.874,5.993-5.69a1.275,1.275,0,0,1,1.756,1.85l-6.894,6.545A1.272,1.272,0,0,1,462.111,373.308Z" transform="translate(-250.705 -192.831)" fill="#cecccc"/>
    <path id="Trazado_19105" data-name="Trazado 19105" d="M217.73,212.621H178.544a1.276,1.276,0,1,1,0-2.551H217.73a1.276,1.276,0,0,1,0,2.551Z" transform="translate(-3.336 -56.564)" fill="#cecccc"/>
    <path id="Trazado_19106" data-name="Trazado 19106" d="M217.73,261.542H178.544a1.276,1.276,0,0,1,0-2.551H217.73a1.276,1.276,0,0,1,0,2.551Z" transform="translate(-3.336 -99.812)" fill="#cecccc"/>
    <path id="Trazado_19107" data-name="Trazado 19107" d="M230.219,331.536h-9.513a1.276,1.276,0,0,1,0-2.551h9.513a1.276,1.276,0,1,1,0,2.551Z" transform="translate(-40.61 -161.69)" fill="#cecccc"/>
    <path id="Trazado_19108" data-name="Trazado 19108" d="M230.219,366.763h-9.513a1.276,1.276,0,0,1,0-2.551h9.513a1.276,1.276,0,1,1,0,2.551Z" transform="translate(-40.61 -192.832)" fill="#cecccc"/>
  </g>
</svg>
