<svg xmlns="http://www.w3.org/2000/svg" xmlns:xlink="http://www.w3.org/1999/xlink" width="70.833" height="41.946" viewBox="0 0 70.833 41.946">
  <defs>
    <clipPath id="clip-path">
      <rect id="Rect치ngulo_19769" data-name="Rect치ngulo 19769" width="51.157" height="31.847" fill="none"/>
    </clipPath>
  </defs>
  <g id="paramount" transform="translate(-120 -601)">
    <g id="Grupo_26850" data-name="Grupo 26850" transform="translate(-229 -4)">
      <g id="Grupo_26251" data-name="Grupo 26251" transform="translate(349 605)">
        <rect id="Rect치ngulo_19768" data-name="Rect치ngulo 19768" width="70.834" height="41.946" rx="6" fill="#1164fb"/>
        <g id="Grupo_26250" data-name="Grupo 26250" transform="translate(9.767 5.141)">
          <g id="Grupo_26249" data-name="Grupo 26249" transform="translate(0 0)" clip-path="url(#clip-path)">
            <path id="Trazado_67172" data-name="Trazado 67172" d="M46.518,29.152c-.123-.05-.332-.287.011-.927l.8-1.669c.023-.05-.033-.112-.073-.074l-.7.7a12.082,12.082,0,0,0-1,1.489l-.842,1.4a.112.112,0,0,1,.116.108.1.1,0,0,1-.015.061l-.775,1.3c-.192.32.151.551.2.472,1.213-1.96,1.919-1.8,1.919-1.8l.4-.939a.1.1,0,0,0-.046-.126l0,0" transform="translate(-23.731 -12.777)" fill="#fff"/>
            <path id="Trazado_67173" data-name="Trazado 67173" d="M46.887,8.268A12.591,12.591,0,0,0,36.754,28.333a2.629,2.629,0,0,0,1.034-.832l2.343-3a.484.484,0,0,1,.185-.147l.354-.151,3.854-4.887.562-.438,1.146-1.6a.461.461,0,0,1,.107-.106l.5-.366a.361.361,0,0,1,.416-.005l.606.427a2.388,2.388,0,0,1,.77.887l2.437,4.28a.383.383,0,0,0,.192.185,3.349,3.349,0,0,1,1.392.96c.292.314,1.568,1.747,3.357,3.965a2.547,2.547,0,0,0,1.011.821A12.591,12.591,0,0,0,46.887,8.268m-9.2,13.285-.814-.264-.506.7v-.86l-.814-.266.814-.264v-.862l.506.7.814-.264-.506.694ZM37.5,24.361l-.264.815-.263-.814h-.859l.7-.5-.27-.815.7.506.7-.506-.265.815.7.506Zm.163-6.5.264.815-.7-.506-.7.506.264-.815-.7-.506h.859l.264-.814.263.814h.859Zm1.379-1.848-.506-.7-.814.263.506-.7-.506-.7.814.264.506-.7v.859l.814.264-.814.263Zm2.146-3.005-.264.821-.264-.821H39.8l.7-.506-.264-.814.7.506.7-.506-.264.814.7.506Zm2.7-1.379-.506.7V11.47l-.814-.264.814-.263v-.86l.506.7.814-.264-.506.7.506.7Zm3.424-.783.264.815-.7-.506-.7.506.264-.815-.7-.506h.859l.264-.814.264.814h.859Zm3.078.624v.86l-.5-.7-.815.264.506-.7-.506-.7.815.264.506-.7v.872l.813.263Zm5.691,8.694.814.264.506-.7v.859l.814.263-.814.264v.859l-.506-.7-.814.264.5-.7Zm-3.23-6.335-.264-.814h-.859l.7-.506L52.16,11.7l.7.506.7-.506-.264.814.7.506h-.865Zm1.882,2.185v-.859l-.815-.264.815-.264v-.86l.506.7.814-.263-.506.7.506.7-.814-.264Zm1.539,1.342.263-.814.264.814h.859l-.7.5.263.815-.7-.506-.7.506.266-.815-.7-.5Zm.528,7.005-.259.815-.264-.814h-.859l.7-.5-.269-.815.7.506.7-.506-.264.815.7.506Z" transform="translate(-21.332 -8.268)" fill="#fff"/>
            <path id="Trazado_67174" data-name="Trazado 67174" d="M54.876,31.215a.809.809,0,0,0-.028-.776l-.556-1.5c-.079-.191.09-.309.2-.18A16.671,16.671,0,0,1,55.82,30.48l.517.859c.449.028,1.678.06,2.865.06a3.336,3.336,0,0,1-.332-.382c-2.022-2.511-3.308-3.91-3.32-3.921a2.273,2.273,0,0,0-.916-.674l-.147-.067v.382a.046.046,0,0,1-.09.022L51.422,21.53v-.017a1.672,1.672,0,0,0-.534-.618l-.292-.2-1.421,3.275a.309.309,0,0,1,.281.427l-1.314,3.033h1.2a3.585,3.585,0,0,1,1.359.27l.32.129a10.03,10.03,0,0,0-.96,3.011,2.171,2.171,0,0,0,.079.556h2.207l-.095-.612a23.741,23.741,0,0,0,2.623.432" transform="translate(-24.762 -11.346)" fill="#fff"/>
            <path id="Trazado_67175" data-name="Trazado 67175" d="M30.139,37.931c0-2.028-2.151-3.005-4.7-3.005-2.73,0-5.241,1.213-6.156,3.09a3.557,3.557,0,0,0-.387,1.613,2.227,2.227,0,0,0,2.516,2.319c1.269,0,2.27-.7,2.27-1.9a.331.331,0,0,0-.322-.34.335.335,0,0,0-.055,0c-.393,0-.4.225-.393.337a1.5,1.5,0,0,1-1.275,1.693,1.447,1.447,0,0,1-.249.014c-1.128,0-1.6-.955-1.6-1.983a4.484,4.484,0,0,1,3.219-4.083,6.541,6.541,0,0,1,2.4-.42c1.859,0,3.381.713,3.381,2.629a3.189,3.189,0,0,1-2.949,3.078l.067-.214a11.755,11.755,0,0,1,1.387-3.41,2.807,2.807,0,0,1,.18-.24L27.384,37a3.956,3.956,0,0,0-.4.281c-3.076,2.4-3.172,9.16-7.273,9.16a3.131,3.131,0,0,1-.42-.028,1.435,1.435,0,0,1-1.3-1.511c0-.157.056-.376.056-.5a.41.41,0,0,0-.4-.42h-.05c-.365,0-.517.292-.528.7-.028,1.191.854,1.887,2.213,2.016.151.012.3.017.46.017,3.2,0,5.162-2.422,6-5.359a7.062,7.062,0,0,0,1.247-.264c1.483-.415,3.156-1.41,3.156-3.163" transform="translate(-17.062 -14.872)" fill="#fff"/>
            <path id="Trazado_67176" data-name="Trazado 67176" d="M63.975,39.862H62.851l-.258.59-.444.995h-.528l-.157.337h.545l-.651,1.455c-.472,1.022-1.2,2.028-1.623,2.028-.1,0-.152-.04-.152-.129a1.323,1.323,0,0,1,.129-.443c.1-.264.349-.759.506-1.09a5.341,5.341,0,0,0,.612-1.584.632.632,0,0,0-.6-.662.651.651,0,0,0-.094,0,2.163,2.163,0,0,0-1.416.758L59,41.444H57.943l-.864,1.973c-.348.7-1.05,1.848-1.494,1.848-.1,0-.129-.056-.129-.152a.766.766,0,0,1,.067-.24l.556-1.3.933-2.146H55.867l-.91,2.09c-.281.645-.994,1.747-1.456,1.747a.145.145,0,0,1-.156-.129V45.1a1.558,1.558,0,0,1,.151-.472l.48-1.05.983-2.146H53.824l-.225.489a1.1,1.1,0,0,1-.9.713.378.378,0,0,1-.366-.169,1.119,1.119,0,0,0-1.129-1.11c-.023,0-.047,0-.07,0a2.427,2.427,0,0,0-2.045,1.23,6.267,6.267,0,0,0-.673,1.494c-.4.669-.826,1.186-1.163,1.186-.084,0-.14-.045-.14-.157a1.877,1.877,0,0,1,.151-.46L48,43.06a3.072,3.072,0,0,0,.348-1.128.579.579,0,0,0-.572-.586h-.047a2.255,2.255,0,0,0-1.578.815,1.069,1.069,0,0,0,.017-.24.507.507,0,0,0-.573-.573,2.042,2.042,0,0,0-1.455.814l.3-.73H43.407L42.529,43.4c-.416.927-1.079,1.848-1.456,1.848-.084,0-.14-.045-.14-.157a4.9,4.9,0,0,1,.27-.8l1.157-2.618c.084-.2-.472-.32-1.174-.32a3.351,3.351,0,0,0-2.011.814,1.821,1.821,0,0,1-.809.48c-.141,0-.1-.04-.1-.085,0-.157.387-.612.387-.955,0-.157-.084-.264-.3-.264a2.034,2.034,0,0,0-1.259.809l.3-.725H36.38L35.508,43.4c-.416.927-1.1,1.9-1.472,1.9-.084,0-.14-.045-.14-.157a4.052,4.052,0,0,1,.292-.84l1.157-2.629c.084-.2-.472-.32-1.174-.32a3.471,3.471,0,0,0-2.589,1.427,4.594,4.594,0,0,0-1.006,2.279.768.768,0,0,0,.84.882,2.107,2.107,0,0,0,1.427-.87,1.9,1.9,0,0,0-.039.225c0,.377.151.645.612.645a1.948,1.948,0,0,0,1.371-.87l-.348.8h1.1l1.079-2.449c.36-.8.758-1.213.87-1.213s.056.017.056.045a1.688,1.688,0,0,0-.169.517c0,.208.112.365.416.365a1.23,1.23,0,0,0,.73-.263,4.044,4.044,0,0,0-.927,2.185.771.771,0,0,0,.84.882A2.223,2.223,0,0,0,39.871,45a2.4,2.4,0,0,0-.017.264.612.612,0,0,0,.548.671.572.572,0,0,0,.08,0c.42,0,.843-.292,1.314-.865l-.348.786h1.129l1.034-2.338c.45-1.011,1.062-1.559,1.359-1.559a.135.135,0,0,1,.151.117v.035a1,1,0,0,1-.095.326l-1.483,3.427H44.7l1.05-2.382c.45-1.022.949-1.522,1.326-1.522.112,0,.156.056.156.18a1.02,1.02,0,0,1-.1.376l-1.019,2.159a2,2,0,0,0-.169.659c0,.332.18.618.685.618.66,0,1.157-.5,1.719-1.241v.157a1.116,1.116,0,0,0,1.117,1.115,1.079,1.079,0,0,0,.13-.008,2.694,2.694,0,0,0,2.376-1.848,4.023,4.023,0,0,0,.366-1.269.72.72,0,0,0,.365.073.992.992,0,0,0,.489-.123l-.18.387c-.208.432-.433.909-.612,1.314a2.122,2.122,0,0,0-.2.758.635.635,0,0,0,.566.7.629.629,0,0,0,.119,0,2.306,2.306,0,0,0,1.539-1.045h.012a1.678,1.678,0,0,0-.045.387c0,.337.1.659.573.659a2.067,2.067,0,0,0,1.379-.893L56,45.858h1.135l.909-2.068c.518-1.162,1.034-1.87,1.511-1.87a.157.157,0,0,1,.157.14v.029a5.987,5.987,0,0,1-.534,1.269c-.253.539-.415.865-.533,1.157a2.208,2.208,0,0,0-.2.779.581.581,0,0,0,.529.63.551.551,0,0,0,.111,0,2.5,2.5,0,0,0,1.679-1.117,2.328,2.328,0,0,0-.129.713.891.891,0,0,0,.785.985.917.917,0,0,0,.164,0,1.764,1.764,0,0,0,1.022-.337,4.713,4.713,0,0,0,1.073-1.163l-.2-.185a4.2,4.2,0,0,1-.882.977.956.956,0,0,1-.584.225c-.236,0-.387-.123-.387-.42a3.845,3.845,0,0,1,.36-1.247c.011-.011.32-.7.612-1.371.239-.562.488-1.107.533-1.219h.742l.152-.337H63.3ZM31.958,45.278c-.157,0-.27-.056-.27-.264a5.184,5.184,0,0,1,1.045-2.326,2,2,0,0,1,1.494-.949l-.713,1.6c-.534,1.2-1.118,1.944-1.55,1.944m7.022,0a.242.242,0,0,1-.281-.264,5.176,5.176,0,0,1,1.045-2.326,2,2,0,0,1,1.494-.949l-.724,1.595c-.545,1.231-1.1,1.944-1.539,1.944m12.464-3.106a7.445,7.445,0,0,1-1.191,2.966c-.253.354-.472.46-.66.46s-.337-.214-.3-.533a7.189,7.189,0,0,1,1.157-2.741c.292-.4.489-.573.714-.573s.292.185.281.42" transform="translate(-20.408 -16.095)" fill="#fff"/>
            <path id="Trazado_67177" data-name="Trazado 67177" d="M80.206,41.182l1.034-2.388H80.015l-1.034,2.388h-2.6l-.433,1h2.6l-1.034,2.388h1.224l1.034-2.388h2.6l.433-1Z" transform="translate(-31.65 -15.83)" fill="#fff"/>
          </g>
        </g>
      </g>
    </g>
  </g>
</svg>
