<svg xmlns="http://www.w3.org/2000/svg" width="40.27" height="40.27" viewBox="0 0 40.27 40.27"><defs><style>.a{fill:#080808;}</style></defs><path class="a" d="M1791.293,321l-1.71-1.024a3.349,3.349,0,0,0-1.725-.477h-2.572a6.035,6.035,0,0,0-1.56.2l-7.75,2.081a2.7,2.7,0,0,0-1.825,1.691l-6.818-3.688a2.674,2.674,0,0,0-1.825-.3,2.548,2.548,0,0,0-.678.223,2.651,2.651,0,0,0-1.154,1.074,2.7,2.7,0,0,0-.355,1.335,2.661,2.661,0,0,0,1.327,2.322l12.219,7.312a3.356,3.356,0,0,0,1.767.5h9.456a3.356,3.356,0,0,0,1.233-.234l1.97-.778v1.012H1798V318.832h-6.712Zm-2.462,9.767a2.048,2.048,0,0,1-.739.142h-9.458a2.035,2.035,0,0,1-1.07-.307l-12.235-7.32a1.339,1.339,0,0,1-.668-1.166,1.372,1.372,0,0,1,.18-.672,1.324,1.324,0,0,1,.576-.533,1.3,1.3,0,0,1,.335-.109,1.412,1.412,0,0,1,.258-.024,1.316,1.316,0,0,1,.657.175l7.392,3.995c.009.041.009.081.02.122a2.691,2.691,0,0,0,2.595,1.987,6.678,6.678,0,0,0,1.106-.2l6.972-1.866-.346-1.3-6.95,1.858c-.306.07-.7.151-.783.158a1.34,1.34,0,0,1-1.3-.988,1.244,1.244,0,0,1-.04-.249s-.005-.163,0-.22a1.357,1.357,0,0,1,.988-1.183l7.748-2.073a4.68,4.68,0,0,1,1.212-.16h2.572a2.015,2.015,0,0,1,1.035.286l2.4,1.437v7.23Zm3.8-10.6h4.027v10.738h-4.027Z" transform="translate(-1757.734 -291.985)"/><path class="a" d="M1786.784,303.934l-3.6-3.6a6,6,0,0,0-4.271-1.77h-8.439a3.4,3.4,0,0,0-1.5.355l-1.5.752a2,2,0,0,1-.974.211l-.682-.024v-1.294H1759.1V313.33h6.712v-2.013h1.14l.407.268a7.4,7.4,0,0,0,3.823,1.23v8.569h28.188v-17.45Zm-22.311,8.053h-4.028v-12.08h4.028Zm3.632-1.519-.747-.494h-1.543V301.2l.633.023a3.361,3.361,0,0,0,1.623-.352l1.5-.752a2.021,2.021,0,0,1,.9-.212h8.439a4.667,4.667,0,0,1,3.322,1.375l2.65,2.652h-5.538l-1.629-1.629-.948.95,4.741,4.741a1.346,1.346,0,0,1-1.9,1.907l-3.959-3.959-.47.4a3.558,3.558,0,0,1-4.523.066l-.389-.315-.846,1.042.394.319a4.889,4.889,0,0,0,1.368.771v3.243A6.052,6.052,0,0,1,1768.1,310.468Zm9.548-.628,1.012,1.012a2.7,2.7,0,0,0,3.792,0,3.4,3.4,0,1,0,.381-.486,2.641,2.641,0,0,0,.22-2.409h8.987a4.04,4.04,0,0,0,3.3,3.3v2.795a4.04,4.04,0,0,0-3.3,3.3h-13.535a4.039,4.039,0,0,0-3.3-3.3v-2.795A4.012,4.012,0,0,0,1777.653,309.84Zm5.612,2.819a2.013,2.013,0,1,1,2.013,2.013A2.014,2.014,0,0,1,1783.265,312.659Zm14.765,7.383h-25.5V308.51a4.877,4.877,0,0,0,3.02-.772l1.144,1.146a2.676,2.676,0,0,1-2.151,1.09h-.671v5.37h.671a2.685,2.685,0,0,1,2.685,2.685v.67h16.107v-.67a2.685,2.685,0,0,1,2.685-2.685h.672v-5.37h-.672a2.685,2.685,0,0,1-2.685-2.685v-.67h-11.3l-1.343-1.343h17.34Z" transform="translate(-1759.103 -298.564)"/></svg>