<svg xmlns="http://www.w3.org/2000/svg" width="44.652" height="44.651" viewBox="0 0 44.652 44.651"><defs><style>.a{fill:#080808;}</style></defs><g transform="translate(0)"><g transform="translate(12.732 32.268)"><path class="a" d="M1677.3,322.956a.872.872,0,1,0,.871.872A.872.872,0,0,0,1677.3,322.956Z" transform="translate(-1676.428 -322.956)"/></g><g transform="translate(0 0)"><path class="a" d="M1706.073,315.164l5.139-5.139a.871.871,0,0,0-.359-1.449l-12.515-3.862a8.722,8.722,0,0,0-16.414-.657l-14.5,4.52a.872.872,0,0,0-.356,1.449l5.274,5.274-3.327,5.545a.873.873,0,0,0,.473,1.277l4.824,1.608v13.413a.871.871,0,0,0,.565.816l13.97,5.239a.872.872,0,0,0,.558.008l.008,0,15.7-5.232a.874.874,0,0,0,.6-.828V323.37l5.146-1.617a.872.872,0,0,0,.355-1.449Zm-7.338-7.848c0-.223-.009-.442-.025-.664l10.246,3.163-4.351,4.351-7.111-2.37A8.742,8.742,0,0,0,1698.734,307.316Zm-15.32-2.27a6.976,6.976,0,0,1,13.576,2.27,6.974,6.974,0,0,1-6.977,6.977,6.982,6.982,0,0,1-6.6-9.247Zm-14.09,4.766,12.06-3.76a8.935,8.935,0,0,0-.093,1.265,8.66,8.66,0,0,0,.967,3.991l-8.581,2.86Zm1.75,11,2.758-4.6,14,4.668-2.758,4.6Zm17.194,20.306-12.208-4.578V324.31c9.606,3.184,9.137,3.088,9.4,3.088a.873.873,0,0,0,.748-.424l2.056-3.428Zm.873-21.637-12.94-4.314,7.045-2.348a8.719,8.719,0,0,0,13.141.452l5.693,1.9Zm14.826,17.034-13.954,4.652V322.884l3.092,3.864a.875.875,0,0,0,.943.287l9.92-3.118Zm-9.873-11.321-3.49-4.362,14-4.667,4.358,4.357Z" transform="translate(-1666.816 -298.595)"/></g><g transform="translate(16.025 33.42)"><path class="a" d="M1682.032,324.609l-1.939-.727a.872.872,0,1,0-.612,1.633l1.939.727a.872.872,0,1,0,.612-1.633Z" transform="translate(-1678.914 -323.826)"/></g><g transform="translate(12.732 35.911)"><path class="a" d="M1682.839,327.725l-5.232-1.963a.872.872,0,1,0-.612,1.633l5.232,1.963a.884.884,0,0,0,.306.056.872.872,0,0,0,.306-1.689Z" transform="translate(-1676.428 -325.706)"/></g><g transform="translate(19.709 5.232)"><path class="a" d="M1690.162,302.8a.872.872,0,0,0-1.233,0l-4.616,4.616-1.127-1.127a.873.873,0,1,0-1.235,1.233l1.744,1.744a.872.872,0,0,0,1.233,0l5.233-5.233A.872.872,0,0,0,1690.162,302.8Z" transform="translate(-1681.695 -302.545)"/></g></g></svg>