<svg xmlns="http://www.w3.org/2000/svg" width="43.905" height="43.904" viewBox="0 0 43.905 43.904"><defs><style>.a{fill:#080808;}</style></defs><path class="a" d="M1605.114,338.113A11.891,11.891,0,1,1,1617,326.222,11.9,11.9,0,0,1,1605.114,338.113Zm0-21.952a10.062,10.062,0,1,0,10.062,10.062A10.074,10.074,0,0,0,1605.114,316.16Z" transform="translate(-1573.1 -294.208)"/><path class="a" d="M1601.94,329a.924.924,0,0,1-.648-.268l-3.658-3.658a.914.914,0,0,1,1.293-1.293l2.967,2.967,5.759-6.582a.914.914,0,0,1,1.377,1.2l-6.4,7.318a.919.919,0,0,1-.658.313Z" transform="translate(-1571.755 -292.415)"/><path class="a" d="M1595.41,336.211H1582.6a4.578,4.578,0,0,1-4.573-4.574V307.856a4.579,4.579,0,0,1,4.573-4.574h3.66a.915.915,0,0,1,0,1.829h-3.66a2.747,2.747,0,0,0-2.743,2.745v23.782a2.746,2.746,0,0,0,2.743,2.745h12.806a.915.915,0,1,1,0,1.829Z" transform="translate(-1578.031 -297.794)"/><path class="a" d="M1602.836,314.259a.916.916,0,0,1-.915-.915v-5.488a2.747,2.747,0,0,0-2.743-2.745h-3.66a.915.915,0,0,1,0-1.829h3.66a4.579,4.579,0,0,1,4.572,4.574v5.488A.914.914,0,0,1,1602.836,314.259Z" transform="translate(-1572.652 -297.794)"/><path class="a" d="M1597.275,310.116H1586.3a2.748,2.748,0,0,1-2.744-2.745v-3.659a.916.916,0,0,1,.915-.915h2.835a4.575,4.575,0,0,1,8.965,0h2.834a.915.915,0,0,1,.915.915v3.659A2.749,2.749,0,0,1,1597.275,310.116Zm-11.891-5.489v2.745a.916.916,0,0,0,.915.915h10.976a.917.917,0,0,0,.915-.915v-2.745h-2.744a.914.914,0,0,1-.914-.914,2.745,2.745,0,1,0-5.489,0,.914.914,0,0,1-.914.914Z" transform="translate(-1576.238 -299.139)"/><path class="a" d="M1601.383,312.017h-18.3a.915.915,0,0,1,0-1.829h18.3a.915.915,0,0,1,0,1.829Z" transform="translate(-1576.686 -295.553)"/><path class="a" d="M1595.894,316.16h-12.806a.915.915,0,0,1,0-1.829h12.806a.915.915,0,1,1,0,1.829Z" transform="translate(-1576.686 -294.208)"/><path class="a" d="M1592.236,320.3h-9.148a.915.915,0,0,1,0-1.831h9.148a.915.915,0,1,1,0,1.831Z" transform="translate(-1576.686 -292.863)"/></svg>