<svg id="prime" xmlns="http://www.w3.org/2000/svg" width="70.071" height="41.451" viewBox="0 0 70.071 41.451">
  <rect id="Rectángulo_19767" data-name="Rectángulo 19767" width="70.071" height="41.451" rx="6" fill="#3b99fa"/>
  <g id="Grupo_26818" data-name="Grupo 26818" transform="translate(15.378 8.872)">
    <g id="Grupo_26245" data-name="Grupo 26245" transform="translate(0.178 0)">
      <path id="Trazado_67165" data-name="Trazado 67165" d="M2347.007-88.078a.436.436,0,0,1-.291-.058.444.444,0,0,1-.116-.29V-98.477a.444.444,0,0,1,.116-.29.435.435,0,0,1,.291-.058h1.1a.384.384,0,0,1,.407.349l.116.407a3,3,0,0,1,1.1-.7,3.317,3.317,0,0,1,1.279-.232,2.845,2.845,0,0,1,2.324,1.046,4.441,4.441,0,0,1,.872,2.9,5.35,5.35,0,0,1-.407,2.208,3.239,3.239,0,0,1-1.162,1.452,2.766,2.766,0,0,1-1.685.523,3.744,3.744,0,0,1-1.162-.174,2.424,2.424,0,0,1-.93-.523v3.312a.435.435,0,0,1-.058.29.435.435,0,0,1-.29.058h-1.511Zm3.312-4.59a1.268,1.268,0,0,0,1.22-.581,3.064,3.064,0,0,0,.407-1.8,2.948,2.948,0,0,0-.407-1.8,1.429,1.429,0,0,0-1.278-.581,2.623,2.623,0,0,0-1.453.407v3.951a3.452,3.452,0,0,0,1.511.407" transform="translate(-2346.6 102.428)" fill="#fff"/>
      <path id="Trazado_67166" data-name="Trazado 67166" d="M2362.607-91.215a.444.444,0,0,1-.29-.116.444.444,0,0,1-.116-.29v-6.972a.444.444,0,0,1,.116-.29.435.435,0,0,1,.29-.058h1.1a.385.385,0,0,1,.407.349l.174.813a3.27,3.27,0,0,1,1.162-.93,2.646,2.646,0,0,1,1.162-.29h.232a.436.436,0,0,1,.291.058.444.444,0,0,1,.116.29v1.278a.434.434,0,0,1-.058.29.443.443,0,0,1-.291.116h-.7a6.057,6.057,0,0,0-.872.116,8.961,8.961,0,0,0-.871.232v5.054a.434.434,0,0,1-.058.29.443.443,0,0,1-.29.116h-1.511Z" transform="translate(-2353.137 102.428)" fill="#fff"/>
      <path id="Trazado_67167" data-name="Trazado 67167" d="M2373.578-102.576a1.478,1.478,0,0,1-.929-.29,1.183,1.183,0,0,1-.349-.871,1.182,1.182,0,0,1,.349-.871,1.2,1.2,0,0,1,.929-.29,1.48,1.48,0,0,1,.93.29,1.185,1.185,0,0,1,.348.871,1.183,1.183,0,0,1-.348.871,1.281,1.281,0,0,1-.93.29m-.755,8.889a.443.443,0,0,1-.291-.116.442.442,0,0,1-.116-.29v-6.972a.442.442,0,0,1,.116-.29.435.435,0,0,1,.291-.058h1.452a.436.436,0,0,1,.291.058.437.437,0,0,1,.058.29v6.972a.437.437,0,0,1-.058.29.444.444,0,0,1-.291.116Z" transform="translate(-2357.369 104.9)" fill="#fff"/>
      <path id="Trazado_67168" data-name="Trazado 67168" d="M2379.907-91.341a.444.444,0,0,1-.291-.116.444.444,0,0,1-.116-.29v-6.972a.444.444,0,0,1,.116-.29.435.435,0,0,1,.291-.058h1.1a.384.384,0,0,1,.406.349l.117.407a6.974,6.974,0,0,1,1.452-.755,3.408,3.408,0,0,1,1.336-.232,2.005,2.005,0,0,1,1.917.988,7,7,0,0,1,1.453-.755,3.906,3.906,0,0,1,1.394-.232,2.15,2.15,0,0,1,1.626.581,2.153,2.153,0,0,1,.582,1.627v5.345a.432.432,0,0,1-.059.29.444.444,0,0,1-.291.116h-1.452a.445.445,0,0,1-.291-.116.444.444,0,0,1-.116-.29v-4.822c0-.7-.29-1.046-.929-1.046a3.379,3.379,0,0,0-1.627.407v5.461a.438.438,0,0,1-.058.29.446.446,0,0,1-.291.116h-1.453a.446.446,0,0,1-.291-.116.443.443,0,0,1-.116-.29v-4.822c0-.7-.291-1.046-.93-1.046a3.6,3.6,0,0,0-1.685.407v5.461a.435.435,0,0,1-.058.29.444.444,0,0,1-.291.116h-1.452Z" transform="translate(-2360.386 102.554)" fill="#fff"/>
      <path id="Trazado_67169" data-name="Trazado 67169" d="M2406.034-91.108a3.728,3.728,0,0,1-2.846-1.046,3.983,3.983,0,0,1-.988-2.963,4.4,4.4,0,0,1,1.046-3.079,3.639,3.639,0,0,1,2.847-1.1,3.244,3.244,0,0,1,2.207.7,2.3,2.3,0,0,1,.814,1.8,1.837,1.837,0,0,1-.872,1.685,4.3,4.3,0,0,1-2.5.581,6,6,0,0,1-1.511-.174,2.008,2.008,0,0,0,.639,1.452,2.4,2.4,0,0,0,1.569.465,3.573,3.573,0,0,0,.813-.058c.291-.058.639-.116,1.1-.232h.174c.174,0,.232.116.232.349v.7c0,.174,0,.29-.058.349a.623.623,0,0,1-.291.174,6.625,6.625,0,0,1-2.382.407m-.523-4.706a1.836,1.836,0,0,0,1.1-.232.828.828,0,0,0,.349-.7c0-.639-.349-.93-1.1-.93-.988,0-1.511.581-1.685,1.8.407,0,.872.058,1.336.058" transform="translate(-2369.898 102.554)" fill="#fff"/>
    </g>
    <g id="Grupo_26246" data-name="Grupo 26246" transform="translate(0 15.714)">
      <path id="Trazado_67170" data-name="Trazado 67170" d="M2381.8-73.282c-4.3,3.2-10.516,4.88-15.918,4.88a28.92,28.92,0,0,1-19.4-7.378c-.406-.349-.058-.871.465-.581a39.3,39.3,0,0,0,19.4,5.171,38.823,38.823,0,0,0,14.815-3.021c.755-.407,1.394.407.639.93" transform="translate(-2346.294 77.263)" fill="#fff" fill-rule="evenodd"/>
      <path id="Trazado_67171" data-name="Trazado 67171" d="M2406.647-75.9c-.523-.7-3.66-.349-5-.174-.407.058-.465-.29-.117-.581,2.441-1.743,6.507-1.22,6.972-.639s-.116,4.648-2.44,6.565c-.349.29-.7.116-.523-.232.523-1.336,1.685-4.241,1.1-4.938" transform="translate(-2369.345 77.851)" fill="#fff" fill-rule="evenodd"/>
    </g>
  </g>
</svg>
