<svg id="Grupo_27087" data-name="Grupo 27087" xmlns="http://www.w3.org/2000/svg" width="177.204" height="25.267" viewBox="0 0 177.204 25.267">
  <path id="Trazado_71156" data-name="Trazado 71156" d="M340-186.781c0,.161.307.219,1.579.249l1.564.044.044,11.814.029,11.8h-1.608c-1.506,0-1.608.015-1.608.292s.1.292,4.9.292,4.9,0,4.9-.292-.1-.292-1.608-.292h-1.608v-4.576c0-6.375.19-7.559,1.521-9.5,1.564-2.31,4.737-3.509,6.652-2.529a3.492,3.492,0,0,1,1.462,2.149c.1.468.161,3.26.161,7.588v6.872h-1.608c-1.506,0-1.608.015-1.608.292s.1.292,13.3.292,13.3,0,13.3-.292-.1-.292-1.608-.292h-1.608v-16.96h-3.29c-2.793,0-3.29.029-3.29.219,0,.161.307.219,1.579.249l1.564.044v16.375l-2.515.044-2.529.029v-16.96h-3.363c-2.895,0-3.363.029-3.363.219s.278.219,1.608.219h1.608v16.522h-4.679v-6.3c0-6.916-.073-7.734-.863-8.9a5.377,5.377,0,0,0-2.763-1.9,10.52,10.52,0,0,0-4.723-.059,7.184,7.184,0,0,0-4.225,3.26,3.676,3.676,0,0,1-.614.892c-.073,0-.117-2.5-.117-5.556V-187h-3.29C340.5-187,340-186.971,340-186.781Z" transform="translate(-292.628 187)" fill="#fff"/>
  <path id="Trazado_71157" data-name="Trazado 71157" d="M504.715-186.728a2.586,2.586,0,0,0-1.389,3.626,2.52,2.52,0,0,0,4.474-.234,2.477,2.477,0,0,0-1.433-3.334A2.087,2.087,0,0,0,504.715-186.728Z" transform="translate(-431.831 186.889)" fill="#fff"/>
  <path id="Trazado_71158" data-name="Trazado 71158" d="M562.5-186.573a2.481,2.481,0,0,0,.292,4.693,2.513,2.513,0,0,0,2.135-.366,2.266,2.266,0,0,0,.98-2.281,1.705,1.705,0,0,0-.57-1.389A2.256,2.256,0,0,0,562.5-186.573Z" transform="translate(-481.278 186.851)" fill="#fff"/>
  <path id="Trazado_71159" data-name="Trazado 71159" d="M607.082-184.751a3.372,3.372,0,0,1-1.725.161l-1.272-.073v3.231l.015,3.231-1.55.044c-1.243.029-1.55.088-1.55.249s.278.219,1.535.219c1.126,0,1.535.044,1.55.175,0,.1,0,2.983-.015,6.4,0,3.714.044,6.652.146,7.3.38,2.7,1.8,3.714,5.19,3.743a4.16,4.16,0,0,0,2.281-.38,4.369,4.369,0,0,0,1.36-1.038l.556-.658.76.76c.994,1.009,1.886,1.287,4.108,1.3,1.418.015,1.681-.029,2.266-.336a4.5,4.5,0,0,0,1.915-1.8,2.357,2.357,0,0,1,.351-.556,9.109,9.109,0,0,1,.98.673,9.019,9.019,0,0,0,9.913,1.038,8.163,8.163,0,0,0,2.559-1.93,8.887,8.887,0,0,0,2.646-4.459,9.145,9.145,0,0,0-.263-4.693,10.628,10.628,0,0,0-6.287-6.082,9.2,9.2,0,0,0-9.4,2.369,8.707,8.707,0,0,0-2.851,7.574,8.455,8.455,0,0,0,1.491,3.86l.746,1.1-.292.614a3.311,3.311,0,0,1-3.056,2.135,2.125,2.125,0,0,1-2.018-1.243c-.292-.57-.307-.8-.351-8.232l-.044-7.632h2.939c2.5,0,2.924-.029,2.924-.219s-.424-.219-2.924-.219H616.79v-3.436c0-1.886-.029-3.436-.073-3.436a2.353,2.353,0,0,0-.541.234,3.111,3.111,0,0,1-1.681.175l-1.214-.058-.029,3.217-.044,3.231h-5.556l-.073-3.392-.073-3.377Zm24.8,6.916c1.389.512,2.369,1.8,2.924,3.845a29.935,29.935,0,0,1,.219,8.071c-.439,2.6-1.257,4.108-2.646,4.825a4.036,4.036,0,0,1-2.486.439c-1.915,0-2.588-.175-3.421-.892-1.564-1.33-2.4-4.81-2.149-9.05.248-4.518,1.316-6.711,3.6-7.369A9.035,9.035,0,0,1,631.879-177.836Zm-18.627,7.457c.015,3.977,0,7.369-.029,7.544a4.373,4.373,0,0,1-1.755,1.974,3.934,3.934,0,0,1-1.345.278,2.165,2.165,0,0,1-2.105-1.389l-.366-.731-.044-7.3c-.029-4.006-.015-7.369.029-7.486.073-.175.57-.2,2.822-.175l2.749.044Z" transform="translate(-515.468 185.292)" fill="#fff"/>
  <path id="Trazado_71160" data-name="Trazado 71160" d="M837.271-161.764a1.8,1.8,0,0,0-1.053,1.638,1.674,1.674,0,0,0,.819,1.828,1.993,1.993,0,0,0,2.793-.585,2.065,2.065,0,0,0-.716-2.807A2.664,2.664,0,0,0,837.271-161.764Zm1.535.366a1.638,1.638,0,0,1-.234,2.983,1.55,1.55,0,0,1-1.988-1.506,1.469,1.469,0,0,1,.8-1.4A1.167,1.167,0,0,1,838.806-161.4Z" transform="translate(-716.284 165.565)" fill="#fff"/>
  <path id="Trazado_71161" data-name="Trazado 71161" d="M844-155c0,.643.058,1.111.146,1.111s.146-.2.146-.439c0-.278.073-.439.2-.439s.336.19.482.439c.351.614.716.6.409-.015-.219-.409-.219-.468,0-.629a.592.592,0,0,0,.19-.6c-.044-.424-.088-.439-.8-.483L844-156.1Zm1.243-.643c.146.249-.234.6-.57.556a.42.42,0,0,1-.351-.38c-.044-.278.015-.322.395-.322A.8.8,0,0,1,845.243-155.647Z" transform="translate(-722.94 160.618)" fill="#fff"/>
  <path id="Trazado_71162" data-name="Trazado 71162" d="M920.188-145.42a9.172,9.172,0,0,0-5.483,2.851A8.584,8.584,0,0,0,912-135.9a9.046,9.046,0,0,0,2.018,6.112,9.112,9.112,0,0,0,4.489,3.056,11.775,11.775,0,0,0,5.614.132,9.662,9.662,0,0,0,6.989-9.957,8.942,8.942,0,0,0-3.1-6.272,8.524,8.524,0,0,0-5.921-2.617A11.473,11.473,0,0,0,920.188-145.42Z" transform="translate(-780.998 151.546)" fill="#fff"/>
  <path id="Trazado_71163" data-name="Trazado 71163" d="M1104.822-145.372a8.872,8.872,0,0,0-3.67,1.535,9.244,9.244,0,0,0-4.152,8,9.3,9.3,0,0,0,2.7,6.726,8.887,8.887,0,0,0,6.8,2.749,8.541,8.541,0,0,0,6.8-2.749,9.1,9.1,0,0,0,2.851-6.828,8.683,8.683,0,0,0-2.91-6.711,9.339,9.339,0,0,0-4.079-2.544A11.385,11.385,0,0,0,1104.822-145.372Z" transform="translate(-938.95 151.571)" fill="#fff"/>
  <path id="Trazado_71164" data-name="Trazado 71164" d="M20.415-141.593a5.808,5.808,0,0,0-3.509,2.807,6.071,6.071,0,0,0-.541,3.1,4.346,4.346,0,0,0,1.462,2.91c.79.716,1.053.833,4.459,2a14.97,14.97,0,0,1,2.734,1.184c1.038.716,1.272,1.243,1.184,2.778a2.857,2.857,0,0,1-.468,1.8,3.366,3.366,0,0,1-2.807,1.3c-2.763.146-5.015-1.521-6.155-4.562-.658-1.784-.775-1.535-.775,1.74,0,3.027.058,3.231.658,2.559.366-.395.892-.366,2.529.146a18.454,18.454,0,0,0,2.427.614c2.778.424,5.775-.936,6.843-3.129,1.038-2.149.8-4.269-.614-5.644-.892-.863-1.988-1.389-4.883-2.369-1.418-.483-2.895-1.038-3.29-1.243a2.591,2.591,0,0,1-1.579-2.091c-.2-1.828,1.053-3.217,3.2-3.524,2.632-.365,4.138.716,5.307,3.816.146.395.351.7.453.7.161,0,.2-.453.2-2.266,0-2.149-.015-2.266-.278-2.266a.461.461,0,0,0-.38.146c-.146.249-.716.161-1.769-.234A8.2,8.2,0,0,0,20.415-141.593Z" transform="translate(-16 148.392)" fill="#fff"/>
  <path id="Trazado_71165" data-name="Trazado 71165" d="M256.533-141.717a5.339,5.339,0,0,0-2.646,1.55,4.687,4.687,0,0,0-1.491,3.816,4.2,4.2,0,0,0,1.184,3.246c.716.76,1.272,1.023,4.2,2.032,3.86,1.345,4.459,1.871,4.459,3.948a2.856,2.856,0,0,1-1.389,2.822c-.673.409-.79.439-2.178.439a4.408,4.408,0,0,1-2.178-.336,6.881,6.881,0,0,1-3.714-4.2c-.658-1.784-.775-1.521-.775,1.754,0,3.027.059,3.231.658,2.559.366-.395.892-.366,2.529.146,2.91.936,4.708.921,6.7-.073a5.388,5.388,0,0,0,3.187-5.044,3.827,3.827,0,0,0-1.213-3.041c-.848-.819-2.208-1.477-5.1-2.442a26.468,26.468,0,0,1-3.29-1.3,2.729,2.729,0,0,1-.658-4.269,3.74,3.74,0,0,1,2.486-1.214c2.5-.351,3.991.629,5.1,3.348.731,1.769.863,1.594.863-1.1,0-2.427-.029-2.515-.731-2.091-.219.146-.409.146-.833.015a10.394,10.394,0,0,0-3.553-.76A7.242,7.242,0,0,0,256.533-141.717Z" transform="translate(-217.495 148.501)" fill="#fff"/>
  <path id="Trazado_71166" data-name="Trazado 71166" d="M100-137.781c0,.175.278.219,1.594.219H103.2l.044,6.828c.044,6.784.044,6.843.395,7.691a3.988,3.988,0,0,0,2.252,2.369,7.276,7.276,0,0,0,6.228.146,6.653,6.653,0,0,0,3-2.939l.673-1.155v4.167h2.924c2.822,0,2.924-.015,2.924-.292s-.1-.292-1.17-.292c-.833,0-1.17-.058-1.17-.19V-138h-3.363c-2.895,0-3.363.029-3.363.219s.278.219,1.623.219h1.608l-.044,5.658c-.073,6.55-.1,6.755-1.477,8.787-1.287,1.886-2.778,2.763-4.5,2.632a2.892,2.892,0,0,1-2.544-1.8l-.439-.863-.044-7.427L106.711-138h-3.348C100.468-138,100-137.971,100-137.781Z" transform="translate(-87.718 145.165)" fill="#fff"/>
</svg>
