<svg xmlns="http://www.w3.org/2000/svg" width="113.435" height="16.219" viewBox="0 0 113.435 16.219">
  <g id="Grupo_27120" data-name="Grupo 27120" transform="translate(0 0)">
    <g id="Grupo_27117" data-name="Grupo 27117" transform="translate(7.912 0)">
      <path id="Trazado_71250" data-name="Trazado 71250" d="M48.087,31.05h-3.74V28.4h-.053a8.974,8.974,0,0,1-.578,1.076,4.171,4.171,0,0,1-.815.975,3.817,3.817,0,0,1-1.13.681,3.564,3.564,0,0,1-1.5.291,5.155,5.155,0,0,1-1.709-.238,4.419,4.419,0,0,1-1.026-.5c-.122-.088-.263-.192-.42-.314a2.393,2.393,0,0,1-.4-.552,3.832,3.832,0,0,1-.316-.866,6,6,0,0,1-.132-1.342V20.14H34.25v-.367h4.285v8.071a9.282,9.282,0,0,0,.079,1.261,3.073,3.073,0,0,0,.367,1.026,2.141,2.141,0,0,0,.684.681,2.251,2.251,0,0,0,1.1.236,2.383,2.383,0,0,0,1.183-.342,3.691,3.691,0,0,0,1.13-.973,5.386,5.386,0,0,0,.866-1.5,5.537,5.537,0,0,0,.342-2v-6.1h-2V19.77h4.26V30.68h1.536l0,.367Z" transform="translate(-34.25 -15.203)" fill="#e83a54"/>
      <path id="Trazado_71251" data-name="Trazado 71251" d="M95.59,26.232h.289a11.125,11.125,0,0,0,.474,1.289,5.056,5.056,0,0,0,.762,1.183,4.059,4.059,0,0,0,1.21.866,3.936,3.936,0,0,0,1.709.342,2.415,2.415,0,0,0,1.5-.5,2.027,2.027,0,0,0,.658-1.682,1.637,1.637,0,0,0-.527-1.393,3.741,3.741,0,0,0-1.183-.658l-2.051-.709c-.261-.088-.552-.194-.866-.319a3.656,3.656,0,0,1-.841-.55,3,3,0,0,1-.658-.922,3.646,3.646,0,0,1-.236-1.421,3.262,3.262,0,0,1,.289-1.368,3.513,3.513,0,0,1,1.973-1.839,4.351,4.351,0,0,1,1.525-.263,3.173,3.173,0,0,1,.919.106,3.8,3.8,0,0,1,.631.182,3.118,3.118,0,0,1,.474.182,1.4,1.4,0,0,0,.5.081.461.461,0,0,0,.42-.21h.289v3h-.289a10.652,10.652,0,0,0-.42-1.107,4.1,4.1,0,0,0-.578-.973,2.153,2.153,0,0,0-.815-.656,2.484,2.484,0,0,0-1.13-.238,3.055,3.055,0,0,0-1.973.58,1.824,1.824,0,0,0-.684,1.5,1.53,1.53,0,0,0,.58,1.287,6.774,6.774,0,0,0,1.763.788l1.92.631a5.509,5.509,0,0,1,2.024,1.155,2.535,2.535,0,0,1,.79,1.945,3.512,3.512,0,0,1-.291,1.393,3.283,3.283,0,0,1-.815,1.21,4.149,4.149,0,0,1-1.314.813,4.58,4.58,0,0,1-1.763.316,4.235,4.235,0,0,1-1.079-.132c-.314-.069-.614-.15-.894-.236-.263-.088-.508-.166-.737-.236a1.773,1.773,0,0,0-.631-.132.577.577,0,0,0-.42.132.878.878,0,0,0-.21.236h-.289v-3.68Z" transform="translate(-81.42 -14.065)" fill="#e83a54"/>
      <path id="Trazado_71252" data-name="Trazado 71252" d="M131.27,15.48h2.024V.367H131.27V0h4.285V7.223h.053a4.888,4.888,0,0,1,.448-.841,3.88,3.88,0,0,1,.841-.973,4.933,4.933,0,0,1,1.314-.79,4.7,4.7,0,0,1,1.867-.342,4.439,4.439,0,0,1,2.814.843A3.152,3.152,0,0,1,144,7.8V15.48h2.024v.367h-6.309V15.48h2.024V6.988a2.693,2.693,0,0,0-.5-1.684,1.72,1.72,0,0,0-1.5-.658,3.617,3.617,0,0,0-1.6.37,4.264,4.264,0,0,0-1.342,1.026,5.052,5.052,0,0,0-.919,1.552,5.812,5.812,0,0,0-.314,1.945V15.48h2.024v.367H131.27V15.48Z" transform="translate(-108.858)" fill="#e83a54"/>
    </g>
    <path id="Trazado_71253" data-name="Trazado 71253" d="M190.54,30.69h2.024V20.147H190.54V19.78h4.285V30.69h2.024v.367H190.54Z" transform="translate(-146.524 -15.211)" fill="#e83a54"/>
    <g id="Grupo_27118" data-name="Grupo 27118" transform="translate(0 0.046)">
      <path id="Trazado_71254" data-name="Trazado 71254" d="M197.15,1.826a1.551,1.551,0,0,1,.46-1.134A1.6,1.6,0,0,1,198.776.2a1.5,1.5,0,0,1,1.137.492,1.494,1.494,0,0,1,.492,1.134,1.6,1.6,0,0,1-.492,1.167,1.552,1.552,0,0,1-1.137.46,1.657,1.657,0,0,1-1.167-.46,1.647,1.647,0,0,1-.46-1.167" transform="translate(-151.607 -0.2)" fill="#e83a54"/>
      <path id="Trazado_71255" data-name="Trazado 71255" d="M0,26.232H.289a11.129,11.129,0,0,0,.474,1.289A5.057,5.057,0,0,0,1.525,28.7a4.048,4.048,0,0,0,1.208.866,3.936,3.936,0,0,0,1.709.342,2.415,2.415,0,0,0,1.5-.5A2.027,2.027,0,0,0,6.6,27.731a1.637,1.637,0,0,0-.527-1.393A3.741,3.741,0,0,0,4.89,25.68l-2.051-.709c-.263-.088-.552-.194-.869-.319a3.656,3.656,0,0,1-.841-.55,2.989,2.989,0,0,1-.656-.922A3.646,3.646,0,0,1,.238,21.76a3.262,3.262,0,0,1,.289-1.368A3.513,3.513,0,0,1,2.5,18.553a4.351,4.351,0,0,1,1.525-.263,3.162,3.162,0,0,1,.919.106,3.87,3.87,0,0,1,.631.182,3.117,3.117,0,0,1,.474.182,1.412,1.412,0,0,0,.5.081.463.463,0,0,0,.42-.21h.289v3H6.967a11.2,11.2,0,0,0-.42-1.107,4.031,4.031,0,0,0-.58-.973,2.135,2.135,0,0,0-.815-.656,2.478,2.478,0,0,0-1.13-.238,3.055,3.055,0,0,0-1.973.58,1.824,1.824,0,0,0-.684,1.5,1.529,1.529,0,0,0,.578,1.287,6.774,6.774,0,0,0,1.763.788l1.917.631A5.509,5.509,0,0,1,7.646,24.6a2.533,2.533,0,0,1,.788,1.945,3.55,3.55,0,0,1-.289,1.393,3.3,3.3,0,0,1-.813,1.21,4.109,4.109,0,0,1-1.317.813,4.58,4.58,0,0,1-1.763.316,4.2,4.2,0,0,1-1.076-.132c-.316-.069-.614-.15-.894-.236-.263-.088-.508-.166-.737-.236a1.773,1.773,0,0,0-.631-.132.577.577,0,0,0-.42.132.84.84,0,0,0-.21.236H0v-3.68Z" transform="translate(0 -14.111)" fill="#e83a54"/>
    </g>
    <path id="Trazado_71256" data-name="Trazado 71256" d="M214.25,30.69h2.026V20.147H214.25V19.78h4.285V30.69h2.026v.367H214.25Z" transform="translate(-164.757 -15.211)" fill="#662b7d"/>
    <g id="Grupo_27119" data-name="Grupo 27119" transform="translate(50.996 0.046)">
      <path id="Trazado_71257" data-name="Trazado 71257" d="M236.88,5.023h2.033V.8q.211.08.4.132a2.607,2.607,0,0,0,.631.053A2.582,2.582,0,0,0,240.622.9a2.041,2.041,0,0,0,.552-.314V5.021h3.733v.367h-3.733v8.6a4.61,4.61,0,0,0,.132,1.21,2.043,2.043,0,0,0,.395.709,1.207,1.207,0,0,0,.5.316,2.164,2.164,0,0,0,.552.079,1.829,1.829,0,0,0,1.471-.656,3.269,3.269,0,0,0,.735-1.552l.37.134a6.423,6.423,0,0,1-.236.762,2.725,2.725,0,0,1-.5.815,2.35,2.35,0,0,1-.841.6,2.928,2.928,0,0,1-1.314.263,3.938,3.938,0,0,1-2.76-.762,2.915,2.915,0,0,1-.762-2.155V5.39H236.88Z" transform="translate(-233.156 -0.5)" fill="#662b7d"/>
      <path id="Trazado_71258" data-name="Trazado 71258" d="M262.092,5.023h2.024V.8c.139.053.273.1.4.132a2.607,2.607,0,0,0,.631.053A2.6,2.6,0,0,0,265.825.9a2.043,2.043,0,0,0,.552-.314V5.021h3.733v.367h-3.733v8.6a4.612,4.612,0,0,0,.132,1.21,2.043,2.043,0,0,0,.4.709,1.206,1.206,0,0,0,.5.316,2.165,2.165,0,0,0,.552.079,1.825,1.825,0,0,0,1.471-.656,3.294,3.294,0,0,0,.737-1.552l.367.134a6.082,6.082,0,0,1-.238.762,2.714,2.714,0,0,1-.5.815,2.359,2.359,0,0,1-.843.6,2.914,2.914,0,0,1-1.314.263,3.942,3.942,0,0,1-2.76-.762,2.914,2.914,0,0,1-.762-2.155V5.39H262.09V5.023Z" transform="translate(-252.543 -0.5)" fill="#662b7d"/>
      <path id="Trazado_71259" data-name="Trazado 71259" d="M290.17,24.287a5.288,5.288,0,0,1,.552-2.393,6.819,6.819,0,0,1,3.417-3.156,5.733,5.733,0,0,1,2.158-.448,5.528,5.528,0,0,1,2.13.448A6.276,6.276,0,0,1,300.4,20a6.205,6.205,0,0,1,1.446,1.892,5.08,5.08,0,0,1,.577,2.393,5.289,5.289,0,0,1-.524,2.34,6.724,6.724,0,0,1-3.338,3.183,5.637,5.637,0,0,1-4.523,0,6.434,6.434,0,0,1-3.34-3.183,5.368,5.368,0,0,1-.527-2.34m2.631,0a12.233,12.233,0,0,0,.289,2.971,4.739,4.739,0,0,0,.762,1.709,2.225,2.225,0,0,0,1.1.762,4.868,4.868,0,0,0,1.342.182,4.765,4.765,0,0,0,1.34-.182,2.255,2.255,0,0,0,1.1-.762,4.78,4.78,0,0,0,.762-1.709,12.216,12.216,0,0,0,.291-2.971,13.843,13.843,0,0,0-.21-2.629,4.679,4.679,0,0,0-.658-1.735,2.387,2.387,0,0,0-1.076-.973,4.317,4.317,0,0,0-3.1,0,2.549,2.549,0,0,0-1.1.973,4.942,4.942,0,0,0-.631,1.735,13.684,13.684,0,0,0-.21,2.629" transform="translate(-274.136 -14.111)" fill="#662b7d"/>
      <path id="Trazado_71260" data-name="Trazado 71260" d="M220.76,1.826a1.544,1.544,0,0,1,.462-1.134A1.6,1.6,0,0,1,222.389.2a1.5,1.5,0,0,1,1.137.492,1.492,1.492,0,0,1,.49,1.134,1.6,1.6,0,0,1-.49,1.167,1.552,1.552,0,0,1-1.137.46,1.657,1.657,0,0,1-1.167-.46,1.649,1.649,0,0,1-.462-1.167" transform="translate(-220.76 -0.2)" fill="#662b7d"/>
      <path id="Trazado_71261" data-name="Trazado 71261" d="M333.2,11.528l.342.55a.143.143,0,0,0,.143.079c.06,0,.132-.021.132-.062a.192.192,0,0,0-.037-.09l-.319-.49a.377.377,0,0,0,.37-.413c0-.323-.182-.427-.541-.427h-.474c-.058,0-.083.023-.083.076V12.04a.118.118,0,0,0,.236,0v-.515h.229Zm-.229-.215v-.42h.293c.155,0,.33.014.33.194,0,.213-.169.226-.351.226Zm.3,1.391a1.3,1.3,0,1,0-1.3-1.3,1.3,1.3,0,0,0,1.3,1.3m0-.273a1.028,1.028,0,1,1,1-1.028,1.023,1.023,0,0,1-1,1.028" transform="translate(-306.28 -7.813)" fill="#662b7d"/>
      <path id="Trazado_71262" data-name="Trazado 71262" d="M437.71,23.013a5.839,5.839,0,0,1,1.744-4.3,6.036,6.036,0,0,1,4.419-1.862,5.657,5.657,0,0,1,4.3,1.862,5.656,5.656,0,0,1,1.86,4.3,6.028,6.028,0,0,1-1.86,4.417,5.848,5.848,0,0,1-4.3,1.744,5.966,5.966,0,0,1-6.163-6.161" transform="translate(-387.594 -13.004)" fill="#662b7d"/>
      <path id="Trazado_71263" data-name="Trazado 71263" d="M362.71,23.013a5.839,5.839,0,0,1,1.744-4.3,6.036,6.036,0,0,1,4.419-1.862,5.665,5.665,0,0,1,4.3,1.862,5.656,5.656,0,0,1,1.86,4.3,6.028,6.028,0,0,1-1.86,4.417,5.85,5.85,0,0,1-4.3,1.744,5.966,5.966,0,0,1-6.163-6.161" transform="translate(-329.919 -13.004)" fill="#e73751"/>
    </g>
  </g>
</svg>
