<svg id="tick_1_" data-name="tick (1)" xmlns="http://www.w3.org/2000/svg" width="25" height="25" viewBox="0 0 25 25">
  <g id="Grupo_6161" data-name="Grupo 6161" transform="translate(6.014 8.074)">
    <g id="Grupo_6160" data-name="Grupo 6160">
      <path id="Trazado_7143" data-name="Trazado 7143" d="M135.887,165.68a1.013,1.013,0,0,0-1.433-.038l-6.47,6.136L124.9,168.61a1.013,1.013,0,0,0-1.452,1.414l3.784,3.885a1.014,1.014,0,0,0,1.424.028l7.2-6.824A1.013,1.013,0,0,0,135.887,165.68Z" transform="translate(-123.158 -165.364)" fill="#353535"/>
    </g>
  </g>
  <g id="Grupo_6163" data-name="Grupo 6163">
    <g id="Grupo_6162" data-name="Grupo 6162">
      <path id="Trazado_7144" data-name="Trazado 7144" d="M12.5,0A12.5,12.5,0,1,0,25,12.5,12.514,12.514,0,0,0,12.5,0Zm0,22.973A10.473,10.473,0,1,1,22.973,12.5,10.485,10.485,0,0,1,12.5,22.973Z" fill="#353535"/>
    </g>
  </g>
</svg>
