<svg xmlns="http://www.w3.org/2000/svg" width="31.479" height="9.662" viewBox="0 0 31.479 9.662"><defs><style>.a{fill:#2699fb;}</style></defs><path class="a" d="M61.9,10.258,63.5.9h2.546l-1.6,9.358Z" transform="translate(-50.803 -0.739)"/><path class="a" d="M92.655.394A6.348,6.348,0,0,0,90.378,0c-2.528,0-4.3,1.273-4.3,3.083-.018,1.344,1.273,2.1,2.241,2.546.986.466,1.327.753,1.327,1.165,0,.627-.789.914-1.524.914a5.483,5.483,0,0,1-2.4-.484l-.359-.161L85,9.16a8.055,8.055,0,0,0,2.85.5c2.689,0,4.428-1.255,4.446-3.191.018-1.058-.663-1.882-2.133-2.546-.9-.43-1.434-.717-1.434-1.165,0-.394.466-.807,1.452-.807a4.415,4.415,0,0,1,1.9.359l.233.108L92.655.394" transform="translate(-69.762)"/><path class="a" d="M131.7,1h-1.972a1.278,1.278,0,0,0-1.344.771L124.6,10.34h2.671s.43-1.147.538-1.4h3.263c.072.323.3,1.4.3,1.4h2.366L131.7,1m-3.137,6.023c.215-.538,1.022-2.617,1.022-2.617-.018.018.215-.538.341-.9l.179.807s.484,2.241.592,2.707Z" transform="translate(-102.264 -0.821)"/><path class="a" d="M21.192.9l-2.51,6.382-.269-1.291A7.234,7.234,0,0,0,14.9,2.065l2.277,8.192h2.707L23.9.9H21.192" transform="translate(-12.229 -0.739)"/><path class="a" d="M4.141.9H.036L0,1.1A8.444,8.444,0,0,1,6.2,5.991l-.9-4.3A1.079,1.079,0,0,0,4.141.9" transform="translate(0 -0.739)"/></svg>