<svg xmlns="http://www.w3.org/2000/svg" width="32.183" height="9.757" viewBox="0 0 32.183 9.757"><defs><style>.a{fill:#3c58bf;}.b{fill:#293688;}.c{fill:#ffbc00;}.d{fill:#f7981d;}.e{fill:#ed7c00;}.f{fill:#051244;}</style></defs><g transform="translate(-473.39 -280)"><g transform="translate(473.39 104.4)"><path class="a" d="M184.8,189.6l1.635-9.2h2.554l-1.584,9.2Z" transform="translate(-173 -4.494)"/><path class="b" d="M184.8,189.6l2.094-9.2h2.094l-1.584,9.2Z" transform="translate(-173 -4.494)"/><path class="a" d="M255.816,176.009a6.479,6.479,0,0,0-2.35-.409c-2.554,0-4.393,1.277-4.393,3.116,0,1.379,1.277,2.094,2.3,2.554s1.328.766,1.328,1.175c0,.613-.817.92-1.533.92a5.553,5.553,0,0,1-2.452-.511l-.358-.153L248,184.8a8.283,8.283,0,0,0,2.912.511c2.707,0,4.5-1.277,4.5-3.218,0-1.073-.664-1.89-2.2-2.554-.92-.46-1.481-.715-1.481-1.175,0-.409.46-.817,1.481-.817a4.685,4.685,0,0,1,1.941.358l.255.1.409-1.992Z" transform="translate(-232.164)"/><path class="b" d="M255.816,176.009a6.479,6.479,0,0,0-2.35-.409c-2.554,0-3.933,1.277-3.933,3.116a2.67,2.67,0,0,0,1.839,2.554c1.022.46,1.328.766,1.328,1.175,0,.613-.817.92-1.533.92a5.553,5.553,0,0,1-2.452-.511l-.358-.153L248,184.8a8.283,8.283,0,0,0,2.912.511c2.707,0,4.5-1.277,4.5-3.218,0-1.073-.664-1.89-2.2-2.554-.92-.46-1.481-.715-1.481-1.175,0-.409.46-.817,1.481-.817a4.685,4.685,0,0,1,1.941.358l.255.1.409-1.992Z" transform="translate(-232.164)"/><path class="a" d="M363.559,180.4c-.613,0-1.073.051-1.328.664L358.4,189.6h2.758l.511-1.533h3.269l.307,1.533H367.7l-2.146-9.2Zm-1.175,6.13c.153-.46,1.022-2.707,1.022-2.707s.2-.562.358-.92l.153.868s.511,2.3.613,2.81h-2.146Z" transform="translate(-335.515 -4.493)"/><path class="b" d="M364.172,180.4c-.613,0-1.073.051-1.328.664L358.4,189.6h2.758l.511-1.533h3.269l.307,1.533H367.7l-2.146-9.2Zm-1.788,6.13c.2-.511,1.022-2.707,1.022-2.707s.2-.562.358-.92l.153.868s.511,2.3.613,2.81h-2.146Z" transform="translate(-335.515 -4.493)"/><path class="a" d="M55.031,187.585l-.255-1.328a7.405,7.405,0,0,0-3.576-4.036l2.3,8.173h2.759l4.138-9.2H57.637Z" transform="translate(-47.931 -5.242)"/><path class="b" d="M55.031,187.585l-.255-1.328a7.405,7.405,0,0,0-3.576-4.036l2.3,8.173h2.759l4.138-9.2H58.147Z" transform="translate(-47.931 -5.242)"/><path class="c" d="M0,180.4l.46.1c3.269.766,5.517,2.707,6.385,5.006l-.92-4.342c-.153-.613-.613-.766-1.175-.766Z" transform="translate(0 -4.493)"/><path class="d" d="M0,180.4H0c3.269.766,5.977,2.758,6.845,5.057l-.868-3.627a1.247,1.247,0,0,0-1.226-.971Z" transform="translate(0 -4.493)"/><path class="e" d="M0,180.4H0c3.269.766,5.977,2.758,6.845,5.057l-.613-1.992a1.8,1.8,0,0,0-1.073-1.481Z" transform="translate(0 -4.493)"/><g transform="translate(3.32 176.928)"><path class="f" d="M58.334,201.508,56.6,199.772l-.817,1.941-.2-1.277A7.405,7.405,0,0,0,52,196.4l2.3,8.173h2.759Z" transform="translate(-52 -196.4)"/><path class="f" d="M187.405,291.448l-2.2-2.248-.409,2.248Z" transform="translate(-176.32 -283.275)"/><path class="f" d="M252.444,274.8h0c.2.2.307.358.255.562,0,.613-.817.92-1.533.92a5.552,5.552,0,0,1-2.452-.511l-.358-.153L248,277.712a8.282,8.282,0,0,0,2.912.511,5.058,5.058,0,0,0,3.729-1.277Z" transform="translate(-235.485 -269.794)"/><path class="f" d="M364,226.292h2.4l.511-1.533h3.269l.307,1.533h2.452l-.868-3.729-3.065-2.963.153.817s.511,2.3.613,2.81h-2.146c.2-.511,1.022-2.707,1.022-2.707s.2-.562.358-.92" transform="translate(-344.077 -218.119)"/></g></g></g></svg>