<svg xmlns="http://www.w3.org/2000/svg" xmlns:xlink="http://www.w3.org/1999/xlink" width="85" height="85" viewBox="0 0 85 85">
  <defs>
    <filter id="Rectángulo_18131" x="0" y="0" width="85" height="85" filterUnits="userSpaceOnUse">
      <feOffset dy="3" input="SourceAlpha"/>
      <feGaussianBlur stdDeviation="3" result="blur"/>
      <feFlood flood-opacity="0.161"/>
      <feComposite operator="in" in2="blur"/>
      <feComposite in="SourceGraphic"/>
    </filter>
    <clipPath id="clip-path">
      <rect id="Rectángulo_18411" data-name="Rectángulo 18411" width="36.183" height="11.863" transform="translate(0 0)" fill="none"/>
    </clipPath>
  </defs>
  <g id="Grupo_19577" data-name="Grupo 19577" transform="translate(-22992 -1833)">
    <g transform="matrix(1, 0, 0, 1, 22992, 1833)" filter="url(#Rectángulo_18131)">
      <rect id="Rectángulo_18131-2" data-name="Rectángulo 18131" width="67" height="67" rx="10" transform="translate(9 6)" fill="#fff"/>
    </g>
    <g id="Grupo_19576" data-name="Grupo 19576" transform="translate(1 72)">
      <rect id="Rectángulo_18412" data-name="Rectángulo 18412" width="46" height="26" transform="translate(23011 1788)" fill="#060707"/>
      <g id="Grupo_19576-2" data-name="Grupo 19576" transform="translate(23016 1795)">
        <g id="Grupo_19576-3" data-name="Grupo 19576" transform="translate(0 0)" clip-path="url(#clip-path)">
          <path id="Trazado_41657" data-name="Trazado 41657" d="M107.013,2.222V13.509c-.085.022-2.44.031-2.629.01l-.008-.007a.035.035,0,0,1-.006-.01.053.053,0,0,1,0-.011.068.068,0,0,1,0-.011c0-.008,0-.015,0-.023s0-.008,0-.011,0-.008,0-.011V13.4q0-4,0-7.99s0-.008,0-.011,0-.008,0-.011,0-.015,0-.023a.041.041,0,0,0,0-.011s0-.007-.018-.03l-2.276,8.2H99.614L97.341,5.326l-.023,0V13.5c-.087.028-2.511.034-2.649.008V2.233c.078-.023,3.869-.032,4.068-.007l2.106,8.063h0a.016.016,0,0,0,.008-.007l2.1-8.059Z" transform="translate(-82.843 -1.935)" fill="#fff"/>
          <path id="Trazado_41658" data-name="Trazado 41658" d="M10.324,11.625H7.881l-.07-.839a.128.128,0,0,0-.038.009,5.2,5.2,0,0,1-1.412.7,6.726,6.726,0,0,1-2.426.4,4.171,4.171,0,0,1-3.013-1.33A3.381,3.381,0,0,1,.065,8.994,3.052,3.052,0,0,1,.034,7.907,2.924,2.924,0,0,1,.642,6.43a3.524,3.524,0,0,1,1.2-.943,6.783,6.783,0,0,1,1.691-.564,14.126,14.126,0,0,1,2.511-.274c.528-.015,1.056-.013,1.584-.019h.129c0-.084,0-.159,0-.234a2.316,2.316,0,0,0-.311-1.141,1.908,1.908,0,0,0-1.269-.908A3.72,3.72,0,0,0,5.02,2.289a3.237,3.237,0,0,0-.747.144A1.8,1.8,0,0,0,3.026,3.671l-.019.061H.445a1.375,1.375,0,0,1,.033-.411A3.669,3.669,0,0,1,2.49.658a5.183,5.183,0,0,1,1.543-.5A8.449,8.449,0,0,1,6.1.07,5.712,5.712,0,0,1,7.8.434a3.555,3.555,0,0,1,2.04,2.031,6.135,6.135,0,0,1,.387,1.472,11.116,11.116,0,0,1,.1,1.613q0,2.969,0,5.938ZM7.774,6.7a.135.135,0,0,0-.031-.012l-.1,0a24.2,24.2,0,0,0-2.446.085,6.853,6.853,0,0,0-1.045.16,2.825,2.825,0,0,0-.938.4,1.354,1.354,0,0,0-.452.5,1.116,1.116,0,0,0,.506,1.557,2.051,2.051,0,0,0,.436.162,4.187,4.187,0,0,0,2.2-.059,3.125,3.125,0,0,0,1.232-.664,1.822,1.822,0,0,0,.426-.584A3.142,3.142,0,0,0,7.774,6.7" transform="translate(0 -0.038)" fill="#fff"/>
          <path id="Trazado_41659" data-name="Trazado 41659" d="M214.158,4.564H211.61c-.013-.034-.028-.068-.04-.1a3.3,3.3,0,0,0-1.052-1.5,2.681,2.681,0,0,0-3.652.3,3.452,3.452,0,0,0-.843,1.606,4.344,4.344,0,0,0,.237,2.82A3.1,3.1,0,0,0,207.3,8.981a2.683,2.683,0,0,0,3.544-.367,3.429,3.429,0,0,0,.734-1.221c.011-.032.023-.064.036-.1,0,0,0-.005.014-.015h2.559c-.065.24-.119.473-.192.7a5.627,5.627,0,0,1-1.782,2.688,5.062,5.062,0,0,1-2.515,1.127,5.41,5.41,0,0,1-2.97-.357,5.118,5.118,0,0,1-2.448-2.168,6.076,6.076,0,0,1-.778-2.21,7.219,7.219,0,0,1,.255-3.365,5.311,5.311,0,0,1,1.731-2.558A5.072,5.072,0,0,1,207.8.1a5.631,5.631,0,0,1,1.646-.063A5.133,5.133,0,0,1,212.734,1.7a5.847,5.847,0,0,1,1.394,2.69c.009.041.018.082.026.123,0,.015,0,.03.005.055" transform="translate(-178 0)" fill="#fff"/>
        </g>
      </g>
    </g>
  </g>
</svg>
