<svg xmlns="http://www.w3.org/2000/svg" xmlns:xlink="http://www.w3.org/1999/xlink" width="85" height="85" viewBox="0 0 85 85">
  <defs>
    <filter id="Rect치ngulo_18111" x="0" y="0" width="85" height="85" filterUnits="userSpaceOnUse">
      <feOffset dy="3" input="SourceAlpha"/>
      <feGaussianBlur stdDeviation="3" result="blur"/>
      <feFlood flood-opacity="0.161"/>
      <feComposite operator="in" in2="blur"/>
      <feComposite in="SourceGraphic"/>
    </filter>
  </defs>
  <g id="Grupo_18845" data-name="Grupo 18845" transform="translate(-961 -1582)">
    <g transform="matrix(1, 0, 0, 1, 961, 1582)" filter="url(#Rect치ngulo_18111)">
      <rect id="Rect치ngulo_18111-2" data-name="Rect치ngulo 18111" width="67" height="67" rx="10" transform="translate(9 6)" fill="#fff"/>
    </g>
    <g id="Cartoonito" transform="translate(973 1615)">
      <g id="Grupo_18262" data-name="Grupo 18262" transform="translate(0 0)">
        <path id="Trazado_40293" data-name="Trazado 40293" d="M143.982,12.576a.827.827,0,0,1-.817.83c-3.148.037-6.353,0-9.486.018-.749-.008-1.5-.018-2.247-.023a.827.827,0,0,1-.821-.829c.006-3.911,0-7.832-.006-11.743a.828.828,0,0,1,.828-.83c3.892,0,7.818.017,11.71,0a.828.828,0,0,1,.831.82c.005.531.008,1.092,0,1.534-.039,2.989,0,7.294,0,10.219" transform="translate(-106.971 0)" fill="#2fcdf2"/>
        <path id="Trazado_40294" data-name="Trazado 40294" d="M140.467,24.683a2.291,2.291,0,0,0-1.083-1.853,2.884,2.884,0,0,0-2.624-.039,2.456,2.456,0,0,0-1.217,2.4,2.212,2.212,0,0,0,1.448,2.025,3.323,3.323,0,0,0,2.689-.252,2.361,2.361,0,0,0,.788-2.281" transform="translate(-111.004 -18.424)" fill="#fff"/>
        <path id="Trazado_40295" data-name="Trazado 40295" d="M174.417,22.611a2.328,2.328,0,0,0-1.921.983,2.788,2.788,0,0,0-.158,2.587,2.5,2.5,0,0,0,2.368,1.311,2.233,2.233,0,0,0,2.112-1.334,3.213,3.213,0,0,0-.133-2.664,2.421,2.421,0,0,0-2.268-.883" transform="translate(-140.95 -18.517)" fill="#fff"/>
        <path id="Trazado_40296" data-name="Trazado 40296" d="M143.242,27.785a1.24,1.24,0,0,0-.153-.021,1.286,1.286,0,0,0-1.289.508,1.892,1.892,0,0,0-.152,1.526,1.339,1.339,0,0,0,1.225.939,1.493,1.493,0,0,0,1.359-.59,2,2,0,0,0,.115-1.416,1.43,1.43,0,0,0-1.1-.946" transform="translate(-115.939 -22.73)"/>
        <path id="Trazado_40297" data-name="Trazado 40297" d="M180.636,28.42a1.56,1.56,0,0,0-1.238-.606,1.729,1.729,0,0,0-.263,0,1.281,1.281,0,0,0-1.075.668,1.63,1.63,0,0,0,.354,1.979,1.678,1.678,0,0,0,2.064-.007,1.774,1.774,0,0,0,.159-2.035" transform="translate(-145.689 -22.777)"/>
        <path id="Trazado_40298" data-name="Trazado 40298" d="M162.82,48.937h-.057l-.051,0h0l-.08-.007-.047-.006-.021,0a1.272,1.272,0,0,1-.626-.25.712.712,0,0,1-.134-.132.346.346,0,0,1-.047-.365.239.239,0,0,1,.255-.1l.023.006h0a.35.35,0,0,1,.047.02l.014.008a.708.708,0,0,1,.075.049l.009.007.011.009.013.011a1.378,1.378,0,0,0,.2.13.9.9,0,0,0,.406.1h.014a.9.9,0,0,0,.406-.1,1.375,1.375,0,0,0,.2-.13l.013-.011.011-.009.008-.006a.643.643,0,0,1,.076-.05l.014-.008a.351.351,0,0,1,.047-.02h0c.014,0,.023-.006.023,0a.236.236,0,0,1,.255.1.346.346,0,0,1-.047.365.728.728,0,0,1-.134.133,1.278,1.278,0,0,1-.626.25l-.021,0-.047.006-.08.007h0l-.054,0h-.05" transform="translate(-132.455 -39.364)" fill="#ed1b98"/>
        <path id="Trazado_40299" data-name="Trazado 40299" d="M71.728,25.158a1.58,1.58,0,0,0,.664-1.894,1.663,1.663,0,0,0-1.35-.908,5.3,5.3,0,0,0-1.752-.007.934.934,0,0,0-.714.459,3.621,3.621,0,0,0-.19,1.411v.026c-.024.548.023,1.056.04,1.605a1.686,1.686,0,0,0,.409,1.252.74.74,0,0,0,.923.039,1.4,1.4,0,0,0,.339-1.049c0-.067,0-.135,0-.2a8.354,8.354,0,0,0,.836.985c.071.063.146.12.222.178a.8.8,0,0,0,1.186-.136c.312-.483-.289-1.441-.614-1.759m-1.72-.562c.01-.513,0-.9-.007-1.055a1.92,1.92,0,0,1,.223-.017.811.811,0,0,1,.632.166.546.546,0,0,1,.134.354.528.528,0,0,1-.379.5,1.972,1.972,0,0,1-.577.056h-.026" transform="translate(-56.005 -18.247)" fill="#fff"/>
        <path id="Trazado_40300" data-name="Trazado 40300" d="M311.338,23.433a2.724,2.724,0,0,0-3.634-.75,2.643,2.643,0,0,0-.894,3.348,2.553,2.553,0,0,0,2.166,1.265,2.939,2.939,0,0,0,1.487-.335,2.583,2.583,0,0,0,.875-3.527m-2.9,1.735a.768.768,0,0,1,1.182-.929.8.8,0,0,1,.006,1.175.816.816,0,0,1-1.187-.246" transform="translate(-251.072 -18.262)" fill="#fff"/>
        <path id="Trazado_40301" data-name="Trazado 40301" d="M277.957,22.313c-.78-.029-1.4-.033-2.177,0-.618.029-1.123.364-.962,1.042.112.474.77.545,1.265.559-.006.509-.023,1.2,0,1.713a4.913,4.913,0,0,0,.079.933.85.85,0,0,0,1.633.192,6.258,6.258,0,0,0,.146-2.061c0-.218.007-.561.011-.78.549,0,1.208-.13,1.262-.654.087-.84-.645-.924-1.254-.947" transform="translate(-225.062 -18.257)"/>
        <path id="Trazado_40302" data-name="Trazado 40302" d="M217.014,26.142c.124.154.257.3.393.445a2.073,2.073,0,0,0,.51.391,1.327,1.327,0,0,0,.636.162c.636-.01.83-.583.866-1.1.029-.423.023-.908.019-1.33,0-.323-.006-.62-.005-.929a3.393,3.393,0,0,0-.067-.911.9.9,0,0,0-.576-.623.994.994,0,0,0-.813.131,1.7,1.7,0,0,0-.433,1.392,10.973,10.973,0,0,0-.837-.956,1.576,1.576,0,0,0-1.174-.59.792.792,0,0,0-.742.579,6.94,6.94,0,0,0-.118,1.85c0,.41-.026.821,0,1.23a1.846,1.846,0,0,0,.291,1.016.834.834,0,0,0,.8.34.747.747,0,0,0,.58-.318,2.174,2.174,0,0,0,.242-1.354s.259.362.43.573" transform="translate(-175.818 -18.194)"/>
        <path id="Trazado_40303" data-name="Trazado 40303" d="M103.7,22.825a.849.849,0,0,0-.325-.33,2.329,2.329,0,0,0-1.147-.2c-.571,0-1.085-.024-1.656,0a1.786,1.786,0,0,0-.464.075.793.793,0,0,0-.507,1.018c.108.378.509.49.867.55.091.015.266.024.358.028.008.686-.036,1.643.039,2.325.059.543.3,1.026.974,1a.617.617,0,0,0,.46-.267,1.743,1.743,0,0,0,.237-1c.007-.146.041-2.05.044-2.05a2.669,2.669,0,0,0,.537-.043.719.719,0,0,0,.583-1.1" transform="translate(-81.541 -18.251)"/>
        <path id="Trazado_40304" data-name="Trazado 40304" d="M3.035,25.337a2.485,2.485,0,0,1-.3.121.65.65,0,0,1-.635-.129.882.882,0,0,1-.259-.621A.841.841,0,0,1,2.212,24a.659.659,0,0,1,.382-.093,1.536,1.536,0,0,1,.471.16A1.08,1.08,0,0,0,3.977,24a.736.736,0,0,0,.356-.735.955.955,0,0,0-.41-.7,1.936,1.936,0,0,0-.812-.341,2.722,2.722,0,0,0-.409-.034,2.692,2.692,0,0,0-2.1.9,2.682,2.682,0,0,0-.355,2.793A2.43,2.43,0,0,0,1.679,27.1a3.012,3.012,0,0,0,1.551.053,1.4,1.4,0,0,0,1.031-.718.968.968,0,0,0,.069-.624.831.831,0,0,0-.994-.551,1.122,1.122,0,0,0-.3.082" transform="translate(0 -18.17)" fill="#fff"/>
        <path id="Trazado_40305" data-name="Trazado 40305" d="M36.052,23.029c-.2-.422-.507-1.06-1.12-1.084-.059,0-.107,0-.113,0-.545.018-.838.51-1.048.936-.052.106-.107.21-.163.313-.216.4-.409.8-.588,1.218-.2.466-.414.941-.575,1.423a1.128,1.128,0,0,0-.055.421.761.761,0,0,0,.356.682.928.928,0,0,0,.69.1c.375-.1.559-.429.683-.838.192,0,.528,0,.72,0h.075c.19,0,.525,0,.718,0a1.3,1.3,0,0,0,.05.133.966.966,0,0,0,.635.7.89.89,0,0,0,.222.029h.012a.919.919,0,0,0,.579-.23l.017-.015a.625.625,0,0,0,.176-.25,1.092,1.092,0,0,0,.058-.3,1.276,1.276,0,0,0-.138-.653l-.283-.652q-.426-.984-.908-1.943m-1.176,1.863c-.21,0-.236,0-.533-.006a11.79,11.79,0,0,1,.532-1.215h0c.159.3.416.922.532,1.215-.3.006-.323,0-.533.006" transform="translate(-26.527 -17.973)"/>
        <path id="Trazado_40306" data-name="Trazado 40306" d="M254.594,22.627a.856.856,0,0,0-.711-.343.932.932,0,0,0-.708.347,2.011,2.011,0,0,0-.314,1.164c-.031.451-.017.909-.019,1.361a6,6,0,0,0,.067,1.32.973.973,0,0,0,1.44.665c.66-.409.556-1.287.574-1.935.013-.448,0-.85,0-1.275a2.38,2.38,0,0,0-.331-1.3" transform="translate(-207.084 -18.25)" fill="#fff"/>
      </g>
    </g>
  </g>
</svg>
