<svg xmlns="http://www.w3.org/2000/svg" xmlns:xlink="http://www.w3.org/1999/xlink" width="85" height="85" viewBox="0 0 85 85">
  <defs>
    <filter id="Rect치ngulo_17998" x="0" y="0" width="85" height="85" filterUnits="userSpaceOnUse">
      <feOffset dy="3" input="SourceAlpha"/>
      <feGaussianBlur stdDeviation="3" result="blur"/>
      <feFlood flood-opacity="0.161"/>
      <feComposite operator="in" in2="blur"/>
      <feComposite in="SourceGraphic"/>
    </filter>
    <linearGradient id="linear-gradient" y1="0.5" x2="1" y2="0.5" gradientUnits="objectBoundingBox">
      <stop offset="0.142" stop-color="#194597"/>
      <stop offset="0.309" stop-color="#194798"/>
      <stop offset="0.997" stop-color="#1b4a9b"/>
    </linearGradient>
    <linearGradient id="linear-gradient-2" x1="-0.135" y1="0.75" x2="1.006" y2="0.302" gradientUnits="objectBoundingBox">
      <stop offset="0" stop-color="#58ac36"/>
      <stop offset="0.352" stop-color="#58ac36"/>
      <stop offset="0.865" stop-color="#b7cc35"/>
      <stop offset="1" stop-color="#b7cc35"/>
    </linearGradient>
  </defs>
  <g id="Grupo_18780" data-name="Grupo 18780" transform="translate(-259 -1246)">
    <g transform="matrix(1, 0, 0, 1, 259, 1246)" filter="url(#Rect치ngulo_17998)">
      <rect id="Rect치ngulo_17998-2" data-name="Rect치ngulo 17998" width="67" height="67" rx="10" transform="translate(9 6)" fill="#fff"/>
    </g>
    <g id="Grupo_784" data-name="Grupo 784" transform="translate(281 1268)">
      <path id="Trazado_683" data-name="Trazado 683" d="M93.671,85.936a.461.461,0,0,0-.283.077.516.516,0,0,0-.163.234l-.6,1.493c-.028.067-.053.135-.074.2a1.915,1.915,0,0,0-.065-.2l-.594-1.507a.516.516,0,0,0-.16-.218.478.478,0,0,0-.311-.086.632.632,0,0,0-.381.1.361.361,0,0,0-.151.3.907.907,0,0,0,.007.1.589.589,0,0,0,.053.167L92,89c.019.035.037.07.058.1a.394.394,0,0,0,.1.107.468.468,0,0,0,.149.074.723.723,0,0,0,.218.028.653.653,0,0,0,.327-.07.514.514,0,0,0,.2-.23l1.063-2.391a.552.552,0,0,0,.044-.151.807.807,0,0,0,.012-.121.383.383,0,0,0-.132-.3A.526.526,0,0,0,93.671,85.936Zm-8.595,1.126a.628.628,0,0,1,.2-.241.587.587,0,0,1,.36-.1.594.594,0,0,1,.311.07,1.6,1.6,0,0,1,.26.2l.163.151a.337.337,0,0,0,.232.081.462.462,0,0,0,.316-.121.416.416,0,0,0,.135-.313.6.6,0,0,0-.091-.288,1.021,1.021,0,0,0-.267-.3,1.6,1.6,0,0,0-.432-.23,1.78,1.78,0,0,0-.608-.1,1.841,1.841,0,0,0-.683.121,1.51,1.51,0,0,0-.536.353,1.541,1.541,0,0,0-.346.569,2.217,2.217,0,0,0-.121.759,2.269,2.269,0,0,0,.086.627,1.4,1.4,0,0,0,.792.926,1.793,1.793,0,0,0,.759.146,1.9,1.9,0,0,0,.6-.088,1.657,1.657,0,0,0,.45-.214,1.058,1.058,0,0,0,.29-.283.568.568,0,0,0,.107-.3.373.373,0,0,0-.042-.169.566.566,0,0,0-.1-.137.461.461,0,0,0-.142-.1.383.383,0,0,0-.381.03,1.44,1.44,0,0,0-.137.132,1.224,1.224,0,0,1-.269.221.66.66,0,0,1-.892-.244.837.837,0,0,1-.1-.288,1.684,1.684,0,0,1-.028-.283,2.287,2.287,0,0,1,.021-.281A1.022,1.022,0,0,1,85.076,87.062ZM78.5,84.831a.7.7,0,0,0-.323.072.32.32,0,0,0-.165.318v.989l0,0a.859.859,0,0,0-.195-.167,1.174,1.174,0,0,0-.267-.118,1.242,1.242,0,0,0-.348-.044,1.4,1.4,0,0,0-.62.132,1.352,1.352,0,0,0-.464.367,1.642,1.642,0,0,0-.286.553,2.415,2.415,0,0,0-.1.69,2.452,2.452,0,0,0,.1.7,1.707,1.707,0,0,0,.279.555,1.275,1.275,0,0,0,.46.369,1.4,1.4,0,0,0,.62.132,1.248,1.248,0,0,0,.441-.07,1.312,1.312,0,0,0,.3-.151.9.9,0,0,0,.123-.107.318.318,0,0,0,.1.172.584.584,0,0,0,.367.093c.388,0,.469-.218.469-.4V85.24a.386.386,0,0,0-.125-.3A.544.544,0,0,0,78.5,84.831ZM77.872,88.3a.546.546,0,0,1-.483.237A.534.534,0,0,1,76.9,88.3a1.218,1.218,0,0,1-.169-.666,1.567,1.567,0,0,1,.044-.371.9.9,0,0,1,.13-.29.586.586,0,0,1,.207-.186.6.6,0,0,1,.288-.065.571.571,0,0,1,.276.065.559.559,0,0,1,.2.186.943.943,0,0,1,.123.29,1.455,1.455,0,0,1,.044.371A1.178,1.178,0,0,1,77.872,88.3Zm2.166-2.368a.527.527,0,0,0-.383.123.447.447,0,0,0-.123.327v2.526c0,.181.086.395.5.395a.583.583,0,0,0,.346-.091.364.364,0,0,0,.137-.316V86.352a.38.38,0,0,0-.132-.316A.541.541,0,0,0,80.038,85.936ZM82.6,87.2l-.327-.063a.626.626,0,0,1-.325-.114.2.2,0,0,1-.065-.149.18.18,0,0,1,.088-.153.551.551,0,0,1,.316-.072,1.058,1.058,0,0,1,.376.058,2.376,2.376,0,0,1,.309.153.751.751,0,0,0,.13.065.378.378,0,0,0,.327-.012.481.481,0,0,0,.118-.111.462.462,0,0,0,.093-.29.377.377,0,0,0-.037-.163.478.478,0,0,0-.128-.158,1.592,1.592,0,0,0-.418-.216,2.425,2.425,0,0,0-1.282-.035,1.367,1.367,0,0,0-.45.209,1.063,1.063,0,0,0-.32,1.233.85.85,0,0,0,.225.3,1.192,1.192,0,0,0,.341.2,2.3,2.3,0,0,0,.427.111l.369.06a.522.522,0,0,1,.3.116.235.235,0,0,1,.067.16.209.209,0,0,1-.093.181.594.594,0,0,1-.341.074.964.964,0,0,1-.334-.051,1.606,1.606,0,0,1-.237-.118l-.193-.123a.368.368,0,0,0-.434.012.579.579,0,0,0-.211.436.359.359,0,0,0,.046.169.462.462,0,0,0,.139.146,1.605,1.605,0,0,0,.49.225,2.435,2.435,0,0,0,.678.088,1.844,1.844,0,0,0,1.056-.269,1.076,1.076,0,0,0,.132-1.551A1.733,1.733,0,0,0,82.6,87.2Zm-2.206-2.4a.612.612,0,0,0-.367-.123.54.54,0,0,0-.39.149.492.492,0,0,0-.151.371.5.5,0,0,0,.151.378.619.619,0,0,0,.782,0,.5.5,0,0,0,.151-.378A.46.46,0,0,0,80.4,84.806ZM90.33,86.35A1.617,1.617,0,0,0,89.8,86a2.007,2.007,0,0,0-1.384,0,1.549,1.549,0,0,0-.894.9,1.951,1.951,0,0,0-.125.715,2.118,2.118,0,0,0,.118.715,1.59,1.59,0,0,0,.339.557,1.5,1.5,0,0,0,.539.355,1.917,1.917,0,0,0,.71.125,1.844,1.844,0,0,0,.692-.128,1.545,1.545,0,0,0,.885-.915A2.106,2.106,0,0,0,90.8,87.6a2.028,2.028,0,0,0-.121-.706A1.524,1.524,0,0,0,90.33,86.35Zm-.706,1.95a.63.63,0,0,1-.525.23.616.616,0,0,1-.513-.23,1.032,1.032,0,0,1-.193-.671,1.055,1.055,0,0,1,.193-.676.618.618,0,0,1,.513-.232.628.628,0,0,1,.527.234,1.07,1.07,0,0,1,.188.673A1.05,1.05,0,0,1,89.624,88.3Zm22.84-3.468a.688.688,0,0,0-.323.072.32.32,0,0,0-.165.318v.989l0,0a.86.86,0,0,0-.2-.167,1.149,1.149,0,0,0-.269-.118,1.225,1.225,0,0,0-.346-.044,1.4,1.4,0,0,0-.62.132,1.331,1.331,0,0,0-.464.367,1.6,1.6,0,0,0-.286.553,2.414,2.414,0,0,0-.1.69,2.452,2.452,0,0,0,.1.7,1.62,1.62,0,0,0,.279.555,1.267,1.267,0,0,0,.457.369,1.422,1.422,0,0,0,.622.132,1.234,1.234,0,0,0,.439-.07,1.22,1.22,0,0,0,.3-.151.8.8,0,0,0,.125-.107.318.318,0,0,0,.1.172.579.579,0,0,0,.367.093c.388,0,.469-.218.469-.4V85.24a.386.386,0,0,0-.125-.3A.548.548,0,0,0,112.464,84.831Zm-.629,3.473a.546.546,0,0,1-.483.237.538.538,0,0,1-.488-.246,1.217,1.217,0,0,1-.167-.666,1.455,1.455,0,0,1,.044-.371.9.9,0,0,1,.128-.29.575.575,0,0,1,.495-.251.559.559,0,0,1,.276.065.547.547,0,0,1,.2.186.943.943,0,0,1,.123.29,1.456,1.456,0,0,1,.044.371A1.178,1.178,0,0,1,111.835,88.3Zm-2.168-3.968a.576.576,0,0,0-.358-.012.363.363,0,0,0-.221.265l-.587,1.962a.377.377,0,0,0,.037.339.541.541,0,0,0,.3.193.529.529,0,0,0,.4-.007.455.455,0,0,0,.211-.279l.578-1.939C110.084,84.685,110.061,84.455,109.666,84.337Zm5.493,2.867-.327-.063a.637.637,0,0,1-.325-.114.21.21,0,0,1-.063-.149.183.183,0,0,1,.086-.153.556.556,0,0,1,.316-.072,1.048,1.048,0,0,1,.376.058,2.116,2.116,0,0,1,.309.153.845.845,0,0,0,.13.065.383.383,0,0,0,.33-.012.518.518,0,0,0,.116-.111.462.462,0,0,0,.093-.29.41.41,0,0,0-.035-.163.488.488,0,0,0-.13-.158,1.535,1.535,0,0,0-.416-.216,2.126,2.126,0,0,0-.724-.1,2.147,2.147,0,0,0-.56.07,1.377,1.377,0,0,0-.448.209,1.052,1.052,0,0,0-.32,1.233.8.8,0,0,0,.225.3,1.161,1.161,0,0,0,.341.2,2.2,2.2,0,0,0,.427.111l.367.06a.522.522,0,0,1,.3.116.225.225,0,0,1,.067.16.212.212,0,0,1-.091.181.6.6,0,0,1-.344.074.95.95,0,0,1-.332-.051,1.638,1.638,0,0,1-.239-.118l-.193-.123a.368.368,0,0,0-.434.012.567.567,0,0,0-.142.172.537.537,0,0,0-.07.265.337.337,0,0,0,.049.169.454.454,0,0,0,.137.146,1.659,1.659,0,0,0,.49.225,2.435,2.435,0,0,0,.678.088,1.844,1.844,0,0,0,1.056-.269A1.071,1.071,0,0,0,116,87.55,1.713,1.713,0,0,0,115.159,87.2Zm1.769-1.2H116.5a.037.037,0,0,0-.035.016.057.057,0,0,0-.012.035.064.064,0,0,0,.012.037.037.037,0,0,0,.035.016h.149v.457c0,.033.021.049.06.049a.068.068,0,0,0,.049-.014.063.063,0,0,0,.012-.035v-.457h.156a.037.037,0,0,0,.035-.016.063.063,0,0,0,.009-.037.056.056,0,0,0-.009-.035A.039.039,0,0,0,116.928,86Zm-21.062-.128a1.709,1.709,0,0,0-.75.153,1.518,1.518,0,0,0-.522.4,1.626,1.626,0,0,0-.3.571,2.323,2.323,0,0,0-.093.655,2.131,2.131,0,0,0,.121.757,1.392,1.392,0,0,0,.346.536,1.42,1.42,0,0,0,.55.316,2.365,2.365,0,0,0,.71.1,2.4,2.4,0,0,0,.553-.067,1.614,1.614,0,0,0,.49-.2.822.822,0,0,0,.228-.19.356.356,0,0,0,.079-.232.474.474,0,0,0-.121-.318.363.363,0,0,0-.276-.146.416.416,0,0,0-.223.06c-.053.033-.109.063-.167.1l-.232.114a.732.732,0,0,1-.3.058.66.66,0,0,1-.745-.629h1.709a.617.617,0,0,0,.339-.077.329.329,0,0,0,.137-.3,1.724,1.724,0,0,0-.413-1.233A1.476,1.476,0,0,0,95.867,85.876ZM95.24,87.16a.562.562,0,0,1,.19-.353.621.621,0,0,1,.418-.146.6.6,0,0,1,.255.049.534.534,0,0,1,.172.13.62.62,0,0,1,.1.183.686.686,0,0,1,.03.137Zm22.431-1.145a.1.1,0,0,0-.056-.014.114.114,0,0,0-.063.014.069.069,0,0,0-.035.044l-.142.423-.151-.427a.069.069,0,0,0-.028-.039A.1.1,0,0,0,117.14,86a.111.111,0,0,0-.06.014.05.05,0,0,0-.021.046v.5a.066.066,0,0,0,.012.039.072.072,0,0,0,.044.012.068.068,0,0,0,.049-.014.063.063,0,0,0,.012-.035v-.351l.13.344a.066.066,0,0,0,.023.035.076.076,0,0,0,.049.014.1.1,0,0,0,.037-.009.053.053,0,0,0,.026-.033l.137-.381v.376a.051.051,0,0,0,.014.039.059.059,0,0,0,.044.014.062.062,0,0,0,.046-.014.049.049,0,0,0,.012-.035v-.511A.037.037,0,0,0,117.671,86.015Zm-17.837.037a.357.357,0,0,0-.142-.125.517.517,0,0,0-.251-.051.813.813,0,0,0-.494.153,1.244,1.244,0,0,0-.214.2.283.283,0,0,0-.139-.223.661.661,0,0,0-.32-.07.476.476,0,0,0-.371.123.412.412,0,0,0-.1.279v2.549c0,.2.084.427.481.427a.527.527,0,0,0,.362-.1.406.406,0,0,0,.121-.325v-1.2a2.242,2.242,0,0,1,.046-.488.381.381,0,0,1,.211-.265,1.178,1.178,0,0,1,.246-.088l.241-.046a.579.579,0,0,0,.209-.072.422.422,0,0,0,.123-.116.375.375,0,0,0,.056-.146.916.916,0,0,0,0-.26A.357.357,0,0,0,99.834,86.053Zm3.058-.23a.45.45,0,0,0-.281.079.574.574,0,0,0-.165.232l-.683,1.634-.648-1.641a.531.531,0,0,0-.158-.218.485.485,0,0,0-.313-.086.62.62,0,0,0-.378.1.357.357,0,0,0-.153.3.906.906,0,0,0,.007.1.589.589,0,0,0,.053.167l1.07,2.4-.388.82a1.419,1.419,0,0,0-.063.151.5.5,0,0,0-.035.179.391.391,0,0,0,.125.281.485.485,0,0,0,.355.128.452.452,0,0,0,.309-.109.736.736,0,0,0,.193-.274l1.6-3.568a.552.552,0,0,0,.044-.151.808.808,0,0,0,.012-.121.383.383,0,0,0-.132-.3A.526.526,0,0,0,102.892,85.823Zm5.89,1.47a.557.557,0,0,0-.413.023.484.484,0,0,0-.255.318.457.457,0,0,0,.056.429.6.6,0,0,0,.316.223.537.537,0,0,0,.418-.028.5.5,0,0,0,.251-.313.49.49,0,0,0-.037-.406A.562.562,0,0,0,108.782,87.292ZM107.2,87.3l.657-.583a.446.446,0,0,0,.165-.313.384.384,0,0,0-.035-.167.439.439,0,0,0-.091-.13.651.651,0,0,0-.149-.1.441.441,0,0,0-.2-.046.449.449,0,0,0-.262.074,1.876,1.876,0,0,0-.223.186l-.815.766-.012-1.727a.326.326,0,0,0-.16-.306.605.605,0,0,0-.318-.079c-.418,0-.5.235-.5.43l.026,3.654c0,.181.088.395.5.392a.58.58,0,0,0,.344-.093.372.372,0,0,0,.137-.318l-.007-.82.223-.214.685,1.061a1.181,1.181,0,0,0,.216.265.473.473,0,0,0,.32.107.544.544,0,0,0,.355-.116.363.363,0,0,0,.142-.29.481.481,0,0,0-.091-.255Z" transform="translate(-75.734 -55.36)" fill="#194597"/>
      <path id="Trazado_684" data-name="Trazado 684" d="M89.367,81.707v0Z" transform="translate(-57.717 -58.792)" fill="none"/>
      <path id="Trazado_685" data-name="Trazado 685" d="M82.854,71.836h0Z" transform="translate(-66.338 -71.836)" fill="none"/>
      <path id="Trazado_686" data-name="Trazado 686" d="M87.406,83.667h0Z" transform="translate(-60.308 -56.2)" fill="none"/>
      <path id="Trazado_687" data-name="Trazado 687" d="M103.345,91.53,99.9,88.092a.179.179,0,0,1,0-.255l3.313-3.313a4.684,4.684,0,0,0,1.388-3.267,4.551,4.551,0,0,0-7.77-3.225L94.1,80.767v-4.3a4.6,4.6,0,0,0-4.55-4.629h-.081A4.573,4.573,0,0,0,85,76.389v1.228a6.151,6.151,0,0,0-1.177-.116,6.037,6.037,0,0,0,0,12.075A5.97,5.97,0,0,0,85,89.459v5.212A4.6,4.6,0,0,0,89.548,99.3h.07a4.571,4.571,0,0,0,4.464-4.158l2.825,2.825a4.513,4.513,0,0,0,3.218,1.335h0a4.554,4.554,0,0,0,4.553-4.55v0A4.528,4.528,0,0,0,103.345,91.53Zm-1.105,5.2a2.99,2.99,0,0,1-4.228,0L93,91.709a.269.269,0,0,0-.46.19v2.712A2.992,2.992,0,0,1,89.455,97.6a3.031,3.031,0,0,1-2.9-3.051V88.916a6.035,6.035,0,0,0,0-10.756V76.314a3.031,3.031,0,0,1,2.9-3.053h.091a2.992,2.992,0,0,1,2.99,2.988v7.5a.268.268,0,0,0,.46.19L97.94,79a2.984,2.984,0,0,1,2.663-.829,2.852,2.852,0,0,1,1.14.474,2.992,2.992,0,0,1,.423,4.581l-4.409,4.409a.273.273,0,0,0,0,.383L102.24,92.5a2.99,2.99,0,0,1,0,4.228Z" transform="translate(-73.027 -71.835)" fill="url(#linear-gradient)"/>
      <path id="Trazado_688" data-name="Trazado 688" d="M81.26,77.172h.94a1.824,1.824,0,1,1,0,3.647h-.94Zm-2-1.994v7.636H82.2a3.818,3.818,0,1,0-.035-7.636Z" transform="translate(-71.07 -67.419)" fill="#fec400"/>
      <path id="Trazado_689" data-name="Trazado 689" d="M84.859,82.725v0h0a6.03,6.03,0,0,1-3.3,5.377v5.632a3.031,3.031,0,0,0,2.9,3.051A2.992,2.992,0,0,0,87.54,93.8V91.088A.269.269,0,0,1,88,90.9l5.017,5.017a2.989,2.989,0,0,0,4.228-4.228l-4.483-4.481a.273.273,0,0,1,0-.383l4.409-4.409a2.992,2.992,0,0,0-.423-4.581,2.852,2.852,0,0,0-1.14-.474,2.984,2.984,0,0,0-2.663.829L88,83.132a.268.268,0,0,1-.46-.19v-7.5a2.992,2.992,0,0,0-2.99-2.988h-.091a3.031,3.031,0,0,0-2.9,3.053v1.846A6.03,6.03,0,0,1,84.859,82.725Z" transform="translate(-68.032 -71.024)" fill="url(#linear-gradient-2)"/>
    </g>
  </g>
</svg>
