<svg xmlns="http://www.w3.org/2000/svg" xmlns:xlink="http://www.w3.org/1999/xlink" width="85" height="85" viewBox="0 0 85 85">
  <defs>
    <filter id="Rectángulo_18093" x="0" y="0" width="85" height="85" filterUnits="userSpaceOnUse">
      <feOffset dy="3" input="SourceAlpha"/>
      <feGaussianBlur stdDeviation="3" result="blur"/>
      <feFlood flood-opacity="0.161"/>
      <feComposite operator="in" in2="blur"/>
      <feComposite in="SourceGraphic"/>
    </filter>
    <clipPath id="clip-path">
      <rect id="Rectángulo_18354" data-name="Rectángulo 18354" width="57.786" height="11.964" fill="none"/>
    </clipPath>
  </defs>
  <g id="Grupo_19656" data-name="Grupo 19656" transform="translate(-9072 -1145)">
    <g transform="matrix(1, 0, 0, 1, 9072, 1145)" filter="url(#Rectángulo_18093)">
      <rect id="Rectángulo_18093-2" data-name="Rectángulo 18093" width="67" height="67" rx="10" transform="translate(9 6)" fill="#fff"/>
    </g>
    <g id="Grupo_19655" data-name="Grupo 19655" transform="translate(9086 1179)">
      <g id="Grupo_19655-2" data-name="Grupo 19655" clip-path="url(#clip-path)">
        <path id="Trazado_42249" data-name="Trazado 42249" d="M128.1,32.6a.944.944,0,0,0,1.041.894c.52,0,.774-.28.774-.574,0-.24-.16-.44-.654-.547L128.5,32.2c-1.415-.307-1.975-1.107-1.975-2.041a2.35,2.35,0,0,1,2.549-2.2c1.922,0,2.589,1.2,2.656,1.975l-1.682.307a.871.871,0,0,0-.948-.814.646.646,0,0,0-.721.574c0,.28.227.44.521.493l.881.174c1.375.28,2.042,1.107,2.042,2.081a2.341,2.341,0,0,1-2.643,2.242c-2.082,0-2.749-1.348-2.8-2.082Z" transform="translate(-114.701 -25.369)" fill="#1c1a1a"/>
        <path id="Trazado_42250" data-name="Trazado 42250" d="M192.349,31.474a1.518,1.518,0,0,0,1.548,1.641,1.368,1.368,0,0,0,1.375-.987l1.788.547a3.14,3.14,0,0,1-3.163,2.308,3.46,3.46,0,0,1-3.563-3.509,3.424,3.424,0,0,1,3.5-3.523,3.1,3.1,0,0,1,3.19,2.308l-1.815.547a1.3,1.3,0,0,0-1.335-.988,1.5,1.5,0,0,0-1.521,1.655" transform="translate(-172.745 -25.368)" fill="#1c1a1a"/>
        <path id="Trazado_42251" data-name="Trazado 42251" d="M273.756,31.461a3.523,3.523,0,1,1-3.523-3.509,3.43,3.43,0,0,1,3.523,3.509m-2.029,0a1.5,1.5,0,1,0-2.99,0,1.5,1.5,0,1,0,2.99,0" transform="translate(-242.062 -25.369)" fill="#1c1a1a"/>
        <path id="Trazado_42252" data-name="Trazado 42252" d="M344.12,36.749h-2.042l-2.723-6.632h2.2l1.535,4.123,1.415-4.123h2.135Z" transform="translate(-307.995 -27.334)" fill="#1c1a1a"/>
        <path id="Trazado_42253" data-name="Trazado 42253" d="M421.993,32.876a2.979,2.979,0,0,1-3.056,2.108,3.52,3.52,0,0,1-.147-7.032,3.1,3.1,0,0,1,3.323,3.4,4.221,4.221,0,0,1-.04.627h-4.618a1.436,1.436,0,0,0,1.508,1.281A1.281,1.281,0,0,0,420.3,32.4Zm-1.842-2.2a1.189,1.189,0,0,0-1.335-1.121,1.263,1.263,0,0,0-1.321,1.121Z" transform="translate(-377.085 -25.369)" fill="#1c1a1a"/>
        <path id="Trazado_42254" data-name="Trazado 42254" d="M499.7,31.463a2.746,2.746,0,0,0-.641-.067c-.814,0-1.548.48-1.548,1.8v2.9h-2.029V29.462h1.962v.894a1.873,1.873,0,0,1,1.722-.961,2,2,0,0,1,.534.067Z" transform="translate(-449.698 -26.679)" fill="#1c1a1a"/>
        <path id="Trazado_42255" data-name="Trazado 42255" d="M545.426,39.3l1.508-3.443-2.789-5.738h2.269l1.615,3.55,1.468-3.55h2.149L547.561,39.3Z" transform="translate(-493.859 -27.334)" fill="#1c1a1a"/>
        <path id="Trazado_42256" data-name="Trazado 42256" d="M11.715,4.807A2.814,2.814,0,0,0,8.9,1.986H6.081V.1H8.9a4.705,4.705,0,1,1,0,9.4H6.081V7.629H8.9a2.814,2.814,0,0,0,2.812-2.822" transform="translate(-5.519 -0.095)" fill="#1c1a1a"/>
        <path id="Trazado_42257" data-name="Trazado 42257" d="M5.794,37.937c-.006.007,0,.007.006,0s.007-.006,0,0a.021.021,0,0,0-.009.007" transform="translate(-5.255 -34.424)" fill="#1c1a1a"/>
        <path id="Trazado_42258" data-name="Trazado 42258" d="M20.95,32.982c0-.008,0-.008-.007,0s0,.009,0,.006a.011.011,0,0,0,.006-.01" transform="translate(-19.006 -29.929)" fill="#1c1a1a"/>
        <path id="Trazado_42259" data-name="Trazado 42259" d="M22.589,30.615c0-.005-.01,0-.013,0s0,0,0,0,.008,0,.008-.006" transform="translate(-20.489 -27.783)" fill="#1c1a1a"/>
        <path id="Trazado_42260" data-name="Trazado 42260" d="M10.918,66.243c0,.006,0,.006,0,0s.009,0,.009-.005-.006-.007-.012,0" transform="translate(-9.906 -60.116)" fill="#1c1a1a"/>
        <path id="Trazado_42261" data-name="Trazado 42261" d="M18.371,72.852s.005,0,.006,0,0,0,0,0,0,0,0,0" transform="translate(-16.671 -66.117)" fill="#1c1a1a"/>
        <path id="Trazado_42262" data-name="Trazado 42262" d="M17.3,33.832s0,0,0,0-.006,0,0,0,.005,0,.007,0" transform="translate(-15.698 -30.702)" fill="#1c1a1a"/>
        <path id="Trazado_42263" data-name="Trazado 42263" d="M42.18,49.286s0,0,0-.006-.008-.014-.005,0a.022.022,0,0,0,.006.01" transform="translate(-38.276 -44.717)" fill="#1c1a1a"/>
        <path id="Trazado_42264" data-name="Trazado 42264" d="M6.5,49.533c-.005,0-.006,0,0,.012s.009.011.009,0a.008.008,0,0,0-.006-.009" transform="translate(-5.898 -44.955)" fill="#1c1a1a"/>
        <path id="Trazado_42265" data-name="Trazado 42265" d="M6.535,41.651s0,0,0,0a.024.024,0,0,0,0,.011s0,0,0,0a.02.02,0,0,0,0-.011" transform="translate(-5.925 -37.801)" fill="#1c1a1a"/>
        <path id="Trazado_42266" data-name="Trazado 42266" d="M8.4,50.218c-.005.008-.008.03,0,.03s.006,0,.009-.009,0-.031-.005-.021" transform="translate(-7.619 -45.574)" fill="#1c1a1a"/>
        <path id="Trazado_42267" data-name="Trazado 42267" d="M10.726,65.951a.006.006,0,0,0,0,.006s0,0,0,0,0-.006,0-.006,0,0,0,0" transform="translate(-9.735 -59.852)" fill="#1c1a1a"/>
        <path id="Trazado_42268" data-name="Trazado 42268" d="M9.121,57.581a.029.029,0,0,0,.013.013c.007,0,.008,0,0-.009s-.017-.017-.013,0" transform="translate(-8.277 -52.253)" fill="#1c1a1a"/>
        <path id="Trazado_42269" data-name="Trazado 42269" d="M10.289,65.05s0,0,0,.005a.02.02,0,0,0,.006.007s0,0,0-.005a.01.01,0,0,0-.006-.007" transform="translate(-9.337 -59.039)" fill="#1c1a1a"/>
        <path id="Trazado_42270" data-name="Trazado 42270" d="M16.36,31.675s0,0,0,.006,0,0,.006,0,0-.006,0-.006a.009.009,0,0,0-.006,0" transform="translate(-14.848 -28.745)" fill="#1c1a1a"/>
        <path id="Trazado_42271" data-name="Trazado 42271" d="M24.6,49.476c-.02-.009-.022-.008-.011.014s.029.014.029,0-.008-.009-.018-.014" transform="translate(-22.311 -44.899)" fill="#1c1a1a"/>
        <path id="Trazado_42272" data-name="Trazado 42272" d="M20.825,51.177c-.005,0-.01,0-.01,0a.04.04,0,0,0,.009.013c.006.006.01.006.01,0a.018.018,0,0,0-.009-.013" transform="translate(-18.891 -46.445)" fill="#1c1a1a"/>
        <path id="Trazado_42273" data-name="Trazado 42273" d="M30.8,49.928a.011.011,0,0,0,.005-.009s0,0-.007,0-.006,0-.005.009,0,.005.007,0" transform="translate(-27.952 -45.303)" fill="#1c1a1a"/>
        <path id="Trazado_42274" data-name="Trazado 42274" d="M20.881,51.5s0,.008,0,.008a.009.009,0,0,0,.008-.008s0-.008,0-.008-.006,0-.008.008" transform="translate(-18.95 -46.734)" fill="#1c1a1a"/>
        <path id="Trazado_42275" data-name="Trazado 42275" d="M30.769,52.17a.041.041,0,0,0,.009.03c.009.009.01.009,0,0a.1.1,0,0,1-.008-.03.1.1,0,0,0,0-.019.1.1,0,0,1,0,.02" transform="translate(-27.926 -47.331)" fill="#1c1a1a"/>
        <path id="Trazado_42276" data-name="Trazado 42276" d="M42.476,41.344s0-.007,0-.007,0,0,0,.006,0,.007,0,.007,0,0,0-.006" transform="translate(-38.545 -37.517)" fill="#1c1a1a"/>
        <path id="Trazado_42277" data-name="Trazado 42277" d="M30.006,56.14a.024.024,0,0,0,0-.019s-.005.013-.006.032,0,.04,0,.046a.047.047,0,0,0,.006.022c.006.009.007.006.009-.023a.128.128,0,0,0,0-.038.044.044,0,0,1,0-.02" transform="translate(-27.223 -50.935)" fill="#1c1a1a"/>
        <path id="Trazado_42278" data-name="Trazado 42278" d="M24.718,36.171a.038.038,0,0,0-.009.014c0,.006.019,0,.022-.01s0-.013-.013,0" transform="translate(-22.426 -32.823)" fill="#1c1a1a"/>
        <path id="Trazado_42279" data-name="Trazado 42279" d="M29.607,53.522l.024,0c.005,0,.008,0,.006-.005s0-.015.01-.029.013-.026,0-.029-.041,0-.046.005a.128.128,0,0,0-.009.037c0,.027,0,.029.01.025" transform="translate(-26.859 -48.511)" fill="#1c1a1a"/>
        <path id="Trazado_42280" data-name="Trazado 42280" d="M33.988,33.66s0,0,0,.006,0,.007.006.007,0,0,0-.006a.018.018,0,0,0-.006-.007" transform="translate(-30.847 -30.549)" fill="#1c1a1a"/>
        <path id="Trazado_42281" data-name="Trazado 42281" d="M27.367,35.334s0,.006-.006,0-.007,0-.008.006,0,.009-.006.006-.005,0-.007,0a.005.005,0,0,0,0,.007c.011,0,.028-.015.027-.026s0-.009,0-.009,0,0,0,.008" transform="translate(-24.814 -32.061)" fill="#1c1a1a"/>
        <path id="Trazado_42282" data-name="Trazado 42282" d="M27.146,33.564s0,.007,0,.007.005,0,.006-.007,0-.007,0-.007a.006.006,0,0,0-.006.007" transform="translate(-24.637 -30.456)" fill="#1c1a1a"/>
        <path id="Trazado_42283" data-name="Trazado 42283" d="M27.15,35.24s0,.005,0,0a.011.011,0,0,0,0-.008s0,0,0,0,0,0,0,.008" transform="translate(-24.641 -31.976)" fill="#1c1a1a"/>
        <path id="Trazado_42284" data-name="Trazado 42284" d="M26.945,35.464a.012.012,0,0,0,0,.012s0,0,0-.006,0-.015-.007-.005" transform="translate(-24.455 -32.181)" fill="#1c1a1a"/>
        <path id="Trazado_42285" data-name="Trazado 42285" d="M15.357,33.7c0-.005-.008,0-.013,0s0,0,0,0l.01-.006" transform="translate(-13.925 -30.582)" fill="#1c1a1a"/>
        <path id="Trazado_42286" data-name="Trazado 42286" d="M12.534,38.858a.02.02,0,0,0-.012.008c-.01.012-.007.013.006,0s.011-.01.006-.01" transform="translate(-11.36 -35.267)" fill="#1c1a1a"/>
        <path id="Trazado_42287" data-name="Trazado 42287" d="M14.9,34.771s.005,0,0-.006-.012-.006-.017.005,0,.009,0,.006l.013-.006" transform="translate(-13.51 -31.548)" fill="#1c1a1a"/>
        <path id="Trazado_42288" data-name="Trazado 42288" d="M14.531,33.379a.026.026,0,0,1,.01-.008s0,0,0,0a.02.02,0,0,1-.014,0s0,0,0,0a.03.03,0,0,1-.008.013c0,.005,0,.007.006,0a.025.025,0,0,0,.015-.006" transform="translate(-13.167 -30.282)" fill="#1c1a1a"/>
        <path id="Trazado_42289" data-name="Trazado 42289" d="M13.426,33.98s0,0,.008,0,0,0,0,0-.006,0-.005,0" transform="translate(-12.185 -30.836)" fill="#1c1a1a"/>
        <path id="Trazado_42290" data-name="Trazado 42290" d="M13.308,38.7c0-.011,0-.014-.006-.006s-.007.017,0,.017.006-.005.008-.011" transform="translate(-12.068 -35.112)" fill="#1c1a1a"/>
        <path id="Trazado_42291" data-name="Trazado 42291" d="M14.341,37.994s0,0,0-.007,0-.007,0-.007,0,0,0,.007,0,.007,0,.007" transform="translate(-13.013 -34.47)" fill="#1c1a1a"/>
        <path id="Trazado_42292" data-name="Trazado 42292" d="M14.893,31.471s-.005,0,0,0,0,0,.006,0,0,0,0,0" transform="translate(-13.513 -28.562)" fill="#1c1a1a"/>
        <path id="Trazado_42293" data-name="Trazado 42293" d="M15.2,31.152c.006-.007,0-.007-.01,0l-.01.006h.008a.023.023,0,0,0,.013-.007" transform="translate(-13.779 -28.268)" fill="#1c1a1a"/>
        <path id="Trazado_42294" data-name="Trazado 42294" d="M12.535,35.263c0-.009-.006-.013-.01-.006s0,.006,0,.005a.008.008,0,0,1,.006,0s0,0,0,0" transform="translate(-11.366 -31.996)" fill="#1c1a1a"/>
        <path id="Trazado_42295" data-name="Trazado 42295" d="M14.34,31.624s0,0-.007,0a.022.022,0,0,1-.011.01c-.007,0-.006,0,0,0s.02-.01.016-.015" transform="translate(-12.994 -28.7)" fill="#1c1a1a"/>
        <path id="Trazado_42296" data-name="Trazado 42296" d="M12.845,62.248s0-.01,0-.012-.011.008-.01.015,0,0,.007,0" transform="translate(-11.652 -56.484)" fill="#1c1a1a"/>
        <path id="Trazado_42297" data-name="Trazado 42297" d="M14.911,38.065c.006-.008.006-.008-.008,0s-.009.007,0,.006a.016.016,0,0,0,.012-.007" transform="translate(-13.519 -34.542)" fill="#1c1a1a"/>
        <path id="Trazado_42298" data-name="Trazado 42298" d="M9.632,40.283a.371.371,0,0,0-.047.093c0,.013.018-.009.032-.039a.114.114,0,0,1,.031-.045c.022-.022.022-.022.024,0a.022.022,0,0,1-.007.023.081.081,0,0,0-.012.016s0,0,0,0,.008-.006.007.007l0,.016.016-.025a.276.276,0,0,0,.018-.031s0,0,.005.006.014,0,.012-.017-.011-.02-.014-.007,0,.007,0,.007,0,0,0-.006-.048-.008-.064.009" transform="translate(-8.699 -36.545)" fill="#1c1a1a"/>
        <path id="Trazado_42299" data-name="Trazado 42299" d="M10.872,40.765a.038.038,0,0,0,.029-.01c.008-.009.01-.023,0-.014a.055.055,0,0,1-.021.007c-.027.006-.034.017-.01.017" transform="translate(-9.854 -36.973)" fill="#1c1a1a"/>
        <path id="Trazado_42300" data-name="Trazado 42300" d="M8.917,35.663l-.017.016-.017.017H8.89a.029.029,0,0,0,.012-.008.025.025,0,0,1,.009-.007s0,0,0,.007,0,0,.006,0a.126.126,0,0,1,.022-.015c.016-.007.02-.018.006-.012s-.012,0-.005,0,0,0-.032.011l-.022.012L8.9,35.67l.018-.007" transform="translate(-8.061 -32.355)" fill="#1c1a1a"/>
        <path id="Trazado_42301" data-name="Trazado 42301" d="M10.793,36.038c0-.007,0-.005-.01,0s0,.007,0,.008.008,0,.013-.011" transform="translate(-9.783 -32.704)" fill="#1c1a1a"/>
        <path id="Trazado_42302" data-name="Trazado 42302" d="M10.459,39.213c0-.009,0-.015,0-.009s-.01.016,0,.016a.012.012,0,0,0,.008-.006" transform="translate(-9.483 -35.578)" fill="#1c1a1a"/>
        <path id="Trazado_42303" data-name="Trazado 42303" d="M9.712,37.391c-.006.006-.008.01-.006.01a.172.172,0,0,0,.032-.035c0-.008,0-.005-.011.006s-.008.01-.007.01,0,0-.007.01" transform="translate(-8.809 -33.908)" fill="#1c1a1a"/>
        <path id="Trazado_42304" data-name="Trazado 42304" d="M9.718,39.633c.008-.005.013-.007.01,0s0,.016.021.016h.016l.006-.02c0-.01,0-.018,0-.017s-.006,0-.006-.005-.013-.016-.048.009l-.037.028c-.007.008.023,0,.037-.008" transform="translate(-8.785 -35.934)" fill="#1c1a1a"/>
        <path id="Trazado_42305" data-name="Trazado 42305" d="M11.9,34.887s0,0,0,.006,0,.006,0,.006l0-.006s0-.006,0-.006" transform="translate(-10.792 -31.663)" fill="#1c1a1a"/>
        <path id="Trazado_42306" data-name="Trazado 42306" d="M9.4,38.963a.049.049,0,0,0,.006-.019c0-.009,0-.012,0-.009s-.01.032-.006.028" transform="translate(-8.526 -35.336)" fill="#1c1a1a"/>
        <path id="Trazado_42307" data-name="Trazado 42307" d="M9.229,37.124a.045.045,0,0,0-.021.011c-.013.012-.013.012.011,0s.019-.011.009-.01" transform="translate(-8.35 -33.692)" fill="#1c1a1a"/>
        <path id="Trazado_42308" data-name="Trazado 42308" d="M9.434,38.348c-.009.012-.011.015-.009.018s0,.006,0,.01a.018.018,0,0,0,0,.011s0,0,.009-.012a.293.293,0,0,0,.013-.028c0-.012,0-.012-.006,0" transform="translate(-8.548 -34.794)" fill="#1c1a1a"/>
        <path id="Trazado_42309" data-name="Trazado 42309" d="M10.17,41.141c-.015.006-.021.017-.01.017a.156.156,0,0,0,.058-.03c.007-.009,0-.008-.048.013" transform="translate(-9.216 -37.323)" fill="#1c1a1a"/>
        <path id="Trazado_42310" data-name="Trazado 42310" d="M9.635,38.313l-.008,0a.025.025,0,0,0-.01.009.054.054,0,0,0,0,.035.045.045,0,0,1,0,.024c-.006.013-.005.015,0,.006a.16.16,0,0,0,.017-.045l.008-.033" transform="translate(-8.717 -34.772)" fill="#1c1a1a"/>
        <path id="Trazado_42311" data-name="Trazado 42311" d="M9.6,39.386s.008-.005.01-.011a.052.052,0,0,0,0-.01l-.01.011c-.007.008-.009.01,0,.01" transform="translate(-8.709 -35.727)" fill="#1c1a1a"/>
        <path id="Trazado_42312" data-name="Trazado 42312" d="M8.948,36.359s0,0,0,0-.005.01-.019.021l-.016.012.013,0a.069.069,0,0,0,.022-.009l.023-.018.019-.013a.024.024,0,0,0,.009-.007c.008-.01,0-.005-.018.007s-.024.013-.029,0" transform="translate(-8.085 -32.984)" fill="#1c1a1a"/>
        <path id="Trazado_42313" data-name="Trazado 42313" d="M36.364,41.307c-.005,0-.01,0-.01.006a.009.009,0,0,0,.009.008.008.008,0,0,0,.01-.006.009.009,0,0,0-.009-.008" transform="translate(-32.994 -37.489)" fill="#1c1a1a"/>
        <path id="Trazado_42314" data-name="Trazado 42314" d="M36.193,40.232c-.006,0-.008,0,0,0a.015.015,0,0,0,.011,0s0,0-.008,0" transform="translate(-32.843 -36.514)" fill="#1c1a1a"/>
        <path id="Trazado_42315" data-name="Trazado 42315" d="M36.6,33.415s0,0,0,.005a.017.017,0,0,0,.006.007s0,0,0-.005a.013.013,0,0,0-.006-.007" transform="translate(-33.221 -30.327)" fill="#1c1a1a"/>
        <path id="Trazado_42316" data-name="Trazado 42316" d="M35.654,40.125c-.013.006-.016.012-.013.025s.009.013.009,0,0-.014.01-.013.008,0,.007-.006,0-.007,0-.007l-.011,0" transform="translate(-32.346 -36.412)" fill="#1c1a1a"/>
        <path id="Trazado_42317" data-name="Trazado 42317" d="M34.579,33.715c0,.007,0,.009,0,.01s0,.005.006.01,0,.009,0,.007,0-.01,0-.019-.01-.02-.011-.007" transform="translate(-31.383 -30.592)" fill="#1c1a1a"/>
        <path id="Trazado_42318" data-name="Trazado 42318" d="M36.257,33.414c-.006-.01-.018-.021-.015-.014a.062.062,0,0,0,.011.013c.008.008.008.007,0,0" transform="translate(-32.892 -30.312)" fill="#1c1a1a"/>
        <path id="Trazado_42319" data-name="Trazado 42319" d="M36.792,39.813s0,0,0,.007a.036.036,0,0,0,.011.008s0,0,0-.007a.033.033,0,0,0-.011-.008" transform="translate(-33.392 -36.134)" fill="#1c1a1a"/>
        <path id="Trazado_42320" data-name="Trazado 42320" d="M39.066,38.283a.153.153,0,0,0,0,.022.106.106,0,0,1-.014.065c-.005,0-.005,0,0,.006s.009,0,.012-.01.007-.012.009-.011.006-.03,0-.05a.136.136,0,0,0-.007-.021" transform="translate(-35.44 -34.745)" fill="#1c1a1a"/>
        <path id="Trazado_42321" data-name="Trazado 42321" d="M39.886,43s0,0,0,.007,0,.007.007.007,0,0,0-.007S39.888,43,39.886,43" transform="translate(-36.199 -39.024)" fill="#1c1a1a"/>
        <path id="Trazado_42322" data-name="Trazado 42322" d="M2.255,26.591A2.255,2.255,0,1,0,4.51,28.846a2.255,2.255,0,0,0-2.255-2.255M4.3,29.035a.006.006,0,0,1,0,.006s0,0,0,0,0-.005,0,0m-.144-.092s0,0,0,0,0,0,0,0,0,0,0,0m-.017-.029c0-.007,0-.007,0,0s0,.007,0,0,0-.007,0-.005a.32.32,0,0,1-.014.046.365.365,0,0,1,.008-.045m0,.088c.007,0,.01,0,.009.006s0,.008-.006.006a.012.012,0,0,0-.009,0s0,0,0,0,0-.006.009-.007m0,.083a.028.028,0,0,1,0,.01s0,.005,0,0a.039.039,0,0,1,0-.01s0,0,0,0m-.03-.315a.042.042,0,0,1,0-.016.227.227,0,0,1,.017.052s0,0,0,0,0,0,0,.009,0,.013,0,.013-.011-.006-.015-.022S4.1,28.795,4.1,28.8a.011.011,0,0,0-.006.01s0,0,0,0a.039.039,0,0,1,0-.02c0-.005.006-.007.006,0s0,.006.007-.01m.008.254s0,0,0,0a.006.006,0,0,1,0-.007s0,0,0,0,0,.006,0,.007m0,.14s0,0,0,0,0,.006-.006.007,0,0,0,0l.006-.007m0-.228a.021.021,0,0,1-.022.012c-.012,0-.015,0-.018.01a.045.045,0,0,0,0,.02c0,.009,0,.01.01,0a.034.034,0,0,1,.013-.011s0,0-.006.014L4.08,29v.018c0,.01,0,.021,0,.025a.057.057,0,0,1-.005.028s0-.007,0-.015,0-.01,0,0,0,0,0-.006a.123.123,0,0,1,0-.019.008.008,0,0,0,0-.007.1.1,0,0,0-.009.027.107.107,0,0,1-.012.032s0,0,0-.015a.057.057,0,0,0,0-.026.147.147,0,0,1,.013-.055.061.061,0,0,0,.005-.017c0-.013.017-.038.02-.033s.019,0,.025,0,.009-.006,0,.008m-.021.186a.015.015,0,0,1-.006.007.087.087,0,0,0-.015.018c-.014.02-.015.021-.012.009a.1.1,0,0,1,.026-.033c.007-.007.01-.007.008,0m-.067.035a0,0,0,0,1,.006,0c0,.01,0,.013-.008,0l0-.008h.005m-.008-.01-.011.007s-.005,0,0,0,.005-.009.007-.008,0,0,0,0,0,0,0,0a.007.007,0,0,1,0,.012m0-.1c-.005.006-.007.006-.007,0s0-.007-.013,0-.012,0-.011,0,0,0-.006,0-.007,0,0-.017a.048.048,0,0,0,0-.021.111.111,0,0,1,0-.051c0-.007.006-.009.012-.008s.009,0,.011-.008a.042.042,0,0,1,.012-.02.127.127,0,0,0,.019-.026c0-.009,0-.017.006-.017s0-.011.006-.023.005-.028.014-.013a.144.144,0,0,0,.013.017c.006.006.006.007,0,.007s0,.005,0,.01,0,.009,0,.01,0,0,0,.006,0,.006,0,.006a.056.056,0,0,0,0,.023.06.06,0,0,0,0,.022s0,.011-.006.014-.007.008-.01.018a.123.123,0,0,1-.011.027.043.043,0,0,0-.007.017.079.079,0,0,1-.017.038m-.012.1s0,.006,0,.007,0,0,0-.005,0-.006,0-.007,0,0,0,.005m-.145-.126a.012.012,0,0,1,0,.01s0,0,0,0a.015.015,0,0,1,0-.01s0,0,0,0m-.006-.039s0,0,0-.006,0-.006,0-.006,0,0,0,.006,0,.006,0,.006m0-.054a.362.362,0,0,0-.026-.046s0-.006,0,0a.028.028,0,0,0,.013,0,.067.067,0,0,1,.031.033.11.11,0,0,0,.016.032s.005,0,.008.009l.01.02a.028.028,0,0,1,0,.02.069.069,0,0,0,0,.033.061.061,0,0,1,0,.052c-.006.022-.01.029-.015.031s-.028-.048-.028-.075a.2.2,0,0,0,0-.039.076.076,0,0,1,0-.024.175.175,0,0,0-.012-.045m.078.192c0,.005.01.006.022,0s.017,0,.018,0a.011.011,0,0,0,.012.01c.006,0,.011,0,.01.007s-.033.009-.047.005l-.021,0c-.014,0-.023-.011-.019-.022a.015.015,0,0,1,.026,0m-.006-.1c0-.007.007,0,.007.01a.031.031,0,0,1,0,.015s-.007-.021,0-.025m.017.023a.006.006,0,0,1,0-.007c.005,0,.005,0,0,.009s0,0,0,0m.034.078s0,0,0,0,0,0,0,0,0,0-.005,0m0-1.211.013.022c.009.014.01.016,0,.011s-.005,0-.005,0,0,0-.023-.053c-.013-.033-.026-.063-.029-.067a.118.118,0,0,1-.014-.039s0,0,0-.011,0-.005.006.008a.168.168,0,0,1,.012.024.557.557,0,0,0,.03.061c.007.011.009.017,0,.016s0,.015,0,.028M4,28.465c0,.006,0,.008,0,.014l-.007-.014a.083.083,0,0,1-.009-.033.072.072,0,0,1,0-.022l0,0A.275.275,0,0,1,4,28.465m.058.269a.067.067,0,0,1,0,.026c0,.032-.009.029,0,0a.061.061,0,0,1,.005-.023m-.005-.058s0,0,0,0a.042.042,0,0,1,.008.017c0,.013,0,.013,0,0a.117.117,0,0,1-.008-.017m.039.086c0-.005,0-.009,0-.022s0-.016,0-.009,0,.006-.007-.007,0-.014,0-.012.011.015.015.038,0,.017,0,.012m0-.021c0-.009,0-.009,0,0a.024.024,0,0,1,0,.013s0,0,0,0,0-.006,0,0,0,0,0-.005m-.044.39c.011,0,.009.007,0,.01s-.008,0-.007,0a.011.011,0,0,1,.01-.006m.043-.438c.005,0,.008.009.012.035s0,.013,0,0-.005-.012,0-.015,0-.007,0-.013,0-.01,0-.01m-.008.01a.015.015,0,0,1-.005-.006s0,0,.007,0,0,0,0,0m-.01-.028c0-.007-.009-.01-.007-.006s0,.006,0,0a.015.015,0,0,0-.009,0s-.006,0-.007-.01,0-.01,0-.007,0,0-.009-.014-.007-.018-.005-.02a.036.036,0,0,0,0-.017.24.24,0,0,1-.005-.025c0-.006,0-.01.006-.009s.008,0,.013.02a.124.124,0,0,1,0,.03.052.052,0,0,0,.019.046.024.024,0,0,1,.013.016c0,.013,0,.013,0,0m-.007-.506c.006.02.007.031,0,.021s0-.005,0,0a.007.007,0,0,1-.009.007c-.006,0-.008,0-.006.012s0,.016-.008,0,0-.011-.009-.012,0,0,0,.009.009.025,0,.018,0,0,0,.006,0,.009-.005,0,0-.012,0-.016,0-.012,0-.012a0,0,0,0,0,0,.007s0,0,0,0-.005,0,0,.011.006.009.009.028,0,.028-.009,0-.005-.018-.007-.015S4,28.23,4,28.216s.007-.039.018-.038.012,0,.005-.037c0-.008,0-.008,0,0s0,.01.007,0a.113.113,0,0,0-.006-.056c-.008-.023-.01-.034-.005-.029s0,0,0,0,0-.008,0-.008a.173.173,0,0,1,.013.023.1.1,0,0,1,.014.04.326.326,0,0,0,.014.055m-.027-.146s0,0,0,.009,0,.008-.006,0-.016-.01-.015,0a.005.005,0,0,0,0,0s0,0,0,.008,0,.006,0,0-.009-.032,0-.031,0-.013-.008-.035,0-.016.011.006A.061.061,0,0,0,4.025,28c.01,0,.019.026.011.025m-.011-.15s0-.006,0-.005,0,0,0,.008,0,0,0,0m-.284-.53.006,0,.011.011a.075.075,0,0,1-.017-.011c-.005-.005-.005-.006,0,0M3.668,27.3a.007.007,0,0,1,.007,0l.024.014c.02.01.026.014.027.02s-.039-.007-.048-.016-.016-.019-.011-.021m.067.067c.005.007,0,0-.013,0s-.007-.006-.006-.009.011,0,.019.013m-.26-.106s0,.005,0,0a.015.015,0,0,1-.007-.007s0-.005,0,0a.011.011,0,0,1,.007.007m-.165-.127c0-.01.016-.013.018,0s.006.006.012.008.018.009.018.014a.1.1,0,0,1-.026,0l-.026,0,0-.011m-.1-.051s0,0,0,0,0,0,0-.008.046,0,.05.018a.029.029,0,0,0,.015.011.026.026,0,0,1,.018.017c.005.011,0,.011-.02,0s-.041-.019-.039-.025-.005,0-.014-.006-.015,0-.011-.005M2.9,27a.024.024,0,0,1,.013,0c.005,0,.005,0,0,0a.025.025,0,0,1-.012,0c-.005,0-.005,0,0,0M2.872,27c.009,0,.017,0,.016.006s-.025,0-.029,0,0-.006.013,0m-.03,0c.006,0,.007,0,0,.007s-.007.007-.01,0,0-.006.005-.005m-.019.189s.008-.005.01-.012,0-.013.008-.012,0,0,0-.01,0-.01,0-.009.009-.006.012-.014a.082.082,0,0,1,.074-.026.061.061,0,0,0,.025,0c.009-.005.033,0,.036.005s-.009.007-.022.009c-.043.006-.062.012-.062.017a.005.005,0,0,1-.006,0c-.009,0-.039.041-.036.052a.073.073,0,0,0,.019.023l.017.015-.02,0a.044.044,0,0,1-.028-.012.037.037,0,0,0-.018-.011c-.012,0-.026-.018-.015-.017m-.007.065c0,.008-.011.014-.017.009a.015.015,0,0,1,0-.011c0-.008.019-.006.021,0m-.068-.272h.019l-.018.006c-.018.007-.021.006-.021,0s.009,0,.019,0m-.424-.051a.087.087,0,0,0,.029,0,.091.091,0,0,1,.054.01c0,.007-.04.021-.049.015a.137.137,0,0,0-.03-.009c-.035-.007-.038-.02,0-.016m-.061.019s.006,0,.006,0a.048.048,0,0,1,0-.011c0-.007.018,0,.02,0s0,.006.008,0a0,0,0,0,1,.007,0s.008.008.016.011a.179.179,0,0,1,.033.018c.011.007.021.011.023.01s0,0,0,0-.041.011-.037,0-.01-.022-.02-.022-.01.006-.014.013S2.295,27,2.292,27s-.006.005-.008.011-.005.01-.022,0-.015-.012-.011-.013,0,0,0-.006-.009-.006.01-.011.019-.006.011-.01a.023.023,0,0,0-.019,0c-.011.007-.038,0-.034-.01s0-.006,0-.006a.009.009,0,0,1-.007-.007c0-.009.048-.007.057,0m-.356.692a.023.023,0,0,1,0-.018c0-.01.006-.014.013-.014a.02.02,0,0,0,.015-.012c.006-.016.04-.017.042,0a.025.025,0,0,1-.006.018.016.016,0,0,0-.005.014.044.044,0,0,1-.026.041l-.026.01a.017.017,0,0,1-.018,0c0-.006,0-.009.006-.019s.01-.014.006-.016m.064-.129a.013.013,0,0,1,.008-.007s0,0,0,.007-.006.007-.008.008,0,0,0-.007m0,.192A.059.059,0,0,1,2,27.687c.01,0,.009,0,0-.007a.029.029,0,0,0-.019,0s0,0,0,0a.02.02,0,0,1,.012-.011c.009,0,.01-.006.006-.016s0-.012.008-.012a.02.02,0,0,0,.016-.012c0-.006,0-.011,0-.011s0-.005,0-.011,0-.009-.013-.006-.014,0-.008-.015,0-.027-.007-.01,0,0,0-.007,0-.015,0-.012,0,0,0-.021A.14.14,0,0,1,2,27.5a.034.034,0,0,1,.019-.006c.012,0,.012,0,0,.01s-.012.016.006.013.02.006,0,.028-.008.013,0,.017a.024.024,0,0,1,.009.018.024.024,0,0,0,.009.018.037.037,0,0,1,.012.022c0,.01.008.018.012.018s.015.015,0,.027a.02.02,0,0,0-.007.017s0,.009,0,.009l-.021,0-.042.008a.161.161,0,0,0-.037.01c-.008,0-.006,0,0-.011m.114-.336c-.016,0-.027-.006-.024-.007s.009-.017,0-.016-.005,0,0-.011,0-.011-.007-.01-.011-.01.008-.018a.011.011,0,0,1,.016.007c0,.008.008.01.013.006a.1.1,0,0,1,.033-.009c.014,0,.026-.007.027-.01s0-.006,0-.006a.116.116,0,0,1,.035.036c-.009.03-.074.043-.107.039m-.313-.476c.007,0,.011,0,.01,0s-.026.006-.024,0a.029.029,0,0,1,.014,0m-.537.184a.037.037,0,0,1,.012-.01.02.02,0,0,0,.009-.008s.007-.007.024-.013a.044.044,0,0,1,.028.007l.008,0a.018.018,0,0,1,.009,0s.005,0,.006,0,.009-.008.029-.012a.119.119,0,0,0,.032-.01s-.011,0-.039,0c-.011,0-.013,0-.007,0s.007-.007,0-.006a.029.029,0,0,0-.011.008.018.018,0,0,1-.027,0c0-.006,0-.012.021-.019a.149.149,0,0,0,.029-.012A.037.037,0,0,1,1.385,27a.026.026,0,0,0,.018-.006.173.173,0,0,1,.041-.018.335.335,0,0,1,.182-.024.083.083,0,0,1-.03.013c-.014,0-.025.01-.024.012s-.006.007-.016.011l-.039.019a.4.4,0,0,1-.075.034c-.011,0-.016.012-.006.01s.006,0,0,.009a.055.055,0,0,1-.023.012.024.024,0,0,0-.015.008.039.039,0,0,1-.012.011c-.009.006-.009.006,0,.009s0,.006-.065.021-.068.011-.036,0c.012-.005.014-.007.012-.01s0,0,.015-.005.017,0,.016,0,0,0,0-.007,0,0-.008,0-.016,0-.006-.007,0,0,0,0c-.032.017-.042.02-.05.018s-.012-.007,0-.015.007,0,0,0-.024,0-.017-.008m.019.041c0-.007.009-.009.01,0s0,.005-.005.006-.006,0,0,0m0,.01s0,0,0,.005a.01.01,0,0,1,0,.006s0,0,0-.005l0-.006M1.2,27.088s0,0,0,0l-.007,0s0,0,.005,0m-.005.023a.01.01,0,0,1,.01,0h.013c.005,0,.005,0,0,.007s0,.009,0,.009.008,0,0,0-.013,0-.013,0,0,0,0,0a.007.007,0,0,1-.006-.011m0,.03s.007-.005.009,0h.023c.011,0,.02,0,.021.008s.008.007.048,0,.047-.01.049-.006l0,.006-.009.006a.386.386,0,0,1-.069.018c-.045.009-.057.01-.056,0s0-.008,0-.008,0,0,0-.008-.006-.006-.012,0-.021,0-.015-.007m.006.025c0,.012-.014.023-.025.016l0,0,.011-.008c.014-.011.016-.011.018-.005m-.064-.045a.016.016,0,0,1,.015-.007h.02c.01,0,.015.006.01.014s-.017.009-.014,0-.007,0-.017,0-.016,0-.009,0,.009-.006,0,0-.007,0,0,0m-.017.033s0,0,0,.006,0,0,0,0,.006-.008.007,0m0,.019c0,.005,0,0,.01,0s.005-.007.007,0,.009,0,.009,0,0-.006.014-.009.014,0,.009.008a.053.053,0,0,1-.032.028c-.007,0-.008,0,0-.007s.005-.009-.007,0-.014.005-.012,0,0,0,0,0-.006,0,0,0a.008.008,0,0,1,.015,0m-.023.019s0,0,0,.008,0,0,0,0a.012.012,0,0,1,.006-.006m0,.044s0-.006,0-.005,0-.009.01-.014a.06.06,0,0,1,.03-.009s0,0-.008.011-.01.01,0,.011,0,.02-.015.022a.027.027,0,0,0-.013.009s-.007,0-.01,0a.025.025,0,0,0-.011-.011s0,0,0-.007.006,0,.009,0,.006,0,.011,0m-.034-.084.015-.008a0,0,0,0,1,0,0s0,0-.015.008-.015,0,0,0m0,.01c.009,0,.012,0,.009,0a.05.05,0,0,1-.018.01c-.007,0-.011,0-.009,0a.044.044,0,0,1,.018-.01m-.026.009s0,0,0,0,0,0-.005,0,0,0,0,0m0,.033a.012.012,0,0,0,.014,0c.01,0,.01,0,.01-.01a.015.015,0,0,1,.007-.013c.01-.009.013-.009.01,0s0,.008.01,0,.011,0,.009,0a.06.06,0,0,1-.033.023.151.151,0,0,0-.035.016c-.018.01-.025.012-.026.009s0,0,.006-.007.006,0,.006-.006,0,0-.007,0a.032.032,0,0,1-.013.007l-.011,0H.976L.99,27.22a.057.057,0,0,1,.028-.018.019.019,0,0,1,.017,0m-.065.024a.032.032,0,0,1,.011-.008s0,0,0,0-.015.011-.009,0m0-.013c.028-.021.057-.033.047-.021s-.029.023-.024.016,0,0-.009,0-.011.009-.009.007,0,0,0,0a.031.031,0,0,1-.016.008H.944l.024-.018M.883,27.3C.9,27.287.9,27.281.9,27.278s0-.006.011-.01a.083.083,0,0,1,.023-.009l.019,0c.01,0,.019,0,.013.009s0,0,0,0,.008,0,0,0,0,.006.009,0,.013,0,.011,0,0,0,.007,0,.018-.012.015,0,0,.012.009,0,0-.013.012-.015a.03.03,0,0,0,.012-.008c.006-.007.026-.014.022-.008l-.011.012a.051.051,0,0,0-.015.028c0,.013,0,.021,0,.02a.013.013,0,0,1,.011,0l0,.006-.011,0c-.006,0-.01,0-.009.006s-.026.023-.037.016-.009,0-.015,0-.065.03-.063.022,0-.006-.007,0a.012.012,0,0,1-.012,0l0-.005.015-.008a.087.087,0,0,1,.025-.009.022.022,0,0,0,.013-.006s-.009,0-.023,0-.025.005-.023,0a.02.02,0,0,1,.011-.009c.01,0,.009,0,0-.006H.917l.015-.014.015-.014-.009.006a.144.144,0,0,0-.032.026c-.007.011-.028.019-.034.013l-.006,0L.883,27.3M.2,28.472a.027.027,0,0,1-.005.01s0,0,0-.01,0-.011.006-.01a.025.025,0,0,1,0,.01m.294.555s0-.006,0-.012,0-.009,0-.006a.034.034,0,0,1,0,.012s0,.007,0,.006m.536,1.24c0,.009,0,.015,0,.014s-.006,0-.005-.006,0,0-.008,0A.015.015,0,0,1,1,30.266s0-.006,0-.006,0-.011-.012-.024S.969,30.21.964,30.21s-.006,0,0,0,0-.027,0-.028,0,0,0,.008,0,.007-.006-.008a.041.041,0,0,0-.01-.022s-.006-.007,0-.009.006,0,.011.008.009.01.009.009c-.007-.034-.012-.042-.03-.043s0,0,0-.007a.012.012,0,0,1,.015,0c.007,0,.009,0,.006-.013l0-.024c0-.033-.009-.048-.015-.049s0,.005,0,.014,0,.016,0,.017,0,0-.005-.009a.218.218,0,0,0,0-.033.084.084,0,0,1,0-.029A.057.057,0,0,0,.9,29.961.093.093,0,0,1,.9,29.912a.224.224,0,0,0-.007-.1c-.005-.015-.007-.026,0-.027s0-.007,0-.013a.152.152,0,0,1,0-.039,1.2,1.2,0,0,0-.022-.161.148.148,0,0,0-.06-.1C.766,29.444.738,29.41.739,29.4a.179.179,0,0,0-.016-.042C.714,29.338.7,29.3.686,29.272A.432.432,0,0,0,.654,29.2a.086.086,0,0,1-.014-.08c.009-.012.009-.03,0-.03s-.008-.007-.01-.016,0-.08.01-.079.005-.008.005-.019a.029.029,0,0,1,.005-.019c.014-.005.022-.1.023-.13a.136.136,0,0,0,0-.036c0-.007-.024.015-.025.027s-.011.012-.017,0A.032.032,0,0,0,.616,28.8c-.012,0-.013,0-.009-.015a.024.024,0,0,0-.014-.027s0-.008,0-.017a.094.094,0,0,0,0-.037.081.081,0,0,1,0-.028s0-.006-.005-.006a.065.065,0,0,1-.042-.048c-.005-.033-.01-.038-.024-.027s-.015.008-.031-.013a.138.138,0,0,1-.02-.03.053.053,0,0,0-.009-.014.1.1,0,0,1-.013-.049.066.066,0,0,1,.008-.019.167.167,0,0,0,.013-.089.294.294,0,0,1,0-.04.229.229,0,0,0,0-.038.253.253,0,0,1,.007-.059c0-.017.006-.027,0-.032s0-.007-.013.015a.119.119,0,0,0-.008.028.282.282,0,0,1,0,.037c0,.017,0,.032,0,.034s0,.016-.007.03a.064.064,0,0,0,0,.03s0,.021,0,.027-.007-.042,0-.054a.044.044,0,0,0,0-.023c-.008-.034-.008-.031,0-.04s.008-.01.008-.025a.315.315,0,0,1,.01-.058c.012-.045.012-.058,0-.064a.007.007,0,0,1,0-.009.241.241,0,0,0,.008-.032.128.128,0,0,1,.012-.038c0-.006,0-.009,0-.006s0-.017.006-.031a.034.034,0,0,0,0-.012.939.939,0,0,1,.063-.118.3.3,0,0,0,.03-.057c.005-.015.005-.016.008-.013s.012.009.017,0,.008-.025,0-.029a.006.006,0,0,1,0-.009s0-.006,0-.005S.6,27.807.6,27.818a.015.015,0,0,1,0,.014c-.006,0-.015-.036-.01-.044s0,0,0,0,.007.008.011,0,0-.006,0-.006,0,0,0-.013l.007-.015c0-.008,0-.012,0-.009s0,0,0-.011.009-.014,0-.007-.015.011,0-.011S.63,27.7.627,27.7s0-.021,0-.026,0,0,0,0-.006,0-.009.012,0,.01,0,.008,0,0,0,.009-.007.011-.007.006a.094.094,0,0,1,.007-.02c0-.007,0-.011,0-.009s0,0,0,0a.02.02,0,0,1,.008-.007.04.04,0,0,0,.014-.022s0,0-.006.007a.028.028,0,0,1-.007.01s0,0,0-.005l.007-.012a.049.049,0,0,0,.005-.012c0-.005,0-.005,0,0s0,.008-.006.008a.006.006,0,0,0,0,0,.163.163,0,0,1-.018.035s.008-.028.017-.04.007-.01,0-.006-.013.011-.013,0,.007-.022,0-.022-.006,0-.007-.007,0,0-.01,0-.006.009-.01.01a.082.082,0,0,0-.016.012c-.013.012-.023.017-.012.006s.006-.006,0-.006S.589,27.609.6,27.6s.006,0,0,0a.139.139,0,0,0-.032.028l-.01.009c-.008.006-.017.017-.012.015s0,0-.006.008l-.022.019a.1.1,0,0,0-.015.014L.5,27.7a.1.1,0,0,0-.016.014.186.186,0,0,1-.024.019l-.012.009.005-.008s.007-.005.007,0,0,0,0,0l.021-.021a.287.287,0,0,0,.028-.029c.01-.013.011-.014.005-.012l-.009.007s0,0,0,0,0,0-.008,0-.007,0,0-.007.006-.01,0-.009l.045-.064a.1.1,0,0,0,.019-.016l.009-.012c.005-.007,0-.007,0,0l-.008.005.021-.027a.015.015,0,0,0,.008-.005C.6,27.526.6,27.517.6,27.522l0,0,.053-.064.025-.018.015-.01.008,0,.008,0,.012,0,.013,0c.031-.01.018,0,.032.005s.01,0,.018-.006a.193.193,0,0,1,.054-.029.075.075,0,0,0,.021-.013c.007-.006.008-.006.007,0s0,.01.012,0,.007-.006.006,0,0,0,.011,0a.028.028,0,0,1,.023,0,.053.053,0,0,0,.024,0c.013,0,.022,0,.01.006a.04.04,0,0,0-.012.009s0,0,.02,0S1,27.387.989,27.4s0,.007,0,0A.064.064,0,0,0,1,27.389a.033.033,0,0,1,.018-.017.037.037,0,0,0,.013-.009s-.006,0-.015.006-.014.006-.013,0,.03-.017.033-.009.049.008.062-.006.014-.018.005-.016,0,0,.009-.01.023-.011.024,0,0,.008-.005.009l-.01,0s0,0,0,.006a.02.02,0,0,1,0,.014s0,.009,0,.01.005,0,.009-.009a.031.031,0,0,1,.017-.017c.013-.006.025-.018.017-.017s0,0,0-.006,0-.006,0-.007-.016-.007-.009-.02a.059.059,0,0,1,.018-.02.05.05,0,0,0,.022-.031.032.032,0,0,1,.012-.018c.008-.006.058-.019.055-.014a.12.12,0,0,1-.04.029s-.009,0-.018.011-.012.014-.01.013.007.028,0,.031-.011.014,0,.013.006,0,0,.011-.006.015.009,0,.012-.01.015,0,0,.008,0,.013-.008.008-.007.015.008.007.014-.007.006-.01.008-.007.009,0,.017-.011.013-.014.011-.014,0-.011.01-.015,0,0-.013,0-.019,0-.019-.014,0-.013.015-.03a.085.085,0,0,1,.051-.033c.013,0,.013,0,0,.007a.058.058,0,0,0-.014.013l-.007.013a.015.015,0,0,0,0,.014c0,.008.005.008.01,0s0-.006,0-.006,0,0,0-.011a.062.062,0,0,1,.043-.033c.015-.005.019-.005.018,0s0,.006,0,0a.025.025,0,0,1,.019-.01c.017,0,.03.006.022.015s0,.006,0,0,.008.006.011.014.007.012.012.008.024,0,.02.008,0,0,0,0,.015,0,.01.007,0,.006,0,0,.01,0,.009,0a.011.011,0,0,1-.009.008c-.007,0-.007,0,0,.006s.006,0,0,.006c-.022,0-.016.024.01.028.007,0,.011.006.011.01s0,.008.012.01l.013,0-.017.016c-.01.009-.018.015-.018.013s0,0-.006.006-.016.009-.019,0-.009-.023-.021-.013-.012.01-.008.021.006.01.008.01,0,.006,0,.015a.032.032,0,0,1-.01.027c-.009.01-.01.01-.023,0s-.023-.01-.01.007.008.031,0,.024l-.015-.006a.021.021,0,0,1-.011-.011s0,0-.007,0-.016-.009-.009-.017,0-.005,0,0-.007,0-.008-.009-.01-.007-.03,0-.027,0-.025,0,.022-.023.027-.02a.034.034,0,0,0,.021,0c.011,0,.015-.006.015-.013s0-.01.011-.013c.028-.015.036-.039.018-.05s-.01-.009-.009-.012,0,0-.006,0-.008,0-.006,0a.014.014,0,0,0,0-.014c-.007-.011-.008-.011-.012,0s-.01.009-.033.011a.106.106,0,0,0-.028,0l.011.008a.011.011,0,0,1,0,.014s-.007.007-.008.006-.009.01-.007.019l0,.009-.011.009a.084.084,0,0,1-.022.011.016.016,0,0,0-.014.011c0,.006,0,.007,0,0a.014.014,0,0,0-.011-.008c-.006,0-.01,0-.008,0s-.049.056-.059.058a.048.048,0,0,0-.03.022.01.01,0,0,1-.008.006.182.182,0,0,0-.061.052c-.026.032-.032.043-.024.047s.005.009,0,.019,0,.016.011.016a.023.023,0,0,1,.022.013c0,.007.009.014.012.013a0,0,0,0,1,0,.006s.007.006.017.005.019,0,0,.046a.061.061,0,0,0,0,.029c0,.018,0,.02.015.014s.017-.016.029-.052l.008-.025.022-.015A.119.119,0,0,0,1.19,27.6a.065.065,0,0,0,.014-.05c0-.007,0-.008.008-.021a.107.107,0,0,0,.024-.042.194.194,0,0,1,.016-.034.017.017,0,0,1,.016,0,.073.073,0,0,0,.024,0c.013,0,.025.009.021.018s0,.006.009.009.011,0,0,.029-.011.026,0,.022a.007.007,0,0,1,.009,0c0,.012.023,0,.045-.024l.019-.022c0,.016,0,.024,0,.04a.153.153,0,0,1,0,.051.022.022,0,0,0,0,.018.035.035,0,0,1,0,.014s0,.007.008.008l.009,0s.005,0,.011.006,0,0,0,.006,0,.009,0,.016.011.012,0,.03a.039.039,0,0,1-.029.028.183.183,0,0,0-.04.022c-.017.012-.024.014-.057.01s-.04,0-.052.008l-.03.021a.312.312,0,0,0-.038.035c-.017.019-.018.021-.006.009a.133.133,0,0,1,.074-.042c.016,0,.019,0,.016.01a.033.033,0,0,1-.018.015c-.01,0-.012.005-.005.006s.006.005,0,.015a.026.026,0,0,0,.016.039c.01,0,.017,0,.03-.017s.016-.016.012-.006,0,.013,0,.013,0,0,0,.007-.008,0-.008,0,0-.007,0,0a.1.1,0,0,1-.049.033.1.1,0,0,0-.024.015c-.009.007-.017.011-.019.008s.005-.026.01-.026a.054.054,0,0,0,.016-.012c.012-.011.011-.011,0-.007l-.019.006-.016.009-.031.017a.078.078,0,0,0-.044.055c0,.007,0,.01-.022.014s-.021.007-.019.011,0,.007-.008.006-.013,0-.021.018-.013.018-.018.018-.008,0-.01.01A.082.082,0,0,1,1,28.061c-.008.012-.009.01,0-.011s.006-.021,0-.015a.125.125,0,0,0-.018.052.031.031,0,0,1-.008.017c-.006.006-.007.009,0,.009s0,0,0,.007-.006,0-.008,0,0,0,0,.007,0,.012-.01.012a.03.03,0,0,0-.016.011c-.005.006-.011.011-.014.011a.069.069,0,0,0-.021.018.072.072,0,0,1-.021.018.128.128,0,0,0-.032.044.189.189,0,0,0-.007.031.314.314,0,0,1-.023.089c-.006.01-.011.018-.014.018s-.008-.019,0-.026a.122.122,0,0,0,0-.023A.068.068,0,0,1,.8,28.3c.011-.019,0-.048-.007-.04s-.01,0-.012,0-.012-.011-.024-.011-.021,0-.026.016-.006.016-.017.01a.045.045,0,0,0-.056,0,.04.04,0,0,1-.017.011c-.008,0-.03.031-.038.055a.078.078,0,0,1-.011.024.24.24,0,0,0-.023.047.216.216,0,0,0-.02.079c0,.043,0,.057.025.048s.015,0,.016,0,.023-.017.03-.034a.045.045,0,0,1,.041-.035c.02,0,.021,0,.006.026a.324.324,0,0,0-.018.031c-.005.011-.01.018-.011.016s-.006.007-.011.022a.181.181,0,0,1-.017.034c-.009.011-.01.011.026.013.019,0,.025,0,.028.015s0,.018-.017.061-.02.049-.018.067a.085.085,0,0,0,.008.031c.005.01.008.01.023,0s.028-.007.034.016,0,.015.022-.006a.137.137,0,0,0,.021-.032c0-.006.005-.01.007-.01H.746a.014.014,0,0,0,.009-.006.014.014,0,0,1,.011,0,.061.061,0,0,0,.023-.013c.02-.016.024-.012.009.009s-.011.03,0,.017a.022.022,0,0,1,.016-.007s.008,0,.009-.009,0-.007,0,0a.007.007,0,0,0,.006.007s.008.008.01.017.008.015.018.014a.024.024,0,0,1,.019.007c0,.006.011.007.027,0s.022-.007.023,0a.023.023,0,0,0,.011.018c.008,0,.009.01,0,.02s-.005.015.005.016.016.013.025.037.015.036.047.043.035.012.047.035a.407.407,0,0,1,.022.054.126.126,0,0,0,.017.036c.01.01.009.013,0,.033a.073.073,0,0,0-.01.037c0,.014,0,.013.01,0s.011-.018.022-.014.024.02.012.036-.009.016-.006.019.01,0,.015-.015l.011-.021.032.02c.026.016.034.023.035.036s0,.015.014.01a.023.023,0,0,1,.024,0A.09.09,0,0,0,1.3,29.2c.02,0,.032.01.059.037a.143.143,0,0,0,.048.035c.011,0,.015.008.023.032a.155.155,0,0,1,.007.05.4.4,0,0,1-.058.109c-.007.01-.008.024,0,.055a.324.324,0,0,1,0,.068.078.078,0,0,0,0,.029.069.069,0,0,1-.007.028.111.111,0,0,0-.008.03c0,.011-.018.025-.034.024a.135.135,0,0,0-.081.041.077.077,0,0,0,0,.04.077.077,0,0,1-.006.048l-.014.03c0,.006,0,.007,0,0a.013.013,0,0,0,0-.012c0-.006-.013.012-.016.038a.1.1,0,0,1-.013.036c-.01.014-.014.015-.038.008a.1.1,0,0,1-.034-.016c-.005-.006-.008-.006-.007,0a.039.039,0,0,0,.013.015.043.043,0,0,1,.014.02c0,.007.005.013.008.013s.009.015,0,.03-.024.019-.056.015c-.012,0-.016,0-.013.005a.057.057,0,0,1,0,.023c0,.014,0,.014-.021.007s-.021-.007-.014.007a.078.078,0,0,0,.013.018s0,.005,0,0,0,0,0,0a.115.115,0,0,1,0,.034.011.011,0,0,1-.01.009c-.02,0-.009.036.013.041a.014.014,0,0,1,0,.026.023.023,0,0,0-.009.019c0,.007,0,.012-.006.012s-.009.006,0,.024.008.015,0,.015,0,0,0,.006a.038.038,0,0,1,.013.013.117.117,0,0,0,.047.036c.016,0,.01.011-.008.01a.039.039,0,0,1-.025-.008c-.007-.006-.007-.006,0,0s0,.007-.006.005-.011,0-.01-.007,0-.006-.013-.008-.013,0-.012-.006a0,0,0,0,1,0,0s0,0,.007-.008,0-.008,0-.01-.007,0,0-.009,0-.008,0-.009-.006,0-.006.013M.52,27.689c-.01.006,0,0,.006-.01a.064.064,0,0,0,.012-.011.017.017,0,0,1,.007-.006s0,0,0,.006-.006.006,0,.006-.009.011-.017.016m.069.038A.014.014,0,0,1,.6,27.722s0,0,0,.014l-.01.015a.058.058,0,0,1,.006-.024m.764-.406c-.009.016-.016.022-.027.023s0-.02.018-.027l.015-.007-.006.01m.01,0s.006,0,0,0a.009.009,0,0,1-.008,0s0,0,.006,0M1.33,27.3a.043.043,0,0,1-.013.011s0,0,.008-.01.016-.013,0,0m-.065.137s-.005,0-.007,0,0,0,0,0,0,0,0,0m-.049-.006c-.006,0-.009,0-.024.007s-.017.011-.017.005,0-.006-.01,0-.008,0,0,0a.164.164,0,0,0,.022-.027.083.083,0,0,1,.018-.02l.008,0,0,.006s0,.008,0,.009.022.014.019.019,0,.006,0,.006.005,0,0,.006-.011.009-.019,0m.013.031s0,0,0,.006a.02.02,0,0,1-.01.007s0,0,0-.006a.02.02,0,0,1,.011-.007m-.026,0a.025.025,0,0,1-.014.008s-.006,0,0-.006a.022.022,0,0,1,.014-.008s.006,0,0,.006m-.04.148-.009.007s-.006,0,0,0A.012.012,0,0,1,1.16,27.6s0,0,0,0m-.064.082s0,0-.007,0,0-.005,0-.007a.009.009,0,0,1,.006,0s0,0,0,.007m.312.145c0,.005-.009.007-.012,0s0-.006.007-.018.019-.018.011-.007,0,.008,0,.01,0,.007,0,.012m.008-.05c-.007.012-.008.015,0,.011s0,.005-.016.018-.038.031-.023.013,0-.009-.023-.008-.031,0-.029-.005.005-.007.007-.007.006-.005.009-.011.006-.011.008-.011.007-.006.012-.014a.228.228,0,0,1,.025-.033c.02-.022.04-.028.02-.006s-.027.034-.019.028.007,0,.008.006.007.01.017.007.014,0,0,.013m-.125,0a.026.026,0,0,1-.011-.011c0-.012.015-.007.018,0s0,.011-.007.007m-.036.077s-.01,0-.011-.011,0-.009,0-.007a.052.052,0,0,0,.011.011c.007.005.007.006,0,.007m-.3.938s0,.007-.007.007,0,0,0-.008,0-.007.007-.007,0,0,0,.008M.94,28.581a.014.014,0,0,1-.013.006c-.006,0-.01,0-.009-.008a.013.013,0,0,1,.013-.006c.006,0,.01,0,.009.008M.788,28.5s-.007-.006-.007-.012,0-.011-.007-.012a.009.009,0,0,1-.009-.008s0-.008-.009-.008-.008,0-.006-.008-.009-.01-.017,0a.061.061,0,0,1-.017.011c-.01,0-.01,0,0-.007a.071.071,0,0,1,.024-.017c.024-.009.034,0,.071.048a.184.184,0,0,0,.018.021c.011.009,0,.019-.024.018s-.018,0-.013-.012,0-.011,0-.011m-.008.067c0,.005,0,.008-.009.007s-.013,0-.013-.009.017-.008.022,0M.818,28.4s0-.007.007-.007,0,0,0,.008,0,.007-.007.007,0,0,0-.008m.009.164c.012,0,.02-.008.017-.025s.037-.007.049.011a.044.044,0,0,1,.009.019l-.02,0a.066.066,0,0,0-.023,0c-.008.005-.047-.006-.045-.012s.007,0,.013,0m.579,2.012s0,0,0,0-.006,0,0,0,0,0,.007,0m-.052.094a.029.029,0,0,0-.018,0,.018.018,0,0,1-.017-.006s0-.006,0-.005h.027c.014,0,.016,0,0-.006s-.009,0-.006-.006,0-.007,0-.013,0-.01,0-.011.013,0,.033.023c.033.037.032.047,0,.039s-.022-.006-.011-.008,0,0,0-.007m-.042-.029c.016,0,.016.007,0,.005s-.013,0-.012-.005.006,0,.013,0m-.008-.014s.006,0,.005,0,0,0-.006,0,0,0,0,0M1.36,30.6c0-.005.006,0,.009,0a.007.007,0,0,1,0,.007c-.005,0-.009,0-.006-.009m-.064.062s0,0-.006,0a.025.025,0,0,1-.01-.007s0,0,.006,0,.01,0,.01.007M1.2,30.278c-.008,0-.009,0-.006-.006a.011.011,0,0,1,.012-.006c.011,0,.008.01-.006.012m-.018-.006c-.005,0-.006,0-.007,0s0-.008.006-.007.009.005,0,.011m-.03.343s0,0,0,0a.013.013,0,0,1-.005-.006s0,0,0,0a.011.011,0,0,1,0,.006m-.08-.543s0,.006,0,0a.011.011,0,0,1-.006-.007s0-.005,0-.005a.009.009,0,0,1,.006.007m.012.515-.022-.008s-.007,0-.007,0a.027.027,0,0,0-.01-.008c-.006,0,0,0,.017.006s.049.024.022.015m.351.21-.013,0-.015-.007s.006,0,.013,0,.029,0,.016.009m.053-.069c-.006,0-.011,0-.01,0a.011.011,0,0,0,.007.005s0,0,0,.011-.007.007-.01.005-.005,0-.006,0-.009.005-.024,0l-.035,0a.156.156,0,0,1-.07-.024.068.068,0,0,0-.026-.011s.024.025.046.034.017.009.015.011a.27.27,0,0,1-.071-.027c-.01,0-.013-.005-.01,0a.047.047,0,0,0,.018.011.07.07,0,0,1,.021.012s0,0,0,0a2.11,2.11,0,0,1-.258-.148l-.006,0L1.059,30.6l-.012-.01s0,0,.009,0,.014.005.013,0a.05.05,0,0,0-.019-.011.043.043,0,0,1-.019-.011s0,0,.008,0a.528.528,0,0,0,.128.051.016.016,0,0,1,.013,0,.052.052,0,0,0,.017.009.048.048,0,0,1,.017.008.122.122,0,0,0,.025.014c.019.009.023.009.024,0s0,0,.011,0l.018.009.022.011c.009,0,.012.006.011,0a.016.016,0,0,0-.006-.007s0,0,0,0,.007,0,.013.007.01.01.039.015.042,0,.039,0L1.4,30.671c-.027-.036-.026-.034-.016-.031s.009,0,.005-.011,0-.014-.008-.013,0,0-.005,0,0-.009.011-.013a.053.053,0,0,0,.016-.011.109.109,0,0,1,.041-.013.018.018,0,0,0,.011,0s.006,0,.012,0l.011,0-.01,0c-.005,0-.009,0-.008.006s0,0-.007,0-.027.005-.027.015,0,.007-.006,0-.011,0-.02.012a.041.041,0,0,0,.005.011c0,.007.008.011.013.011s.036.026.035.032,0,.006.008.009a.019.019,0,0,1,.011.015c0,.006,0,.011.006.012s0,0,0,0,0,.007.01.011l.011.009-.011,0m-.015-.14s0,0,0,0a.011.011,0,0,1-.007-.006s0,0,0,0a.01.01,0,0,1,.007.006m.044.249h0s.01,0,.015,0a.009.009,0,0,1,0,0l-.018-.007M1.573,27.4c-.007-.03-.007-.031.005-.046s.012-.014,0-.007-.017.01-.013,0a.05.05,0,0,0,0-.025c0-.009,0-.015,0-.018s.005-.006,0-.012,0-.01.013-.024a.061.061,0,0,1,.024-.016s.012-.007.019-.018.01-.017,0-.01-.007.005-.007,0,0-.008-.009-.01-.011,0-.006,0l0,.009-.01,0c-.014.006-.024,0-.019-.011s.006-.01.008-.01,0,0,0-.006A.016.016,0,0,1,1.6,27.2s0,0,0,0,0,.007.008.006a.031.031,0,0,1,.016,0c.009.008.008-.009,0-.019a.023.023,0,0,0-.026,0c-.017.005-.018,0,0-.017s.008-.012.005-.033-.005-.024-.007-.024,0,0-.005-.007-.029-.02-.07-.012-.041.007-.043,0a.023.023,0,0,0-.01-.009c-.006,0,0,0,.01-.006a.035.035,0,0,0,.02-.01s0,0,0,0-.039,0-.036-.008.014-.009.061-.025c.026-.008.035-.013.039-.02s0-.005-.01,0-.011,0-.008,0a.164.164,0,0,1,.062-.028c.011,0,.016,0,.018-.01s.082-.032.086-.022,0,.005.008,0a.009.009,0,0,1,.013,0c.013.007.018.006.017,0s0-.013.036,0,.029.008.03,0,0-.006,0-.007,0-.008-.007-.012.006,0,.033-.006a.125.125,0,0,0,.046-.007s.012-.008.025-.009a.329.329,0,0,1,.127,0,.065.065,0,0,0,.026.006c.01,0,.015,0,.013.006a.027.027,0,0,1-.02.007c-.009,0-.018,0-.02.007s0,.005.019,0,.022,0,.013.007-.011.011-.013.011,0,0,0,0,.009,0,.018-.005a.042.042,0,0,1,.027-.006.058.058,0,0,0,.028,0,.058.058,0,0,1,.039,0l.022.006-.022.008a.145.145,0,0,0-.049.028.029.029,0,0,1-.016.006.016.016,0,0,0-.013.01c0,.005-.006.01-.01.01s-.01.006-.016.014l-.011.014.009,0c.006,0,.009,0,.01,0a.013.013,0,0,0,.013.008c.013,0,.015.006.006.018s-.006.006-.005,0-.005-.006-.016-.006,0,0-.005,0,0,0,0,0c-.019,0-.022.012,0,.012a.021.021,0,0,1,.017.024s0,0-.01,0-.014.013,0,.015H2.08l-.012,0c-.007,0-.012.007-.012.011s-.027.017-.039.009S2,27.118,2,27.12s0,.008.011.013.016.016.008.022S2,27.146,2,27.139s0-.007,0-.007,0,.02.01.025a.042.042,0,0,1,.022.037c0,.008-.033,0-.034,0a.022.022,0,0,0-.009-.012c-.007,0-.008,0-.008.006a.013.013,0,0,1-.009.014c-.006,0,0,0,.006,0a.072.072,0,0,1,.024.007c.007,0,0,.007-.022.02-.044.021-.1.032-.1.022s-.006-.006-.007,0a.406.406,0,0,1-.084.012s.066.007.057.016A.1.1,0,0,1,1.8,27.3a.115.115,0,0,0-.027.012c-.008.007-.009.005,0-.006s.006-.012,0,0a.076.076,0,0,1-.029.017c-.015,0-.018.007-.017.015s0,.01-.006.011-.006,0,0,0,0,.014-.018.027-.018.016-.018.02a.11.11,0,0,1-.015.032c-.012.019-.018.024-.027.024s-.01,0-.009-.007a0,0,0,0,0,0-.006s-.005,0,0-.006,0,0-.009,0-.026,0-.033-.036m.145,3.491H1.7l-.087-.025h.009c.012,0,.017,0,.019-.01a.016.016,0,0,1,.013-.011c.019,0,.054.01.056.02a.05.05,0,0,0,.009.014c.007.009.007.01,0,.013m.009-.549c-.011-.008-.011-.009,0,0a.04.04,0,0,1,.015.009c.006.008,0,.006-.016,0m.528.623a2.129,2.129,0,0,1-.375-.034.013.013,0,0,0,.009,0,.022.022,0,0,0-.011-.006l-.01,0,.008-.005c.007,0,.007,0-.012-.006H1.841a.152.152,0,0,1-.045-.021c.005-.022.128-.023.166-.018.012,0,.02,0,.02,0s.01-.009.021-.014.019-.009.007-.008-.013,0-.013,0,.005-.007.011-.007a.02.02,0,0,0,.013,0,.009.009,0,0,1,.008,0,.035.035,0,0,0,.014,0c.008,0,.008,0,0-.013s-.006-.008,0,0a.019.019,0,0,0,.017,0c.009,0,.011,0,.017,0s.007.009.015,0,.022-.013.019,0,.013.006.031.009a.114.114,0,0,0,.063-.006.287.287,0,0,1,.092,0,.012.012,0,0,0,.014,0,.264.264,0,0,1,.1,0,.25.25,0,0,0,.072,0,.127.127,0,0,0,.068-.025c.006,0,.009,0,.016,0s.011.009.015.007.007,0,.007,0,.015,0,.023-.007a.129.129,0,0,1,.049-.023l.021-.008a.055.055,0,0,1,.023,0c.009,0,.011,0,.011,0s0-.005.01,0,.01,0,.011-.005.052-.025.063-.016a.015.015,0,0,1,.005.008.281.281,0,0,0,.085,0c.016,0,.027,0,.026,0a.081.081,0,0,1-.027.027.016.016,0,0,0-.008,0c-.005.006,0,.009.008,0s.005,0,0,0a.038.038,0,0,1-.011.009c-.007,0-.014.015-.009.016s.027-.01.039-.024.011-.011.011-.01,0,0,.008,0a.132.132,0,0,1,.028-.015.25.25,0,0,0,.039-.022.107.107,0,0,1,.024-.015A.046.046,0,0,0,3.03,30.7a.182.182,0,0,1,.05-.018.05.05,0,0,0,.015-.01h0l.008-.006a.066.066,0,0,1,.042-.009c.024,0,.028,0,.035-.008s.029-.018.031-.014.015.006.028,0a.311.311,0,0,0,.061-.025s0,0,.005,0,.01,0,.019-.006a.056.056,0,0,1,.022-.013c.013,0,.015-.006.02-.014a.031.031,0,0,1,.009-.01s0,0,0,.008-.005.008,0,.007l.023,0a.186.186,0,0,0,.032-.008s0,0,0,0,0,.006.016,0,0,0,0,0,0,0,.006,0l.009-.006s.007-.006,0,0,0,0,.007,0a.02.02,0,0,1,.012,0s.007,0,.02,0a2.11,2.11,0,0,1-1.252.409m-.3-.123s0,0,0,0a.011.011,0,0,1,0,.006s0,0,0,0,0,0,0-.006m.192-.046,0-.007s0,0,0,.008,0,.007,0,.007,0,0,0-.008m.813-1.279A.062.062,0,0,1,3,29.448a.084.084,0,0,0,.031-.024.225.225,0,0,1,.022-.027.05.05,0,0,0,.012-.022.033.033,0,0,1,.006-.015l.005-.005a.134.134,0,0,1,.01.06c0,.021,0,.025-.008.021s-.008,0-.007.01a.036.036,0,0,1,0,.021.132.132,0,0,0-.008.018.782.782,0,0,1-.071.164.079.079,0,0,1-.023.01c-.025.008-.036-.006-.034-.045a.07.07,0,0,1,.016-.049.052.052,0,0,0,.012-.047m.192.709c.008,0,.009,0,0,.006s-.021.01-.018,0,.006-.008.013-.007m0-.675s0-.006,0-.007,0,0,0,.006,0,.006,0,.007,0,0,0-.006m.032-.825c.009,0,.012,0,.006.011s-.006,0-.009,0,0-.007,0-.008m.193,1.692s0,0,0,0,0,0,0,0,0,0-.006,0m.286-1.542c-.007.008-.01.007-.015,0a.239.239,0,0,1-.017-.072c0-.017,0-.014.02.015s.022.047.011.058M3.8,28.6l0,.017c0,.017-.008.02-.019.013s-.006-.007-.007-.019-.015-.053-.021-.053,0,0,0-.01a.025.025,0,0,0-.011-.018.111.111,0,0,1-.024-.034c-.014-.03-.026-.041-.023-.022s0,.013,0,.013l-.016,0-.016,0s0,.006,0,.014,0,.03-.006.03-.008.011-.011.023c-.011.039-.02.063-.025.063s0,0,0,.007a.01.01,0,0,1-.006.01c-.006,0-.006.01,0,.039a.224.224,0,0,1,.008.125c-.011.034-.019.033-.034,0-.006-.015-.019-.04-.028-.056a.247.247,0,0,1-.019-.039.3.3,0,0,0-.02-.042.534.534,0,0,1-.05-.137.088.088,0,0,0-.009-.029c-.009-.02-.009-.02-.009,0s-.014.029-.036,0-.018-.023-.009-.023.009,0,.008-.008,0-.005-.005,0-.027-.014-.054-.047c-.011-.013-.021-.023-.023-.021a.233.233,0,0,1-.139-.01.09.09,0,0,1-.013-.022c-.009-.019-.02-.025-.016-.009s0,.006,0,0-.008,0-.012,0c-.035.007-.073-.037-.09-.065s-.029-.036-.045-.022-.008.008.007.038a.106.106,0,0,0,.023.034.1.1,0,0,1,.019.033c.011.028.012.028.013.012s.014-.013.014.009c0,.043.045.043.067,0l.013-.026.006.021c.008.027.016.037.033.043a.073.073,0,0,1,.029.021l.014.017-.006.024c0,.013-.008.024-.011.024s-.009.021,0,.029,0,.01-.007.014a.022.022,0,0,0-.009.017s0,.008-.009.008a.008.008,0,0,0-.008.011c0,.006-.006.012-.018.015a.046.046,0,0,0-.028.023.069.069,0,0,1-.028.028.133.133,0,0,0-.032.023.041.041,0,0,1-.015.012.029.029,0,0,0-.015.006.051.051,0,0,1-.02.007.051.051,0,0,0-.021.011.03.03,0,0,1-.021.008.237.237,0,0,1-.033-.09.153.153,0,0,0-.024-.047.169.169,0,0,1-.023-.04.089.089,0,0,0-.024-.03.071.071,0,0,1-.025-.04.114.114,0,0,0-.036-.07.053.053,0,0,1-.016-.021.264.264,0,0,0-.028-.048c-.015-.022-.029-.045-.032-.052s0-.006,0,.006-.01.018-.028-.013a.093.093,0,0,0-.019-.025s0,.012.01.025l.026.05c.006.014.018.038.028.055a.218.218,0,0,1,.018.041.1.1,0,0,0,.02.033.128.128,0,0,1,.025.057.1.1,0,0,0,.025.053.128.128,0,0,1,.026.046.091.091,0,0,0,.035.049c.032.025.075.074.067.079s0,.011.011.023l.017.02.057-.016a.457.457,0,0,0,.065-.023c.009-.006.01,0,.012.03a.179.179,0,0,1,0,.045s-.008.029-.014.055a.219.219,0,0,1-.076.13.312.312,0,0,0-.05.051l-.052.06a.353.353,0,0,0-.038.058c-.016.03-.019.04-.015.052a.178.178,0,0,1,0,.048.072.072,0,0,0,.007.04c.006.006.007.022,0,.066s-.007.06-.021.076a.116.116,0,0,1-.034.025.108.108,0,0,0-.036.028.248.248,0,0,1-.031.03c-.013.01-.014.013-.01.036a.2.2,0,0,1,0,.049c0,.023,0,.025-.03.039s-.027.014-.032.043a.076.076,0,0,1-.022.048c-.01.01-.026.029-.036.042a.186.186,0,0,1-.144.073.137.137,0,0,0-.047.01.026.026,0,0,1-.026,0c-.016-.006-.03-.031-.025-.04a.213.213,0,0,0-.047-.089.139.139,0,0,1-.034-.085.157.157,0,0,0-.018-.056.284.284,0,0,1-.058-.107.18.18,0,0,1,.028-.1.039.039,0,0,0,.008-.042c0-.015-.008-.038-.01-.051a.3.3,0,0,0-.072-.14c-.04-.041-.053-.064-.044-.076a.13.13,0,0,0,.008-.045.228.228,0,0,1,.006-.048c0-.007,0-.02-.017-.031a.044.044,0,0,0-.051-.014c-.033.006-.047,0-.046-.022a.038.038,0,0,0-.016-.023c-.036-.022-.087,0-.121.016a.083.083,0,0,1-.066.011.121.121,0,0,0-.055,0c-.059.015-.063.015-.078,0s-.078-.065-.08-.1a.133.133,0,0,0-.018-.047.14.14,0,0,1-.018-.038s0-.009-.012-.012-.012-.009-.008-.026a.091.091,0,0,0,0-.038c0-.012,0-.018,0-.02a.226.226,0,0,0,.031-.082c.007-.046.007-.061,0-.074s0-.016.012-.047a.467.467,0,0,1,.031-.049.07.07,0,0,0,.014-.024.244.244,0,0,1,.067-.083c.033-.021.053-.046.053-.065a.13.13,0,0,1,.053-.083.089.089,0,0,0,.032-.037c.011-.026.015-.029.021-.017a.1.1,0,0,0,.071.007.218.218,0,0,1,.134-.044c.034,0,.072-.007.085-.009s.022,0,.021,0,0,.005.011,0,.009,0,0,.008a.019.019,0,0,0,0,.026c.006.011.005.015-.006.026a.07.07,0,0,0-.014.019.135.135,0,0,0,.06.031c.009-.006.051.014.057.028a.024.024,0,0,0,.02.014.128.128,0,0,1,.041.014c.024.014.028.014.035,0a.064.064,0,0,0,.008-.028.037.037,0,0,1,.049-.031c.009,0,.016.007.016.01s.016.01.036.016l.057.018a.062.062,0,0,0,.063,0,.025.025,0,0,1,.034,0c.026.018.044,0,.055-.045a.37.37,0,0,0,.008-.073v-.031l-.018,0c-.01,0-.019.006-.021.009s-.026.008-.045-.006-.018-.01-.026,0-.012.01-.023,0l-.029-.018a.03.03,0,0,1-.017-.02c0-.006,0-.012-.006-.012s0-.009,0-.019,0-.019-.006-.019-.006,0,0-.011c.005-.025-.035-.04-.048-.017a.014.014,0,0,1-.017.007c-.012-.006-.015.007,0,.015a.016.016,0,0,1,0,.016c0,.006,0,.011,0,.01.026-.005.035.013.012.024s-.013.011-.011.019,0,.012,0,.011-.037-.034-.029-.038S2.446,28.02,2.433,28a.09.09,0,0,1-.024-.049.048.048,0,0,0-.023-.039.177.177,0,0,0-.038-.024.054.054,0,0,1-.025-.027c-.005-.014-.012-.02-.018-.018a.009.009,0,0,1-.012-.007c0-.018-.026-.006-.026.015s0,.018,0,.018a.121.121,0,0,1,.027.03c.012.017.027.03.031.03s.009,0,.009.008a.008.008,0,0,0,.008.008c.009,0,.048.03.044.035s-.009,0-.016-.006-.014-.008-.02,0-.006.012,0,.017.006.011-.008.028-.017.021-.013,0,0-.047-.041-.07a.259.259,0,0,1-.061-.058c-.013-.018-.026-.033-.03-.033a.147.147,0,0,0-.034.019c-.022.014-.031.016-.04.01s-.038,0-.043.023a.033.033,0,0,1-.022.029.1.1,0,0,0-.05.058c0,.015-.018.046-.027.047s-.009.006-.011.012-.012.012-.025.012a.11.11,0,0,0-.037.008c-.013.007-.017.006-.025-.007a.019.019,0,0,0-.026-.01c-.016,0-.017,0-.015-.013a.057.057,0,0,0,0-.027c0-.007,0-.015.006-.033a.232.232,0,0,0,.013-.057c0-.03,0-.034.016-.042s.016-.007.019,0a.329.329,0,0,0,.053,0c.046,0,.048,0,.055-.016a.192.192,0,0,0,.009-.037c0-.028-.019-.063-.041-.062a.009.009,0,0,1-.009-.011c0-.011.011-.015.037-.012.01,0,.013,0,.015-.015s0-.014.011-.008.013.006.027,0a.066.066,0,0,0,.021-.023A.034.034,0,0,1,2.1,27.69a.076.076,0,0,0,.031-.028c.01-.017.016-.021.017-.014s0,.005.007-.006.008-.017.044-.019c.013,0,.014-.005.011-.059,0-.021,0-.027,0-.023s.009,0,.013-.006.024-.016.019,0a.023.023,0,0,0,0,.018c0,.007,0,.011-.005.015a.025.025,0,0,0-.012.015c-.006.017.01.029.039.029a.087.087,0,0,1,.033.005.072.072,0,0,0,.041-.009c.023-.01.037-.012.04-.007s.029.01.028,0,0-.007.01-.007.01,0,.009-.024c0-.039.013-.056.032-.036s.018.01.02-.01,0-.015-.008-.018a.016.016,0,0,1-.01-.012c0-.01.013-.015.054-.016a.071.071,0,0,0,.035-.006c0-.009-.011-.019-.025-.017l-.041.007c-.034.005-.057-.006-.057-.03a.113.113,0,0,0,0-.027c0-.012,0-.017.051-.058.014-.012.008-.022-.015-.024s-.044.012-.038.025,0,.018-.029.031a.065.065,0,0,0-.035.055c0,.007,0,.013.006.013a.028.028,0,0,1,.015.01c.008.009.008.011,0,.019a.08.08,0,0,1-.021.019c-.011.007-.013.012-.012.03s-.008.037-.028.037-.012,0-.013.007-.02.014-.024,0a.031.031,0,0,1,0-.016s0-.01-.007-.017a.046.046,0,0,1-.009-.023c0-.005,0-.009,0-.009s0,0,0-.01a.037.037,0,0,0-.006-.019c0-.006-.007-.007-.007,0s-.01.015-.02.023a.039.039,0,0,1-.037.01c-.022-.006-.024-.011-.014-.022s.008-.011,0-.007-.011,0,0,0,.007-.011,0-.019A.039.039,0,0,1,2.19,27.4a.087.087,0,0,1,.027-.012s.008,0,.008-.011,0-.009.007-.006.012,0,.019-.011.014-.013.016-.011,0,0,0,0,0-.008.006-.008.01-.009.015-.021a.112.112,0,0,1,.033-.041c.024-.018.034-.035.018-.027a.012.012,0,0,1-.014,0c0-.006,0-.006,0,0s.009,0,.007,0,0-.006.006,0,.027,0,.017-.007,0-.007,0-.008h.015s0,0,0-.006,0-.008.013,0a.015.015,0,0,0,.019,0,.026.026,0,0,1,.02-.006.011.011,0,0,0,.013,0,.058.058,0,0,1,.02-.013c.013-.006.014,0,.009,0a.029.029,0,0,0-.006.014s0,0,.006,0a.028.028,0,0,1,.014-.01.038.038,0,0,0,.016-.006s.007,0,.007,0,0,.006.006,0a.038.038,0,0,1,.019,0c.014.007.015.007.005.013s-.005.006.015.011a.331.331,0,0,1,.1.037.138.138,0,0,1,.044.031c0,.006,0,.013-.009.019s-.018.009-.054,0-.056-.01-.033,0a.016.016,0,0,1,.011.015.044.044,0,0,0,.005.021.083.083,0,0,0,.043.028c.009,0,0-.012-.005-.016a.02.02,0,0,1-.01-.013c0-.006,0-.007.009,0a.118.118,0,0,0,.029.01c.017,0,.018,0,.011-.007s-.009-.015.009-.026a.029.029,0,0,1,.026,0c.013.006.021-.007.011-.017a.024.024,0,0,1-.005-.016.028.028,0,0,0-.006-.017c-.007-.007.018-.006.029,0s.011.017,0,.017-.011.01,0,.016.029.007.03,0,.024-.021.045-.024a.057.057,0,0,0,.016-.007s.007,0,.01,0,.013.007.035,0,.031,0,.035,0,.006.007.011,0,0-.018-.017-.032-.012-.011,0-.006l.038.014a.357.357,0,0,1,.058.027c.035.02.043.015.013-.011-.011-.009-.017-.016-.015-.016s0,0,0-.01a.021.021,0,0,0-.007-.011s0,0,0-.009a.033.033,0,0,0,.008-.021c0-.007,0-.012.005-.012s0,0,0-.006,0-.006.005-.005.007,0,0,.007,0,.006.008.007a.023.023,0,0,1,.019.026.016.016,0,0,0,0,.015.085.085,0,0,1,.012.028.076.076,0,0,0,.015.032c.007.009.008.011,0,.028s-.007.018-.019.014-.013,0-.01,0a.033.033,0,0,0,.046,0,.022.022,0,0,0,0-.027c0-.011,0-.015,0-.015a.031.031,0,0,1,.03.021c0,.01,0,.01,0,0a.037.037,0,0,0-.035-.031c-.019,0-.027-.012-.026-.028s0-.011-.009-.02-.01-.012-.007-.016a.009.009,0,0,1,.009,0s0,0,0-.01,0-.008,0-.005a.11.11,0,0,1,.009.019c0,.012.008.015.017.018s.011,0,0,0-.014-.017,0-.01.013.006,0,0-.01-.011,0-.005l.03.015c.009.005.018.009.021.007s0,0-.007-.009-.031-.032-.026-.033l.036,0c.023,0,.03,0,.024,0L3.2,27.194l0-.006c.007-.011.064-.014.1-.005.011,0,.019,0,.017,0s0,0,0,0,.007,0,.006,0a.009.009,0,0,1,.005-.009.032.032,0,0,1,.036.015c0,.005.022.016.038.019a.079.079,0,0,1,.025.011l.015.01.007.007c.007.012.007.016,0,.019l-.018.007-.015.007c-.01,0,0,.01.013.009s.011,0,.008-.007,0,0,.012,0a.37.37,0,0,0,.042.018.123.123,0,0,1,.036.018.1.1,0,0,0,.027.014c.013,0,.015,0,.011,0s0-.007.015,0l.027.015c.007,0,.008.005.005.008s0,0,0,.005.016.016.01.014,0,0,.005.009.027.026.027.018,0-.007.018,0a.1.1,0,0,1,.024.013s.006,0,.005,0,0,0,.006,0,.006,0,0-.007-.007-.012,0-.011l.01,0,.019.009a.032.032,0,0,1,.018.015c0,.006,0,.007,0,0s.019,0,.028.014,0,.01.024.022a.14.14,0,0,1,.025.014l.014.017h0a.017.017,0,0,0,.007.009l0,0,.005.006v0c0,.006,0,.007,0,.006a2.108,2.108,0,0,1,.14.2s0,0,0,0S4,27.683,4,27.69s0,0,0,0,0,0,0,0,0,0-.005,0,0,0,0,.015.005.024.01.026,0,0,.008.013a.043.043,0,0,0,.006.012.019.019,0,0,1,0,.007s0,0,0,0,0,0,0,.016.005.012,0,.013,0,.006,0,.013,0,.012,0,.013a.014.014,0,0,0,0,.011c.005.012,0,.033,0,.023L4,27.816l-.024-.05a.082.082,0,0,1-.01-.052.026.026,0,0,0,0-.014.093.093,0,0,1,0-.023.062.062,0,0,0-.012-.044s0,0,0,.011,0,.011,0,.008,0,0,0,0-.006.007-.012-.007a.017.017,0,0,0-.012-.011c-.008,0-.009,0-.009.014s0,.019.005.024.006.006,0,0H3.926c-.005,0-.008,0-.009-.005s-.022-.021-.021-.014-.006,0-.014,0c-.028-.013-.008,0-.013.048a.154.154,0,0,1-.005.024l0,.01.008,0a.025.025,0,0,1,.012.015c0,.01,0,.01,0,0s0,0,.006.008,0,.006.006,0,.037.03.041.058a.3.3,0,0,0,.011.035.213.213,0,0,1,.013.081c0,.063,0,.077-.012.065s-.008-.006-.011.007a.06.06,0,0,0,0,.025.054.054,0,0,1,0,.035.145.145,0,0,0,.017.031.169.169,0,0,1,.026.052c.007.022.007.024,0,.03s-.01,0-.01,0a.338.338,0,0,1-.017-.054.023.023,0,0,0-.013-.02c-.008,0-.011-.006-.015-.025s0-.016-.013-.021-.011,0-.014,0-.012,0-.012-.016,0-.013-.006-.017-.007,0-.01.015-.007.021-.01.021,0,.02.009.023a.022.022,0,0,1,.01.012c0,.013.012.017.012.007s0-.007.012,0,.017.014.009.019a.057.057,0,0,0-.005.046.169.169,0,0,1,.028.043c.018.031.024.051.02.059l0,.007h.006c.011,0,.016.023.015.063a.137.137,0,0,0,0,.025l0,.011a.157.157,0,0,1-.006.05c-.005.022-.022.034-.028.022s0,0,0,0,0,.014-.009.022-.013.024,0,.041a.037.037,0,0,1,.005.021c0,.016,0,.022-.011.017s-.012-.036,0-.036,0,0,0-.008a.07.07,0,0,1-.009-.02c-.006-.021-.022-.015-.027.01s0,.045.025.083a.216.216,0,0,1,.046.091.073.073,0,0,1,0,.047c0,.009-.007.016-.01.016s0,0,0,.007a.06.06,0,0,1-.008.033s0-.007-.006-.016a.041.041,0,0,0-.01-.02.172.172,0,0,1-.024-.028.084.084,0,0,0-.023-.024s-.006,0-.007-.01c-.005-.021-.008,0-.005.032s0,.051.017.068a.1.1,0,0,1,.013.028.024.024,0,0,0,.012.018c.015.007.045.04.041.062a.2.2,0,0,0,0,.038c0,.016,0,.018,0,.018s-.027-.05-.035-.085a.2.2,0,0,0-.034-.061.267.267,0,0,1-.014-.054.351.351,0,0,0-.022-.078c-.006-.014-.016-.038-.022-.053L3.8,28.6M2.072,28a.006.006,0,0,1,.006-.008c.01,0,.011,0,0,.012s-.007,0-.008,0m.123-.042c.013,0,.017,0,.016.025s-.01.031-.024.031,0-.012,0-.027,0-.028.011-.029m0-.039c.007-.009.013,0,.012.011s0,.015-.006.015-.011-.02-.006-.026m.071.124s.013-.006.029-.006.029,0,.026.019,0,.019-.007.018l-.026-.014c-.012-.006-.022-.014-.022-.017m.272.075c.011,0,.016,0,.011,0a.047.047,0,0,1-.021,0c-.006,0,0,0,.01,0m.141.01s.009-.007.017-.007.012,0,.011.008-.009.007-.016.007-.013,0-.011-.008m-.433-.539s-.006,0-.008,0a.005.005,0,0,1,0-.007c.009,0,.01,0,0,.011m.019-.021c.014-.006.016-.005.016,0s-.012.022-.018.018-.008-.015,0-.019m.112-.041a.01.01,0,0,1,.008-.007s0,0,0,.007a.007.007,0,0,1-.008.007,0,0,0,0,1,0-.007m.065-.02s0-.007.011-.007.009,0,0,.007-.014.009-.014,0M4,27.71s0,.005,0,0a.014.014,0,0,1,0-.006s0-.005,0,0,0,0,0,.006m-.119.04a.016.016,0,0,1,0-.007s0-.006,0-.006,0,0,0,.007,0,.006,0,.006M4,29.648s0,0,0,0,0,0,0,0,0,0-.005,0m.03.094c0,.008-.007.013-.007.011s0,0-.006.008-.009.006,0-.018l0-.02.013-.006c.013-.006.013,0,0,.024m.1-.052-.013.024s0,.005,0,0-.01.012-.018.028-.02.034-.028.035-.006,0,0-.006a.349.349,0,0,1,.035-.053.4.4,0,0,0,.027-.044c.009-.017.013-.024.013-.02s0,0,0,0,0,.009-.013.029m.047-.08a.028.028,0,0,0-.005.009.227.227,0,0,1-.025.045s0-.005,0-.014.005-.012,0-.016a.018.018,0,0,1,0-.014.073.073,0,0,0,.008-.015.144.144,0,0,0,.013-.043.074.074,0,0,1,0-.013c0-.011,0-.013.005-.007a.081.081,0,0,1,0,.02c0,.009,0,.015,0,.013s0,0,0,.006,0,.007,0,0,0,0,0,0a.133.133,0,0,1-.015.028m.015-.413s0,.007,0,.018a.222.222,0,0,0,0,.024.226.226,0,0,1,0,.025.049.049,0,0,0,0,.025.073.073,0,0,1,0,.028.046.046,0,0,0,0,.021.013.013,0,0,1,0,.009.111.111,0,0,0,0,.026.109.109,0,0,1,0,.034c0,.009-.006.022-.008.029a.291.291,0,0,1-.011.033l-.014.035a.3.3,0,0,1-.013.028c-.009.015-.043.084-.049.1s-.006.012-.009.014a.11.11,0,0,0-.018.019c-.013.016-.014.016-.014.008s0-.007-.009,0-.009.011-.01.008a.01.01,0,0,0-.007,0c-.007,0-.008-.008,0-.023s.006-.025,0-.018,0,0,0-.006.008-.023,0-.009-.008.009,0-.012.013-.029,0,0-.02.03-.016.019,0-.044,0-.043a.007.007,0,0,1-.007,0s-.008,0-.017.006c-.04.027-.055.039-.063.054s-.009.011-.021.015a.071.071,0,0,0-.032.021c-.019.019-.022.021-.03.012s-.006-.013,0-.02a.123.123,0,0,0,.019-.047.055.055,0,0,1,0-.018c0-.009.006-.029.009-.045s.006-.031.01-.035a.024.024,0,0,0,.006-.019c0-.017.02-.07.024-.067s0,0,0,0,0-.007.005-.007a.042.042,0,0,0,.011-.012.206.206,0,0,1,.031-.027.254.254,0,0,0,.028-.022A.17.17,0,0,0,4,29.319c0-.015.014-.03.013-.02s0,.007,0,.007,0,0,0-.009,0-.009.006-.01a.01.01,0,0,0,.006-.008.077.077,0,0,1,.018-.031s0,0,0-.006.011-.014.014-.009a.018.018,0,0,1,0,.012s0,.006.005,0a.016.016,0,0,0,.008-.012.057.057,0,0,1,.007-.017A.092.092,0,0,0,4.1,29.2a.026.026,0,0,1,.014-.016.019.019,0,0,0,.009-.019c0-.006,0-.006.007,0a.017.017,0,0,0,.014.005c.006,0,.008,0,.006.007l-.005.012-.009.021a.033.033,0,0,0,0,.041.038.038,0,0,1,.006.016c0,.008.005,0,.012-.012a.412.412,0,0,0,.016-.045c.011-.039.019-.067.022-.074s.005-.006,0,.025,0,.032,0,.035m-.05,0s0,0,0,.005a.012.012,0,0,1,0,.007s0,0,0-.005a.018.018,0,0,1,0-.006m.016-.138,0-.016a.009.009,0,0,1,0-.006s0,.007-.005.021-.005.011,0,0m.074.021c0-.022-.006-.028-.013-.017a.055.055,0,0,0-.007.016c0,.014-.017.019-.018.007s0-.009-.009,0-.007.005,0,0a.021.021,0,0,1,.006-.01.011.011,0,0,0,0-.008.094.094,0,0,0,0-.04s-.006,0-.011-.009-.01-.008-.01-.005,0,.005,0,.006,0,0,0-.008a.026.026,0,0,0,0-.013s0-.006,0-.008.006,0,0,0-.005,0-.005-.008a.018.018,0,0,0,0-.01l0,0,.008-.009c.007-.008.017-.01.019,0a.092.092,0,0,1,0,.017.1.1,0,0,0,0,.024c0,.01,0,.009.014-.013s.012-.021.015-.017l.017.016c.014.012.019.022.017.033a.022.022,0,0,0,0,.014c0,.005,0,.009,0,.011a.033.033,0,0,0,0,.027.053.053,0,0,1,0,.016s0,0,0,0,0,0,0,.011,0,.014,0,.013l-.007,0s0-.008-.006-.017m.015.219s0-.006,0-.015,0-.022,0,0a.034.034,0,0,1,0,.017m.017-.283s0,0-.006,0l0,0,.008,0a.029.029,0,0,0,.012-.016c0-.012.007-.015.005-.006a.136.136,0,0,1-.015.033m.018-.037a.02.02,0,0,1,0-.008s0,0,0,0a.017.017,0,0,1,0,.008s0,0,0,0m.008.037s0-.011,0-.02,0,0,0,0a.046.046,0,0,1,0,.015m.011.045s0,0,0,0,0,0,0,0a0,0,0,0,1,0,0l0,0m.007-.015s0,.006,0,.005a.018.018,0,0,1,0-.008c0-.007,0-.006,0,0m.012.138s0-.007,0-.007,0,0,0,.005-.006.009,0,0m.011-.021s0,0,0-.005a.016.016,0,0,1,0-.006s0,0,0,0l0,.006" transform="translate(0 -24.134)" fill="#1c1a1a"/>
        <path id="Trazado_42323" data-name="Trazado 42323" d="M38.642,39.247c0,.008,0,.01,0,0a.038.038,0,0,0-.005-.013s0,0,0,.009" transform="translate(-35.068 -35.611)" fill="#1c1a1a"/>
        <path id="Trazado_42324" data-name="Trazado 42324" d="M39.086,34.668s0,0,0-.006a.014.014,0,0,0-.006-.007s0,0,0,.006l.006.007" transform="translate(-35.467 -31.453)" fill="#1c1a1a"/>
        <path id="Trazado_42325" data-name="Trazado 42325" d="M37.766,39.328s0,0,0,.007a.012.012,0,0,0,.008.008s0,0,0-.007a.015.015,0,0,0-.008-.008" transform="translate(-34.275 -35.694)" fill="#1c1a1a"/>
        <path id="Trazado_42326" data-name="Trazado 42326" d="M29.37,52.922s-.008,0-.013.008-.008.014-.006.015.007,0,.013-.008.008-.014.006-.015" transform="translate(-26.638 -48.031)" fill="#1c1a1a"/>
        <path id="Trazado_42327" data-name="Trazado 42327" d="M30.929,42.167c-.006,0-.007,0,0,0s.008,0,.01,0,0,0-.007,0" transform="translate(-28.066 -38.27)" fill="#1c1a1a"/>
        <path id="Trazado_42328" data-name="Trazado 42328" d="M32.044,36.522s0-.007,0-.007,0,0,0,.007,0,.007,0,.007,0,0,0-.007" transform="translate(-29.077 -33.141)" fill="#1c1a1a"/>
        <path id="Trazado_42329" data-name="Trazado 42329" d="M29.049,42.027s.005.008.007.008,0,0,0-.008a.008.008,0,0,0-.007-.008s0,0,0,.008" transform="translate(-26.364 -38.136)" fill="#1c1a1a"/>
        <path id="Trazado_42330" data-name="Trazado 42330" d="M31.571,40.038a.006.006,0,0,0-.006-.007s-.008-.006-.009-.014,0-.012.008-.01a.019.019,0,0,0,.014,0s0-.007-.008-.02-.015-.016-.021-.008-.007.008-.008-.006,0-.016-.005-.016a.141.141,0,0,1-.026-.027c-.012-.015-.019-.027-.015-.027s.008,0,.01-.01.007-.009.011-.008.012-.008.008-.026-.033-.023-.059,0-.034.038-.02.062a.127.127,0,0,1,.011.023.229.229,0,0,0,.025.038l.023.032,0,.024a.091.091,0,0,0,0,.038c.01.026.064.05.083.037s0-.052-.01-.06a.015.015,0,0,1,0-.012" transform="translate(-28.534 -36.159)" fill="#1c1a1a"/>
        <path id="Trazado_42331" data-name="Trazado 42331" d="M31.434,42.339s0,.005,0,.011.007.012.01.012,0,0,0-.011a.052.052,0,0,0-.01-.012" transform="translate(-28.529 -38.426)" fill="#1c1a1a"/>
        <path id="Trazado_42332" data-name="Trazado 42332" d="M27.782,41.411c-.01,0-.021,0-.022.007s.005.008.017.008.021,0,.022-.007,0-.008-.017-.008" transform="translate(-25.194 -37.584)" fill="#1c1a1a"/>
        <path id="Trazado_42333" data-name="Trazado 42333" d="M31.173,37.5c0-.006,0-.012,0-.014s0,0-.007.009,0,.041.01.034,0-.007,0-.011-.006-.009,0-.017" transform="translate(-28.287 -34.022)" fill="#1c1a1a"/>
        <path id="Trazado_42334" data-name="Trazado 42334" d="M28.91,54.617a.1.1,0,0,0,.01.05.106.106,0,0,1,.013.03c0,.009.007.016.01.016s.008-.009-.006-.035a.135.135,0,0,1-.014-.048c0-.042-.013-.052-.013-.012" transform="translate(-26.238 -49.547)" fill="#1c1a1a"/>
        <path id="Trazado_42335" data-name="Trazado 42335" d="M27.848,35.614c.017,0,.015-.017,0-.03s-.02-.014-.023,0,.015.035.027.034" transform="translate(-25.249 -32.286)" fill="#1c1a1a"/>
        <path id="Trazado_42336" data-name="Trazado 42336" d="M33.375,40.072a.023.023,0,0,1-.006-.022c0-.009,0-.011-.009-.011s-.033.024-.027.05.008.019.032.027.018,0,.015,0a.026.026,0,0,1,0-.019.021.021,0,0,0,0-.023" transform="translate(-30.252 -36.339)" fill="#1c1a1a"/>
        <path id="Trazado_42337" data-name="Trazado 42337" d="M28.515,35.443a.047.047,0,0,0-.008-.024c-.006-.01-.011-.014-.01-.008s0,.008-.006,0-.006.007.008.021.014.01.016.006" transform="translate(-25.852 -32.136)" fill="#1c1a1a"/>
        <path id="Trazado_42338" data-name="Trazado 42338" d="M29.151,36.375a.034.034,0,0,0-.011-.015c-.008-.006-.01-.006-.008,0s.021.029.019.014" transform="translate(-26.439 -32.996)" fill="#1c1a1a"/>
        <path id="Trazado_42339" data-name="Trazado 42339" d="M28.031,39.756c-.013-.009-.024-.018-.024-.022s0,0,.007,0,.014-.018.008-.025,0-.007.009-.012l.011-.01h-.012a.039.039,0,0,0-.021.006.216.216,0,0,1-.029.014c-.018.008-.019.01-.01.019a.023.023,0,0,0,.021.006c.008,0,.011,0,.009,0a.013.013,0,0,1-.012.008.035.035,0,0,0-.019.007c-.007.006-.012,0-.021-.007s-.012-.016,0-.023,0-.007-.009-.009-.017,0-.018-.008c0-.023-.035,0-.04.032,0,.007,0,.012-.007.009s-.023.061-.019.074.057.029.085.011a.056.056,0,0,1,.065.005.135.135,0,0,0,.094.012c.028-.035-.042-.073-.065-.089" transform="translate(-25.278 -36.017)" fill="#1c1a1a"/>
        <rect id="Rectángulo_18353" data-name="Rectángulo 18353" width="2.029" height="6.632" transform="translate(9.06 2.783)" fill="#1c1a1a"/>
        <path id="Trazado_42340" data-name="Trazado 42340" d="M99.676,0a.95.95,0,1,1-.94.95.955.955,0,0,1,.94-.95" transform="translate(-89.612)" fill="#1c1a1a"/>
      </g>
    </g>
  </g>
</svg>
