<svg xmlns="http://www.w3.org/2000/svg" xmlns:xlink="http://www.w3.org/1999/xlink" width="85" height="85" viewBox="0 0 85 85">
  <defs>
    <filter id="Rect치ngulo_18133" x="0" y="0" width="85" height="85" filterUnits="userSpaceOnUse">
      <feOffset dy="3" input="SourceAlpha"/>
      <feGaussianBlur stdDeviation="3" result="blur"/>
      <feFlood flood-opacity="0.161"/>
      <feComposite operator="in" in2="blur"/>
      <feComposite in="SourceGraphic"/>
    </filter>
  </defs>
  <g id="Grupo_19435" data-name="Grupo 19435" transform="translate(-1052 -1662)">
    <g transform="matrix(1, 0, 0, 1, 1052, 1662)" filter="url(#Rect치ngulo_18133)">
      <rect id="Rect치ngulo_18133-2" data-name="Rect치ngulo 18133" width="67" height="67" rx="10" transform="translate(9 6)" fill="#fff"/>
    </g>
    <g id="elgourmet" transform="translate(1073.999 1680)">
      <g id="Grupo_18307" data-name="Grupo 18307" transform="translate(0 0)">
        <g id="Grupo_18304" data-name="Grupo 18304">
          <path id="Trazado_40395" data-name="Trazado 40395" d="M23.166,0a15.2,15.2,0,1,0,15.2,15.2A15.2,15.2,0,0,0,23.166,0Zm9.823,15.2a9.827,9.827,0,1,1-2.506-6.55l-2.814,2.519A6.043,6.043,0,1,0,29,16.789H23.166V13.672h9.823Z" transform="translate(-2.234)" fill="#ffb300"/>
          <path id="Trazado_40396" data-name="Trazado 40396" d="M4.394,50.575q.056-.015.112-.035c.744-.258.273-1.1.193-1.816a1.726,1.726,0,0,1-.022-.239c0-.019,0-.032,0-.04l.018-.015c.178-.147.066-1.506.078-1.763q.09-2.068.18-4.136v-.015l0-.014a2.926,2.926,0,0,0-.088-.333.318.318,0,0,0-.314-.257l-.174.01L4.352,42a18.147,18.147,0,0,0-.363,4.559q-.046.95-.077,1.82c-.014.452-.022.719-.022.865,0,.057,0,.181,0,.191a3.836,3.836,0,0,0,.013.627c0-.009-.976.189-1.064.2a2.557,2.557,0,0,1-.907-.086.785.785,0,0,1-.39-.268c-.017-.021-.2-.263-.209-.254l.012-.019a3.562,3.562,0,0,0,1.063-.271c.645-.233.934-.442.934-.676a1.43,1.43,0,0,0-.418-1.036,1.681,1.681,0,0,0-1.035-.294,2.249,2.249,0,0,0-1.26.343A1.314,1.314,0,0,0,0,48.864a2.317,2.317,0,0,0,.249.958,2.27,2.27,0,0,0,.442.64,1.725,1.725,0,0,0,.784.327,4.193,4.193,0,0,0,1.263.1A9.812,9.812,0,0,0,3.847,50.7C4.031,50.665,4.213,50.623,4.394,50.575ZM1.117,48.188a1.6,1.6,0,0,1,.683-.152.781.781,0,0,1,.661.43,3.459,3.459,0,0,1-.606.338,1.528,1.528,0,0,1-.787.181H.826a.13.13,0,0,1-.012-.063C.814,48.738.871,48.305,1.117,48.188Z" transform="translate(0 -11.76)" fill="#ffb300"/>
          <path id="Trazado_40397" data-name="Trazado 40397" d="M11.185,51a3.1,3.1,0,0,0-.281-.612c-.007-.181.666-.568-.153-.738a6.191,6.191,0,0,0-1.172,0,2.013,2.013,0,0,0-1.829,1.337c-.427,1.9,2.387.408,2.733.541.047.023.049.045.073.077h0a2.046,2.046,0,0,1,.255,1.426l-.238.037c-.529.081-1.515.232-1.656.271a6.994,6.994,0,0,0-1.639.628,2.025,2.025,0,0,0-1.1,1.321,1.56,1.56,0,0,0,.429,1.324,2.388,2.388,0,0,0,1.857.886h0a2.877,2.877,0,0,0,1.559-.488,3.884,3.884,0,0,0,1.516-3.3l.006-.1A6.254,6.254,0,0,0,11.185,51Zm-1.173-.036c-.689.359-.929.252-.973.252a.729.729,0,0,1-.54-.21c.261-.668,1.058-.839,2.122-.613.035.008,0,.05,0,.05C10.6,50.464,10.566,50.68,10.012,50.967Zm.842,2.839,0,.058a3.459,3.459,0,0,1-.043.368,4.524,4.524,0,0,1-.207.783A2.563,2.563,0,0,1,9.242,56.7a2.126,2.126,0,0,1-.776.061,2.442,2.442,0,0,1-.705-.158,1.307,1.307,0,0,1-.866-.806.776.776,0,0,1,.095-.635c.33-.532,1.29-.968,2.853-1.294l.032-.006a5.353,5.353,0,0,1,.6-.095.247.247,0,0,0,.158-.112l.028-.033.032-.037a.615.615,0,0,1,.07-.073.1.1,0,0,1,.059-.024c.012,0,.022,0,.027.025A.978.978,0,0,1,10.855,53.806Z" transform="translate(-1.728 -13.923)" fill="#ffb300"/>
          <path id="Trazado_40398" data-name="Trazado 40398" d="M27.046,49.387C26.49,49.316,25.823,51.614,25.5,52c-.373.445-.56.642-1.162.621-.206-.007-.84-.037-.84-1.5,0-.437.265-1.005-.219-1.214-.7-.3-.61.992-.581,1.394.051.7.628,2.021,1.094,2.2a1.4,1.4,0,0,0,1.224.1,2.646,2.646,0,0,0,.781-.429c.212-.17,1.824-3.432,1.44-3.722A.373.373,0,0,0,27.046,49.387Z" transform="translate(-6.362 -13.857)" fill="#ffb300"/>
          <path id="Trazado_40399" data-name="Trazado 40399" d="M31.519,50.248a2.481,2.481,0,0,1,.373-.1,3.664,3.664,0,0,0,.407-.015,1.16,1.16,0,0,1,.312-.068c.258.008.5.173.76.113a.457.457,0,0,0,.294-.162c.055-.047-.017-.355-.017-.355-.183-.32-.483-.414-1.465-.418a3.238,3.238,0,0,0-1.947.424,1.333,1.333,0,0,0-.4.543,10.041,10.041,0,0,0-.457,2.086c0,.06-.005.176-.014.342-.022.241-.025.306-.025.338,0,.129.071.477.2.545.143.078.531.019.538-.091a6.246,6.246,0,0,0-.038-.852c0-.042-.005-.086-.005-.127a3.65,3.65,0,0,1,.053-.575c.085-.559.35-1.315.93-1.523a3.585,3.585,0,0,1,.447-.091Z" transform="translate(-8.233 -13.817)" fill="#ffb300"/>
          <path id="Trazado_40400" data-name="Trazado 40400" d="M39.72,49.965a3.288,3.288,0,0,0-1.227.473,3.025,3.025,0,0,0-.364.319c-.995.732-1.357.975-1.475,1.04-.037.026-.073.027-.07-.021s.008-.139.016-.234c.006-.153.009-.264.009-.332,0-.326,0-1.317-.525-1.317-.291,0-.676.269-1.176.822-.628.7-1.718,1.881-1.791,1.946-.584.455-.633.606-.633.712a.616.616,0,0,0,.15.408.478.478,0,0,0,.259.044c.081,0,.242-.178.3-.234a4.736,4.736,0,0,0,.362-.387c.245-.281.491-.557.75-.822.378-.387.746-.784,1.133-1.16a2.515,2.515,0,0,1,.309-.273c.045-.021.065.031.065.031a1.081,1.081,0,0,1,.083.452c0,.02,0,.1-.04.455s-.042.447-.042.478c0,.295.4.538.647.538h.029l1.345-1.019a6.925,6.925,0,0,1,1.478-.993c.079-.025.093.021.093.021a1.3,1.3,0,0,1,.048.4c0,.033-.006.148-.032.511-.027.445-.027.5-.027.523a1.481,1.481,0,0,0,.365,1.1.1.1,0,0,0,.132,0,.331.331,0,0,1,.2-.118c.077-.017.093-.118.093-.118,0-.071.006-.309.032-1.04.022-.611.032-.944.032-1.05C40.248,50.351,40.071,49.965,39.72,49.965Z" transform="translate(-9.114 -13.999)" fill="#ffb300"/>
          <path id="Trazado_40401" data-name="Trazado 40401" d="M49.084,52.777l-.022-.017-.027-.005c-.291-.047-.444-.074-.523-.088v-.022c-.433,0-.865,0-1.3,0a4,4,0,0,1-.6-.017,3.761,3.761,0,0,1-.562-.136c-.026-.009-.43-.163-.427-.168.017-.024-.283-.251-.273-.276a5.572,5.572,0,0,0,1.535-.419c.723-.294,1.06-.563,1.06-.845a.955.955,0,0,0-.392-.88,1.777,1.777,0,0,0-1.187-.378,2.374,2.374,0,0,0-1.448.442,1.732,1.732,0,0,0-.717,1.486,1.766,1.766,0,0,0,.393,1.327,2.4,2.4,0,0,0,.994.453,5.314,5.314,0,0,0,1.443.227h1.824a.7.7,0,0,0,.587-.312l.04-.055-.029-.061C49.385,52.9,49.23,52.883,49.084,52.777ZM45.5,50.545a1.524,1.524,0,0,1,1.651.119c-.1.063-.408.189-.848.384a3.464,3.464,0,0,1-.9.333h-.283a.211.211,0,0,1-.025-.114A.808.808,0,0,1,45.5,50.545Z" transform="translate(-12.402 -13.898)" fill="#ffb300"/>
          <path id="Trazado_40402" data-name="Trazado 40402" d="M53.146,46.254c.114-1.5.172-3.047.373-4.545a2.019,2.019,0,0,0-.106-1.461c-.162-.24-.547.57-.586.652a4.232,4.232,0,0,0-.305,1.251c-.122.965-.048,1.942-.136,2.911a11.957,11.957,0,0,1-.1,1.284c-.072.092-.065.1-1.191.293-.836.139-1.227.357-1.229.687,0,.362.532.571.822.586.118.014.232-.328.4-.364l.324-.045a1.794,1.794,0,0,1,.319-.038c.4-.048.363-.072.4-.014a.42.42,0,0,1,.013.171c0,.136-.019.48-.053.883-.039.423-.058.908-.058,1.049a5.023,5.023,0,0,0,.206,1.51c.022.07.194.1.254.127a.854.854,0,0,0,.126.055c.133.04.177-.132.216-.224a1.63,1.63,0,0,0,.114-.428,2.134,2.134,0,0,0,.017-.28c0-.038-.007-.178-.024-.419s-.022-.369-.022-.41c0-.2.009-.609.025-.8.048-.528.088-1.089.093-1.268.013-.108.059-.108.181-.158.356-.144,2.628-.406,1.786-1.042-.183-.139-.614-.03-.822-.028C54.123,46.194,53.146,46.247,53.146,46.254Z" transform="translate(-13.991 -11.281)" fill="#ffb300"/>
          <g id="Grupo_18303" data-name="Grupo 18303" transform="translate(10.135 35.389)">
            <path id="Trazado_40403" data-name="Trazado 40403" d="M16.688,49.191c-2.429.3-2.866,1.248-2.473,2.135.253,1.152.255,1.769,1.942,2.175,2.76-.216,3.634-.83,3.358-2.228C20.3,50.134,17.917,49.428,16.688,49.191Zm.465,3.227a1.073,1.073,0,1,1,1.114-1.072A1.094,1.094,0,0,1,17.153,52.418Z" transform="translate(-14.088 -49.191)" fill="#ffb300"/>
          </g>
        </g>
        <g id="Grupo_18306" data-name="Grupo 18306" transform="translate(10.458 40.775)">
          <g id="Grupo_18305" data-name="Grupo 18305">
            <path id="Trazado_40404" data-name="Trazado 40404" d="M14.84,57.757h-.3v-.271h.31v-.5h.339v.5h.43v.271h-.43v.855c0,.372.249.419.384.419.05,0,.082,0,.082,0v.293a.959.959,0,0,1-.124.007.624.624,0,0,1-.688-.683Z" transform="translate(-14.537 -56.764)" fill="#97999b"/>
            <path id="Trazado_40405" data-name="Trazado 40405" d="M16.533,57.952h-.3v-.271h.648v1.1c0,.253.05.455.338.455a.651.651,0,0,0,.584-.711v-.57h-.3v-.271h.648v1.481a.072.072,0,0,0,.078.079h.189v.268H18.04c-.157,0-.228-.073-.228-.2v-.079a.788.788,0,0,1,.007-.108h-.007a.738.738,0,0,1-.688.432c-.388,0-.591-.216-.591-.7Z" transform="translate(-15.012 -56.959)" fill="#97999b"/>
            <path id="Trazado_40406" data-name="Trazado 40406" d="M21.418,57.621c.268,0,.706.1.706.415v.224h-.306v-.127c0-.14-.228-.209-.388-.209a.6.6,0,0,0-.612.65.617.617,0,0,0,.634.657A.909.909,0,0,0,22.027,59l.132.256a1.087,1.087,0,0,1-.723.281.957.957,0,1,1-.018-1.913Z" transform="translate(-16.2 -56.943)" fill="#97999b"/>
            <path id="Trazado_40407" data-name="Trazado 40407" d="M24.02,58.368h.114V58.3a.345.345,0,0,0-.385-.391.949.949,0,0,0-.517.178l-.139-.25a1.148,1.148,0,0,1,.684-.217.628.628,0,0,1,.7.7v.815a.071.071,0,0,0,.078.08h.182v.271h-.36c-.161,0-.224-.08-.224-.2v-.025a.46.46,0,0,1,.014-.119h-.007a.655.655,0,0,1-.594.386.551.551,0,0,1-.6-.552C22.969,58.408,23.721,58.368,24.02,58.368Zm-.378.895a.56.56,0,0,0,.5-.592V58.6h-.089c-.164,0-.73.007-.73.358A.306.306,0,0,0,23.642,59.263Z" transform="translate(-16.903 -56.943)" fill="#97999b"/>
            <path id="Trazado_40408" data-name="Trazado 40408" d="M25.685,59.22h.281V58.015a.07.07,0,0,0-.078-.079h-.221v-.271h.406c.156,0,.227.068.227.2v.094a.552.552,0,0,1-.01.1H26.3a.759.759,0,0,1,.7-.444c.413,0,.6.235.6.7v.9h.285v.271h-.631V58.4c0-.257-.05-.458-.338-.458a.65.65,0,0,0-.6.7v.578H26.6v.271h-.911Z" transform="translate(-17.66 -56.943)" fill="#97999b"/>
            <path id="Trazado_40409" data-name="Trazado 40409" d="M29.881,58.368H30V58.3a.345.345,0,0,0-.385-.391.949.949,0,0,0-.517.178l-.139-.25a1.148,1.148,0,0,1,.684-.217.628.628,0,0,1,.7.7v.815a.071.071,0,0,0,.078.08H30.6v.271h-.36c-.16,0-.224-.08-.224-.2v-.025a.46.46,0,0,1,.014-.119h-.006a.657.657,0,0,1-.6.386.551.551,0,0,1-.6-.552C28.83,58.408,29.582,58.368,29.881,58.368Zm-.378.895a.56.56,0,0,0,.5-.592V58.6H29.91c-.164,0-.73.007-.73.358A.306.306,0,0,0,29.5,59.263Z" transform="translate(-18.547 -56.943)" fill="#97999b"/>
            <path id="Trazado_40410" data-name="Trazado 40410" d="M31.491,56.948h-.3v-.27h.645v2.007c0,.155.036.26.193.26.057,0,.1,0,.1,0l0,.288s-.071.008-.153.008c-.256,0-.477-.105-.477-.531Z" transform="translate(-19.21 -56.678)" fill="#97999b"/>
            <path id="Trazado_40411" data-name="Trazado 40411" d="M34.507,57.356a.609.609,0,0,1,.556.307h.007a.836.836,0,0,1-.011-.137v-.578h-.3v-.27H35.4v2.2a.071.071,0,0,0,.078.08h.182v.271h-.36c-.16,0-.224-.08-.224-.2V59a.4.4,0,0,1,.01-.1h-.006a.645.645,0,0,1-.609.364c-.484,0-.787-.389-.787-.956A.846.846,0,0,1,34.507,57.356Zm.043,1.61c.267,0,.52-.195.52-.65,0-.336-.168-.653-.509-.653-.288,0-.52.234-.52.65C34.041,58.71,34.251,58.966,34.55,58.966Z" transform="translate(-19.91 -56.678)" fill="#97999b"/>
            <path id="Trazado_40412" data-name="Trazado 40412" d="M37.4,57.621a.771.771,0,0,1,.781.856c0,.046-.011.133-.011.133H36.848a.61.61,0,0,0,.623.621.872.872,0,0,0,.538-.206l.142.256a1.1,1.1,0,0,1-.7.253.923.923,0,0,1-.955-.956A.89.89,0,0,1,37.4,57.621Zm.424.765a.444.444,0,0,0-.432-.488.533.533,0,0,0-.527.488Z" transform="translate(-20.698 -56.943)" fill="#97999b"/>
            <path id="Trazado_40413" data-name="Trazado 40413" d="M41.034,57.621c.268,0,.706.1.706.415v.224h-.306v-.127c0-.14-.228-.209-.388-.209a.6.6,0,0,0-.613.65.617.617,0,0,0,.635.657A.911.911,0,0,0,41.643,59l.132.256a1.089,1.089,0,0,1-.723.281.957.957,0,1,1-.018-1.913Z" transform="translate(-21.704 -56.943)" fill="#97999b"/>
            <path id="Trazado_40414" data-name="Trazado 40414" d="M43.544,57.621a.957.957,0,1,1-.973.953A.946.946,0,0,1,43.544,57.621Zm0,1.61a.654.654,0,0,0,0-1.306.654.654,0,0,0,0,1.306Z" transform="translate(-22.403 -56.943)" fill="#97999b"/>
            <path id="Trazado_40415" data-name="Trazado 40415" d="M46.491,57.621c.267,0,.705.1.705.415v.224h-.306v-.127c0-.14-.228-.209-.388-.209a.6.6,0,0,0-.612.65.617.617,0,0,0,.634.657A.909.909,0,0,0,47.1,59l.132.256a1.087,1.087,0,0,1-.723.281.957.957,0,1,1-.017-1.913Z" transform="translate(-23.235 -56.943)" fill="#97999b"/>
            <path id="Trazado_40416" data-name="Trazado 40416" d="M48.108,58.956h.281V57.671h-.3V57.4h.645v1.556h.285v.271h-.911Zm.274-2.278h.363v.357h-.363Z" transform="translate(-23.951 -56.678)" fill="#97999b"/>
            <path id="Trazado_40417" data-name="Trazado 40417" d="M49.574,59.22h.281V58.015a.07.07,0,0,0-.078-.079h-.221v-.271h.406c.157,0,.228.068.228.2v.094a.517.517,0,0,1-.011.1h.007a.758.758,0,0,1,.7-.444c.413,0,.6.235.6.7v.9h.286v.271h-.631V58.4c0-.257-.05-.458-.338-.458a.65.65,0,0,0-.6.7v.578h.285v.271h-.911Z" transform="translate(-24.363 -56.943)" fill="#97999b"/>
            <path id="Trazado_40418" data-name="Trazado 40418" d="M53.77,58.368h.114V58.3a.344.344,0,0,0-.384-.391.949.949,0,0,0-.517.178l-.139-.25a1.147,1.147,0,0,1,.683-.217.628.628,0,0,1,.7.7v.815a.07.07,0,0,0,.078.08h.181v.271h-.36c-.16,0-.224-.08-.224-.2v-.025a.439.439,0,0,1,.014-.119h-.007a.656.656,0,0,1-.595.386.551.551,0,0,1-.6-.552C52.719,58.408,53.471,58.368,53.77,58.368Zm-.378.895a.56.56,0,0,0,.495-.592V58.6H53.8c-.164,0-.73.007-.73.358A.306.306,0,0,0,53.392,59.263Z" transform="translate(-25.25 -56.943)" fill="#97999b"/>
          </g>
        </g>
      </g>
    </g>
  </g>
</svg>
