<svg xmlns="http://www.w3.org/2000/svg" xmlns:xlink="http://www.w3.org/1999/xlink" width="85" height="85" viewBox="0 0 85 85">
  <defs>
    <filter id="Rectángulo_18084" x="0" y="0" width="85" height="85" filterUnits="userSpaceOnUse">
      <feOffset dy="3" input="SourceAlpha"/>
      <feGaussianBlur stdDeviation="3" result="blur"/>
      <feFlood flood-opacity="0.161"/>
      <feComposite operator="in" in2="blur"/>
      <feComposite in="SourceGraphic"/>
    </filter>
    <clipPath id="clip-path">
      <rect id="Rectángulo_18421" data-name="Rectángulo 18421" width="49.436" height="49.436" fill="none"/>
    </clipPath>
  </defs>
  <g id="Grupo_19603" data-name="Grupo 19603" transform="translate(-23063 -2611)">
    <g transform="matrix(1, 0, 0, 1, 23063, 2611)" filter="url(#Rectángulo_18084)">
      <rect id="Rectángulo_18084-2" data-name="Rectángulo 18084" width="67" height="67" rx="10" transform="translate(9 6)" fill="#fff"/>
    </g>
    <g id="Grupo_19598" data-name="Grupo 19598" transform="translate(23081 2626)">
      <g id="Grupo_19602" data-name="Grupo 19602" clip-path="url(#clip-path)">
        <g id="Grupo_19601" data-name="Grupo 19601">
          <g id="Grupo_19600" data-name="Grupo 19600" clip-path="url(#clip-path)">
            <g id="Grupo_19599" data-name="Grupo 19599">
              <g id="Grupo_19598-2" data-name="Grupo 19598" clip-path="url(#clip-path)">
                <path id="Trazado_41916" data-name="Trazado 41916" d="M34.227,49.8H8.541c-.032-.077-.111-.087-.173-.119A7.768,7.768,0,0,1,7.12,48.89a4.856,4.856,0,0,1-.985-1.018A3.435,3.435,0,0,1,5.48,45.88a4.129,4.129,0,0,1,.194-1.263,6.033,6.033,0,0,1,.392-.947.282.282,0,0,0,.057-.144.087.087,0,0,0-.027-.049.038.038,0,0,0-.054,0,.743.743,0,0,0-.077.089,9.3,9.3,0,0,0-.755,1.179A6.354,6.354,0,0,0,4.6,46.3a4.306,4.306,0,0,0-.017,2.014,4.159,4.159,0,0,0,.58,1.311.386.386,0,0,1,.094.171H.756c0-.1-.005-.2-.005-.3q0-24.372,0-48.744c0-.059,0-.119,0-.178a.8.8,0,0,1,.007-.1A.078.078,0,0,1,.836.41C.929.406,1.021.4,1.113.4h49V35.89a.523.523,0,0,1-.148.123c-.343.245-.694.478-1.05.7a36.252,36.252,0,0,1-4.46,2.372A54.341,54.341,0,0,1,38.648,41.3q-2.991.96-6.06,1.629-1.582.345-3.179.614-.983.165-1.972.294c-.614.081-1.228.155-1.844.217-.563.056-1.128.1-1.693.14-.7.05-1.407.076-2.111.094-.645.017-1.29.01-1.936-.013-.77-.028-1.538-.078-2.3-.163a19.747,19.747,0,0,1-2.2-.364,11.509,11.509,0,0,1-2.194-.71,6.128,6.128,0,0,1-1.368-.821,3.31,3.31,0,0,1-.737-.818,2.492,2.492,0,0,1-.384-1.309,3.11,3.11,0,0,1,.229-1.174,5.228,5.228,0,0,1,.643-1.152c.038-.053.077-.107.109-.164a.051.051,0,0,0-.022-.068.065.065,0,0,0-.054,0,.546.546,0,0,0-.09.076,9.4,9.4,0,0,0-1.259,1.543,5.192,5.192,0,0,0-.671,1.466,3.114,3.114,0,0,0,.016,1.772,3.259,3.259,0,0,0,.775,1.27,5.288,5.288,0,0,0,1.2.921,9.882,9.882,0,0,0,2.071.87,19.9,19.9,0,0,0,3.678.709q1.022.111,2.049.146c1.389.047,2.778.034,4.166-.052q1.41-.087,2.814-.24,1.139-.124,2.272-.294,1.4-.207,2.782-.478,2.461-.482,4.884-1.133a62.6,62.6,0,0,0,6.93-2.3,42.942,42.942,0,0,0,6.85-3.41c.022-.014.042-.032.071-.023v6.007a2.224,2.224,0,0,0-.358.162,67.024,67.024,0,0,1-7.634,3.043,78.3,78.3,0,0,1-7.69,2.14.526.526,0,0,0-.2.069M11.379,23.872l-.005-.037c.055-.036.108-.075.164-.108.248-.149.5-.3.746-.445.483-.283.97-.559,1.439-.864a7.672,7.672,0,0,0,1.329-1.052,3.984,3.984,0,0,0,.93-1.429,4.227,4.227,0,0,0,.094-2.6,3.065,3.065,0,0,0-1.36-1.825,4.194,4.194,0,0,0-1.078-.483,6.5,6.5,0,0,0-1.437-.244,6.948,6.948,0,0,0-1.712.086,4.576,4.576,0,0,0-1.735.679A4,4,0,0,0,7.122,17.8a5.94,5.94,0,0,0-.231,1.6c0,.131,0,.263.008.395,0,.084.022.1.111.1.026,0,.053,0,.079,0H9.737c.046,0,.092,0,.138-.006a.051.051,0,0,0,.05-.05c0-.053,0-.105,0-.158A4.352,4.352,0,0,1,10,18.9a2.2,2.2,0,0,1,.264-.74,1.355,1.355,0,0,1,.882-.647,2.062,2.062,0,0,1,.785-.03,1.142,1.142,0,0,1,.99.918,2.327,2.327,0,0,1,.05.51,1.151,1.151,0,0,1-.176.618,1.912,1.912,0,0,1-.4.459,4.467,4.467,0,0,1-.51.372l-.982.627c-.527.336-1.056.67-1.562,1.04a8.906,8.906,0,0,0-1.431,1.269,4.662,4.662,0,0,0-1.239,3.241c0,.28-.02.25.261.25H16.2c.2,0,.2,0,.2-.2q0-.988,0-1.976c0-.2-.01-.192.195-.192h4.366c.222,0,.211-.016.211.218q0,.968,0,1.936c0,.217-.006.21.2.21h2.944c.046,0,.092,0,.138,0a.062.062,0,0,0,.062-.063c0-.059,0-.119,0-.178q0-.938,0-1.877c0-.059,0-.119,0-.178a.061.061,0,0,1,.065-.061c.052,0,.105,0,.158,0h1.067c.24,0,.229.02.229-.22q0-1.215,0-2.43c0-.276.029-.254-.255-.254-.382,0-.764,0-1.146,0-.1,0-.116-.016-.12-.111,0-.059,0-.119,0-.178q0-3.052,0-6.1c0-.246.021-.224-.222-.224q-1.363,0-2.726,0c-.307,0-.222-.04-.41.191q-2.421,2.984-4.839,5.97c-.025.031-.048.062-.075.092a.2.2,0,0,0-.051.145c0,.046,0,.092,0,.138q0,1.1,0,2.193c0,.059,0,.119,0,.178a.068.068,0,0,1-.077.07l-.158,0H11.568c-.063,0-.126,0-.189-.007M23.628,39.755c.564-.017,1.117-.028,1.669-.069.407-.03.815-.054,1.221-.094q1.061-.1,2.117-.257,1.417-.205,2.819-.5a49.093,49.093,0,0,0,5.564-1.492,38.534,38.534,0,0,0,4.863-1.971A23,23,0,0,0,44.932,33.6a12.025,12.025,0,0,0,1.742-1.453,6.271,6.271,0,0,0,.858-1.081,3.414,3.414,0,0,0,.391-.86,2.071,2.071,0,0,0-.489-2.07,3.068,3.068,0,0,0-.506-.44,5.05,5.05,0,0,0-.988-.534,10.806,10.806,0,0,0-2.319-.63.274.274,0,0,0-.1,0,.06.06,0,0,0-.037.04.062.062,0,0,0,.018.051.428.428,0,0,0,.165.06,6.268,6.268,0,0,1,1.342.517,3.017,3.017,0,0,1,.815.617,1.629,1.629,0,0,1,.387,1.612,3.153,3.153,0,0,1-.539,1.047,6.84,6.84,0,0,1-1.063,1.111,14.41,14.41,0,0,1-2.033,1.431,28.331,28.331,0,0,1-4.16,2,44.8,44.8,0,0,1-8.252,2.328q-1.573.29-3.165.454c-.806.084-1.613.143-2.423.171-.711.025-1.422.024-2.133-.013a17.9,17.9,0,0,1-2.042-.209,9.347,9.347,0,0,1-1.7-.433,4.443,4.443,0,0,1-1.151-.6,2.291,2.291,0,0,1-.511-.519,1.579,1.579,0,0,1-.292-.985,2.09,2.09,0,0,1,.186-.762,3.9,3.9,0,0,1,.593-.93,7.678,7.678,0,0,1,.846-.856c.042-.037.107-.066.082-.141-.013-.04-.069-.026-.167.045A11.829,11.829,0,0,0,16.71,33.9a5.949,5.949,0,0,0-.875,1.117,3.248,3.248,0,0,0-.353.812,2.073,2.073,0,0,0,.478,2.038,2.9,2.9,0,0,0,.314.3,4.551,4.551,0,0,0,1.063.639,9.9,9.9,0,0,0,2.386.678,17.888,17.888,0,0,0,1.823.209c.7.046,1.394.065,2.081.06m2.957-5.5c.528-.012,1.048-.029,1.566-.076q1.22-.11,2.424-.338a26.987,26.987,0,0,0,3.888-1.034,19.452,19.452,0,0,0,3.053-1.336,9.5,9.5,0,0,0,1.693-1.157,3.978,3.978,0,0,0,.767-.872,1.768,1.768,0,0,0,.231-.521,1.127,1.127,0,0,0-.264-1.083,1.9,1.9,0,0,0-.446-.356,3.941,3.941,0,0,0-1.005-.4,9.145,9.145,0,0,0-1.991-.275,17.763,17.763,0,0,0-2.545.083q-1.149.118-2.284.338A26.522,26.522,0,0,0,27.178,28.5a17.531,17.531,0,0,0-2.636,1.253A8.859,8.859,0,0,0,23.1,30.79a4.041,4.041,0,0,0-.657.734,2.009,2.009,0,0,0-.281.584,1.11,1.11,0,0,0,.258,1.1,1.722,1.722,0,0,0,.313.27,2.983,2.983,0,0,0,.613.316,6.039,6.039,0,0,0,1.221.316,13.266,13.266,0,0,0,2.02.144m.721-24.634.041-.011c.04.073.082.146.121.22l1.657,3.122.065.122a.1.1,0,0,0,.093.061l.1,0H30.9c.04,0,.079,0,.118,0a.063.063,0,0,0,.061-.064c0-.039,0-.079,0-.118q0-3.092,0-6.184c0-.046,0-.092-.005-.138a.062.062,0,0,0-.065-.06c-.033,0-.066,0-.1,0H29.356a.067.067,0,0,0-.074.073c0,.059,0,.119,0,.178q0,1.482,0,2.964c0,.059,0,.119,0,.178,0,.018,0,.042-.019.049s-.044-.019-.055-.041c-.028-.052-.055-.105-.082-.158L27.549,6.757c-.024-.047-.05-.093-.074-.14a.084.084,0,0,0-.079-.048l-.138,0H25.717c-.244,0-.225-.021-.225.221q0,3.062,0,6.125,0,.079,0,.158a.06.06,0,0,0,.061.062c.046,0,.092,0,.138,0h1.4c.231,0,.21.007.21-.218q0-1.541,0-3.082V9.621m-14.771.234q0,1.511,0,3.022c0,.059,0,.119,0,.178s.023.076.087.081h.039q.81,0,1.62,0c.127,0,.133-.01.137-.133,0-.039,0-.079,0-.119q0-.869,0-1.738,0-.079,0-.158c0-.044.018-.078.067-.078l.513,0a.109.109,0,0,1,.1.076c.06.125.122.248.183.372.271.556.544,1.111.811,1.669a.174.174,0,0,0,.182.113c.593,0,1.185,0,1.778,0,.1,0,.112-.018.065-.117-.011-.024-.023-.047-.035-.071l-1.12-2.2L16.9,10.61a.055.055,0,0,1,.027-.081c.04-.023.082-.042.122-.065a1.829,1.829,0,0,0,.9-1.218,2.517,2.517,0,0,0-.01-1.1,1.819,1.819,0,0,0-1.377-1.472,3.319,3.319,0,0,0-.9-.108h-2.9c-.241,0-.221-.017-.221.226q0,1.531,0,3.062m26.293-.009v3.082c0,.221-.008.209.2.209h4.722c.046,0,.092,0,.138,0a.06.06,0,0,0,.059-.065c0-.046,0-.092,0-.138,0-.369,0-.738,0-1.106,0-.226.026-.212-.213-.212H41.149c-.059,0-.119,0-.178,0-.083,0-.1-.022-.1-.109,0-.224,0-.448,0-.672s-.018-.221.227-.221H43.17c.059,0,.119,0,.178,0a.069.069,0,0,0,.076-.072c0-.046,0-.092,0-.138q0-.543,0-1.087c0-.234.02-.221-.227-.221H41.1c-.059,0-.118,0-.177-.005a.053.053,0,0,1-.052-.049,1.158,1.158,0,0,1-.006-.118c0-.191,0-.382,0-.573,0-.267-.03-.247.241-.247h2.608c.059,0,.118,0,.177-.006a.053.053,0,0,0,.051-.051c0-.052.005-.1.005-.158,0-.362,0-.724,0-1.087,0-.255.028-.232-.234-.232H39.054c-.239,0-.225-.021-.225.223q0,1.531,0,3.062m-13.868,3.27a.517.517,0,0,0-.048-.186q-.265-.785-.529-1.571L22.838,6.78c-.019-.056-.04-.111-.062-.166a.064.064,0,0,0-.06-.044l-.158,0q-.819,0-1.639,0c-.252,0-.209-.027-.287.2Q19.946,8.8,19.26,10.824q-.357,1.056-.714,2.112a1.526,1.526,0,0,0-.043.151.036.036,0,0,0,.031.042.443.443,0,0,0,.078.007q.869,0,1.738,0c.119,0,.124-.005.157-.13.055-.2.106-.407.161-.61.035-.128.036-.13.176-.13H21.99c.2,0,.408,0,.612,0,.112,0,.116,0,.149.115.046.158.089.317.133.475.014.051.027.1.042.152.037.125.037.125.159.128H24.8a.294.294,0,0,0,.158-.02m12.062-4.1h.731c.046,0,.092,0,.138,0a.049.049,0,0,0,.05-.049.7.7,0,0,0-.005-.118,3.676,3.676,0,0,0-.241-.913,2.318,2.318,0,0,0-1.624-1.406,3.65,3.65,0,0,0-1.527-.065,2.9,2.9,0,0,0-1.377.6,3.005,3.005,0,0,0-.953,1.4,4.423,4.423,0,0,0-.206,1.655,3.874,3.874,0,0,0,.287,1.324,2.865,2.865,0,0,0,1.515,1.588,2.969,2.969,0,0,0,.874.235,3.333,3.333,0,0,0,1.425-.118,2.727,2.727,0,0,0,1.866-2.373,1.206,1.206,0,0,0,0-.158.051.051,0,0,0-.049-.051c-.046,0-.092-.005-.138-.005h-1.5c-.177,0-.178,0-.22.169a1.772,1.772,0,0,1-.2.512.822.822,0,0,1-.546.39,1,1,0,0,1-1.1-.469,1.8,1.8,0,0,1-.224-.566,3.426,3.426,0,0,1-.031-1.334,1.9,1.9,0,0,1,.31-.8A1.012,1.012,0,0,1,35.414,8.1a.908.908,0,0,1,.536.467,1.345,1.345,0,0,1,.128.351c.018.08.025.1.135.1h.81M6.9,9.841v3.021c0,.053,0,.105,0,.158,0,.105.011.113.112.117H8.754c.193,0,.186.007.186-.181q0-.9,0-1.8c0-.059,0-.118,0-.178A.061.061,0,0,1,9,10.92c.052,0,.105,0,.158,0H10.94l.158,0a.062.062,0,0,0,.065-.059.457.457,0,0,0,0-.059c0-.434,0-.869,0-1.3,0-.1-.013-.112-.113-.116-.046,0-.092,0-.138,0H9.2c-.046,0-.092,0-.138,0-.111,0-.116-.01-.119-.129,0-.033,0-.066,0-.1,0-.276,0-.553,0-.829,0-.237-.023-.224.224-.224h2.33c.059,0,.118,0,.177,0a.063.063,0,0,0,.064-.061c0-.053,0-.105,0-.158,0-.355,0-.711,0-1.066,0-.268.029-.243-.243-.243H7.152c-.275,0-.247-.032-.248.258q0,1.51,0,3.021" transform="translate(-0.677 -0.363)" fill="#00a8e7"/>
                <path id="Trazado_41917" data-name="Trazado 41917" d="M129.993,364.894c-.029-.009-.049.01-.071.023a42.957,42.957,0,0,1-6.85,3.41,62.6,62.6,0,0,1-6.93,2.3q-2.421.655-4.884,1.133-1.386.271-2.782.478-1.133.168-2.272.294-1.4.153-2.814.24c-1.388.086-2.777.1-4.167.052q-1.027-.034-2.049-.146a19.918,19.918,0,0,1-3.678-.709,9.886,9.886,0,0,1-2.071-.87,5.288,5.288,0,0,1-1.2-.921,3.257,3.257,0,0,1-.775-1.27,3.116,3.116,0,0,1-.015-1.772,5.191,5.191,0,0,1,.671-1.466,9.408,9.408,0,0,1,1.259-1.543.549.549,0,0,1,.09-.076.065.065,0,0,1,.054,0,.051.051,0,0,1,.022.068,1.931,1.931,0,0,1-.11.164,5.237,5.237,0,0,0-.643,1.152,3.11,3.11,0,0,0-.229,1.174,2.492,2.492,0,0,0,.384,1.309,3.315,3.315,0,0,0,.737.818,6.126,6.126,0,0,0,1.368.821,11.511,11.511,0,0,0,2.194.71,19.71,19.71,0,0,0,2.2.364c.766.085,1.534.135,2.3.163.645.023,1.291.03,1.936.013.7-.018,1.408-.044,2.111-.094.565-.04,1.129-.084,1.693-.14.616-.062,1.23-.136,1.843-.217q.989-.13,1.972-.294,1.6-.268,3.179-.614,3.069-.669,6.06-1.629a54.366,54.366,0,0,0,5.807-2.218,36.28,36.28,0,0,0,4.46-2.372c.356-.225.707-.458,1.05-.7a.523.523,0,0,0,.148-.123Z" transform="translate(-80.557 -326.878)" fill="#fdfeff"/>
                <path id="Trazado_41918" data-name="Trazado 41918" d="M342.246,454.488a.528.528,0,0,1,.2-.069,78.286,78.286,0,0,0,7.69-2.14,67.029,67.029,0,0,0,7.634-3.043,2.226,2.226,0,0,1,.358-.162v3a.787.787,0,0,0-.094.022l-.7.257q-2.97,1.083-5.983,2.04a.509.509,0,0,0-.214.092Z" transform="translate(-308.696 -405.052)" fill="#fdfeff"/>
                <path id="Trazado_41919" data-name="Trazado 41919" d="M432.948,482.122a.508.508,0,0,1,.214-.092q3.013-.957,5.983-2.04l.7-.257a.793.793,0,0,1,.094-.022v2.411Z" transform="translate(-390.506 -432.685)" fill="#00a8e7"/>
                <path id="Trazado_41920" data-name="Trazado 41920" d="M39.544,446.036a.386.386,0,0,0-.094-.171,4.157,4.157,0,0,1-.58-1.311,4.3,4.3,0,0,1,.017-2.014,6.355,6.355,0,0,1,.606-1.558,9.325,9.325,0,0,1,.755-1.179.77.77,0,0,1,.077-.089.039.039,0,0,1,.054,0,.086.086,0,0,1,.027.049.281.281,0,0,1-.057.144,6.014,6.014,0,0,0-.392.947,4.126,4.126,0,0,0-.194,1.263,3.435,3.435,0,0,0,.655,1.993,4.849,4.849,0,0,0,.985,1.018,7.768,7.768,0,0,0,1.249.791c.062.032.141.042.173.119Z" transform="translate(-34.96 -396.6)" fill="#fdfeff"/>
                <path id="Trazado_41921" data-name="Trazado 41921" d="M49.436.039h-49c-.092,0-.184,0-.276.005A.079.079,0,0,0,.081.12a.825.825,0,0,0-.006.1c0,.059,0,.119,0,.178q0,24.372,0,48.744c0,.1,0,.2.005.3H0V0H49.258c.059,0,.119,0,.178,0V.039" transform="translate(0 0)" fill="#69ccf1"/>
                <path id="Trazado_41922" data-name="Trazado 41922" d="M65.866,156.007c.063,0,.126.007.189.007h4.386l.158,0a.069.069,0,0,0,.077-.07c0-.059,0-.118,0-.178q0-1.1,0-2.193c0-.046,0-.092,0-.138a.2.2,0,0,1,.051-.145c.026-.03.05-.061.075-.092q2.419-2.985,4.839-5.97c.188-.232.1-.191.41-.191q1.363,0,2.726,0c.242,0,.222-.022.222.224q0,3.052,0,6.1c0,.059,0,.119,0,.178,0,.1.017.111.119.111.382,0,.764,0,1.146,0,.284,0,.255-.022.255.254q0,1.215,0,2.43c0,.24.012.22-.229.22H79.229c-.053,0-.105,0-.158,0a.061.061,0,0,0-.064.061q0,.089,0,.178,0,.938,0,1.877c0,.059,0,.119,0,.178a.062.062,0,0,1-.062.063c-.046,0-.092,0-.138,0H75.855c-.206,0-.2.007-.2-.21q0-.968,0-1.936c0-.233.011-.218-.211-.218H71.077c-.2,0-.194-.013-.195.192q0,.988,0,1.976c0,.192.007.2-.2.2H61.421c-.281,0-.258.03-.261-.25A4.662,4.662,0,0,1,62.4,155.43a8.915,8.915,0,0,1,1.431-1.269c.505-.369,1.034-.7,1.562-1.04l.983-.627a4.464,4.464,0,0,0,.51-.372,1.914,1.914,0,0,0,.4-.459,1.152,1.152,0,0,0,.175-.618,2.321,2.321,0,0,0-.05-.51,1.142,1.142,0,0,0-.99-.918,2.061,2.061,0,0,0-.785.03,1.355,1.355,0,0,0-.882.647,2.2,2.2,0,0,0-.264.74,4.342,4.342,0,0,0-.073.785c0,.053,0,.105,0,.158a.051.051,0,0,1-.05.05c-.046,0-.092.006-.138.006H61.577c-.026,0-.053,0-.079,0-.089,0-.107-.017-.111-.1-.007-.131-.011-.263-.008-.395a5.943,5.943,0,0,1,.231-1.6,4,4,0,0,1,1.632-2.257A4.58,4.58,0,0,1,64.975,147a6.958,6.958,0,0,1,1.712-.086,6.507,6.507,0,0,1,1.437.244,4.194,4.194,0,0,1,1.078.483,3.066,3.066,0,0,1,1.361,1.825,4.229,4.229,0,0,1-.094,2.6,3.983,3.983,0,0,1-.93,1.429,7.668,7.668,0,0,1-1.329,1.052c-.47.3-.956.581-1.439.864-.25.146-.5.3-.746.445-.056.034-.109.072-.164.108l.005.037m9.762-5.617c-.156.143-1.857,2.2-2.606,3.143-.023.03-.058.054-.056.1a.284.284,0,0,0,.172.02h2.308c.226,0,.21.017.21-.216q0-1.42,0-2.84c0-.053,0-.105,0-.158a.158.158,0,0,0-.024-.05" transform="translate(-55.164 -132.499)" fill="#fdfeff"/>
                <path id="Trazado_41923" data-name="Trazado 41923" d="M158.366,280.132c-.687.005-1.384-.014-2.081-.06a17.9,17.9,0,0,1-1.824-.209,9.912,9.912,0,0,1-2.386-.678,4.558,4.558,0,0,1-1.063-.639,2.939,2.939,0,0,1-.314-.3,2.074,2.074,0,0,1-.478-2.038,3.251,3.251,0,0,1,.353-.812,5.952,5.952,0,0,1,.875-1.117,11.827,11.827,0,0,1,1.581-1.338c.1-.071.155-.085.168-.045.024.075-.04.1-.082.141a7.683,7.683,0,0,0-.846.856,3.908,3.908,0,0,0-.593.929,2.091,2.091,0,0,0-.186.762,1.58,1.58,0,0,0,.291.985,2.288,2.288,0,0,0,.511.519,4.442,4.442,0,0,0,1.151.6,9.337,9.337,0,0,0,1.7.433,17.867,17.867,0,0,0,2.042.209c.711.037,1.422.038,2.133.013.809-.028,1.617-.087,2.423-.171q1.592-.165,3.165-.454a44.806,44.806,0,0,0,8.252-2.328,28.348,28.348,0,0,0,4.16-2,14.418,14.418,0,0,0,2.033-1.431,6.837,6.837,0,0,0,1.063-1.111,3.149,3.149,0,0,0,.539-1.047,1.628,1.628,0,0,0-.387-1.612,3.014,3.014,0,0,0-.815-.617,6.278,6.278,0,0,0-1.342-.517.429.429,0,0,1-.165-.06.062.062,0,0,1-.018-.051.06.06,0,0,1,.036-.04.28.28,0,0,1,.1,0,10.81,10.81,0,0,1,2.319.63,5.041,5.041,0,0,1,.988.534,3.062,3.062,0,0,1,.506.44,2.071,2.071,0,0,1,.489,2.07,3.412,3.412,0,0,1-.392.86,6.269,6.269,0,0,1-.858,1.081,12.043,12.043,0,0,1-1.742,1.453,22.988,22.988,0,0,1-3.052,1.777,38.53,38.53,0,0,1-4.863,1.971,49.071,49.071,0,0,1-5.564,1.492q-1.4.29-2.819.5-1.056.153-2.117.257c-.406.04-.814.064-1.221.094-.552.04-1.1.051-1.669.069" transform="translate(-135.415 -240.74)" fill="#fdfeff"/>
                <path id="Trazado_41924" data-name="Trazado 41924" d="M223.125,277.061a13.274,13.274,0,0,1-2.02-.144,6.032,6.032,0,0,1-1.221-.316,2.978,2.978,0,0,1-.613-.316,1.724,1.724,0,0,1-.313-.27,1.11,1.11,0,0,1-.258-1.1,2.009,2.009,0,0,1,.281-.585,4.037,4.037,0,0,1,.657-.734,8.859,8.859,0,0,1,1.442-1.034,17.519,17.519,0,0,1,2.636-1.253,26.5,26.5,0,0,1,4.494-1.276q1.135-.22,2.284-.338a17.752,17.752,0,0,1,2.545-.083,9.155,9.155,0,0,1,1.991.275,3.939,3.939,0,0,1,1.005.4,1.905,1.905,0,0,1,.446.356,1.127,1.127,0,0,1,.263,1.083,1.766,1.766,0,0,1-.231.521,3.972,3.972,0,0,1-.767.872,9.5,9.5,0,0,1-1.693,1.157A19.436,19.436,0,0,1,231,275.614a27,27,0,0,1-3.888,1.034q-1.2.226-2.424.338c-.518.047-1.038.064-1.566.076m.438-1.247c.23-.011.46-.022.69-.031a18.365,18.365,0,0,0,2.314-.258,24.07,24.07,0,0,0,3.728-.94,16.885,16.885,0,0,0,2.665-1.14,7.712,7.712,0,0,0,1.359-.91,3,3,0,0,0,.533-.58,1.305,1.305,0,0,0,.205-.446.731.731,0,0,0-.134-.635,1.153,1.153,0,0,0-.309-.273,2.445,2.445,0,0,0-.538-.245,6.151,6.151,0,0,0-1.631-.271,14.474,14.474,0,0,0-1.816.027q-.8.06-1.589.182-1.132.175-2.242.459a21.246,21.246,0,0,0-3.74,1.306,10.487,10.487,0,0,0-1.728.989,4.617,4.617,0,0,0-.657.567,2.376,2.376,0,0,0-.312.406,1.217,1.217,0,0,0-.123.268.748.748,0,0,0,.18.785,1.645,1.645,0,0,0,.6.377,4.171,4.171,0,0,0,.914.242,10.5,10.5,0,0,0,1.633.121" transform="translate(-197.217 -243.17)" fill="#fdfeff"/>
                <path id="Trazado_41925" data-name="Trazado 41925" d="M254.948,66.339v.216q0,1.541,0,3.082c0,.225.021.219-.21.218h-1.4c-.046,0-.092,0-.138,0a.06.06,0,0,1-.061-.062q0-.079,0-.158,0-3.062,0-6.125c0-.243-.019-.221.225-.221H254.9l.138,0a.084.084,0,0,1,.079.048c.024.047.05.093.074.14l1.573,3.055c.027.053.054.105.082.158.012.022.021.051.055.041s.019-.031.019-.049c0-.059,0-.119,0-.178q0-1.482,0-2.964c0-.059,0-.119,0-.178a.067.067,0,0,1,.074-.073h1.561c.033,0,.066,0,.1,0a.061.061,0,0,1,.065.059c0,.046.005.092.005.138q0,3.092,0,6.184c0,.04,0,.079,0,.118a.063.063,0,0,1-.061.064c-.039,0-.079,0-.118,0h-1.521l-.1,0a.1.1,0,0,1-.093-.061l-.065-.122-1.657-3.122c-.039-.074-.08-.147-.121-.22l-.041.011" transform="translate(-228.318 -57.081)" fill="#fdfeff"/>
                <path id="Trazado_41926" data-name="Trazado 41926" d="M120.965,66.573q0-1.531,0-3.062c0-.243-.02-.226.221-.226h2.9a3.319,3.319,0,0,1,.9.108,1.819,1.819,0,0,1,1.377,1.472,2.517,2.517,0,0,1,.01,1.1,1.829,1.829,0,0,1-.9,1.218c-.04.023-.082.043-.122.065a.055.055,0,0,0-.027.081l.072.141,1.12,2.2c.012.024.024.047.035.071.046.1.038.117-.065.117-.593,0-1.185,0-1.778,0a.174.174,0,0,1-.182-.113c-.268-.558-.54-1.113-.811-1.669-.061-.124-.123-.248-.183-.372a.109.109,0,0,0-.1-.076l-.513,0c-.05,0-.067.034-.067.078s0,.105,0,.158q0,.869,0,1.738c0,.04,0,.079,0,.119,0,.124-.01.133-.137.133q-.81,0-1.62,0h-.039c-.064,0-.084-.022-.087-.081s0-.118,0-.178q0-1.511,0-3.022m2.527-.457h0c.158,0,.316,0,.473,0a1.5,1.5,0,0,0,.215-.019.479.479,0,0,0,.409-.377,1.008,1.008,0,0,0,0-.546.468.468,0,0,0-.363-.352.742.742,0,0,0-.155-.026q-.562,0-1.124,0c-.073,0-.091.019-.092.1q0,.562,0,1.124c0,.083.018.1.109.1.177,0,.355,0,.533,0" transform="translate(-109.107 -57.081)" fill="#fdfeff"/>
                <path id="Trazado_41927" data-name="Trazado 41927" d="M389.183,66.506q0-1.531,0-3.062c0-.244-.014-.223.225-.223h4.663c.261,0,.233-.023.234.232,0,.362,0,.724,0,1.087,0,.053,0,.105-.005.158a.053.053,0,0,1-.051.051c-.059,0-.118.006-.177.006h-2.608c-.271,0-.239-.02-.241.247,0,.191,0,.382,0,.573a1.08,1.08,0,0,0,.006.118.053.053,0,0,0,.052.049q.089.005.177.005h2.094c.248,0,.227-.013.227.221q0,.543,0,1.087c0,.046,0,.092,0,.138a.069.069,0,0,1-.076.072c-.059,0-.118,0-.178,0H391.45c-.245,0-.227-.015-.227.221s0,.448,0,.672c0,.088.019.105.1.109.059,0,.118,0,.178,0h2.588c.239,0,.212-.013.213.212,0,.369,0,.738,0,1.106,0,.046,0,.092,0,.138a.06.06,0,0,1-.059.064c-.046,0-.092,0-.138,0h-4.722c-.208,0-.2.012-.2-.209V66.506" transform="translate(-351.032 -57.023)" fill="#fdfeff"/>
                <path id="Trazado_41928" data-name="Trazado 41928" d="M188.3,69.832a.3.3,0,0,1-.158.02h-1.718c-.122,0-.122,0-.159-.128-.015-.05-.028-.1-.042-.152-.044-.158-.087-.317-.133-.475-.033-.111-.037-.114-.149-.115-.2,0-.408,0-.612,0h-1.145c-.139,0-.141,0-.176.13-.055.2-.106.407-.161.611-.034.124-.038.129-.157.13q-.869,0-1.738,0a.445.445,0,0,1-.078-.007.036.036,0,0,1-.031-.042,1.514,1.514,0,0,1,.043-.151q.356-1.056.714-2.112.686-2.028,1.373-4.055c.077-.228.035-.2.287-.2q.82,0,1.639,0l.158,0a.064.064,0,0,1,.06.044c.022.055.043.11.062.166l1.546,4.58q.265.785.529,1.571a.516.516,0,0,1,.048.186m-3.238-4.539c-.029.071-.045.1-.053.131q-.275,1.027-.548,2.055a.473.473,0,0,0-.014.077.049.049,0,0,0,.041.057.394.394,0,0,0,.078.006h1.005a.321.321,0,0,0,.078,0,.047.047,0,0,0,.038-.058c-.01-.045-.02-.09-.033-.134l-.4-1.442-.191-.687" transform="translate(-164.019 -57.079)" fill="#fdfeff"/>
                <path id="Trazado_41929" data-name="Trazado 41929" d="M324.565,64.279h-.81c-.11,0-.117-.022-.135-.1a1.344,1.344,0,0,0-.128-.351.908.908,0,0,0-.536-.467,1.012,1.012,0,0,0-1.142.366,1.9,1.9,0,0,0-.31.8,3.426,3.426,0,0,0,.031,1.334,1.8,1.8,0,0,0,.224.566,1,1,0,0,0,1.1.469.822.822,0,0,0,.545-.39,1.77,1.77,0,0,0,.2-.512c.043-.168.043-.168.22-.169h1.5c.046,0,.092,0,.138.005a.051.051,0,0,1,.049.051,1.2,1.2,0,0,1,0,.157,2.727,2.727,0,0,1-1.866,2.373,3.332,3.332,0,0,1-1.425.118,2.973,2.973,0,0,1-.874-.235,2.865,2.865,0,0,1-1.515-1.588,3.876,3.876,0,0,1-.287-1.324,4.427,4.427,0,0,1,.206-1.655,3,3,0,0,1,.953-1.4,2.9,2.9,0,0,1,1.377-.6,3.652,3.652,0,0,1,1.527.065,2.318,2.318,0,0,1,1.624,1.406,3.675,3.675,0,0,1,.241.914.69.69,0,0,1,.005.118.049.049,0,0,1-.05.049c-.046,0-.092,0-.138,0h-.731" transform="translate(-288.219 -55.626)" fill="#fdfeff"/>
                <path id="Trazado_41930" data-name="Trazado 41930" d="M63.518,66.5q0-1.51,0-3.021c0-.29-.028-.258.248-.258H68.11c.272,0,.242-.025.243.243,0,.355,0,.711,0,1.066,0,.053,0,.105,0,.158a.063.063,0,0,1-.064.061c-.059,0-.118,0-.177,0h-2.33c-.247,0-.224-.013-.224.224,0,.276,0,.553,0,.829,0,.033,0,.066,0,.1,0,.119.009.126.119.129.046,0,.092,0,.138,0h1.718c.046,0,.092,0,.138,0,.1,0,.113.013.113.116,0,.434,0,.869,0,1.3a.457.457,0,0,1,0,.059.062.062,0,0,1-.065.059l-.158,0H65.776c-.053,0-.105,0-.158,0a.061.061,0,0,0-.062.063c0,.059,0,.118,0,.178q0,.9,0,1.8c0,.188.007.181-.186.181H63.63c-.1,0-.108-.012-.112-.117,0-.053,0-.105,0-.158V66.5" transform="translate(-57.291 -57.02)" fill="#fdfeff"/>
                <path id="Trazado_41931" data-name="Trazado 41931" d="M184.256,182.5a.158.158,0,0,1,.024.05c0,.052,0,.105,0,.158q0,1.42,0,2.84c0,.233.016.216-.21.216h-2.308a.284.284,0,0,1-.172-.02c0-.046.033-.07.056-.1.749-.948,2.45-3,2.606-3.143" transform="translate(-163.792 -164.612)" fill="#00a8e7"/>
                <path id="Trazado_41932" data-name="Trazado 41932" d="M237.781,280.131a10.509,10.509,0,0,1-1.633-.121,4.17,4.17,0,0,1-.914-.242,1.645,1.645,0,0,1-.6-.377.748.748,0,0,1-.18-.785,1.219,1.219,0,0,1,.123-.268,2.375,2.375,0,0,1,.312-.406,4.619,4.619,0,0,1,.657-.567,10.5,10.5,0,0,1,1.728-.989,21.245,21.245,0,0,1,3.74-1.306q1.11-.283,2.242-.459.79-.122,1.589-.182a14.492,14.492,0,0,1,1.816-.027,6.151,6.151,0,0,1,1.631.271,2.447,2.447,0,0,1,.538.245,1.154,1.154,0,0,1,.31.273.732.732,0,0,1,.134.635,1.306,1.306,0,0,1-.205.446,2.993,2.993,0,0,1-.533.58,7.71,7.71,0,0,1-1.359.91,16.887,16.887,0,0,1-2.665,1.14,24.075,24.075,0,0,1-3.728.94,18.377,18.377,0,0,1-2.314.258c-.23.009-.46.021-.69.031" transform="translate(-211.435 -247.487)" fill="#00a8e7"/>
                <path id="Trazado_41933" data-name="Trazado 41933" d="M140.837,80c-.178,0-.355,0-.533,0-.09,0-.108-.017-.109-.1q0-.562,0-1.124c0-.077.019-.1.092-.1q.562,0,1.124,0a.742.742,0,0,1,.155.026.468.468,0,0,1,.363.352,1.008,1.008,0,0,1,0,.546.479.479,0,0,1-.409.377,1.494,1.494,0,0,1-.215.019c-.158,0-.316,0-.473,0Z" transform="translate(-126.451 -70.966)" fill="#00a8e7"/>
                <path id="Trazado_41934" data-name="Trazado 41934" d="M209.026,83.795l.191.687.4,1.442c.012.044.023.089.033.134a.047.047,0,0,1-.038.058.32.32,0,0,1-.078,0h-1.005a.394.394,0,0,1-.078-.006.049.049,0,0,1-.041-.057.473.473,0,0,1,.014-.077q.274-1.028.548-2.055c.008-.031.024-.06.053-.131" transform="translate(-187.98 -75.581)" fill="#00a8e7"/>
              </g>
            </g>
          </g>
        </g>
      </g>
    </g>
  </g>
</svg>
