<svg xmlns="http://www.w3.org/2000/svg" xmlns:xlink="http://www.w3.org/1999/xlink" width="85" height="85" viewBox="0 0 85 85">
  <defs>
    <filter id="Rectángulo_18084" x="0" y="0" width="85" height="85" filterUnits="userSpaceOnUse">
      <feOffset dy="3" input="SourceAlpha"/>
      <feGaussianBlur stdDeviation="3" result="blur"/>
      <feFlood flood-opacity="0.161"/>
      <feComposite operator="in" in2="blur"/>
      <feComposite in="SourceGraphic"/>
    </filter>
    <clipPath id="clip-path">
      <rect id="Rectángulo_18418" data-name="Rectángulo 18418" width="40" height="49" transform="translate(0 -0.019)" fill="none"/>
    </clipPath>
  </defs>
  <g id="Grupo_19597" data-name="Grupo 19597" transform="translate(-22913 -2611.134)">
    <g transform="matrix(1, 0, 0, 1, 22913, 2611.13)" filter="url(#Rectángulo_18084)">
      <rect id="Rectángulo_18084-2" data-name="Rectángulo 18084" width="67" height="67" rx="10" transform="translate(9 6)" fill="#fff"/>
    </g>
    <g id="Grupo_19592" data-name="Grupo 19592" transform="translate(22936 2626.02)">
      <g id="Grupo_19596" data-name="Grupo 19596" clip-path="url(#clip-path)">
        <g id="Grupo_19595" data-name="Grupo 19595">
          <g id="Grupo_19594" data-name="Grupo 19594" clip-path="url(#clip-path)">
            <g id="Grupo_19593" data-name="Grupo 19593">
              <g id="Grupo_19592-2" data-name="Grupo 19592" clip-path="url(#clip-path)">
                <path id="Trazado_41693" data-name="Trazado 41693" d="M39.729,427.2v9.668a3.348,3.348,0,0,0-1.058-.087H33.76l-33.505,0v-3.8c.168.126-.025.5.336.491h0c-.045.3.079.446.385.429l.015.011c.013.076.045.131.134.128h.025l.016.019.126.062.124.046.093.049a.075.075,0,0,1,.068.02c.057.221.284.241.425.259.382.05.789.208,1.148-.09l.161-.024c.353.13.565-.061.745-.327l.017-.018H4.1c.126.022.2-.02.2-.16l0,0c.359-.066.474-.327.507-.646.014-.136-.025-.257-.193-.248-.6.034-1.225-.134-1.781.258-.212.149-.416-.026-.6-.122-.079-.041-.166-.167-.1-.239a.629.629,0,0,1,.49-.15c.6,0,1.2,0,1.806,0,.127,0,.28.059.372-.095v0a.548.548,0,0,0,.013-.815v0a1.137,1.137,0,0,0-.587-1.231l0,0-.092-.081.006.005a.109.109,0,0,0-.12-.079.024.024,0,0,1-.038-.014.236.236,0,0,0-.142-.229,3.1,3.1,0,0,0-2.638.019.336.336,0,0,0-.192.375H1l-.086.079h0c-.408,0-.428.278-.41.581h0c-.13-.017-.162.115-.249.164V427.2l.255-.012h.4a10.024,10.024,0,0,0,1.665,0h.235a1.117,1.117,0,0,0,.507,0l.475-.019.063-.009-.035-.053a.36.36,0,0,0-.116-.242,3.565,3.565,0,0,1-.2-2.962.191.191,0,0,0,.106-.2.608.608,0,0,0,.032-.06.693.693,0,0,0,.222-.507l.008-.013c.135-.008.12-.271.319-.184.036.267-.226.514-.059.788l-.014.487a1.424,1.424,0,0,0,.343,1.176l.037.054a.2.2,0,0,0,.158.244l0,.007a.143.143,0,0,0,.134.186l0,0,.077.08,0,0c.022.11.068.2.2.2l.02.021c-.013.051.006.07.057.057l.02.02c.012.139.094.185.223.167l.01.007c0,.052.023.074.075.058l.026.021c-.012.051.008.07.059.058l.019.02c.023.129.119.154.228.161l.01.007c.057.142.181.164.312.173l0,0a.745.745,0,0,0,.663.325q9.939,0,19.878,0a.728.728,0,0,0,.576-.154l.158-.029a11.294,11.294,0,0,0,1.6-.33c.2-.045.447-.04.591-.247l.138-.033a.557.557,0,0,0,.523-.126l.138-.041c.037.044.063.027.084-.015l.149-.021a.6.6,0,0,0,.426-.144,60.388,60.388,0,0,0,5.788-2.019,24.035,24.035,0,0,0,2.806-1.277l.04,0,.04-.008V425.3c-.12-.009-.243-.034-.333.081l-4.862,1.664c-.1-.006-.213.017-.194.126.012.067.133.042.206,0l.634.012h.413a4.186,4.186,0,0,0,1.087,0l.729,0h.414a5.3,5.3,0,0,0,1.252,0l.549-.02.106.034m-18.572,1.576-.085.087,0,0c-.174-.008-.179.112-.178.236v0a.224.224,0,0,0-.234.227c0,.157-.085.375.053.456a.658.658,0,0,0,.679-.012l.081-.09.068-.1h0l.686.014,0,0c.389.323.8.36,1.072.095a.044.044,0,0,1,.046-.025l.116-.066h0c.081,0,.144-.018.155-.112a.056.056,0,0,1,.035-.046c.276,0,.226-.193.209-.364a.052.052,0,0,1,.013-.055c.121-.14.15-.276-.016-.4l-.148-.019a.216.216,0,0,0-.327,0l-.086.014-.078.071-.006.012a.707.707,0,0,1-.66.017,1.65,1.65,0,0,0-1.233-.035.1.1,0,0,1-.066.026l-.1.081,0,0M5.629,432.148l.089.082,0,0c.011.241.19.167.325.174l.16.094a.148.148,0,0,0,.172.069h0c.017.273-.177.227-.352.262-.242.048-.547-.182-.726.152l0,0a.149.149,0,0,0-.156.154,1.782,1.782,0,0,0,.747,1.1c.379.162.8.182,1.175.321.483.176.887-.151,1.337-.15.011,0,.023-.072.035-.111l0,0c.327,0,.63-.045.743-.423l.1-.15.066-.092H9.327c.118.014.169-.047.176-.157.043-.02.116-.033.123-.062.021-.088-.061-.089-.12-.1a4.122,4.122,0,0,0,.076-.474c.009-.182.044-.4-.232-.435a.06.06,0,0,1-.023-.057l-.079-.1-.081-.075c0-.178-.145-.235-.248-.342-.227-.234-.588-.077-.906-.331.408,0,.709,0,1.009,0,.126,0,.293.05.31-.165l.018-.081c.127-.308.1-.549-.275-.645h0a.083.083,0,0,0-.09-.081l0,.005c-.011-.084-.068-.107-.142-.109l0,0a.19.19,0,0,0-.107-.164,2.969,2.969,0,0,0-2.686-.043c-.26.124-.7.166-.58.658a.051.051,0,0,1-.023.051.7.7,0,0,0-.006.91.082.082,0,0,1,.021.066l.061.1a.057.057,0,0,1,.027.054.1.1,0,0,0,.077.105l0,0m9.827-1.468.006-.005c-.076.021-.1.079-.1.148l0,.007c-.4.057-.429.135-.259.477a.45.45,0,0,0,.483.276,2.936,2.936,0,0,1,.924-.013c.107.031.177-.047.177-.167l0,0c.26-.075.473-.353.791-.184.068.036.186.025.169.136-.008.05-.085.1-.14.131a3.649,3.649,0,0,1-1,.271c-.361.112-.887-.078-1.046.481h0c-.352-.056-.351.171-.331.414h0a.875.875,0,0,0-.063,1.139,2.227,2.227,0,0,0,1.495.91.168.168,0,0,0,.11-.046c.242-.3.706.023.937-.331.031-.047.124.014.166.076s.1.141.2.119a9.007,9.007,0,0,1,1.4-.054c.252-.019.36-.189.242-.394a1.109,1.109,0,0,1-.106-.6c0-.62,0-1.239,0-1.859,0-.136.073-.319-.15-.373l-.016-.237c-.027-.151.117-.374-.174-.413l.005,0-.086-.089,0,.005c.009-.182-.114-.181-.241-.176h0c0-.17-.114-.212-.261-.258a4.431,4.431,0,0,0-2.756.088c-.222.072-.319.192-.28.421v0l-.082.09m8.746-.174h0c-.011-.221-.153-.26-.336-.242v0a.944.944,0,0,0-1.314-.173.052.052,0,0,1-.05.018c-.2-.024-.406-.062-.447.227h0c-.18.061-.248-.16-.4-.161l-.012-.006a2.4,2.4,0,0,0-1.4,0l-.013.005c-.123.013-.153.1-.153.2,0,1.248,0,2.5,0,3.744,0,.166.044.339.268.343.352.006.7.009,1.056.005.127,0,.292.051.315-.161l.008-.006c.209-.024.158-.187.161-.313a15.816,15.816,0,0,1,.093-2.477l0-.006c.783-.025.812,0,.814.787,0,.563,0,1.126,0,1.689,0,.126-.056.29.15.327l.012.007a1.824,1.824,0,0,0,1.482,0l.014-.008c.18-.024.153-.164.153-.282,0-.9.007-1.8,0-2.7a.568.568,0,0,0-.251-.563l0,0-.055-.091a.1.1,0,0,1-.03-.067l-.075-.1m-12.055,3.962a2.859,2.859,0,0,0,1.329.012c.158-.04.255-.073.241-.249a.048.048,0,0,1,.05-.025.483.483,0,0,0,.522-.249,2.755,2.755,0,0,0,.471-1.84,3.2,3.2,0,0,0-.715-1.777c-.025-.125.077-.3-.081-.363-.088-.035-.119.121-.167.2a1.826,1.826,0,0,0-1.853-.039.173.173,0,0,1-.154.011c-.4-.271-.853-.084-1.277-.137a.3.3,0,0,0-.348.155l-.017.008a3.309,3.309,0,0,0-.108,1.2c.068.564-.055,1.131,0,1.709a6.442,6.442,0,0,1-.028,1.3c-.039.377.042.738.016,1.109-.013.181.107.315.347.307a4.14,4.14,0,0,1,.983.054.356.356,0,0,0,.455-.392c0-.248,0-.5,0-.743.179.007.355.012.33-.25m13.05-2.231a2.116,2.116,0,0,0,2.235,2.216,2.2,2.2,0,1,0,.02-4.406,2.1,2.1,0,0,0-2.255,2.189m5.237-.784h0q0,.826,0,1.651c0,1.322,0,1.318,1.34,1.213.19-.015.268-.071.268-.267q-.007-2.6,0-5.2c0-.176-.067-.248-.243-.244-.33.006-.661.018-.99,0-.292-.02-.38.092-.375.376.014.825.005,1.651.005,2.477" transform="translate(-0.234 -387.865)" fill="#fafdfd"/>
                <path id="Trazado_41694" data-name="Trazado 41694" d="M117.11,341.854v2.066a.042.042,0,0,0-.069-.006c-.123-.037-.206.039-.3.1a31.879,31.879,0,0,1-4.255,2.17c-1.364.584-2.757,1.087-4.169,1.54a51.714,51.714,0,0,1-7.967,1.89,37.078,37.078,0,0,1-8.421.5,13.786,13.786,0,0,1-5.495-1.273,2.948,2.948,0,0,1-1.8-2.209A3.357,3.357,0,0,1,85.561,344l.08-.09,0,0c.089.035.2-.269.271.017l0,0c-.092.031-.1.1-.085.182a.052.052,0,0,1-.016.057,1.674,1.674,0,0,0-.072,1.739l.089.211.073.111h0a.145.145,0,0,0,.129.18.038.038,0,0,1,.036.032.027.027,0,0,0,.024.03.063.063,0,0,1,.04.054c.008.116.038.212.184.2l0,0,.088.083,0,0,.089.084,0,0,.09.084-.006,0a.1.1,0,0,0,.108.082.041.041,0,0,1,.048.021l.109.063a.051.051,0,0,1,.055.022c.01.161.125.161.242.161l0,0a.958.958,0,0,0,.907.409,15.33,15.33,0,0,0,4.077.73,38.941,38.941,0,0,0,7.515-.39,54.731,54.731,0,0,0,5.644-1.155,46.4,46.4,0,0,0,6.313-2.131,28.626,28.626,0,0,0,4.534-2.33,1.713,1.713,0,0,0,.592-.413l0,0c.088-.011.163-.04.184-.14l0,0,.132-.041h.04Z" transform="translate(-77.615 -313.593)" fill="#f3fcfc"/>
                <path id="Trazado_41695" data-name="Trazado 41695" d="M.255,591.673l33.505,0h4.91a3.34,3.34,0,0,1,1.058.087v.165l-.5-.014q-.04-.058-.081,0c-.165,0-.33.012-.494.012l-38.4,0Z" transform="translate(-0.234 -542.754)" fill="#41a2c5"/>
                <path id="Trazado_41696" data-name="Trazado 41696" d="M40.49,28.262l-.132.041c.015-.245.042-.489.042-.734q0-13.386,0-26.772c0-.672-.006-.68-.678-.709-.055,0-.11,0-.165,0H2.112c-.83,0-.852.022-.852.853q0,18.53,0,37.06c0,.262.015.524,0,.785s.055.4.361.39c.825-.017,1.651-.01,2.477,0a.63.63,0,0,0,.446-.17.36.36,0,0,1,.116.242.066.066,0,0,0-.028.061l-.475.019a.457.457,0,0,0-.507,0H3.414a4.4,4.4,0,0,0-1.665,0h-.4c-.24-.124-.17-.35-.17-.546q0-19.388,0-38.776H40.487l0,28.262" transform="translate(-1.074)" fill="#2896be"/>
                <path id="Trazado_41697" data-name="Trazado 41697" d="M.255,594.586l38.4,0c.165,0,.33-.007.494-.011l.04.008.04-.008.5.014c-.074.171-.223.077-.33.078q-3.985.01-7.969.005-15.4,0-30.8-.005c-.121,0-.28.1-.372-.078" transform="translate(-0.234 -545.419)" fill="#def8fb"/>
                <path id="Trazado_41698" data-name="Trazado 41698" d="M.1,0q0,19.388,0,38.776c0,.2-.069.421.17.546l-.255.012Q.021,19.853.026.371C.026.251-.069.091.1,0" transform="translate(0)" fill="#84cce7"/>
                <path id="Trazado_41699" data-name="Trazado 41699" d="M476.75,28.262q0-14.131,0-28.262c.173.092.077.251.077.372q.009,9.524.005,19.047v8.842l-.039,0Z" transform="translate(-437.335)" fill="#84cce7"/>
                <path id="Trazado_41700" data-name="Trazado 41700" d="M476.791,366.6a.042.042,0,0,1,.069.006v4.628l-.04.008-.04,0q.005-2.319.01-4.638" transform="translate(-437.366 -336.281)" fill="#84cce7"/>
                <path id="Trazado_41701" data-name="Trazado 41701" d="M473.722,452.792c.089-.115.213-.09.333-.081v1.9l-.105-.034c.007-.5.007-1.007.023-1.51.006-.191-.061-.28-.251-.276" transform="translate(-434.56 -415.278)" fill="#84cce7"/>
                <path id="Trazado_41702" data-name="Trazado 41702" d="M.591,543.477c-.361.006-.168-.366-.336-.491v-.248l.087,0,.249.742" transform="translate(-0.234 -497.867)" fill="#def8fb"/>
                <path id="Trazado_41703" data-name="Trazado 41703" d="M.255,524.936c.087-.049.119-.181.249-.164l-.167.576q-.041,0-.082,0Z" transform="translate(-0.234 -481.387)" fill="#def8fb"/>
                <path id="Trazado_41704" data-name="Trazado 41704" d="M.255,531.751c.027,0,.055,0,.082,0q0,.454,0,.908l-.087,0v-.909" transform="translate(-0.234 -487.79)" fill="#84cce7"/>
                <path id="Trazado_41705" data-name="Trazado 41705" d="M41.438,31.277q-.005,2.319-.01,4.638a24.045,24.045,0,0,1-2.806,1.277,60.4,60.4,0,0,1-5.788,2.019.471.471,0,0,0-.425.144l-.149.02c-.038-.05-.065-.041-.084.015l-.138.041a.637.637,0,0,0-.523.127l-.138.033c-.408.093-.821.169-1.222.284a2.915,2.915,0,0,0-.968.294l-.158.029c-.385,0-.769.012-1.154.012q-9.256,0-18.512,0a3.374,3.374,0,0,1-1.451-.182l0,0c-.046-.162-.183-.161-.312-.173l-.01-.007a.24.24,0,0,0-.228-.161l-.019-.02-.059-.058-.026-.021-.075-.058-.01-.007a.236.236,0,0,0-.223-.167l-.02-.02-.057-.057-.02-.021c-.018-.114-.063-.2-.2-.2l0,0-.077-.08,0,0a.157.157,0,0,0-.134-.186l0-.007a.236.236,0,0,0-.158-.244l-.037-.054-.343-1.176.014-.487a6.147,6.147,0,0,1,.477-1.429.112.112,0,0,0-.036-.175.135.135,0,0,0-.169.083c-.156.318-.465.547-.532.916l-.008.013a.566.566,0,0,0-.222.507.619.619,0,0,1-.032.06.169.169,0,0,0-.106.2,3.565,3.565,0,0,0,.2,2.962.631.631,0,0,1-.446.17c-.826-.01-1.652-.018-2.477,0-.305.006-.379-.117-.36-.39s0-.523,0-.785q0-18.53,0-37.06c0-.83.021-.853.852-.853H40.5c.055,0,.11,0,.165,0,.671.029.678.037.678.709q0,13.386,0,26.772c0,.245-.028.489-.042.734h0c-.141-.058-.19.005-.184.14l0,0c-.264.042-.544.062-.592.414a28.626,28.626,0,0,1-4.533,2.33,46.438,46.438,0,0,1-6.313,2.13,54.726,54.726,0,0,1-5.644,1.155,38.939,38.939,0,0,1-7.515.391,15.333,15.333,0,0,1-4.077-.73,5.615,5.615,0,0,0-.907-.409l0,0a.256.256,0,0,0-.242-.161.052.052,0,0,0-.055-.022l-.109-.063a.041.041,0,0,0-.048-.021l-.108-.082.005,0-.09-.084,0,0-.089-.084,0,0-.088-.083,0,0a.275.275,0,0,0-.184-.2.062.062,0,0,0-.04-.054s0-.026,0-.026l-.027,0a.038.038,0,0,0-.036-.032l-.129-.18h0l-.073-.111-.089-.211a3.307,3.307,0,0,1,.071-1.74.052.052,0,0,0,.016-.057.2.2,0,0,0,.085-.182l0,0a1.541,1.541,0,0,0,.11-.114c.084-.107.2-.265.086-.351-.135-.1-.213.092-.293.185a2.4,2.4,0,0,0-.175.263l0,0-.08.09A3.357,3.357,0,0,0,9.033,34a2.948,2.948,0,0,0,1.8,2.209,13.786,13.786,0,0,0,5.495,1.273,37.075,37.075,0,0,0,8.421-.5,51.724,51.724,0,0,0,7.967-1.89c1.412-.454,2.805-.957,4.169-1.54a31.9,31.9,0,0,0,4.255-2.17c.094-.058.177-.134.3-.1m-2.5-8.584c0-.045-.023-.071-.073-.06A.082.082,0,0,0,38.8,22.6a.415.415,0,0,0-.341-.166L38.3,22.35a.416.416,0,0,0-.341-.164h0a2.729,2.729,0,0,0-1.562-.305,3.078,3.078,0,0,0,.868.331h.009l.1.056.148.1.1.073.155.09.093.075.081.085.078.091,0,0,.084.089,0,0,.083.091-.007-.006.1.161a2.007,2.007,0,0,1-.62,2.058,10.809,10.809,0,0,1-3.277,2.313,32.057,32.057,0,0,1-6.85,2.435,29.061,29.061,0,0,1-8.823.856,6.246,6.246,0,0,1-3.17-.905,1.35,1.35,0,0,1-.492-1.858,3.2,3.2,0,0,1,.441-.693,1.868,1.868,0,0,0,.464-.439c.038-.062.128-.135.06-.207-.053-.056-.142-.045-.216.021a3.118,3.118,0,0,0-.544.469h0a.13.13,0,0,0-.11.133l-.005.006a.2.2,0,0,0-.159.159l-.008.007-.075.06-.024.019-.061.056-.028.028-.056.057-.021.028-.056.076-.006.006a.123.123,0,0,0-.119.121c-.134.19-.271.378-.4.569a1.82,1.82,0,0,0,.562,2.707A8.207,8.207,0,0,0,18.7,32.247a28.969,28.969,0,0,0,7.491-.6,38.426,38.426,0,0,0,6.053-1.709,23.651,23.651,0,0,0,4.86-2.394A6.466,6.466,0,0,0,39.6,24.986a1.494,1.494,0,0,0,0-1.547l0,0a.264.264,0,0,0-.162-.245l0,0-.074-.089,0,0-.078-.093,0,0a.2.2,0,0,0-.176-.162l0,0-.09-.073,0,0-.079-.076Zm-18.313,1.9-.011.011-.078.073,0,0a.3.3,0,0,0-.245.164h0a1.041,1.041,0,0,0-.493.412l0,0a1.013,1.013,0,0,0-.415.491h0l-.059.083-.027.078a.9.9,0,0,0,.167,1.246h0a.638.638,0,0,0,.336.238l.006,0c.086.126.233.133.357.179a7.8,7.8,0,0,0,3.242.338,15.33,15.33,0,0,0,3.584-.59h.039l.036-.015a1.071,1.071,0,0,0,.579-.155,14.794,14.794,0,0,0,4.021-1.6A4.391,4.391,0,0,0,33,24.509c.7-.577.833-1.362.257-1.828a2.417,2.417,0,0,0-1.584-.6l-.164-.035a11.546,11.546,0,0,0-2.7-.061,28.768,28.768,0,0,0-3.714.63c-.586-.048-1.068.341-1.632.391-.086.008-.118.1-.131.188l-.594.306a.068.068,0,0,0-.063.015.2.2,0,0,0-.225.087l-.019.013a1.539,1.539,0,0,0-.6.3.069.069,0,0,0-.063.022l-.115.057a.04.04,0,0,0-.049.019l-.115.065a.044.044,0,0,0-.048.027,3.077,3.077,0,0,0-.725.411l-.017.01c-.045,0-.073.014-.076.063M10.582,19.636c.148-.116.2-.161.25-.195a23.407,23.407,0,0,0,2.227-1.405,3.233,3.233,0,0,0,1.358-3.01,2.549,2.549,0,0,0-1.444-2.2,4.923,4.923,0,0,0-2.487-.435A3.465,3.465,0,0,0,6.97,16.147c0,.267.084.364.356.357.591-.016,1.184-.012,1.775,0,.225,0,.328-.072.331-.3a3.277,3.277,0,0,1,.208-1c.2-.583.98-.709,1.474-.6a1.011,1.011,0,0,1,.724,1.144,1.26,1.26,0,0,1-.6.895c-.882.632-1.849,1.138-2.694,1.826a4.1,4.1,0,0,0-1.733,3.092c-.011.3.053.447.4.446q3.509-.017,7.019,0c.277,0,.363-.109.355-.368-.012-.4.009-.8-.007-1.2-.01-.256.093-.333.338-.331,1.032.009,2.064.012,3.1,0,.262,0,.376.069.361.349-.02.371.012.744-.009,1.115-.018.318.084.452.419.434.439-.023.881-.007,1.321-.007.951,0,.951,0,.951-.948,0-.9,0-.909.88-.933.246-.007.346-.077.337-.332-.015-.413,0-.826,0-1.239,0-.788,0-.8-.774-.786-.338.008-.452-.087-.448-.436.017-1.473,0-2.947.014-4.42,0-.306-.061-.448-.406-.434-.632.026-1.266.014-1.9,0a.513.513,0,0,0-.45.223c-1.135,1.412-2.264,2.83-3.426,4.22a1.749,1.749,0,0,0-.517,1.406c.042.339,0,.688.008,1.032.007.207-.055.3-.278.294-1.128-.008-2.256,0-3.51,0M24.829,8.4a4.531,4.531,0,0,1-.908-1.553,1.371,1.371,0,0,0-1.7-1.024c-.3.043-.394.108-.391.409.013,1.308,0,2.616.005,3.924,0,.951,0,.929.955.956.424.012.544-.117.522-.535-.036-.676-.01-1.355-.01-2.033a5.861,5.861,0,0,1,.938,1.52c.532,1.065.512,1.066,1.717,1.044.28-.005.345-.1.343-.362-.012-1.28-.005-2.561-.006-3.841,0-1.082,0-1.07-1.073-1.073-.309,0-.4.088-.4.4.021.724.007,1.448.007,2.172m-13.354.03h0q0,.763,0,1.526c0,1.2,0,1.194,1.21,1.15.233-.008.315-.077.308-.309-.012-.4.011-.8,0-1.2-.011-.331.209-.331.408-.275.258.072.28.353.37.557.544,1.245.54,1.247,1.862,1.217a.342.342,0,0,1,.041,0c.313.029.3-.1.182-.329-.245-.46-.451-.943-.712-1.393-.153-.265-.1-.375.136-.554a1.536,1.536,0,0,0,.534-1.663,1.408,1.408,0,0,0-1.053-1.19,14.859,14.859,0,0,0-3.075-.131c-.232-.011-.207.172-.208.321,0,.756,0,1.512,0,2.268m20.987-.011c0,.771.008,1.541,0,2.312,0,.286.1.38.385.375.949-.015,1.9,0,2.847-.007,1.013-.013.838.178.873-.867.01-.292-.093-.387-.377-.38-.591.015-1.183,0-1.774.009-.222,0-.308-.066-.328-.3-.034-.386.107-.528.486-.484a4.372,4.372,0,0,0,.7.02c1.043-.048.833.146.867-.928.007-.219-.081-.289-.29-.286-.467.008-.936-.016-1.4.007-.314.015-.365-.129-.36-.4s.026-.452.374-.43c.411.026.825.006,1.237.006.9,0,.89,0,.868-.908-.006-.251-.086-.335-.335-.332-1.141.01-2.283.014-3.424,0-.284,0-.351.105-.347.362.011.743,0,1.486,0,2.229M18.825,5.842c-.179,0-.359.01-.537,0a.339.339,0,0,0-.39.274q-.787,2.346-1.59,4.687c-.072.21-.048.312.2.306.358-.008.716-.006,1.073,0,.149,0,.3-.022.3-.2,0-.537.335-.566.74-.525a2.31,2.31,0,0,0,.536,0c.331-.045.53.06.557.413.02.261.171.334.418.321.343-.018.688-.011,1.032,0,.218,0,.256-.078.187-.274C20.856,9.417,20.376,8,19.877,6.587c-.265-.75-.279-.745-1.051-.744M31,7.821a2.592,2.592,0,0,1,.33,0c.324.042.434-.053.368-.406A1.986,1.986,0,0,0,30,5.755a2.462,2.462,0,0,0-2.982,2.314c-.2,1.757.814,3.3,2.756,3.139a2.156,2.156,0,0,0,1.974-1.8c.041-.255,0-.4-.3-.376a7.165,7.165,0,0,1-.866,0,.33.33,0,0,0-.4.3.626.626,0,0,1-.636.54.763.763,0,0,1-.8-.459,2.226,2.226,0,0,1,0-1.878.757.757,0,0,1,.784-.489.663.663,0,0,1,.665.514c.063.223.2.268.4.254.137-.01.275,0,.412,0m-24.022.65h0q0,.949,0,1.9c0,.731,0,.731.748.736.915.006.915.006.912-.9s0-.892.907-.893c.928,0,.921,0,.857-.956-.014-.213-.09-.291-.3-.286-.4.008-.8,0-1.2,0-.1,0-.212.025-.266-.125-.19-.536.035-.877.593-.877.247,0,.495.006.742,0,1.052-.028.861.219.893-.922.008-.268-.114-.318-.348-.317q-1.607.011-3.215,0c-.249,0-.337.08-.333.332.012.77,0,1.54,0,2.31" transform="translate(-2.012 -0.956)" fill="#04a6e1"/>
                <path id="Trazado_41706" data-name="Trazado 41706" d="M123.339,514.6a.048.048,0,0,0-.05.025,1.76,1.76,0,0,1-1.649-.013.607.607,0,0,0-.406-.252c0,.483-.006.936,0,1.389,0,.21-.069.3-.286.289-.315-.013-.632-.015-.947,0-.245.012-.3-.1-.3-.32q.014-2.575.018-5.151l.017-.008c.329,0,.659.028.985,0,.3-.025.494.04.482.436a1.647,1.647,0,0,1,2.153-.248,2.661,2.661,0,0,1-.018,3.855m-.754-1.935a5.122,5.122,0,0,0-.071-.569.555.555,0,0,0-.477-.451c-.446-.076-.75.184-.817.7-.1.773.125,1.253.6,1.285.541.037.751-.234.764-.967" transform="translate(-109.806 -468.257)" fill="#0ea6de"/>
                <path id="Trazado_41707" data-name="Trazado 41707" d="M183.516,511.266l.016.237a19.724,19.724,0,0,0,.084,3.06h-1.3c-.1,0-.189-.014-.217-.138-.052-.235-.188-.147-.3-.061a1.865,1.865,0,0,1-.959.328,1.4,1.4,0,0,1-1.593-1.133c-.036-.228.081-.431.063-.651h0l.331-.414h0a3.931,3.931,0,0,1,1.4-.414,5.971,5.971,0,0,0,.648-.087c.186-.036.338-.127.332-.351a.389.389,0,0,0-.367-.378c-.35-.064-.657,0-.785.394l0,0c-.384,0-.769-.007-1.152.007-.236.008-.289-.1-.24-.3.022-.093.046-.186.069-.278l0-.007.1-.149-.006.005.082-.09v0a3.257,3.257,0,0,1,.382-.235,3.722,3.722,0,0,1,2.915-.015h0a.349.349,0,0,0,.241.176l0-.006.086.089-.005,0,.174.413m-2.22,2.506a.776.776,0,0,0,.576-.26.6.6,0,0,0,.13-.648c-.1-.209-.3.01-.463.025a2.017,2.017,0,0,0-.356.083c-.217.062-.386.184-.332.433a.488.488,0,0,0,.445.367" transform="translate(-164.423 -468.121)" fill="#0da5dc"/>
                <path id="Trazado_41708" data-name="Trazado 41708" d="M301.968,512.46a2.1,2.1,0,0,1,2.255-2.189,2.2,2.2,0,1,1-.02,4.406,2.116,2.116,0,0,1-2.235-2.216m2.911-.017c-.005-.094,0-.2-.019-.312-.042-.329-.125-.624-.536-.66a.6.6,0,0,0-.736.541,1.613,1.613,0,0,0,.1,1.157.562.562,0,0,0,.618.29.5.5,0,0,0,.507-.391,2.474,2.474,0,0,0,.07-.625" transform="translate(-277.004 -468.087)" fill="#0da5dc"/>
                <path id="Trazado_41709" data-name="Trazado 41709" d="M243.954,510.663a.052.052,0,0,0,.05-.018,2.427,2.427,0,0,1,1.314.173l0,0a.543.543,0,0,0,.336.242h0l.075.1a.1.1,0,0,0,.03.068l.055.091,0,0a4.658,4.658,0,0,1,.105.682c.01.955,0,1.91,0,2.865l-.014.008h-1.482l-.012-.007c0-.781,0-1.562-.015-2.343,0-.233-.03-.5-.292-.585-.224-.075-.484-.139-.66.126l0,.006a.967.967,0,0,0-.249.749c0,.68,0,1.361-.006,2.041l-.008.006c-.4,0-.8-.011-1.194,0-.23.008-.316-.071-.314-.3.011-1.277.012-2.554.017-3.831l.013-.005,1.4,0,.012.006c.042.145-.035.314.084.451a.672.672,0,0,0,.32-.29h0a1.019,1.019,0,0,0,.447-.227" transform="translate(-221.685 -468.418)" fill="#0da5dc"/>
                <path id="Trazado_41710" data-name="Trazado 41710" d="M1.25,513.108q0-.454,0-.908l.167-.575h0l.41-.581h0l.086-.079h0a2.675,2.675,0,0,1,1.929-.505,6.384,6.384,0,0,1,1.042.341.024.024,0,0,0,.039.014l.12.079-.006-.005.092.081,0,0a3.647,3.647,0,0,1,.587,1.231v0q-.007.407-.013.815v0c-.917-.059-1.834-.035-2.752-.033-.218,0-.211.106-.17.263a.761.761,0,0,0,1.092.464,1.844,1.844,0,0,1,1.028-.194c.228.009.57-.106.659.061.125.232-.2.4-.329.607a.357.357,0,0,0-.026.077l0,0a.278.278,0,0,0-.2.16l-.025,0-.017.018a2.87,2.87,0,0,0-.745.326l-.161.024a3.358,3.358,0,0,1-1.573-.169.075.075,0,0,0-.068-.02l-.093-.049L2.2,514.5l-.126-.062-.016-.019H2.032a.17.17,0,0,0-.134-.128l-.015-.011L1.5,513.85h0l-.249-.742m2.225-.925c.137,0,.274,0,.411,0,.117-.005.276.047.327-.1a.377.377,0,0,0-.142-.4.848.848,0,0,0-1.154.006.421.421,0,0,0-.14.408c.049.147.214.077.329.086s.246,0,.37,0" transform="translate(-1.142 -468.241)" fill="#0da5dc"/>
                <path id="Trazado_41711" data-name="Trazado 41711" d="M65.172,512.744a.06.06,0,0,0,.023.057,2.053,2.053,0,0,1-.023,1.232h.006l-.066.092-.1.15-.743.423,0,0a4.744,4.744,0,0,1-1.62.094,1.588,1.588,0,0,1-1.517-1.408l0,0c.343,0,.687.007,1.03-.008a.564.564,0,0,1,.618.282.464.464,0,0,0,.464.214c.239-.017.493-.049.521-.352.026-.286-.227-.316-.421-.356-.375-.078-.756-.131-1.135-.194h0a.161.161,0,0,0-.172-.069l-.16-.094a.525.525,0,0,0-.325-.174l0,0-.089-.082,0,0-.077-.105a.057.057,0,0,0-.027-.054l-.061-.1a.082.082,0,0,0-.021-.066,2.113,2.113,0,0,1,.006-.909.051.051,0,0,0,.023-.052,1.713,1.713,0,0,1,1.069-.694,3.313,3.313,0,0,1,2.3.244l0,0a.154.154,0,0,0,.142.109l0-.005.089.081h0a2.322,2.322,0,0,1,.275.645l-.018.081c-.568-.035-1.187.265-1.674-.311-.142-.168-.41-.12-.62-.014a.235.235,0,0,0-.13.276c.062.217.266.246.452.3a4.405,4.405,0,0,1,1.807.591l.081.075.079.1" transform="translate(-56.079 -468.263)" fill="#0da5dc"/>
                <path id="Trazado_41712" data-name="Trazado 41712" d="M365.256,495.584c0-.826.009-1.652-.005-2.477,0-.284.083-.4.375-.376.329.022.66.011.99,0,.176,0,.243.068.243.244q0,2.6,0,5.2c0,.2-.078.252-.268.267-1.342.1-1.341.108-1.34-1.213q0-.826,0-1.651Z" transform="translate(-335.056 -451.995)" fill="#0ea6de"/>
                <path id="Trazado_41713" data-name="Trazado 41713" d="M419.771,453.782c.19,0,.257.085.251.276-.017.5-.017,1.007-.023,1.51l-.549.02a2.508,2.508,0,0,0-1.252,0h-.234a.1.1,0,0,0-.18,0l-.729,0a1.918,1.918,0,0,0-1.087,0h-.233a.1.1,0,0,0-.18,0l-.634-.012-.012-.13,4.862-1.664" transform="translate(-380.609 -416.268)" fill="#0da5dc"/>
                <path id="Trazado_41714" data-name="Trazado 41714" d="M71.356,472.646a3.373,3.373,0,0,0,1.451.182q9.256,0,18.512,0c.385,0,.769-.008,1.154-.012a.727.727,0,0,1-.576.154q-9.939,0-19.878,0a.745.745,0,0,1-.663-.325" transform="translate(-65.457 -433.573)" fill="#84cce7"/>
                <path id="Trazado_41715" data-name="Trazado 41715" d="M249.442,493.733l-.081.09c-.671-.011-.671-.011-.5-.671v0a.326.326,0,0,0,.178-.236l0,0,.085-.087,0,0,.1-.081a.1.1,0,0,0,.066-.026,2.337,2.337,0,0,1,1.356.245.331.331,0,0,0,.538-.226l.006-.012.078-.071.086-.014.327,0,.148.019.016.4a.052.052,0,0,0-.013.055l-.209.364a.056.056,0,0,0-.035.046l-.155.112h0l-.116.066a.044.044,0,0,0-.046.025,3.819,3.819,0,0,1-1.072-.095l0,0c-.227-.086-.451-.3-.686-.014h0l-.068.1" transform="translate(-228.201 -451.92)" fill="#18a5d9"/>
                <path id="Trazado_41716" data-name="Trazado 41716" d="M177.4,526.164c.017.22-.1.423-.063.651a1.4,1.4,0,0,0,1.593,1.133,1.864,1.864,0,0,0,.959-.328c.11-.086.246-.174.3.061.027.124.115.138.217.138h1.3a19.717,19.717,0,0,1-.084-3.06c.223.054.148.237.149.373.007.619,0,1.239,0,1.859a1.109,1.109,0,0,0,.106.6c.117.2.01.375-.242.393a9.018,9.018,0,0,0-1.4.054c-.1.023-.15-.05-.2-.119s-.136-.123-.166-.076c-.231.354-.694.028-.937.331a.168.168,0,0,1-.11.046,2.227,2.227,0,0,1-1.5-.91.875.875,0,0,1,.063-1.139" transform="translate(-162.511 -481.376)" fill="#def8fb"/>
                <path id="Trazado_41717" data-name="Trazado 41717" d="M118.341,511.785q-.008,2.575-.018,5.151c0,.217.056.333.3.32.315-.016.632-.014.947,0,.217.009.29-.079.286-.289-.009-.453,0-.906,0-1.389a.607.607,0,0,1,.406.252l-.02.021c-.4,0-.162.315-.231.478,0,.248,0,.5,0,.743a.356.356,0,0,1-.455.392,4.139,4.139,0,0,0-.983-.054c-.24.008-.36-.126-.347-.307.027-.37-.055-.732-.016-1.108a6.437,6.437,0,0,0,.028-1.3c-.06-.578.063-1.145,0-1.709a3.308,3.308,0,0,1,.108-1.2" transform="translate(-108.427 -469.476)" fill="#def8fb"/>
                <path id="Trazado_41718" data-name="Trazado 41718" d="M21.9,542.4a.355.355,0,0,1,.026-.077c.124-.2.454-.375.329-.607-.09-.166-.431-.052-.659-.061a1.845,1.845,0,0,0-1.028.194.761.761,0,0,1-1.092-.464c-.041-.158-.048-.263.17-.263.917,0,1.835-.025,2.752.033-.092.153-.245.093-.372.095-.6.006-1.2,0-1.806,0a.629.629,0,0,0-.49.15c-.066.072.021.2.1.239.187.1.391.272.6.122.556-.392,1.181-.224,1.781-.258.168-.01.207.112.193.248-.033.319-.148.58-.507.646" transform="translate(-17.85 -496.384)" fill="#def8fb"/>
                <path id="Trazado_41719" data-name="Trazado 41719" d="M62.262,540.7c.378.063.759.116,1.135.194.194.04.447.07.421.356-.028.3-.282.335-.521.352a.464.464,0,0,1-.464-.214.564.564,0,0,0-.618-.282c-.343.016-.687.007-1.03.008.179-.334.484-.1.726-.152.175-.035.369.011.352-.262" transform="translate(-56.126 -495.999)" fill="#def8fb"/>
                <path id="Trazado_41720" data-name="Trazado 41720" d="M82.906,521.9a4.408,4.408,0,0,0-1.807-.591c-.186-.052-.39-.081-.452-.3a.235.235,0,0,1,.13-.276c.209-.106.478-.153.62.014.487.576,1.106.276,1.674.311-.017.216-.185.163-.31.165-.3.006-.6,0-1.01,0,.318.254.679.1.906.331.1.107.25.164.248.342" transform="translate(-73.972 -477.6)" fill="#cff7fc"/>
                <path id="Trazado_41721" data-name="Trazado 41721" d="M240.172,511.772c0,1.277-.006,2.554-.017,3.831,0,.233.084.312.314.3.4-.014.8,0,1.194,0-.024.212-.189.16-.315.161-.352,0-.7,0-1.055-.005-.225,0-.267-.176-.268-.343-.006-1.248,0-2.5,0-3.744,0-.107.03-.189.153-.2" transform="translate(-220.176 -469.464)" fill="#cff7fc"/>
                <path id="Trazado_41722" data-name="Trazado 41722" d="M163.7,517.5a2.661,2.661,0,0,0,.018-3.855l.027-.028.233.016a3.2,3.2,0,0,1,.715,1.777,2.756,2.756,0,0,1-.472,1.84.483.483,0,0,1-.522.249" transform="translate(-150.165 -471.153)" fill="#def8fb"/>
                <path id="Trazado_41723" data-name="Trazado 41723" d="M123.741,508.881a1.647,1.647,0,0,0-2.153.248c.012-.4-.181-.461-.482-.436-.326.028-.657,0-.985,0a.3.3,0,0,1,.348-.155c.424.053.874-.134,1.277.137a.173.173,0,0,0,.154-.011,1.826,1.826,0,0,1,1.853.038l.015.149Z" transform="translate(-110.19 -466.392)" fill="#def8fb"/>
                <path id="Trazado_41724" data-name="Trazado 41724" d="M185.3,522.08c.128-.4.435-.458.785-.394a.389.389,0,0,1,.367.378c.006.224-.146.315-.332.351a6.053,6.053,0,0,1-.648.087,3.929,3.929,0,0,0-1.4.414c.159-.559.685-.369,1.046-.481a3.651,3.651,0,0,0,1-.271c.054-.035.132-.081.14-.131.017-.111-.1-.1-.169-.136-.318-.169-.531.109-.791.184" transform="translate(-168.858 -478.539)" fill="#def8fb"/>
                <path id="Trazado_41725" data-name="Trazado 41725" d="M59.4,545.76a1.588,1.588,0,0,0,1.517,1.408,4.747,4.747,0,0,0,1.62-.094c-.012.039-.023.111-.035.111-.45,0-.853.326-1.337.15-.379-.138-.8-.159-1.175-.32a1.782,1.782,0,0,1-.747-1.1.149.149,0,0,1,.156-.154" transform="translate(-54.351 -500.642)" fill="#def8fb"/>
                <path id="Trazado_41726" data-name="Trazado 41726" d="M263.12,525.734c.177-.265.436-.2.66-.125.261.088.288.352.292.585.013.781.011,1.562.015,2.343-.206-.037-.149-.2-.15-.327,0-.563,0-1.126,0-1.689,0-.784-.031-.811-.814-.787" transform="translate(-241.368 -482.096)" fill="#cff7fc"/>
                <path id="Trazado_41727" data-name="Trazado 41727" d="M188.312,508.948a3.723,3.723,0,0,0-2.915.015,3.27,3.27,0,0,0-.383.235c-.039-.228.058-.349.28-.42a4.43,4.43,0,0,1,2.756-.088c.147.046.256.087.261.258" transform="translate(-169.712 -466.471)" fill="#def8fb"/>
                <path id="Trazado_41728" data-name="Trazado 41728" d="M66.534,509.058a3.313,3.313,0,0,0-2.3-.243,1.712,1.712,0,0,0-1.069.694c-.121-.492.32-.535.58-.658a2.969,2.969,0,0,1,2.686.043.19.19,0,0,1,.107.164" transform="translate(-57.92 -466.509)" fill="#cff7fc"/>
                <path id="Trazado_41729" data-name="Trazado 41729" d="M291.935,522.382c0-.955.012-1.91,0-2.865a4.644,4.644,0,0,0-.105-.682.568.568,0,0,1,.251.563c.012.9.006,1.8,0,2.7,0,.118.028.259-.153.282" transform="translate(-267.707 -475.943)" fill="#cff7fc"/>
                <path id="Trazado_41730" data-name="Trazado 41730" d="M12.195,509.109a6.39,6.39,0,0,0-1.042-.34,2.674,2.674,0,0,0-1.929.5.336.336,0,0,1,.192-.375,3.1,3.1,0,0,1,2.638-.019.236.236,0,0,1,.142.229" transform="translate(-8.458 -466.549)" fill="#def8fb"/>
                <path id="Trazado_41731" data-name="Trazado 41731" d="M259.995,530.725c0-.68.007-1.361.006-2.041a.966.966,0,0,1,.249-.749,15.827,15.827,0,0,0-.093,2.477c0,.126.048.289-.161.313" transform="translate(-238.501 -484.291)" fill="#cff7fc"/>
                <path id="Trazado_41732" data-name="Trazado 41732" d="M43.951,415.3c.066-.369.376-.6.531-.916a.135.135,0,0,1,.17-.083.112.112,0,0,1,.036.175,6.142,6.142,0,0,0-.477,1.429c-.167-.274.1-.521.059-.788-.2-.087-.185.176-.319.184" transform="translate(-40.318 -380.045)" fill="#84cce7"/>
                <path id="Trazado_41733" data-name="Trazado 41733" d="M178.977,519.729c-.023.093-.047.185-.069.278-.049.2,0,.31.24.3.384-.014.768-.006,1.152-.007,0,.119-.07.2-.177.167a2.936,2.936,0,0,0-.924.013.451.451,0,0,1-.483-.276c-.169-.342-.142-.419.259-.477" transform="translate(-163.853 -476.763)" fill="#def8fb"/>
                <path id="Trazado_41734" data-name="Trazado 41734" d="M328.7,467.92a2.917,2.917,0,0,1,.968-.294c.4-.115.814-.191,1.222-.284-.143.207-.387.2-.591.247a11.276,11.276,0,0,1-1.6.33" transform="translate(-301.527 -428.708)" fill="#84cce7"/>
                <path id="Trazado_41735" data-name="Trazado 41735" d="M142.922,560.716a1.76,1.76,0,0,0,1.649.013c.014.176-.083.209-.241.249a2.862,2.862,0,0,1-1.329-.012l-.1-.228Z" transform="translate(-131.088 -514.362)" fill="#def8fb"/>
                <path id="Trazado_41736" data-name="Trazado 41736" d="M256.9,492.479a.331.331,0,0,1-.538.226,2.336,2.336,0,0,0-1.356-.245,1.651,1.651,0,0,1,1.233.035.707.707,0,0,0,.66-.017" transform="translate(-233.924 -451.655)" fill="#cff7fc"/>
                <path id="Trazado_41737" data-name="Trazado 41737" d="M16.216,560.933a3.356,3.356,0,0,0,1.573.169c-.359.3-.767.14-1.148.09-.14-.018-.368-.038-.425-.259" transform="translate(-14.875 -514.561)" fill="#def8fb"/>
                <path id="Trazado_41738" data-name="Trazado 41738" d="M274.972,561.836h1.482a1.823,1.823,0,0,1-1.482,0" transform="translate(-252.24 -515.388)" fill="#cff7fc"/>
                <path id="Trazado_41739" data-name="Trazado 41739" d="M271.292,508.846a2.426,2.426,0,0,0-1.314-.173.944.944,0,0,1,1.314.173" transform="translate(-247.659 -466.447)" fill="#cff7fc"/>
                <path id="Trazado_41740" data-name="Trazado 41740" d="M48.7,518.081a3.647,3.647,0,0,0-.587-1.231,1.137,1.137,0,0,1,.587,1.231" transform="translate(-44.136 -474.122)" fill="#def8fb"/>
                <path id="Trazado_41741" data-name="Trazado 41741" d="M247.043,498.761c-.173.659-.173.659.5.671a.658.658,0,0,1-.679.012c-.138-.081-.056-.3-.053-.456a.224.224,0,0,1,.234-.227" transform="translate(-226.381 -457.529)" fill="#cff7fc"/>
                <path id="Trazado_41742" data-name="Trazado 41742" d="M109.991,539.976a2.053,2.053,0,0,0,.023-1.232c.276.038.24.252.232.435a4.089,4.089,0,0,1-.076.474l0,.165c-.007.111-.059.171-.176.157" transform="translate(-100.898 -494.206)" fill="#cff7fc"/>
                <path id="Trazado_41743" data-name="Trazado 41743" d="M266.007,504.7a3.819,3.819,0,0,0,1.072.095c-.267.265-.683.228-1.072-.095" transform="translate(-244.016 -462.973)" fill="#cff7fc"/>
                <path id="Trazado_41744" data-name="Trazado 41744" d="M46.832,439.7l.343,1.176a1.424,1.424,0,0,1-.343-1.176" transform="translate(-42.953 -403.355)" fill="#84cce7"/>
                <path id="Trazado_41745" data-name="Trazado 41745" d="M140.23,560.975l.1.228c.025.262-.152.257-.33.25.069-.163-.173-.477.231-.478" transform="translate(-128.416 -514.599)" fill="#f7fdfd"/>
                <path id="Trazado_41746" data-name="Trazado 41746" d="M8.161,474.777a4.4,4.4,0,0,1,1.665,0,10.02,10.02,0,0,1-1.665,0" transform="translate(-7.486 -435.455)" fill="#84cce7"/>
                <path id="Trazado_41747" data-name="Trazado 41747" d="M55.058,532.58q.007-.407.013-.815a.548.548,0,0,1-.013.815" transform="translate(-50.506 -487.804)" fill="#def8fb"/>
                <path id="Trazado_41748" data-name="Trazado 41748" d="M243.425,510.557l-1.4,0a2.4,2.4,0,0,1,1.4,0" transform="translate(-222.02 -468.252)" fill="#cff7fc"/>
                <path id="Trazado_41749" data-name="Trazado 41749" d="M37.187,559.069a2.869,2.869,0,0,1,.745-.327c-.18.265-.392.456-.745.327" transform="translate(-34.113 -512.551)" fill="#def8fb"/>
                <path id="Trazado_41750" data-name="Trazado 41750" d="M259.464,511.976a.672.672,0,0,1-.32.29c-.118-.137-.041-.306-.084-.451.156,0,.223.222.4.161" transform="translate(-237.645 -469.503)" fill="#cff7fc"/>
                <path id="Trazado_41751" data-name="Trazado 41751" d="M99.064,556.994l.743-.423c-.113.378-.416.421-.743.423" transform="translate(-90.874 -510.559)" fill="#def8fb"/>
                <path id="Trazado_41752" data-name="Trazado 41752" d="M61.215,520.765a2.114,2.114,0,0,0-.006.91.7.7,0,0,1,.006-.91" transform="translate(-55.997 -477.714)" fill="#cff7fc"/>
                <path id="Trazado_41753" data-name="Trazado 41753" d="M3.627,517.767l-.41.581c-.018-.3,0-.579.41-.581" transform="translate(-2.947 -474.963)" fill="#def8fb"/>
                <path id="Trazado_41754" data-name="Trazado 41754" d="M107.232,517.6a2.324,2.324,0,0,0-.275-.645c.37.1.4.337.275.645" transform="translate(-98.115 -474.214)" fill="#cff7fc"/>
                <path id="Trazado_41755" data-name="Trazado 41755" d="M454.694,474.751a2.509,2.509,0,0,1,1.252,0,5.3,5.3,0,0,1-1.252,0" transform="translate(-417.105 -435.431)" fill="#84cce7"/>
                <path id="Trazado_41756" data-name="Trazado 41756" d="M4.2,551.7l.385.429c-.306.017-.43-.13-.385-.429" transform="translate(-3.846 -506.093)" fill="#def8fb"/>
                <path id="Trazado_41757" data-name="Trazado 41757" d="M257.742,502.945c.235-.287.459-.072.686.014l-.686-.014" transform="translate(-236.435 -461.235)" fill="#cff7fc"/>
                <path id="Trazado_41758" data-name="Trazado 41758" d="M164.082,509.706l-.015-.149c.048-.077.079-.233.167-.2.158.063.056.238.081.363l-.233-.016" transform="translate(-150.504 -467.246)" fill="#f7fdfd"/>
                <path id="Trazado_41759" data-name="Trazado 41759" d="M427.713,474.754a1.918,1.918,0,0,1,1.087,0,4.188,4.188,0,0,1-1.087,0" transform="translate(-392.354 -435.436)" fill="#84cce7"/>
                <path id="Trazado_41760" data-name="Trazado 41760" d="M180.335,536.7l-.331.414c-.02-.242-.022-.469.331-.414" transform="translate(-165.117 -492.319)" fill="#def8fb"/>
                <path id="Trazado_41761" data-name="Trazado 41761" d="M264.407,510.826a1.019,1.019,0,0,1-.447.227c.041-.289.248-.251.447-.227" transform="translate(-242.139 -468.581)" fill="#cff7fc"/>
                <path id="Trazado_41762" data-name="Trazado 41762" d="M356.862,465.423a.637.637,0,0,1,.523-.127.556.556,0,0,1-.523.127" transform="translate(-327.36 -426.821)" fill="#84cce7"/>
                <path id="Trazado_41763" data-name="Trazado 41763" d="M41.166,427.169a.565.565,0,0,1,.222-.507.693.693,0,0,1-.222.507" transform="translate(-37.762 -391.39)" fill="#84cce7"/>
                <path id="Trazado_41764" data-name="Trazado 41764" d="M286.194,513.063a.543.543,0,0,1-.336-.242c.183-.018.324.022.336.242" transform="translate(-262.226 -470.423)" fill="#cff7fc"/>
                <path id="Trazado_41765" data-name="Trazado 41765" d="M283.22,498.811l.209-.364c.017.171.067.362-.209.364" transform="translate(-259.806 -457.241)" fill="#cff7fc"/>
                <path id="Trazado_41766" data-name="Trazado 41766" d="M229.021,517.311l-.174-.413c.291.039.147.262.174.413" transform="translate(-209.928 -474.166)" fill="#def8fb"/>
                <path id="Trazado_41767" data-name="Trazado 41767" d="M67.54,470.516c.129.012.266.011.312.173-.131-.009-.255-.031-.312-.173" transform="translate(-61.957 -431.619)" fill="#84cce7"/>
                <path id="Trazado_41768" data-name="Trazado 41768" d="M66.308,536.611a.526.526,0,0,1,.325.174c-.135-.008-.315.067-.325-.174" transform="translate(-60.826 -492.25)" fill="#cff7fc"/>
                <path id="Trazado_41769" data-name="Trazado 41769" d="M31.142,474.846a.458.458,0,0,1,.507,0,1.117,1.117,0,0,1-.507,0" transform="translate(-28.568 -435.522)" fill="#84cce7"/>
                <path id="Trazado_41770" data-name="Trazado 41770" d="M367.679,462.844a.471.471,0,0,1,.425-.144.6.6,0,0,1-.425.144" transform="translate(-337.283 -424.445)" fill="#84cce7"/>
                <path id="Trazado_41771" data-name="Trazado 41771" d="M225.224,513.965a.349.349,0,0,1-.241-.176c.127-.005.25-.006.241.176" transform="translate(-206.384 -471.313)" fill="#def8fb"/>
                <path id="Trazado_41772" data-name="Trazado 41772" d="M56.121,460.917c.135,0,.179.085.2.2-.129,0-.175-.088-.2-.2" transform="translate(-51.481 -422.814)" fill="#84cce7"/>
                <path id="Trazado_41773" data-name="Trazado 41773" d="M51.479,454.579a.236.236,0,0,1,.158.244.2.2,0,0,1-.158-.244" transform="translate(-47.22 -416.999)" fill="#84cce7"/>
                <path id="Trazado_41774" data-name="Trazado 41774" d="M285.738,493.3l-.016-.4c.166.128.137.264.016.4" transform="translate(-262.102 -452.153)" fill="#cff7fc"/>
                <path id="Trazado_41775" data-name="Trazado 41775" d="M250.134,495.878a.326.326,0,0,1-.178.236c0-.124,0-.244.178-.236" transform="translate(-229.293 -454.884)" fill="#cff7fc"/>
                <path id="Trazado_41776" data-name="Trazado 41776" d="M59.678,464.492a.235.235,0,0,1,.223.167c-.129.018-.211-.028-.223-.167" transform="translate(-54.744 -426.093)" fill="#84cce7"/>
                <path id="Trazado_41777" data-name="Trazado 41777" d="M412.734,473.9l.012.13c-.073.038-.194.063-.206,0-.019-.109.095-.133.194-.126" transform="translate(-378.434 -434.725)" fill="#84cce7"/>
                <path id="Trazado_41778" data-name="Trazado 41778" d="M53.437,457.613a.157.157,0,0,1,.134.186.143.143,0,0,1-.134-.186" transform="translate(-49.016 -419.782)" fill="#84cce7"/>
                <path id="Trazado_41779" data-name="Trazado 41779" d="M280.3,491.833l-.327,0a.216.216,0,0,1,.327,0" transform="translate(-256.831 -451.104)" fill="#cff7fc"/>
                <path id="Trazado_41780" data-name="Trazado 41780" d="M46.708,556.768a.278.278,0,0,1,.2-.16c0,.14-.071.181-.2.16" transform="translate(-42.847 -510.593)" fill="#def8fb"/>
                <path id="Trazado_41781" data-name="Trazado 41781" d="M112.122,549.905q0-.083,0-.165c.059.014.141.015.12.1-.007.029-.08.042-.123.062" transform="translate(-102.853 -504.293)" fill="#def8fb"/>
                <path id="Trazado_41782" data-name="Trazado 41782" d="M64.661,468.491a.24.24,0,0,1,.228.161c-.109-.007-.2-.032-.228-.161" transform="translate(-59.316 -429.761)" fill="#84cce7"/>
                <path id="Trazado_41783" data-name="Trazado 41783" d="M39.456,433.731a.169.169,0,0,1,.106-.2.191.191,0,0,1-.106.2" transform="translate(-36.191 -397.688)" fill="#84cce7"/>
                <path id="Trazado_41784" data-name="Trazado 41784" d="M364.86,464.387c.019-.056.046-.065.084-.015-.021.042-.047.059-.084.015" transform="translate(-334.697 -425.953)" fill="#84cce7"/>
                <path id="Trazado_41785" data-name="Trazado 41785" d="M280.918,503.515l.155-.112c-.011.094-.074.115-.155.112" transform="translate(-257.695 -461.787)" fill="#cff7fc"/>
                <path id="Trazado_41786" data-name="Trazado 41786" d="M9.142,557.024a.171.171,0,0,1,.134.128c-.088,0-.121-.052-.134-.128" transform="translate(-8.386 -510.975)" fill="#def8fb"/>
                <path id="Trazado_41787" data-name="Trazado 41787" d="M72.178,539.822a.16.16,0,0,1,.172.069.148.148,0,0,1-.172-.069" transform="translate(-66.211 -495.193)" fill="#cff7fc"/>
                <path id="Trazado_41788" data-name="Trazado 41788" d="M449.685,475.027a.1.1,0,0,1,.18,0h-.18" transform="translate(-412.51 -435.708)" fill="#84cce7"/>
                <path id="Trazado_41789" data-name="Trazado 41789" d="M422.716,475.027a.1.1,0,0,1,.18,0h-.18" transform="translate(-387.77 -435.708)" fill="#84cce7"/>
                <path id="Trazado_41790" data-name="Trazado 41790" d="M183.089,517.845l-.1.149c0-.07.024-.128.1-.149" transform="translate(-167.861 -475.035)" fill="#def8fb"/>
                <path id="Trazado_41791" data-name="Trazado 41791" d="M104.385,514.831a.154.154,0,0,1-.142-.109c.074,0,.132.025.142.109" transform="translate(-95.625 -472.17)" fill="#cff7fc"/>
                <path id="Trazado_41792" data-name="Trazado 41792" d="M45.79,515.068l-.12-.079a.109.109,0,0,1,.12.079" transform="translate(-41.894 -472.415)" fill="#def8fb"/>
                <path id="Trazado_41793" data-name="Trazado 41793" d="M47.133,515.967l-.092-.081.092.081" transform="translate(-43.152 -473.238)" fill="#def8fb"/>
                <path id="Trazado_41794" data-name="Trazado 41794" d="M106,516.063l-.09-.081a.083.083,0,0,1,.09.081" transform="translate(-97.154 -473.326)" fill="#cff7fc"/>
                <path id="Trazado_41795" data-name="Trazado 41795" d="M227.949,515.955l-.086-.089.086.089" transform="translate(-209.026 -473.22)" fill="#def8fb"/>
                <path id="Trazado_41796" data-name="Trazado 41796" d="M290,515.9l-.075-.1.075.1" transform="translate(-265.96 -473.165)" fill="#cff7fc"/>
                <path id="Trazado_41797" data-name="Trazado 41797" d="M8.325,516.795l-.086.079.086-.079" transform="translate(-7.558 -474.072)" fill="#def8fb"/>
                <path id="Trazado_41798" data-name="Trazado 41798" d="M55.137,459.911l.077.08-.077-.08" transform="translate(-50.579 -421.89)" fill="#84cce7"/>
                <path id="Trazado_41799" data-name="Trazado 41799" d="M184.214,516.815l-.082.09.082-.09" transform="translate(-168.91 -474.09)" fill="#def8fb"/>
                <path id="Trazado_41800" data-name="Trazado 41800" d="M58.7,463.563l.057.057c-.051.013-.07-.006-.057-.057" transform="translate(-53.846 -425.24)" fill="#84cce7"/>
                <path id="Trazado_41801" data-name="Trazado 41801" d="M291.247,517.873l-.056-.091.056.091" transform="translate(-267.119 -474.977)" fill="#cff7fc"/>
                <path id="Trazado_41802" data-name="Trazado 41802" d="M62.5,466.6l.075.058c-.052.016-.075-.006-.075-.058" transform="translate(-57.33 -428.023)" fill="#84cce7"/>
                <path id="Trazado_41803" data-name="Trazado 41803" d="M63.683,467.551l.059.058c-.05.012-.071-.007-.059-.058" transform="translate(-58.415 -428.899)" fill="#84cce7"/>
                <path id="Trazado_41804" data-name="Trazado 41804" d="M63.293,532.564l.061.1-.061-.1" transform="translate(-58.061 -488.537)" fill="#cff7fc"/>
                <path id="Trazado_41805" data-name="Trazado 41805" d="M64.355,534.427l.077.105a.1.1,0,0,1-.077-.105" transform="translate(-59.035 -490.246)" fill="#cff7fc"/>
                <path id="Trazado_41806" data-name="Trazado 41806" d="M65.26,535.668l.089.082-.089-.082" transform="translate(-59.865 -491.385)" fill="#cff7fc"/>
                <path id="Trazado_41807" data-name="Trazado 41807" d="M109.122,536.915l-.079-.1.079.1" transform="translate(-100.028 -492.434)" fill="#cff7fc"/>
                <path id="Trazado_41808" data-name="Trazado 41808" d="M279.527,504.81l.116-.066-.116.066" transform="translate(-256.419 -463.017)" fill="#cff7fc"/>
                <path id="Trazado_41809" data-name="Trazado 41809" d="M278.069,492.821l-.078.071.078-.071" transform="translate(-255.01 -452.08)" fill="#cff7fc"/>
                <path id="Trazado_41810" data-name="Trazado 41810" d="M253.145,493.914l-.1.081.1-.081" transform="translate(-232.13 -453.082)" fill="#cff7fc"/>
                <path id="Trazado_41811" data-name="Trazado 41811" d="M109.261,553.738l.066-.091-.066.091" transform="translate(-100.228 -507.877)" fill="#def8fb"/>
                <path id="Trazado_41812" data-name="Trazado 41812" d="M252.151,494.859l-.085.087.085-.087" transform="translate(-231.228 -453.949)" fill="#cff7fc"/>
                <path id="Trazado_41813" data-name="Trazado 41813" d="M11.249,558.795l.126.062-.126-.062" transform="translate(-10.319 -512.6)" fill="#def8fb"/>
                <path id="Trazado_41814" data-name="Trazado 41814" d="M256.947,504.66l.068-.1-.068.1" transform="translate(-235.705 -462.847)" fill="#cff7fc"/>
                <path id="Trazado_41815" data-name="Trazado 41815" d="M14.267,560.1l.093.049-.093-.049" transform="translate(-13.088 -513.8)" fill="#def8fb"/>
                <path id="Trazado_41816" data-name="Trazado 41816" d="M43.017,474.808a.066.066,0,0,1,.028-.061l.035.053-.063.009" transform="translate(-39.461 -435.5)" fill="#84cce7"/>
                <path id="Trazado_41817" data-name="Trazado 41817" d="M96.023,369.85a3.307,3.307,0,0,0-.071,1.74,1.674,1.674,0,0,1,.071-1.74" transform="translate(-87.828 -339.275)" fill="#cff7fc"/>
                <path id="Trazado_41818" data-name="Trazado 41818" d="M115.1,407.894a5.614,5.614,0,0,1,.907.409.958.958,0,0,1-.907-.409" transform="translate(-105.586 -374.174)" fill="#cff7fc"/>
                <path id="Trazado_41819" data-name="Trazado 41819" d="M97.045,361.484a2.4,2.4,0,0,1,.175-.263c.08-.093.158-.288.293-.185.114.087,0,.245-.086.351a1.541,1.541,0,0,1-.11.114c-.073-.286-.183.018-.271-.017" transform="translate(-89.022 -331.162)" fill="#cff7fc"/>
                <path id="Trazado_41820" data-name="Trazado 41820" d="M465.768,344.43c.048-.352.328-.372.592-.414a1.709,1.709,0,0,1-.592.414" transform="translate(-427.263 -315.576)" fill="#2896be"/>
                <path id="Trazado_41821" data-name="Trazado 41821" d="M112.131,405.92a.256.256,0,0,1,.242.161c-.117,0-.233,0-.242-.161" transform="translate(-102.861 -372.363)" fill="#cff7fc"/>
                <path id="Trazado_41822" data-name="Trazado 41822" d="M102.985,398.345a.275.275,0,0,1,.184.2c-.146.011-.176-.085-.184-.2" transform="translate(-94.471 -365.414)" fill="#cff7fc"/>
                <path id="Trazado_41823" data-name="Trazado 41823" d="M472.909,342.279c-.006-.135.043-.2.184-.14-.021.1-.1.129-.184.14" transform="translate(-433.813 -313.834)" fill="#2896be"/>
                <path id="Trazado_41824" data-name="Trazado 41824" d="M100.191,394.766l.129.18a.145.145,0,0,1-.129-.18" transform="translate(-91.906 -362.131)" fill="#cff7fc"/>
                <path id="Trazado_41825" data-name="Trazado 41825" d="M99.339,366.956a.2.2,0,0,1-.085.182c-.015-.081-.007-.151.085-.182" transform="translate(-91.043 -336.62)" fill="#cff7fc"/>
                <path id="Trazado_41826" data-name="Trazado 41826" d="M110.145,404.895l.109.063-.109-.063" transform="translate(-101.039 -371.423)" fill="#cff7fc"/>
                <path id="Trazado_41827" data-name="Trazado 41827" d="M108.252,403.643l.108.082a.1.1,0,0,1-.108-.082" transform="translate(-99.303 -370.274)" fill="#cff7fc"/>
                <path id="Trazado_41828" data-name="Trazado 41828" d="M107.229,402.687l.09.084-.09-.084" transform="translate(-98.364 -369.397)" fill="#cff7fc"/>
                <path id="Trazado_41829" data-name="Trazado 41829" d="M106.206,401.721l.089.084-.089-.084" transform="translate(-97.426 -368.511)" fill="#cff7fc"/>
                <path id="Trazado_41830" data-name="Trazado 41830" d="M105.185,400.759l.088.083-.088-.083" transform="translate(-96.489 -367.628)" fill="#cff7fc"/>
                <path id="Trazado_41831" data-name="Trazado 41831" d="M102.211,397.33l.027,0s0,.026,0,.026a.027.027,0,0,1-.024-.03" transform="translate(-93.761 -364.483)" fill="#cff7fc"/>
                <path id="Trazado_41832" data-name="Trazado 41832" d="M99.339,393.44l.073.111-.073-.111" transform="translate(-91.127 -360.915)" fill="#cff7fc"/>
                <path id="Trazado_41833" data-name="Trazado 41833" d="M96.113,366.832l.08-.09-.08.09" transform="translate(-88.167 -336.424)" fill="#cff7fc"/>
                <path id="Trazado_41834" data-name="Trazado 41834" d="M470.845,594.251l-.04.008-.04-.008q.04-.058.081,0" transform="translate(-431.846 -545.098)" fill="#4baacd"/>
                <path id="Trazado_41835" data-name="Trazado 41835" d="M61.8,145.542c1.254,0,2.382,0,3.51,0,.222,0,.284-.086.278-.294-.011-.344.034-.693-.008-1.032a1.749,1.749,0,0,1,.517-1.406c1.162-1.39,2.29-2.808,3.426-4.22a.513.513,0,0,1,.45-.223c.633.011,1.267.023,1.9,0,.345-.014.409.128.406.434-.012,1.473,0,2.947-.013,4.42,0,.348.11.443.448.436.774-.018.775,0,.774.786,0,.413-.012.827,0,1.239.009.255-.091.326-.337.332-.88.024-.88.032-.88.933,0,.95,0,.949-.951.948-.44,0-.882-.017-1.321.006-.334.018-.437-.116-.419-.434.021-.371-.01-.744.009-1.115.015-.28-.1-.352-.361-.349-1.032.011-2.064.009-3.1,0-.245,0-.348.075-.338.331.016.4,0,.8.007,1.2.008.259-.078.369-.355.368q-3.509-.012-7.019,0c-.346,0-.41-.141-.4-.446a4.1,4.1,0,0,1,1.733-3.092c.845-.687,1.812-1.193,2.694-1.826a1.26,1.26,0,0,0,.6-.895,1.011,1.011,0,0,0-.724-1.144c-.494-.111-1.279.016-1.474.6a3.277,3.277,0,0,0-.208,1c0,.233-.106.308-.331.3-.592-.01-1.184-.014-1.775,0-.272.007-.354-.089-.355-.357a3.465,3.465,0,0,1,3.514-3.751,4.923,4.923,0,0,1,2.487.435,2.549,2.549,0,0,1,1.444,2.2,3.233,3.233,0,0,1-1.358,3.01,23.417,23.417,0,0,1-2.227,1.405c-.055.033-.1.078-.25.195m7.789-4.343-.112-.04-2.043,2.494h1.881c.126,0,.27,0,.272-.171.006-.761,0-1.521,0-2.282" transform="translate(-53.234 -126.862)" fill="#f7fdfd"/>
                <path id="Trazado_41836" data-name="Trazado 41836" d="M166.5,256.216l.156.082c.059.168.191.185.341.166a.082.082,0,0,1,.068.034l.073.06.006.005.079.076,0,0,.09.073,0,0a.209.209,0,0,0,.176.162l0,0,.078.093,0,0,.074.089,0,0c0,.119,0,.233.162.245l0,0a4.042,4.042,0,0,1,0,1.547,6.466,6.466,0,0,1-2.495,2.555,23.649,23.649,0,0,1-4.86,2.394,38.418,38.418,0,0,1-6.053,1.709,28.962,28.962,0,0,1-7.491.6,8.205,8.205,0,0,1-4.016-1.055,1.82,1.82,0,0,1-.562-2.707c.131-.192.268-.38.4-.57a.126.126,0,0,0,.119-.121l.006-.006c.052,0,.074-.024.056-.077l.021-.027c.051.013.07-.006.056-.057l.028-.028c.051.015.07-.005.061-.056l.024-.019c.052.014.075-.009.075-.06l.008-.007a.156.156,0,0,0,.159-.159l.005-.006c.076-.012.1-.064.11-.133h0c.122-.015.242-.025.236.155a3.2,3.2,0,0,0-.441.693,1.35,1.35,0,0,0,.492,1.858,6.246,6.246,0,0,0,3.17.905,29.062,29.062,0,0,0,8.823-.856,32.059,32.059,0,0,0,6.85-2.435,10.81,10.81,0,0,0,3.277-2.313,2.008,2.008,0,0,0,.62-2.058c.006-.077-.008-.142-.1-.161l.007.006-.083-.091,0,0-.084-.089,0,0-.078-.091-.081-.085-.093-.075-.155-.09-.1-.073-.148-.1-.1-.056h-.008c.223-.241.466.064.694-.025h0c.061.165.192.182.341.164" transform="translate(-130.213 -234.821)" fill="#f2fbfc"/>
                <path id="Trazado_41837" data-name="Trazado 41837" d="M242.683,61.188c0-.724.014-1.449-.007-2.172-.009-.31.087-.4.4-.4,1.073,0,1.073-.008,1.073,1.073,0,1.28-.006,2.561.006,3.841,0,.262-.063.357-.343.362-1.206.022-1.185.021-1.717-1.044a5.861,5.861,0,0,0-.938-1.52c0,.678-.026,1.357.01,2.033.022.418-.1.547-.522.535-.951-.027-.954,0-.955-.956,0-1.308.008-2.616-.005-3.924,0-.3.09-.366.391-.409a1.371,1.371,0,0,1,1.7,1.024,4.53,4.53,0,0,0,.908,1.553" transform="translate(-219.866 -53.74)" fill="#f2fbfc"/>
                <path id="Trazado_41838" data-name="Trazado 41838" d="M114.45,61.553c0-.756,0-1.512,0-2.268,0-.148-.024-.332.208-.321a14.859,14.859,0,0,1,3.075.131,1.407,1.407,0,0,1,1.053,1.19,1.535,1.535,0,0,1-.534,1.663c-.233.178-.29.289-.136.554.261.451.467.933.712,1.393.122.23.131.359-.182.329a.344.344,0,0,0-.041,0c-1.322.03-1.318.028-1.862-1.217-.089-.2-.112-.486-.37-.557-.2-.055-.42-.056-.409.275.013.4-.01.8,0,1.2.007.232-.074.3-.308.309-1.212.044-1.212.051-1.21-1.15q0-.763,0-1.526Zm2.111-.346c.677,0,.866-.164.769-.663-.038-.2-.132-.344-.34-.346a2.061,2.061,0,0,0-1,.064c-.016.008-.015.05-.024.076-.181.577.017.869.592.87" transform="translate(-104.986 -54.075)" fill="#effafb"/>
                <path id="Trazado_41839" data-name="Trazado 41839" d="M368.294,61.552c0-.743.007-1.486,0-2.229,0-.257.063-.365.347-.362,1.141.014,2.283.009,3.424,0,.249,0,.329.081.335.332.022.908.031.908-.868.908-.413,0-.826.02-1.237-.006-.347-.022-.369.163-.374.43s.046.411.36.4c.466-.023.935,0,1.4-.007.209,0,.3.067.29.286-.034,1.074.175.88-.867.928a4.38,4.38,0,0,1-.7-.02c-.379-.044-.519.1-.486.484.021.237.106.307.328.3.591-.01,1.183.006,1.774-.009.284-.007.387.088.377.38-.035,1.045.14.854-.873.867-.949.012-1.9-.008-2.847.007-.287,0-.39-.089-.385-.375.012-.77,0-1.541,0-2.312" transform="translate(-337.844 -54.086)" fill="#f3fcfc"/>
                <path id="Trazado_41840" data-name="Trazado 41840" d="M208.506,259.027l.027-.078.059-.082h0a.481.481,0,0,0,.415-.491l0,0a.488.488,0,0,0,.493-.412h0c.121,0,.236,0,.245-.164l0,0,.078-.073.011-.011.076-.063.017-.01c.244.052.425-.123.64-.176l.032.019-.033-.018.086-.236a.044.044,0,0,1,.048-.027l.114-.065a.04.04,0,0,1,.049-.019l.115-.057a.069.069,0,0,1,.063-.022l.4-.027-.127.292h0c-.183,0-.361.01-.417.236l-.012.006a.136.136,0,0,0-.15.091l0,0a1.534,1.534,0,0,0-1.07,1h0a.472.472,0,0,0,.081.809l0,0,.082.088v0a.315.315,0,0,0,.263.324,6.506,6.506,0,0,0,1.157.249,15.143,15.143,0,0,0,4.592-.433,18.206,18.206,0,0,0,2.493-.757,2.932,2.932,0,0,0,1.4-.756.08.08,0,0,1,.065-.032c.189.008.393.042.429-.233l.133-.1c.076,0,.109-.046.117-.116l.077-.037c.179.01.355.015.332-.247l.083-.084.081-.082h0l.077-.088h0l.077-.1.09-.146c.257-.082.268-.308.228-.5-.045-.209-.074-.488-.407-.473l0,0c-.162-.426-.512-.367-.853-.33l-.206-.032c-.073-.214-.343-.089-.486-.264.4-.146.79.043,1.143-.115l.164.035a.37.37,0,0,0,.34.186,2.118,2.118,0,0,1,.838.3c.757.411.844.942.252,1.556a.482.482,0,0,0-.1.378,4.392,4.392,0,0,1-1.347,1.043,14.8,14.8,0,0,1-4.021,1.6c-.2.013-.436-.083-.579.155l-.036.015H216.2c-1.141.078-2.251.384-3.394.454a15.512,15.512,0,0,1-2,0c-.617-.042-1.169-.358-1.786-.377l-.006,0c.014-.257-.162-.247-.336-.238h0a2.41,2.41,0,0,1-.167-1.246" transform="translate(-191.229 -234.076)" fill="#f7fdfd"/>
                <path id="Trazado_41841" data-name="Trazado 41841" d="M175.051,59.06c.773,0,.786-.005,1.051.745.5,1.412.979,2.831,1.473,4.245.068.2.031.279-.187.274-.344-.008-.689-.015-1.032,0-.247.013-.4-.06-.418-.321-.027-.353-.226-.458-.557-.413a2.31,2.31,0,0,1-.536,0c-.405-.041-.741-.013-.74.525,0,.18-.151.2-.3.2-.358,0-.716,0-1.073,0-.246.006-.27-.1-.2-.306q.8-2.341,1.59-4.687a.339.339,0,0,1,.39-.274c.178.013.358,0,.537,0m-.016,3.46c.531,0,.541-.009.393-.518-.072-.248-.156-.493-.24-.738-.029-.085-.029-.21-.149-.218s-.133.125-.158.2c-.083.259-.152.523-.218.788-.119.474-.111.481.373.483" transform="translate(-158.237 -54.173)" fill="#f2fbfc"/>
                <path id="Trazado_41842" data-name="Trazado 41842" d="M306.163,59.746c-.137,0-.275-.007-.412,0-.2.014-.336-.031-.4-.254a.663.663,0,0,0-.665-.514.757.757,0,0,0-.784.489,2.225,2.225,0,0,0,0,1.878.763.763,0,0,0,.8.459.626.626,0,0,0,.636-.54.33.33,0,0,1,.4-.3,7.144,7.144,0,0,0,.866,0c.3-.02.343.121.3.376a2.156,2.156,0,0,1-1.974,1.8c-1.942.162-2.956-1.382-2.756-3.14a2.462,2.462,0,0,1,2.982-2.314,1.986,1.986,0,0,1,1.7,1.663c.065.352-.044.448-.368.406a2.533,2.533,0,0,0-.33,0" transform="translate(-277.175 -52.88)" fill="#f2fbfc"/>
                <path id="Trazado_41843" data-name="Trazado 41843" d="M60.031,61.6c0-.77.008-1.54,0-2.31,0-.252.084-.334.333-.332q1.607.015,3.215,0c.233,0,.355.049.348.317-.032,1.14.159.893-.893.922-.247.007-.495,0-.742,0-.558,0-.783.341-.593.877.053.15.164.124.266.125.4.005.8.01,1.2,0,.208,0,.284.073.3.286.064.955.071.954-.857.956-.91,0-.91,0-.907.893s0,.9-.912.9c-.747,0-.747,0-.748-.736q0-.949,0-1.9Z" transform="translate(-55.064 -54.082)" fill="#f2fbfc"/>
                <path id="Trazado_41844" data-name="Trazado 41844" d="M259.52,253.954c-.353.159-.745-.031-1.143.115.144.175.414.05.486.264a14.2,14.2,0,0,0-2.411-.009,20.11,20.11,0,0,0-5.321,1.3l-.04-.046c-.024-.238-.224-.119-.341-.169l.594-.306a9.343,9.343,0,0,0,1.763-.578,28.774,28.774,0,0,1,3.714-.63,11.546,11.546,0,0,1,2.7.061m-4.235.332c.314-.092.654.036,1.058-.1a1.418,1.418,0,0,0-1.058.1m1.236-.175a.9.9,0,0,0,.716-.03.845.845,0,0,0-.716.03m1-.066-.031.069c.023.01.051.033.068.026s.022-.042.032-.065l-.07-.031m.567.028c-.023-.01-.052-.033-.069-.026s-.022.043-.032.066c.023.01.052.033.069.026s.022-.043.032-.066" transform="translate(-230.021 -232.859)" fill="#cff7fc"/>
                <path id="Trazado_41845" data-name="Trazado 41845" d="M215.142,319.007c.617.019,1.168.335,1.786.377a15.513,15.513,0,0,0,2,0c1.143-.07,2.253-.376,3.394-.454a15.33,15.33,0,0,1-3.584.59,7.8,7.8,0,0,1-3.242-.338c-.124-.046-.271-.054-.357-.179" transform="translate(-197.356 -292.568)" fill="#cff7fc"/>
                <path id="Trazado_41846" data-name="Trazado 41846" d="M360.146,258.01a.483.483,0,0,1,.1-.378c.592-.614.5-1.145-.252-1.556a2.116,2.116,0,0,0-.838-.3.37.37,0,0,1-.34-.186,2.418,2.418,0,0,1,1.584.6c.576.466.445,1.251-.257,1.828" transform="translate(-329.156 -234.457)" fill="#cff7fc"/>
                <path id="Trazado_41847" data-name="Trazado 41847" d="M417.529,253.186c-.228.09-.471-.216-.694.025a3.072,3.072,0,0,1-.868-.331,2.729,2.729,0,0,1,1.561.305" transform="translate(-381.58 -231.955)" fill="#cff7fc"/>
                <path id="Trazado_41848" data-name="Trazado 41848" d="M240.028,274.7l.127-.292-.4.027a1.537,1.537,0,0,1,.6-.3c0,.129,0,.247.194.176.146-.054.3-.082.453-.122l.04.046-1.018.462" transform="translate(-219.936 -251.471)" fill="#cff7fc"/>
                <path id="Trazado_41849" data-name="Trazado 41849" d="M259.7,262.005a9.341,9.341,0,0,1-1.763.578c.014-.084.045-.18.131-.187.564-.05,1.046-.438,1.632-.391" transform="translate(-236.612 -240.342)" fill="#41a2c5"/>
                <path id="Trazado_41850" data-name="Trazado 41850" d="M160.43,311.29c.006-.181-.114-.17-.236-.156a3.129,3.129,0,0,1,.544-.469c.075-.066.163-.077.216-.021.068.072-.022.144-.06.207a1.87,1.87,0,0,1-.464.439" transform="translate(-146.951 -284.93)" fill="#84cce7"/>
                <path id="Trazado_41851" data-name="Trazado 41851" d="M454.7,273.512a4.044,4.044,0,0,0,0-1.547,1.494,1.494,0,0,1,0,1.547" transform="translate(-417.108 -249.482)" fill="#cff7fc"/>
                <path id="Trazado_41852" data-name="Trazado 41852" d="M207.085,301.817a2.411,2.411,0,0,0,.167,1.246.9.9,0,0,1-.167-1.246" transform="translate(-189.808 -276.866)" fill="#cff7fc"/>
                <path id="Trazado_41853" data-name="Trazado 41853" d="M247.69,272.887c-.151.04-.307.069-.453.122-.193.071-.194-.047-.194-.176l.019-.013c.085,0,.173,0,.225-.087a.068.068,0,0,1,.063-.016c.117.05.317-.069.341.168" transform="translate(-226.619 -250.171)" fill="#f7fdfd"/>
                <path id="Trazado_41854" data-name="Trazado 41854" d="M226.909,280.261c-.215.053-.4.228-.64.176a3.076,3.076,0,0,1,.725-.411l-.086.236Z" transform="translate(-207.563 -256.876)" fill="#cff7fc"/>
                <path id="Trazado_41855" data-name="Trazado 41855" d="M215.575,288.915a.488.488,0,0,1-.493.413,1.041,1.041,0,0,1,.493-.413" transform="translate(-197.301 -265.031)" fill="#cff7fc"/>
                <path id="Trazado_41856" data-name="Trazado 41856" d="M210.45,293.932a.481.481,0,0,1-.415.491,1.013,1.013,0,0,1,.415-.491" transform="translate(-192.672 -269.633)" fill="#cff7fc"/>
                <path id="Trazado_41857" data-name="Trazado 41857" d="M302.944,316.947c.143-.238.375-.142.579-.155a1.07,1.07,0,0,1-.579.155" transform="translate(-277.9 -290.595)" fill="#cff7fc"/>
                <path id="Trazado_41858" data-name="Trazado 41858" d="M211.009,316.845c.174-.009.35-.02.336.238a.637.637,0,0,1-.336-.238" transform="translate(-193.565 -290.649)" fill="#cff7fc"/>
                <path id="Trazado_41859" data-name="Trazado 41859" d="M441.18,259.95c-.15.019-.282,0-.341-.166a.415.415,0,0,1,.341.166" transform="translate(-404.395 -238.308)" fill="#cff7fc"/>
                <path id="Trazado_41860" data-name="Trazado 41860" d="M435.177,256.974c-.148.018-.28,0-.341-.164a.417.417,0,0,1,.341.164" transform="translate(-398.888 -235.58)" fill="#cff7fc"/>
                <path id="Trazado_41861" data-name="Trazado 41861" d="M452.894,269.2c-.159-.012-.165-.126-.162-.245a.264.264,0,0,1,.162.245" transform="translate(-415.304 -246.72)" fill="#cff7fc"/>
                <path id="Trazado_41862" data-name="Trazado 41862" d="M221.3,286.915c-.009.163-.124.168-.245.164a.3.3,0,0,1,.245-.164" transform="translate(-202.783 -263.196)" fill="#cff7fc"/>
                <path id="Trazado_41863" data-name="Trazado 41863" d="M247.492,272.884c-.051.09-.139.085-.225.087a.205.205,0,0,1,.225-.087" transform="translate(-226.826 -250.321)" fill="#cff7fc"/>
                <path id="Trazado_41864" data-name="Trazado 41864" d="M448.985,264.99a.208.208,0,0,1-.176-.162.2.2,0,0,1,.176.162" transform="translate(-411.706 -242.935)" fill="#cff7fc"/>
                <path id="Trazado_41865" data-name="Trazado 41865" d="M157.031,318.656a.156.156,0,0,1-.159.159.2.2,0,0,1,.159-.159" transform="translate(-143.903 -292.313)" fill="#84cce7"/>
                <path id="Trazado_41866" data-name="Trazado 41866" d="M437.563,266.013c.09.019.1.084.1.161l-.1-.161" transform="translate(-401.39 -244.022)" fill="#cff7fc"/>
                <path id="Trazado_41867" data-name="Trazado 41867" d="M158.97,316.976c-.007.069-.034.121-.11.133a.13.13,0,0,1,.11-.133" transform="translate(-145.727 -290.772)" fill="#84cce7"/>
                <path id="Trazado_41868" data-name="Trazado 41868" d="M151.5,324.644a.126.126,0,0,1-.119.121.123.123,0,0,1,.119-.121" transform="translate(-138.869 -297.806)" fill="#84cce7"/>
                <path id="Trazado_41869" data-name="Trazado 41869" d="M426.567,257.116l.1.056-.1-.056" transform="translate(-391.303 -235.86)" fill="#cff7fc"/>
                <path id="Trazado_41870" data-name="Trazado 41870" d="M429.593,258.989l.1.073-.1-.073" transform="translate(-394.079 -237.579)" fill="#cff7fc"/>
                <path id="Trazado_41871" data-name="Trazado 41871" d="M152.953,323.648c.018.053,0,.076-.056.076l.056-.076" transform="translate(-140.257 -296.892)" fill="#84cce7"/>
                <path id="Trazado_41872" data-name="Trazado 41872" d="M153.89,322.626c.014.051,0,.07-.056.057l.056-.057" transform="translate(-141.117 -295.955)" fill="#84cce7"/>
                <path id="Trazado_41873" data-name="Trazado 41873" d="M154.911,321.616c.009.051-.01.07-.061.056l.061-.056" transform="translate(-142.049 -295.028)" fill="#84cce7"/>
                <path id="Trazado_41874" data-name="Trazado 41874" d="M155.944,320.666c0,.051-.023.073-.075.06l.075-.06" transform="translate(-142.983 -294.157)" fill="#84cce7"/>
                <path id="Trazado_41875" data-name="Trazado 41875" d="M209.38,299.877l-.059.083.059-.083" transform="translate(-192.017 -275.086)" fill="#cff7fc"/>
                <path id="Trazado_41876" data-name="Trazado 41876" d="M224.144,286l-.078.073.078-.073" transform="translate(-205.543 -262.358)" fill="#cff7fc"/>
                <path id="Trazado_41877" data-name="Trazado 41877" d="M225.22,285.112l-.076.063c0-.049.031-.066.076-.063" transform="translate(-206.531 -261.542)" fill="#cff7fc"/>
                <path id="Trazado_41878" data-name="Trazado 41878" d="M235.733,278.913l-.114.065.114-.065" transform="translate(-216.14 -255.855)" fill="#cff7fc"/>
                <path id="Trazado_41879" data-name="Trazado 41879" d="M237.712,278l-.115.057.115-.057" transform="translate(-217.955 -255.019)" fill="#cff7fc"/>
                <path id="Trazado_41880" data-name="Trazado 41880" d="M451.877,267.923l-.074-.089.074.089" transform="translate(-414.453 -245.692)" fill="#cff7fc"/>
                <path id="Trazado_41881" data-name="Trazado 41881" d="M450.954,266.826l-.078-.093.078.093" transform="translate(-413.602 -244.682)" fill="#cff7fc"/>
                <path id="Trazado_41882" data-name="Trazado 41882" d="M436.635,264.987l.083.091-.083-.091" transform="translate(-400.539 -243.081)" fill="#cff7fc"/>
                <path id="Trazado_41883" data-name="Trazado 41883" d="M447.838,264.041l-.09-.073.09.073" transform="translate(-410.733 -242.146)" fill="#cff7fc"/>
                <path id="Trazado_41884" data-name="Trazado 41884" d="M435.672,263.961l.084.089-.084-.089" transform="translate(-399.655 -242.139)" fill="#cff7fc"/>
                <path id="Trazado_41885" data-name="Trazado 41885" d="M446.813,263.078l-.079-.076.079.076" transform="translate(-409.803 -241.26)" fill="#cff7fc"/>
                <path id="Trazado_41886" data-name="Trazado 41886" d="M434.774,262.9l.078.091-.078-.091" transform="translate(-398.831 -241.166)" fill="#cff7fc"/>
                <path id="Trazado_41887" data-name="Trazado 41887" d="M445.861,262.239l-.073-.06c.05-.011.069.016.073.06" transform="translate(-408.935 -240.502)" fill="#cff7fc"/>
                <path id="Trazado_41888" data-name="Trazado 41888" d="M432.667,260.954l.093.076-.093-.076" transform="translate(-396.899 -239.381)" fill="#cff7fc"/>
                <path id="Trazado_41889" data-name="Trazado 41889" d="M139.186,525.709c-.013.734-.223,1-.764.967-.476-.033-.7-.512-.6-1.285.066-.519.371-.779.817-.7a.555.555,0,0,1,.477.451,5.125,5.125,0,0,1,.071.57" transform="translate(-126.408 -481.3)" fill="#effafb"/>
                <path id="Trazado_41890" data-name="Trazado 41890" d="M199.045,541.126a.488.488,0,0,1-.445-.367c-.054-.25.115-.372.332-.433a2.028,2.028,0,0,1,.356-.083c.159-.015.361-.234.463-.025a.6.6,0,0,1-.13.648.776.776,0,0,1-.576.26" transform="translate(-182.172 -495.476)" fill="#def8fb"/>
                <path id="Trazado_41891" data-name="Trazado 41891" d="M322.16,525.707a2.471,2.471,0,0,1-.07.625.5.5,0,0,1-.507.391.562.562,0,0,1-.618-.29,1.613,1.613,0,0,1-.1-1.157.6.6,0,0,1,.736-.541c.411.036.494.331.536.66.014.108.013.218.019.312" transform="translate(-294.286 -481.351)" fill="#effafb"/>
                <path id="Trazado_41892" data-name="Trazado 41892" d="M20.3,523.487c-.123,0-.247.008-.37,0s-.279.061-.329-.086a.421.421,0,0,1,.14-.409.848.848,0,0,1,1.154-.006.377.377,0,0,1,.142.4c-.051.145-.209.094-.327.1-.137.006-.274,0-.411,0" transform="translate(-17.97 -479.544)" fill="#cff7fc"/>
                <path id="Trazado_41893" data-name="Trazado 41893" d="M173.964,172.982c0,.761,0,1.521,0,2.282,0,.174-.146.171-.272.171h-1.881l2.043-2.494.112.04" transform="translate(-157.606 -158.645)" fill="#18a5d9"/>
                <path id="Trazado_41894" data-name="Trazado 41894" d="M132.723,74.732c-.575,0-.773-.292-.592-.87.008-.026.007-.068.024-.076a2.061,2.061,0,0,1,1-.064c.208,0,.3.151.34.346.1.5-.091.664-.769.663" transform="translate(-121.149 -67.601)" fill="#18a5d9"/>
                <path id="Trazado_41895" data-name="Trazado 41895" d="M224.1,260.889l1.018-.462a20.114,20.114,0,0,1,5.321-1.3,14.2,14.2,0,0,1,2.411.009l.206.032.853.33,0,0a.819.819,0,0,1,.18.971l-.09.146-.077.1h0l-.077.088h0l-.081.082-.083.084a.749.749,0,0,0-.332.247l-.077.037a.132.132,0,0,0-.117.116l-.133.1a.639.639,0,0,0-.429.233.08.08,0,0,0-.065.032.438.438,0,0,0-.119.023,16.934,16.934,0,0,1-6.7,1.787,5.389,5.389,0,0,1-3.09-.436v0l-.082-.088,0,0a.858.858,0,0,1-.081-.809h0a8.519,8.519,0,0,1,1.07-1l0,0a.154.154,0,0,0,.15-.091l.012-.006a.711.711,0,0,0,.417-.236Z" transform="translate(-204.005 -237.664)" fill="#07a6df"/>
                <path id="Trazado_41896" data-name="Trazado 41896" d="M225.09,292.542a5.389,5.389,0,0,0,3.09.436,16.931,16.931,0,0,0,6.7-1.787.443.443,0,0,1,.119-.023,2.931,2.931,0,0,1-1.4.756,18.2,18.2,0,0,1-2.493.757,15.141,15.141,0,0,1-4.592.433,6.5,6.5,0,0,1-1.157-.249.315.315,0,0,1-.263-.324" transform="translate(-206.482 -267.098)" fill="#cff7fc"/>
                <path id="Trazado_41897" data-name="Trazado 41897" d="M224.206,284.941a8.533,8.533,0,0,0-1.07,1,1.535,1.535,0,0,1,1.07-1" transform="translate(-204.689 -261.385)" fill="#cff7fc"/>
                <path id="Trazado_41898" data-name="Trazado 41898" d="M361.817,265.075a.819.819,0,0,0-.179-.971c.333-.015.362.264.407.473.041.189.029.415-.228.5" transform="translate(-331.742 -242.271)" fill="#cff7fc"/>
                <path id="Trazado_41899" data-name="Trazado 41899" d="M352.234,260.195l-.853-.33c.341-.038.69-.1.853.33" transform="translate(-322.332 -238.358)" fill="#cff7fc"/>
                <path id="Trazado_41900" data-name="Trazado 41900" d="M221.01,296.979a.859.859,0,0,0,.081.809.472.472,0,0,1-.081-.809" transform="translate(-202.561 -272.428)" fill="#cff7fc"/>
                <path id="Trazado_41901" data-name="Trazado 41901" d="M345.716,288.186a.64.64,0,0,1,.429-.233c-.035.275-.239.241-.429.233" transform="translate(-317.136 -264.148)" fill="#cff7fc"/>
                <path id="Trazado_41902" data-name="Trazado 41902" d="M238.416,280.926a.71.71,0,0,1-.417.236c.056-.226.234-.235.417-.236" transform="translate(-218.324 -257.702)" fill="#cff7fc"/>
                <path id="Trazado_41903" data-name="Trazado 41903" d="M354.861,282.127a.748.748,0,0,1,.332-.247c.023.262-.152.257-.332.247" transform="translate(-325.525 -258.577)" fill="#cff7fc"/>
                <path id="Trazado_41904" data-name="Trazado 41904" d="M236.193,283.856a.154.154,0,0,1-.15.091.136.136,0,0,1,.15-.091" transform="translate(-216.529 -260.389)" fill="#cff7fc"/>
                <path id="Trazado_41905" data-name="Trazado 41905" d="M352.514,285.425a.132.132,0,0,1,.117-.116c-.008.07-.04.115-.117.116" transform="translate(-323.372 -261.723)" fill="#cff7fc"/>
                <path id="Trazado_41906" data-name="Trazado 41906" d="M224.106,306.743l.082.088-.082-.088" transform="translate(-205.579 -281.385)" fill="#cff7fc"/>
                <path id="Trazado_41907" data-name="Trazado 41907" d="M234,282.871l.033.018L234,282.87h0" transform="translate(-214.653 -259.485)" fill="#cff7fc"/>
                <path id="Trazado_41908" data-name="Trazado 41908" d="M359.871,279.954l.081-.082-.081.082" transform="translate(-330.121 -256.735)" fill="#cff7fc"/>
                <path id="Trazado_41909" data-name="Trazado 41909" d="M360.862,278.888l.077-.088-.077.088" transform="translate(-331.03 -255.752)" fill="#cff7fc"/>
                <path id="Trazado_41910" data-name="Trazado 41910" d="M361.785,277.717l.077-.1-.077.1" transform="translate(-331.876 -254.667)" fill="#cff7fc"/>
                <path id="Trazado_41911" data-name="Trazado 41911" d="M198.339,84.594c-.483,0-.491-.009-.373-.483.066-.264.136-.528.218-.788.025-.08.027-.214.158-.2s.12.133.149.218c.084.245.168.49.24.738.148.51.138.52-.393.518" transform="translate(-181.542 -76.247)" fill="#18a5d9"/>
                <path id="Trazado_41912" data-name="Trazado 41912" d="M305.612,257.262a1.419,1.419,0,0,1,1.058-.1c-.4.138-.744.009-1.058.1" transform="translate(-280.347 -235.835)" fill="#f7fdfd"/>
                <path id="Trazado_41913" data-name="Trazado 41913" d="M320.565,256.023a.845.845,0,0,1,.716-.03.9.9,0,0,1-.716.03" transform="translate(-294.064 -234.771)" fill="#f7fdfd"/>
                <path id="Trazado_41914" data-name="Trazado 41914" d="M332.287,256.262l.069.03c-.01.023-.015.059-.032.065s-.045-.016-.068-.026l.031-.069" transform="translate(-304.789 -235.077)" fill="#f7fdfd"/>
                <path id="Trazado_41915" data-name="Trazado 41915" d="M338.374,256.3c-.01.023-.015.06-.032.066s-.045-.016-.069-.026c.01-.023.015-.06.032-.066s.045.016.069.026" transform="translate(-310.309 -235.082)" fill="#f7fdfd"/>
              </g>
            </g>
          </g>
        </g>
      </g>
    </g>
  </g>
</svg>
