<svg xmlns="http://www.w3.org/2000/svg" xmlns:xlink="http://www.w3.org/1999/xlink" width="86" height="84" viewBox="0 0 86 84">
  <defs>
    <filter id="Rect치ngulo_18263" x="0" y="0" width="86" height="84" filterUnits="userSpaceOnUse">
      <feOffset dy="3" input="SourceAlpha"/>
      <feGaussianBlur stdDeviation="3" result="blur"/>
      <feFlood flood-opacity="0.161"/>
      <feComposite operator="in" in2="blur"/>
      <feComposite in="SourceGraphic"/>
    </filter>
  </defs>
  <g id="GOLF" transform="translate(-340 -1112)">
    <g transform="matrix(1, 0, 0, 1, 340, 1112)" filter="url(#Rect치ngulo_18263)">
      <rect id="Rect치ngulo_18263-2" data-name="Rect치ngulo 18263" width="68" height="66" rx="10" transform="translate(9 6)" fill="#f7fcfe"/>
    </g>
    <g id="Grupo_19221" data-name="Grupo 19221" transform="translate(356 1147)">
      <path id="Trazado_38498" data-name="Trazado 38498" d="M264.066,655.506a2.346,2.346,0,0,0-.492-3.283,2.2,2.2,0,0,0-1.183-.418,2.334,2.334,0,0,0,.837-1.6,2.369,2.369,0,0,0-.762-1.919,2.394,2.394,0,0,0-2.739-.3,2.35,2.35,0,0,0-.678-2.051,2.264,2.264,0,0,0-1.613-.655,2.331,2.331,0,0,0-2.053,1.248,2.333,2.333,0,0,0-2.053-1.248,2.263,2.263,0,0,0-1.614.655,2.349,2.349,0,0,0-.678,2.051,2.394,2.394,0,0,0-2.739.3,2.369,2.369,0,0,0-.762,1.919,2.332,2.332,0,0,0,.838,1.6,2.2,2.2,0,0,0-1.183.418,2.44,2.44,0,0,0-.855,1.157,2.341,2.341,0,0,0,2.256,3.055h13.579a2.348,2.348,0,0,0,1.885-.917Z" transform="translate(-246.233 -645.283)" fill="#fff"/>
      <path id="Trazado_38499" data-name="Trazado 38499" d="M250.887,649.786a1.956,1.956,0,0,0-1.257.476,1.868,1.868,0,0,0-.59,1.494,1.838,1.838,0,0,0,.907,1.427l5.146,3.546-2.494-5.692a1.835,1.835,0,0,0-1.713-1.251" transform="translate(-247.22 -646.869)" fill="#fe732e"/>
      <path id="Trazado_38500" data-name="Trazado 38500" d="M257.761,646.969a1.868,1.868,0,0,1,.227,1.174s-1,5.994-1.006,6l-2.5-5.7a1.819,1.819,0,0,1,.473-1.856,1.79,1.79,0,0,1,1.937-.365,1.937,1.937,0,0,1,.864.751" transform="translate(-249.11 -645.564)" fill="#df2334"/>
      <path id="Trazado_38501" data-name="Trazado 38501" d="M266.535,649.786a1.956,1.956,0,0,1,1.257.476,1.868,1.868,0,0,1,.59,1.494,1.838,1.838,0,0,1-.908,1.427l-5.146,3.546,2.494-5.692a1.835,1.835,0,0,1,1.713-1.251" transform="translate(-251.903 -646.869)" fill="#409dc9"/>
      <path id="Trazado_38502" data-name="Trazado 38502" d="M261.517,647.913c.06,0,.152.046.163.1-.316.2-.841.422-.777.884l.074.5c.293,1.759.79,4.735.8,4.736l2.5-5.7a1.817,1.817,0,0,0-.474-1.856,1.789,1.789,0,0,0-1.936-.365,1.8,1.8,0,0,0-1.112,1.694Z" transform="translate(-251.346 -645.564)" fill="#8f6eb6"/>
      <path id="Trazado_38503" data-name="Trazado 38503" d="M267.823,656.143a1.785,1.785,0,0,1,1.66,1.2,1.873,1.873,0,0,1-.285,1.683,1.837,1.837,0,0,1-1.475.714h-5.731l4.726-3.26a2.076,2.076,0,0,1,1.105-.34" transform="translate(-251.784 -649.109)" fill="#54be38"/>
      <path id="Trazado_38504" data-name="Trazado 38504" d="M248.775,656.143a1.786,1.786,0,0,0-1.66,1.2,1.873,1.873,0,0,0,.285,1.683,1.837,1.837,0,0,0,1.475.714h5.731l-4.726-3.26a2.076,2.076,0,0,0-1.105-.34" transform="translate(-246.514 -649.109)" fill="#f9c820"/>
      <path id="Trazado_38505" data-name="Trazado 38505" d="M306.059,647.476h3.758a.542.542,0,0,0,.477-.294l.775-1.773h-5.977a1.276,1.276,0,0,0-1.275,1.275v9.208l-.594-1.354a.5.5,0,0,0-.461-.288h-3.918v-8.133a.709.709,0,0,0-.709-.708H296.6v1.713a6.125,6.125,0,0,1,.605,2.253,5.583,5.583,0,0,0-10.9.683h-3a.474.474,0,0,0-.44.272l-.716,1.637h3.363a3.322,3.322,0,0,1-3.205,2.421,3.529,3.529,0,0,1,.032-7.051,4.363,4.363,0,0,1,2.434.882.448.448,0,0,0,.621-.13l.781-1.362a5.86,5.86,0,0,0-3.789-1.44,5.576,5.576,0,1,0-.11,11.152,5.631,5.631,0,0,0,5.453-4.407,5.274,5.274,0,0,1-.369,2.172,5.594,5.594,0,0,0,9.246-.444v1.273a1.28,1.28,0,0,0,1.276,1.283h7.47a.71.71,0,0,0,.711-.708v-3.639h3.2a.543.543,0,0,0,.477-.293l.71-1.617h-4.384Zm-14.232,6.912a3.531,3.531,0,1,1,3.324-3.526,3.433,3.433,0,0,1-3.324,3.526" transform="translate(-256.962 -645.284)" fill="#221e1f"/>
    </g>
  </g>
</svg>
