<svg xmlns="http://www.w3.org/2000/svg" xmlns:xlink="http://www.w3.org/1999/xlink" width="85" height="85" viewBox="0 0 85 85">
  <defs>
    <filter id="Rectángulo_18045" x="0" y="0" width="85" height="85" filterUnits="userSpaceOnUse">
      <feOffset dy="3" input="SourceAlpha"/>
      <feGaussianBlur stdDeviation="3" result="blur"/>
      <feFlood flood-opacity="0.161"/>
      <feComposite operator="in" in2="blur"/>
      <feComposite in="SourceGraphic"/>
    </filter>
    <clipPath id="clip-path">
      <rect id="Rectángulo_18340" data-name="Rectángulo 18340" width="27.8" height="31.938" fill="none"/>
    </clipPath>
  </defs>
  <g id="Grupo_19579" data-name="Grupo 19579" transform="translate(-768 -1635)">
    <g transform="matrix(1, 0, 0, 1, 768, 1635)" filter="url(#Rectángulo_18045)">
      <rect id="Rectángulo_18045-2" data-name="Rectángulo 18045" width="67" height="67" rx="10" transform="translate(9 6)" fill="#fff"/>
    </g>
    <g id="Grupo_19578" data-name="Grupo 19578" transform="translate(797 1659)">
      <g id="Grupo_19578-2" data-name="Grupo 19578" clip-path="url(#clip-path)">
        <path id="Trazado_42019" data-name="Trazado 42019" d="M81.894,21.194h-.428V11H68.426V21.194H68V1.752h.428v8.824h13.04V1.752h.428Zm1.092,2.1h3.226v-.383l-.215,0a1.823,1.823,0,0,1-.984-.308,1.589,1.589,0,0,1-.669-1.345V1.965a1.532,1.532,0,0,1,.668-1.27A1.823,1.823,0,0,1,86,.386l.215-.006V0H77.159V.381l.215.006a1.823,1.823,0,0,1,.984.308,1.534,1.534,0,0,1,.668,1.275v.4h0v.2l-.008,5.711H70.888l-.008-5.711v-.2h0v-.4A1.534,1.534,0,0,1,71.548.694a1.823,1.823,0,0,1,.984-.308l.215-.006V0H63.694V.381l.215.006a1.823,1.823,0,0,1,.984.308,1.533,1.533,0,0,1,.668,1.27V21.255a1.589,1.589,0,0,1-.669,1.345,1.824,1.824,0,0,1-.984.308l-.215,0V23.3h9.054v-.383l-.215,0a1.823,1.823,0,0,1-.984-.308,1.5,1.5,0,0,1-.665-1.218l0-8.077h8.146l0,8.077a1.5,1.5,0,0,1-.665,1.218,1.844,1.844,0,0,1-.984.311h-.215V23.3Z" transform="translate(-61.046)" fill="#ffb514"/>
        <path id="Trazado_42020" data-name="Trazado 42020" d="M3.856,649.413h1.02v1.831H6.768v-1.831h1.02v4.73H6.768v-1.926H4.876v1.926H3.856Z" transform="translate(-3.696 -622.413)" fill="#040504"/>
        <rect id="Rectángulo_18338" data-name="Rectángulo 18338" width="1.02" height="4.73" transform="translate(4.988 27)" fill="#040504"/>
        <path id="Trazado_42021" data-name="Trazado 42021" d="M162.125,650.577a.994.994,0,0,0,.912.676c.331,0,.608-.169.608-.473,0-.23-.155-.385-.493-.507l-.568-.2A1.4,1.4,0,0,1,163,647.3a1.739,1.739,0,0,1,1.608,1.02l-.845.487a.839.839,0,0,0-.743-.568c-.311,0-.527.169-.527.419,0,.223.169.358.46.466l.615.237c.757.284,1.122.716,1.122,1.352a1.537,1.537,0,0,1-1.669,1.493,1.84,1.84,0,0,1-1.771-1.162Z" transform="translate(-154.549 -620.387)" fill="#040504"/>
        <path id="Trazado_42022" data-name="Trazado 42022" d="M253.678,649.413h3.514v.946h-1.243v3.784h-1.02v-3.784h-1.25Z" transform="translate(-243.131 -622.413)" fill="#040504"/>
        <path id="Trazado_42023" data-name="Trazado 42023" d="M346.3,652.2a2.453,2.453,0,1,1,2.473-2.453A2.453,2.453,0,0,1,346.3,652.2m0-3.919a1.467,1.467,0,1,0,1.433,1.466,1.437,1.437,0,0,0-1.433-1.466" transform="translate(-329.533 -620.387)" fill="#040504"/>
        <path id="Trazado_42024" data-name="Trazado 42024" d="M479.965,654.143h-1.007v-4.73h1.574c1.02,0,1.73.547,1.73,1.514a1.422,1.422,0,0,1-.973,1.365l1.3,1.852h-1.2l-1.162-1.73h-.27Zm0-2.568h.574a.632.632,0,0,0,.7-.628.623.623,0,0,0-.7-.622h-.574Z" transform="translate(-459.045 -622.413)" fill="#040504"/>
        <path id="Trazado_42025" data-name="Trazado 42025" d="M565.536,654.143h-1.02v-2.054l-1.689-2.676h1.162l1.047,1.73,1.047-1.73h1.142l-1.689,2.676Z" transform="translate(-539.426 -622.413)" fill="#040504"/>
        <rect id="Rectángulo_18339" data-name="Rectángulo 18339" width="27.8" height="0.428" transform="translate(0 24.933)" fill="#e6051a"/>
        <text id="TM" transform="translate(26.627 32.106)" fill="#040504" font-size="1" font-family="Helvetica"><tspan x="0" y="0">TM</tspan></text>
      </g>
    </g>
  </g>
</svg>
