<svg xmlns="http://www.w3.org/2000/svg" xmlns:xlink="http://www.w3.org/1999/xlink" width="84" height="84" viewBox="0 0 84 84">
  <defs>
    <filter id="Rect치ngulo_18075" x="0" y="0" width="84" height="84" filterUnits="userSpaceOnUse">
      <feOffset dy="3" input="SourceAlpha"/>
      <feGaussianBlur stdDeviation="3" result="blur"/>
      <feFlood flood-opacity="0.161"/>
      <feComposite operator="in" in2="blur"/>
      <feComposite in="SourceGraphic"/>
    </filter>
  </defs>
  <g id="Grupo_19578" data-name="Grupo 19578" transform="translate(-800 -1573)">
    <g id="Grupo_18779" data-name="Grupo 18779" transform="translate(-340 163)">
      <g transform="matrix(1, 0, 0, 1, 1140, 1410)" filter="url(#Rect치ngulo_18075)">
        <rect id="Rect치ngulo_18075-2" data-name="Rect치ngulo 18075" width="66" height="66" rx="10" transform="translate(9 6)" fill="#fff"/>
      </g>
    </g>
    <g id="_736_Discovery_Home_Health_HD_Negro" data-name="736 Discovery Home &amp; Health HD Negro" transform="translate(841.699 1611.971)">
      <g id="Grupo_19436" data-name="Grupo 19436" transform="translate(-21.698 -12.972)">
        <path id="Trazado_41491" data-name="Trazado 41491" d="M42.174,16.041c-.8,0-.85-.688-.85-1.008V10.584c0-2.719-1.019-5.3-4.66-5.328a5.047,5.047,0,0,0-4.212,1.875V.036H29.246V15.81a3.89,3.89,0,0,1-3.26-.883c1.3-1.469,1.624-3.241,1.845-5.224h-2.8a5.253,5.253,0,0,1-.91,3.209c-1.207-1.475-1.4-1.737-2.61-3.332,2.253-1.038,3.309-2.39,3.194-4.149A3.84,3.84,0,0,0,20.482,1.9,4.063,4.063,0,0,0,16.6,6.19a5.643,5.643,0,0,0,.853,2.545,6.042,6.042,0,0,0-2.637,2.1,5.058,5.058,0,0,0-.834,3.116,5.513,5.513,0,0,0,.254,1.29l-.058-.1a1.537,1.537,0,0,1-1.2.887c-.8,0-.861-.692-.861-1.006V10.568c0-2.729-1-5.312-4.66-5.335A5.088,5.088,0,0,0,3.236,7.1V0H.027V18.461h3.33V11.7a4.686,4.686,0,0,1,.8-3.006,2.714,2.714,0,0,1,2.253-.956h.024a1.99,1.99,0,0,1,1.875.99A5.305,5.305,0,0,1,8.8,11.346v4.415c0,1.173.562,3.038,3.32,3.038a4.444,4.444,0,0,0,3.332-1.6l-.006-.013a5.972,5.972,0,0,0,4.66,1.579A5.812,5.812,0,0,0,24,17.143a5.84,5.84,0,0,0,3.774,1.318h4.8v-6.74a4.74,4.74,0,0,1,.795-3.011,2.75,2.75,0,0,1,2.256-.951h.025a2,2,0,0,1,1.871.987,5.412,5.412,0,0,1,.475,2.615v4.406c0,1.167.574,3.032,3.329,3.032a4.894,4.894,0,0,0,2.072-.453V15.684a2.407,2.407,0,0,1-1.222.357M20.658,4.319a1.275,1.275,0,0,1,1.364,1.2c.069,1.042-.693,1.447-1.918,2.088a4.492,4.492,0,0,1-.686-1.828A1.306,1.306,0,0,1,20.658,4.319ZM20.032,16.1a2.741,2.741,0,0,1-3.072-2.425c-.064-.966.453-1.772,2-2.7,1.431,1.928,1.781,2.373,3.339,4.237A3.9,3.9,0,0,1,20.032,16.1Z" transform="translate(-0.027)" fill="#f59125"/>
        <g id="Grupo_19438" data-name="Grupo 19438" transform="translate(1)">
          <path id="Trazado_41492" data-name="Trazado 41492" d="M6.614,22.247a2.194,2.194,0,0,1-2.346,2.172H2.921a2.138,2.138,0,0,0,.666-.7h.681A1.427,1.427,0,0,0,5.8,22.255a1.443,1.443,0,0,0-1.533-1.481H3.4v.642l-.441-.4-.333-.188v-.741H4.268a2.18,2.18,0,0,1,2.346,2.163m.441,2.2h.76v-3.27h-.76Zm3.593-1.622-.327-.183-.374-.126-.275-.1-.243-.086L9.266,22.2,9.2,22.054v-.009l.122-.239.341-.1.457.086.483.225.3-.533-.58-.266-.648-.1-.453.066-.384.2L8.6,21.7l-.091.419v.01l.091.392.235.272.342.177.366.118.285.084.238.089.167.124.057.164v0l-.136.264-.381.1L9.233,23.8l-.553-.3-.339.51.677.367.732.126.484-.071.4-.191.266-.32.088-.452V23.46l-.088-.375Zm7.37-.684.133.667v.011l-.14.651-.371.544-.566.372-.714.136-.7-.136-.562-.36-.369-.548-.137-.65v-.009l.137-.667.375-.541.565-.369.711-.13.7.13.566.366Zm-.632.678-.079-.413-.215-.334-.317-.219-.415-.088-.417.088-.311.219-.206.325-.066.411v.011l.072.4.218.33.311.237.418.086.414-.086.324-.237.2-.321.073-.4Zm2.51.761-.9-2.4h-.823l1.367,3.3h.686l1.361-3.3H20.8Zm4.9-1.387.1.677v.1l-.015.106H22.433l.32.615.639.214.495-.1.412-.289.438.39-.562.446a1.78,1.78,0,0,1-.8.171L22.7,24.4l-.541-.346-.36-.543-.131-.684v-.006l.119-.673.332-.538.514-.366.662-.13.69.139.505.384Zm-.654.311-.081-.261-.17-.277-.256-.181-.339-.059-.587.238-.278.54ZM13.085,23.868a1.06,1.06,0,0,1-.039-2.112,1.13,1.13,0,0,1,.871.416l.472-.5a1.673,1.673,0,0,0-1.328-.561A1.7,1.7,0,1,0,14.413,23.9l-.457-.449A1.178,1.178,0,0,1,13.085,23.868Zm13.149-2.151v-.543h-.771v3.27h.771V23.2l.076-.568a1.448,1.448,0,0,1,1.2-.813l-.263-.626A1.628,1.628,0,0,0,26.234,21.717Zm3.977-.543-.853,2.4-.8-2.4h-.813l1.237,3.245,0,.019-.472.82-.738.082v.6l1.1-.1a1.066,1.066,0,0,0,.487-.582c.191-.37,1.651-4.084,1.651-4.084Z" transform="translate(5)" fill="#f59125"/>
          <path id="Trazado_41493" data-name="Trazado 41493" d="M3.526,22.72A1.753,1.753,0,0,0,1.76,20.984a1.73,1.73,0,1,0,0,3.46A1.746,1.746,0,0,0,3.526,22.72" transform="translate(5)" fill="#f59125"/>
        </g>
      </g>
    </g>
  </g>
</svg>
