<svg xmlns="http://www.w3.org/2000/svg" xmlns:xlink="http://www.w3.org/1999/xlink" width="85" height="85" viewBox="0 0 85 85">
  <defs>
    <filter id="Rect치ngulo_17998" x="0" y="0" width="85" height="85" filterUnits="userSpaceOnUse">
      <feOffset dy="3" input="SourceAlpha"/>
      <feGaussianBlur stdDeviation="3" result="blur"/>
      <feFlood flood-opacity="0.161"/>
      <feComposite operator="in" in2="blur"/>
      <feComposite in="SourceGraphic"/>
    </filter>
  </defs>
  <g id="Grupo_18788" data-name="Grupo 18788" transform="translate(-1052 -1246)">
    <g transform="matrix(1, 0, 0, 1, 1052, 1246)" filter="url(#Rect치ngulo_17998)">
      <rect id="Rect치ngulo_17998-2" data-name="Rect치ngulo 17998" width="67" height="67" rx="10" transform="translate(9 6)" fill="#fff"/>
    </g>
    <g id="mvs_tv_color" data-name="mvs tv color" transform="translate(1069 1279)">
      <g id="Grupo_18142" data-name="Grupo 18142" transform="translate(0 0)">
        <path id="Trazado_39908" data-name="Trazado 39908" d="M33.9,6.124A4.2,4.2,0,0,0,32.89,5.39a8.709,8.709,0,0,0-1.363-.567,5.052,5.052,0,0,1-.931-.384.571.571,0,0,1-.316-.517.657.657,0,0,1,.376-.618,1.762,1.762,0,0,1,.843-.2h.01a3.735,3.735,0,0,1,1.544.366,3.833,3.833,0,0,1,1.132.792l1.569-2.793a3.4,3.4,0,0,0-.784-.6A6.125,6.125,0,0,0,33.952.409a7.542,7.542,0,0,0-1.168-.3A7.225,7.225,0,0,0,31.531,0,6.543,6.543,0,0,0,29.42.325,5.542,5.542,0,0,0,28.379.8l.266-.464H24.152l-3.584,7.47H20.5L19.963.335H11.29l-3.1,6.528H8.11L7.067.335H2.1L0,12.247H3.634l1.026-6.9h.084l1.06,6.9H8.547l3.516-6.9h.1l-1.329,6.9h3.786L16.2,3.3l1.289,8.948h4.341l4.5-7.86a3.058,3.058,0,0,0,.232,1.179,2.688,2.688,0,0,0,.643.9,3.9,3.9,0,0,0,.968.643,9.187,9.187,0,0,0,1.193.467,3.633,3.633,0,0,1,1.093.484.677.677,0,0,1,.292.534.606.606,0,0,1-.35.559,1.949,1.949,0,0,1-.935.192,2.548,2.548,0,0,1-.584-.075q-.191-.045-.379-.108h0a3.886,3.886,0,0,1-.952-.491,3.675,3.675,0,0,1-1.127-1.235l-1.775,3.178a6.247,6.247,0,0,0,4.466,1.862h.022q.174.007.348.007a7.453,7.453,0,0,0,1.816-.234,5.633,5.633,0,0,0,1.7-.734,4.127,4.127,0,0,0,1.271-1.3,3.592,3.592,0,0,0,.5-1.936,3.075,3.075,0,0,0-.225-1.2,2.97,2.97,0,0,0-.64-.951" transform="translate(0 0)" fill="#002d5e"/>
        <path id="Trazado_39909" data-name="Trazado 39909" d="M241.869,11.2l-2.144,5.054h-.064l-.322-5.054h-4.545l.27-1.647h-3.057l-2.294,4.067h1.257l-.624,3.729q-.032.209-.056.452t-.024.434a2.386,2.386,0,0,0,.25,1.164,1.952,1.952,0,0,0,.653.712,2.635,2.635,0,0,0,.919.365,5.272,5.272,0,0,0,1.048.1,6.408,6.408,0,0,0,1.032-.087,2.041,2.041,0,0,0,.741-.226l.435-2.675c-.086.023-.194.046-.323.07a2.153,2.153,0,0,1-.387.035.9.9,0,0,1-.524-.13.613.613,0,0,1-.185-.53c0-.058,0-.133.008-.226s.013-.174.024-.243l.494-2.947h1.464l1.055,6.716H240.9l4.964-9.135Z" transform="translate(-194.465 -8.089)" fill="#29cbb9"/>
      </g>
    </g>
  </g>
</svg>
