<svg xmlns="http://www.w3.org/2000/svg" xmlns:xlink="http://www.w3.org/1999/xlink" width="85" height="85" viewBox="0 0 85 85">
  <defs>
    <filter id="Rect치ngulo_18048" x="0" y="0" width="85" height="85" filterUnits="userSpaceOnUse">
      <feOffset dy="3" input="SourceAlpha"/>
      <feGaussianBlur stdDeviation="3" result="blur"/>
      <feFlood flood-opacity="0.161"/>
      <feComposite operator="in" in2="blur"/>
      <feComposite in="SourceGraphic"/>
    </filter>
  </defs>
  <g id="Grupo_18795" data-name="Grupo 18795" transform="translate(-876 -1325)">
    <g transform="matrix(1, 0, 0, 1, 876, 1325)" filter="url(#Rect치ngulo_18048)">
      <rect id="Rect치ngulo_18048-2" data-name="Rect치ngulo 18048" width="67" height="67" rx="10" transform="translate(9 6)" fill="#fff"/>
    </g>
    <path id="Trazado_325" data-name="Trazado 325" d="M308.988,104.234Z" transform="translate(610.012 1260.766)" fill="#fff"/>
    <path id="Trazado_326" data-name="Trazado 326" d="M309.02,104.234Z" transform="translate(609.98 1260.766)" fill="#fff"/>
    <g id="Grupo_18213" data-name="Grupo 18213" transform="translate(891 1355)">
      <path id="Trazado_927" data-name="Trazado 927" d="M311.639,102.288a2.245,2.245,0,1,0,2.264,2.246,2.254,2.254,0,0,0-2.264-2.246m0-7.948a9.914,9.914,0,1,0,9.915,9.913,9.912,9.912,0,0,0-9.915-9.913m0,15.3a5.1,5.1,0,0,1-2.184-9.734v-1.1a2.184,2.184,0,0,1,4.367,0l-.038,1.084a5.1,5.1,0,0,1-2.146,9.752" transform="translate(-301.726 -94.34)" fill="#040505"/>
      <path id="Trazado_928" data-name="Trazado 928" d="M323.148,99.807A2.6,2.6,0,0,0,320.4,97.24H318.08v7.412h1.613v-2.284h.7a2.6,2.6,0,0,0,2.753-2.561m-2.94,1.1h-.515V98.7h.515c1.327,0,1.327.836,1.327,1.111s0,1.1-1.327,1.1m-4.789-.625-.984-.319c-.881-.281-.881-.569-.881-.707,0-.212.1-.707,1.031-.707a3.276,3.276,0,0,1,2.188.841,7.842,7.842,0,0,1,.7-1.211,3.787,3.787,0,0,0-2.877-1.122c-1.613,0-2.782.935-2.782,2.226,0,1.026.654,1.742,1.992,2.188l1,.335c.636.214.959.462.959.736,0,.381-.48.68-1.1.68-1,0-1.189-.457-1.238-.908h-1.742l0,.078c.134,1.454,1.229,2.324,2.927,2.324s2.884-.923,2.884-2.244c0-1.015-.7-1.751-2.083-2.19m28.594,3.341-.212.419-.212-.419h-.23v.948h.23v-.453l.136.232h.15l.134-.232v.453h.234v-.948h-.23m-7.582,1.026h4.97V103.14h-3.283v-1.474H341.4v-1.51h-3.283V98.748H341.4V97.24h-4.97v7.412m-11.2-7.412-2.38,5.527-.752,1.751-.056.134h1.764s.509-1.233.642-1.561h2.817c.136.328.642,1.561.642,1.561h1.762l-3.187-7.412h-1.254m-.181,4.394c.205-.509.506-1.24.807-1.976.3.736.6,1.468.808,1.976H325.05m17.474,2.2h.232v.741h.23v-.741h.236v-.207h-.7v.207m-11.708-3.127a2.23,2.23,0,0,1,.674-1.356l.065-.06a.782.782,0,0,1,.065-.056,2.617,2.617,0,0,1,1.184-.551l.025,0c.06-.011.123-.018.185-.025a2.039,2.039,0,0,1,.234-.011h.058c.065,0,.129.009.2.013a2.471,2.471,0,0,1,1.334.584l.257.221,1.1-1.14-.286-.248a4.216,4.216,0,0,0-2.668-.944,3.924,3.924,0,0,0-4.113,3.81v0a3.924,3.924,0,0,0,4.113,3.808,4.228,4.228,0,0,0,2.668-.941l.286-.248-1.1-1.142-.257.221a2.439,2.439,0,0,1-1.334.584c-.071.007-.136.013-.2.013l-.058,0a2.037,2.037,0,0,1-.234-.011c-.062-.007-.125-.016-.185-.025l-.025-.007a2.633,2.633,0,0,1-1.184-.547c-.022-.02-.045-.038-.065-.058a.83.83,0,0,1-.065-.06,2.231,2.231,0,0,1-.674-1.354,1.736,1.736,0,0,1-.013-.216v-.042a1.719,1.719,0,0,1,.013-.219" transform="translate(-289.468 -90.994)" fill="#040505"/>
    </g>
  </g>
</svg>
