<svg xmlns="http://www.w3.org/2000/svg" width="60" height="60" viewBox="0 0 60 60">
  <g id="Grupo_14815" data-name="Grupo 14815" transform="translate(-269 -255)">
    <rect id="Rect치ngulo_8305" data-name="Rect치ngulo 8305" width="60" height="60" transform="translate(269 255)" fill="#fff"/>
    <g id="hsbc" transform="translate(272.641 279.881)">
      <rect id="Rect치ngulo_8306" data-name="Rect치ngulo 8306" width="13.635" height="13.635" transform="translate(6.834)" fill="#fff"/>
      <path id="Trazado_17604" data-name="Trazado 17604" d="M134.417,6.834,127.6,0V13.651Z" transform="translate(-107.131)" fill="#db0011"/>
      <path id="Trazado_17605" data-name="Trazado 17605" d="M49.417,6.834,56.235,0H42.6Z" transform="translate(-35.766)" fill="#db0011"/>
      <path id="Trazado_17606" data-name="Trazado 17606" d="M0,6.834l6.834,6.817V0Z" fill="#db0011"/>
      <path id="Trazado_17607" data-name="Trazado 17607" d="M49.417,42.6,42.6,49.417H56.235Z" transform="translate(-35.766 -35.766)" fill="#db0011"/>
      <path id="Trazado_17608" data-name="Trazado 17608" d="M188.005,27.972h-2.47v2.438H184.3V24.7h1.235v2.342h2.47V24.7h1.235v5.711h-1.235Z" transform="translate(-154.736 -20.738)"/>
      <path id="Trazado_17609" data-name="Trazado 17609" d="M221.862,30.019c-1.235,0-2.246-.5-2.262-1.861h1.235a.929.929,0,0,0,1.043.979c.5,0,1.075-.257,1.075-.818,0-.449-.385-.577-1.027-.77l-.417-.112c-.9-.257-1.8-.61-1.8-1.636,0-1.267,1.187-1.7,2.262-1.7,1.107,0,2.069.385,2.085,1.652h-1.235a.833.833,0,0,0-.93-.818c-.465,0-.914.241-.914.754,0,.417.385.545,1.187.8l.481.144c.979.3,1.6.642,1.6,1.6C224.236,29.522,222.985,30.019,221.862,30.019Z" transform="translate(-184.374 -20.234)"/>
      <path id="Trazado_17610" data-name="Trazado 17610" d="M252.9,24.77h1.989a5.28,5.28,0,0,1,1.123.064,1.4,1.4,0,0,1,1.219,1.38,1.284,1.284,0,0,1-1.139,1.283c.77.144,1.347.529,1.347,1.38,0,1.3-1.283,1.588-2.278,1.588h-2.246Zm1.989,2.374c.545,0,1.107-.112,1.107-.77,0-.594-.513-.754-1.027-.754H254.1v1.524Zm.112,2.47c.577,0,1.139-.128,1.139-.834s-.481-.834-1.075-.834h-.979v1.668Z" transform="translate(-212.332 -20.792)"/>
      <path id="Trazado_17611" data-name="Trazado 17611" d="M287.263,29.935c-1.845,0-2.663-1.171-2.663-2.919S285.514,24,287.327,24c1.139,0,2.246.513,2.278,1.8h-1.283a.912.912,0,0,0-.995-.866c-1.123,0-1.46,1.2-1.46,2.117s.337,1.973,1.412,1.973a.983.983,0,0,0,1.059-.882h1.283C289.493,29.454,288.45,29.935,287.263,29.935Z" transform="translate(-238.947 -20.15)"/>
    </g>
  </g>
</svg>
