<svg xmlns="http://www.w3.org/2000/svg" width="60" height="60" viewBox="0 0 60 60">
  <g id="Grupo_14825" data-name="Grupo 14825" transform="translate(-529 -333)">
    <rect id="Rectángulo_8424" data-name="Rectángulo 8424" width="60" height="60" transform="translate(529 333)" fill="#fff"/>
    <g id="Grupo_14714" data-name="Grupo 14714" transform="translate(531.112 356.452)">
      <path id="Trazado_17627" data-name="Trazado 17627" d="M1646.259,2187.03a2.935,2.935,0,0,1-.411-.053,2.066,2.066,0,0,1-.524-.189.88.88,0,0,1-.364-.981,1.434,1.434,0,0,1,1.271-1.253,2.648,2.648,0,0,1,1.361.06.776.776,0,0,1,.564.788,1.524,1.524,0,0,1-1.31,1.556c-.132.027-.269.032-.4.049-.041.005-.081.015-.121.023Zm.513-2.13c-.157.014-.269.017-.378.036a.948.948,0,0,0-.663.373,1.192,1.192,0,0,0-.208.7.581.581,0,0,0,.408.57,1.359,1.359,0,0,0,.577.06,1.1,1.1,0,0,0,.719-.293,1.193,1.193,0,0,0,.342-.849.486.486,0,0,0-.391-.522A3.571,3.571,0,0,0,1646.772,2184.9Z" transform="translate(-1595.278 -2176.869)" fill="#707271"/>
      <path id="Trazado_17628" data-name="Trazado 17628" d="M1426.489,2187.206c-.1-.016-.2-.029-.3-.049a.852.852,0,0,1-.188-.059.5.5,0,0,1-.105-.884,1.343,1.343,0,0,1,.448-.234c.348-.105.707-.177,1.058-.275a1.551,1.551,0,0,0,.4-.173.21.21,0,0,0-.04-.4,1.218,1.218,0,0,0-.616-.06,2.6,2.6,0,0,0-.961.327c-.018.01-.037.016-.075.033.029-.14.051-.264.082-.386.006-.024.042-.045.068-.059a2.635,2.635,0,0,1,1.769-.263.845.845,0,0,1,.177.061.457.457,0,0,1,.3.564c-.116.557-.235,1.114-.353,1.671-.012.057-.033.093-.1.092-.16,0-.32,0-.5,0l.076-.409c-.044.037-.068.053-.087.073a1.325,1.325,0,0,1-.9.406.731.731,0,0,0-.111.022Zm1.279-1.311c-.278.08-.547.149-.809.236a3,3,0,0,0-.455.2.258.258,0,0,0-.161.268.262.262,0,0,0,.268.207,1.973,1.973,0,0,0,.543-.05A.874.874,0,0,0,1427.768,2185.9Z" transform="translate(-1385.562 -2177.045)" fill="#707271"/>
      <path id="Trazado_17629" data-name="Trazado 17629" d="M1579.569,2187.235c-.123-.017-.247-.028-.369-.051a.863.863,0,0,1-.766-.643,1.232,1.232,0,0,1,.015-.578,1.434,1.434,0,0,1,.962-1.139,2.522,2.522,0,0,1,.874-.115,1.694,1.694,0,0,1,.739.153c.2.1.2.1.155.316-.02.1-.039.2-.055.276a2.8,2.8,0,0,0-.455-.259,1.515,1.515,0,0,0-1.082.023.922.922,0,0,0-.564.76,1.02,1.02,0,0,0-.013.321c.054.368.325.529.707.544a1.521,1.521,0,0,0,1.21-.477c-.026.136-.054.25-.069.365-.018.139-.122.194-.225.251a1.869,1.869,0,0,1-.807.226c-.058,0-.115.017-.172.026Z" transform="translate(-1531.64 -2177.074)" fill="#707271"/>
      <path id="Trazado_17630" data-name="Trazado 17630" d="M1577.994,2042.939c-.024.105-.05.211-.073.317q-.312,1.474-.622,2.948c-.014.065-.038.086-.1.086q-.522,0-1.045,0c-.071,0-.09-.024-.074-.095.134-.621.264-1.244.4-1.865.178-.839.358-1.678.534-2.518.018-.087.047-.119.141-.118q.846.007,1.693,0c.1,0,.136.034.156.129.185.9.375,1.8.561,2.693.025.118.036.24.056.378a.558.558,0,0,0,.057-.062q.984-1.527,1.969-3.053a.186.186,0,0,1,.128-.079c.575-.005,1.149,0,1.724,0a.573.573,0,0,1,.06.008c-.049.236-.1.467-.145.7q-.4,1.9-.805,3.792c-.016.073-.044.1-.116.1q-.507,0-1.013,0c-.091,0-.1-.034-.086-.115q.328-1.523.651-3.048a.282.282,0,0,0,0-.128c-.018.023-.039.044-.055.068q-1.037,1.574-2.073,3.149a.139.139,0,0,1-.134.073c-.321,0-.641,0-.961,0-.089,0-.12-.03-.136-.113q-.313-1.563-.632-3.126c-.008-.038-.021-.075-.031-.113Z" transform="translate(-1529.409 -2040.286)" fill="#628e2f"/>
      <path id="Trazado_17631" data-name="Trazado 17631" d="M808.426,2042.787c-.049.235-.092.441-.135.647l-.535,2.539c-.019.089-.032.178-.058.264-.008.029-.046.069-.071.069-.379,0-.759,0-1.138,0-.006,0-.012-.006-.032-.017.016-.085.031-.176.05-.266q.374-1.769.75-3.538c.048-.224.1-.447.144-.672.014-.072.046-.1.119-.1q.8,0,1.6,0a.128.128,0,0,1,.133.089q.7,1.5,1.395,3a.326.326,0,0,0,.083.119c.009-.048.017-.1.027-.143q.208-.984.417-1.968c.072-.336.143-.673.219-1.008.007-.032.044-.082.068-.082.393-.005.785,0,1.194,0-.037.181-.07.35-.106.518q-.4,1.871-.793,3.742c-.018.085-.043.169-.056.254-.01.063-.042.079-.1.079-.488,0-.975,0-1.463,0-.081,0-.1-.056-.121-.108q-.347-.748-.692-1.5l-.833-1.8C808.476,2042.875,808.457,2042.844,808.426,2042.787Z" transform="translate(-793.307 -2040.307)" fill="#628e2f"/>
      <path id="Trazado_17632" data-name="Trazado 17632" d="M546.029,2015.486c.359-.094.721-.18,1.077-.285a11.491,11.491,0,0,0,3.03-1.3,2.593,2.593,0,0,0,.788-.721.763.763,0,0,0,.059-.872.221.221,0,0,0-.018-.026.2.2,0,0,0-.022-.018c-.1.073-.2.15-.31.222a8.663,8.663,0,0,1-2.376,1.078,13.555,13.555,0,0,1-2.1.45c-.365.05-.733.078-1.1.115-.019,0-.038,0-.069,0,.392-.106.772-.2,1.147-.311a12.685,12.685,0,0,0,3.016-1.283,3.268,3.268,0,0,0,.97-.829.905.905,0,0,0,.2-.56.793.793,0,0,0-.256-.544c-.054.056-.1.109-.152.16a5.564,5.564,0,0,1-1.768,1.126,8.472,8.472,0,0,1-2.245.621c-.33.045-.666.054-1,.078-.023,0-.046,0-.089,0,.294-.08.571-.146.842-.229a9.928,9.928,0,0,0,2.721-1.248,2.482,2.482,0,0,0,.606-.555.933.933,0,0,0,.1-.17.4.4,0,0,0-.133-.526,1,1,0,0,0-.408-.184.967.967,0,0,1-.453.69,4.267,4.267,0,0,1-1.33.706,6.281,6.281,0,0,1-1.966.35c.083-.023.166-.046.248-.07s.166-.05.249-.077a7.451,7.451,0,0,0,1.927-.862,2.161,2.161,0,0,0,.424-.382c.185-.216.114-.423-.158-.511-.079-.026-.161-.041-.253-.064a2.368,2.368,0,0,1,1.039-.016.6.6,0,0,1,.237.171.109.109,0,0,0,.11.045,3.555,3.555,0,0,1,1.184-.012,1.024,1.024,0,0,1,.208.066.408.408,0,0,1,.231.6c-.026.059-.056.117-.091.188.144-.016.273-.033.4-.044a1.9,1.9,0,0,1,.785.07.549.549,0,0,1,.371.806,4.076,4.076,0,0,1-.343.544.978.978,0,0,1-.073.086c.16.01.3.013.448.03a1.327,1.327,0,0,1,.294.067.554.554,0,0,1,.344.833,2.072,2.072,0,0,1-.673.785c-.3.218-.607.415-.909.619.011,0,.039,0,.066,0a3.9,3.9,0,0,1,.487.042.309.309,0,0,1,.228.5,1.7,1.7,0,0,1-.586.584,5.183,5.183,0,0,1-1.618.705,6.558,6.558,0,0,1-1.38.21c-.028,0-.055,0-.113,0,.235-.072.444-.132.651-.2a6.842,6.842,0,0,0,1.821-.842,1.831,1.831,0,0,0,.422-.411c.181-.248-.012-.411-.234-.467a.135.135,0,0,0-.079.018,11.088,11.088,0,0,1-2.694.83c-.574.1-1.154.177-1.731.263Z" transform="translate(-543.039 -2009.386)" fill="#015aa8"/>
      <path id="Trazado_17633" data-name="Trazado 17633" d="M1183.679,2046.283l.121-.578q.362-1.713.723-3.427c.035-.163.072-.326.105-.489a.1.1,0,0,1,.111-.09c.9,0,1.8-.007,2.7.006a3.4,3.4,0,0,1,1.256.226.838.838,0,0,1,.6.869,1.411,1.411,0,0,1-.278.742,1.971,1.971,0,0,1-1.173.708,6.514,6.514,0,0,1-.7.094l-.15.018,1.779,1.922c-.055,0-.088.007-.121.007-.46,0-.92,0-1.379,0a.218.218,0,0,1-.181-.079q-.8-.9-1.6-1.788c-.025-.028-.051-.054-.095-.1-.025.108-.046.193-.064.279-.113.527-.226,1.053-.335,1.581-.016.079-.047.109-.13.108-.359,0-.717,0-1.076,0C1183.754,2046.293,1183.723,2046.287,1183.679,2046.283Zm1.843-2.6c.038,0,.055.006.072.006.484,0,.968.006,1.451-.005a1.676,1.676,0,0,0,.459-.087.587.587,0,0,0,.432-.439.36.36,0,0,0-.241-.456,1.622,1.622,0,0,0-.447-.087c-.473-.011-.947,0-1.42-.007-.061,0-.088.021-.1.078-.019.1-.042.2-.064.306Z" transform="translate(-1154.102 -2040.291)" fill="#628e2f"/>
      <path id="Trazado_17634" data-name="Trazado 17634" d="M1063.744,2045.479h2.838a.381.381,0,0,1,0,.087c-.044.211-.1.42-.133.633-.016.094-.058.116-.146.115-.662,0-1.323,0-1.985,0h-2.051c.028-.138.051-.259.077-.38l.619-2.926q.126-.6.252-1.193a.1.1,0,0,1,.119-.1q1.98,0,3.96,0c.027,0,.054,0,.095.008-.019.105-.035.2-.055.3-.032.157-.071.312-.1.469-.015.084-.049.112-.137.111-.871,0-1.741,0-2.612,0-.1,0-.155.022-.175.134-.048.263-.111.523-.167.785a.774.774,0,0,0-.007.094h2.851c-.025.126-.047.236-.07.346-.026.126-.059.251-.079.377-.013.085-.053.1-.133.1-.874,0-1.749,0-2.623,0-.11,0-.15.035-.169.14-.046.26-.105.517-.159.776C1063.755,2045.393,1063.751,2045.431,1063.744,2045.479Z" transform="translate(-1037.982 -2040.31)" fill="#628e2f"/>
      <path id="Trazado_17635" data-name="Trazado 17635" d="M1431.736,2046.3c-.045,0-.078.009-.112.009-.39,0-.78,0-1.17,0a.112.112,0,0,1-.132-.1c-.074-.325-.157-.648-.233-.973a.114.114,0,0,0-.134-.1q-1.045.005-2.089,0a.148.148,0,0,0-.143.079q-.329.515-.665,1.024a.159.159,0,0,1-.1.073c-.411,0-.821,0-1.254,0,.026-.043.041-.072.059-.1l2.3-3.37c.238-.348.476-.695.711-1.044a.16.16,0,0,1,.152-.081q.758,0,1.515,0c.074,0,.111.018.131.1q.381,1.484.769,2.966.18.691.361,1.382C1431.715,2046.2,1431.724,2046.247,1431.736,2046.3Zm-1.842-1.982-.392-1.806-.032,0-1.167,1.809Z" transform="translate(-1385.587 -2040.31)" fill="#628e2f"/>
      <path id="Trazado_17636" data-name="Trazado 17636" d="M1323.307,2042.565l-.183.86a1.32,1.32,0,0,0-.043.2.386.386,0,0,1-.24.331,4.162,4.162,0,0,1-3.276.314,1.525,1.525,0,0,1-1.03-1.152,2.5,2.5,0,0,1,.033-1.025,2.825,2.825,0,0,1,.989-1.683,3.1,3.1,0,0,1,1.416-.626,4.521,4.521,0,0,1,1.944.051,1.906,1.906,0,0,1,.809.415.156.156,0,0,1,.047.122c-.054.269-.115.537-.179.8a.134.134,0,0,1-.079.085c-.068.017-.15.069-.21-.016a1.45,1.45,0,0,0-.983-.573,2.886,2.886,0,0,0-1.231.039,1.666,1.666,0,0,0-1.238,1.22,1.73,1.73,0,0,0-.077.813,1.007,1.007,0,0,0,.827.81,2.531,2.531,0,0,0,2.1-.505C1322.9,2042.9,1323.094,2042.737,1323.307,2042.565Z" transform="translate(-1283.048 -2038.385)" fill="#628e2f"/>
      <path id="Trazado_17637" data-name="Trazado 17637" d="M963.19,2041.7c-.01.066-.017.12-.028.174-.04.194-.087.387-.121.582-.018.1-.062.132-.165.131-.488-.006-.975,0-1.463,0-.089,0-.128.025-.147.115-.243,1.156-.49,2.311-.733,3.467-.019.089-.047.128-.146.126-.345-.006-.69,0-1.035,0-.038,0-.075,0-.128-.006.01-.066.015-.123.027-.178q.306-1.437.614-2.874.055-.26.111-.52c.026-.119.021-.126-.1-.126h-1.463c-.139,0-.138,0-.108-.14q.067-.322.132-.643c.013-.065.028-.108.117-.108q2.273.005,4.546,0C963.123,2041.7,963.146,2041.7,963.19,2041.7Z" transform="translate(-938.527 -2040.29)" fill="#628e2f"/>
      <path id="Trazado_17638" data-name="Trazado 17638" d="M508.007,2011.991c-.276.133-.568.255-.843.409a3.777,3.777,0,0,0-1.718,1.9,3.578,3.578,0,0,0-.239,1.8,3.789,3.789,0,0,0,.843,2,3.472,3.472,0,0,0,2.268,1.269,4.429,4.429,0,0,0,2.113-.256l.1-.034s.012,0,.018.005a3.887,3.887,0,1,1-2.541-7.093Z" transform="translate(-504.488 -2011.878)" fill="#628e2f"/>
      <path id="Trazado_17639" data-name="Trazado 17639" d="M749.9,2041.751c-.047.223-.09.43-.133.637l-.533,2.508c-.1.455-.194.911-.289,1.366-.011.052-.024.083-.084.082l-1.17,0a.269.269,0,0,1-.049-.012c.05-.24.1-.478.149-.714q.392-1.851.785-3.7c.034-.162.033-.162.2-.162Z" transform="translate(-737.054 -2040.342)" fill="#628e2f"/>
      <path id="Trazado_17640" data-name="Trazado 17640" d="M1352.007,2175.141c.122.018.245.034.367.054a.915.915,0,0,1,.14.039.54.54,0,0,1,.308.858.851.851,0,0,1-.451.371,1.954,1.954,0,0,1-.719.159c-.567.012-1.135.015-1.7.021h-.129c.033-.168.061-.323.094-.478.164-.771.331-1.541.493-2.312.019-.092.053-.124.149-.123.515,0,1.031-.006,1.546.006a3.34,3.34,0,0,1,.669.084.478.478,0,0,1,.421.534.777.777,0,0,1-.423.586,1.682,1.682,0,0,1-.681.177l-.081.007Zm-1.429,1.082a.678.678,0,0,0,.075.011c.258,0,.516.01.773,0a2.422,2.422,0,0,0,.491-.077.458.458,0,0,0,.331-.369.276.276,0,0,0-.172-.349,1.019,1.019,0,0,0-.34-.082c-.292-.012-.585,0-.877-.008-.082,0-.109.031-.123.1-.032.16-.069.319-.1.478C1350.613,2176.022,1350.6,2176.119,1350.578,2176.223Zm.262-1.269c.35,0,.684.015,1.016-.007a1.164,1.164,0,0,0,.447-.15.331.331,0,0,0,.157-.37c-.025-.144-.146-.182-.267-.212a.274.274,0,0,0-.051-.012c-.354-.014-.708-.028-1.062-.037a.112.112,0,0,0-.084.067C1350.94,2174.469,1350.892,2174.707,1350.84,2174.954Z" transform="translate(-1313.01 -2166.573)" fill="#707271"/>
      <path id="Trazado_17641" data-name="Trazado 17641" d="M1497.468,2187.751c.037-.181.069-.343.1-.5.123-.577.248-1.154.368-1.732.018-.087.052-.122.144-.117.159.008.318,0,.495,0l-.09.456a.423.423,0,0,0,.064-.043,1.714,1.714,0,0,1,1.618-.406,1.3,1.3,0,0,1,.361.2.4.4,0,0,1,.12.429c-.092.467-.192.932-.29,1.4-.016.075-.039.148-.048.224s-.041.1-.116.1c-.176,0-.353,0-.543,0,.047-.226.09-.435.133-.644.055-.272.113-.544.162-.817a1.041,1.041,0,0,0,0-.238.286.286,0,0,0-.246-.273,1.055,1.055,0,0,0-1.358.847c-.058.345-.143.686-.214,1.03-.014.067-.04.1-.117.1C1497.841,2187.747,1497.667,2187.751,1497.468,2187.751Z" transform="translate(-1454.227 -2177.682)" fill="#707271"/>
      <path id="Trazado_17642" data-name="Trazado 17642" d="M1735.354,2121.479a.485.485,0,0,1-.438-.723.76.76,0,0,1,.8-.46.462.462,0,0,1,.368.553A.778.778,0,0,1,1735.354,2121.479Zm0-.074a.675.675,0,0,0,.654-.574.411.411,0,0,0-.369-.467.664.664,0,0,0-.693.535A.412.412,0,0,0,1735.357,2121.406Z" transform="translate(-1681.284 -2115.46)"/>
      <path id="Trazado_17649" data-name="Trazado 17649" d="M1737,2122.955a.412.412,0,0,1-.408-.506.663.663,0,0,1,.693-.535.411.411,0,0,1,.369.467A.675.675,0,0,1,1737,2122.955Zm.328-.213a.305.305,0,0,0-.007-.052c-.04-.124-.088-.236.075-.33.1-.055.082-.21-.008-.231a1.215,1.215,0,0,0-.409-.022c-.032,0-.05.137-.074.21a.313.313,0,0,0-.01.04l-.078.386c.089.022.134.006.143-.08a.471.471,0,0,1,.034-.141.1.1,0,0,1,.07-.054.1.1,0,0,1,.069.057.41.41,0,0,1,.038.129C1737.185,2122.756,1737.241,2122.771,1737.329,2122.742Z" transform="translate(-1682.929 -2117.01)" fill="#fff"/>
      <path id="Trazado_17650" data-name="Trazado 17650" d="M1742.476,2126.9c-.088.03-.144.014-.158-.086a.412.412,0,0,0-.038-.13.105.105,0,0,0-.069-.057.1.1,0,0,0-.07.054.471.471,0,0,0-.034.141c-.009.086-.055.1-.143.08l.078-.386a.378.378,0,0,1,.01-.041c.024-.073.042-.207.074-.21a1.222,1.222,0,0,1,.409.022c.09.021.1.175.008.231-.163.094-.114.206-.075.33A.277.277,0,0,1,1742.476,2126.9Zm-.3-.343a1.244,1.244,0,0,0,.219-.033.139.139,0,0,0,.063-.1.106.106,0,0,0-.045-.083.141.141,0,0,0-.226.1C1742.183,2126.475,1742.182,2126.505,1742.176,2126.556Z" transform="translate(-1688.076 -2121.167)"/>
      <path id="Trazado_17651" data-name="Trazado 17651" d="M1746.821,2127.864c.005-.051.007-.081.012-.111a.141.141,0,0,1,.225-.1.105.105,0,0,1,.045.083.139.139,0,0,1-.064.1A1.22,1.22,0,0,1,1746.821,2127.864Z" transform="translate(-1692.721 -2122.475)" fill="#fff"/>
    </g>
  </g>
</svg>
