<svg xmlns="http://www.w3.org/2000/svg" width="60" height="60" viewBox="0 0 60 60">
  <g id="Grupo_14817" data-name="Grupo 14817" transform="translate(-660 -255)">
    <rect id="Rectángulo_8310" data-name="Rectángulo 8310" width="60" height="60" transform="translate(660 255)" fill="#fff"/>
    <g id="Grupo_14213" data-name="Grupo 14213" transform="translate(671.345 274.419)">
      <path id="Trazado_17612" data-name="Trazado 17612" d="M266.966,156.94h.161l.161-.015.161-.015.161-.015.161-.029.161-.044.161-.044.176-.044.161-.059.161-.073.161-.059.161-.073.161-.088.146-.073.161-.088.146-.1.132-.1.146-.1.132-.1.132-.1.132-.117.117-.117.117-.132.1-.117.1-.132.088-.132.088-.132.073-.132.073-.132.059-.132.059-.146.044-.146,5.081-17.7h-9.445v7.629l.908-4.876H272.5l-3.851,13.969a1.709,1.709,0,0,1-1.508,1.142h-.381v2.636Zm-.205-20.5H256.482v2.753h3.324c.542,0,1.215.542,1.186,1.054l-.366,5.872h-4.144v1.04a.434.434,0,0,0,.161.059h3.91L260.406,150h-3.924v.966h3.88L260.2,154.3h-3.719v2.636h10.279V154.3h-5.74l.234-3.339h3.778a1.011,1.011,0,0,0,.849-.805l.278-1.684c0-.029-.073-.044-.088-.029l-.805,1.274a.828.828,0,0,1-.644.278h-2.372a.95.95,0,0,1-.849-.82l.761-9.986h4.32l-1.245,7.482a.512.512,0,1,0,1.01.146l.513-2.753V136.44Zm-10.279,8.522v-2.9a.492.492,0,0,1,.4.512l.132,2.387Zm0-8.522h-4.188v2.885a.9.9,0,0,1,.41-.132h3.778V136.44Zm-4.188,20.5h4.188V154.3h-4.188v2.636Zm4.188-14.877v2.9h-.425l-.117-2.343a.5.5,0,0,1,.542-.556Zm0,4.056v1.04c-.176-.088-.351-.293-.351-.41l-.015-.63Zm0,3.88h-2.87a.869.869,0,0,1-.747-.63l-.571-4.276v5.842a1.417,1.417,0,0,0,.439.029h3.749Zm-4.188-13.559h-11.67l5.081,17.7.044.146.059.146.059.132.073.132.073.132.088.132.088.132.1.132.117.117.1.132.132.117.117.117.132.1.132.1.146.1.146.1.146.1.146.088.161.073.146.088.161.073.161.059.161.073.176.059.161.044.161.044.161.044.161.029.161.015.161.015.161.015h2.592V154.3H249.7a1.742,1.742,0,0,1-1.537-1.069l-3.954-14.042h5.945l1.772,11c.073.5.205.674.366.747v-5.842l-.63-4.788a1.162,1.162,0,0,1,.63-.981Z" transform="translate(-239.687 -135.737)" fill="#fff" fill-rule="evenodd"/>
      <path id="Trazado_17613" data-name="Trazado 17613" d="M263.31,154.889h.176l.19-.015.19-.015.19-.029.19-.044.19-.044.19-.044.19-.059.19-.073.176-.059.19-.088.176-.073.19-.088.176-.1.161-.1.176-.1.161-.117.161-.117.161-.117.146-.132.146-.132.132-.132.132-.146.132-.146.117-.146.117-.161.1-.161.088-.161.088-.176.088-.161.059-.176.059-.176,5.33-18.611H254.744v.7h17.791l-5.081,17.7-.044.146-.059.146-.059.132-.073.132-.073.132-.088.132-.088.132-.1.132-.1.117-.117.132-.117.117-.132.117-.132.1-.132.1-.146.1-.132.1-.146.1-.161.088-.146.073-.161.088-.161.073-.161.059-.161.073-.161.059-.176.044-.161.044-.161.044-.161.029-.161.015-.161.015-.161.015h-8.712v.7Zm-8.566-21.905H236.016l5.33,18.611.059.176.073.176.073.161.088.176.088.161.117.161.1.161.117.146.132.146.132.146.146.132.132.132.161.132.146.117.161.117.161.117.176.1.176.1.176.1.176.088.176.073.19.088.19.059.176.073.19.059.19.044.19.044.19.044.19.029.19.015.19.015h8.742v-.7h-8.712l-.161-.015-.161-.015-.161-.015-.161-.029-.161-.044-.161-.044-.161-.044-.176-.059-.161-.073-.161-.059-.161-.073-.146-.088-.161-.073-.146-.088-.146-.1-.146-.1-.146-.1-.132-.1-.132-.1-.117-.117-.132-.117-.1-.132-.117-.117-.1-.132-.088-.132-.088-.132-.073-.132-.073-.132-.059-.132-.059-.146-.044-.146-5.081-17.7h17.791Z" transform="translate(-236.016 -132.984)" fill="#161615" fill-rule="evenodd"/>
      <path id="Trazado_17614" data-name="Trazado 17614" d="M270.066,165.087h4.188l.161-3.339h-4.349v3.339Zm0-4.3v-6.018l.044.981h.952l-.132-2.387a.463.463,0,0,0-.864-.278v-3.1h3.792c.542,0,1.215.542,1.186,1.054l-.366,5.872h-4.51l.015.63a.65.65,0,0,0,.513.469h3.91l-.146,2.782Zm5.388-.82a.95.95,0,0,0,.849.82h2.372a.828.828,0,0,0,.644-.278l.805-1.274c.015-.015.088,0,.088.029l-.278,1.684a1.011,1.011,0,0,1-.849.805h-3.778l-.234,3.339h6.121a1.709,1.709,0,0,0,1.508-1.142l3.851-13.969h-4.832L280.3,157.6a.512.512,0,1,1-1.01-.146l1.245-7.482h-4.32Zm-13.237,4.056a1.742,1.742,0,0,0,1.537,1.069h6.311v-3.339h-3.28c-.366,0-.674.088-.805-.776l-1.772-11h-5.945l3.954,14.042Zm7.848-14.042v3.1a.554.554,0,0,0-.073.322l.073,1.362v6.018h-2.4a.869.869,0,0,1-.747-.63l-1.2-9.064a1.213,1.213,0,0,1,1.04-1.113Z" transform="translate(-253.739 -146.52)" fill="#dd1728" fill-rule="evenodd"/>
    </g>
  </g>
</svg>
