<svg xmlns="http://www.w3.org/2000/svg" width="60" height="60" viewBox="0 0 60 60">
  <g id="Grupo_14827" data-name="Grupo 14827" transform="translate(-657 -333)">
    <rect id="Rect치ngulo_8426" data-name="Rect치ngulo 8426" width="60" height="60" transform="translate(657 333)" fill="#fff"/>
    <g id="Grupo_14715" data-name="Grupo 14715" transform="translate(660.87 358.637)">
      <g id="Grupo_14242" data-name="Grupo 14242" transform="translate(0 0)">
        <path id="Trazado_17652" data-name="Trazado 17652" d="M370.006,348.382c1.641,0,2.461.947,2.461,2.09a1.969,1.969,0,0,1-1.553,1.963l1.631,2.764h-1.582l-1.5-2.657h-.645V355.2h-1.367v-6.817Zm-.049,1.133h-1.143v2h1.143c.762,0,1.1-.4,1.1-1.016S370.719,349.515,369.957,349.515Z" transform="translate(-367.447 -347.542)" fill="#001f66"/>
        <path id="Trazado_17653" data-name="Trazado 17653" d="M433.826,369.455a2.794,2.794,0,0,1,0-5.587,2.54,2.54,0,0,1,2.666,2.676,3.2,3.2,0,0,1-.039.527H432.5a1.266,1.266,0,0,0,1.3,1.25,1.115,1.115,0,0,0,1.084-.654h1.475A2.515,2.515,0,0,1,433.826,369.455Zm-1.319-3.3h2.569a1.2,1.2,0,0,0-1.289-1.162A1.256,1.256,0,0,0,432.508,366.153Z" transform="translate(-425.69 -361.71)" fill="#001f66"/>
        <path id="Trazado_17654" data-name="Trazado 17654" d="M498.632,345.293a2.221,2.221,0,0,1,1.768.84v-2.569h1.387v7.228H500.4v-.8a2.045,2.045,0,0,1-1.778.889,2.569,2.569,0,0,1-2.471-2.813A2.535,2.535,0,0,1,498.632,345.293Zm.342,1.2a1.443,1.443,0,0,0-1.426,1.572,1.479,1.479,0,0,0,1.426,1.612,1.6,1.6,0,0,0,0-3.184Z" transform="translate(-485.193 -343.134)" fill="#001f66"/>
        <path id="Trazado_17655" data-name="Trazado 17655" d="M576.274,349.38h-2.588v1.709h2.3v1.084h-2.3v1.807h2.588v1.114h-3.956v-6.827h3.956Z" transform="translate(-554.875 -347.437)" fill="#0062ff"/>
        <path id="Trazado_17656" data-name="Trazado 17656" d="M622.718,342.6H622.1v-1.123h.615v-.274c0-1.328.752-1.944,2.276-1.9v1.152c-.664-.02-.889.2-.889.8v.225h.947V342.6h-.947v4.288h-1.387Z" transform="translate(-600.421 -339.233)" fill="#0062ff"/>
        <path id="Trazado_17657" data-name="Trazado 17657" d="M660.033,369.455a2.794,2.794,0,0,1,0-5.587,2.54,2.54,0,0,1,2.666,2.676,3.19,3.19,0,0,1-.039.527H658.7a1.266,1.266,0,0,0,1.3,1.25,1.115,1.115,0,0,0,1.084-.654h1.475A2.515,2.515,0,0,1,660.033,369.455Zm-1.319-3.3h2.569a1.2,1.2,0,0,0-1.289-1.162A1.256,1.256,0,0,0,658.715,366.153Z" transform="translate(-632.637 -361.71)" fill="#0062ff"/>
        <path id="Trazado_17658" data-name="Trazado 17658" d="M725.035,363.868a2.414,2.414,0,0,1,2.549,1.914h-1.475a1.063,1.063,0,0,0-1.084-.752c-.762,0-1.27.576-1.27,1.631s.508,1.621,1.27,1.621a1.032,1.032,0,0,0,1.084-.742h1.475a2.468,2.468,0,0,1-2.549,1.914,2.8,2.8,0,0,1,0-5.587Z" transform="translate(-692.141 -361.71)" fill="#0062ff"/>
        <path id="Trazado_17659" data-name="Trazado 17659" d="M785.4,351.646h-.645v-1.123h.645v-1.338h1.377v1.338h1.211v1.123h-1.211v2.618c0,.361.146.518.576.518h.635v1.153h-.859c-1.035,0-1.729-.44-1.729-1.68Z" transform="translate(-749.228 -348.277)" fill="#0062ff"/>
        <ellipse id="Elipse_19" data-name="Elipse 19" cx="0.84" cy="0.801" rx="0.84" ry="0.801" transform="translate(39.116)" fill="#01cf65"/>
        <rect id="Rect치ngulo_8321" data-name="Rect치ngulo 8321" width="1.367" height="5.411" transform="translate(39.262 2.246)" fill="#0062ff"/>
        <path id="Trazado_17660" data-name="Trazado 17660" d="M849.43,364.9l1.367,4.151,1.367-4.151h1.455l-2,5.411h-1.66l-1.992-5.411Z" transform="translate(-807.052 -362.655)" fill="#0062ff"/>
        <path id="Trazado_17661" data-name="Trazado 17661" d="M916.051,363.868a2.139,2.139,0,0,1,1.787.86v-.772h1.377v5.411h-1.377v-.791a2.134,2.134,0,0,1-1.8.879,2.568,2.568,0,0,1-2.461-2.813A2.534,2.534,0,0,1,916.051,363.868Zm.352,1.2a1.443,1.443,0,0,0-1.426,1.572,1.479,1.479,0,0,0,1.426,1.612,1.6,1.6,0,0,0,0-3.184Z" transform="translate(-867.08 -361.71)" fill="#0062ff"/>
      </g>
      <path id="Trazado_17662" data-name="Trazado 17662" d="M988.978,418.515a.369.369,0,1,1-.37-.367A.371.371,0,0,1,988.978,418.515Zm-.563.245h.076v-.2h.046c.059,0,.082.021.141.127l.043.075h.093l-.057-.093c-.04-.063-.07-.1-.112-.117v0a.134.134,0,0,0,.136-.136c0-.053-.039-.126-.156-.126h-.211Zm.076-.267v-.142h.124c.05,0,.085.026.085.069s-.04.073-.1.073Zm.56.022a.442.442,0,1,0-.443.443A.441.441,0,0,0,989.05,418.515Z" transform="translate(-935.316 -411.3)" fill="#0062ff"/>
    </g>
  </g>
</svg>
