<svg xmlns="http://www.w3.org/2000/svg" width="60" height="60" viewBox="0 0 60 60">
  <g id="Grupo_14829" data-name="Grupo 14829" transform="translate(-786 -333)">
    <rect id="Rectángulo_8428" data-name="Rectángulo 8428" width="60" height="60" transform="translate(786 333)" fill="#fff"/>
    <g id="Grupo_14716" data-name="Grupo 14716" transform="translate(803.653 349.823)">
      <circle id="Elipse_20" data-name="Elipse 20" cx="12.5" cy="12.5" r="12.5" transform="translate(0.347 0.178)" fill="#db091e"/>
      <g id="Grupo_14244" data-name="Grupo 14244" transform="translate(13.679 12.24)">
        <path id="Trazado_17663" data-name="Trazado 17663" d="M206.323,306.958a2.052,2.052,0,0,0,1.142-1.84h0a2.039,2.039,0,0,0-2.039-2.039h-4.49v8.238H205.7a2.211,2.211,0,0,0,2.211-2.211v-.037A2.2,2.2,0,0,0,206.323,306.958Zm-3.743-2.516h2.341a.951.951,0,1,1-.007,1.9H202.58Zm3.6,4.424a1.089,1.089,0,0,1-1.088,1.089h-2.482a.028.028,0,0,1-.028-.028v-2.121a.028.028,0,0,1,.028-.028h2.482a1.088,1.088,0,0,1,1.088,1.088Z" transform="translate(-200.936 -303.08)" fill="#fff"/>
      </g>
      <g id="Grupo_14245" data-name="Grupo 14245" transform="translate(5.545 12.24)">
        <path id="Trazado_17664" data-name="Trazado 17664" d="M152.248,306.958a2.052,2.052,0,0,0,1.142-1.84h0a2.039,2.039,0,0,0-2.039-2.039h-4.49v8.238h4.764a2.211,2.211,0,0,0,2.211-2.211v-.037A2.2,2.2,0,0,0,152.248,306.958Zm-3.743-2.516h2.341a.951.951,0,0,1-.007,1.9h-2.334Zm3.6,4.424a1.088,1.088,0,0,1-1.088,1.089h-2.482a.028.028,0,0,1-.028-.028v-2.121a.028.028,0,0,1,.028-.028h2.482a1.088,1.088,0,0,1,1.088,1.088Z" transform="translate(-146.861 -303.08)" fill="#fff"/>
      </g>
      <g id="Grupo_14246" data-name="Grupo 14246" transform="translate(9.294 2.687)">
        <path id="Trazado_17665" data-name="Trazado 17665" d="M177.173,243.453a2.052,2.052,0,0,0,1.142-1.84h0a2.039,2.039,0,0,0-2.039-2.039h-4.49v8.238h4.764a2.211,2.211,0,0,0,2.211-2.211v-.037A2.2,2.2,0,0,0,177.173,243.453Zm-3.743-2.516h2.341a.951.951,0,1,1-.007,1.9H173.43Zm3.6,4.424a1.088,1.088,0,0,1-1.089,1.088h-2.482a.028.028,0,0,1-.028-.028V244.3a.028.028,0,0,1,.028-.028h2.482a1.089,1.089,0,0,1,1.089,1.088Z" transform="translate(-171.786 -239.575)" fill="#fff"/>
      </g>
    </g>
  </g>
</svg>
