<svg xmlns="http://www.w3.org/2000/svg" xmlns:xlink="http://www.w3.org/1999/xlink" width="191.321" height="41.44" viewBox="0 0 191.321 41.44">
  <defs>
    <linearGradient id="linear-gradient" x1="0.5" y1="-0.539" x2="0.5" y2="0.737" gradientUnits="objectBoundingBox">
      <stop offset="0" stop-color="#ed4c14"/>
      <stop offset="0.901" stop-color="#f6790b"/>
      <stop offset="0.993" stop-color="#f77e0b"/>
    </linearGradient>
    <linearGradient id="linear-gradient-2" x1="0.5" y1="-1.178" x2="0.5" y2="0.629" xlink:href="#linear-gradient"/>
    <linearGradient id="linear-gradient-4" x1="0.5" y1="0.307" x2="0.5" y2="1.041" gradientUnits="objectBoundingBox">
      <stop offset="0" stop-color="#fff"/>
      <stop offset="1" stop-color="#96999c"/>
    </linearGradient>
    <linearGradient id="linear-gradient-5" x1="0.5" y1="0.311" x2="0.5" y2="1.031" xlink:href="#linear-gradient-4"/>
    <linearGradient id="linear-gradient-6" x1="0.5" y1="0.332" x2="0.5" y2="1.052" xlink:href="#linear-gradient-4"/>
  </defs>
  <g id="Grupo_20853" data-name="Grupo 20853" transform="translate(0)">
    <g id="main_logo_mvshub" transform="translate(0 0)">
      <g id="Grupo_16447" data-name="Grupo 16447">
        <g id="Grupo_16444" data-name="Grupo 16444" transform="translate(103.722)">
          <path id="Trazado_22335" data-name="Trazado 22335" d="M1587.079,2011.659v-39.992h7.411v14.375a11.542,11.542,0,0,1,8.866-3.748q10.431,0,10.431,10.851v18.514h-7.411v-18.514q0-4.866-4.838-4.866a10.922,10.922,0,0,0-7.048,2.881v20.5Z" transform="translate(-1587.079 -1971.667)" fill="url(#linear-gradient)"/>
          <path id="Trazado_22336" data-name="Trazado 22336" d="M1666.585,1992.228V2020.5H1660.8l-.9-3.748a17.745,17.745,0,0,1-10.739,3.748q-9.005,0-9.005-10.655v-17.614h7.411v17.418q0,4.866,4.251,4.866a12.124,12.124,0,0,0,7.355-2.881v-19.4Z" transform="translate(-1609.893 -1980.505)" fill="url(#linear-gradient-2)"/>
          <path id="Trazado_22337" data-name="Trazado 22337" d="M1692.743,1971.667h7.411v12.865a12.989,12.989,0,0,1,7.41-2.237q12.53,0,12.53,14.1,0,15.27-14.347,15.27a76.68,76.68,0,0,1-13-1.2Zm7.411,33.2a19.441,19.441,0,0,0,5.9.811q6.712,0,6.712-9.481,0-7.746-5.789-7.746a15.276,15.276,0,0,0-6.824,1.51Z" transform="translate(-1632.496 -1971.667)" fill="url(#linear-gradient)"/>
        </g>
        <g id="Grupo_16445" data-name="Grupo 16445" transform="translate(0 10.898)">
          <path id="Trazado_22338" data-name="Trazado 22338" d="M1498.1,2012.881l-7.132-20.528h-7.831l11.214,29.365h7.048l11.942-29.365h-7.831Z" transform="translate(-1438.678 -1991.456)" fill="url(#linear-gradient-4)"/>
          <path id="Trazado_22339" data-name="Trazado 22339" d="M1551.844,2003.749h-4.754a4.573,4.573,0,0,1-2.24-.471,2.586,2.586,0,0,1-1.256-2.466,2.555,2.555,0,0,1,1.8-2.447,11.169,11.169,0,0,1,4.21-.63,28.475,28.475,0,0,1,10.3,1.829l.328.128v-6.153a31.946,31.946,0,0,0-10.431-1.678,23.444,23.444,0,0,0-6.547.8,10.759,10.759,0,0,0-3.393,1.615,7.275,7.275,0,0,0-2.341,2.857,8.241,8.241,0,0,0-.585,1.843,10.968,10.968,0,0,0-.195,2.118,13.656,13.656,0,0,0,.229,2.591,7.949,7.949,0,0,0,1.368,3.279,6.616,6.616,0,0,0,2.93,2.2,9.921,9.921,0,0,0,2.22.582,14.932,14.932,0,0,0,2.2.153H1551q3.216,0,3.216,2.937,0,3.076-4.782,3.076a30.275,30.275,0,0,1-11.3-1.957v6.152a33.85,33.85,0,0,0,11.019,1.678q12.473,0,12.474-9.229a13.19,13.19,0,0,0-.155-2.074,8.86,8.86,0,0,0-.73-2.425,6.705,6.705,0,0,0-3-3.1A12.605,12.605,0,0,0,1551.844,2003.749Z" transform="translate(-1461.72 -1991.245)" fill="url(#linear-gradient-5)"/>
          <path id="Trazado_22340" data-name="Trazado 22340" d="M1427.607,1995.386l.1-.11a14.113,14.113,0,0,1,4.219-3.306,11.526,11.526,0,0,1,5.039-1.19,12.408,12.408,0,0,1,9.2,4.231c2.461,2.843,3.809,5.569,3.809,9.469v16.2h-7.324v-16.2c0-3.5-2.636-6.611-5.683-6.611-3.164,0-5.742,3.041-5.742,6.611v16.2h-7.305v-16.2c0-3.57-2.578-6.611-5.742-6.611-3.047,0-5.683,3.107-5.683,6.611v16.2h-7.324v-16.2c0-3.9,1.348-6.627,3.809-9.469a12.408,12.408,0,0,1,9.2-4.231,11.524,11.524,0,0,1,5.039,1.19,14.112,14.112,0,0,1,4.219,3.306l.1.11.038.042Z" transform="translate(-1405.165 -1990.78)" fill="url(#linear-gradient-6)"/>
          <path id="Trazado_22341" data-name="Trazado 22341" d="M1444.617,1998.867" transform="translate(-1422.123 -1994.256)" fill="#fff"/>
        </g>
      </g>
    </g>
  </g>
</svg>
